<?xml version="1.0" encoding="utf-8"?>
<!-- Generator: Adobe Illustrator 23.0.1, SVG Export Plug-In . SVG Version: 6.00 Build 0)  -->
<svg version="1.1" id="レイヤー_1" xmlns="http://www.w3.org/2000/svg" xmlns:xlink="http://www.w3.org/1999/xlink" x="0px"
	 y="0px" viewBox="0 0 356.7 96.4" style="enable-background:new 0 0 356.7 96.4;" xml:space="preserve">
<style type="text/css">
	.st0{fill:#303030;}
	.st1{fill:#DF0010;}
	.st2{fill:#F39800;}
	.st3{fill:#C30D23;}
	.st4{fill:#FFFFFF;}
</style>
<title>ランクリード パワフル</title>
<desc>建設・建築・土木の求人情報 ランクリード パワフルのロゴ</desc>
<polygon class="st0" points="198.7,2.1 193.4,2.1 193.4,62.2 222.2,62.2 222.2,57.2 198.7,57.2 "/>
<path class="st0" d="M250.9,54.7c-1.1,1-2.5,1.7-3.9,2.2c-1.5,0.5-3.1,0.8-4.7,0.8c-3.1,0.1-6.2-1.2-8.3-3.5
	c-2.1-2.2-3.3-5.1-3.5-8.1v-0.5h29.3v-0.4c0.1-4.1-1.2-8.1-3.7-11.3c-3.2-4.2-8.3-6.6-13.6-6.5c-5.2-0.2-10.1,2.2-13.3,6.3
	c-2.6,3.2-4,7.2-3.9,11.3c0,4.4,1.6,8.7,4.6,12c3.1,3.5,7.4,5.4,12.8,5.4c2.2,0,4.5-0.3,6.6-1.1c1.9-0.7,3.7-1.9,5.3-3.3
	c1.7-1.6,3.1-3.5,4.1-5.6l0.2-0.4l-4.3-2.2l-0.2,0.4C253.4,51.9,252.2,53.4,250.9,54.7z M231.2,40.7c0.6-2.1,1.8-3.9,3.3-5.4
	c2.2-2,5-3.1,8-3c1.9,0,3.7,0.4,5.4,1.2c1.6,0.7,3,1.8,4.1,3.1c0.9,1.2,1.6,2.6,2.1,4.1l0.2,0.5H231L231.2,40.7z"/>
<path class="st0" d="M288,29.2c-2.3-1.2-4.9-1.8-7.5-1.8c-4.6-0.1-9,1.8-12.2,5.1c-3.3,3.2-5.1,7.7-5.1,12.3
	c-0.1,4.7,1.7,9.1,5,12.5c5.1,5.2,12.9,6.6,19.5,3.5c1.7-0.8,3.2-2,4.6-3.3l0.7-0.7v4.8h5V28.3h-5v5.1l-0.7-0.8
	C291.1,31.2,289.6,30.1,288,29.2z M293.3,45.1c0,2.2-0.5,4.5-1.6,6.4l0,0c-1.1,1.9-2.7,3.5-4.6,4.5c-1.9,1.1-4.1,1.7-6.3,1.7
	c-2.2,0-4.3-0.6-6.2-1.7c-1.9-1.1-3.5-2.8-4.6-4.7c-2.3-3.9-2.3-8.8,0-12.7c2.2-3.9,6.3-6.3,10.8-6.3c3.3-0.1,6.5,1.2,8.8,3.6
	C292.1,38.4,293.4,41.7,293.3,45.1z"/>
<path class="st0" d="M337.7,19.1c-3.1-1.6-6.4-2.4-9.9-2.3c-6.1-0.1-12,2.4-16.2,6.8c-4.4,4.3-6.8,10.2-6.7,16.4
	c-0.1,6.2,2.3,12.2,6.7,16.6c6.7,6.9,17.1,8.8,25.9,4.6c3.1-1.6,5.9-3.8,8.1-6.6l0.7-0.9v8.5h4.9V0.6h-4.9v26.5l-0.8-1
	C343.5,23.2,340.8,20.8,337.7,19.1z M346.6,40.3c0,3.3-0.8,6.5-2.4,9.4c-1.6,2.8-3.9,5.1-6.7,6.6c-2.8,1.6-6,2.5-9.3,2.5
	c-3.2,0-6.3-0.8-9.1-2.5c-2.8-1.7-5.1-4-6.7-6.9c-3.3-5.8-3.3-12.9,0-18.6c3.2-5.8,9.3-9.3,15.9-9.3c4.9-0.1,9.6,1.9,13,5.4
	C344.8,30.5,346.7,35.4,346.6,40.3z"/>
<path class="st1" d="M176.6,9.2c-6.2-6.2-14-9.2-23.2-9.2c-5.6,0-11.1,1.4-15.9,4.3c-4.9,2.8-8.9,6.8-11.6,11.7
	c-2.8,5-4.3,10.6-4.3,16.3c-0.1,4.4,0.8,8.8,2.6,12.8l5.4-3.4c-2.7-7.5-2.1-15.8,1.8-22.7c4.6-8,13.1-12.9,22.4-13
	c4.6,0,9.1,1.2,13.1,3.5c4,2.2,7.3,5.5,9.5,9.4c2.3,4,3.5,8.5,3.4,13.1c0.1,4.6-1.1,9.2-3.4,13.3c-2.2,3.9-5.5,7.2-9.5,9.4
	c-4,2.3-8.5,3.5-13.1,3.4c-4.2,0.1-8.3-0.9-12-2.9l-3.5,4.9c4.8,2.6,10.3,3.9,15.7,3.8c17.6,0.1,31.9-14,32.1-31.5
	c0-0.2,0-0.3,0-0.5C186.1,23.4,182.7,15.2,176.6,9.2z"/>
<polygon class="st2" points="129.4,65.4 117.9,53.8 153.8,31.1 "/>
<path class="st0" d="M241.7,7.2c-0.4,3.2-1,8.2-10,9l-0.5-1.6c2,0,4-0.6,5.7-1.5c1.5-1,2.5-2.5,2.7-4.3h-10.4V7.2H241.7z M240.9,3.6
	v1.6h-10.5V3.6H240.9z"/>
<path class="st0" d="M249.4,7.6c-1.4-1-3-1.7-4.6-2.2l0.8-1.5c1.7,0.4,3.3,1.2,4.8,2.1L249.4,7.6z M244.9,13.9
	c5.7-0.4,9.1-2.6,11.2-9.1l1.7,0.8c-2.2,6.5-5.6,9.4-12.3,10.2L244.9,13.9z"/>
<path class="st0" d="M272.3,5.1c-0.4,2.6-1.7,10-11,11.2l-0.7-1.6c5-0.7,7.9-2.6,9.4-8h-5.5c-1,1.4-2.3,2.6-3.7,3.5l-1.1-1.3
	c2.3-1.3,4.1-3.5,5-6l1.9,0.4c-0.2,0.6-0.5,1.2-0.9,1.8L272.3,5.1z"/>
<path class="st0" d="M278.6,11.9h-1.8V3.6h1.8V11.9z M286.3,9.1c0,6.1-3.6,6.8-8.1,7.3l-0.6-1.7c1.7,0,3.4-0.4,5-1.1
	c1.8-0.9,1.9-3.1,1.9-3.7V3.3h1.8L286.3,9.1z"/>
<path class="st0" d="M303.7,8.6v1.9H290V8.6H303.7z"/>
<path class="st0" d="M311.1,2.9v3.9c2.7,0.8,5.2,1.9,7.7,3.3L318,12c-2.2-1.3-4.5-2.4-6.9-3.3v7.8h-1.8V2.9H311.1z M315.6,6.4
	c-0.4-0.8-0.8-1.6-1.3-2.3l1.2-0.6c0.5,0.7,0.9,1.5,1.3,2.3L315.6,6.4z M317.7,5.5c-0.4-0.8-0.8-1.5-1.3-2.2l1.1-0.6
	c0.5,0.7,1,1.4,1.4,2.2L317.7,5.5z"/>
<path class="st0" d="M5.3,62.2V33.9h4.1l22,28.3h6.5l-22-28.3h0.9c5,0,9-0.7,11.9-1.9c2.7-1.1,5-3.1,6.5-5.5
	c1.6-2.6,2.4-5.5,2.3-8.5c0.1-3.6-1.1-7-3.3-9.8c-2.2-2.6-5.2-4.5-8.6-5.2c-2.4-0.5-7-0.8-13.7-0.8H0v60.1L5.3,62.2z M5.3,7.3h11.2
	c4.3,0,7.3,0.4,9.1,1.1c1.9,0.7,3.5,2.1,4.6,3.7c1.1,1.7,1.8,3.7,1.7,5.8c0,2.1-0.6,4.2-1.7,5.9c-1.1,1.8-2.8,3.1-4.8,3.9
	c-2,0.8-5.1,1.2-9.2,1.2l-11-0.1L5.3,7.3z"/>
<path class="st0" d="M71.4,28.3v5.1l-0.7-0.8c-1.2-1.4-2.7-2.5-4.3-3.4c-2.3-1.2-4.9-1.8-7.5-1.8c-4.6-0.1-9,1.8-12.2,5.1
	c-3.3,3.2-5.1,7.7-5.1,12.3c-0.1,4.7,1.7,9.1,5,12.5c5.1,5.2,12.9,6.6,19.5,3.5c1.7-0.8,3.2-2,4.6-3.3l0.7-0.7v4.8h4.9V28.3H71.4z
	 M70.1,51.6c-1.1,1.9-2.7,3.5-4.6,4.5c-1.9,1.1-4.1,1.7-6.3,1.7c-2.2,0-4.3-0.6-6.2-1.7c-1.9-1.1-3.5-2.8-4.6-4.7
	c-2.3-3.9-2.3-8.8,0-12.7c2.2-3.9,6.3-6.3,10.8-6.3c3.3-0.1,6.5,1.3,8.8,3.7c2.4,2.4,3.7,5.7,3.6,9.1C71.7,47.4,71.2,49.6,70.1,51.6
	z"/>
<path class="st0" d="M105,30.3c-5.1-2.7-11.2-2.7-16.3,0c-2.2,1.3-3.9,3.2-4.9,5.5c-1.1,2.4-1.6,5.7-1.6,10.3v16.4h5.1V46.9
	c0-3.9,0.2-6.6,0.6-7.8c0.6-1.7,1.7-3.2,3.2-4.2c1.7-1.1,3.7-1.7,5.7-1.6c2.1-0.1,4.1,0.5,5.8,1.6c1.6,1.1,2.7,2.6,3.3,4.5
	c0.5,2.5,0.7,5,0.6,7.5v15.6h5.1v-16c0-4.7-0.5-8.2-1.6-10.5C108.9,33.6,107.2,31.6,105,30.3z"/>
<path class="st3" d="M221.1,69.8h122.3c7.4,0,13.3,6,13.3,13.3l0,0c0,7.4-6,13.3-13.3,13.3H221.1c-7.4,0-13.3-6-13.3-13.3l0,0
	C207.8,75.7,213.7,69.8,221.1,69.8z"/>
<path class="st4" d="M246.3,88.9c2.9-3.1,3.8-8.1,4-13.1l2.1,0.2c-0.6,8.3-2.3,11.7-4.4,14.4L246.3,88.9z M258.5,75.7
	c0.4,4.2,1.5,9.2,4.5,13.2l-1.9,1.4c-3-3.9-4.3-9.3-4.7-14.4L258.5,75.7z M263.6,75.7c0,1.1-0.9,1.9-1.9,1.9s-1.9-0.9-1.9-1.9
	s0.9-1.9,1.9-1.9C262.7,73.8,263.6,74.6,263.6,75.7C263.6,75.7,263.6,75.7,263.6,75.7L263.6,75.7z M260.8,75.7
	c0,0.5,0.4,0.9,0.9,0.9s0.9-0.4,0.9-0.9c0-0.5-0.4-0.9-0.9-0.9C261.2,74.8,260.8,75.2,260.8,75.7C260.8,75.7,260.8,75.7,260.8,75.7
	L260.8,75.7z"/>
<path class="st4" d="M280.2,75.7v1.8c0,3-0.6,6.9-3.3,9.4c-2.2,1.9-5,3.1-7.9,3.5l-0.8-1.9c9.5-1.3,9.6-7.4,9.7-10.8h-9.6v4.9h-2.2
	v-6.9H280.2z"/>
<path class="st4" d="M298.8,76.1c-0.5,5.3-2.1,12.4-12.1,14.3l-0.8-1.9c8.9-1.4,9.9-7.1,10.4-10.4h-12.1v-1.9H298.8z"/>
<path class="st4" d="M306.2,80c0,7.7-2.6,10-3.5,10.9l-1.6-1.6c0.8-0.7,3-2.3,3-8.9v-5.1h2.1L306.2,80z M311.2,87.8
	c4.2-1,5.2-6.1,5.4-7.1l1.9,0.8c-1.7,8.1-7.5,8.5-9.3,8.7V74.8h2V87.8z"/>
<g>
	<path d="M1.7,77h1.5v5.5C4,81.5,5,81,6,81c1,0,1.8,0.2,2.3,0.7c0.5,0.5,0.7,1,0.7,1.7V89H7.5v-5.3c0-0.5-0.2-0.9-0.5-1.3
		c-0.2-0.2-0.6-0.4-1-0.4c-0.5,0-1,0.2-1.5,0.6c-0.5,0.5-1,1.2-1.3,2.2V89H1.7V77z"/>
	<path d="M11.9,78.4h1.5v2.7h2.5v1.1h-2.5v4.6c0,0.3,0.1,0.5,0.4,0.8c0.2,0.2,0.5,0.3,1,0.3c0.7,0,1.3-0.2,1.9-0.5v1.3
		c-0.5,0.3-1.1,0.4-1.8,0.4c-1,0-1.7-0.2-2.2-0.6c-0.5-0.5-0.7-1-0.7-1.5v-4.7h-1.8v-1.1h1.8V78.4z"/>
	<path d="M18.6,78.4h1.5v2.7h2.5v1.1h-2.5v4.6c0,0.3,0.1,0.5,0.4,0.8c0.2,0.2,0.5,0.3,1,0.3c0.7,0,1.3-0.2,1.9-0.5v1.3
		c-0.5,0.3-1.1,0.4-1.8,0.4c-1,0-1.7-0.2-2.2-0.6c-0.5-0.5-0.7-1-0.7-1.5v-4.7h-1.8v-1.1h1.8V78.4z"/>
	<path d="M26,91.6h-1.5V81.2H26v0.9c0.6-0.7,1.4-1.1,2.3-1.1c1,0,1.9,0.3,2.5,0.9c0.8,0.7,1.2,1.8,1.2,3.2c0,1.4-0.4,2.5-1.2,3.2
		c-0.6,0.6-1.5,0.9-2.5,0.9c-1,0-1.8-0.4-2.3-1.1V91.6z M26.7,82.9c-0.5,0.5-0.7,1-0.7,1.7v1c0,0.7,0.3,1.2,0.8,1.8
		c0.4,0.4,0.9,0.6,1.5,0.6c0.5,0,0.9-0.2,1.3-0.5c0.5-0.5,0.8-1.3,0.8-2.4c0-1-0.2-1.8-0.7-2.2c-0.4-0.4-0.8-0.6-1.3-0.6
		C27.7,82.3,27.2,82.5,26.7,82.9z"/>
	<path d="M34.8,81.9c0.6-0.6,1.4-0.8,2.5-0.8c1.2,0,2.1,0.3,2.6,0.8c0.5,0.5,0.7,1,0.7,1.5h-1.5c0-0.3-0.1-0.6-0.3-0.7
		c-0.3-0.3-0.8-0.4-1.6-0.4c-0.5,0-0.9,0.1-1.2,0.4c-0.2,0.2-0.4,0.5-0.4,0.8c0,0.2,0.1,0.4,0.2,0.5c0.2,0.2,0.8,0.4,1.9,0.6
		c0.6,0.1,1.2,0.3,1.6,0.4c0.4,0.1,0.7,0.3,0.9,0.5c0.4,0.4,0.6,0.8,0.6,1.3c0,0.6-0.2,1.1-0.7,1.5c-0.6,0.6-1.5,0.8-2.8,0.8
		c-1.2,0-2.2-0.3-2.8-0.8c-0.5-0.5-0.7-1.1-0.7-1.8h1.5c0,0.4,0.2,0.7,0.4,0.9c0.3,0.3,0.9,0.5,1.6,0.5c0.8,0,1.4-0.1,1.7-0.4
		c0.2-0.2,0.3-0.4,0.3-0.7c0-0.2-0.1-0.4-0.4-0.6c-0.2-0.2-0.5-0.3-1-0.4c-0.9-0.2-1.6-0.4-2-0.5c-0.5-0.1-0.9-0.3-1.2-0.6
		c-0.4-0.4-0.7-0.9-0.7-1.3C34.1,82.8,34.3,82.3,34.8,81.9z"/>
	<path d="M42.9,81h1.7v1.5h-1.7V81z M42.9,87.5h1.7V89h-1.7V87.5z"/>
	<path d="M46.1,89.4L54,76.1l0.7,0.4l-7.9,13.2L46.1,89.4z"/>
	<path d="M55.7,89.4l7.9-13.2l0.7,0.4l-7.9,13.2L55.7,89.4z"/>
	<path d="M67.2,91.6h-1.5V81.2h1.5v0.9c0.6-0.7,1.4-1.1,2.3-1.1c1,0,1.9,0.3,2.5,0.9c0.8,0.7,1.2,1.8,1.2,3.2c0,1.4-0.4,2.5-1.2,3.2
		c-0.6,0.6-1.5,0.9-2.5,0.9c-1,0-1.8-0.4-2.3-1.1V91.6z M68,82.9c-0.5,0.5-0.7,1-0.7,1.7v1c0,0.7,0.3,1.2,0.8,1.8
		c0.4,0.4,0.9,0.6,1.5,0.6c0.5,0,0.9-0.2,1.3-0.5c0.5-0.5,0.8-1.3,0.8-2.4c0-1-0.2-1.8-0.7-2.2c-0.4-0.4-0.8-0.6-1.3-0.6
		C68.9,82.3,68.4,82.5,68,82.9z"/>
	<path d="M74.5,81.2h1.6l1.7,5.9l1.8-5.9h1.6L83,87l1.7-5.9h1.6l-2.5,8h-1.4l-1.9-6.4l-1.9,6.4H77L74.5,81.2z"/>
	<path d="M87.7,87.5h1.7V89h-1.7V87.5z"/>
	<path d="M97,81v1.5c-0.2,0-0.5-0.1-0.8-0.1c-0.7,0-1.4,0.3-2.1,0.9c-0.5,0.5-0.9,1.1-1.1,1.6v4h-1.5v-7.8H93v2
		c0.2-0.4,0.5-0.7,0.8-1C94.6,81.4,95.7,81,97,81z"/>
	<path d="M99.1,81.8c0.5-0.5,1.3-0.8,2.4-0.8c1.2,0,2.1,0.3,2.7,0.8c0.5,0.5,0.7,1,0.7,1.6v4.4c0,0.5,0.2,0.9,0.6,1.2h-1.8
		c-0.2-0.2-0.3-0.5-0.3-0.9c-0.7,0.7-1.7,1.1-2.8,1.1c-0.9,0-1.7-0.2-2.2-0.7C98,88,97.8,87.5,97.8,87c0-0.7,0.2-1.2,0.7-1.6
		c0.5-0.5,1.2-0.8,2.1-0.9c0.6-0.1,1.1-0.2,1.6-0.4c0.6-0.1,1.1-0.3,1.3-0.4c0-0.4-0.1-0.7-0.4-1s-0.7-0.4-1.3-0.4
		c-0.7,0-1.2,0.1-1.5,0.4c-0.2,0.2-0.3,0.4-0.4,0.8h-1.6C98.3,82.8,98.6,82.3,99.1,81.8z M103.4,85c-0.3,0.1-0.6,0.2-0.8,0.2
		c-0.8,0.2-1.5,0.3-1.9,0.4c-0.4,0.1-0.7,0.2-0.9,0.4c-0.2,0.2-0.4,0.5-0.4,0.8c0,0.3,0.1,0.6,0.4,0.8c0.1,0.1,0.5,0.2,1,0.2
		c0.8,0,1.5-0.3,2.1-0.8c0.3-0.3,0.5-0.6,0.6-0.7V85z"/>
	<path d="M108.8,89h-1.5v-7.8h1.5v1.4c0.9-1,1.8-1.5,2.8-1.5c1,0,1.8,0.3,2.4,0.8c0.4,0.4,0.6,0.8,0.6,1.3V89h-1.5v-5.4
		c0-0.4-0.1-0.8-0.4-1.1c-0.3-0.3-0.7-0.4-1.3-0.4c-0.5,0-1,0.2-1.5,0.7c-0.7,0.7-1.1,1.4-1.1,2.2V89z"/>
	<path d="M117.9,81.9c0.6-0.6,1.4-0.9,2.3-0.9c1.1,0,1.9,0.4,2.5,1.1v-0.9h1.5v10.4h-1.5V88c-0.6,0.8-1.5,1.2-2.6,1.2
		c-0.8,0-1.6-0.3-2.2-0.9c-0.8-0.7-1.2-1.8-1.2-3.2C116.7,83.7,117.1,82.7,117.9,81.9z M119.1,82.8c-0.5,0.5-0.7,1.2-0.7,2.2
		c0,1.1,0.3,1.9,0.8,2.4c0.3,0.3,0.8,0.5,1.3,0.5c0.5,0,1-0.2,1.4-0.6c0.6-0.6,0.9-1.2,0.9-1.9v-0.9c0-0.7-0.2-1.3-0.7-1.8
		c-0.4-0.4-0.9-0.6-1.6-0.6C119.9,82.3,119.5,82.5,119.1,82.8z"/>
	<path d="M126.4,77h1.5v12h-1.5V77z"/>
	<path d="M131.4,82c0.7-0.7,1.6-1,2.7-1c1,0,1.9,0.4,2.7,1.1c0.7,0.7,1,1.7,1,3h-6c0,1,0.2,1.7,0.7,2.2c0.4,0.4,1,0.6,1.7,0.6
		c0.7,0,1.2-0.1,1.5-0.4c0.3-0.3,0.5-0.7,0.5-1.1h1.6c-0.2,0.8-0.5,1.5-1,1.9c-0.6,0.6-1.5,0.9-2.7,0.9c-1.2,0-2.2-0.3-2.9-1.1
		c-0.8-0.7-1.2-1.8-1.2-3C130.1,83.8,130.5,82.8,131.4,82z M132.5,82.8c-0.3,0.3-0.6,0.7-0.7,1.2h4.2c0-0.5-0.2-0.9-0.6-1.3
		c-0.3-0.3-0.8-0.5-1.5-0.5C133.4,82.2,132.9,82.4,132.5,82.8z"/>
	<path d="M140.8,81.8c0.5-0.5,1.3-0.8,2.4-0.8c1.2,0,2.1,0.3,2.7,0.8c0.5,0.5,0.7,1,0.7,1.6v4.4c0,0.5,0.2,0.9,0.6,1.2h-1.8
		c-0.2-0.2-0.3-0.5-0.3-0.9c-0.7,0.7-1.7,1.1-2.8,1.1c-0.9,0-1.7-0.2-2.2-0.7c-0.4-0.4-0.7-0.9-0.7-1.5c0-0.7,0.2-1.2,0.7-1.6
		c0.5-0.5,1.2-0.8,2.1-0.9c0.6-0.1,1.1-0.2,1.6-0.4c0.6-0.1,1.1-0.3,1.3-0.4c0-0.4-0.1-0.7-0.4-1s-0.7-0.4-1.3-0.4
		c-0.7,0-1.2,0.1-1.5,0.4c-0.2,0.2-0.3,0.4-0.4,0.8h-1.6C139.9,82.8,140.3,82.3,140.8,81.8z M145.1,85c-0.3,0.1-0.6,0.2-0.8,0.2
		c-0.8,0.2-1.5,0.3-1.9,0.4c-0.4,0.1-0.7,0.2-0.9,0.4c-0.2,0.2-0.4,0.5-0.4,0.8c0,0.3,0.1,0.6,0.4,0.8c0.1,0.1,0.5,0.2,1,0.2
		c0.8,0,1.5-0.3,2.1-0.8c0.3-0.3,0.5-0.6,0.6-0.7V85z"/>
	<path d="M154.8,77h1.5v12h-1.5v-1c-0.5,0.7-1.3,1.1-2.2,1.1c-1,0-1.9-0.3-2.5-0.8c-0.9-0.8-1.3-1.9-1.3-3.2c0-1.4,0.4-2.5,1.2-3.2
		c0.6-0.6,1.4-0.9,2.3-0.9c1.1,0,1.9,0.4,2.5,1.2V77z M151.2,82.8c-0.5,0.5-0.7,1.2-0.7,2.3c0,1,0.3,1.8,0.8,2.3
		c0.3,0.3,0.8,0.5,1.3,0.5c0.6,0,1.1-0.2,1.5-0.6c0.5-0.5,0.8-1.3,0.8-2.2c0-1-0.3-1.8-0.9-2.3c-0.4-0.4-0.9-0.6-1.4-0.6
		C152,82.2,151.6,82.4,151.2,82.8z"/>
	<path d="M158.4,87.5h1.7V89h-1.7V87.5z"/>
	<path d="M163.3,82.1c0.7-0.7,1.7-1.1,2.8-1.1c1.2,0,2.1,0.3,2.7,0.8c0.5,0.5,0.9,1.1,1,1.9H168c-0.1-0.4-0.2-0.7-0.6-1.1
		c-0.3-0.3-0.7-0.4-1.3-0.4s-1.1,0.2-1.5,0.6c-0.6,0.6-0.9,1.3-0.9,2.3c0,0.9,0.3,1.7,0.8,2.2c0.4,0.4,0.9,0.6,1.5,0.6
		c0.7,0,1.2-0.2,1.6-0.6c0.4-0.4,0.6-0.9,0.6-1.5h1.6c-0.1,1-0.4,1.8-1,2.4c-0.6,0.6-1.6,0.9-2.8,0.9c-1,0-1.9-0.3-2.6-1
		c-0.9-0.8-1.3-1.9-1.3-3.1C162.1,83.9,162.5,82.9,163.3,82.1z"/>
	<path d="M172.8,82.1c0.7-0.7,1.7-1.1,2.8-1.1c1.1,0,2,0.4,2.8,1.1c0.8,0.8,1.3,1.8,1.3,3c0,1.2-0.4,2.2-1.3,3
		c-0.7,0.7-1.7,1.1-2.8,1.1c-1.1,0-2-0.3-2.8-1.1c-0.8-0.8-1.3-1.8-1.3-3C171.5,83.9,171.9,82.9,172.8,82.1z M174.1,82.8
		c-0.6,0.6-0.9,1.3-0.9,2.2c0,0.9,0.3,1.7,0.8,2.2c0.4,0.4,1,0.6,1.6,0.6c0.6,0,1.1-0.2,1.6-0.6c0.5-0.5,0.8-1.2,0.8-2.2
		c0-0.9-0.3-1.7-0.9-2.2c-0.4-0.4-0.9-0.6-1.5-0.6C175,82.3,174.5,82.5,174.1,82.8z"/>
	<path d="M183,89h-1.5v-7.8h1.5v1.2c0.6-0.9,1.4-1.3,2.2-1.3c0.9,0,1.7,0.2,2.2,0.7c0.2,0.2,0.4,0.5,0.6,0.8c0.6-1,1.5-1.5,2.7-1.5
		c0.8,0,1.4,0.2,1.9,0.6c0.5,0.5,0.7,1,0.7,1.5V89h-1.5v-5.5c0-0.3-0.1-0.5-0.3-0.7c-0.3-0.3-0.6-0.4-1-0.4c-0.7,0-1.3,0.2-1.7,0.6
		c-0.4,0.4-0.6,0.7-0.6,1.1v5h-1.5v-5.5c0-0.3-0.1-0.6-0.4-0.8c-0.2-0.2-0.6-0.4-1.1-0.4c-0.5,0-1,0.2-1.4,0.6
		c-0.4,0.4-0.7,0.8-0.7,1.2V89z"/>
	<path d="M194.9,89.4l7.9-13.2l0.7,0.4l-7.9,13.2L194.9,89.4z"/>
</g>
</svg>
