<?xml version="1.0" encoding="utf-8"?>
<!-- Generator: Adobe Illustrator 22.1.0, SVG Export Plug-In . SVG Version: 6.00 Build 0)  -->
<svg version="1.1" id="レイヤー_1" xmlns="http://www.w3.org/2000/svg" xmlns:xlink="http://www.w3.org/1999/xlink" x="0px"
	 y="0px" viewBox="0 0 61 14" style="enable-background:new 0 0 61 14;" xml:space="preserve">
<style type="text/css">
	.st0{display:none;enable-background:new    ;}
	.st1{font-family:'DFKaiSho-Bd-WING-RKSJ-H';}
	.st2{font-size:14px;}
	.st3{display:none;}
	.st4{display:inline;}
</style>
<text transform="matrix(1 0 0 1 -3.5205 12.0313)" class="st0 st1 st2">あすなろ報創について</text>
<text transform="matrix(1 0 0 1 -0.9969 12.0313)" class="st0 st1 st2">取扱媒体</text>
<text transform="matrix(1 0 0 1 -1.6863 12.0313)" class="st0 st1 st2">制作実績</text>
<text transform="matrix(1 0 0 1 -1.2839 12.0313)" class="st0 st1 st2">会社概要</text>
<g class="st3">
	<path class="st4" d="M9.8,9c0,0.9-0.6,1.8-1.8,2.5c-1,0.7-2.2,1-3.5,1c1.3-0.6,2.3-1.2,2.8-1.8C7.9,10.1,8.2,9.5,8.2,9
		c0-0.6-0.2-1-0.5-1.4C7.4,7.4,7.1,7.3,6.8,7.2c-0.3,1.1-1,2-2,2.9c0.1,0.2,0.3,0.4,0.5,0.5c0.1,0.2,0.2,0.3,0.2,0.4
		c0,0.4-0.3,0.6-0.7,0.6c-0.3,0-0.5-0.2-0.7-0.5C4,11,3.9,10.9,3.9,10.8c-0.8,0.5-1.4,0.7-1.9,0.7c-0.9,0-1.4-0.5-1.4-1.5
		c0-0.6,0.3-1.2,0.8-1.8c0.3-0.3,0.8-0.7,1.3-1c0-0.5,0.1-1.2,0.2-2C2.6,5.2,2.3,5.1,2,5C1.5,5,1.3,4.8,1.3,4.6
		c0-0.2,0.2-0.3,0.7-0.3c0.3,0,0.7,0,1-0.1l0.4-1.8c0-0.2-0.1-0.5-0.2-0.6C3.1,1.7,3.1,1.6,3.1,1.5s0.2-0.2,0.5-0.2
		c0.2,0,0.5,0.2,0.9,0.5s0.6,0.6,0.6,0.8C5.1,2.7,5,2.8,4.9,3C4.8,3.1,4.6,3.4,4.5,3.9c0.1,0,0.2,0,0.4-0.1C6,3.5,6.6,3.4,6.7,3.4
		c0.2,0,0.4,0.1,0.7,0.2c0.2,0.2,0.4,0.3,0.4,0.5c0,0.2-0.7,0.5-1.9,0.8C5.1,5,4.6,5.1,4.1,5.2C4,5.8,3.9,6.3,3.9,6.7
		c0.6-0.2,1.2-0.3,1.9-0.4c0-0.2,0-0.3,0-0.4s0-0.2,0-0.2c0-0.2,0.1-0.4,0.4-0.4c0.2,0,0.4,0.1,0.6,0.4C6.9,5.8,7,6,7,6.3
		c0.7,0.1,1.3,0.3,1.7,0.6C9.4,7.5,9.8,8.2,9.8,9z M3.3,10.1C3,9.4,2.7,8.9,2.7,8.3C1.8,9,1.4,9.5,1.4,10.1c0,0.4,0.2,0.6,0.6,0.6
		C2.3,10.7,2.7,10.5,3.3,10.1z M5.6,7.2C5,7.3,4.5,7.5,3.9,7.7C4,8.3,4.1,8.8,4.3,9.3C4.9,8.7,5.3,8,5.6,7.2z"/>
	<path class="st4" d="M23.4,4.9c0,0.2-0.3,0.3-0.7,0.3c-0.1,0-0.5,0-1-0.1c-0.3,0-0.7,0-1.2,0c-0.3,0-0.7,0-1,0c0,0.1,0,0.2,0,0.4
		c0,0.2,0,0.3,0,0.4c0,2.1-0.1,3.3-0.4,3.7c0,0.6-0.3,1.3-0.9,1.9c-0.5,0.6-1.3,1.1-2.5,1.4c0.7-0.5,1.3-1.1,1.7-1.8
		c0.3-0.5,0.4-0.9,0.4-1.1c0-0.3-0.4-0.6-1.2-0.9c-0.9-0.4-1.3-0.7-1.3-1S15.5,7.4,16,7c0.6-0.4,1.1-0.7,1.6-0.7
		c0.1,0,0.3,0,0.5,0.1V5.3H18c-0.8,0.1-1.5,0.3-2.3,0.5c-1.3,0.4-2.1,0.6-2.3,0.6c-0.3,0-0.6-0.1-1-0.4C12.2,5.8,12,5.5,12,5.3
		c0-0.1,0.3-0.2,1-0.2c0.3,0,1.7-0.2,4.1-0.6c0.4-0.1,0.7-0.1,1-0.2c0-1.3-0.1-2-0.2-2.2c0.1-0.1,0-0.2,0-0.3c0-0.3,0.1-0.4,0.4-0.4
		s0.7,0.1,1.1,0.3c0.3,0.2,0.5,0.4,0.5,0.5s-0.1,0.3-0.3,0.5c0,0.1-0.1,0.5-0.1,1.3c1.2-0.2,1.9-0.3,2.2-0.3c0.4,0,0.8,0.1,1.1,0.4
		C23.2,4.5,23.4,4.7,23.4,4.9z M18.1,8.2c0-0.5-0.1-0.8-0.2-1C17.8,7.1,17.7,7,17.5,7s-0.4,0.1-0.6,0.4c-0.3,0.2-0.4,0.4-0.4,0.6
		c0,0.1,0.2,0.3,0.5,0.4c0.4,0.2,0.7,0.3,0.9,0.3C18,8.8,18.1,8.6,18.1,8.2z"/>
	<path class="st4" d="M32.5,3.5c0,0.2-0.4,0.5-1.3,0.8c-0.3,0.1-0.7,0.3-1.3,0.5c-0.3,0.8-0.8,1.7-1.5,2.9c-0.6,1-1,1.5-1.2,1.5
		c-0.3,0-0.5-0.3-0.5-0.7c0-0.7,0.2-1.1,0.6-1.4C27.6,7,28,6.3,28.5,5.3c-0.1,0-0.1,0-0.2,0c-0.3,0-0.6-0.1-1-0.2
		c-0.4-0.2-0.7-0.4-0.7-0.6c0,0,0.3-0.1,1-0.2C28.3,4.2,28.8,4.1,29,4c0,0,0,0,0.1,0c0.4-0.9,0.5-1.7,0.5-2.4c0-0.2,0.1-0.4,0.2-0.4
		c0.2,0,0.5,0.1,0.9,0.4c0.3,0.2,0.5,0.5,0.5,0.7s-0.1,0.3-0.3,0.5c-0.1,0.1-0.2,0.2-0.3,0.5l0.1-0.1C31,3,31.4,3,31.7,3
		C32.2,3,32.5,3.1,32.5,3.5z M35,11.2c0,0.4-0.2,0.6-0.6,0.6c-0.2,0-0.4-0.1-0.6-0.3c-0.2-0.2-0.5-0.5-1-0.7
		c-0.1,0.5-0.3,0.9-0.5,1.2c-0.4,0.4-0.8,0.6-1.2,0.6c-0.6,0-1.2-0.2-1.8-0.7c-0.6-0.4-0.9-0.8-0.9-1.1c0-0.4,0.3-0.8,0.8-1.1
		c0.6-0.3,1.3-0.4,2.2-0.4l0,0l0,0c0-0.3-0.1-0.6-0.1-0.9c0-0.5,0.2-0.9,0.5-1.3C32,6.8,32.4,6.6,33,6.4c-0.4,0.5-0.5,1-0.5,1.3
		c0,0.5,0.1,1,0.2,1.4c0,0.1,0.1,0.2,0.1,0.4c0.4,0.1,0.7,0.3,1.1,0.4C34.5,10.3,34.9,10.7,35,11.2z M31.4,10.3c-0.1,0-0.2,0-0.1,0
		c-0.6,0-1.1,0.1-1.5,0.2c-0.3,0.1-0.4,0.2-0.4,0.3s0.2,0.3,0.5,0.4c0.3,0.2,0.6,0.3,0.9,0.3c0.1,0,0.3-0.1,0.4-0.4
		C31.3,10.9,31.3,10.6,31.4,10.3z M36.5,5.8c0,0.4-0.2,0.7-0.6,0.7c-0.2,0-0.4-0.1-0.5-0.2c-0.2,0-0.4-0.1-0.5-0.1
		c-0.3,0-0.9,0.1-1.8,0.2c0.8-0.6,1.2-0.9,1.2-1.1c0-0.1-0.4-0.4-1.2-0.9c1.1,0,2,0.2,2.7,0.5C36.2,5.2,36.5,5.5,36.5,5.8z"/>
	<path class="st4" d="M47.4,8.5c0,0.6-0.2,1.2-0.7,1.7c-0.4,0.5-0.9,0.9-1.6,1.1c-0.8,0.3-1.9,0.6-3.4,0.8c1.2-0.5,2-0.9,2.5-1.2
		c1-0.7,1.5-1.6,1.6-2.6c0-0.3-0.2-0.6-0.4-0.9C45.2,7.1,44.9,7,44.6,7c-1.7,0-3.1,0.7-4.1,2c-0.5,0.7-0.9,1-1,1.1
		c-0.2,0-0.4-0.1-0.5-0.4c-0.1-0.3-0.2-0.5-0.2-0.7c0-0.3,0.1-0.5,0.4-0.6C39.5,8.2,40,7.7,40.6,7c0.4-0.8,1.1-1.7,2.1-3
		c0.2-0.2,0.4-0.5,0.8-0.9V3c0-0.1-0.1-0.1-0.2-0.1c-0.1,0-0.4,0.1-0.7,0.4S42,3.7,41.8,3.7S41.3,3.6,41,3.4S40.5,3,40.5,2.9
		s0.2-0.2,0.5-0.2s0.9-0.1,1.6-0.4c0.5-0.2,0.9-0.4,1.1-0.5c0.2-0.1,0.4-0.2,0.5-0.2c0.2,0,0.4,0.2,0.7,0.5s0.5,0.5,0.5,0.7
		s-0.2,0.3-0.5,0.5s-0.7,0.6-1.3,1.3c-0.3,0.4-0.8,1.1-1.5,2C43.2,6.2,44,6,44.6,6c0.7,0,1.4,0.2,2,0.7C47.1,7.2,47.4,7.7,47.4,8.5z
		"/>
	<path class="st4" d="M55.9,2.8c0.1,0,0.2,0,0.3,0.1c0.2,0.1,0.3,0.2,0.3,0.4c0,0.1,0,0.2,0,0.2c0,0.1-0.1,0.2-0.1,0.2
		C56,3.8,55.6,3.9,55.3,4c0,0.3-0.1,0.7-0.1,1c0.3,0,0.5-0.1,0.8-0.2c0.2,0,0.3,0,0.4,0c0.4,0,0.6,0.3,0.6,0.7
		c0,0.1-0.2,0.2-0.5,0.2c-0.1,0-0.2,0-0.3,0c0.1,0.1,0.2,0.1,0.2,0.2c0,0,0,0.1-0.1,0.2c-0.1,0.2-0.2,0.3-0.3,0.4
		c-0.1,0.2-0.2,0.4-0.4,0.5c0.1,0,0.1,0,0.2,0c0.1,0,0.3,0,0.4,0c0.4,0,0.6,0.3,0.6,0.7c0,0.1-0.2,0.2-0.5,0.2
		c-0.4,0-0.8,0.1-1.2,0.2c0.2,0.1,0.3,0.2,0.3,0.2c0,0.1,0,0.2-0.1,0.4c0,0.1,0,0.2-0.1,0.2c0.1,0,0.3-0.1,0.4-0.1
		c0.1,0,0.2,0,0.3,0c0.4,0,0.6,0.3,0.6,0.7c0,0.1-0.1,0.2-0.4,0.2c-0.3,0-0.6,0.1-0.9,0.2v2.2c0,0.5-0.1,0.7-0.2,0.8
		c-0.2,0.2-0.3,0.3-0.5,0.3c-0.1,0-0.3-0.1-0.4-0.4c-0.1-0.2-0.2-0.6-0.2-1c0,0,0-0.1,0.1-0.2c0.1-0.2,0.1-0.3,0.1-0.3
		c0-0.4,0.1-0.7,0.1-1.1c-0.4,0.1-0.9,0.3-1.4,0.5l-0.2,0.1c-0.1,0-0.2-0.1-0.5-0.3s-0.4-0.5-0.4-0.7c0,0,0-0.1,0.1-0.1
		c0.4,0,0.7,0,1.1-0.1c0.3-0.1,0.8-0.2,1.3-0.3V9c0-0.3-0.1-0.6-0.2-0.8l0,0c-0.5,0.1-1.1,0.3-1.7,0.5l-0.2,0.1
		c-0.1,0-0.2-0.1-0.5-0.3C51.2,8.3,51,8,51,7.8c0,0,0-0.1,0.1-0.1c0.4,0,0.9,0,1.3-0.1c0.6-0.1,1.4-0.3,2.5-0.5
		C55,6.9,55,6.6,55.1,6.4c0-0.2,0.1-0.4,0.1-0.5c0,0,0,0,0-0.1c-0.3,0-0.5,0.1-0.8,0.2c-0.3,0-0.5,0.1-0.8,0.2
		c0.2,0.1,0.3,0.1,0.4,0.2c0.1,0.1,0.2,0.3,0.2,0.5c0,0.1-0.1,0.2-0.2,0.3c-0.1,0.1-0.3,0.2-0.4,0.2c-0.1,0-0.1-0.1-0.2-0.2
		c-0.1-0.2-0.3-0.5-0.5-0.9c-0.3,0.1-0.6,0.2-0.9,0.3l-0.2,0.1c-0.1,0-0.2-0.1-0.5-0.3c-0.3-0.2-0.4-0.5-0.4-0.7c0,0,0-0.1,0.1-0.1
		c0.5,0,1,0,1.5-0.1c0.4-0.1,1-0.2,1.7-0.3c0-0.4,0-0.7,0-1c-0.3,0.1-0.5,0.1-0.7,0.1c-0.4,0-0.7-0.1-0.8-0.4
		c-0.1-0.2-0.2-0.3-0.2-0.3s0-0.1,0.1-0.1c0.7,0,1.2-0.1,1.7-0.2c0-0.3,0-0.5,0-0.7c0-0.5,0-0.8,0-0.9c-0.1-0.2-0.1-0.3-0.2-0.5
		C54,1.1,54,1,54,0.9c0-0.2,0.1-0.3,0.2-0.3c0.3,0,0.7,0.1,1,0.2c0.5,0.2,0.7,0.3,0.7,0.5c0,0.1,0,0.1,0,0.2
		c-0.1,0.2-0.2,0.6-0.2,1.4c0.1,0,0.3-0.1,0.4-0.1C55.8,2.9,55.8,2.8,55.9,2.8z M57.3,2.4c0.2,0,0.5,0.1,0.8,0.2
		c0.1,0.1,0.2,0.1,0.3,0.1c0.3,0,0.7-0.1,1.1-0.2c0.3,0,0.6-0.1,1-0.3c0,0,0.1,0,0.2,0c0.1,0,0.3,0.1,0.7,0.4C61.8,2.8,62,3,62,3.2
		c0,0,0,0.1-0.1,0.1c-0.2,0.1-0.3,0.3-0.3,0.4c-0.1,0.7-0.2,1.2-0.4,1.6c-0.1,0.3-0.3,0.6-0.4,0.7c-0.1,0.1-0.2,0.2-0.4,0.3
		c-0.1,0.1-0.2,0.1-0.3,0.1s-0.2-0.1-0.3-0.2C59.6,5.6,59.3,5.3,59,5h-0.1c0-0.1,0-0.1,0.1-0.1C59.5,5,59.8,5,59.9,5
		c0.1,0,0.2-0.1,0.3-0.3c0.1-0.2,0.2-0.4,0.2-0.8c0-0.2,0.1-0.3,0.1-0.4c0-0.2-0.1-0.3-0.3-0.3s-0.5,0-0.7,0c-0.3,0-0.6,0.1-1,0.2V4
		c0,1.1,0,2.1,0,3.1c0.3,0,0.7,0,1-0.1c0.4-0.1,0.9-0.2,1.3-0.3c0.1,0,0.2,0,0.2,0c0.2,0,0.4,0.1,0.8,0.2c0.4,0.3,0.6,0.5,0.6,0.7
		l-0.1,0.1c-0.2,0.2-0.4,0.6-0.6,1c-0.1,0.4-0.3,0.8-0.5,1.1c-0.1,0.2-0.3,0.4-0.5,0.6c0.6,0.4,1.5,0.9,2.7,1.3
		c0,0.1-0.1,0.2-0.2,0.2c-1.1,0.2-1.8,0.3-1.9,0.3c-0.2,0-0.4-0.1-0.5-0.2c-0.3-0.3-0.5-0.7-0.8-1.1c-0.1,0.1-0.2,0.1-0.2,0.2
		c-0.3,0.2-0.6,0.3-0.9,0.4c-0.1,0-0.3,0.1-0.4,0.1c0,0.3,0,0.6,0,0.8s-0.1,0.3-0.3,0.5c-0.2,0.1-0.3,0.2-0.4,0.2
		c-0.2,0-0.4-0.2-0.5-0.5C57.1,12.3,57,12.1,57,12c0,0,0-0.1,0-0.2c0.1-1,0.2-1.8,0.2-2.4c0.1-1.3,0.1-2.9,0.1-4.9
		c0-0.9-0.1-1.5-0.3-1.7c0-0.1,0-0.1,0-0.2C57,2.5,57.1,2.4,57.3,2.4z M58.4,11.3C58.4,11.2,58.5,11.2,58.4,11.3
		c0.4-0.2,0.6-0.4,0.9-0.6c0.1-0.1,0.2-0.2,0.3-0.3c-0.2-0.3-0.4-0.7-0.6-1c-0.2-0.3-0.4-0.5-0.5-0.7C58.4,9.7,58.4,10.5,58.4,11.3z
		 M58.4,8.1L58.4,8.1c0.1,0,0.3,0,0.4,0.1c0.2,0.2,0.3,0.3,0.5,0.6s0.5,0.6,0.7,0.9c0.1-0.1,0.2-0.3,0.2-0.4
		c0.1-0.3,0.2-0.6,0.3-1.1c0-0.1,0.1-0.3,0.1-0.3c0-0.2-0.1-0.2-0.2-0.2c-0.5,0-0.9,0.1-1.3,0.1c-0.2,0-0.4,0-0.5,0s-0.2,0-0.3-0.1
		C58.4,7.9,58.4,8,58.4,8.1z"/>
	<path class="st4" d="M70.1,0.9c0.3,0,0.7,0.1,1.1,0.3c0.3,0.1,0.5,0.2,0.5,0.4c0,0.1,0,0.1-0.1,0.1c-0.1,0.1-0.1,0.2-0.2,0.4l0,0
		c0.5,0.1,1,0.2,1.3,0.3c0.2,0.1,0.4,0.2,0.6,0.4c0.1,0.2,0.2,0.4,0.2,0.6c0,0.3-0.2,0.5-0.5,0.5c-0.4,0-0.7-0.1-0.8-0.2
		c-0.2-0.2-0.5-0.4-0.7-0.6S71.1,2.8,71,2.6c-0.2,0.3-0.4,0.7-0.6,1c0.1,0,0.1,0,0.2,0c0.4,0.1,0.6,0.2,0.8,0.3
		c0.1,0.1,0.2,0.2,0.2,0.4c0,0.1-0.1,0.2-0.2,0.3c-0.1,0.1-0.3,0.2-0.4,0.2s-0.2,0-0.2-0.1c-0.2-0.1-0.4-0.4-0.6-0.8
		c-0.1,0.2-0.3,0.4-0.4,0.6c-0.3,0.4-0.5,0.7-0.8,0.9c0.1,0,0.3,0.1,0.5,0.1s0.3,0.1,0.4,0.1c0.4-0.1,0.8-0.2,1.2-0.3
		c0.4-0.1,0.8-0.2,1.1-0.3c0.1,0,0.1,0,0.2,0s0.3,0.1,0.6,0.2c0.4,0.3,0.6,0.5,0.6,0.6c0,0.2-0.1,0.4-0.2,0.5
		c-0.2,0.3-0.5,1-0.9,2.2c-0.2,0.2-0.4,0.3-0.6,0.3s-0.3,0-0.3-0.1c-0.4,0-0.8,0.1-1.2,0.1C70.1,8.9,69.9,9,69.8,9h-0.1
		c-0.1,0.3-0.1,0.5-0.2,0.7c0,0.1-0.1,0.2-0.1,0.2c0.1,0,0.2,0,0.3,0.1c0.1,0,0.2,0.1,0.3,0.1h0.1c0.7-0.2,1.2-0.3,1.6-0.3
		c0.2,0,0.4-0.1,0.6-0.2c0.1,0,0.1,0,0.1,0s0.3,0.1,0.8,0.4c0.5,0.3,0.7,0.5,0.7,0.6c0,0,0,0.1-0.1,0.2c-0.2,0.1-0.3,0.3-0.4,0.4
		c-0.1,0.2-0.2,0.4-0.3,0.6c0.2,0.2,0.3,0.4,0.3,0.5h-0.1c-0.6,0-1.3,0-1.9,0.1c-0.4,0.1-0.6,0.1-0.8,0.1v0.2c0,0.4-0.2,0.5-0.4,0.5
		c-0.1,0-0.3-0.1-0.4-0.2c-0.1-0.1-0.2-0.2-0.2-0.3c-0.1-0.3-0.2-0.7-0.3-1.3c-0.1-0.4-0.2-0.7-0.3-0.8c-0.2,0.4-0.4,0.8-0.7,1.1
		c-0.4,0.5-0.9,0.9-1.6,1.3c-0.1,0-0.1,0.1-0.2,0.1V13c0.4-0.4,0.7-0.9,1-1.4c0.5-0.8,0.8-1.7,1-2.6c0.2-0.8,0.3-1.7,0.3-2.5
		c0-0.2,0-0.3-0.1-0.4c-0.2,0.1-0.3,0.3-0.4,0.4c-0.5,0.4-0.9,0.7-1.4,1c-0.2,0.1-0.3,0.1-0.4,0.1V7.4c0.7-0.7,1.2-1.5,1.8-2.2
		c0.3-0.5,0.7-1,1-1.6C69.6,3,69.8,2.5,70,1.9c0-0.1,0-0.3,0-0.4c0-0.2-0.1-0.3-0.1-0.5C69.9,1,70,0.9,70.1,0.9z M70.1,6.3
		c0,0.2,0,0.4-0.1,0.5c0.3-0.1,0.6-0.1,0.8-0.2c0.1,0,0.1,0,0.2,0c0.5,0,0.8,0.2,0.8,0.5c0,0.1,0,0.1-0.1,0.1
		c-0.4,0.1-0.7,0.2-1,0.2c-0.3,0.1-0.4,0.1-0.5,0.1s-0.2,0-0.2,0c0,0.3-0.1,0.6-0.2,0.8c0.2,0,0.4-0.1,0.7-0.1
		c0.4-0.1,0.7-0.2,1-0.2c0.1,0,0.1-0.1,0.2-0.1s0.2,0,0.3,0.1c0.1-0.3,0.1-0.7,0.2-1.2c0.1-0.3,0.1-0.5,0.1-0.8c0-0.1,0-0.2-0.1-0.2
		s-0.4,0-0.9,0.1C71,6,70.6,6.1,70.1,6.3z M70.4,11.7c0.2,0,0.5,0,0.8-0.1c0.3,0,0.6-0.1,0.8-0.1c0.1-0.1,0.1-0.3,0.1-0.4
		c0.1-0.2,0.1-0.4,0.1-0.6c0-0.2-0.1-0.3-0.3-0.3c-0.2,0-0.4,0-0.6,0.1c-0.3,0.1-0.7,0.2-1,0.3L70.4,11.7z M74.7,4.3
		c0.1,0,0.4,0,0.6,0.1c0.3,0.1,0.5,0.2,0.5,0.3v4c0,0.2,0,0.3-0.1,0.4c-0.1,0.2-0.2,0.2-0.4,0.2c-0.1,0-0.2-0.1-0.4-0.4
		c-0.1-0.2-0.2-0.3-0.2-0.4V8c0-1.8-0.1-2.9-0.3-3.2c-0.1-0.2-0.1-0.3-0.1-0.3C74.4,4.4,74.5,4.3,74.7,4.3z M76.9,1.4
		c0.4,0,0.8,0.1,1.3,0.3c0.4,0.1,0.6,0.3,0.6,0.5c0,0,0,0.1-0.1,0.2C78.5,3,78.4,3.5,78.4,4c-0.1,0.7-0.1,1.4-0.1,2
		c0,2.2,0.1,4,0.3,5.6c0,0.5-0.2,0.9-0.5,1.4c-0.2,0.3-0.4,0.5-0.6,0.5c-0.3,0-0.5-0.1-0.6-0.3c-0.2-0.3-0.7-0.8-1.7-1.5
		c0-0.1,0.1-0.2,0.2-0.2c0.6,0.1,1,0.2,1.2,0.2c0.1,0,0.1-0.1,0.2-0.3c0.1-0.3,0.1-0.8,0.1-1.8C77,8.2,77,6.9,77,5.4
		c0-0.8,0-1.5-0.1-2.2c0-0.6-0.2-1.1-0.4-1.5c0-0.1,0-0.1,0-0.1C76.5,1.5,76.6,1.4,76.9,1.4z"/>
	<path class="st4" d="M85.3,7.8c-0.3,0.9-0.5,2-0.5,3.2c0,0.6-0.2,0.9-0.5,0.9c-0.4,0-0.8-0.4-1.1-1c-0.4-0.7-0.6-1.5-0.6-2.4
		c0-0.6,0.1-1.3,0.2-2.1c0.2-0.8,0.3-1.5,0.5-2c0.1-0.3,0.2-0.6,0.2-0.9S83.4,3.1,83.4,3c-0.1-0.1-0.1-0.2-0.1-0.4
		c0-0.1,0.1-0.2,0.3-0.2c0.3,0,0.6,0.1,1,0.4s0.6,0.6,0.6,0.9c0,0-0.1,0.2-0.3,0.4c-0.2,0.2-0.5,1-0.8,2.3c-0.3,0.9-0.4,1.8-0.4,2.5
		c0,0.6,0.1,0.8,0.4,0.8C84.2,9.7,84.6,9.1,85.3,7.8L85.3,7.8z M92,3.9c0,0.3-0.3,0.6-0.9,0.9c-0.6,0.4-1.2,0.6-1.8,0.7
		c0.6-0.4,0.9-0.7,1-0.8c0,0-0.1-0.1-0.2-0.1s-0.4,0.1-0.8,0.2c-0.2,0-0.4,0.1-0.7,0.1c-0.4,0-0.8-0.1-1.1-0.2
		c-0.3-0.2-0.4-0.3-0.4-0.4s0.4-0.2,1.1-0.2c0.5,0,0.9-0.1,1.2-0.3c0.8-0.3,1.2-0.5,1.4-0.5c0.3,0,0.6,0.1,0.9,0.2
		C91.9,3.6,92,3.7,92,3.9z M92.6,10.6c0,0.3-0.3,0.5-0.8,0.5c-1.2,0-2.2-0.3-2.9-0.7c-0.9-0.5-1.4-1.3-1.5-2.3
		c0.8,0.9,1.8,1.4,3,1.4c0.3,0,0.5,0,0.7-0.1c0.3,0,0.4-0.1,0.5-0.1c0.3,0,0.6,0.1,0.8,0.4C92.4,10,92.6,10.2,92.6,10.6z"/>
	<path class="st4" d="M105.4,6.9c0,1-0.6,1.8-1.7,2.5c-1.2,0.8-3,1.2-5.1,1.2c1.9-0.6,3.2-1.3,4-1.9c0.8-0.7,1.2-1.4,1.3-2.1
		c0-0.4-0.2-0.7-0.5-0.9c-0.3-0.3-0.7-0.4-1.2-0.4c-0.4,0-1,0.1-1.8,0.4c-0.7,0.2-1.4,0.6-2.2,1.1c-0.9,0.6-1.5,0.8-1.8,0.8
		s-0.6-0.1-1-0.3c-0.4-0.2-0.6-0.4-0.6-0.6c0-0.1,0.1-0.2,0.4-0.2c0.6-0.1,1.3-0.3,2.2-0.7c0.7-0.3,1.7-0.7,2.8-1
		c0.9-0.3,1.5-0.4,2-0.4c1,0,1.9,0.3,2.5,1C105.2,5.7,105.4,6.2,105.4,6.9z"/>
	<path class="st4" d="M112.9,7.6c-0.2,0.9-0.3,1.6-0.3,2.1c0,0.2,0,0.3,0.1,0.5s0.1,0.3,0.1,0.4c0,0.4-0.3,0.6-0.7,0.6
		c-0.5,0-1-0.2-1.5-0.7c-0.4-0.4-0.8-0.9-1-1.6c-0.2-0.5-0.3-1.3-0.4-2.3c-0.1-0.8-0.2-1.3-0.3-1.5c-0.2-0.2-0.2-0.3-0.2-0.4
		c0-0.2,0.1-0.4,0.4-0.4c0.1,0,0.4,0.1,0.8,0.3c0.4,0.2,0.7,0.4,0.7,0.6v0.1l-0.1,0.1V6c0,1.3,0.2,2.2,0.6,2.8
		c0.2,0.3,0.4,0.5,0.5,0.5C111.4,9.4,111.9,8.8,112.9,7.6z M118.7,7.7c0,0.7-0.4,1.1-1,1.1c-0.3,0-0.5-0.3-0.6-0.8
		c-0.1-0.7-0.2-1.3-0.4-1.7c-0.2-0.5-0.6-1-1.2-1.6c1,0.3,1.7,0.5,2,0.8C118.2,6,118.6,6.7,118.7,7.7z"/>
	<path class="st4" d="M131.9,3.9c0,0.3-0.3,0.4-0.7,0.4c-0.8,0-1.6,0.2-2.3,0.6c-0.8,0.4-1.4,0.9-1.7,1.6c-0.3,0.5-0.4,1.1-0.4,1.6
		s0.2,1,0.5,1.4c0.2,0.3,0.7,0.6,1.2,0.8c0.6,0.2,0.8,0.5,0.8,1s-0.3,0.8-0.7,0.8c-0.8,0-1.6-0.5-2.2-1.3s-0.9-1.6-0.9-2.5
		c0-0.5,0.1-1,0.4-1.6s0.8-1.3,1.7-2c-0.2,0-1.1,0.3-2.5,0.7c-1.2,0.4-2,0.5-2.4,0.5c-0.3,0-0.6-0.2-1-0.6c-0.4-0.3-0.5-0.6-0.5-0.7
		c0-0.2,0.1-0.3,0.2-0.3c0,0,0.2,0,0.4,0.1c0.2,0,0.3,0.1,0.4,0c0.2,0,1.2-0.2,3-0.5c2.2-0.4,3.6-0.7,4.1-0.9
		c0.7-0.2,1.1-0.4,1.3-0.4s0.5,0.1,0.8,0.4C131.8,3.5,131.9,3.7,131.9,3.9z"/>
</g>
<g class="st3">
	<path class="st4" d="M6.9,1.5c0.2,0,0.4,0.1,0.6,0.2S7.8,2,7.8,2.2S7.7,2.5,7.6,2.5c-0.5,0-0.9,0-1.3,0c0.1,0.1,0.1,0.1,0.1,0.1
		c0,0.1,0,0.2-0.1,0.3c0,0.2-0.1,0.3-0.1,0.5V12c0,0.5-0.1,0.7-0.2,0.8c-0.2,0.2-0.3,0.3-0.5,0.3c-0.1,0-0.3-0.1-0.4-0.4
		C5,12.6,5,12.2,5,11.8c0-0.1,0-0.4,0.1-0.7c0.1-0.5,0.1-0.8,0.1-1c0-0.4,0-0.8,0-1.2C4.8,9.1,4.3,9.4,3.7,9.7
		c-0.5,0.3-1.1,0.6-1.8,1c-0.1,0.1-0.2,0.1-0.2,0.1c-0.1,0-0.4-0.2-0.7-0.6C0.7,9.8,0.6,9.6,0.6,9.4c0-0.1,0.1-0.2,0.2-0.2
		c0.2,0,0.4,0,0.6-0.1c0.3,0,0.6-0.1,1-0.2L2.3,5.4c0-0.6,0-1.2-0.1-1.7c0-0.2-0.1-0.4-0.2-0.5l0,0c-0.2,0-0.4,0-0.4,0
		C1.4,3.2,1.2,3.1,1,2.9C0.8,2.8,0.8,2.6,0.8,2.5c0,0,0-0.1,0.1-0.1C2,2.3,3,2.2,3.8,2.1C4.6,2,5.5,1.8,6.3,1.6
		C6.6,1.5,6.8,1.5,6.9,1.5z M5.2,8.2c0-1.4,0-3,0-4.6C5.2,3.3,5.1,3,5,2.8c0,0,0-0.1-0.1-0.1c-0.4,0-0.8,0.1-1.2,0.1
		c-0.2,0-0.4,0-0.6,0.1C3.4,3,3.6,3.2,3.6,3.3c0,0,0,0.1,0,0.2c0,0.2-0.1,0.4-0.1,0.8c0.3-0.1,0.6-0.1,0.6-0.1h0.1
		C4.8,4.2,5,4.3,5,4.6C5,4.8,5,4.9,4.8,5C4.5,5,4.1,5.1,3.6,5.1l0,0v1.2c0.3-0.1,0.6-0.1,0.7-0.2h0.1C4.8,6.2,5,6.3,5,6.5
		s0,0.4-0.2,0.4C4.5,7,4.1,7,3.6,7.1c0,0,0,0-0.1,0v1.5C4,8.5,4.4,8.4,4.9,8.3C5,8.2,5.1,8.2,5.2,8.2z M10.5,3.3
		c0.2,0,0.5,0.1,0.9,0.3c0.5,0.3,0.7,0.6,0.7,0.8L12,4.5c-0.3,0.4-0.6,0.9-0.8,1.5s-0.4,1.2-0.6,1.6c-0.1,0.2-0.3,0.5-0.5,0.7
		c0.8,0.6,1.9,1.1,3.3,1.7c0,0.1-0.1,0.2-0.3,0.3c-1.2,0.2-1.9,0.3-2.1,0.3c-0.3,0-0.5-0.1-0.7-0.2C10,10,9.6,9.6,9.3,9.1
		C9.2,9.3,9,9.5,8.7,9.7c-0.4,0.2-0.8,0.4-1.2,0.6c-0.3,0.1-0.6,0.2-0.9,0.2c-0.1,0-0.2-0.1-0.2-0.2c0,0,0.1-0.1,0.2-0.1
		C6.8,10.1,7,10,7.2,9.8c0.4-0.2,0.7-0.5,1-0.8c0.2-0.2,0.4-0.5,0.6-0.7c-0.3-0.4-0.6-0.9-1-1.4c-0.3-0.4-0.6-0.8-1-1.1
		c-0.2,0-0.2-0.2-0.2-0.4c0-0.1,0.1-0.1,0.4-0.1c0.2,0,0.3,0.1,0.5,0.2C7.8,5.7,8,5.9,8.2,6.3c0.3,0.4,0.6,0.9,1,1.3
		C9.4,7.4,9.5,7.2,9.6,7C9.7,6.6,9.9,6,10,5.2c0.1-0.2,0.1-0.4,0.1-0.6S10,4.3,9.9,4.3C9.3,4.5,8.8,4.7,8.3,4.9C8,5,7.8,5,7.7,5
		C7.5,5,7.3,4.9,7.1,4.7C6.9,4.5,6.8,4.4,6.8,4.3c0,0,0-0.1,0.1-0.1C7.5,4.2,8,4.1,8.6,4c0.5-0.1,1-0.4,1.6-0.6
		C10.3,3.3,10.4,3.3,10.5,3.3z"/>
	<path class="st4" d="M21.2,4.3c0.1,0,0.2,0,0.4,0.1c0.2,0.2,0.3,0.3,0.3,0.4s0,0.2,0,0.3c0,0.1-0.1,0.2-0.2,0.2
		c-0.4,0.1-0.8,0.2-1.1,0.3v1.5C20.8,7,21,6.9,21.1,6.9c0.4-0.2,0.6-0.3,0.7-0.3c0.2,0,0.3,0.1,0.3,0.3c0,0-0.1,0.1-0.2,0.2
		c-0.3,0.2-0.8,0.6-1.3,0.9v3.4c0,0.4-0.1,0.8-0.4,1.1C20,12.9,19.9,13,19.8,13c-0.2,0-0.4-0.1-0.5-0.3s-0.6-0.7-1.4-1.4
		c0-0.1,0.1-0.2,0.2-0.2c0.5,0.2,0.8,0.3,1,0.3c0.1,0,0.2-0.1,0.2-0.3c0.1-0.3,0.1-0.9,0.2-1.8c0-0.2,0-0.4,0-0.6
		c-0.5,0.3-1,0.7-1.6,1.1C17.8,10,17.7,10,17.6,10S17.2,9.8,17,9.5c-0.2-0.4-0.3-0.6-0.3-0.8c0-0.1,0-0.2,0.2-0.2s0.5-0.1,0.7-0.2
		C18,8.2,18.7,8,19.5,7.6c0-0.6,0-1.1,0-1.7C19.1,6,18.8,6,18.6,6c-0.5,0-0.9-0.1-1-0.4c-0.1-0.2-0.2-0.3-0.2-0.4s0-0.1,0.1-0.1
		c0.8-0.1,1.5-0.2,2-0.3c0-0.7,0-1.3-0.1-1.8c0-0.6-0.1-1.1-0.3-1.5c0-0.1,0-0.1,0-0.1c0-0.1,0.1-0.2,0.3-0.2c0.3,0,0.6,0.1,1.1,0.3
		C20.8,1.7,21,1.8,21,2c0,0,0,0.1,0,0.2c-0.2,0.5-0.3,1.1-0.3,1.5c0,0.3,0,0.6,0,0.9c0.1,0,0.2-0.1,0.3-0.2
		C21,4.3,21.1,4.3,21.2,4.3z M26.5,2.6c0.1,0,0.4,0.1,0.8,0.2c0.5,0.3,0.8,0.6,0.8,0.7S28,3.7,27.9,3.8c-0.6,0.6-1.1,1.3-1.7,2.2
		C26.1,6.2,26,6.3,26,6.3c0,0.1,0,0.2,0.1,0.2c0.7-0.2,1-0.3,1.1-0.3s0.3,0.1,0.6,0.2c0.4,0.3,0.6,0.5,0.6,0.6s0,0.2-0.1,0.2
		c-0.3,0.4-0.5,0.6-0.5,0.7c-0.2,0.7-0.4,1.2-0.6,1.6s-0.5,0.8-0.7,1c0.6,0.6,1.7,1.3,3.1,2v0.1c0,0.1-0.1,0.1-0.3,0.1
		c-0.9,0.1-1.7,0.2-2.4,0.2c-0.2,0-0.4,0-0.5-0.1c-0.3-0.4-0.6-0.8-1-1.4c-0.1,0.1-0.2,0.2-0.4,0.2c-0.5,0.3-1,0.5-1.7,0.6
		c-0.5,0.1-1,0.2-1.5,0.2c-0.2,0-0.3,0-0.3-0.1c0,0,0.1-0.1,0.3-0.1c1.1-0.3,1.9-0.8,2.6-1.2c0.1-0.1,0.3-0.2,0.4-0.4
		c-0.2-0.4-0.4-0.8-0.6-1.2c0-0.1-0.2-0.4-0.4-0.8c-0.1-0.1-0.1-0.2-0.2-0.2c-0.1,0.2-0.1,0.3-0.2,0.4c-0.4,0.9-0.8,1.6-1.3,2.1
		c-0.3,0.3-0.6,0.5-0.8,0.7l-0.4,0.2c0,0-0.1,0-0.1-0.1c0.4-0.5,0.8-1,1-1.3c0.3-0.6,0.6-1.3,0.8-2.1c0.3-0.7,0.5-1.6,0.6-2.4
		c0.1-0.4,0.1-0.8,0.1-1.2V4.6c-0.1,0-0.1,0-0.2,0c-0.2,0-0.4-0.1-0.8-0.3C22.1,4.2,22,4,22,3.8c0-0.1,0.1-0.2,0.2-0.2
		c0.4,0,1.3-0.2,2.7-0.4c0.4-0.1,0.9-0.3,1.3-0.5C26.3,2.6,26.4,2.6,26.5,2.6z M23.8,7.8C23.9,7.8,23.9,7.8,23.8,7.8
		c0.3,0.2,0.5,0.4,0.8,0.7c0.4,0.5,0.8,1,1.1,1.4c0.1-0.1,0.2-0.3,0.3-0.4c0.2-0.5,0.3-1.2,0.4-1.9c0-0.2-0.2-0.4-0.5-0.4
		c-0.5-0.1-0.8-0.3-0.8-0.7c0,0,0,0,0.1-0.1C25.6,5.8,25.9,5,26.1,4V3.9C25.5,4,25,4.1,24.4,4.3c0.3,0.1,0.4,0.3,0.4,0.4
		s0,0.1-0.1,0.2c-0.1,0.2-0.2,0.3-0.2,0.5C24.3,6.3,24.1,7.2,23.8,7.8z"/>
	<path class="st4" d="M34.7,1.9c0.3,0,0.6,0.1,0.9,0.3c0.4,0.2,0.6,0.3,0.6,0.5c0,0.1,0,0.2-0.1,0.2c-0.1,0.2-0.2,0.4-0.2,0.7
		c-0.2,0.9-0.3,1.6-0.5,2.3c0.2-0.1,0.4-0.1,0.7-0.2c0.1,0,0.1-0.1,0.2-0.1c0-0.2-0.1-0.4-0.2-0.6c0-0.1,0.1-0.2,0.2-0.2
		c0.3,0,0.6,0.1,0.8,0.2c0.5,0.2,0.8,0.4,0.8,0.5s0,0.1-0.1,0.2c-0.1,0.2-0.2,0.4-0.3,0.6c-0.3,1.3-0.6,2.2-0.9,2.8
		c-0.1,0.1-0.1,0.3-0.2,0.4c0.2,0.2,0.4,0.3,0.5,0.5c0.3,0.4,0.5,0.7,0.5,0.9c0,0.4-0.2,0.7-0.5,0.7c-0.4,0-0.7-0.2-0.8-0.5
		c-0.1-0.2-0.3-0.4-0.4-0.5c-0.1,0.1-0.2,0.3-0.4,0.4c-0.5,0.5-1,0.8-1.6,1c-0.3,0.1-0.5,0.2-0.7,0.2c-0.1,0-0.1,0-0.1-0.1
		c0.3-0.2,0.6-0.5,0.9-0.7c0.6-0.5,1-1,1.2-1.5c-0.4-0.4-0.8-0.8-1.2-1.1c0.3,0,0.2-0.1,0.2-0.2c0-0.1,0-0.1,0-0.2
		c0.1-0.3,0.1-0.7,0.2-1.1c-0.2,0.1-0.3,0.2-0.5,0.3c-0.1,0-0.1,0-0.1,0c-0.1,0-0.4-0.2-0.7-0.6c-0.2-0.3-0.3-0.5-0.3-0.6
		s0-0.1,0.1-0.1s0.2,0,0.3,0.1c0.1,0,0.4,0,0.9-0.1c0.1,0,0.3-0.1,0.4-0.1c0-0.4,0.1-0.9,0.1-1.4c0.1-0.7,0.1-1.4,0.1-1.9
		c0-0.2-0.1-0.4-0.2-0.6c-0.1-0.1-0.1-0.2-0.1-0.3C34.4,1.9,34.5,1.9,34.7,1.9z M36.4,6.3c-0.2,0.1-0.4,0.2-0.6,0.2
		c-0.2,0.1-0.3,0.1-0.5,0.2c-0.1,0.5-0.2,1-0.3,1.4c0,0.1,0,0.2,0,0.2c0,0.1,0,0.2,0.1,0.2c0.3,0.1,0.5,0.3,0.7,0.4
		c0.1-0.3,0.3-0.7,0.4-1.1C36.3,7.4,36.4,6.8,36.4,6.3z M43.2,8.8c-0.5,0-0.9,0-1.3,0c0.6,0.8,1.1,1.4,1.5,1.8
		c0.4,0.4,1.2,0.8,2.3,1.3c0.1,0,0.2,0.1,0.2,0.2s-0.1,0.1-0.2,0.1c-0.2,0.1-0.4,0.1-0.6,0.1c-0.2,0-0.8,0.1-1.6,0.1
		c-0.2,0-0.4-0.1-0.5-0.3c-0.5-0.7-0.9-1.3-1.1-1.6c-0.1-0.1-0.1-0.3-0.2-0.4c0,0.1,0,0.2,0,0.4c0,0.8,0,1.5,0,2.2
		c0,0.3-0.1,0.6-0.2,0.8c-0.2,0.2-0.4,0.3-0.5,0.3c-0.2,0-0.3-0.1-0.4-0.3c-0.1-0.2-0.2-0.5-0.2-0.9c0-0.8,0.1-1.6,0.1-2.3
		c-0.2,0.3-0.5,0.6-0.8,0.9c-0.4,0.4-0.9,0.8-1.4,1.1c-0.4,0.2-0.9,0.4-1.6,0.6v-0.1c0.2-0.2,0.5-0.3,0.6-0.5
		c0.5-0.4,0.9-0.8,1.2-1.2c0.4-0.5,0.8-1.1,1.3-1.8c0-0.1,0.1-0.1,0.1-0.2c-0.5,0.1-1,0.2-1.5,0.3c-0.1,0.1-0.2,0.1-0.4,0.1
		s-0.4-0.1-0.6-0.3c-0.2-0.2-0.3-0.4-0.3-0.4c0-0.1,0-0.1,0.1-0.1c0.5,0,1.5-0.1,3-0.3h0.1c0-0.4-0.1-0.7-0.2-0.8
		c0-0.1,0.1-0.2,0.3-0.2c0.3,0,0.5,0.1,0.8,0.2s0.5,0.2,0.5,0.4c0,0,0,0.1-0.1,0.2c0,0.1,0,0.1-0.1,0.2c0.9-0.1,1.6-0.3,2.1-0.4
		c0.1,0,0.1,0,0.2,0c0.2,0,0.5,0.1,0.8,0.2C44.9,8.4,45,8.7,45,8.9c0,0.3-0.1,0.4-0.3,0.4s-0.6,0-1-0.1C43.6,8.8,43.4,8.8,43.2,8.8z
		 M44.2,2.4c0.1,0,0.2,0,0.4,0.1C44.8,2.7,45,2.9,45,3s0,0.2-0.1,0.3c0,0.1-0.1,0.2-0.2,0.2c-0.5,0.1-1,0.2-1.5,0.2
		c-0.1,0.7-0.1,1.5-0.2,2.5c0,0.3-0.1,0.5-0.3,0.6C42.6,7,42.5,7,42.3,7c-0.1,0-0.2-0.1-0.3-0.3l0,0c-0.4,0.1-0.8,0.1-1.1,0.2
		C40.5,7,40.3,7,40.2,7h-0.1c-0.1,0.1-0.2,0.2-0.3,0.2S39.5,7.1,39.4,7s-0.2-0.2-0.2-0.3C39.1,6.2,39,5.5,39,4.4c0-0.1,0-0.1,0-0.2
		h-0.1c-0.5,0-0.9-0.1-1-0.4c-0.1-0.2-0.2-0.3-0.2-0.4c0-0.1,0-0.1,0.1-0.1c0.4,0,0.8,0,1.1-0.1c0-0.2-0.1-0.3-0.1-0.5
		c-0.1-0.3-0.1-0.6-0.2-0.7c0-0.2,0-0.2,0.2-0.2s0.5,0,0.8,0.1s0.5,0.3,0.5,0.4v0.8c0.7-0.1,1.3-0.2,1.8-0.2C41.9,3,42,3,42.1,3
		c0-0.7-0.1-1.2-0.3-1.4c-0.1-0.1-0.1-0.2-0.1-0.3s0.1-0.2,0.2-0.2c0.4,0,0.7,0.1,1,0.2c0.5,0.1,0.7,0.3,0.7,0.5
		c0,0.1,0,0.2-0.1,0.2c0,0.1-0.1,0.3-0.2,0.7c0.2,0,0.3-0.1,0.4-0.1C43.9,2.5,44.1,2.4,44.2,2.4z M40.1,4.9c0.4-0.1,0.8-0.2,1.1-0.3
		c0.1,0,0.2,0,0.2,0c0.3,0,0.5,0.1,0.6,0.2V3.9C41.7,4,41.3,4,40.9,4.1c-0.3,0-0.6,0.1-0.9,0.1L40.1,4.9z M40.1,6.4
		c0.5-0.1,1-0.2,1.5-0.3C41.7,6,41.8,6,41.9,6H42V5.3c-0.4,0.1-0.9,0.2-1.3,0.2c-0.3,0.1-0.6,0.1-0.6,0.1L40.1,6.4z"/>
	<path class="st4" d="M51.9,1.5c0.3,0,0.6,0.1,1,0.3c0.3,0.2,0.5,0.3,0.5,0.5c0,0.1-0.1,0.2-0.2,0.4C53.1,2.8,53,2.9,53,3
		c-0.6,1.2-1.1,2.1-1.6,2.8c0.5,0.3,0.8,0.5,0.8,0.6s0,0.2-0.1,0.4C52,7,52,7.2,52,7.2l0.1,3C52.6,9.7,53,9.3,53.2,9
		c0.6-0.7,1.1-1.4,1.5-2c0.3-0.5,0.5-1,0.7-1.3c-0.3,0.1-0.5,0.1-0.8,0.2C54.4,6,54.2,6,54.2,6c-0.2,0-0.4-0.1-0.7-0.3
		c-0.2-0.2-0.3-0.4-0.3-0.5s0-0.1,0.1-0.1c1-0.2,1.9-0.3,2.7-0.5c0-1.5-0.1-2.4-0.2-2.6c-0.1-0.2-0.1-0.3-0.2-0.5
		c-0.1-0.1-0.1-0.1-0.1-0.2s0.1-0.2,0.3-0.2c0.4,0,0.8,0.1,1.2,0.2s0.6,0.3,0.6,0.5c0,0.1,0,0.2-0.1,0.3c-0.1,0.2-0.2,0.4-0.2,0.7
		c-0.1,0.2-0.1,0.7-0.1,1.6c0.5-0.1,1-0.2,1.5-0.4c0.2-0.1,0.4-0.1,0.6-0.1c0.2,0,0.5,0.1,0.8,0.3c0.2,0.2,0.4,0.4,0.4,0.6
		c0,0.3-0.1,0.5-0.2,0.5c-1.1,0-2.1,0.1-3,0.2v0.1c0,0,0,0.1,0.1,0.1c0.6,0.8,1.2,1.4,1.7,1.8C59.7,8,60.6,8.6,62,9.2v0.2
		c0,0-0.1,0.1-0.3,0.1c-0.8,0.1-1.6,0.2-2.2,0.2c-0.2,0-0.4,0-0.4-0.1c-0.5-0.6-1-1.5-1.8-2.8c0,0.7,0,1.6,0,2.6l0,0
		c0.2,0,0.3-0.1,0.4-0.1c0.8,0,1.2,0.3,1.2,0.9c0,0.1-0.1,0.2-0.2,0.2c-0.5,0.1-0.9,0.2-1.4,0.3c0,0.5,0,1,0.1,1.6
		c0,0.5-0.1,0.8-0.3,1c-0.2,0.3-0.4,0.4-0.5,0.4c-0.2,0-0.4-0.3-0.6-0.8c-0.1-0.2-0.1-0.4-0.1-0.5c0-0.2,0-0.4,0.1-0.6
		c0-0.1,0.1-0.3,0.1-0.7c0-0.1,0-0.2,0-0.3c-0.2,0-0.3,0-0.4,0c-0.3,0-0.5-0.1-0.7-0.2c-0.2-0.2-0.2-0.3-0.2-0.5
		c0-0.1,0.1-0.1,0.2-0.2c0.4-0.1,0.8-0.1,1.2-0.2C56,8.8,56,8,56,6.9c-0.1,0.2-0.3,0.4-0.4,0.6c-0.4,0.6-0.9,1.1-1.4,1.6
		c-0.4,0.4-0.9,0.6-1.3,0.9c-0.4,0.2-0.6,0.3-0.7,0.3h-0.1l0.1,1.4c0,0.2-0.1,0.4-0.2,0.7c-0.2,0.3-0.3,0.5-0.4,0.5
		c-0.2,0-0.5-0.3-0.7-0.9c-0.1-0.2-0.1-0.3-0.1-0.4c0-0.3,0.1-1,0.2-2.2c-0.1-0.6,0-1.3,0-2.4c0-0.2,0-0.4,0-0.5
		c-0.5,0.6-0.9,1-1.4,1.3C49.3,8,49.1,8.2,49,8.2c0,0,0,0,0-0.1c0.7-1.1,1.3-2.1,1.8-3c0.3-0.7,0.6-1.5,0.8-2.2
		c0.1-0.4,0.2-0.8,0.2-1l-0.1-0.3C51.7,1.5,51.8,1.5,51.9,1.5z"/>
</g>
<g class="st3">
	<path class="st4" d="M2.8,2.6c0.2,0,0.4,0.1,0.8,0.2C3.9,2.9,4,3,4,3s0,0.1-0.1,0.2C3.8,3.5,3.6,3.8,3.5,4.1C3.9,4,4.3,4,4.7,3.9
		c0-0.9-0.1-1.5-0.1-1.7c-0.1-0.3-0.2-0.7-0.4-1C4.1,1.1,4.2,1,4.3,1c0.4,0,0.8,0.1,1.2,0.3c0.4,0.2,0.6,0.4,0.6,0.6
		c0,0.1,0,0.2-0.1,0.3c0,0.5-0.1,1-0.1,1.4c0.2-0.1,0.5-0.2,0.6-0.3c0.1,0,0.2-0.1,0.2-0.1c0.1,0,0.2,0,0.4,0.1
		c0.2,0.1,0.3,0.3,0.3,0.4s0,0.2-0.1,0.3c0,0.1-0.1,0.2-0.2,0.2c-0.5,0.1-1,0.3-1.4,0.4c0,0.3,0,0.6-0.1,0.9C6,5.4,6.5,5.3,7,5.2
		c0.2,0,0.3,0,0.5,0C8,5.2,8.2,5.5,8.2,6c0,0.1-0.2,0.2-0.7,0.2c-0.6,0-1.2,0.1-1.9,0.2v1.1c0.3,0,0.7-0.2,1.1-0.3
		c0.1,0,0.1,0,0.2,0s0.3,0.1,0.8,0.3C8.4,7.8,8.6,8,8.6,8.2c0,0.1,0,0.1-0.1,0.2C8.3,8.8,8.2,9,8.2,9.1c0,0,0,0.2,0,0.3
		c0,0.3,0,0.5,0,0.5c0,0.5-0.1,0.9-0.4,1.2c-0.3,0.3-0.5,0.4-0.6,0.4S7,11.4,6.9,11.3c-0.4-0.5-0.7-0.9-1-1.1
		c-0.1-0.1-0.1-0.1-0.1-0.2C5.9,10.1,6,10,6,10c0.4,0.2,0.7,0.2,0.8,0.2L6.9,10C7,9.9,7,9.5,7,9c0-0.3,0-0.5-0.1-0.7
		c0-0.1-0.1-0.2-0.2-0.2c-0.2,0-0.5,0-0.8,0.1H5.8v3.9c0,0.2-0.1,0.4-0.3,0.7c-0.1,0.3-0.3,0.4-0.5,0.4S4.6,13,4.4,12.7
		c-0.1-0.2-0.2-0.5-0.2-0.8c0.1-0.6,0.2-1.3,0.3-2.1C4.6,9.4,4.6,9,4.7,8.4c-0.5,0.1-1,0.2-1.3,0.3V11c0,0.2-0.1,0.3-0.2,0.5
		c-0.1,0.2-0.2,0.2-0.4,0.2c-0.1,0-0.2-0.1-0.5-0.4c-0.1-0.2-0.2-0.3-0.2-0.4l0.1-0.5c0-1.1-0.1-1.8-0.3-2c0-0.1-0.1-0.2-0.1-0.2
		c0-0.2,0.1-0.3,0.3-0.3s0.4,0,0.7,0.1C2.9,8,3,8,3,8.1c0.4,0,0.9-0.1,1.7-0.3c0-0.3,0-0.6,0-0.9V6.7C4,6.9,3.1,7.1,2.1,7.4L1.8,7.5
		c-0.1,0-0.3-0.1-0.6-0.4C0.9,6.8,0.7,6.5,0.7,6.3c0,0,0-0.1,0.1-0.1C1.4,6.2,2,6.1,2.6,6c0.6,0,1.3-0.1,2.1-0.2c0-0.3,0-0.6,0-0.9
		C4.5,4.9,4.3,5,4.1,5C3.7,5,3.3,4.9,3.2,4.6C3,4.8,2.9,5,2.7,5.2C2.6,5.4,2.4,5.5,2.2,5.7c-0.1,0-0.1,0-0.2,0c0,0-0.1,0-0.1-0.1
		c0.3-0.9,0.5-1.6,0.6-2c0.1-0.3,0.1-0.7,0.1-1.1C2.7,2.6,2.7,2.6,2.8,2.6z M9.1,4.1c0.2,0,0.4,0,0.6,0.1c0.3,0.1,0.5,0.2,0.5,0.4
		v3.9c0,0.2-0.1,0.3-0.2,0.4c0,0.2-0.1,0.3-0.3,0.3c-0.1,0-0.2-0.1-0.4-0.4C9.2,8.6,9.1,8.5,9.1,8.4l0.1-0.5c0-1.7-0.1-2.8-0.3-3.1
		C8.8,4.6,8.8,4.5,8.8,4.4C8.8,4.2,8.9,4.1,9.1,4.1z M11,1.1c0.3,0,0.8,0.1,1.2,0.3c0.4,0.1,0.6,0.3,0.6,0.5c0,0,0,0.1-0.1,0.2
		c-0.2,0.6-0.4,1.1-0.4,1.6c-0.1,0.7-0.1,1.4-0.1,2.1c0,2.2,0.1,4.2,0.2,5.8c0,0.4-0.1,0.9-0.4,1.3c-0.2,0.3-0.4,0.5-0.6,0.5
		c-0.3,0-0.5-0.1-0.6-0.4c-0.2-0.3-0.8-0.8-1.8-1.6c0-0.1,0.1-0.2,0.2-0.2c0.7,0.3,1.1,0.5,1.3,0.5c0.1,0,0.2-0.1,0.2-0.3
		c0.1-0.3,0.1-0.9,0.2-1.8C11,8.3,11,6.9,11,5.4c0-0.8,0-1.6-0.1-2.2c0-0.6-0.1-1.1-0.4-1.5c0-0.1-0.1-0.1-0.1-0.2
		C10.7,1.2,10.8,1.1,11,1.1z"/>
	<path class="st4" d="M19.9,1.5c0.3,0,0.6,0.1,1,0.3c0.3,0.2,0.5,0.3,0.5,0.5c0,0.1-0.1,0.2-0.2,0.3C21.1,2.7,21,2.8,21,2.9
		c-0.5,0.8-0.9,1.5-1.3,2c0.5,0.3,0.7,0.5,0.7,0.6s0,0.2-0.1,0.4c-0.1,0.2-0.1,0.4-0.1,0.4l0.1,4.9c0,0.2-0.1,0.4-0.2,0.7
		c-0.2,0.3-0.3,0.5-0.4,0.5c-0.2,0-0.5-0.3-0.7-0.9c-0.1-0.2-0.1-0.3-0.1-0.4c0-0.3,0.1-1.1,0.3-2.5c0.1-0.5,0.1-1.3,0.1-2.5
		c0-0.2,0-0.3,0-0.4c-0.7,0.8-1.4,1.4-2.1,1.8c-0.3,0.2-0.5,0.3-0.6,0.3c0,0-0.1,0-0.1-0.1c0.9-1,1.6-1.9,2.1-2.8
		c0.4-0.7,0.7-1.4,1-2.1c0.1-0.4,0.2-0.7,0.2-0.9l-0.1-0.3C19.6,1.5,19.7,1.5,19.9,1.5z M23.6,0.9c0.3,0,0.6,0.1,1,0.3
		c0.3,0.2,0.5,0.3,0.5,0.5c0,0.1-0.1,0.2-0.2,0.4c-0.1,0.1-0.2,0.2-0.2,0.3c-0.3,0.6-0.6,1.2-0.9,1.7c0.6-0.1,1.1-0.2,1.6-0.3
		c0.7-0.1,1.3-0.3,2-0.5c0.2,0,0.3-0.1,0.4-0.1c0.2,0,0.5,0.1,0.7,0.2c0.2,0.1,0.3,0.3,0.3,0.6s-0.1,0.4-0.2,0.4
		c-1.1,0-2.2,0.1-3.1,0.2c-0.1,0-0.3,0-0.4,0.1C25.2,4.9,25.3,5,25.3,5c0,0.1,0,0.2-0.1,0.4c-0.1,0.2-0.1,0.3-0.1,0.5v1
		c0.4-0.1,0.8-0.3,1.2-0.4c0.3-0.1,0.5-0.2,0.6-0.2c0.6,0,0.9,0.3,0.9,0.8c0,0.2-0.1,0.2-0.4,0.3c-0.3,0-0.7,0.1-1.2,0.2
		c-0.3,0-0.6,0.1-0.9,0.1c-0.2,0-0.3,0-0.4,0c0,0.5,0,1.1,0,1.6c0.6-0.1,1.1-0.2,1.5-0.4c0.4-0.1,0.6-0.2,0.8-0.2c0.7,0,1,0.3,1,0.9
		c0,0.1-0.1,0.2-0.4,0.2c-0.4,0-0.8,0.1-1.4,0.1c-0.4,0-0.7,0.1-1,0.1c-0.2,0-0.4,0-0.5,0c0,0.8,0,1.5-0.1,2.3
		c0,0.5-0.1,0.8-0.3,0.9c-0.2,0.2-0.3,0.3-0.5,0.3c-0.1,0-0.3-0.1-0.5-0.4c-0.2-0.2-0.3-0.6-0.3-1c0-0.1,0-0.3,0.1-0.5
		c0.1-0.4,0.2-0.7,0.2-0.8C23.9,9.3,24,7.7,24,5.9c0-0.4-0.1-0.6-0.2-0.8c0,0,0,0-0.1,0S23.4,5,23.2,4.8c0,0.2-0.1,0.3-0.2,0.4
		c-0.7,0.8-1.3,1.5-1.8,1.9c-0.3,0.2-0.5,0.4-0.6,0.4c0,0,0,0,0-0.1c0.7-1,1.3-2,1.8-2.9C22.7,3.7,23,3,23.2,2.3
		c0.1-0.4,0.2-0.8,0.2-0.9L23.3,1C23.3,1,23.4,0.9,23.6,0.9z"/>
	<path class="st4" d="M34.2,2.4c0.1,0,0.3,0.1,0.4,0.4c0,0.1,0.1,0.2,0.1,0.2c1.8-0.1,4.2-0.4,7.2-1c0.1,0,0.3,0,0.3,0
		c0.2,0,0.6,0.2,1.1,0.5c0.6,0.5,0.9,0.8,0.9,1C44.2,3.8,44,4,43.6,4c-0.6,0-1.4,0.2-2.3,0.6c-0.1,0-0.2,0-0.2-0.1
		c0,0,0.2-0.3,0.5-0.6C41.9,3.5,42,3.3,42,3.2c0,0,0,0-0.1-0.1C41.9,3,41.8,3,41.6,3c-1,0-2,0.1-3.1,0.2c-0.9,0.1-2,0.3-3.3,0.6
		c-0.2,0.1-0.4,0.1-0.5,0.1l0,0c0,0.2-0.1,0.3-0.2,0.5c-0.2,0.5-0.3,0.8-0.5,1c-0.1,0.1-0.2,0.2-0.3,0.2c-0.2,0-0.4-0.1-0.6-0.3
		C33.1,5.2,33,5,33,4.8s0-0.3,0.1-0.4c0.2-0.3,0.5-0.9,0.9-1.8C34,2.5,34.1,2.4,34.2,2.4z M40.2,4.5c0.2,0,0.3,0.1,0.5,0.2
		C40.9,4.8,41,5,41,5.2s-0.1,0.3-0.2,0.3c-0.8,0-1.5,0-2.2,0.1c0,0.3,0,0.6-0.1,0.9c0.4-0.1,0.7-0.2,1.1-0.2c0.2,0,0.3,0,0.4,0
		c0.2,0,0.3,0.1,0.5,0.2s0.3,0.3,0.3,0.5s-0.1,0.3-0.2,0.3c-0.8,0-1.5,0-2.2,0.1c0,0.2,0,0.4-0.1,0.6c0,0.1,0,0.2-0.1,0.4
		c1.4-0.2,2.6-0.5,3.5-0.7c0.1,0,0.2,0,0.2,0c0.3,0,0.6,0.1,0.9,0.3c0.3,0.2,0.5,0.5,0.5,0.8S43.2,9.2,43,9.2s-0.6,0-1.1-0.1
		C41.6,9,41.3,9,41.1,9C40,9,39,9,38.2,9.1c-0.1,0.3-0.1,0.5-0.2,0.8c-0.2,0.4-0.4,0.8-0.7,1.2c-0.2,0.3-0.6,0.6-1,1
		c-0.5,0.3-1.2,0.6-2.1,0.9c-0.3,0-0.5,0.1-0.6,0.1s-0.1,0-0.1-0.1c0.8-0.4,1.3-0.7,1.6-1c0.4-0.2,0.7-0.5,1-0.9
		c0.4-0.5,0.6-1,0.8-1.5c0-0.1,0.1-0.2,0.1-0.3c-0.7,0.1-1.5,0.3-2.2,0.5c-0.2,0.1-0.4,0.2-0.5,0.2c-0.2,0-0.5-0.1-0.7-0.4
		c-0.2-0.2-0.3-0.4-0.3-0.5s0-0.1,0.1-0.1c0.6,0,1.9-0.1,3.8-0.4c0-0.1,0-0.2,0-0.3c0-0.2,0-0.4,0.1-0.6c-0.3,0.1-0.6,0.1-0.8,0.2
		c-0.2,0-0.3,0.1-0.3,0.1c-0.1,0-0.3-0.1-0.5-0.3c-0.2-0.2-0.2-0.3-0.2-0.4c0,0,0-0.1,0.1-0.1c0.7-0.1,1.3-0.2,1.8-0.3
		c0-0.2,0-0.5,0-0.7V5.8c-0.4,0.1-0.8,0.1-1.2,0.3c-0.2,0.1-0.3,0.1-0.4,0.1c-0.1,0-0.3-0.1-0.5-0.3c-0.2-0.1-0.2-0.3-0.2-0.4
		c0,0,0-0.1,0.1-0.1c0.8-0.1,1.5-0.2,2.1-0.3c0-0.1,0-0.3,0-0.4c0-0.3-0.1-0.5-0.2-0.6c0-0.2-0.1-0.3-0.1-0.3c0-0.1,0.1-0.2,0.2-0.2
		c0.5,0,0.8,0.1,1.1,0.2C38.8,3.8,39,4,39,4.1s0,0.2-0.1,0.3c-0.1,0.1-0.1,0.2-0.2,0.4c0.3-0.1,0.7-0.2,1-0.2
		C39.9,4.6,40.1,4.5,40.2,4.5z M37.5,0.6c0.2,0,0.6,0.1,0.9,0.2C38.8,1,39,1.1,39.1,1.2s0.2,0.3,0.2,0.5c0,0.4-0.3,0.6-0.8,0.6
		c-0.2,0-0.4-0.2-0.7-0.7s-0.5-0.8-0.5-0.9C37.4,0.7,37.4,0.7,37.5,0.6z M39,9.8c0.1,0,0.3,0,0.6,0.1c0.5,0.2,1,0.4,1.5,0.6
		c0.6,0.4,1.1,0.7,1.3,1s0.3,0.6,0.3,0.9c0,0.1-0.1,0.3-0.2,0.5c-0.1,0.1-0.2,0.2-0.4,0.2s-0.4-0.1-0.5-0.2c-0.2-0.1-0.5-0.5-1-0.9
		c-0.6-0.8-1.1-1.3-1.3-1.5C39.1,10.2,39,10,39,9.8C39,9.9,39,9.8,39,9.8z"/>
	<path class="st4" d="M48,9.1c0.1,0,0.3,0,0.4,0.1c0.4,0.2,0.7,0.4,0.9,0.7c0.2,0.2,0.2,0.6,0.2,1.1c0,0.1-0.1,0.2-0.2,0.4
		c-0.2,0.1-0.3,0.2-0.5,0.2c-0.1,0-0.2-0.1-0.2-0.3c-0.2-0.3-0.4-0.9-0.7-1.8c0-0.1-0.1-0.2-0.1-0.2C47.9,9.1,47.9,9.1,48,9.1z
		 M50.1,1.2c0.3,0,0.5,0.1,0.8,0.3s0.4,0.3,0.4,0.5c0,0.1,0,0.1-0.1,0.2c-0.4,0.5-1,1.3-1.7,2.5c0,0,0,0.1-0.1,0.1l1.1-0.1
		C50.8,4.3,50.9,4,51,3.8c0-0.1,0-0.2,0-0.5c0-0.1,0.1-0.2,0.2-0.2c0.2,0,0.5,0.1,0.7,0.3c0.3,0.2,0.5,0.4,0.5,0.6
		c0,0,0,0.1-0.1,0.1c-0.2,0.1-0.4,0.3-0.5,0.6c-0.6,0.7-1.2,1.5-1.8,2.4c0.4-0.1,0.8-0.2,1.1-0.3c0-0.1-0.1-0.3-0.1-0.4s0-0.1,0-0.1
		c0-0.1,0-0.1,0.1-0.1s0.2,0,0.4,0.1c0.3,0.1,0.6,0.3,0.7,0.4c0.1,0.2,0.2,0.4,0.2,0.7c0,0.1-0.1,0.3-0.2,0.4
		C52.1,7.9,51.9,8,51.7,8c-0.1,0-0.1-0.1-0.2-0.2c-0.1-0.1-0.1-0.2-0.2-0.3c-0.2,0.1-0.5,0.2-0.8,0.3c-0.4,0.2-0.7,0.4-0.9,0.5
		c-0.1,0.1-0.2,0.1-0.2,0.2c0,0.1-0.1,0.1-0.1,0.1c-0.2,0-0.4-0.1-0.6-0.4c-0.2-0.3-0.3-0.5-0.3-0.6s0-0.2,0.1-0.2
		c0.3-0.3,0.6-0.5,0.6-0.6c0.2-0.3,0.6-0.8,1.1-1.5c-0.6,0.2-1.1,0.4-1.3,0.7c-0.2,0-0.4-0.1-0.6-0.3c-0.1-0.1-0.2-0.3-0.2-0.5
		c0-0.1,0-0.1,0.1-0.2c0.3-0.2,0.6-0.6,0.9-1.2c0.2-0.3,0.4-0.8,0.6-1.6c0.1-0.3,0.1-0.4,0.1-0.5s-0.1-0.2-0.1-0.3
		C49.9,1.2,49.9,1.2,50.1,1.2z M49.7,8.8c0.1,0,0.2,0,0.3,0.1c0.3,0.1,0.6,0.3,0.8,0.4C50.9,9.4,51,9.6,51,9.8
		c0,0.1-0.1,0.2-0.2,0.3c-0.1,0.1-0.3,0.2-0.4,0.2c-0.1,0-0.1-0.1-0.2-0.2c-0.1-0.2-0.3-0.6-0.6-1.2c0-0.1-0.1-0.1-0.1-0.2
		C49.6,8.8,49.6,8.8,49.7,8.8z M51.2,8.1c0.1,0,0.2,0,0.4,0.1c0.3,0.1,0.6,0.3,0.8,0.4c0.1,0.1,0.2,0.3,0.2,0.6
		c0,0.1-0.1,0.2-0.2,0.3c-0.1,0.1-0.3,0.2-0.4,0.2c-0.1,0-0.1-0.1-0.2-0.2c-0.1-0.2-0.4-0.6-0.6-1.2C51.1,8.3,51.1,8.2,51.2,8.1
		C51.1,8.2,51.1,8.1,51.2,8.1z M57.7,1.7c0.1,0,0.2,0,0.3,0.1c0.2,0.1,0.3,0.2,0.3,0.4c0,0.1,0,0.2,0,0.2c0,0.1-0.1,0.2-0.1,0.2
		C57.6,2.7,57,2.9,56.5,3v0.5c0.1,0,0.2,0,0.2-0.1c0.2,0,0.3-0.1,0.3-0.1c0.6,0,0.9,0.2,0.9,0.7c0,0.1-0.1,0.1-0.2,0.2
		c-0.5,0.1-0.9,0.2-1.3,0.2v0.5C57,4.8,57.5,4.7,58,4.6c0.4-0.1,0.8-0.1,1.1-0.1c0.2,0,0.5,0.1,0.8,0.2c0.3,0.2,0.5,0.5,0.5,0.7
		c0,0.1,0,0.1-0.1,0.2S60.1,5.8,60,5.8c-1.7,0-3.2,0.1-4.3,0.2C54.9,6,54,6.1,53,6.4c0,0-0.1,0-0.2,0c-0.1,0-0.3-0.1-0.5-0.4
		C52.1,5.8,52,5.6,52,5.6s0-0.1,0.1-0.1c0.7-0.1,1.3-0.2,1.7-0.3c0.4,0,0.8-0.1,1.3-0.2V4.4c-0.3,0-0.5,0.1-0.6,0.1
		c-0.2,0-0.4-0.1-0.5-0.2S53.8,4.1,53.8,4C53.9,4,54,4,54,3.9c0.4-0.1,0.8-0.1,1.2-0.2V3.2c-0.3,0.1-0.6,0.1-0.7,0.1
		c-0.4,0-0.7-0.1-0.8-0.4c-0.1-0.2-0.2-0.3-0.2-0.3s0-0.1,0.1-0.1c0.6,0,1.2-0.1,1.7-0.2c0-0.3-0.1-0.7-0.1-1c0-0.2-0.1-0.4-0.3-0.6
		V0.6c0-0.1,0.1-0.2,0.3-0.2c0.3,0,0.7,0.1,1.1,0.2c0.4,0.2,0.6,0.3,0.6,0.5c0,0,0,0.1-0.1,0.1c-0.1,0.2-0.2,0.4-0.2,0.8
		c0.3-0.1,0.7-0.2,0.9-0.3C57.5,1.7,57.6,1.7,57.7,1.7z M53.6,6.6c0.2,0,0.5,0.1,0.7,0.2c1.2-0.2,2-0.4,2.5-0.6c0.1,0,0.2,0,0.3,0
		s0.4,0.1,0.8,0.2c0.5,0.2,0.8,0.4,0.8,0.7c0,0.1,0,0.2-0.1,0.4c0,0.1-0.1,0.4-0.1,0.7v2.1c0,0.1-0.1,0.4-0.3,0.7
		c-0.2,0.2-0.4,0.3-0.5,0.3s-0.2-0.1-0.4-0.4c-0.6,0-1.2,0.1-1.7,0.1c-0.6,0-1,0-1.1,0c0,0,0,0.1-0.1,0.1l-0.1,0.1
		c0.2,0,0.4,0.1,0.7,0.1c0.4,0.1,0.6,0.3,0.6,0.4c0,0,0,0.1-0.1,0.1c-0.2,0.1-0.4,0.3-0.6,0.4c-0.5,0.4-0.9,0.6-1.3,0.8
		c-0.2,0.1-0.5,0.2-0.8,0.3c-0.1,0-0.2,0.1-0.2,0.1s-0.1,0-0.1-0.1c0.3-0.2,0.5-0.5,0.8-0.8c0.3-0.4,0.5-0.7,0.7-1
		c0.1-0.1,0.1-0.2,0.1-0.3c-0.2,0-0.3-0.2-0.4-0.5c-0.1-0.3-0.2-0.5-0.2-0.6V10c0.1-0.2,0.2-0.4,0.2-0.6c0-0.3,0.1-0.7,0.1-1.2
		C53.8,7.4,53.7,6.9,53.6,6.6C53.5,6.6,53.5,6.6,53.6,6.6C53.4,6.7,53.4,6.6,53.6,6.6z M54.7,10.3c0.2,0,0.4,0,0.7-0.1
		c0.5-0.1,1-0.1,1.3-0.2c0.1,0,0.2,0,0.2,0c0.1,0,0.1,0,0.1,0c0-0.4,0-1.1,0-2.2c0-0.2-0.1-0.4-0.2-0.6C56.8,7,56.7,7,56.6,7
		c-0.2,0-0.4,0-0.6,0.1c-0.4,0.1-0.7,0.2-0.9,0.3c-0.1,0.1-0.3,0.1-0.4,0.1c0,0.1,0,0.3,0,0.5c0.3-0.1,0.7-0.2,1-0.3
		c0.1,0,0.2,0,0.2,0c0.5,0,0.8,0.2,0.8,0.6c0,0.1,0,0.1-0.1,0.1c-0.4,0.1-0.8,0.2-1.2,0.2c-0.3,0.1-0.5,0.1-0.6,0.1v0.5
		C55.2,9.1,55.5,9,55.9,9C56,9,56,9,56.1,9c0.5,0,0.8,0.2,0.8,0.5c0,0.1,0,0.1-0.1,0.1c-0.5,0.1-0.9,0.2-1.3,0.2
		c-0.3,0.1-0.5,0.1-0.6,0.1v0.4H54.7z M56.8,11.1c0.1,0,0.2,0,0.3,0c0.3,0.1,0.6,0.2,0.9,0.4c0.4,0.2,0.6,0.4,0.8,0.6
		c0.1,0.2,0.2,0.3,0.2,0.5s-0.1,0.3-0.2,0.5c-0.1,0.1-0.2,0.2-0.4,0.2S58.1,13.2,58,13c-0.1-0.1-0.3-0.3-0.5-0.6
		c-0.3-0.5-0.5-0.8-0.6-0.9C56.8,11.3,56.7,11.2,56.8,11.1C56.7,11.1,56.7,11.1,56.8,11.1z"/>
</g>
<g>
	<path d="M5.9,0.8c0.3,0,0.7,0.1,1.2,0.3c0.3,0.1,0.5,0.2,0.5,0.4c0,0.1,0,0.1-0.1,0.2c0,0.1-0.1,0.3-0.2,0.5l0,0
		c0.2,0.1,0.4,0.3,0.6,0.6c0.7,0.8,1.4,1.5,2.1,2c0.7,0.6,1.9,1.2,3.5,1.9v0.1c0,0.1-0.1,0.1-0.3,0.1c-0.9,0.1-1.7,0.2-2.4,0.2
		c-0.3,0-0.4,0-0.5-0.1C9.6,6.4,8.8,5.3,7.8,3.8C7.6,3.6,7.4,3.3,7.1,2.9C7,2.8,7,2.8,6.9,2.7c-0.5,0.7-1,1.4-1.6,2
		C4.6,5.6,3.8,6.3,3,6.8C2.3,7.3,1.7,7.6,1,7.9C0.8,8,0.6,8,0.5,8l0,0c1-0.8,1.9-1.6,2.7-2.5c0.5-0.6,1-1.2,1.5-1.8
		c0.4-0.6,0.8-1.2,1-1.8c0.1-0.2,0.1-0.4,0.1-0.5c0-0.2-0.1-0.3-0.1-0.5C5.7,0.8,5.8,0.8,5.9,0.8z M9.8,7.6c0.2,0,0.4,0.1,0.7,0.2
		c0.2,0.1,0.3,0.3,0.3,0.6s-0.1,0.4-0.2,0.4C9.2,8.9,7.9,9,6.7,9.1C7,9.2,7.1,9.3,7.1,9.4c0,0.1-0.1,0.2-0.2,0.3
		C6.7,9.9,6.6,10,6.5,10.1c-0.3,0.4-0.7,0.8-1.2,1.3c0.8-0.1,1.9-0.3,3.3-0.5c-0.2-0.4-0.3-0.6-0.4-0.7C8.1,10.1,8,9.9,8,9.8
		c0,0,0-0.1,0.1-0.1s0.2,0,0.4,0.1c0.3,0.2,0.7,0.4,1,0.6c0.4,0.3,0.7,0.6,0.9,0.9c0.1,0.2,0.2,0.5,0.2,0.8c0,0.2,0,0.3-0.2,0.5
		c-0.1,0.1-0.3,0.2-0.5,0.2s-0.4-0.1-0.5-0.3S9.1,12,8.9,11.6v-0.1H8.8c-2.7,0.6-4.3,1-4.8,1.2c-0.4,0-0.5-0.2-0.5-0.5
		s0-0.5,0.1-0.7c0-0.3,0.2-0.4,0.4-0.4c0.1,0,0.2-0.1,0.3-0.1c0.1,0,0.2-0.2,0.4-0.4C4.9,10.4,5,10.2,5.1,10C5,9.9,5.1,9.7,5.2,9.5
		c0-0.1,0.1-0.2,0.1-0.3c-0.5,0.1-1,0.2-1.6,0.3c-0.3,0-0.5,0.1-0.6,0.1S2.8,9.4,2.5,9.2C2.3,9,2.2,8.9,2.2,8.8c0,0,0-0.1,0.1-0.1
		C3.7,8.5,5,8.4,6,8.2c1-0.1,2-0.3,3.1-0.5C9.3,7.7,9.6,7.6,9.8,7.6z M7.8,5.6c0.1,0,0.2,0,0.5,0.1C8.5,5.9,8.6,6,8.6,6.2
		c0,0.1,0,0.2-0.1,0.3c0,0.1-0.1,0.2-0.2,0.2C7.8,6.9,7.2,7,6.6,7.1C6.2,7.2,5.9,7.2,5.7,7.2C5.1,7.2,4.8,7,4.6,6.7
		C4.4,6.6,4.4,6.4,4.4,6.3s0-0.1,0.1-0.1c0.9,0,1.5-0.1,2-0.2c0.4-0.1,0.7-0.2,1-0.3C7.6,5.6,7.7,5.6,7.8,5.6z"/>
	<path d="M20.3,4.1c0.1,0,0.4,0.1,0.8,0.3c0.5,0.3,0.8,0.5,0.8,0.8c0,0.1-0.1,0.1-0.2,0.2C21.2,5.7,21,5.9,20.9,6
		c-0.4,0.5-0.8,1-1.1,1.4c0.5,0.2,0.7,0.4,0.7,0.6c0,0.1,0,0.2-0.1,0.4s-0.1,0.4-0.1,0.4l0.1,3.1c0,0.2-0.1,0.4-0.2,0.7
		c-0.2,0.3-0.3,0.5-0.4,0.5c-0.3,0-0.5-0.3-0.7-0.9C19,12,19,11.9,19,11.8c0-0.2,0.1-0.7,0.2-1.6c0.1-0.3,0.1-0.8,0.1-1.6
		c0-0.2,0-0.4,0-0.5c-0.2-0.1-0.3,0-0.4,0c-0.6,0.7-1.3,1.2-2.1,1.6c-0.3,0.2-0.5,0.3-0.6,0.3c0,0,0,0,0-0.1c0,0,0-0.1,0.2-0.2
		C17.1,9.1,17.6,8.5,18,8c0.6-0.7,1.2-1.6,1.7-2.4c0-0.1,0.1-0.1,0.1-0.2s0-0.1-0.1-0.1c-1.2,0.5-1.9,0.7-2,0.7
		c-0.2,0-0.4-0.1-0.7-0.4c-0.2-0.2-0.2-0.4-0.2-0.4C16.7,5,16.7,5,16.8,5c0.8,0,1.5-0.1,1.9-0.2s0.9-0.3,1.5-0.6
		C20.3,4.1,20.3,4.1,20.3,4.1z M18.9,1.2c0.2,0,0.4,0,0.6,0.1c0.5,0.1,1,0.3,1.3,0.4C21,1.8,21.1,2,21.1,2.3c0,0.2-0.1,0.3-0.3,0.5
		C20.6,2.9,20.4,3,20.2,3c-0.1,0-0.2-0.1-0.4-0.2c-0.2-0.2-0.6-0.7-1-1.4c-0.1-0.1-0.1-0.1-0.1-0.2C18.8,1.2,18.8,1.2,18.9,1.2z
		 M20.4,6.9c0.1,0,0.3,0,0.4,0.1c0.4,0.1,0.7,0.2,0.8,0.4c0.2,0.1,0.2,0.4,0.2,0.6c0,0.1-0.1,0.2-0.2,0.3s-0.3,0.2-0.4,0.2
		S21,8.4,21,8.3c-0.2-0.2-0.4-0.6-0.7-1.2C20.3,7,20.3,7,20.4,6.9C20.3,6.9,20.3,6.9,20.4,6.9z M26.9,5.1c0.1,0,0.3,0,0.5,0.1
		c0.3,0.2,0.4,0.4,0.4,0.5s0,0.2-0.1,0.3c-0.1,0.1-0.1,0.2-0.2,0.2c-0.6,0.2-1.3,0.4-2,0.5l-0.1,2.6c0.8-0.2,1.4-0.3,2-0.5
		c0.1,0,0.1,0,0.2,0c0.3,0,0.7,0.1,1.1,0.4c0.4,0.3,0.5,0.6,0.5,0.9c0,0.3-0.1,0.5-0.4,0.5c-0.2,0-0.7,0-1.3-0.1
		c-0.4-0.1-0.7-0.1-1-0.1c-1,0-1.9,0.1-2.5,0.2c-0.5,0.1-1.1,0.3-1.6,0.5c-0.1,0.1-0.2,0.1-0.3,0.1c-0.3,0-0.5-0.1-0.8-0.4
		c-0.2-0.3-0.4-0.5-0.4-0.6s0-0.1,0.1-0.1c0.5,0,1.5-0.1,3-0.4c0.1,0,0.2,0,0.2,0V7.1c-0.3,0.1-0.6,0.1-0.8,0.1
		c-0.6,0-1-0.2-1.2-0.5C22,6.5,22,6.3,22,6.2c0,0,0-0.1,0.1-0.1C22.9,6,23.6,6,24.2,5.9V5c0-0.8,0-1.5-0.1-2.1
		c0-0.3-0.1-0.6-0.3-0.8V2c0-0.1,0.1-0.2,0.4-0.2s0.7,0.1,1.1,0.2c0.4,0.2,0.6,0.3,0.6,0.5c0,0.1,0,0.1-0.1,0.2
		c-0.1,0.3-0.2,0.8-0.2,1.6v1.4c0.4-0.1,0.7-0.3,1.1-0.4C26.7,5.1,26.8,5.1,26.9,5.1z"/>
	<path d="M36,4.4c0.1,0,0.2,0,0.4,0.1c0.2,0.2,0.4,0.3,0.4,0.4s0,0.2-0.1,0.3c0,0.1-0.1,0.2-0.2,0.2c-0.3,0.1-0.6,0.2-0.9,0.3
		c0,0.4,0,0.7,0,1c0.2,0.1,0.4,0.1,0.6,0.2c0.3,0.1,0.5,0.3,0.5,0.4c0.1,0.1,0.1,0.2,0.1,0.3c0,0.1,0,0.3-0.1,0.4
		c-0.1,0.1-0.2,0.2-0.4,0.2S36,8.2,36,8c-0.1-0.1-0.2-0.2-0.3-0.4c0-0.1-0.1-0.1-0.1-0.2v4.7c0,0.2-0.1,0.4-0.3,0.6
		c-0.1,0.3-0.3,0.4-0.5,0.4s-0.4-0.2-0.5-0.5c-0.1-0.2-0.2-0.5-0.2-0.8c0.1-0.7,0.2-1.3,0.3-2.1c0.1-0.4,0.1-1,0.1-1.7
		c-0.1,0.1-0.1,0.2-0.2,0.3c-0.3,0.5-0.6,1-0.9,1.3c-0.3,0.3-0.6,0.5-1,0.8v-0.1c0.1-0.2,0.2-0.4,0.3-0.6c0.2-0.5,0.5-0.9,0.6-1.4
		C33.5,7.8,33.7,7,34,6.2c0-0.1,0-0.2,0.1-0.3C34.1,6,34,6,34,6c-0.5,0-0.9-0.1-1-0.4c-0.1-0.2-0.2-0.3-0.2-0.4s0-0.1,0.1-0.1
		C33.6,5,34.1,5,34.6,4.8c0-1.5,0-2.4-0.1-2.7s-0.2-0.7-0.4-1C34.1,1,34.2,1,34.3,1c0.4,0,0.7,0.1,1.1,0.3c0.4,0.2,0.5,0.3,0.5,0.5
		c0,0.1,0,0.2-0.1,0.3c-0.1,0.8-0.1,1.6-0.2,2.3c0,0,0.1,0,0.1-0.1C35.8,4.4,35.9,4.4,36,4.4z M39.3,2.4c0.1,0,0.3,0.1,0.8,0.3
		c0.1,0.1,0.2,0.1,0.3,0.2c0.9-0.1,1.6-0.1,2.2-0.2c0.4-0.1,0.8-0.2,1.1-0.3c0.1,0,0.1,0,0.2,0c0.1,0,0.2,0,0.4,0.1
		c0.2,0.2,0.3,0.3,0.3,0.4c0,0.1,0,0.2,0,0.3s-0.1,0.2-0.2,0.2c-0.5,0.1-0.9,0.2-1.4,0.2h0.1c0.5,0.2,0.7,0.4,0.7,0.5
		c0,0.1,0,0.2-0.1,0.3c-0.2,0.3-0.3,0.5-0.3,0.7c-0.1,0.4-0.2,0.8-0.3,1.2c0.2,0,0.4-0.1,0.6-0.2C43.9,6,44.1,6,44.3,6
		s0.4,0.1,0.7,0.2c0.3,0.2,0.5,0.4,0.5,0.6c0,0.1,0,0.1-0.1,0.2s-0.2,0.1-0.3,0.1c-0.9,0-1.7,0-2.3,0.1c-0.1,0.2-0.1,0.4-0.2,0.5
		c0.1,0,0.2,0.1,0.4,0.2c0.3,0.1,0.4,0.2,0.4,0.4c0,0.1,0,0.2-0.1,0.3c-0.1,0.4-0.2,0.7-0.2,1C43,10,43,10.4,43,10.8
		c0,0.2,0,0.4,0.1,0.5c0,0.2,0.1,0.3,0.2,0.3c0.1,0.1,0.4,0.2,0.7,0.2s0.5-0.1,0.6-0.4c0.1-0.2,0.3-0.8,0.4-1.8c0,0,0-0.1,0.1-0.1
		s0,0,0.1,0.1c0.2,1.1,0.4,1.9,0.6,2.3c0,0,0,0.1,0,0.2c0,0.1,0,0.2-0.1,0.3c-0.1,0.2-0.4,0.4-0.6,0.5C44.8,13,44.6,13,44.3,13
		c-0.5,0-0.9-0.1-1.3-0.3c-0.3-0.1-0.5-0.3-0.6-0.6c-0.1-0.2-0.2-0.5-0.2-1.1c0.1-0.9,0.1-1.6,0.1-2.1c-0.3,0.8-0.8,1.5-1.4,2.2
		c-0.6,0.6-1.2,1-1.8,1.3c-0.4,0.1-0.7,0.2-0.9,0.2c-0.1,0-0.1,0-0.1-0.1c0.4-0.3,0.8-0.6,1.2-0.9c0.8-0.8,1.4-1.5,1.8-2.2
		c0.3-0.5,0.6-1.2,0.8-2c-0.3,0.1-0.7,0.1-1.1,0.2h-0.1c-0.1,0-0.3-0.1-0.5-0.3C40,7.1,39.9,7,39.9,6.9s0-0.1,0.1-0.1
		c0.2,0,0.4-0.1,0.6-0.1c0-0.3,0-0.5,0-0.7c0-0.9,0-1.6-0.1-2.3c-0.2,0.3-0.3,0.6-0.4,0.9C39.9,6,39.7,6.8,39.6,7
		c-0.1,0.2-0.2,0.3-0.3,0.3c-0.2,0-0.3-0.1-0.5-0.2c0,0,0,0,0-0.1c-0.2,0-0.5,0-0.7,0.1c-0.1,0-0.2,0-0.3,0.1l-0.1,2.5
		c0.3-0.2,0.6-0.3,0.9-0.5c-0.1-0.2-0.2-0.5-0.4-0.8c-0.1-0.1-0.1-0.1-0.1-0.2c0,0,0-0.1,0.1-0.1s0.3,0,0.4,0.1
		c0.4,0.2,0.7,0.4,0.9,0.6c0.2,0.2,0.2,0.5,0.2,0.9c0,0.1-0.1,0.2-0.2,0.3c-0.1,0.1-0.3,0.1-0.4,0.1c-0.1,0-0.2-0.1-0.3-0.2
		c0.2,0,0.2-0.1,0.1-0.2c-0.9,0.8-1.4,1.2-1.5,1.4c-0.2,0.3-0.4,0.5-0.5,0.5c-0.2,0-0.3-0.1-0.4-0.4c-0.2-0.2-0.2-0.3-0.2-0.4
		c0-0.1,0-0.2,0.1-0.3s0.2-0.3,0.3-0.5s0.1-0.5,0.2-0.8C37,8.1,37,6.9,37,5.8c0-1.2,0-1.9-0.1-2.2c-0.1-0.2-0.1-0.4-0.2-0.5
		C36.6,3,36.6,3,36.6,3c0-0.1,0.1-0.2,0.2-0.2c0.4,0,0.8,0.1,1,0.2c0.1,0,0.2,0,0.3,0c0.2,0,0.6-0.2,1.1-0.4
		C39.1,2.5,39.2,2.4,39.3,2.4z M38,3.5v1.2c0.2-0.1,0.3-0.1,0.3-0.1h0.1C38.8,4.6,39,4.7,39,5c0,0.1-0.1,0.3-0.2,0.3
		c-0.2,0.1-0.5,0.1-0.8,0.2v1.1l0,0c0.3,0,0.5-0.1,0.6-0.1h0.1c0.1,0,0.1,0,0.2,0c0-0.3,0.1-0.7,0.2-1.2c0.1-0.9,0.2-1.4,0.2-1.5
		c0-0.2-0.1-0.3-0.3-0.3C38.4,3.4,38.1,3.5,38,3.5z M41.5,3.8c-0.1,0.9-0.1,1.8-0.1,2.8c0.1,0,0.3,0,0.5-0.1
		c0.2-0.7,0.2-1.5,0.2-2.3c0-0.2,0-0.3-0.1-0.5C41.9,3.7,41.7,3.8,41.5,3.8z"/>
	<path d="M57,1c0.1,0,0.2,0,0.4,0.1c0.3,0.2,0.4,0.3,0.4,0.5c0,0.1,0,0.2-0.1,0.3c0,0.1-0.1,0.2-0.2,0.2c-0.4,0.1-0.8,0.1-1.2,0.2
		c0.3,0.1,0.5,0.3,0.5,0.4l-0.1,0.1c-0.1,0.1-0.1,0.2-0.1,0.4c0,0.1,0,0.2-0.1,0.3c0.4-0.1,0.7-0.1,1-0.2c0.1,0,0.2,0,0.3,0
		c0.2,0,0.4,0.1,0.8,0.3c0.5,0.3,0.8,0.6,0.8,0.7c0,0.2-0.1,0.3-0.2,0.4c-0.3,0.2-0.7,0.8-1.2,1.7c-0.2,0.3-0.5,0.4-0.8,0.4
		s-0.5-0.1-0.5-0.3c-1,0-1.9,0.1-2.9,0.2l0,0c0.3,0.1,0.5,0.2,0.5,0.4c0,0.1,0,0.1,0,0.2c-0.1,0.2-0.2,0.4-0.3,0.6
		c0.6,0,1.1-0.1,1.6-0.2l0,0c0-0.1,0-0.3-0.1-0.4c0-0.1,0.1-0.2,0.2-0.2c0.2,0,0.5,0.1,0.8,0.2s0.4,0.3,0.6,0.4
		c0.9-0.1,1.6-0.2,2.2-0.3c0.1,0,0.2,0,0.2,0c0.3,0,0.6,0.1,0.9,0.3C60.9,7.8,61,8.1,61,8.3c0,0.3-0.1,0.5-0.3,0.5s-0.6,0-1.1-0.1
		c-0.3-0.1-0.6-0.1-0.8-0.1c-0.7,0-1.3,0-1.9,0c-0.3,0.6-0.6,1.2-1,1.6c0.5,0.1,0.9,0.3,1.1,0.4c0.6,0.3,1.2,0.7,1.6,1.2
		c0.2,0.3,0.4,0.6,0.4,0.8c0,0.3-0.2,0.5-0.5,0.5c-0.2,0-0.8-0.3-1.7-1c-0.4-0.4-1-0.7-1.7-1.1c-0.7,0.6-1.5,1.1-2.3,1.3
		c-0.7,0.2-1.4,0.4-2.1,0.4c-0.3,0-0.5-0.1-0.5-0.2c0.6-0.1,1.1-0.3,1.5-0.4c0.8-0.3,1.5-0.8,2.3-1.4c0.1-0.1,0.1-0.1,0.2-0.2
		c-0.7-0.3-1.3-0.5-1.9-0.6c-0.2,0-0.3-0.1-0.3-0.3c0-0.1,0.1-0.2,0.2-0.3c0.1-0.1,0.2-0.3,0.4-0.7c-0.7,0.1-1.4,0.2-2,0.3
		C50.4,9,50.1,9,49.9,9s-0.4-0.1-0.7-0.4c-0.2-0.3-0.3-0.4-0.3-0.5S48.9,8,49,8c0.7,0,2-0.1,3.9-0.2C52.9,7.6,53,7.3,53,7
		c0-0.1,0-0.1,0-0.2c-0.4,0-0.6,0.1-0.7,0.1C52.1,7,52,7.1,51.9,7.1c-0.2,0-0.3-0.1-0.5-0.2c-0.1-0.2-0.2-0.3-0.2-0.4
		c-0.1-0.2-0.3-0.6-0.3-1.1c-0.1-0.3-0.2-0.6-0.3-0.8c-0.1-0.2-0.2-0.3-0.4-0.4c0-0.2,0.1-0.3,0.2-0.3c0.2,0,0.5,0,0.9,0.1l0,0
		c0.5,0,1.1-0.1,1.7-0.2c0-0.4-0.1-0.6-0.1-0.7c-0.1-0.2-0.1-0.3-0.2-0.4c-0.1-0.1-0.1-0.1-0.1-0.2c-0.5,0-0.8-0.2-1-0.5
		c-0.1-0.2-0.2-0.3-0.2-0.4s0-0.1,0.1-0.1C53,1.7,54.1,1.6,55,1.4c0.7-0.1,1.2-0.2,1.7-0.4C56.8,1,56.9,1,57,1z M52.2,6.2
		c0.3,0,0.6,0,0.9-0.1c0-0.6-0.1-1-0.1-1.4c-0.4,0.1-0.7,0.1-1.1,0.2L52.2,6.2z M55.5,8.6c-0.7,0-1.3,0.1-1.8,0.1h-0.1
		c-0.1,0.2-0.3,0.4-0.4,0.6c0,0.1,0.1,0.2,0.3,0.2c0.5,0.1,1,0.2,1.4,0.4C55,9.6,55.2,9.3,55.4,9C55.4,8.9,55.5,8.8,55.5,8.6z
		 M55.3,3.7c0-0.2,0-0.4,0-0.5c0-0.2,0-0.5-0.1-0.8c-0.3,0-0.5,0.1-0.8,0.1s-0.5,0.1-0.7,0.1C54,2.8,54.2,2.9,54.2,3v0.2
		c0,0.1-0.1,0.4-0.1,0.7c0.3,0,0.7-0.1,1-0.1C55.2,3.7,55.3,3.7,55.3,3.7z M54.1,5.9c0.4,0,0.7-0.1,1-0.1c0-0.6,0.1-1,0.1-1.4
		c-0.1,0-0.1,0-0.2,0c-0.3,0-0.6,0.1-1,0.1C54.1,4.9,54.1,5.4,54.1,5.9z M56.2,5.6c0.2,0,0.3-0.1,0.4-0.1c0.2,0,0.4,0.1,0.5,0.3
		c0.1-0.2,0.2-0.5,0.3-0.8c0.1-0.2,0.1-0.4,0.1-0.6c0-0.1-0.1-0.2-0.2-0.2c-0.2,0-0.5,0-0.9,0c0,0.1-0.1,0.3-0.1,0.4
		C56.3,5,56.2,5.3,56.2,5.6z"/>
</g>
</svg>
