<?xml version="1.0" encoding="utf-8"?>
<!-- Generator: Adobe Illustrator 22.1.0, SVG Export Plug-In . SVG Version: 6.00 Build 0)  -->
<svg version="1.1" id="レイヤー_1" xmlns="http://www.w3.org/2000/svg" xmlns:xlink="http://www.w3.org/1999/xlink" x="0px"
	 y="0px" viewBox="0 0 15 88" style="enable-background:new 0 0 15 88;" xml:space="preserve">
<style type="text/css">
	.st0{display:none;fill:#FFFFFF;enable-background:new    ;}
	.st1{font-family:'DFKaiSho-Bd-WING-RKSJ-H';}
	.st2{font-size:15px;glyph-orientation-vertical:0;writing-mode:tb;}
	.st3{letter-spacing:3;}
	.st4{enable-background:new    ;}
	.st5{fill:#FFFFFF;}
</style>
<text transform="matrix(1 0 0 1 7 0.6187)" class="st0 st1 st2 st3">お問い合わせ</text>
<g class="st4">
	<path class="st5" d="M11.8,9c0,0.7-0.3,1.3-1,1.9c-0.6,0.6-1.3,0.9-2,0.9c-0.6,0-1.1-0.2-1.5-0.6C7,10.8,6.8,10.3,6.6,9.7
		c0.5,0.4,1.1,0.6,1.8,0.6c0.4,0,0.8-0.2,1.1-0.5c0.4-0.4,0.6-0.8,0.6-1.2c0-0.4-0.2-0.7-0.4-0.9c-0.3-0.1-0.6-0.2-1-0.2
		c-0.6,0-1.5,0.3-2.7,0.8C6.1,8.3,6,8.4,5.8,8.5v1.6c0,0.8-0.1,1.4-0.4,1.7c-0.2,0.4-0.5,0.5-0.7,0.6c-0.2,0-0.4-0.1-0.6-0.4
		c-0.4-0.6-1-1-1.7-1.2c-0.5-0.2-0.7-0.4-0.7-0.7c0-0.3,0.2-0.6,0.6-0.9c0.5-0.4,1.2-0.8,2.1-1.3c0-0.1,0-0.2,0-0.4
		c0-0.2,0-0.3,0-0.4c0-0.2,0-0.5,0-0.9c0-0.4,0-0.7,0-0.8C3.9,5.5,3.5,5.6,3.2,5.6c-0.4,0-0.7-0.1-0.9-0.4C2.1,5.1,2,5,2,4.9
		c0-0.1,0.1-0.2,0.4-0.2c0.5,0,1.2-0.3,1.9-0.6C4.2,2.6,4.1,1.7,3.9,1.6C3.8,1.4,3.7,1.2,3.7,1.2c0-0.2,0.2-0.2,0.6-0.2
		c0.3,0,0.6,0.1,1.1,0.3C5.9,1.5,6.1,1.7,6.2,2C6.1,2,6,2.2,6,2.4C5.9,2.6,5.8,2.8,5.8,3.1v0.3c0.5-0.2,0.9-0.4,1.1-0.4
		c0.1,0,0.3,0.1,0.5,0.2c0.1,0.1,0.2,0.2,0.2,0.4C7.5,4,6.9,4.4,5.8,4.8v2.4l0.1,0c1.2-0.5,2.3-0.8,3.3-0.8c0.7,0,1.3,0.3,1.9,0.8
		C11.5,7.7,11.8,8.3,11.8,9z M4.3,9.3C3.4,9.8,3,10.2,3,10.5c0,0,0,0,0.1,0c0.1,0,0.3,0.1,0.6,0.1c0.1,0,0.1,0,0.2,0.1
		C4.1,10.7,4.2,10.2,4.3,9.3z M11.5,3.3c0,0.2-0.2,0.4-0.5,0.4c-0.2,0-0.3,0-0.3,0c-0.1-0.1-0.2-0.1-0.3-0.1c-0.4,0-0.9,0.2-1.6,0.7
		c0.4-0.6,0.7-1,0.7-1.3C9.5,2.8,9.2,2.4,8.6,1.9c0.8,0,1.5,0.1,2,0.4C11.2,2.6,11.5,3,11.5,3.3z"/>
	<path class="st5" d="M1.8,18c0.3,0,0.6,0.1,1,0.3c0.1,0,0.2,0.1,0.2,0.1c0.2,0,0.3,0,0.4-0.1c0.3,0,0.7-0.2,1.3-0.4
		c0.2-0.1,0.3-0.1,0.4-0.1c0.1,0,0.3,0.1,0.8,0.3c0.4,0.2,0.6,0.5,0.6,0.6c0,0.1-0.1,0.2-0.2,0.3c-0.2,0.3-0.4,0.6-0.4,0.9
		c-0.2,1.5-0.4,2.3-0.5,2.5c-0.1,0.2-0.2,0.3-0.3,0.3c-0.2,0-0.3-0.1-0.5-0.2c0,0,0-0.1,0-0.1c-0.4,0-0.7,0.1-1.1,0.1
		c-0.2,0-0.4,0.1-0.5,0.1C3,25,3,26.9,2.9,28.4c0,0.2-0.1,0.4-0.3,0.6c-0.2,0.2-0.3,0.3-0.5,0.3c-0.2,0-0.4-0.2-0.6-0.6
		c-0.1-0.3-0.2-0.6-0.2-0.7l0-0.2c0.2-1,0.3-1.8,0.4-2.4c0.1-1.3,0.2-2.9,0.2-4.9c-0.1-1-0.2-1.6-0.3-1.9c0-0.1,0-0.1,0-0.2
		C1.5,18,1.6,18,1.8,18z M3.1,21.8c0.1,0,0.2,0,0.3-0.1c0.4-0.1,0.7-0.1,0.9-0.2c0.1,0,0.1,0,0.2,0c0.1,0,0.1,0,0.1,0
		c0-0.3,0.1-0.6,0.1-1c0.1-0.8,0.2-1.4,0.2-1.5c0-0.2-0.1-0.3-0.3-0.3C3.9,18.8,3.4,19,3.1,19c0,0.2,0,0.5,0,0.8v0.3
		C3.3,20.1,3.4,20,3.5,20c0.2-0.1,0.4-0.1,0.4-0.1c0.4,0,0.6,0.2,0.6,0.5c0,0.2-0.1,0.2-0.2,0.3c-0.2,0-0.5,0.1-0.8,0.1
		c-0.2,0-0.3,0.1-0.4,0.1C3.1,21.2,3.1,21.5,3.1,21.8z M4.2,23.5c0.2,0,0.5,0,0.8,0.1c0.2,0.1,0.4,0.2,0.5,0.2
		c0.3,0,0.5-0.1,0.8-0.1c0.5-0.1,0.9-0.2,1.3-0.4c0.2-0.1,0.4-0.2,0.6-0.2c0.1,0,0.4,0.1,0.9,0.3c0.5,0.3,0.8,0.5,0.8,0.7
		c0,0.1,0,0.1-0.1,0.2c-0.3,0.4-0.6,0.7-0.6,0.9C9.1,25.3,9,25.5,9,25.7l0,0c0.2,0.3,0.4,0.5,0.4,0.7c0,0.1-0.1,0.1-0.1,0.1
		c-0.8,0-1.5,0.1-2.3,0.2c-0.5,0.1-0.8,0.2-1,0.2c0,0.3-0.2,0.5-0.4,0.5c-0.2,0-0.3-0.1-0.4-0.2c-0.1-0.1-0.2-0.2-0.2-0.3
		c-0.1-0.3-0.2-0.8-0.3-1.5c-0.1-0.4-0.2-0.8-0.3-1c-0.1-0.2-0.2-0.4-0.3-0.5C4.1,23.5,4.1,23.5,4.2,23.5z M5.8,25.9
		c0.3,0,0.6-0.1,0.9-0.2c0.4-0.1,0.7-0.1,1-0.2c0.1-0.5,0.2-0.9,0.2-1.1c0-0.1-0.1-0.2-0.2-0.2c-0.1,0-0.4,0.1-0.8,0.2
		c-0.4,0.1-0.8,0.2-1.2,0.2L5.8,25.9z M7.8,17.2c0.2,0,0.4,0,0.7,0.1c0.2,0,0.3,0.1,0.4,0.1c0.5-0.1,1.1-0.2,1.6-0.4
		c0.2-0.1,0.4-0.1,0.6-0.2c0.1,0,0.1-0.1,0.1-0.1c0.1,0,0.4,0.1,0.9,0.2c0.5,0.3,0.8,0.5,0.8,0.7c0,0.1,0,0.1,0,0.2
		c-0.1,0.6-0.2,1.8-0.2,3.6c0,0.4,0,1.7,0.1,3.9c0,1.7,0,2.8,0,3.4c0,0.2-0.1,0.6-0.4,1c-0.3,0.4-0.6,0.6-0.8,0.6
		c-1.2-1.2-1.8-1.9-1.8-1.9c0-0.1,0-0.1,0.1-0.1c0.6,0.3,1,0.4,1.2,0.4c0.2,0,0.3-0.3,0.3-0.9c0.1-0.8,0.1-2.6,0.1-5.3
		c0-0.3,0-0.6,0-1c-0.5,0-1,0.1-1.4,0.2c-0.5,0.1-0.8,0.2-0.9,0.2C8.8,21.9,8.7,22,8.6,22c-0.1,0-0.2-0.1-0.5-0.4
		c-0.1-0.2-0.2-0.3-0.2-0.4L8,20.6c0-1.6-0.2-2.5-0.4-2.8c-0.1-0.1-0.1-0.2-0.1-0.3C7.5,17.3,7.6,17.2,7.8,17.2z M11.2,20.7
		c0-0.8-0.1-1.7-0.1-2.7c0-0.1-0.1-0.2-0.3-0.2c-0.1,0-0.4,0-0.6,0.1c-0.3,0.1-0.7,0.2-1.1,0.3l0,1.1c0.2-0.1,0.4-0.1,0.6-0.2
		C9.8,19,10,18.9,10,18.9c0.5,0,0.7,0.2,0.7,0.6c0,0.1-0.1,0.2-0.2,0.2c-0.2,0-0.4,0.1-0.7,0.1c-0.2,0-0.4,0.1-0.5,0.1
		c-0.1,0-0.1,0-0.2,0l0,1.1c0.2,0,0.4-0.1,0.6-0.1c0.5-0.1,0.8-0.2,1.1-0.2c0.1,0,0.1,0,0.2,0C11.1,20.7,11.2,20.7,11.2,20.7z"/>
	<path class="st5" d="M6.3,37.4c-0.2,1-0.3,1.8-0.3,2.2c0,0.2,0,0.4,0.1,0.6c0.1,0.2,0.1,0.3,0.1,0.4c0,0.4-0.3,0.6-0.8,0.7
		c-0.5,0-1-0.2-1.6-0.8c-0.5-0.4-0.8-1-1.1-1.7c-0.2-0.5-0.3-1.3-0.5-2.5c-0.1-0.9-0.2-1.4-0.3-1.6c-0.2-0.2-0.2-0.3-0.2-0.4
		C1.6,34.1,1.7,34,2,34c0.2,0,0.4,0.1,0.9,0.4c0.5,0.3,0.7,0.5,0.7,0.6c0,0,0,0.1,0,0.1l-0.1,0.1v0.6c0,1.4,0.2,2.4,0.6,3
		c0.2,0.3,0.4,0.5,0.5,0.5C4.7,39.3,5.3,38.7,6.3,37.4z M12.6,37.5c0,0.8-0.4,1.2-1.1,1.2c-0.3,0-0.5-0.3-0.6-0.9
		c-0.1-0.8-0.2-1.4-0.5-1.8c-0.2-0.5-0.7-1.1-1.3-1.8c1.1,0.3,1.8,0.6,2.2,0.8C12,35.6,12.5,36.4,12.6,37.5z"/>
	<path class="st5" d="M5.9,45.3c0.4,0,0.8,0.1,1.3,0.4c0.3,0.1,0.5,0.3,0.5,0.5c0,0.1,0,0.1-0.1,0.2c-0.1,0.1-0.2,0.3-0.3,0.5
		c0,0,0,0,0,0.1c0.2,0.2,0.5,0.4,0.7,0.7c0.8,1,1.5,1.8,2.3,2.4c0.8,0.7,2.1,1.5,3.9,2.3v0.1c0,0.1-0.1,0.1-0.3,0.1
		c-1,0.1-1.9,0.2-2.6,0.2c-0.3,0-0.5,0-0.6-0.1c-0.7-0.8-1.6-2.1-2.7-3.9c-0.2-0.3-0.5-0.7-0.8-1.1c0-0.1-0.1-0.1-0.1-0.2
		c-0.5,0.8-1.1,1.6-1.6,2.3c-0.7,0.9-1.5,1.7-2.4,2.3c-0.7,0.5-1.4,0.9-2,1.2c-0.3,0.1-0.4,0.2-0.5,0.2v-0.1c1-0.9,2-1.8,2.7-2.8
		c0.5-0.6,1-1.3,1.5-2.1c0.4-0.7,0.8-1.3,1-2c0.1-0.3,0.1-0.5,0.1-0.6c-0.1-0.2-0.1-0.3-0.1-0.5C5.7,45.4,5.7,45.3,5.9,45.3z
		 M2.8,53.9c0.3,0,0.6,0,1,0.1c0.1,0,0.2,0.1,0.3,0.1c0.8,0,1.6-0.1,2.2-0.2c0.6-0.1,1.2-0.2,1.7-0.4c0.2-0.1,0.4-0.1,0.5-0.1
		c0.3,0,0.7,0.2,1.2,0.5c0.7,0.4,1,0.7,1,0.9c0,0.1,0,0.1-0.1,0.2c-0.3,0.2-0.4,0.4-0.6,0.6c-0.3,0.3-0.4,0.8-0.6,1.4
		c0.3,0.4,0.4,0.6,0.4,0.7c0,0-0.1,0.1-0.2,0.1c-1.1,0-2.2,0.1-3.3,0.2c-0.6,0.1-1,0.1-1.3,0.1c0,0.4-0.2,0.7-0.5,0.7
		c-0.2,0-0.4-0.1-0.5-0.3c-0.1-0.2-0.2-0.3-0.2-0.4c-0.2-0.4-0.3-1-0.5-1.9c-0.1-0.6-0.3-1-0.4-1.3c-0.1-0.3-0.3-0.5-0.5-0.6
		C2.5,54.1,2.6,53.9,2.8,53.9z M8.1,50.9c0.1,0,0.3,0.1,0.5,0.2C8.9,51.3,9,51.5,9,51.6C9,51.8,9,51.9,9,52
		c-0.1,0.1-0.1,0.2-0.2,0.2c-0.7,0.2-1.5,0.3-2.3,0.4c-0.5,0.1-0.9,0.1-1.2,0.1c-0.6,0-1-0.2-1.2-0.6c-0.1-0.2-0.2-0.4-0.2-0.5
		c0,0,0-0.1,0.1-0.1c1.1-0.1,2-0.1,2.6-0.3C7,51.3,7.5,51.2,7.8,51C7.9,51,8,50.9,8.1,50.9z M5,57.2c0.4,0,0.9-0.1,1.4-0.1
		C7.1,57.1,7.6,57,8,56.9c0.1-0.2,0.1-0.5,0.2-0.8c0.1-0.4,0.1-0.7,0.1-0.9c0-0.4-0.1-0.5-0.3-0.5c-0.3,0-0.9,0.1-1.9,0.2
		C5.4,54.9,4.9,55,4.6,55L5,57.2z"/>
	<path class="st5" d="M12.7,68.9c0,1.2-0.4,2.1-1.3,2.8c-1,0.8-2.4,1.3-4.3,1.6c1.4-0.8,2.4-1.6,3-2.2c0.6-0.8,1-1.5,1-2.2
		c0-1.1-0.5-1.6-1.6-1.6c-0.8,0-1.8,0.4-3.2,1.1c-0.3,0.1-0.6,0.3-1,0.6v1.7v0.9c0,0.3,0.1,0.5,0.1,0.7c0,0.4-0.2,0.7-0.5,1.1
		c-0.3,0.3-0.5,0.5-0.6,0.5c-0.2,0-0.4-0.2-0.5-0.6c-0.2-0.6-0.6-1.2-1-1.8c0.6,0.3,1,0.4,1.1,0.5c0.1,0,0.1-0.1,0.1-0.3V70
		c-0.3,0.3-0.6,0.6-0.9,0.9c-0.5,0.4-0.8,0.7-0.9,0.7c-0.4,0-0.7-0.3-0.7-0.9c0-0.4,0.2-0.7,0.5-0.8c0.2-0.1,0.7-0.6,1.4-1.5
		C3.5,68.2,3.7,68,4,67.8V67c-0.1,0.1-0.2,0.2-0.3,0.2c-0.4,0.4-0.7,0.6-0.9,0.6c-0.3,0-0.5-0.1-0.8-0.2c-0.2-0.1-0.4-0.3-0.4-0.5
		c0-0.1,0.3-0.2,0.8-0.4C2.7,66.7,3.2,66.4,4,66v-0.9c0-0.6,0-1-0.1-1.2c-0.1-0.3-0.1-0.5-0.1-0.6c0-0.2,0.2-0.4,0.5-0.4
		c0.3,0,0.7,0.1,1.1,0.4c0.3,0.3,0.4,0.5,0.5,0.8c0,0-0.1,0.1-0.1,0.2c-0.1,0.1-0.1,0.2-0.1,0.3c0,0.1-0.1,0.3-0.1,0.8
		c0.2,0,0.4,0.1,0.6,0.2c0.2,0.2,0.4,0.4,0.4,0.5c0,0.2-0.3,0.6-1,1.4v0.2c0.7-0.4,1.5-0.8,2.2-1c1-0.3,1.7-0.5,2.3-0.5
		c0.9,0,1.7,0.2,2.1,0.7C12.5,67.5,12.7,68.2,12.7,68.9z"/>
	<path class="st5" d="M12.8,81.5c0,0.3-0.3,0.5-0.8,0.5c-0.7-0.1-1.1-0.1-1.2-0.1c-0.2,0-0.5,0-1,0c-0.1,0.8-0.2,1.4-0.4,1.9
		c-0.3,0.7-0.6,1.1-0.8,1.1c-0.2,0-0.8-0.7-1.6-2c0.5,0.2,0.8,0.4,1.1,0.4c0.1,0,0.2-0.4,0.3-1.1c0,0,0-0.1,0-0.1
		c-1.2,0.2-2.2,0.5-3,0.7c0.1,0.7,0.1,1.1,0.1,1.2c0.1,0.5,0.2,0.9,0.3,1.1c0.2,0.3,0.6,0.5,1.1,0.5c0.4,0,0.9,0,1.6-0.2
		c0.7-0.1,1.3-0.2,1.6-0.2c0.6,0,0.9,0.3,0.9,0.8c0,0.5-0.9,0.8-2.7,0.7c-1.7,0-2.8-0.3-3.4-1c-0.5-0.5-0.8-1.4-1-2.6
		c-0.6,0.2-1.1,0.4-1.4,0.4c-0.2,0-0.5-0.1-0.9-0.3c-0.4-0.2-0.6-0.5-0.6-0.7c0-0.1,0.3-0.2,0.9-0.3c0.5-0.1,1.2-0.2,1.9-0.4v-0.4
		c0-0.6,0-1.1,0-1.3c0.1-0.6,0.4-0.8,0.8-0.8c0.3,0,0.8,0.3,1.4,1c-0.4-0.2-0.6-0.3-0.7-0.3c-0.1,0-0.1,0.1-0.1,0.2
		c0,0.1,0,0.4,0,0.9v0.3c0.6-0.1,1.2-0.3,1.9-0.5L8.7,81c0.1-0.8,0.1-1.4,0.1-1.6c0-0.6,0-0.9-0.1-1.1c-0.1-0.2-0.2-0.3-0.2-0.4
		c0-0.3,0.1-0.4,0.3-0.4s0.5,0.1,1,0.3c0.3,0.2,0.5,0.3,0.5,0.5c0,0-0.1,0.2-0.2,0.3c0,0.1-0.1,0.5-0.1,1c0,0.6,0,1,0,1
		c0.8-0.1,1.3-0.2,1.4-0.2c0.3,0,0.6,0.1,0.9,0.3C12.6,81,12.8,81.2,12.8,81.5z"/>
</g>
</svg>
