<?xml version="1.0" encoding="utf-8"?>
<!-- Generator: Adobe Illustrator 23.0.1, SVG Export Plug-In . SVG Version: 6.00 Build 0)  -->
<svg version="1.1" id="レイヤー_1" xmlns="http://www.w3.org/2000/svg" xmlns:xlink="http://www.w3.org/1999/xlink" x="0px"
	 y="0px" viewBox="0 0 88 14" style="enable-background:new 0 0 88 14;" xml:space="preserve">
<style type="text/css">
	.st0{fill:#FFFFFF;}
</style>
<text transform="matrix(1 0 0 1 47.6465 38.1011)" style="display:none; font-family:'DFKaiSho-Bd-WING-RKSJ-H'; font-size:15px; letter-spacing:3;">お問い合わせ</text>
<g>
	<path class="st0" d="M10.08,9.23c0,0.69-0.32,1.34-0.95,1.93c-0.63,0.62-1.28,0.91-1.96,0.89c-0.58-0.01-1.07-0.21-1.48-0.59
		c-0.4-0.36-0.65-0.85-0.76-1.46c0.51,0.41,1.12,0.62,1.85,0.63c0.42,0.01,0.79-0.16,1.11-0.5c0.38-0.38,0.59-0.8,0.62-1.25
		C8.47,8.49,8.34,8.19,8.12,8C7.86,7.85,7.54,7.78,7.16,7.78c-0.61,0-1.49,0.25-2.65,0.76c-0.1,0.05-0.24,0.12-0.44,0.21v1.61
		c0,0.8-0.14,1.37-0.41,1.71c-0.24,0.35-0.47,0.54-0.67,0.57c-0.21,0-0.42-0.12-0.6-0.35c-0.41-0.56-0.97-0.96-1.67-1.22
		C0.24,10.89,0,10.65,0,10.37c0-0.25,0.19-0.55,0.56-0.89c0.48-0.41,1.17-0.84,2.07-1.3c0-0.06,0-0.19,0.01-0.38
		c0-0.19,0-0.33,0-0.44c0-0.22,0-0.53,0-0.91C2.63,6.04,2.62,5.76,2.62,5.63C2.15,5.76,1.78,5.83,1.49,5.84
		C1.14,5.82,0.83,5.7,0.56,5.49C0.34,5.39,0.23,5.27,0.23,5.14c0-0.11,0.12-0.17,0.37-0.18c0.55-0.05,1.2-0.25,1.95-0.62
		c-0.09-1.5-0.2-2.34-0.34-2.52c-0.13-0.19-0.19-0.32-0.19-0.4c0-0.17,0.19-0.25,0.56-0.25c0.27,0,0.63,0.11,1.05,0.34
		C4.14,1.76,4.4,2,4.42,2.26c-0.04,0.05-0.1,0.18-0.19,0.4c-0.11,0.2-0.16,0.44-0.16,0.73v0.31c0.53-0.24,0.89-0.37,1.1-0.37
		c0.1,0,0.26,0.06,0.48,0.19c0.13,0.1,0.19,0.22,0.19,0.38C5.73,4.28,5.14,4.68,4.07,5.11v2.4L4.13,7.5
		c1.2-0.52,2.29-0.78,3.27-0.78c0.69,0,1.32,0.26,1.89,0.78C9.81,7.95,10.08,8.53,10.08,9.23z M2.53,9.55
		c-0.85,0.55-1.27,0.94-1.27,1.19c0,0.01,0.04,0.02,0.13,0.03c0.07,0.01,0.25,0.05,0.56,0.13c0.06,0.02,0.14,0.04,0.23,0.07
		C2.34,10.96,2.46,10.49,2.53,9.55z M9.76,3.57c0,0.23-0.15,0.35-0.45,0.35c-0.18,0-0.29-0.01-0.34-0.04
		C8.88,3.79,8.77,3.75,8.66,3.75C8.26,3.75,7.73,4,7.09,4.5c0.43-0.59,0.67-1.01,0.73-1.27C7.76,3.04,7.45,2.69,6.88,2.17
		c0.81,0,1.47,0.14,1.99,0.42C9.46,2.92,9.76,3.24,9.76,3.57z"/>
	<path class="st0" d="M14.66,1.6c0.25,0,0.57,0.09,0.95,0.26c0.12,0.04,0.2,0.07,0.25,0.1c0.19-0.02,0.33-0.04,0.44-0.07
		c0.26-0.05,0.69-0.2,1.27-0.44c0.16-0.07,0.28-0.1,0.37-0.1c0.08,0,0.35,0.1,0.81,0.31C19.18,1.9,19.4,2.11,19.4,2.3
		c0,0.08-0.05,0.18-0.16,0.31c-0.22,0.29-0.36,0.59-0.4,0.89c-0.22,1.46-0.4,2.29-0.51,2.49c-0.1,0.19-0.19,0.28-0.28,0.28
		c-0.19,0-0.35-0.06-0.48-0.18c-0.01-0.05-0.02-0.08-0.03-0.1c-0.38,0.02-0.75,0.06-1.1,0.12c-0.22,0.04-0.4,0.06-0.53,0.07
		c-0.05,2.41-0.12,4.36-0.21,5.83c-0.03,0.19-0.12,0.38-0.28,0.57c-0.19,0.18-0.35,0.26-0.48,0.26c-0.24,0-0.44-0.21-0.6-0.62
		c-0.14-0.32-0.21-0.57-0.21-0.75l0.04-0.23c0.21-1.02,0.33-1.82,0.38-2.42c0.11-1.3,0.16-2.93,0.16-4.91
		c-0.06-1-0.17-1.64-0.34-1.93c-0.02-0.09-0.03-0.15-0.03-0.18C14.36,1.67,14.46,1.6,14.66,1.6z M15.92,5.46
		c0.11-0.02,0.21-0.04,0.31-0.06c0.39-0.06,0.7-0.13,0.94-0.21c0.07-0.03,0.13-0.04,0.18-0.04c0.06,0,0.11,0,0.15,0.01
		c0.03-0.25,0.07-0.6,0.12-1.03c0.11-0.85,0.16-1.35,0.16-1.51c0-0.22-0.1-0.34-0.31-0.34c-0.78,0.19-1.28,0.29-1.49,0.32
		c-0.01,0.22-0.01,0.51-0.01,0.85v0.29c0.14-0.06,0.26-0.11,0.37-0.16c0.22-0.09,0.37-0.13,0.44-0.13c0.43,0.02,0.64,0.19,0.64,0.51
		c0,0.16-0.08,0.24-0.25,0.26c-0.21,0.03-0.47,0.07-0.81,0.13c-0.16,0.04-0.29,0.06-0.41,0.06C15.93,4.79,15.92,5.13,15.92,5.46z
		 M17.07,7.09c0.21,0,0.48,0.04,0.81,0.12c0.22,0.08,0.38,0.16,0.45,0.25c0.28-0.04,0.55-0.08,0.79-0.13
		c0.47-0.06,0.91-0.21,1.32-0.44c0.24-0.13,0.43-0.19,0.56-0.19c0.14,0,0.43,0.1,0.89,0.29c0.54,0.31,0.81,0.54,0.81,0.69
		c0,0.08-0.02,0.14-0.07,0.19c-0.34,0.39-0.55,0.69-0.63,0.89c-0.1,0.21-0.17,0.41-0.21,0.57l0.03,0.03
		c0.23,0.31,0.35,0.53,0.35,0.66c-0.02,0.06-0.06,0.09-0.12,0.09c-0.76,0-1.52,0.07-2.27,0.21c-0.49,0.1-0.83,0.16-1.04,0.18
		c-0.05,0.32-0.18,0.48-0.38,0.48c-0.17,0-0.31-0.08-0.42-0.25c-0.11-0.14-0.16-0.25-0.16-0.34c-0.13-0.3-0.23-0.81-0.31-1.52
		c-0.07-0.44-0.16-0.78-0.26-1.03c-0.08-0.23-0.19-0.4-0.32-0.5C16.88,7.17,16.94,7.09,17.07,7.09z M18.65,9.58
		c0.25-0.03,0.56-0.08,0.92-0.16c0.4-0.06,0.73-0.13,1-0.22c0.12-0.51,0.18-0.88,0.18-1.11c0-0.11-0.08-0.16-0.23-0.16
		c-0.15,0-0.43,0.05-0.85,0.16c-0.45,0.14-0.83,0.21-1.16,0.22L18.65,9.58z M20.63,0.82c0.18,0,0.41,0.04,0.69,0.12
		c0.17,0.04,0.28,0.08,0.35,0.12c0.53-0.11,1.05-0.24,1.58-0.4c0.24-0.07,0.44-0.15,0.59-0.23c0.06-0.04,0.11-0.06,0.15-0.06
		c0.15,0,0.43,0.08,0.86,0.25c0.51,0.26,0.76,0.49,0.76,0.67c0,0.06-0.01,0.13-0.03,0.22c-0.13,0.62-0.19,1.81-0.19,3.59
		c0,0.37,0.02,1.66,0.06,3.85c0.03,1.69,0.04,2.83,0.04,3.43c0,0.22-0.15,0.55-0.44,0.98c-0.33,0.39-0.62,0.59-0.85,0.59
		c-1.21-1.23-1.82-1.88-1.82-1.93c0-0.08,0.02-0.12,0.06-0.12c0.61,0.28,1,0.42,1.17,0.42c0.19,0,0.3-0.29,0.34-0.88
		c0.09-0.84,0.14-2.61,0.15-5.3c0-0.31,0-0.65-0.01-1.01c-0.48,0.02-0.95,0.08-1.42,0.18c-0.53,0.11-0.84,0.16-0.94,0.16
		c-0.08,0.11-0.19,0.16-0.32,0.16c-0.1,0-0.25-0.14-0.45-0.42C20.81,5,20.74,4.87,20.74,4.82l0.07-0.59
		c-0.03-1.56-0.15-2.5-0.37-2.8c-0.07-0.15-0.1-0.25-0.1-0.31C20.35,0.92,20.44,0.82,20.63,0.82z M24.05,4.32
		c-0.02-0.78-0.06-1.67-0.13-2.67c0-0.13-0.1-0.19-0.31-0.19c-0.14,0-0.35,0.02-0.64,0.07c-0.34,0.06-0.71,0.15-1.1,0.28l0.01,1.13
		c0.21-0.07,0.41-0.15,0.57-0.23c0.2-0.09,0.33-0.13,0.41-0.13c0.5,0.03,0.75,0.24,0.75,0.64c0,0.12-0.08,0.18-0.23,0.19
		c-0.2,0.03-0.44,0.07-0.73,0.12c-0.21,0.04-0.39,0.06-0.54,0.06c-0.08,0-0.15,0-0.21-0.01l0.01,1.14c0.19-0.03,0.39-0.07,0.6-0.13
		c0.47-0.07,0.84-0.15,1.13-0.25c0.07-0.03,0.14-0.04,0.21-0.04C23.94,4.29,24,4.3,24.05,4.32z"/>
	<path class="st0" d="M34.48,7.5c-0.22,1.02-0.34,1.76-0.34,2.24c0,0.18,0.03,0.36,0.09,0.56c0.09,0.18,0.13,0.32,0.12,0.44
		c-0.01,0.42-0.27,0.64-0.79,0.66c-0.5,0.02-1.03-0.24-1.6-0.78c-0.48-0.44-0.85-1.01-1.11-1.71c-0.19-0.51-0.34-1.34-0.47-2.5
		c-0.09-0.86-0.2-1.38-0.32-1.57c-0.17-0.2-0.25-0.33-0.25-0.41c0-0.25,0.13-0.38,0.4-0.38c0.16,0,0.45,0.12,0.88,0.35
		c0.46,0.26,0.7,0.48,0.72,0.64c-0.01,0.05-0.02,0.09-0.03,0.12L31.7,5.3v0.64c0,1.37,0.21,2.36,0.62,2.97
		c0.22,0.32,0.4,0.48,0.51,0.48C32.93,9.4,33.48,8.77,34.48,7.5z M40.76,7.54c-0.03,0.79-0.4,1.19-1.1,1.19
		c-0.33-0.03-0.54-0.33-0.62-0.91c-0.1-0.77-0.25-1.36-0.45-1.77c-0.22-0.51-0.65-1.09-1.29-1.76c1.07,0.3,1.79,0.59,2.15,0.85
		C40.23,5.72,40.67,6.52,40.76,7.54z"/>
	<path class="st0" d="M50.08,0c0.36,0,0.8,0.12,1.3,0.37c0.34,0.12,0.51,0.27,0.51,0.45c0,0.08-0.03,0.14-0.1,0.18
		c-0.08,0.12-0.18,0.29-0.29,0.51c-0.02,0.03-0.03,0.05-0.04,0.06c0.23,0.16,0.46,0.38,0.67,0.66c0.78,1.01,1.54,1.82,2.29,2.45
		c0.78,0.7,2.07,1.47,3.87,2.3v0.12c0,0.07-0.1,0.11-0.31,0.13c-0.99,0.15-1.86,0.22-2.61,0.22c-0.31,0-0.52-0.04-0.62-0.13
		c-0.71-0.78-1.62-2.08-2.71-3.9c-0.2-0.31-0.46-0.67-0.79-1.08c-0.05-0.06-0.1-0.11-0.15-0.16c-0.51,0.82-1.05,1.58-1.64,2.29
		c-0.74,0.94-1.53,1.71-2.37,2.33c-0.68,0.53-1.35,0.93-2.01,1.2c-0.26,0.11-0.43,0.16-0.51,0.16V8.09
		c1.04-0.93,1.96-1.85,2.74-2.75c0.54-0.64,1.04-1.33,1.51-2.07c0.45-0.67,0.79-1.34,1.03-2.01c0.08-0.26,0.12-0.47,0.12-0.62
		c-0.07-0.17-0.1-0.34-0.1-0.53C49.86,0.04,49.93,0,50.08,0z M46.97,8.63c0.29,0,0.63,0.04,1.03,0.13c0.12,0.04,0.21,0.08,0.28,0.12
		c0.82-0.04,1.57-0.11,2.24-0.22c0.58-0.09,1.16-0.22,1.74-0.41c0.19-0.07,0.36-0.1,0.53-0.1c0.25,0,0.67,0.16,1.25,0.47
		c0.68,0.42,1.03,0.73,1.03,0.94c0,0.07-0.04,0.14-0.13,0.21c-0.25,0.17-0.44,0.38-0.57,0.63c-0.25,0.34-0.44,0.82-0.56,1.42
		c0.26,0.35,0.4,0.6,0.4,0.73c-0.03,0.04-0.08,0.06-0.16,0.06c-1.1,0-2.2,0.05-3.3,0.16c-0.58,0.06-1.01,0.1-1.3,0.13
		c-0.04,0.44-0.21,0.66-0.53,0.66c-0.2,0-0.38-0.1-0.54-0.29c-0.15-0.17-0.22-0.3-0.22-0.41c-0.18-0.38-0.33-1.02-0.45-1.92
		c-0.12-0.57-0.26-1.01-0.44-1.33c-0.14-0.28-0.3-0.49-0.5-0.63C46.75,8.74,46.82,8.63,46.97,8.63z M52.32,5.63
		c0.1,0,0.27,0.05,0.51,0.16c0.27,0.21,0.41,0.39,0.41,0.54c0,0.14-0.02,0.25-0.06,0.35c-0.06,0.13-0.13,0.21-0.22,0.23
		c-0.73,0.17-1.48,0.3-2.26,0.41c-0.54,0.08-0.94,0.12-1.22,0.12c-0.63,0-1.04-0.19-1.25-0.56c-0.14-0.22-0.21-0.39-0.21-0.5
		c0-0.04,0.03-0.06,0.1-0.06c1.11-0.06,1.98-0.15,2.61-0.26c0.5-0.11,0.93-0.23,1.29-0.37C52.14,5.65,52.23,5.63,52.32,5.63z
		 M49.24,11.92c0.39-0.02,0.86-0.06,1.41-0.13c0.62-0.06,1.13-0.13,1.55-0.21c0.07-0.21,0.13-0.49,0.18-0.83
		c0.07-0.37,0.1-0.67,0.1-0.89c0-0.36-0.09-0.54-0.28-0.54c-0.3,0-0.94,0.07-1.9,0.21c-0.67,0.1-1.18,0.17-1.52,0.21L49.24,11.92z"
		/>
	<path class="st0" d="M72.52,7.24c0,1.15-0.45,2.09-1.35,2.83c-0.98,0.8-2.4,1.32-4.26,1.57c1.45-0.81,2.44-1.55,2.99-2.23
		c0.64-0.75,0.97-1.47,0.98-2.17c0.01-1.07-0.51-1.61-1.57-1.61c-0.77,0-1.84,0.35-3.19,1.05c-0.3,0.14-0.64,0.33-1.01,0.59v1.7
		v0.92c0.04,0.25,0.06,0.5,0.06,0.73c0,0.35-0.16,0.7-0.47,1.05c-0.29,0.31-0.51,0.48-0.64,0.51c-0.2,0-0.37-0.21-0.53-0.63
		c-0.24-0.56-0.59-1.17-1.03-1.85c0.6,0.28,0.97,0.44,1.11,0.47c0.07-0.03,0.11-0.13,0.13-0.29V8.32c-0.31,0.3-0.62,0.61-0.92,0.92
		c-0.46,0.44-0.77,0.68-0.92,0.72c-0.44,0-0.66-0.31-0.66-0.92c0-0.42,0.17-0.68,0.5-0.79c0.19-0.07,0.66-0.58,1.44-1.52
		c0.15-0.17,0.34-0.39,0.57-0.66V5.29c-0.12,0.09-0.21,0.16-0.29,0.22c-0.43,0.38-0.72,0.58-0.86,0.6
		c-0.26-0.02-0.52-0.09-0.78-0.21c-0.24-0.14-0.37-0.29-0.37-0.47c0-0.12,0.25-0.24,0.76-0.38c0.3-0.07,0.82-0.33,1.54-0.79V3.4
		c0-0.56-0.03-0.97-0.1-1.23c-0.06-0.27-0.09-0.46-0.09-0.57c0-0.24,0.15-0.37,0.45-0.37c0.32,0,0.68,0.13,1.07,0.38
		c0.27,0.26,0.44,0.52,0.5,0.76c-0.01,0.02-0.05,0.08-0.13,0.19c-0.06,0.1-0.11,0.2-0.15,0.29c-0.03,0.08-0.07,0.34-0.12,0.79
		c0.2,0.03,0.39,0.11,0.59,0.23c0.23,0.2,0.36,0.38,0.38,0.54c0,0.17-0.34,0.63-1.03,1.39v0.25c0.74-0.42,1.47-0.75,2.18-1
		c0.97-0.31,1.74-0.47,2.31-0.47c0.95,0,1.66,0.25,2.14,0.75C72.26,5.83,72.52,6.46,72.52,7.24z"/>
	<path class="st0" d="M87.51,6.06c0.01,0.3-0.25,0.45-0.79,0.45c-0.67-0.08-1.07-0.12-1.19-0.12c-0.21,0-0.52,0.01-0.95,0.03
		c-0.1,0.81-0.22,1.43-0.38,1.86C83.9,9.03,83.63,9.4,83.37,9.4c-0.23-0.02-0.77-0.67-1.61-1.96c0.49,0.24,0.84,0.37,1.07,0.37
		c0.12-0.02,0.23-0.38,0.34-1.07c0-0.04,0-0.08,0.01-0.13c-1.16,0.21-2.16,0.46-2.99,0.75c0.06,0.65,0.1,1.06,0.12,1.23
		c0.08,0.55,0.18,0.92,0.31,1.13c0.23,0.32,0.61,0.49,1.11,0.51c0.38,0.03,0.92-0.03,1.63-0.18c0.71-0.12,1.25-0.18,1.61-0.18
		c0.63,0,0.93,0.28,0.91,0.85c-0.01,0.53-0.92,0.77-2.72,0.73c-1.66-0.01-2.8-0.34-3.41-0.98c-0.51-0.54-0.83-1.39-0.97-2.56
		c-0.61,0.24-1.06,0.38-1.38,0.41c-0.23,0-0.54-0.11-0.91-0.34c-0.37-0.23-0.56-0.46-0.56-0.67c0-0.1,0.3-0.19,0.91-0.28
		c0.54-0.06,1.16-0.18,1.88-0.35v-0.4c0-0.63,0.01-1.05,0.04-1.29c0.12-0.56,0.37-0.83,0.76-0.83c0.31,0,0.78,0.34,1.39,1.03
		C80.52,5,80.3,4.91,80.25,4.91c-0.06,0-0.09,0.07-0.1,0.22c-0.02,0.14-0.03,0.42-0.03,0.86v0.26c0.57-0.15,1.22-0.31,1.95-0.48
		l1.26-0.28c0.06-0.85,0.09-1.39,0.09-1.63c-0.01-0.56-0.05-0.94-0.12-1.14c-0.12-0.17-0.18-0.29-0.18-0.37
		c0-0.25,0.1-0.38,0.29-0.38s0.52,0.11,0.98,0.34c0.33,0.16,0.51,0.34,0.53,0.54c-0.01,0.05-0.07,0.15-0.18,0.31
		c-0.05,0.15-0.08,0.48-0.09,1.01c-0.01,0.63-0.02,0.97-0.04,1.04C85.4,5.07,85.88,5,86.06,5c0.32,0,0.63,0.1,0.91,0.31
		C87.31,5.51,87.5,5.76,87.51,6.06z"/>
</g>
</svg>
