<?xml version="1.0" encoding="utf-8"?>
<!-- Generator: Adobe Illustrator 22.1.0, SVG Export Plug-In . SVG Version: 6.00 Build 0)  -->
<svg version="1.1" id="レイヤー_1" xmlns="http://www.w3.org/2000/svg" xmlns:xlink="http://www.w3.org/1999/xlink" x="0px"
	 y="0px" viewBox="0 0 146 14" style="enable-background:new 0 0 146 14;" xml:space="preserve">
<style type="text/css">
	.st0{display:none;}
	.st1{font-family:'DFKaiSho-Bd-WING-RKSJ-H';}
	.st2{font-size:14px;}
	.st3{letter-spacing:2;}
</style>
<text transform="matrix(1 0 0 1 0.1279 11.9463)" class="st0 st1 st2 st3">© 2009 あすなろ報創</text>
<g>
	<path d="M11.3,6.9c0,1.5-0.5,2.7-1.5,3.7c-1,1-2.3,1.5-3.7,1.5c-1.5,0-2.7-0.5-3.7-1.5c-1-1-1.5-2.3-1.5-3.7c0-1.5,0.5-2.7,1.5-3.7
		c1-1,2.3-1.5,3.7-1.5c1.5,0,2.7,0.5,3.7,1.5C10.8,4.2,11.3,5.4,11.3,6.9z M10.9,6.9c0-1.3-0.5-2.5-1.4-3.5C8.5,2.5,7.3,2,6,2
		C4.6,2,3.5,2.5,2.5,3.4c-0.9,1-1.4,2.1-1.4,3.5c0,1.4,0.5,2.5,1.4,3.5c1,0.9,2.1,1.4,3.5,1.4c1.4,0,2.5-0.5,3.5-1.4
		C10.4,9.4,10.9,8.3,10.9,6.9z M8.9,8.4c-0.7,1.5-1.6,2.3-2.7,2.3c-0.9,0-1.7-0.4-2.3-1.2C3.3,8.8,3.1,8,3.1,7c0-1,0.2-1.9,0.7-2.6
		c0.6-0.9,1.3-1.3,2.3-1.3c0.3,0,0.7,0.1,1,0.2l0.4,0.2c0.1,0,0.3-0.1,0.6-0.2L8.6,5L8.2,5.2C7.9,4.7,7.6,4.3,7.4,4.1
		C7.1,3.8,6.7,3.7,6.2,3.7C5.5,3.7,5,4.1,4.7,4.9c-0.2,0.6-0.4,1.3-0.4,2c0,0.8,0.1,1.4,0.4,2c0.4,0.7,0.9,1,1.6,1
		c0.8,0,1.5-0.5,2-1.6L8.9,8.4z"/>
	<path d="M28.4,9.3l-0.2,2.5h-6.2c0.1-1.3,0.5-2.4,1.3-3.3c0.7-0.7,1.5-1.4,2.2-2.1c0.8-0.8,1.2-1.6,1.2-2.5c0-0.5-0.2-0.9-0.5-1.3
		c-0.3-0.4-0.8-0.5-1.2-0.5c-0.5,0-0.9,0.1-1.2,0.4c-0.4,0.3-0.6,0.7-0.6,1.1c0,0.2,0.2,0.3,0.5,0.5c0.3,0.2,0.5,0.4,0.5,0.6
		c0,0.2-0.1,0.4-0.3,0.6c-0.2,0.2-0.4,0.3-0.6,0.3c-0.8,0-1.2-0.5-1.2-1.6c0-0.8,0.3-1.5,0.8-2c0.5-0.5,1.2-0.7,2.1-0.7
		c0.9,0,1.7,0.2,2.3,0.6c0.7,0.5,1.1,1.1,1.1,2c0,0.7-0.2,1.3-0.7,1.8c-0.3,0.4-0.8,0.8-1.5,1.3c-0.9,0.6-1.4,1-1.6,1.2
		c-0.8,0.7-1.3,1.5-1.4,2.1h3.4c0.4,0,0.6-0.1,0.8-0.3c0.1-0.1,0.2-0.4,0.4-0.8H28.4z"/>
	<path d="M38.3,6.7c0,2.4-0.6,3.9-1.7,4.7C36.1,11.8,35.6,12,35,12c-0.6,0-1.2-0.2-1.7-0.5c-0.7-0.5-1.1-1.2-1.4-2.1
		c-0.2-0.6-0.2-1.5-0.2-2.6c0-1.5,0.2-2.6,0.5-3.3c0.6-1.4,1.5-2,2.9-2C37.2,1.3,38.3,3.1,38.3,6.7z M36.5,6.7
		c0-1.2-0.1-2.1-0.2-2.7c-0.2-1.3-0.7-1.9-1.4-1.9c-0.8,0-1.3,0.6-1.5,1.9c-0.1,0.6-0.2,1.5-0.2,2.7c0,1.2,0.1,2.1,0.2,2.7
		c0.2,1.2,0.7,1.8,1.5,1.8c0.7,0,1.1-0.6,1.4-1.9C36.5,8.7,36.5,7.8,36.5,6.7z"/>
	<path d="M48.3,6.7c0,2.4-0.6,3.9-1.7,4.7c-0.5,0.4-1.1,0.5-1.7,0.5c-0.6,0-1.2-0.2-1.7-0.5c-0.7-0.5-1.1-1.2-1.4-2.1
		c-0.2-0.6-0.2-1.5-0.2-2.6c0-1.5,0.2-2.6,0.5-3.3c0.6-1.4,1.5-2,2.9-2C47.1,1.3,48.3,3.1,48.3,6.7z M46.4,6.7
		c0-1.2-0.1-2.1-0.2-2.7c-0.2-1.3-0.7-1.9-1.4-1.9c-0.8,0-1.3,0.6-1.5,1.9c-0.1,0.6-0.2,1.5-0.2,2.7c0,1.2,0.1,2.1,0.2,2.7
		c0.2,1.2,0.7,1.8,1.5,1.8c0.7,0,1.1-0.6,1.4-1.9C46.4,8.7,46.4,7.8,46.4,6.7z"/>
	<path d="M57.8,5.8c0,1.2-0.1,2.3-0.3,3c-0.3,1.2-0.7,2-1.4,2.6c-0.5,0.4-1,0.5-1.6,0.5c-0.6,0-1.2-0.1-1.7-0.4
		c-0.6-0.3-0.8-0.8-0.8-1.4c0-0.8,0.3-1.1,1-1.1c0.2,0,0.4,0.1,0.5,0.2c0.2,0.2,0.2,0.3,0.2,0.6c0,0.1-0.1,0.2-0.2,0.4
		c-0.1,0.2-0.2,0.4-0.2,0.6c0,0.1,0.1,0.3,0.4,0.4c0.2,0.1,0.4,0.1,0.6,0.1c0.7,0,1.2-0.5,1.5-1.4c0.2-0.6,0.3-1.3,0.4-2.4
		c-0.6,0.4-1.3,0.6-1.8,0.6c-0.9,0-1.6-0.3-2.1-0.9c-0.4-0.5-0.7-1.2-0.7-2.1c0-1.1,0.2-1.9,0.7-2.5c0.5-0.7,1.3-1,2.4-1
		c1.1,0,2,0.5,2.5,1.5C57.6,3.6,57.8,4.6,57.8,5.8z M56.1,6.6V5.9c0-1-0.1-1.8-0.2-2.3c-0.2-1-0.7-1.5-1.3-1.5c-1,0-1.4,1-1.4,3
		c0,0.5,0.1,1,0.3,1.3c0.2,0.5,0.6,0.7,1.1,0.7C55.1,7.1,55.6,7,56.1,6.6z"/>
	<path d="M77.6,8.9c0,0.9-0.6,1.8-1.8,2.5c-1,0.7-2.2,1-3.5,1c1.3-0.6,2.3-1.2,2.8-1.8c0.5-0.6,0.8-1.2,0.8-1.7c0-0.6-0.2-1-0.5-1.4
		c-0.3-0.2-0.6-0.3-0.9-0.4c-0.3,1.1-1,2-2,2.9c0.1,0.2,0.3,0.4,0.5,0.5c0.1,0.2,0.2,0.3,0.2,0.4c0,0.4-0.3,0.6-0.7,0.6
		c-0.3,0-0.5-0.2-0.7-0.5c-0.1-0.1-0.2-0.2-0.2-0.3c-0.8,0.5-1.4,0.7-1.9,0.7c-0.9,0-1.4-0.5-1.4-1.5c0-0.6,0.3-1.2,0.8-1.8
		c0.3-0.3,0.8-0.7,1.3-1c0-0.5,0.1-1.2,0.2-2c-0.3,0-0.6-0.1-0.9-0.2c-0.4-0.2-0.6-0.4-0.6-0.6c0-0.2,0.2-0.3,0.7-0.3
		c0.3,0,0.7,0,1-0.1l0.4-1.8c0-0.2-0.1-0.5-0.2-0.6c-0.1-0.1-0.2-0.2-0.2-0.3c0-0.1,0.2-0.2,0.5-0.2c0.2,0,0.5,0.2,0.9,0.5
		c0.4,0.3,0.6,0.6,0.6,0.8c0,0.1-0.1,0.2-0.2,0.3c-0.1,0.1-0.2,0.4-0.4,0.9c0.1,0,0.2,0,0.4-0.1c1.1-0.3,1.7-0.4,1.8-0.4
		c0.2,0,0.4,0.1,0.7,0.2c0.2,0.2,0.4,0.3,0.4,0.5c0,0.2-0.7,0.5-1.9,0.8C72.9,4.9,72.4,5,72,5.1c-0.1,0.6-0.2,1.1-0.2,1.5
		c0.6-0.2,1.2-0.3,1.9-0.4c0-0.2,0-0.3,0-0.4c0-0.1,0-0.2,0-0.2c0-0.2,0.1-0.4,0.4-0.4c0.2,0,0.4,0.1,0.6,0.4
		c0.1,0.1,0.2,0.3,0.2,0.6c0.7,0.1,1.3,0.3,1.7,0.6C77.2,7.4,77.6,8.1,77.6,8.9z M71.1,10c-0.3-0.7-0.5-1.3-0.6-1.8
		c-0.8,0.6-1.3,1.2-1.3,1.7c0,0.4,0.2,0.6,0.6,0.6C70.1,10.6,70.6,10.4,71.1,10z M73.5,7.1c-0.6,0.1-1.2,0.2-1.7,0.4
		c0.1,0.6,0.2,1.2,0.4,1.6C72.8,8.6,73.2,7.9,73.5,7.1z"/>
	<path d="M91,4.8c0,0.2-0.3,0.3-0.7,0.3c-0.1,0-0.5,0-1-0.1c-0.3,0-0.7,0-1.2,0c-0.3,0-0.7,0-1,0c0,0.1,0,0.2,0,0.4
		c0,0.2,0,0.3,0,0.4c0,2.1-0.1,3.3-0.4,3.7c0,0.6-0.3,1.3-0.9,1.9c-0.5,0.6-1.3,1.1-2.5,1.4c0.7-0.5,1.3-1.1,1.7-1.8
		c0.3-0.5,0.4-0.9,0.4-1.1c0-0.3-0.4-0.6-1.2-0.9c-0.9-0.4-1.3-0.7-1.3-1c0-0.3,0.2-0.7,0.7-1.1c0.6-0.4,1.1-0.7,1.6-0.7
		c0.1,0,0.3,0,0.5,0.1V5.2h-0.1c-0.8,0.1-1.5,0.3-2.3,0.5c-1.3,0.4-2.1,0.6-2.3,0.6c-0.3,0-0.6-0.1-1-0.4c-0.4-0.3-0.6-0.5-0.6-0.7
		c0-0.1,0.3-0.2,1-0.2c0.3,0,1.7-0.2,4.1-0.6c0.4-0.1,0.7-0.1,1-0.2c0-1.3-0.1-2-0.2-2.2c-0.1-0.1-0.2-0.2-0.2-0.3
		c0-0.3,0.1-0.4,0.4-0.4c0.3,0,0.7,0.1,1.1,0.3c0.3,0.2,0.5,0.4,0.5,0.5c0,0.1-0.1,0.3-0.3,0.5c0,0.1-0.1,0.5-0.1,1.3
		c1.2-0.2,1.9-0.3,2.2-0.3c0.4,0,0.8,0.1,1.1,0.4C90.7,4.4,90.9,4.6,91,4.8z M85.6,8.2c0-0.5-0.1-0.8-0.2-1C85.4,7.1,85.2,7,85.1,7
		c-0.2,0-0.4,0.1-0.6,0.4C84.2,7.6,84,7.8,84,8c0,0.1,0.2,0.3,0.5,0.4c0.4,0.2,0.7,0.3,0.9,0.3C85.6,8.7,85.6,8.5,85.6,8.2z"/>
	<path d="M99.8,3.4c0,0.2-0.4,0.5-1.3,0.8c-0.3,0.1-0.7,0.3-1.3,0.5c-0.3,0.8-0.8,1.7-1.5,2.9c-0.6,1-1,1.5-1.2,1.5
		c-0.3,0-0.5-0.3-0.5-0.7c0-0.7,0.2-1.1,0.6-1.4c0.3-0.1,0.7-0.8,1.2-1.8c-0.1,0-0.1,0-0.2,0c-0.3,0-0.6-0.1-1-0.2
		c-0.4-0.2-0.7-0.4-0.7-0.6c0,0,0.3-0.1,1-0.2c0.8-0.1,1.2-0.2,1.4-0.3c0,0,0,0,0.1,0c0.4-0.9,0.5-1.7,0.5-2.4
		c0-0.2,0.1-0.4,0.2-0.4c0.2,0,0.5,0.1,0.9,0.4c0.3,0.2,0.5,0.5,0.5,0.7c0,0.2-0.1,0.3-0.3,0.5C98.1,2.8,98,3,97.9,3.2
		c0,0,0.1-0.1,0.1-0.1C98.3,3,98.7,2.9,99,2.9C99.5,2.9,99.8,3.1,99.8,3.4z M102.2,11.2c0,0.4-0.2,0.6-0.6,0.6
		c-0.2,0-0.4-0.1-0.6-0.3c-0.2-0.2-0.5-0.5-1-0.7c-0.1,0.5-0.3,0.9-0.5,1.2c-0.4,0.4-0.8,0.6-1.2,0.6c-0.6,0-1.2-0.2-1.8-0.7
		c-0.6-0.4-0.9-0.8-0.9-1.1c0-0.4,0.3-0.8,0.8-1.1c0.6-0.3,1.3-0.4,2.2-0.4h0v0c0-0.3-0.1-0.6-0.1-0.9c0-0.5,0.2-0.9,0.5-1.3
		c0.2-0.3,0.6-0.5,1.2-0.7c-0.4,0.5-0.5,1-0.5,1.3c0,0.5,0.1,1,0.2,1.4c0,0.1,0.1,0.2,0.1,0.4c0.4,0.1,0.7,0.3,1.1,0.4
		C101.8,10.2,102.2,10.6,102.2,11.2z M98.6,10.2c-0.1,0-0.2,0-0.1,0c-0.6,0-1.1,0.1-1.5,0.2c-0.3,0.1-0.4,0.2-0.4,0.3
		c0,0.1,0.2,0.3,0.5,0.4c0.3,0.2,0.6,0.3,0.9,0.3c0.1,0,0.3-0.1,0.4-0.4C98.5,10.8,98.6,10.6,98.6,10.2z M103.8,5.7
		c0,0.4-0.2,0.7-0.6,0.7c-0.2,0-0.4-0.1-0.5-0.2c-0.2,0-0.4-0.1-0.5-0.1c-0.3,0-0.9,0.1-1.8,0.2c0.8-0.6,1.2-0.9,1.2-1.1
		c0-0.1-0.4-0.4-1.2-0.9c1.1,0,2,0.2,2.7,0.5C103.5,5.1,103.8,5.4,103.8,5.7z"/>
	<path d="M114.4,8.4c0,0.6-0.2,1.2-0.7,1.7c-0.4,0.5-0.9,0.9-1.6,1.1c-0.8,0.3-1.9,0.6-3.4,0.8c1.2-0.5,2-0.9,2.5-1.2
		c1-0.7,1.5-1.6,1.6-2.6c0-0.3-0.2-0.6-0.4-0.9c-0.2-0.3-0.5-0.4-0.8-0.4c-1.7,0-3.1,0.7-4.1,2c-0.5,0.7-0.9,1-1,1.1
		c-0.2,0-0.4-0.1-0.5-0.4c-0.1-0.3-0.2-0.5-0.2-0.7c0-0.3,0.1-0.5,0.4-0.6c0.3-0.2,0.8-0.7,1.4-1.4c0.5-0.7,1.3-1.6,2.3-2.9
		c0.2-0.2,0.4-0.5,0.8-0.9l0-0.1c0-0.1-0.1-0.1-0.2-0.1c-0.1,0-0.4,0.1-0.7,0.4c-0.3,0.3-0.6,0.4-0.8,0.4c-0.2,0-0.5-0.1-0.8-0.3
		c-0.3-0.2-0.5-0.4-0.5-0.5c0-0.1,0.2-0.2,0.5-0.2c0.3,0,0.9-0.1,1.6-0.4c0.5-0.2,0.9-0.4,1.1-0.5c0.2-0.1,0.4-0.2,0.5-0.2
		c0.2,0,0.4,0.2,0.7,0.5c0.3,0.3,0.5,0.5,0.5,0.7c0,0.2-0.2,0.3-0.5,0.5c-0.3,0.2-0.7,0.6-1.3,1.3c-0.3,0.4-0.8,1.1-1.5,2
		c1-0.4,1.8-0.6,2.4-0.6c0.7,0,1.4,0.2,2,0.7C114.1,7.1,114.4,7.7,114.4,8.4z"/>
	<path d="M122.6,2.8c0.1,0,0.2,0,0.3,0.1c0.2,0.1,0.3,0.2,0.3,0.4c0,0.1,0,0.2,0,0.2c0,0.1-0.1,0.2-0.1,0.2
		c-0.4,0.1-0.7,0.2-1.1,0.3c0,0.3-0.1,0.7-0.1,1c0.3-0.1,0.5-0.1,0.8-0.2c0.2,0,0.3,0,0.4,0c0.4,0,0.6,0.3,0.6,0.7
		c0,0.1-0.2,0.2-0.5,0.2c-0.1,0-0.2,0-0.3,0c0.1,0.1,0.2,0.1,0.2,0.2c0,0,0,0.1-0.1,0.2c-0.1,0.2-0.2,0.3-0.3,0.4
		c-0.1,0.2-0.2,0.4-0.4,0.5c0.1,0,0.1,0,0.2,0c0.1,0,0.3,0,0.4,0c0.4,0,0.6,0.3,0.6,0.7c0,0.1-0.2,0.2-0.5,0.2
		c-0.4,0-0.8,0.1-1.2,0.2C122,8,122,8.1,122,8.1c0,0.1,0,0.2-0.1,0.4c0,0.1,0,0.2-0.1,0.2c0.1,0,0.3-0.1,0.4-0.1c0.1,0,0.2,0,0.3,0
		c0.4,0,0.6,0.3,0.6,0.7c0,0.1-0.1,0.2-0.4,0.2c-0.3,0-0.6,0.1-0.9,0.2v2.2c0,0.5-0.1,0.7-0.2,0.8c-0.2,0.2-0.3,0.3-0.5,0.3
		c-0.1,0-0.3-0.1-0.4-0.4c-0.1-0.2-0.2-0.6-0.2-1c0,0,0-0.1,0.1-0.2c0.1-0.2,0.1-0.3,0.1-0.3c0-0.4,0.1-0.7,0.1-1.1
		c-0.4,0.1-0.9,0.3-1.4,0.5l-0.2,0.1c-0.1,0-0.2-0.1-0.5-0.3c-0.3-0.2-0.4-0.5-0.4-0.7c0,0,0-0.1,0.1-0.1c0.4,0,0.7,0,1.1-0.1
		c0.3-0.1,0.8-0.2,1.3-0.3V8.9c0-0.3-0.1-0.6-0.2-0.8l0,0c-0.5,0.1-1.1,0.3-1.7,0.5l-0.2,0.1c-0.1,0-0.2-0.1-0.5-0.3
		c-0.3-0.2-0.4-0.5-0.4-0.7c0,0,0-0.1,0.1-0.1c0.4,0,0.9,0,1.3-0.1c0.6-0.1,1.4-0.3,2.5-0.5c0.1-0.2,0.1-0.5,0.2-0.7
		c0-0.2,0.1-0.4,0.1-0.5c0,0,0,0,0-0.1c-0.3,0-0.5,0.1-0.8,0.2c-0.3,0-0.5,0.1-0.8,0.2c0.2,0.1,0.3,0.1,0.4,0.2
		c0.1,0.1,0.2,0.3,0.2,0.5c0,0.1-0.1,0.2-0.2,0.3c-0.1,0.1-0.3,0.2-0.4,0.2c-0.1,0-0.1-0.1-0.2-0.2c-0.1-0.2-0.3-0.5-0.5-0.9
		c-0.3,0.1-0.6,0.2-0.9,0.3l-0.2,0.1c-0.1,0-0.2-0.1-0.5-0.3c-0.3-0.2-0.4-0.5-0.4-0.7c0,0,0-0.1,0.1-0.1c0.5,0,1,0,1.5-0.1
		c0.4-0.1,1-0.2,1.7-0.3c0-0.4,0-0.7,0-1c-0.3,0.1-0.5,0.1-0.7,0.1c-0.4,0-0.7-0.1-0.8-0.4c-0.1-0.2-0.2-0.3-0.2-0.3
		c0,0,0-0.1,0.1-0.1c0.7,0,1.2-0.1,1.7-0.2c0-0.3,0-0.5,0-0.7c0-0.5,0-0.8,0-0.9c-0.1-0.2-0.1-0.3-0.2-0.5c-0.1-0.1-0.1-0.2-0.1-0.3
		c0-0.2,0.1-0.3,0.2-0.3c0.3,0,0.7,0.1,1,0.2c0.5,0.2,0.7,0.3,0.7,0.5c0,0.1,0,0.1,0,0.2c-0.1,0.2-0.2,0.6-0.2,1.4
		c0.1,0,0.3-0.1,0.4-0.1C122.5,2.8,122.6,2.8,122.6,2.8z M124,2.3c0.2,0,0.5,0.1,0.8,0.2c0.1,0.1,0.2,0.1,0.3,0.1
		c0.3,0,0.7-0.1,1.1-0.2c0.3,0,0.6-0.1,1-0.3c0,0,0.1,0,0.2,0c0.1,0,0.3,0.1,0.7,0.4c0.4,0.2,0.6,0.4,0.6,0.6c0,0,0,0.1-0.1,0.1
		c-0.2,0.1-0.3,0.3-0.3,0.4c-0.1,0.7-0.2,1.2-0.4,1.6c-0.1,0.3-0.3,0.6-0.4,0.7c-0.1,0.1-0.2,0.2-0.4,0.3c-0.1,0.1-0.2,0.1-0.3,0.1
		c-0.1,0-0.2-0.1-0.3-0.2c-0.3-0.5-0.6-0.8-0.8-1.1c-0.1,0-0.1,0-0.1-0.1c0-0.1,0-0.1,0.1-0.1c0.5,0.1,0.8,0.2,0.9,0.2
		c0.1,0,0.2-0.1,0.3-0.3c0.1-0.2,0.2-0.4,0.2-0.8c0-0.2,0.1-0.3,0.1-0.4c0-0.2-0.1-0.3-0.3-0.3c-0.2,0-0.5,0-0.7,0
		c-0.3,0-0.6,0.1-1,0.2V4c0,1.1,0,2.1,0,3.1c0.3,0,0.7,0,1-0.1c0.4-0.1,0.9-0.2,1.3-0.3c0.1,0,0.2,0,0.2,0c0.2,0,0.4,0.1,0.8,0.2
		c0.4,0.3,0.6,0.5,0.6,0.7L129,7.7c-0.2,0.2-0.4,0.6-0.6,1c-0.1,0.4-0.3,0.8-0.5,1.1c-0.1,0.2-0.3,0.4-0.5,0.6
		c0.6,0.4,1.5,0.9,2.7,1.3c0,0.1-0.1,0.2-0.2,0.2c-1.1,0.2-1.8,0.3-1.9,0.3c-0.2,0-0.4-0.1-0.5-0.2c-0.3-0.3-0.5-0.7-0.8-1.1
		c-0.1,0.1-0.2,0.1-0.2,0.2c-0.3,0.2-0.6,0.3-0.9,0.4c-0.1,0-0.3,0.1-0.4,0.1c0,0.3,0,0.6,0,0.8c0,0.2-0.1,0.3-0.3,0.5
		c-0.2,0.1-0.3,0.2-0.4,0.2c-0.2,0-0.4-0.2-0.5-0.5c-0.1-0.3-0.2-0.5-0.2-0.6c0,0,0-0.1,0-0.2c0.1-1,0.2-1.8,0.2-2.4
		c0.1-1.3,0.1-2.9,0.1-4.9c-0.1-0.9-0.2-1.4-0.3-1.7c0-0.1,0-0.1,0-0.2C123.7,2.4,123.8,2.3,124,2.3z M125.1,11.2
		C125.2,11.1,125.2,11.1,125.1,11.2c0.4-0.2,0.6-0.4,0.9-0.6c0.1-0.1,0.2-0.2,0.3-0.3c-0.2-0.3-0.4-0.7-0.6-1
		c-0.2-0.3-0.4-0.5-0.5-0.7C125.2,9.6,125.1,10.4,125.1,11.2z M125.2,8.1L125.2,8.1c0.1,0,0.3,0,0.4,0.1c0.2,0.2,0.3,0.3,0.5,0.6
		c0.2,0.3,0.5,0.6,0.7,0.9c0.1-0.1,0.2-0.3,0.2-0.4c0.1-0.3,0.2-0.6,0.3-1.1c0-0.1,0.1-0.3,0.1-0.3c0-0.2-0.1-0.2-0.2-0.2
		c-0.5,0-0.9,0.1-1.3,0.1c-0.2,0-0.4,0-0.5,0c-0.1,0-0.2,0-0.3-0.1C125.2,7.8,125.2,7.9,125.2,8.1z"/>
	<path d="M136.6,0.8c0.3,0,0.7,0.1,1.1,0.3c0.3,0.1,0.5,0.2,0.5,0.4c0,0.1,0,0.1-0.1,0.1c-0.1,0.1-0.1,0.2-0.2,0.4l0,0
		c0.5,0.1,1,0.2,1.3,0.3c0.2,0.1,0.4,0.2,0.6,0.4c0.1,0.2,0.2,0.4,0.2,0.6c0,0.3-0.2,0.5-0.5,0.5c-0.4,0-0.7-0.1-0.8-0.2
		c-0.2-0.2-0.5-0.4-0.7-0.6c-0.2-0.2-0.4-0.3-0.5-0.5c-0.2,0.3-0.4,0.7-0.6,1c0.1,0,0.1,0,0.2,0c0.4,0.1,0.6,0.2,0.8,0.3
		c0.1,0.1,0.2,0.2,0.2,0.4c0,0.1-0.1,0.2-0.2,0.3c-0.1,0.1-0.3,0.2-0.4,0.2c-0.1,0-0.2,0-0.2-0.1c-0.2-0.1-0.4-0.4-0.6-0.8
		c-0.1,0.2-0.3,0.4-0.4,0.6c-0.3,0.4-0.5,0.7-0.8,0.9c0.1,0,0.3,0.1,0.5,0.1c0.2,0,0.3,0.1,0.4,0.1c0.4-0.1,0.8-0.2,1.2-0.3
		c0.4-0.1,0.8-0.2,1.1-0.3c0.1,0,0.1,0,0.2,0c0.1,0,0.3,0.1,0.6,0.2c0.4,0.3,0.6,0.5,0.6,0.6c0,0.2-0.1,0.4-0.2,0.5
		c-0.2,0.3-0.5,1-0.9,2.2c-0.2,0.2-0.4,0.3-0.6,0.3c-0.2,0-0.3,0-0.3-0.1c-0.4,0-0.8,0.1-1.2,0.1c-0.5,0.1-0.8,0.2-0.9,0.2
		c0,0-0.1,0-0.1,0c-0.1,0.3-0.1,0.5-0.2,0.7c0,0.1-0.1,0.2-0.1,0.2c0.1,0,0.2,0,0.3,0.1c0.1,0,0.2,0.1,0.3,0.1c0,0,0.1,0,0.1,0
		c0.7-0.2,1.2-0.3,1.6-0.3c0.2,0,0.4-0.1,0.6-0.2c0.1,0,0.1,0,0.1,0c0,0,0.3,0.1,0.8,0.4c0.5,0.3,0.7,0.5,0.7,0.6c0,0,0,0.1-0.1,0.2
		c-0.2,0.1-0.3,0.3-0.4,0.4c-0.1,0.2-0.2,0.4-0.3,0.6c0.2,0.2,0.3,0.4,0.3,0.5c0,0-0.1,0-0.1,0c-0.6,0-1.3,0-1.9,0.1
		c-0.4,0.1-0.6,0.1-0.8,0.1l0,0.2c0,0.4-0.2,0.5-0.4,0.5c-0.1,0-0.3-0.1-0.4-0.2c-0.1-0.1-0.2-0.2-0.2-0.3c-0.1-0.3-0.2-0.7-0.3-1.3
		c-0.1-0.4-0.2-0.7-0.3-0.8c-0.2,0.4-0.4,0.8-0.7,1.1c-0.4,0.5-0.9,0.9-1.6,1.3c-0.1,0-0.1,0.1-0.2,0.1v-0.1c0.4-0.4,0.7-0.9,1-1.4
		c0.5-0.8,0.8-1.7,1-2.6c0.2-0.8,0.3-1.7,0.3-2.5c0-0.2,0-0.3-0.1-0.4c-0.2,0.1-0.3,0.3-0.4,0.4c-0.5,0.4-0.9,0.7-1.4,1
		c-0.2,0.1-0.3,0.1-0.4,0.1V7.3c0.7-0.7,1.2-1.5,1.8-2.2c0.3-0.5,0.7-1,1-1.6c0.3-0.5,0.5-1.1,0.7-1.6c0.1-0.2,0.1-0.3,0.1-0.5
		c-0.1-0.2-0.1-0.3-0.1-0.4C136.4,0.9,136.4,0.8,136.6,0.8z M136.6,6.2c0,0.2,0,0.4-0.1,0.5c0.3-0.1,0.6-0.1,0.8-0.2
		c0.1,0,0.1,0,0.2,0c0.5,0,0.8,0.2,0.8,0.5c0,0.1,0,0.1-0.1,0.1c-0.4,0.1-0.7,0.2-1,0.2c-0.3,0.1-0.4,0.1-0.5,0.1
		c-0.1,0-0.2,0-0.2,0c0,0.3-0.1,0.6-0.2,0.8c0.2,0,0.4-0.1,0.7-0.1c0.4-0.1,0.7-0.2,1-0.2c0.1,0,0.1-0.1,0.2-0.1
		c0.1,0,0.2,0,0.3,0.1c0.1-0.3,0.1-0.7,0.2-1.2c0.1-0.3,0.1-0.5,0.1-0.8c0-0.1,0-0.2-0.1-0.2c-0.1,0-0.4,0-0.9,0.1
		C137.4,5.9,137,6,136.6,6.2z M136.8,11.6c0.2,0,0.5,0,0.8-0.1c0.3,0,0.6-0.1,0.8-0.1c0.1-0.1,0.1-0.3,0.1-0.4
		c0.1-0.2,0.1-0.4,0.1-0.6c0-0.2-0.1-0.3-0.3-0.3c-0.2,0-0.4,0-0.6,0.1c-0.3,0.1-0.7,0.2-1,0.3L136.8,11.6z M141.1,4.2
		c0.1,0,0.4,0,0.6,0.1c0.3,0.1,0.5,0.2,0.5,0.3v4c0,0.2,0,0.3-0.1,0.4c-0.1,0.2-0.2,0.2-0.4,0.2c-0.1,0-0.2-0.1-0.4-0.4
		c-0.1-0.2-0.2-0.3-0.2-0.4l0-0.5c0-1.8-0.1-2.9-0.3-3.2c-0.1-0.2-0.1-0.3-0.1-0.3C140.8,4.3,140.9,4.2,141.1,4.2z M143.3,1.3
		c0.4,0,0.8,0.1,1.3,0.3c0.4,0.1,0.6,0.3,0.6,0.5c0,0,0,0.1-0.1,0.2c-0.2,0.6-0.4,1.1-0.4,1.6c-0.1,0.7-0.1,1.4-0.1,2
		c0,2.2,0.1,4,0.3,5.6c0,0.5-0.2,0.9-0.5,1.4c-0.2,0.3-0.4,0.5-0.6,0.5c-0.3,0-0.5-0.1-0.6-0.3c-0.2-0.3-0.7-0.8-1.7-1.5
		c0-0.1,0.1-0.2,0.2-0.2c0.6,0.1,1,0.2,1.2,0.2c0.1,0,0.1-0.1,0.2-0.3c0.1-0.3,0.1-0.8,0.1-1.8c0.1-1.3,0.1-2.7,0.1-4.1
		c0-0.8,0-1.5-0.1-2.2c0-0.6-0.2-1.1-0.4-1.5c0-0.1,0-0.1,0-0.1C142.9,1.4,143.1,1.3,143.3,1.3z"/>
</g>
</svg>
