<?xml version="1.0" encoding="utf-8"?>
<!-- Generator: Adobe Illustrator 23.0.1, SVG Export Plug-In . SVG Version: 6.00 Build 0)  -->
<svg version="1.1" id="レイヤー_1" xmlns="http://www.w3.org/2000/svg" xmlns:xlink="http://www.w3.org/1999/xlink" x="0px"
	 y="0px" viewBox="0 0 59 394.8" style="enable-background:new 0 0 59 394.8;" xml:space="preserve">
<style type="text/css">
	.st0{display:none;fill:#1A1A1A;enable-background:new    ;}
	.st1{font-family:'DFKaiSho-Bd-WING-RKSJ-H';}
	.st2{font-size:62px;glyph-orientation-vertical:0;writing-mode:tb;}
	.st3{letter-spacing:7;}
	.st4{display:none;}
	.st5{display:inline;fill:#1A1A1A;}
</style>
<text transform="matrix(1 0 0 1 31 0)" class="st0 st1 st2 st3">新着情報</text>
<g class="st4">
	<path class="st5" d="M25.3,6.4c0.3,0,0.9,0.1,1.6,0.4c1,0.7,1.5,1.2,1.5,1.8c0,0.4-0.1,0.9-0.2,1.3c-0.2,0.4-0.4,0.7-0.7,0.9
		c-1.6,0.5-3.2,0.9-4.8,1.1c0.9,0.1,1.7,0.3,2.5,0.6c1.3,0.4,2,0.9,2,1.4c0,0.2-0.2,0.4-0.5,0.9c-0.6,0.8-1.1,1.4-1.5,1.9
		c-0.8,1.1-1.7,2.3-2.8,3.5c0.9-0.2,1.8-0.4,2.7-0.5c0.6-0.1,1.2-0.1,1.8-0.1c2,0.1,3,1.2,3,3.3c0,0.4-0.9,0.7-2.5,0.8
		c-2.4,0.1-5.1,0.5-8,1.1c1,0.6,1.6,1.2,1.6,1.8c0,0.2-0.1,0.3-0.2,0.5c-0.2,0.4-0.3,0.9-0.3,1.6c0.9-0.2,1.8-0.5,2.7-0.7
		c0.6-0.1,1.3-0.2,1.8-0.2c0.9,0,1.8,0.3,2.8,1c0.9,0.6,1.3,1.4,1.3,2.4s-0.2,1.5-0.7,1.5c-2.8,0-5.4,0.1-8,0.4
		c0,0.7,0.1,1.4,0.1,2.1c0.3,0,0.5,0,0.7,0.1c1.1,0.3,2.2,0.6,3.3,1c1.4,0.7,2.4,1.2,2.9,1.7c0.4,0.4,0.6,0.9,0.6,1.5
		c0,0.7-0.2,1.3-0.7,2.1c-0.4,0.6-1,0.9-1.7,0.9c-0.9,0-1.6-0.3-2-1c-0.3-0.3-0.8-1-1.4-1.9c-0.7-1.3-1.3-2.2-1.6-2.7
		c0.2,3,0.4,6.1,0.8,9.3c0,1.5-0.6,3.2-1.9,4.8c-1.1,1.5-2.1,2.2-2.9,2.2c-0.8,0-1.4-0.5-1.9-1.5c-0.7-1.2-2.4-3-5.1-5.4
		c0-0.4,0.2-0.7,0.7-0.7c1.6,0.6,2.9,0.9,3.6,0.9c0.5,0,0.9-0.7,1-2c0.2-2.1,0.3-5.5,0.3-9.9v-0.7c-1.4,0.2-2.8,0.5-4.3,1
		c-0.7,0.2-1.1,0.4-1.3,0.4c-0.7,0-1.5-0.5-2.4-1.4c-0.8-0.7-1.3-1.3-1.3-1.8c0-0.2,0.1-0.3,0.2-0.3c3.4-0.5,6.3-1,8.8-1.6
		c0-0.7-0.1-1.4-0.1-2.1c-0.1-0.9-0.2-1.6-0.2-2.1c-2.4,0.6-5.1,1.3-8.1,2.1l-1,0.3c-0.3,0-1.1-0.5-2.4-1.4c-1.3-1.2-2-2.4-2-3.5
		c0-0.2,0.2-0.2,0.5-0.2c2.2,0,4.5-0.2,6.8-0.5c2.7-0.3,6.5-1,11.3-1.9c0.6-1.5,1-2.9,1.3-4.3c0.2-1,0.2-1.7,0.2-2.2
		c0-0.3-0.3-0.9-0.9-1.8c-0.8,0.1-1.6,0.2-2.3,0.4c-2.4,0.4-4.1,0.7-5.3,0.7c-2.1,0-3.5-0.6-4.2-1.8c-0.4-0.8-0.7-1.3-0.7-1.6
		c0-0.2,0.1-0.2,0.2-0.2c4.4-0.6,8-1.1,10.6-1.7c2.1-0.6,3.9-1.2,5.4-1.8C24.5,6.5,24.9,6.4,25.3,6.4z M8.5,36.3
		c0.2,0,0.4,0.2,0.6,0.7c0.6,1.2,0.9,2.2,0.9,3c0,1.3-0.3,2.8-1,4.3c-0.4,1-0.9,1.9-1.4,2.4c-0.4,0.5-0.8,0.8-1.2,0.8
		c-1.2,0-2.1-0.4-2.8-1.3c-0.4-0.7-0.5-1.4-0.5-2.2c0-0.5,0.2-1,0.5-1.5c2.6-2.8,4-4.6,4.2-5.3C7.7,36.6,8,36.3,8.5,36.3z M10,14.6
		c0.4,0,1,0.1,1.7,0.2c1.5,0.4,2.7,0.9,3.6,1.5c0.6,0.5,1,1.3,1,2.2c0,0.6-0.3,1.2-0.9,1.7c-0.7,0.5-1.4,0.7-2.1,0.7
		c-0.3,0-0.6-0.2-0.9-0.6c-0.7-0.7-1.6-2.3-2.7-4.7c-0.2-0.2-0.2-0.4-0.2-0.5C9.6,14.7,9.7,14.6,10,14.6z M15.3,0
		c1,0,2.4,0.3,3.9,0.9c1.5,0.5,2.6,0.9,3.1,1.3C22.8,2.7,23,3.3,23,4c0,1.9-1.1,2.9-3.4,2.9c-0.8,0-1.7-0.9-2.9-2.7
		c-1.3-1.9-2-3.2-2-3.7C14.8,0.2,15,0,15.3,0z M44.3,3.7c0.8,0,2.5,0.6,5.3,1.7c2.1,1.1,3.2,2.1,3.2,2.8c0,0.4-0.3,0.8-0.8,0.9
		c-2,0.8-3.3,1.2-3.9,1.4c-0.9,0.2-2.2,0.6-3.7,1.2c-2.8,1.1-5,1.8-6.7,2.2l-0.1,0.2c-0.4,0.7-0.6,1.4-0.6,2.2
		c0,1.9-0.1,3.7-0.2,5.4c3.6-0.8,7.4-1.7,11.3-2.8c1-0.4,2-0.5,3-0.5c0.9,0,2,0.4,3.2,1.1s1.9,1.6,1.9,2.5s-0.5,1.3-1.5,1.4
		c-1.2,0.1-2.5,0.2-4.1,0.4c-1.1,0.1-2.3,0.3-3.6,0.4c1.7,0.6,2.6,1.1,2.6,1.6c0,0.4-0.1,0.9-0.2,1.4c-0.5,0.7-0.7,2.2-0.7,4.5
		c0,8.2-0.1,13.4-0.4,15.9c-0.2,2.5-0.6,4.5-1.3,6s-1.5,2.3-2.2,2.3s-1.1-0.8-1.3-2.5c-0.4-0.5-0.5-8.5-0.5-23.9
		c0-1.9-0.3-3.4-1-4.7c-1.3,0.2-2.7,0.3-4.1,0.4c-0.3,0.1-0.6,0.1-0.8,0.1c-0.1,0-0.2-0.1-0.4-0.1c-0.1,1.8-0.2,3.4-0.4,4.8
		c-0.4,3.8-1.1,6.7-2.1,8.9c-1.4,3-3.3,5.3-5.6,7c-1.5,1.1-2.6,1.7-3.1,1.7h-0.2c0.9-1.3,1.8-2.8,2.6-4.4c1.2-2.5,2-5.1,2.6-7.8
		c0.7-3,1-8.1,1-15.4c0-2-0.1-3.8-0.4-5.3c-0.1-1.1-0.6-2.1-1.5-3c-0.2-0.2-0.2-0.4-0.2-0.5c0-0.5,0.6-0.8,1.9-0.8
		c2,0,3.7,0.4,5.3,1.1c0.2,0.1,0.4,0.1,0.5,0.2c1-0.6,1.8-1.2,2.6-1.8C40.9,9,41.8,8,42.5,6.8c0.4-0.6,0.8-1.5,1.2-2.6
		C43.7,3.9,43.9,3.7,44.3,3.7z"/>
	<path class="st5" d="M39,77.7c0.4,0,1,0.1,1.8,0.4c0.9,0.7,1.4,1.2,1.4,1.8c0,0.4-0.1,0.9-0.2,1.3c-0.2,0.4-0.4,0.7-0.7,0.8
		c-3.3,0.8-6.6,1.4-10,1.9c0,1-0.1,1.9-0.1,2.7c1-0.2,2-0.4,2.9-0.6c1-0.2,1.7-0.3,2.2-0.3c2.5,0,3.8,1,3.8,2.9c0,0.4-0.3,0.7-1,0.8
		c-2.8,0.5-5.4,0.9-7.9,1.2c0,0.9-0.1,1.8-0.1,2.6c4.7-0.6,8.3-1.1,10.7-1.5c2.5-0.3,4.5-0.4,6-0.4c0.4,0,1.5,0.4,3.3,1.2
		c1.7,1.2,2.5,2.1,2.5,2.9c0,1.4-0.9,2.1-2.7,2.1c-0.4,0-1.1-0.1-2.2-0.2c-1-0.2-1.9-0.2-2.7-0.2c-5.3,0-10.4,0.1-15.5,0.4
		c-2.6,0.1-5.2,0.4-7.9,0.8c0.3,0.1,0.6,0.3,1,0.4c1.2,0.4,1.8,0.9,1.8,1.6c0,0.2-0.1,0.4-0.4,0.5c-0.2,0.3-0.5,0.7-0.9,1.3
		c-0.3,0.4-0.5,0.8-0.7,1.1c1.8-0.2,3.9-0.7,6.4-1.3c2-0.4,4.1-1.1,6.3-2.1c0.4-0.2,0.8-0.2,1.2-0.2c0.6,0,2,0.6,4.2,1.8
		c2.6,1.4,3.9,2.3,3.9,2.8c0,0.1-0.1,0.2-0.2,0.4c-1.3,2.3-1.9,4-1.9,5c0,2.3,0.2,5,0.7,8c0.2,2.7,0.2,4.4,0.2,5.2
		c0,1.1-0.6,2.2-1.8,3.3c-1.3,1.1-2.4,1.6-3.3,1.6c-0.1,0-0.3-0.4-0.5-1.3c-0.7-1.6-1.3-2.9-1.8-4c-2.3,0-4.7,0.2-7.1,0.4
		c-1.7,0.2-3,0.3-3.9,0.4v0.1c-0.1,0.7-0.5,1.5-1.1,2.2c-0.7,0.7-1.3,1-1.8,1c-1,0-1.8-0.8-2.3-2.3c-0.6-1.2-0.9-2.1-0.9-2.8
		l0.1-0.4c0.3-1.3,0.5-2.3,0.6-3.1c0.2-1.7,0.3-3.7,0.3-6.2c-0.1-1.8-0.3-3.2-0.5-4.4c-0.7,0.8-1.4,1.5-2,2.2
		c-2.2,2.4-4.5,4.3-7,5.9c-2.1,1.4-4.1,2.4-6,3c-0.8,0.4-1.3,0.5-1.5,0.5v-0.2c2.9-2.4,5.4-4.8,7.6-7.1c1.5-1.6,2.9-3.4,4.2-5.3
		c1.2-1.8,2.2-3.5,2.8-5.2c0.2-0.7,0.4-1.2,0.4-1.6c-0.1-0.2-0.2-0.5-0.3-0.7c-0.2,0-0.5,0.1-0.7,0.1c-2.1,0.4-4.7,1-7.8,1.8
		c-0.6,0.1-0.9,0.2-0.9,0.2c-0.5,0-1.4-0.7-2.7-1.9c-1.1-1.3-1.6-2.2-1.6-2.5s0.2-0.4,0.5-0.4c1.2-0.1,2.6-0.2,4.3-0.4
		c6.2-0.7,11.6-1.3,16.2-1.9c0-1.1,0.1-2,0.1-2.6c-2.6,0.3-4.3,0.4-5.1,0.4c-0.9,0-1.7-0.2-2.4-0.7c-0.5-0.5-0.8-1-0.8-1.4
		s0.2-0.7,0.5-0.7c2.7-0.3,5.2-0.7,7.7-1.1c-0.1-1.1-0.2-2-0.4-2.8c-2.6,0.4-4.5,0.5-5.9,0.5c-2.1,0-3.5-0.6-4.1-1.8
		c-0.5-0.8-0.7-1.3-0.7-1.6c0-0.2,0.1-0.2,0.2-0.2c6.4-0.3,11.4-0.8,15.1-1.6c2.9-0.7,5.4-1.3,7.6-2.1C38,77.8,38.5,77.7,39,77.7z
		 M18.4,72.8c0.6,0,1.3,0.1,2.1,0.2c1.9,0.4,3.3,0.9,4.3,1.5c0.8,0.5,1.1,1.3,1.1,2.3c0,0.7-0.3,1.3-1,1.9c-0.8,0.5-1.6,0.8-2.3,0.8
		c-0.4,0-0.8-0.2-1.1-0.7c-0.8-0.8-1.8-2.4-3.2-5c-0.2-0.3-0.2-0.5-0.2-0.6C18,73,18.2,72.8,18.4,72.8z M25.6,119.9
		c1-0.1,2.2-0.3,3.5-0.4c2.5-0.2,4.6-0.5,6.1-0.9c0.4-0.2,0.8-0.2,1.1-0.2c0.4,0,0.8,0.1,1.2,0.3c0.1-1.4,0.1-3.4,0.1-6.2
		c0-2.5-0.1-4.5-0.3-6.1c-0.2-0.8-0.5-1.3-1.1-1.5c-0.3-0.2-0.9-0.2-1.8-0.2c-0.2,0-0.5,0-0.9,0.1c-3.2,0.4-5.9,0.8-7.9,1.4
		c0,0.7-0.1,1.5-0.1,2.5c1.9-0.3,3.6-0.7,5.2-1.1c0.4-0.1,0.8-0.2,1-0.2c2.3,0,3.4,0.8,3.4,2.4c0,0.3-0.2,0.5-0.6,0.5
		c-2.3,0.5-4.5,0.8-6.6,1.1c-1.1,0.2-2,0.3-2.5,0.3v2.6c2-0.3,3.9-0.7,5.6-1.2c0.5-0.1,0.9-0.2,1.1-0.2c2.3,0,3.5,0.8,3.5,2.4
		c0,0.3-0.2,0.5-0.6,0.5c-2.3,0.5-4.5,0.8-6.6,1.1c-1.5,0.2-2.5,0.3-2.9,0.3C25.6,118.1,25.6,119,25.6,119.9z M34.2,70.2
		c0.8,0,2.3,0.3,4.2,1c2,1.1,3,2,3,2.6c0,0.2-0.3,0.5-0.9,0.7c-0.8,0.2-1.6,0.6-2.5,1.2c-3.7,2.1-6.6,3.4-8.7,4
		c-0.2,0-0.2-0.1-0.2-0.2c0.8-0.8,1.4-1.5,1.8-2.1c0.7-1,1.3-2,1.9-3.2c0.4-0.6,0.5-1,0.5-1.3c0-0.2,0-0.4-0.1-0.6
		c-0.2-0.5-0.2-0.8-0.2-1C33,70.5,33.4,70.2,34.2,70.2z"/>
	<path class="st5" d="M5.8,161.8c0.2,0,0.5,0.3,0.7,0.8c0.7,1.5,1.1,2.7,1.1,3.5c0,2-0.3,4-1,6.2c-0.4,1.5-0.8,2.7-1.4,3.5
		c-0.4,0.7-0.8,1-1.2,1c-1.4,0-2.5-0.5-3.3-1.4c-0.5-0.8-0.7-1.7-0.7-2.5c0-0.7,0.2-1.4,0.5-2.2c2.7-4,4.2-6.5,4.4-7.7
		C5,162.2,5.3,161.8,5.8,161.8z M9,144.5c1.9,0,3.8,0.5,5.8,1.5c1.9,0.8,2.8,1.7,2.8,2.7c0,0.4-0.1,0.9-0.4,1.3
		c-0.3,2.2-0.6,4.4-0.7,6.4c1.5,0.5,2.8,1,3.9,1.6c0.6,0.3,1.1,0.8,1.5,1.6c0.4,0.9,0.7,1.8,0.8,2.7c0,1.3-0.6,1.9-1.8,1.9
		c-1.7,0-2.8-0.3-3.1-1c-0.4-0.7-0.9-1.6-1.2-2.5c-0.1-0.3-0.2-0.6-0.4-1c-0.3,3.6-0.4,7-0.4,10V192c0,1.1-0.5,2.2-1.4,3.4
		c-0.6,1.3-1.3,1.9-2.2,1.9c-1.1,0-2-0.9-2.7-2.6c-0.6-1.1-1-2.3-1-3.9c0.6-2.8,1.2-5.7,1.6-8.7c0.6-2.7,0.9-6.8,0.9-12.4
		c0-11.7-0.2-18.3-0.6-20c-0.4-1.5-1.1-3-2.1-4.5C8.2,144.8,8.5,144.5,9,144.5z M45.3,146.1c0.4,0,1,0.2,1.8,0.5
		c1,0.7,1.6,1.4,1.6,1.9c0,0.4-0.1,0.9-0.2,1.3c-0.2,0.4-0.4,0.7-0.8,0.9c-2.9,0.8-5.8,1.4-8.9,1.9c-0.1,0.9-0.2,1.9-0.2,2.9
		c0.5-0.1,1-0.2,1.6-0.4c0.8-0.2,1.3-0.2,1.8-0.2c3,0,4.4,1,4.4,3.1c0,0.4-0.3,0.6-0.9,0.7c-2.5,0.5-4.9,0.9-7.1,1.2
		c0,1.2-0.1,2.5-0.2,3.8c5.1-0.8,9.2-1.5,12.2-2.2c0.4,0,0.7-0.1,0.8-0.1c1,0,2.2,0.4,3.6,1.1c1.3,1,1.9,2,1.9,3c0,1.3-0.5,2-1.5,2
		c-0.8,0-2.4-0.1-4.5-0.4c-1.3-0.2-2.5-0.4-3.5-0.4c-5.5,0-9.9,0.2-13.3,0.7c-2.9,0.3-5.8,0.9-8.5,1.8c-0.6,0.3-1.3,0.4-1.9,0.4
		c-0.9,0-1.8-0.5-2.9-1.5c-0.8-1-1.2-1.6-1.2-1.9c0-0.3,0.2-0.5,0.5-0.5c2.1,0,6.4-0.4,12.9-1.3c0-1.4,0.1-2.7,0.2-3.9
		c-1.6,0.2-2.6,0.3-3.1,0.3c-1,0-1.8-0.3-2.5-0.9c-0.6-0.6-0.9-1.2-0.9-1.8c0-0.2,0.2-0.4,0.5-0.5c2.2-0.3,4.3-0.6,6.2-1
		c0-1.1,0.1-2.2,0.1-3.1c-1.5,0.2-2.7,0.4-3.6,0.4c-2.3,0-3.8-0.6-4.5-1.8c-0.6-0.8-0.9-1.3-0.9-1.6s0.2-0.5,0.5-0.5
		c3.2-0.2,6.1-0.4,8.5-0.7c0-1.2,0-2-0.1-2.4c-0.3-1-0.6-1.7-1-2.2c-0.4-0.6-0.6-1-0.6-1.4c0-0.8,0.3-1.2,1-1.2c1.5,0,3,0.4,4.4,1.1
		c2.1,0.7,3.1,1.4,3.1,2.1c0,0.3-0.1,0.7-0.1,1.1c-0.2,0.4-0.3,1-0.5,1.8c1.8-0.5,3.3-1,4.7-1.5C44.4,146.2,44.9,146.1,45.3,146.1z
		 M26.6,170.3c1.4,0,2.4,0.1,3.1,0.4c0.6,0,1.1,0.2,1.3,0.4c2.6-0.5,5.1-1,7.4-1.6c1.1-0.3,2.1-0.7,2.8-1.1c0.2-0.2,0.4-0.2,0.6-0.2
		c0.7,0,1.9,0.4,3.7,1.1c2.1,1.1,3.2,2,3.2,2.9c0,0.1-0.1,0.3-0.2,0.4c-0.6,1.3-0.8,3.8-0.8,7.6c0,0.6,0.1,2.8,0.4,6.5
		c0.2,2.9,0.4,4.8,0.4,5.8c0,0.9-0.6,2.3-1.9,4.1c-1.4,1.6-2.6,2.4-3.5,2.4c-4.6-4.5-6.8-6.8-6.8-7c0-0.3,0.1-0.5,0.2-0.5
		c2.1,0.5,3.5,0.7,4.2,0.7c0.6,0,1-0.4,1.2-1.3c0.3-1.4,0.5-4.2,0.5-8.5c0-2.1-0.2-5.1-0.7-8.8c0-0.4-0.4-0.7-1.2-0.7
		s-1.9,0.1-3.3,0.2c-1.8,0.3-3.8,0.8-6,1.5c0,0.7-0.1,1.4-0.1,2.1v0.7c1.7-0.4,3.3-0.8,4.8-1.3c0.4-0.1,0.7-0.2,0.8-0.2
		c2.6,0,3.9,1,3.9,2.9c0,0.2-0.2,0.4-0.5,0.4c-1.9,0.4-3.8,0.8-5.5,1c-1.3,0.2-2.2,0.4-2.6,0.4c-0.4,0-0.8-0.1-1.1-0.2
		c0,1.2,0,2.3-0.1,3.3c1.7-0.2,3.3-0.5,4.8-0.8c0.4-0.1,0.7-0.1,0.8-0.1c2.6,0,3.9,1,3.9,2.9c0,0.2-0.2,0.2-0.5,0.2
		c-1.9,0.3-3.8,0.5-5.5,0.7c-1.4,0.2-2.3,0.2-2.7,0.2c-0.4,0-0.7,0-1-0.1c0,0.1,0,0.1,0,0.2c-0.4,3.3-0.8,5.7-1.4,7.2
		c-0.6,1.2-1.3,1.8-2.1,1.8c-0.9,0-1.6-0.5-2.1-1.6c-0.4-0.9-0.7-1.9-0.7-3c0-0.3,0.1-0.7,0.2-1.1c0.8-2.2,1.4-4.4,1.6-6.7
		c0.2-1.9,0.4-4.5,0.4-7.9c0-0.9-0.1-1.6-0.2-2.4c-0.3-1.1-0.5-1.7-0.5-2C25.9,170.5,26.2,170.3,26.6,170.3z"/>
	<path class="st5" d="M24,223.2c0.3,0,0.8,0.1,1.5,0.4c0.8,0.6,1.1,1.1,1.1,1.6c0,0.4-0.1,0.8-0.2,1.1c-0.1,0.4-0.3,0.7-0.5,0.8
		c-1.6,0.5-3.2,1-4.8,1.3c-0.1,1.4-0.2,2.9-0.3,4.5c1.2-0.3,2.4-0.6,3.6-0.9c0.7-0.1,1.3-0.2,1.8-0.2c1.8,0.1,2.7,1.2,2.7,3.1
		c0,0.5-0.8,0.8-2.4,0.9c-0.4,0-0.9,0.1-1.2,0.1c0.5,0.2,0.7,0.5,0.7,0.7s-0.1,0.4-0.4,0.8c-0.5,0.8-1,1.3-1.3,1.7
		c-0.4,0.8-1,1.6-1.6,2.2c0.2-0.1,0.5-0.1,0.7-0.2C24,241,24.5,241,25,241c1.8,0.1,2.7,1.1,2.7,3.1c0,0.4-0.7,0.7-2.2,0.8
		c-1.7,0.1-3.5,0.4-5.5,0.8c0.9,0.6,1.3,1,1.3,1.1c0,0.5-0.1,1-0.4,1.6c-0.1,0.3-0.2,0.7-0.2,1.1c0.6-0.2,1.1-0.4,1.8-0.5
		c0.5-0.1,0.9-0.1,1.3-0.1c1.8,0.1,2.7,1.1,2.7,3.1c0,0.5-0.6,0.8-1.8,0.9c-1.3,0.1-2.6,0.3-4,0.7v9.9c0,2.1-0.3,3.3-1,3.8
		c-0.7,0.9-1.4,1.3-2.1,1.3c-0.6,0-1.3-0.5-1.9-1.6c-0.6-1-1-2.5-1-4.5c0-0.2,0.1-0.5,0.3-1c0.3-0.8,0.5-1.3,0.5-1.5
		c0.2-1.6,0.3-3.3,0.3-5c-1.8,0.6-3.8,1.4-6.2,2.4l-0.8,0.3c-0.3,0-1-0.4-2.2-1.3c-1.3-1.1-1.9-2.1-1.9-3.1c0-0.2,0.2-0.2,0.5-0.2
		c1.6,0,3.2-0.2,4.9-0.5c1.5-0.3,3.4-0.8,5.7-1.4v-0.5c0-1.5-0.2-2.7-0.7-3.4l-0.1-0.2c-2.3,0.6-4.8,1.4-7.7,2.4l-0.9,0.2
		c-0.3,0-1-0.4-2.2-1.3c-1.3-1.1-1.9-2.1-1.9-3.1c0-0.2,0.1-0.2,0.4-0.2c1.9,0,3.9-0.2,5.9-0.5c2.6-0.4,6.2-1.2,11-2.3
		c0.3-1.1,0.6-2.1,0.8-3.1c0.2-0.9,0.3-1.6,0.3-2.1c0-0.1,0-0.2-0.1-0.4c-1.2,0.2-2.4,0.4-3.5,0.7c-1.1,0.2-2.4,0.5-3.8,0.9
		c0.7,0.3,1.2,0.6,1.6,1c0.6,0.5,0.9,1.3,0.9,2.4c0,0.5-0.3,1-0.8,1.4c-0.6,0.5-1.3,0.7-1.9,0.7c-0.2,0-0.5-0.2-0.8-0.7
		c-0.5-0.7-1.2-2-2.1-4c-1.3,0.4-2.7,0.8-4.1,1.2l-1,0.4c-0.3,0-1.1-0.4-2.3-1.3c-1.3-1.1-1.9-2.1-1.9-3c0-0.2,0.2-0.2,0.5-0.2
		c2.1,0,4.3-0.2,6.5-0.5c1.9-0.3,4.4-0.7,7.4-1.3c0-1.6,0.1-3.1,0.1-4.4c-1.3,0.2-2.4,0.4-3.1,0.4c-1.9,0-3.2-0.5-3.8-1.6
		c-0.3-1.3-0.5-1.8-0.5-2s0.1-0.2,0.2-0.2c2.9-0.2,5.4-0.5,7.4-0.8c0-1.3,0.1-2.3,0.1-3.2c0-2.1-0.1-3.5-0.2-4.2
		c-0.2-0.8-0.5-1.5-0.9-2s-0.5-0.9-0.5-1.1c0-0.9,0.3-1.3,1-1.3c1.5,0,2.9,0.4,4.4,1.1c2.1,0.7,3.1,1.4,3.1,2.1c0,0.3-0.1,0.6-0.1,1
		c-0.4,0.9-0.8,2.9-1.1,6c0.6-0.2,1.1-0.4,1.6-0.6C23.3,223.3,23.6,223.2,24,223.2z M30.1,221.2c1,0,2.2,0.4,3.6,1.1
		c0.7,0.2,1.1,0.4,1.3,0.6c1.4-0.2,3.1-0.4,5-0.8c1.2-0.2,2.7-0.6,4.4-1.3c0.2,0,0.4-0.1,0.7-0.1s1.3,0.5,3,1.6s2.6,1.9,2.6,2.5
		c0,0.1-0.1,0.3-0.4,0.5c-0.8,0.6-1.2,1.2-1.3,1.6c-0.4,3-1,5.3-1.6,6.9c-0.5,1.5-1.1,2.5-1.8,3c-0.4,0.4-1,0.8-1.8,1.2
		c-0.7,0.3-1.1,0.4-1.3,0.4c-0.5,0-0.9-0.3-1.2-0.8c-1.3-2.1-2.5-3.7-3.8-4.7c-0.3-0.1-0.4-0.2-0.4-0.3c0-0.4,0.1-0.5,0.3-0.5
		c2.3,0.5,3.7,0.8,4.1,0.8c0.5,0,1-0.4,1.4-1.3c0.4-0.8,0.8-1.9,1-3.3c0.2-0.7,0.2-1.4,0.2-1.9c0-0.9-0.5-1.4-1.4-1.4
		c-1.1,0-2.2,0-3.2,0.1c-1.2,0.2-2.7,0.5-4.5,0.9v2.6c0,4.9-0.1,9.5-0.1,13.7c1.5,0,3-0.2,4.5-0.4c1.9-0.2,3.8-0.7,5.9-1.3
		c0.4-0.1,0.7-0.1,1-0.1c0.7,0,1.8,0.3,3.3,1c1.8,1.1,2.7,2.1,2.7,3L52,245c-1,1.1-1.9,2.5-2.7,4.3c-0.7,1.8-1.4,3.4-2.2,4.7
		c-0.5,0.7-1.2,1.6-2.1,2.5c2.7,2,6.7,3.9,11.8,5.8c0,0.5-0.4,0.9-1.1,1c-4.9,1-7.8,1.5-8.6,1.5c-1,0-1.7-0.3-2-0.8
		c-1.2-1.5-2.3-3.1-3.5-4.8c-0.4,0.2-0.7,0.5-1.1,0.7c-1.5,0.7-2.8,1.3-4.1,1.7c-0.7,0.2-1.2,0.3-1.8,0.4c0,1.4-0.1,2.6-0.1,3.7
		c-0.2,0.7-0.5,1.5-1.2,2.2c-0.7,0.6-1.3,0.9-1.8,0.9c-0.9,0-1.7-0.8-2.2-2.2c-0.6-1.2-0.9-2.1-0.9-2.8c0,0,0.1-0.4,0.1-1.1
		c0.5-4.5,0.9-8.1,1-10.7c0.3-5.7,0.4-12.9,0.4-21.6c-0.2-3.8-0.7-6.3-1.4-7.3c-0.1-0.3-0.1-0.6-0.1-0.7
		C28.8,221.5,29.2,221.2,30.1,221.2z M35,260.4c0.2-0.1,0.3-0.2,0.4-0.2c1.2-0.6,2.3-1.4,3.4-2.2c0.5-0.5,1-1,1.5-1.5
		c-1-1.4-1.9-2.9-2.8-4.4c-0.8-1.2-1.5-2.2-2.4-2.9C35.1,253.3,35,257.1,35,260.4z M35.1,246.7L35.1,246.7c0.6,0,1.2,0.1,1.8,0.4
		c0.8,0.7,1.5,1.5,2.1,2.5c0.9,1.4,2,2.8,3.3,4.2c0.4-0.6,0.7-1.1,1-1.6c0.5-1.2,1-2.8,1.5-5c0.2-0.6,0.3-1.1,0.3-1.5
		c0-0.7-0.2-1-0.7-1c-2.2,0.2-4.1,0.4-5.9,0.6c-1,0.1-1.7,0.1-2.1,0.1c-0.4,0-0.8-0.1-1.2-0.4C35.1,245.6,35.1,246.1,35.1,246.7z"/>
</g>
<g class="st4">
	<path class="st5" d="M28.6,0c0.9,0,1.8,0.3,2.8,1c0.8,0.6,1.3,1.4,1.3,2.4c0,0.9-0.2,1.4-0.7,1.4c-2.1,0-4,0.1-5.9,0.2
		c0.4,0.3,0.6,0.5,0.6,0.6c0,0.4-0.1,0.9-0.4,1.5C26.1,7.8,26,8.5,26,9.2v37.4c0,2-0.3,3.3-1,3.7c-0.7,0.9-1.4,1.4-2.1,1.4
		c-0.6,0-1.3-0.5-1.9-1.6c-0.6-1-1-2.5-1-4.5c0-0.6,0.1-1.6,0.3-3.2c0.3-2.2,0.5-3.7,0.5-4.5c0-1.8,0.1-3.6,0.2-5.5
		c-1.8,1.1-4,2.3-6.7,3.7c-2.3,1.2-4.9,2.7-7.9,4.6c-0.4,0.4-0.7,0.5-1,0.5c-0.7,0-1.7-0.9-3.2-2.7c-1.2-1.7-1.8-3-1.8-3.7
		c0-0.4,0.2-0.7,0.7-0.7c1-0.1,2-0.2,2.8-0.4c1.3-0.2,2.9-0.6,4.6-1L8.2,17c0-2.7-0.2-5.2-0.5-7.5c0-0.8-0.3-1.6-0.8-2.4H6.7
		c-1,0.3-1.6,0.4-1.9,0.4C4.1,7.5,3.3,7,2.4,6.1C1.6,5.4,1.1,4.8,1.1,4.3c0-0.2,0.1-0.2,0.2-0.2c5.1-0.6,9.6-1.2,13.4-1.8
		C18.4,1.7,22.1,1,26,0.2C26.9,0.1,27.8,0,28.6,0z M20.9,29.5c0.1-6.3,0.2-13.1,0.2-20.4c0-1.5-0.3-2.6-0.8-3.3
		c-0.1-0.2-0.2-0.4-0.2-0.5c-1.9,0.2-3.7,0.3-5.5,0.5C13.7,5.9,12.8,6,12,6.1c1.5,0.7,2.2,1.3,2.2,1.9c0,0.2,0,0.4-0.1,0.7
		c-0.1,0.7-0.2,1.9-0.3,3.8c1.5-0.3,2.4-0.5,2.8-0.6c0.1,0,0.3-0.1,0.5-0.1c2,0,3,0.6,3,1.8c0,0.7-0.3,1.3-1,1.7
		c-1.3,0.2-3,0.4-5.1,0.7h-0.2l-0.1,5.3c1.5-0.3,2.5-0.5,3-0.7h0.5c2,0,3,0.5,3,1.6c0,0.8-0.3,1.4-1,1.8c-1.3,0.2-3,0.4-5.1,0.6
		c-0.1,0-0.2,0.1-0.3,0.1l-0.1,6.8c1.9-0.5,3.9-1,6.1-1.6C20.1,29.7,20.6,29.6,20.9,29.5z M44.3,7.8c0.8,0,2.1,0.4,4,1.2
		c2.2,1.4,3.3,2.6,3.3,3.6l-0.4,0.8c-1.4,1.6-2.5,3.8-3.4,6.5C46.9,22.7,46,25.1,45,27c-0.5,1-1.3,2.1-2.2,3.1
		c3.6,2.5,8.5,5,14.6,7.3c0,0.6-0.4,1-1.2,1.2c-5.3,1-8.3,1.5-9.2,1.5c-1.5,0-2.4-0.3-2.9-1c-1.5-1.7-2.9-3.6-4.4-5.6
		c-1,0.9-2,1.8-3.1,2.5c-1.8,1.1-3.5,1.9-5.2,2.5c-1.5,0.6-2.9,0.8-4,0.8c-0.5,0-0.7-0.2-0.7-0.7c0-0.2,0.2-0.3,0.7-0.4
		c0.8-0.5,1.6-1,2.5-1.6c1.6-1,3.1-2.2,4.5-3.6c1-1,1.9-2.1,2.6-3.3c-1.4-2-2.8-4-4.3-6.2c-1.3-2-2.7-3.5-4.3-4.7
		c-0.7-0.1-1-0.7-1-1.7c0-0.3,0.6-0.5,1.9-0.5c0.8,0,1.5,0.2,2.3,0.7c1,0.9,1.9,2,2.7,3.4c1.2,1.9,2.7,3.9,4.6,5.9
		c0.5-1,1-1.9,1.3-2.7c0.7-1.8,1.3-4.4,2-7.8c0.2-1.1,0.4-1.9,0.4-2.5c0-0.9-0.2-1.3-0.7-1.3c-2.8,0.7-5.2,1.5-7.4,2.4
		c-1.1,0.4-1.9,0.6-2.5,0.6c-0.9,0-1.7-0.5-2.7-1.5c-0.8-0.8-1.1-1.4-1.1-1.9c0-0.2,0.2-0.2,0.5-0.2c2.5,0,5-0.3,7.4-1
		c2.3-0.6,4.6-1.6,7-2.8C43.5,7.8,44,7.8,44.3,7.8z"/>
	<path class="st5" d="M20.3,83.6c0.4,0,1,0.2,1.8,0.5c1,0.7,1.5,1.3,1.5,1.9c0,0.5-0.1,0.9-0.2,1.3c-0.2,0.4-0.4,0.7-0.7,0.8
		c-1.7,0.5-3.4,1-5.1,1.4V96c0.8-0.3,1.5-0.7,2.4-1c1.6-0.8,2.6-1.2,3-1.2c0.8,0,1.1,0.4,1.1,1.3c0,0.2-0.2,0.4-0.7,0.8
		c-1.4,1.1-3.3,2.4-5.8,4.1v15.3c0,1.7-0.5,3.4-1.6,5c-0.8,1.1-1.5,1.7-2.1,1.7c-1,0-1.7-0.4-2.1-1.2c-0.6-1.1-2.6-3.1-6.2-6.1
		c0-0.5,0.2-0.7,0.7-0.7c2.2,0.8,3.7,1.3,4.4,1.3c0.5,0,0.8-0.4,0.9-1.3c0.4-1.2,0.6-3.8,0.8-7.9c0-0.9,0.1-1.8,0.1-2.7
		c-2,1.4-4.4,3.1-7,5c-0.4,0.4-0.8,0.6-1,0.6c-0.6,0-1.5-0.8-2.8-2.4c-1-1.6-1.5-2.7-1.5-3.3c0-0.5,0.2-0.7,0.7-0.7
		c1-0.1,2-0.4,2.9-0.8c2.4-0.8,5.4-1.9,9.1-3.5c0.1-2.5,0.2-5,0.2-7.5c-1.8,0.4-3.2,0.6-4.2,0.6c-2.3,0-3.8-0.6-4.5-1.8
		c-0.6-0.8-0.8-1.3-0.8-1.6c0-0.3,0.2-0.4,0.5-0.4c3.7-0.3,6.7-0.7,9-1.3c0-3.1-0.1-5.8-0.3-8.1c-0.1-2.5-0.5-4.7-1.3-6.5
		c-0.1-0.2-0.2-0.4-0.2-0.6c0-0.5,0.4-0.8,1.3-0.8c1.3,0,2.8,0.4,4.7,1.3c1.5,0.4,2.2,1.1,2.2,1.9c0,0.2-0.1,0.4-0.2,0.7
		c-0.8,2.4-1.3,4.7-1.4,6.7c-0.1,1.3-0.1,2.6-0.2,3.8c0.5-0.2,1-0.4,1.5-0.7C19.6,83.7,19.9,83.6,20.3,83.6z M44.1,76.1
		c0.7,0,1.8,0.4,3.6,1.1c2.3,1.4,3.5,2.5,3.5,3.3c0,0.4-0.4,0.9-1.1,1.3c-2.5,2.7-5,5.9-7.5,9.6c-0.4,0.6-0.7,1-0.7,1.3
		c0,0.4,0.1,0.7,0.2,0.7c2.9-0.8,4.5-1.2,4.8-1.2c0.5,0,1.4,0.3,2.6,1c1.7,1.2,2.5,2,2.5,2.6c0,0.4-0.2,0.7-0.5,1
		c-1.3,1.7-2.1,2.8-2.2,3.3c-0.8,2.9-1.6,5.3-2.5,7c-1,1.8-2.1,3.3-3.3,4.6c2.8,2.8,7.4,5.7,13.9,8.9v0.5c0,0.2-0.4,0.4-1.3,0.5
		c-4.1,0.6-7.7,0.9-10.8,0.9c-1,0-1.7-0.2-2-0.5c-1.3-1.6-2.7-3.7-4.2-6.2c-0.5,0.4-1.1,0.7-1.6,1c-2.1,1.2-4.6,2.1-7.5,2.8
		c-2.1,0.6-4.3,0.8-6.5,0.8c-0.8,0-1.1-0.2-1.1-0.5c0.1-0.1,0.6-0.3,1.4-0.5c4.7-1.5,8.6-3.3,11.6-5.4c0.7-0.5,1.2-1.1,1.8-1.6
		c-0.9-1.7-1.8-3.4-2.8-5.3c-0.7-1.2-1.5-2.6-2.7-4.1c-0.2-0.4-0.5-0.7-0.7-1c-0.2,0.7-0.5,1.3-0.7,1.8c-1.7,3.9-3.6,7-5.8,9.3
		c-1.3,1.3-2.6,2.4-3.8,3.2l-1.8,0.7c-0.2,0-0.2-0.1-0.2-0.2c2-2.4,3.4-4.4,4.2-5.9c1.3-2.5,2.6-5.6,3.8-9.4c1.1-3.3,2-6.9,2.6-10.8
		c0.4-1.9,0.5-3.7,0.5-5.3v-0.3c-0.3,0-0.6,0.1-1,0.1c-0.9,0-2-0.4-3.4-1.3c-0.8-0.6-1.2-1.3-1.2-2.1c0-0.5,0.3-0.8,0.8-0.8
		c2.1-0.4,6-1,12-2.2c1.9-0.4,3.8-1.2,5.7-2.4C43,76.2,43.5,76.1,44.1,76.1z M32,99.1c0.1,0.1,0.2,0.1,0.4,0.2c1,0.6,2,1.6,3,3
		c1.7,2.3,3.4,4.4,5,6.2c0.4-0.6,0.8-1.3,1.2-1.9c0.9-2.4,1.4-5.3,1.6-8.5C43,97,42.3,96.5,41,96.3c-2.1-0.3-3.3-1.3-3.7-2.9
		c0.1,0,0.2-0.2,0.2-0.6c1.6-2.7,2.9-6.3,3.9-10.7v-0.2c-1.8,0.4-4,0.9-6.7,1.7c1.3,0.6,1.9,1.2,1.9,1.7c0,0.3-0.1,0.6-0.4,0.9
		c-0.4,0.8-0.8,1.5-0.9,2C34.1,92.5,33,96.2,32,99.1z"/>
	<path class="st5" d="M9.1,144.2c1.1,0,2.5,0.4,4.2,1.3c1.9,0.7,2.9,1.4,2.9,2.2c0,0.4-0.1,0.7-0.3,1c-0.5,0.8-0.8,1.8-1,3.1
		c-0.8,3.8-1.4,7.3-2.1,10.3c1-0.2,1.9-0.5,2.9-0.9c0.3-0.2,0.6-0.3,0.9-0.4c-0.1-0.9-0.3-1.7-0.7-2.5c0-0.5,0.3-0.8,1-0.8
		c1.3,0,2.5,0.3,3.6,0.9c2.3,0.9,3.5,1.7,3.5,2.3c0,0.3-0.1,0.6-0.3,0.9c-0.6,0.9-1,1.8-1.1,2.5c-1.3,5.6-2.6,9.7-3.8,12.4
		c-0.3,0.6-0.6,1.3-0.9,1.9c0.9,0.7,1.6,1.4,2.2,2c1.5,1.6,2.3,2.9,2.3,3.9c0,1.9-0.7,2.9-2.1,2.9c-1.7,0-2.9-0.7-3.7-2
		c-0.6-0.8-1.2-1.6-1.8-2.3c-0.5,0.6-1.1,1.2-1.6,1.7c-2.3,2.1-4.6,3.6-7,4.5c-1.3,0.5-2.4,0.7-3.2,0.7c-0.3,0-0.5-0.1-0.5-0.2
		c1.4-1.1,2.7-2.1,3.9-3.1c2.5-2.4,4.3-4.6,5.5-6.7c-1.8-1.9-3.6-3.5-5.3-4.7c-0.4-0.3-0.5-0.6-0.5-1c0-0.3,0.1-0.6,0.2-1
		c0.3-1.3,0.6-2.9,0.8-4.7c-0.8,0.4-1.4,0.9-2.1,1.3c-0.2,0.1-0.4,0.2-0.6,0.2c-0.6,0-1.6-0.9-3-2.7c-1-1.2-1.4-2.1-1.4-2.9
		c0-0.3,0.1-0.4,0.4-0.4s0.8,0.1,1.5,0.4c0.4,0,1.7-0.2,3.8-0.6c0.7-0.1,1.3-0.2,1.9-0.4c0.2-2,0.4-4.1,0.5-6.4
		c0.3-3.2,0.5-6,0.5-8.4c0-0.9-0.3-1.7-0.8-2.6c-0.2-0.6-0.4-1.1-0.4-1.3C7.5,144.4,8.1,144.2,9.1,144.2z M16.6,163.7
		c-0.8,0.4-1.6,0.7-2.5,1c-0.7,0.3-1.4,0.6-2,1c-0.6,2.4-1.1,4.5-1.5,6.4c-0.1,0.4-0.2,0.7-0.2,0.8c0,0.6,0.2,0.9,0.5,1.1
		c1.1,0.6,2.1,1.2,3,1.8c0.6-1.5,1.1-3.1,1.6-4.9C16,168.4,16.4,166.1,16.6,163.7z M46.5,174.6c-2.1,0-4,0-5.6,0.1
		c2.6,3.4,4.9,6,6.8,7.9c1.9,1.8,5.2,3.6,10,5.6c0.6,0.1,0.9,0.3,0.9,0.7s-0.3,0.5-0.8,0.6c-0.9,0.3-1.9,0.4-2.8,0.5
		c-1.1,0.2-3.4,0.3-6.9,0.3c-0.8,0-1.6-0.5-2.3-1.4c-2.3-3.2-3.8-5.6-4.7-7.3c-0.3-0.6-0.7-1.2-1-1.7c0,0.5,0.1,1.1,0.1,1.7
		c0.1,3.5,0.1,6.7,0.1,9.6c0,1.3-0.3,2.4-0.9,3.3c-0.9,1-1.6,1.5-2.2,1.5c-0.7,0-1.3-0.4-1.8-1.1c-0.6-0.7-0.9-2.1-0.9-4.2
		c0.2-3.8,0.3-7.1,0.4-10.2c-1,1.5-2.2,2.8-3.3,3.9c-1.8,1.9-3.9,3.5-6.1,4.8c-1.9,1.1-4.2,2-6.9,2.7v-0.5c1-0.7,2-1.4,2.9-2.2
		c2.1-1.7,3.9-3.5,5.5-5.3c1.9-2,3.8-4.7,5.7-8.1c0.2-0.3,0.3-0.5,0.4-0.7c-2.3,0.3-4.5,0.8-6.7,1.3c-0.5,0.2-1.1,0.4-1.7,0.4
		c-0.9,0-1.8-0.5-2.9-1.5c-0.8-1-1.2-1.6-1.2-1.9c0-0.4,0.2-0.5,0.5-0.5c2.1,0,6.5-0.4,13.3-1.3c0.2,0,0.4-0.1,0.5-0.1
		c-0.1-1.7-0.5-2.9-1-3.8c0-0.6,0.4-1,1.2-1c1.2,0,2.4,0.3,3.8,0.8c1.4,0.4,2.1,1,2.1,1.6c0,0.2-0.1,0.4-0.3,0.7
		c-0.1,0.2-0.2,0.5-0.3,0.8c3.8-0.6,6.9-1.1,9.3-1.6c0.3,0,0.5-0.1,0.7-0.1c1.1,0,2.3,0.4,3.8,1.1c1.2,1,1.8,2,1.8,3
		c0,1.3-0.5,1.9-1.4,1.9s-2.5-0.1-4.6-0.4C48.6,174.7,47.4,174.6,46.5,174.6z M51.1,146.7c0.4,0,1,0.2,1.8,0.5
		c1,0.7,1.6,1.4,1.6,1.9s-0.1,0.9-0.2,1.3c-0.2,0.5-0.4,0.8-0.7,0.9c-2.3,0.4-4.5,0.8-6.7,1.1c-0.3,2.9-0.6,6.6-0.8,11
		c0,1.2-0.4,2.1-1.3,2.8c-0.3,0.7-0.9,1-1.6,1c-0.6,0-1-0.4-1.4-1.3l-0.1-0.1c-1.8,0.3-3.5,0.6-5,0.8c-1.8,0.2-3,0.4-3.5,0.4
		c-0.2,0-0.3,0-0.4-0.1c-0.3,0.5-0.8,0.8-1.3,0.8c-0.6,0-1.2-0.3-1.7-1c-0.5-0.6-0.7-1.1-0.7-1.4c-0.4-1.9-0.8-5.3-1-9.9
		c0-0.3,0-0.5-0.1-0.7h-0.6c-2.3,0-3.8-0.6-4.5-1.8c-0.6-0.8-0.9-1.3-0.9-1.6s0.2-0.5,0.5-0.5c1.7-0.1,3.4-0.2,4.8-0.3
		c-0.2-0.8-0.3-1.4-0.4-2c-0.2-1.5-0.6-2.6-1-3.3c0-0.7,0.2-1,0.7-1c1,0,2.1,0.1,3.3,0.4c1.5,0.6,2.2,1.1,2.2,1.8l0.2,3.8
		c3.2-0.3,5.8-0.7,8-1c0.6-0.1,1.1-0.2,1.5-0.2c-0.1-3.3-0.5-5.3-1.2-6.2c-0.4-0.6-0.5-1.1-0.5-1.4c0-0.4,0.3-0.7,1-0.7
		c1.7,0,3.1,0.2,4.2,0.7c2,0.6,3,1.3,3,2.2c0,0.4-0.1,0.7-0.4,1.1c-0.2,0.5-0.4,1.5-0.7,3c0.7-0.2,1.3-0.4,1.9-0.6
		C49.8,146.8,50.5,146.7,51.1,146.7z M32.8,157.7c1.8-0.3,3.4-0.7,5-1.1c0.4-0.1,0.7-0.1,1-0.1c1.4,0,2.3,0.3,2.7,0.8l0.2-4
		c-1.7,0.2-3.5,0.5-5.2,0.7c-1.5,0.2-2.8,0.4-3.9,0.5L32.8,157.7z M33.1,164c2.3-0.4,4.5-0.8,6.6-1.4c0.5-0.2,0.9-0.2,1.2-0.2h0.3
		l0.1-3c-2,0.4-3.8,0.8-5.6,1c-1.5,0.2-2.4,0.4-2.8,0.4L33.1,164z"/>
	<path class="st5" d="M13.5,213.7c1.2,0,2.7,0.4,4.6,1.3c1.5,0.7,2.2,1.5,2.2,2.3c0,0.5-0.3,1.1-0.9,1.6c-0.6,0.4-0.9,0.9-1,1.4
		c-2.5,5.1-4.9,9.3-7.1,12.5c2.3,1.2,3.4,2.1,3.4,2.8c0,0.3-0.2,0.9-0.5,1.6c-0.3,1.1-0.5,1.6-0.5,1.8l0.5,13.1
		c2.2-2.1,3.8-4,4.8-5.4c2.6-3,4.8-6,6.7-9c1.4-2.4,2.4-4.3,3-5.8c-1.2,0.2-2.4,0.5-3.6,0.9c-1,0.3-1.6,0.4-1.8,0.4
		c-0.8,0-1.8-0.5-2.9-1.4c-1-0.9-1.5-1.6-1.5-2.1c0-0.3,0.2-0.5,0.5-0.5c4.6-0.8,8.6-1.5,12.1-2.1c-0.1-6.9-0.4-10.6-0.9-11.3
		c-0.3-0.8-0.6-1.5-0.9-2.2c-0.2-0.3-0.4-0.6-0.4-0.9c0-0.6,0.4-0.9,1.3-0.9c1.8,0,3.6,0.2,5.2,0.7c1.9,0.4,2.8,1.2,2.8,2.2
		c0,0.4-0.1,0.8-0.4,1.1c-0.5,0.9-0.8,1.9-0.9,3.1c-0.3,1-0.5,3.3-0.6,7c2.2-0.5,4.4-1.1,6.7-1.7c0.8-0.2,1.7-0.4,2.5-0.4
		c1,0,2.2,0.4,3.5,1.3c1.1,0.7,1.6,1.6,1.6,2.9c0,1.3-0.3,2-1,2c-4.7,0-9.1,0.2-13.3,0.7v0.5c0.1,0.1,0.2,0.2,0.3,0.4
		c2.6,3.4,5.2,6.1,7.6,8.2c2.6,2.3,6.9,4.9,12.8,7.7v0.7c0,0.2-0.4,0.3-1.2,0.4c-3.8,0.5-7.1,0.8-9.9,0.8c-1,0-1.6-0.1-1.9-0.4
		c-2.1-2.5-4.6-6.6-7.8-12.3c0,3.2,0.1,7,0.2,11.4h0.1c0.7-0.2,1.2-0.3,1.6-0.3c3.5,0,5.3,1.3,5.3,3.8c0,0.4-0.3,0.7-0.8,0.8
		c-2.1,0.5-4.1,0.9-6,1.1c0.1,2.2,0.2,4.6,0.2,7.1c0,2.1-0.5,3.6-1.4,4.5c-0.8,1.1-1.6,1.7-2.4,1.7s-1.8-1.1-2.9-3.3
		c-0.4-1-0.6-1.8-0.6-2.4c0-1,0.1-1.8,0.4-2.5c0.2-0.5,0.3-1.5,0.4-3c0-0.4,0.1-0.9,0.1-1.3c-0.9,0.1-1.5,0.2-1.9,0.2
		c-1.1,0-2.1-0.3-3-1c-0.7-0.7-1.1-1.4-1.1-2.1c0-0.4,0.3-0.6,0.8-0.7c1.9-0.3,3.7-0.6,5.5-1.1c0.1-3.1,0.2-7,0.2-11.6
		c-0.6,0.9-1.2,1.7-1.8,2.7c-2,2.7-4.1,5-6.2,6.9c-2,1.6-3.9,2.9-5.8,3.9c-1.7,0.8-2.8,1.2-3.1,1.2h-0.2l0.2,6.3c0,0.9-0.3,1.9-1,3
		c-0.7,1.4-1.4,2.1-1.9,2.1c-1.1,0-2.1-1.4-3.1-4.1c-0.3-1-0.4-1.6-0.4-2c0-1.2,0.3-4.5,0.9-9.9c0.2-1.8,0.3-5.1,0.3-9.9
		c0-0.8-0.1-1.6-0.2-2.3c-2.1,2.6-4.1,4.6-6,5.9c-1.3,1.1-2.1,1.6-2.5,1.6c-0.1,0-0.2-0.1-0.2-0.4c3.3-4.8,5.9-9.2,7.9-13.2
		c1.5-3.3,2.8-6.6,3.7-9.9c0.5-2,0.7-3.4,0.7-4.3l-0.2-1.4C12.4,213.8,12.7,213.7,13.5,213.7z"/>
</g>
<g class="st4">
	<path class="st5" d="M10.7,6.7c0.7,0,1.9,0.3,3.4,0.8C15.4,8,16,8.5,16,8.9c0,0.2-0.1,0.4-0.2,0.7c-1,1.4-1.8,2.7-2.3,3.8
		c2-0.2,3.7-0.4,5.3-0.6c-0.1-4.1-0.2-6.6-0.4-7.5c-0.4-1.5-1-3.1-1.9-4.6c0-0.4,0.2-0.7,0.7-0.7c1.7,0,3.5,0.4,5.4,1.3
		c1.7,0.8,2.6,1.6,2.6,2.5c0,0.5-0.1,1-0.4,1.5c-0.2,2.1-0.4,4.2-0.6,6.1c1.1-0.4,2-0.8,2.9-1.1c0.4-0.2,0.7-0.3,1.1-0.3
		c0.3,0,0.9,0.1,1.6,0.4c1,0.6,1.5,1.2,1.5,1.7S31.2,13,31,13.4s-0.4,0.7-0.8,0.9c-2.1,0.6-4.2,1.2-6.4,1.6
		c-0.1,1.4-0.2,2.8-0.2,4.2c1.9-0.4,4-0.8,6.2-1.3c0.8-0.1,1.5-0.1,2.1-0.1c2.1,0.1,3.2,1.3,3.2,3.6c0,0.6-1,0.9-3,1
		c-2.5,0.1-5.4,0.5-8.6,1.1V29c1.4-0.2,3.1-0.7,5-1.5c0.4-0.1,0.6-0.2,0.8-0.2c0.4,0,1.5,0.4,3.3,1.1c2.5,1.4,3.8,2.5,3.8,3.2
		c0,0.3-0.1,0.6-0.4,0.9c-0.9,1.6-1.4,2.6-1.4,3.2c0,0.2,0,0.7,0.1,1.5c0.1,1.4,0.1,2.1,0.1,2.2c0,2.2-0.5,4-1.6,5.4
		c-1.3,1.3-2.2,1.9-2.7,1.9c-0.4,0-0.8-0.3-1.1-0.8c-1.6-2.2-3.1-3.8-4.5-4.8c-0.3-0.4-0.4-0.6-0.4-0.7c0-0.3,0.1-0.5,0.2-0.5
		c1.9,0.7,3.1,1,3.7,1l0.5-1c0.2-0.9,0.2-2.5,0.2-4.6c0-1.3-0.1-2.3-0.4-3.1c-0.2-0.5-0.6-0.8-1.1-0.8c-0.9,0-2.1,0.1-3.6,0.3
		c-0.2,0-0.3,0.1-0.5,0.1v17.3c0,0.9-0.5,1.9-1.4,3c-0.5,1.2-1.1,1.8-2,1.8c-1,0-1.8-0.8-2.5-2.4c-0.6-1-0.9-2.2-0.9-3.7
		c0.6-2.9,1.1-5.9,1.5-9.1c0.3-1.6,0.5-3.7,0.6-6.2c-2.2,0.4-4.1,0.8-5.6,1.2v10.5c0,0.8-0.2,1.4-0.7,2c-0.4,0.7-1,1.1-1.8,1.1
		c-0.4,0-1.1-0.6-2.1-1.9c-0.6-0.9-0.8-1.5-0.8-1.7L8,41.4c-0.1-4.8-0.5-7.8-1.3-8.8c-0.3-0.4-0.4-0.8-0.4-1c0-1,0.4-1.5,1.3-1.5
		c0.7,0,1.8,0.2,3.1,0.6c0.3,0.1,0.6,0.2,0.8,0.2c1.6-0.2,4-0.6,7.4-1.3c0-1.3,0.1-2.7,0.1-4.1V25c-3.3,0.7-7.1,1.7-11.6,3L6,28.6
		c-0.3,0-1.2-0.5-2.6-1.6c-1.5-1.3-2.2-2.6-2.2-3.7c0-0.2,0.2-0.2,0.5-0.2c2.6-0.1,5.3-0.3,8-0.7c2.5-0.3,5.5-0.8,9.2-1.5
		c0-1.5-0.1-2.8-0.1-4.1c-1.1,0.2-2,0.3-2.6,0.3c-2,0-3.3-0.5-4.1-1.6c-0.6,1-1.3,1.9-1.9,2.8c-0.7,0.8-1.5,1.5-2.5,2.2
		c-0.3,0.2-0.5,0.3-0.7,0.3s-0.2-0.1-0.2-0.2c1.5-4.2,2.4-7.1,2.7-8.7C9.7,10.6,9.9,9,9.9,7C10,6.8,10.2,6.7,10.7,6.7z M38.3,13.7
		c0.7,0,1.6,0.1,2.8,0.4c1.5,0.4,2.2,0.9,2.2,1.6v17.4c0,0.7-0.2,1.3-0.7,1.8c-0.3,0.7-0.8,1.1-1.5,1.1c-0.4,0-1-0.6-1.9-1.8
		c-0.5-0.8-0.8-1.4-0.8-1.6l0.2-2.4c-0.1-7.6-0.5-12.2-1.3-13.7C37.1,15.8,37,15.3,37,15C37,14.2,37.4,13.7,38.3,13.7z M47,0.5
		c1.5,0,3.3,0.4,5.5,1.3c1.8,0.6,2.7,1.3,2.7,2.2c0,0.2-0.1,0.4-0.2,0.7c-1,2.5-1.6,4.8-1.8,7c-0.3,3.1-0.4,6.2-0.4,9.2
		c0,9.9,0.3,18.4,1,25.5c0,1.9-0.6,3.8-1.9,5.7c-1,1.4-1.8,2.1-2.5,2.1c-1.3,0-2.2-0.5-2.6-1.6c-0.7-1.3-3.3-3.7-7.8-7.2
		c0-0.7,0.3-1,0.9-1c3,1.3,4.9,2,5.8,2c0.4,0,0.7-0.5,0.8-1.4c0.3-1.1,0.5-3.8,0.7-7.9c0.3-5.9,0.4-12.1,0.4-18.6
		c0-3.8-0.1-7-0.4-9.8c-0.1-2.5-0.7-4.7-1.6-6.6c-0.2-0.3-0.2-0.6-0.2-0.7C45.5,0.8,46,0.5,47,0.5z"/>
	<path class="st5" d="M15.7,73.2c1.2,0,2.7,0.4,4.5,1.3c1.5,0.7,2.2,1.5,2.2,2.3c0,0.5-0.3,1-0.9,1.5c-0.6,0.4-1,0.8-1.2,1.3
		c-2.1,3.5-4,6.4-5.8,8.9c2.2,1.2,3.3,2.1,3.3,2.8c0,0.3-0.2,0.8-0.5,1.6c-0.3,1.1-0.5,1.7-0.5,1.8l0.2,21.7c0,1-0.3,2-1,3
		c-0.7,1.4-1.4,2.1-1.9,2.1c-1.1,0-2.1-1.3-3.1-4c-0.3-0.7-0.4-1.3-0.4-1.8c0-1.3,0.4-4.9,1.2-11c0.3-2,0.5-5.7,0.5-11.1
		c0-0.7-0.1-1.3-0.2-1.9c-3.3,3.7-6.3,6.4-9.1,8.1c-1.5,1-2.4,1.5-2.8,1.5c-0.2,0-0.2-0.2-0.2-0.5c3.9-4.4,7-8.6,9.5-12.5
		c1.8-3.1,3.3-6.2,4.4-9.4c0.5-1.9,0.8-3.2,0.8-4.1l-0.2-1.4C14.5,73.4,14.9,73.2,15.7,73.2z M31.9,70.8c1.2,0,2.7,0.4,4.6,1.3
		c1.5,0.8,2.2,1.5,2.2,2.3c0,0.5-0.3,1-0.8,1.6c-0.6,0.4-0.9,0.8-1.1,1.3c-1.5,2.9-2.8,5.4-4.2,7.6c2.6-0.5,5-0.9,7.1-1.4
		c2.9-0.7,5.9-1.4,8.9-2.4c0.7-0.2,1.3-0.2,1.9-0.2c1,0,2.1,0.3,3.2,1c1,0.6,1.5,1.5,1.5,2.6c0,1.3-0.3,1.9-0.9,1.9
		c-5,0-9.6,0.3-13.9,1c-0.6,0.1-1.2,0.2-1.8,0.3c0.7,0.6,1,1,1,1.1c0,0.5-0.1,1.1-0.3,1.6C39.1,91.3,39,92,39,92.8v4.5
		c2-0.6,3.8-1.2,5.3-1.8c1.4-0.5,2.4-0.7,2.8-0.7c2.8,0.1,4.2,1.3,4.2,3.6c0,0.7-0.6,1.1-1.7,1.2c-1.3,0.1-3,0.3-5.2,0.7
		c-1.4,0.2-2.7,0.3-3.9,0.3c-0.7,0-1.2,0-1.6-0.1c0,2.4-0.1,4.8-0.1,7.1c2.5-0.5,4.7-1.1,6.6-1.7c1.7-0.4,2.8-0.7,3.5-0.7
		c3,0.2,4.5,1.4,4.5,3.8c0,0.7-0.7,1-1.9,1.1c-1.6,0.1-3.6,0.3-6.1,0.5c-1.7,0.2-3.2,0.3-4.5,0.3c-0.9,0-1.6-0.1-2.1-0.2
		c-0.1,3.5-0.2,6.9-0.3,10.2c0,2.2-0.4,3.5-1.2,4.1c-0.7,1-1.5,1.4-2.3,1.4c-0.6,0-1.3-0.6-2-1.7c-0.8-1.1-1.1-2.6-1.1-4.5
		c0-0.5,0.1-1.3,0.4-2.4c0.5-1.7,0.8-2.9,0.8-3.4c0.4-6.4,0.5-13.6,0.5-21.6c0-1.6-0.3-2.7-0.8-3.4c-0.1,0-0.2,0.1-0.2,0.1
		c-0.6,0-1.3-0.4-2.1-1.2c-0.4,0.5-0.7,1-1,1.4c-3,3.7-5.7,6.5-8.2,8.2c-1.3,1.1-2.1,1.6-2.5,1.6c-0.1,0-0.2-0.2-0.2-0.5
		c3.3-4.6,5.9-8.8,7.9-12.7c1.5-3.2,2.8-6.3,3.7-9.6c0.5-1.9,0.7-3.3,0.7-4.2l-0.2-1.4C30.8,71,31.1,70.8,31.9,70.8z"/>
	<path class="st5" d="M9.6,148.8c0.6,0,1.3,0.6,1.9,1.7c0.2,0.4,0.3,0.8,0.4,1.1c7.9-0.5,18.5-1.9,31.7-4.4c0.7,0,1.2-0.1,1.5-0.1
		c0.9,0,2.5,0.8,4.7,2.2c2.5,2.3,3.8,3.7,3.8,4.2c0,1.2-0.8,1.8-2.5,1.8c-2.7,0-6.1,0.9-10.3,2.6c-0.5,0-0.8-0.2-0.8-0.5
		c0-0.2,0.8-1.1,2.3-2.8c1.3-1.4,1.9-2.4,1.9-2.9c0-0.1-0.1-0.2-0.4-0.4c-0.4-0.2-0.9-0.3-1.4-0.3c-4.3,0-8.8,0.4-13.6,1.1
		c-3.8,0.5-8.7,1.4-14.8,2.6c-1.1,0.3-1.8,0.5-2.1,0.5H12c-0.2,0.7-0.4,1.5-0.7,2.4c-0.8,2.1-1.5,3.6-2.2,4.4
		c-0.4,0.5-0.9,0.7-1.3,0.7c-0.9,0-1.8-0.4-2.6-1.3c-0.6-0.6-0.8-1.4-0.8-2.4c0-0.7,0.2-1.3,0.5-1.8c1.1-1.3,2.4-3.8,3.9-7.8
		C8.9,149.1,9.2,148.8,9.6,148.8z M36.3,158.1c0.7,0,1.5,0.3,2.4,0.8c0.8,0.5,1.2,1.2,1.2,2.1c0,0.9-0.2,1.4-0.7,1.4
		c-3.4,0-6.7,0.2-9.7,0.5c-0.1,1.3-0.2,2.6-0.3,3.9c1.6-0.3,3.1-0.7,4.7-1.1c0.7-0.1,1.3-0.2,1.9-0.2c0.7,0,1.5,0.3,2.4,0.8
		c0.8,0.5,1.2,1.2,1.2,2.1c0,0.9-0.2,1.4-0.7,1.4c-3.5,0-6.8,0.2-9.9,0.5c-0.1,0.9-0.2,1.8-0.3,2.7c-0.1,0.6-0.2,1.1-0.2,1.6
		c6.4-1,11.5-2,15.3-3c0.4-0.1,0.7-0.1,0.9-0.1c1.1,0,2.5,0.4,4,1.3c1.3,1.1,2,2.2,2,3.3c0,1.3-0.5,1.9-1.4,1.9c-1,0-2.7-0.1-5-0.4
		c-1.5-0.2-2.7-0.4-3.8-0.4c-4.8,0-9.1,0.2-12.8,0.5c-0.2,1.2-0.5,2.3-0.9,3.4c-0.7,1.8-1.7,3.6-2.9,5.5c-1.1,1.4-2.6,2.8-4.4,4.2
		c-2.2,1.4-5.2,2.7-9.1,3.9C8.9,194.9,8,195,7.5,195c-0.4,0-0.5-0.1-0.5-0.2c3.3-1.7,5.7-3.1,7.1-4.2c1.7-1.1,3.2-2.4,4.4-4
		c1.6-2.1,2.7-4.3,3.5-6.7c0.2-0.5,0.3-0.9,0.4-1.4c-3.3,0.5-6.6,1.3-9.8,2.4c-0.8,0.4-1.6,0.7-2.3,0.7c-1,0-2.1-0.6-3.2-1.7
		c-0.9-1.1-1.4-1.8-1.4-2.2c0-0.3,0.1-0.5,0.4-0.5c2.8,0,8.5-0.6,17-1.9c0.1-0.5,0.1-1,0.2-1.5c0.1-0.9,0.2-1.9,0.3-2.9
		c-1.3,0.2-2.5,0.5-3.8,0.9c-0.7,0.2-1.2,0.3-1.3,0.3c-0.6,0-1.3-0.4-2.1-1.1c-0.7-0.7-1-1.3-1-1.8c0-0.2,0.1-0.2,0.2-0.2
		c3-0.4,5.7-0.9,8.1-1.2c0-1.1,0.1-2.1,0.1-3.2v-1c-1.7,0.2-3.4,0.6-5.2,1.2c-0.8,0.3-1.3,0.4-1.6,0.4c-0.6,0-1.3-0.4-2.1-1.3
		c-0.7-0.6-1.1-1.2-1.1-1.7c0-0.2,0.1-0.2,0.2-0.2c3.5-0.5,6.7-1,9.5-1.5c0-0.6-0.1-1.3-0.2-1.9c-0.1-1.4-0.4-2.3-0.9-2.9
		c-0.3-0.5-0.5-0.9-0.5-1.2c0-0.5,0.3-0.7,1-0.7c2,0,3.6,0.2,4.9,0.7c1.9,0.4,2.9,0.9,2.9,1.7c0,0.4-0.2,0.8-0.6,1.3
		c-0.4,0.4-0.6,1.1-0.7,1.8c1.5-0.3,3-0.7,4.5-1.1C34.9,158.2,35.6,158.1,36.3,158.1z M24.2,140.8c1.1,0,2.5,0.3,4.2,0.9
		c1.6,0.6,2.6,1.2,3.1,1.7c0.5,0.6,0.7,1.3,0.7,2.1c0,1.9-1.1,2.9-3.3,2.9c-0.8,0-1.8-1-3-2.9c-1.4-2.2-2.1-3.6-2.1-4.1
		C23.7,141.1,23.9,140.9,24.2,140.8z M31,181.6c0.5,0,1.4,0.1,2.6,0.3c2.1,0.8,4.3,1.8,6.6,2.9c2.8,1.6,4.7,3.1,5.6,4.4
		c0.8,1.2,1.2,2.4,1.2,3.8c0,0.6-0.2,1.3-0.7,2.1c-0.4,0.6-1,0.9-1.8,0.9c-0.9,0-1.6-0.3-2-1c-1-0.6-2.4-2-4.3-4.2
		c-2.8-3.6-4.7-5.8-5.7-6.6c-1.2-1.1-1.8-1.8-1.8-2.2C30.8,181.7,30.8,181.6,31,181.6z"/>
	<path class="st5" d="M2.2,249.5c0.5,0,1.1,0.2,1.8,0.5c1.7,0.9,3,1.9,3.9,3c0.7,1.1,1,2.7,1,4.7c0,0.5-0.3,1.1-0.9,1.6
		c-0.7,0.5-1.4,0.8-2.1,0.8c-0.3,0-0.7-0.4-1-1.1c-0.8-1.3-1.8-4-3.1-8.1c-0.2-0.4-0.2-0.7-0.2-0.9C1.7,249.7,1.9,249.5,2.2,249.5z
		 M11.6,214.6c1.1,0,2.3,0.4,3.6,1.1c1.3,0.7,1.9,1.4,1.9,2.2c0,0.3-0.2,0.6-0.5,0.9c-1.9,2.2-4.4,5.9-7.4,10.9
		c-0.1,0.2-0.2,0.4-0.3,0.5l5.1-0.6c0.7-1.2,1.3-2.4,1.8-3.6c0.1-0.3,0.2-1,0.2-2.2c0-0.5,0.3-0.8,0.9-0.8c1.1,0,2.2,0.4,3.3,1.3
		c1.4,0.8,2.1,1.6,2.1,2.6c0,0.2-0.1,0.4-0.4,0.6c-0.8,0.6-1.5,1.5-2.4,2.7c-2.6,3.3-5.2,6.8-7.8,10.5c1.7-0.4,3.4-0.8,5.1-1.3
		c-0.2-0.6-0.4-1.2-0.5-1.7c-0.1-0.3-0.2-0.5-0.2-0.6c0-0.3,0.2-0.5,0.4-0.5c0.4,0,1,0.1,1.6,0.3c1.5,0.5,2.5,1.2,3.3,1.9
		c0.6,0.7,0.9,1.8,0.9,3.1c0,0.6-0.3,1.1-0.9,1.6s-1.3,0.8-2,0.8c-0.3,0-0.5-0.3-0.8-0.9c-0.2-0.4-0.5-0.9-0.7-1.4
		c-1,0.4-2.3,0.9-3.6,1.5c-1.9,0.9-3.2,1.7-4.1,2.4c-0.4,0.3-0.7,0.6-1,0.9c-0.2,0.3-0.4,0.5-0.5,0.5c-0.8,0-1.8-0.6-2.7-1.8
		c-0.9-1.3-1.3-2.2-1.3-2.8c0-0.5,0.1-0.8,0.2-1c1.5-1.3,2.5-2.2,2.8-2.5c1.1-1.2,2.6-3.4,4.7-6.8c-2.7,0.9-4.7,2-5.9,3.2
		c-1,0-1.8-0.5-2.5-1.4c-0.6-0.6-0.8-1.4-0.8-2.4c0-0.3,0.1-0.5,0.4-0.8c1.3-0.8,2.6-2.6,4.1-5.4c0.7-1.3,1.6-3.6,2.7-6.9
		c0.4-1.2,0.5-1.9,0.5-2.1c-0.2-0.4-0.2-0.8-0.2-1.3C10.7,214.8,11,214.6,11.6,214.6z M9.9,248.1c0.4,0,0.9,0.1,1.5,0.2
		c1.4,0.5,2.6,1.1,3.3,1.8c0.6,0.6,1,1.5,1,2.8c0,0.5-0.3,1-0.9,1.4c-0.6,0.5-1.3,0.7-1.8,0.7c-0.3,0-0.6-0.3-1-0.8
		c-0.6-0.9-1.4-2.6-2.5-5.4c-0.2-0.3-0.2-0.5-0.2-0.7C9.5,248.1,9.6,248.1,9.9,248.1z M16.4,245.4c0.5,0,1,0.1,1.7,0.2
		c1.5,0.5,2.6,1.1,3.4,1.8c0.6,0.6,1,1.5,1,2.8c0,0.5-0.3,1-0.8,1.4c-0.6,0.5-1.2,0.7-1.9,0.7c-0.3,0-0.6-0.3-0.9-0.8
		c-0.6-0.9-1.5-2.6-2.7-5.4c-0.1-0.3-0.2-0.5-0.2-0.7C16,245.4,16.2,245.4,16.4,245.4z M45.2,216.8c0.3,0,0.8,0.1,1.5,0.4
		c0.8,0.6,1.2,1.1,1.2,1.6c0,0.4-0.1,0.8-0.2,1.1c-0.1,0.4-0.3,0.7-0.5,0.8c-2.4,0.7-4.9,1.3-7.3,1.8l-0.1,2.2
		c0.3-0.1,0.7-0.2,1-0.2c0.7-0.2,1.2-0.2,1.5-0.2c2.6,0,3.9,1,3.9,2.9c0,0.3-0.3,0.5-0.8,0.7c-2,0.4-4,0.8-5.8,1.1l-0.1,2.4
		c2.6-0.5,5-1,7.1-1.6c1.7-0.4,3.3-0.6,4.8-0.6c1,0,2.1,0.3,3.4,0.9c1.5,1.1,2.2,2,2.2,2.9c0,0.3-0.2,0.6-0.5,1
		c-0.4,0.5-0.8,0.7-1.2,0.7c-7.7,0-14,0.3-19.1,0.9c-3.2,0.4-7,1.1-11.6,2.4c-0.2,0.1-0.4,0.1-0.7,0.1c-0.5,0-1.3-0.5-2.2-1.6
		c-0.8-1-1.1-1.6-1.1-1.9c0-0.2,0.2-0.2,0.5-0.2c3.1-0.6,5.7-1,7.7-1.3c1.6-0.2,3.5-0.4,5.6-0.7l0.1-2.6c-1.3,0.2-2.1,0.2-2.5,0.2
		c-0.9,0-1.6-0.3-2.3-0.8c-0.5-0.5-0.8-1-0.8-1.4s0.2-0.6,0.5-0.7c1.8-0.2,3.5-0.5,5.2-0.9v-2.4c-1.4,0.3-2.4,0.4-3.2,0.4
		c-1.9,0-3.1-0.6-3.8-1.7c-0.4-0.7-0.7-1.2-0.7-1.5c0-0.2,0.1-0.2,0.2-0.2c2.9-0.2,5.3-0.4,7.3-0.7c-0.1-1.5-0.2-3-0.5-4.3
		c0-0.9-0.4-1.8-1.2-2.6c-0.1-0.2-0.1-0.3-0.1-0.4c0-0.4,0.5-0.7,1.5-0.7c1.4,0,3,0.3,4.7,0.9c1.7,0.8,2.6,1.4,2.6,2
		c0,0.2-0.1,0.3-0.3,0.5c-0.4,0.7-0.7,1.9-0.8,3.5c1.5-0.5,2.9-1,4.1-1.4C44.5,216.9,44.9,216.8,45.2,216.8z M27.1,238.5
		c0.9,0,2,0.3,3.2,0.9c5.1-1,8.8-1.9,11.1-2.6c0.3-0.1,0.7-0.1,1.2-0.1c0.6,0,1.8,0.2,3.6,0.7c2.3,1,3.5,2,3.5,2.9
		c0,0.3-0.1,0.9-0.4,1.9c-0.2,0.6-0.3,1.6-0.3,3.1v9.2c0,0.6-0.4,1.6-1.3,3c-0.8,0.9-1.6,1.3-2.4,1.3c-0.4,0-1.1-0.6-1.9-1.7
		c-2.6,0.1-5.2,0.3-7.7,0.5c-2.4,0.3-3.9,0.4-4.5,0.5c-0.1,0.1-0.2,0.2-0.2,0.3c-0.2,0.2-0.4,0.3-0.5,0.4c0.7,0.1,1.7,0.3,3.1,0.6
		c1.9,0.5,2.8,1.1,2.8,1.8c0,0.2-0.1,0.4-0.4,0.5c-0.8,0.5-1.8,1.1-2.8,1.9c-2,1.6-3.9,2.8-5.6,3.8c-1,0.5-2.2,0.9-3.7,1.3
		c-0.4,0.2-0.8,0.2-1,0.2s-0.3-0.1-0.3-0.2c1.2-1.1,2.3-2.3,3.3-3.5c1.3-1.6,2.3-3.1,2.9-4.4c0.2-0.3,0.4-0.8,0.4-1.5
		c-0.8-0.2-1.5-0.9-1.9-2.1c-0.5-1.2-0.7-2.1-0.7-2.7l0.1-0.3c0.4-1.1,0.7-1.9,0.8-2.5c0.2-1.4,0.3-3.1,0.3-5.2
		c-0.2-3.4-0.6-5.6-1.3-6.6c-0.1-0.3-0.1-0.5-0.1-0.6C26.2,238.8,26.5,238.5,27.1,238.5z M31.9,254.9c0.9-0.1,2-0.2,3.1-0.4
		c2.4-0.3,4.4-0.6,5.8-1c0.4-0.1,0.7-0.2,1.1-0.2c0.2,0,0.4,0,0.5,0.1c0.1-1.6,0.1-4.8,0.1-9.8c0-1-0.3-1.9-0.8-2.8
		c-0.3-0.4-0.7-0.5-1.3-0.5c-0.7,0-1.6,0.1-2.6,0.3c-1.7,0.4-3,0.8-4,1.1c-0.6,0.2-1.2,0.4-1.8,0.4c0,0.6-0.1,1.3-0.1,2.1
		c1.5-0.4,2.9-0.8,4.2-1.1c0.4-0.1,0.7-0.2,0.8-0.2c2.3,0,3.4,0.8,3.4,2.5c0,0.2-0.2,0.4-0.5,0.5c-1.9,0.4-3.7,0.8-5.3,1.1
		c-1.4,0.2-2.3,0.4-2.7,0.4v2.1c1.7-0.3,3.3-0.7,4.7-1c0.4-0.1,0.7-0.2,0.8-0.2c2.3,0,3.5,0.8,3.5,2.4c0,0.2-0.2,0.4-0.5,0.4
		c-2,0.4-3.9,0.8-5.7,1c-1.5,0.2-2.4,0.4-2.8,0.4v2.4H31.9z M41.2,258.4c0.3,0,0.8,0.1,1.5,0.2c1.3,0.5,2.7,1,4.1,1.7
		c1.7,0.9,2.9,1.7,3.4,2.5c0.4,0.7,0.7,1.4,0.7,2.2c0,0.7-0.2,1.4-0.7,2.2c-0.4,0.6-1.1,1-1.9,1c-0.9,0-1.5-0.4-1.9-1.3
		c-0.5-0.4-1.2-1.3-2-2.7c-1.3-2.2-2.1-3.6-2.5-4.1c-0.5-0.7-0.8-1.2-0.8-1.5C40.9,258.5,41,258.4,41.2,258.4z"/>
</g>
<g class="st4">
	<path class="st5" d="M24.4,0c1.5,0,3.3,0.5,5.4,1.5c1.4,0.4,2.1,1.1,2.1,1.9c0,0.3-0.2,0.5-0.5,0.7c-0.3,0.4-0.7,1.1-1.2,2
		l-0.1,0.1c1,0.6,1.9,1.4,2.9,2.6c3.2,3.7,6.2,6.7,9.2,9c3.2,2.6,8.4,5.5,15.6,8.6v0.5c0,0.2-0.4,0.4-1.3,0.5
		c-4.1,0.6-7.7,0.9-10.8,0.9c-1.2,0-2-0.2-2.4-0.5c-2.8-3-6.4-7.8-10.8-14.5c-0.8-1.2-1.9-2.5-3.2-4.1c-0.2-0.3-0.5-0.5-0.7-0.8
		c-2.2,3.3-4.6,6.3-7.2,9c-3.2,3.7-6.6,6.7-10.2,9.1c-2.9,2.1-5.8,3.6-8.6,4.6C1.5,31.8,0.8,32,0.5,32v-0.2C5,28.2,9,24.5,12.4,20.9
		c2.3-2.5,4.5-5.1,6.5-8c2-2.6,3.5-5.3,4.4-7.9c0.4-0.9,0.5-1.7,0.5-2.4c-0.3-0.7-0.4-1.4-0.4-2.1C23.5,0.2,23.8,0,24.4,0z
		 M41.4,30.3c0.9,0,2,0.4,3.1,1.1c1,0.7,1.5,1.5,1.5,2.6c0,1.3-0.3,1.9-1,1.9c-6,0-11.8,0.3-17.1,0.8c1,0.5,1.6,1,1.6,1.6
		c0,0.4-0.3,0.9-0.9,1.5c-0.7,0.5-1.3,1-1.8,1.6c-1.5,1.8-3.3,3.7-5.3,5.9c3.7-0.4,8.5-1.1,14.6-2c-0.8-1.6-1.4-2.6-1.7-3.1
		c-0.7-1-1-1.7-1-2.1c0-0.2,0.1-0.2,0.2-0.2c0.4,0,1,0.1,1.8,0.3c1.5,0.7,3.1,1.6,4.6,2.5c2,1.4,3.3,2.7,4,3.9
		c0.5,1,0.7,2.2,0.7,3.5c0,0.7-0.2,1.5-0.7,2.4c-0.5,0.7-1.2,1-2,1c-1,0-1.7-0.4-2.2-1.2c-0.5-0.7-1.3-2-2.4-3.9
		c-0.1-0.2-0.1-0.3-0.2-0.4c-0.1-0.1-0.2,0-0.4,0c-11.9,2.7-19,4.4-21.3,5.3c-1.6,0-2.4-0.7-2.4-2.2c0-1.3,0.1-2.2,0.3-3
		c0.2-1.3,0.7-1.9,1.6-1.9c0.4-0.2,0.8-0.4,1.1-0.5c0.4-0.2,1-0.8,1.8-1.8c0.7-0.8,1.4-1.7,1.9-2.8c0.5-0.8,0.9-1.8,1.1-2.7
		c0.2-0.6,0.3-1,0.3-1.2c-2.3,0.3-4.6,0.7-7.1,1.2c-1.2,0.2-2,0.4-2.4,0.4c-0.6,0-1.5-0.5-2.5-1.5C8.4,36.4,8,35.7,8,35.2
		C8,35,8.1,35,8.4,35c6.2-0.7,11.6-1.4,16.2-2.1c4.5-0.6,9-1.4,13.7-2.3C39.4,30.4,40.5,30.3,41.4,30.3z M32.4,21.1
		c0.4,0,1.1,0.2,2,0.5c1.1,0.8,1.7,1.5,1.7,2.1c0,0.5-0.1,1-0.3,1.4c-0.2,0.5-0.6,0.9-1,1c-2.4,0.6-4.9,1.2-7.5,1.6
		c-1.8,0.4-3.2,0.5-4.1,0.5c-2.5,0-4.2-0.7-5-2c-0.6-0.9-0.9-1.5-0.9-1.8s0.2-0.5,0.5-0.5c3.8-0.2,6.8-0.6,9-1.2
		c1.7-0.4,3.3-0.9,4.6-1.5C31.8,21.2,32.1,21.1,32.4,21.1z"/>
	<path class="st5" d="M18.6,85.8c0.6,0,1.9,0.4,3.7,1.3c2.2,1.3,3.3,2.4,3.3,3.3c0,0.3-0.3,0.6-0.9,0.8c-2.1,1.3-3.3,2.1-3.7,2.7
		c-1.8,2.4-3.5,4.5-5.1,6.3c2,1.1,3,2,3,2.6c0,0.3-0.1,0.8-0.4,1.6c-0.3,1.1-0.5,1.7-0.5,1.8l0.5,13.7c0,1-0.3,2-1,3
		c-0.8,1.4-1.4,2.1-1.9,2.1c-1.1,0-2.2-1.3-3.2-4c-0.4-0.7-0.5-1.3-0.5-1.8c0-0.8,0.4-3.2,1.1-7.1c0.3-1.3,0.4-3.6,0.4-7
		c0-0.8-0.1-1.6-0.2-2.3c-0.3,0.3-0.5,0.5-0.8,0.8c-2.8,2.9-5.9,5.3-9.4,7.1c-1.3,0.8-2.1,1.2-2.5,1.2c-0.1,0-0.1-0.1-0.2-0.2
		c0-0.1,0.2-0.4,0.7-0.8c3.2-3,5.7-5.5,7.3-7.6c2.7-3.3,5.1-6.9,7.3-10.8c0.2-0.3,0.2-0.6,0.2-0.8c0-0.3-0.2-0.5-0.5-0.5
		c-5.2,2.1-8.2,3.2-9,3.2c-0.9,0-1.9-0.5-3-1.6c-0.7-0.9-1-1.6-1-1.9c0-0.7,0.2-1,0.7-1c3.8-0.2,6.5-0.4,8.3-0.8
		c1.9-0.4,4-1.3,6.5-2.8C18.4,86,18.6,85.9,18.6,85.8z M12.4,73c0.7,0,1.6,0.1,2.6,0.3c2.4,0.5,4.3,1.1,5.6,1.8
		c1,0.6,1.5,1.5,1.5,2.8c0,0.7-0.4,1.4-1.1,2.2c-1.1,0.6-2,0.9-2.8,0.9c-0.6,0-1.1-0.3-1.6-0.8c-1.1-1-2.5-3-4.4-6.1
		c-0.3-0.3-0.4-0.5-0.4-0.7C11.9,73.2,12.1,73,12.4,73z M18.8,98.2c0.5,0,1.1,0.1,1.8,0.3c1.6,0.5,2.9,1.1,3.7,1.8
		c0.7,0.7,1.1,1.6,1.1,2.8c0,0.5-0.3,1-0.9,1.4c-0.6,0.5-1.2,0.7-1.8,0.7c-0.4,0-0.8-0.3-1.1-0.8c-0.7-0.8-1.7-2.6-3-5.4
		c-0.2-0.3-0.2-0.5-0.2-0.6C18.5,98.3,18.6,98.2,18.8,98.2z M47.7,90.3c0.4,0,1.2,0.2,2.1,0.6c1.2,0.8,1.8,1.6,1.8,2.3
		c0,0.5-0.1,0.9-0.3,1.4c-0.2,0.6-0.6,0.9-1,1c-2.9,0.9-5.8,1.7-8.8,2.4l-0.3,11.7c3.5-0.7,6.4-1.3,8.7-2c0.3,0,0.5-0.1,0.7-0.1
		c1.3,0,2.9,0.5,4.7,1.6c1.6,1.3,2.4,2.7,2.4,4.1s-0.6,2.1-1.7,2.1c-1.1,0-3-0.2-5.8-0.5c-1.7-0.3-3.2-0.5-4.4-0.5
		c-4.5,0-8.2,0.3-11.1,0.8c-2.4,0.4-4.8,1.1-7.1,2.1c-0.5,0.3-1,0.5-1.5,0.5c-1.1,0-2.4-0.7-3.7-1.9c-1.1-1.3-1.6-2.2-1.6-2.6
		s0.2-0.5,0.5-0.5c2.1,0,6.6-0.6,13.4-1.7c0.4-0.1,0.7-0.1,1.1-0.2l-0.1-11.6c-1.5,0.2-2.6,0.4-3.6,0.4c-2.6,0-4.3-0.8-5.1-2.3
		c-0.6-0.9-0.9-1.6-0.9-2c0-0.2,0.2-0.2,0.5-0.2c3.5-0.3,6.5-0.7,9.1-1.1v-4.2c0-3.3-0.2-6.5-0.5-9.3c0-1.3-0.4-2.5-1.2-3.8
		c0-0.2-0.1-0.4-0.1-0.5c0-0.6,0.5-0.9,1.6-0.9c1.5,0,3.2,0.3,5,0.9c1.8,0.8,2.7,1.5,2.7,2.2c0,0.3-0.1,0.6-0.3,1
		c-0.4,1.2-0.7,3.5-1,7.1l-0.1,6.2c1.7-0.6,3.3-1.3,4.7-1.9C46.8,90.4,47.3,90.3,47.7,90.3z"/>
	<path class="st5" d="M15,158.3c0.4,0,1,0.2,1.8,0.5c1,0.7,1.6,1.4,1.6,1.9s-0.1,0.9-0.2,1.3c-0.2,0.4-0.4,0.7-0.8,0.9
		c-1.3,0.5-2.6,0.9-4,1.3c0,1.7-0.1,3.2-0.1,4.6c0.9,0.3,1.7,0.6,2.6,1c1.2,0.6,2,1.1,2.4,1.6c0.3,0.5,0.5,1,0.5,1.4
		c0,0.6-0.2,1.3-0.5,1.9c-0.4,0.5-1,0.7-1.6,0.7c-0.8,0-1.3-0.3-1.6-0.9c-0.3-0.3-0.8-1-1.3-1.9c-0.1-0.2-0.2-0.5-0.3-0.7l0.2,20.8
		c0,0.9-0.5,1.8-1.4,2.9c-0.5,1.2-1.1,1.8-2,1.8s-1.7-0.8-2.4-2.3c-0.6-1-0.8-2.2-0.8-3.6c0.5-2.9,0.9-6,1.3-9.2
		c0.3-1.8,0.5-4.3,0.6-7.3c-0.2,0.5-0.5,0.9-0.7,1.3c-1.2,2.4-2.5,4.3-3.9,5.9c-1.2,1.3-2.6,2.4-4.3,3.3V185c0.5-0.9,1-1.7,1.5-2.6
		c1.1-2,2-4.1,2.9-6.3c1-2.4,2-5.6,3-9.5c0.1-0.4,0.2-0.8,0.2-1.1c-0.6,0.1-1,0.1-1.3,0.1c-2.3,0-3.8-0.6-4.5-1.8
		c-0.5-0.8-0.8-1.3-0.8-1.6s0.2-0.5,0.5-0.5c3-0.2,5.5-0.6,7.4-1.1c0-6.8-0.2-10.8-0.5-12c-0.3-1.5-0.8-3.1-1.6-4.5
		c0-0.3,0.3-0.5,0.8-0.5c1.6,0,3.2,0.4,4.8,1.2c1.6,0.7,2.4,1.5,2.4,2.4c0,0.4-0.1,0.9-0.3,1.4c-0.3,3.7-0.6,7.1-0.8,10.3
		c0.2-0.1,0.3-0.2,0.5-0.2C14.4,158.5,14.7,158.3,15,158.3z M29.7,149.9c0.4,0,1.5,0.4,3.5,1.3c0.4,0.2,0.8,0.5,1.2,0.7
		c4-0.2,7.2-0.6,9.6-1.1c1.8-0.4,3.4-0.9,4.8-1.4c0.3-0.1,0.7-0.2,1-0.2s0.9,0.2,1.8,0.5c1,0.7,1.5,1.4,1.5,1.9
		c0,0.4-0.1,0.9-0.2,1.3c-0.2,0.5-0.4,0.8-0.7,0.9c-2.1,0.4-4.2,0.8-6.3,1.1c0.2,0,0.3,0.1,0.4,0.1c2.2,0.9,3.3,1.6,3.3,2.1
		c0,0.4-0.1,0.8-0.4,1.1c-0.8,1.2-1.3,2.2-1.4,3.2c-0.4,1.9-0.8,3.6-1.2,5.2c0.9-0.2,1.8-0.4,2.6-0.7c1.1-0.3,2.1-0.4,3.1-0.4
		c0.9,0,1.9,0.3,3,0.9c1.4,1,2.1,1.9,2.1,2.8c0,0.2-0.2,0.5-0.5,0.9c-0.4,0.4-0.8,0.5-1.2,0.5c-4,0-7.3,0.1-10.2,0.4
		c-0.2,0.8-0.5,1.6-0.7,2.2c0.5,0.2,1.1,0.4,1.6,0.7c1.3,0.5,1.9,1.1,1.9,1.6s-0.1,1-0.3,1.4c-0.5,1.7-0.8,3.2-1,4.5
		c-0.2,1.6-0.4,3.4-0.4,5.2c0,0.9,0.1,1.6,0.2,2.1c0.2,0.7,0.5,1.2,1,1.5c0.6,0.5,1.6,0.7,3,0.7c1.3,0,2.2-0.6,2.7-1.9
		c0.6-1.1,1.2-3.6,1.8-7.8c0-0.2,0.1-0.2,0.2-0.2s0.2,0.1,0.2,0.2c0.7,5,1.5,8.3,2.5,10c0.1,0.1,0.2,0.4,0.2,0.7
		c0,0.5-0.1,0.9-0.4,1.2c-0.7,0.9-1.6,1.6-2.8,2s-2.4,0.6-3.6,0.6c-2.2,0-4.2-0.4-5.9-1.2c-1.2-0.6-2-1.5-2.6-2.5
		c-0.4-0.9-0.7-2.4-0.7-4.7c0.2-4,0.4-7.1,0.4-9.4c-1.5,3.5-3.6,6.7-6.2,9.6c-2.8,2.7-5.5,4.6-8.2,5.8c-1.6,0.6-2.9,0.9-3.9,0.9
		c-0.3,0-0.5-0.1-0.5-0.2c1.9-1.3,3.6-2.6,5.3-3.9c3.6-3.4,6.2-6.6,7.9-9.7c1.3-2.4,2.5-5.3,3.4-8.7c-1.5,0.2-3.1,0.6-5,1
		c-0.1,0-0.2,0.1-0.4,0.1c-0.4,0-1.1-0.5-2-1.4c-0.8-0.8-1.1-1.4-1.1-1.6c0-0.3,0.2-0.5,0.5-0.5c1-0.2,2-0.3,2.8-0.5
		c0.1-1.4,0.1-2.4,0.1-3.1c0-3.8-0.1-7.2-0.3-10.1c-0.9,1.3-1.4,2.5-1.6,3.8c-1,6.5-1.8,10.1-2.2,11c-0.4,0.9-0.8,1.3-1.2,1.3
		c-0.8,0-1.4-0.3-2-0.8c0-0.1-0.1-0.2-0.1-0.2c-1.1,0.1-2.1,0.2-3.1,0.4c-0.6,0.1-1.1,0.2-1.5,0.2l-0.3,11.2
		c1.5-0.8,2.8-1.5,4.1-2.2c-0.5-1.1-1.1-2.3-1.7-3.8c-0.2-0.4-0.4-0.6-0.4-0.8s0.1-0.2,0.3-0.2c0.6,0,1.2,0.1,1.9,0.4
		c1.8,0.7,3.2,1.6,4.2,2.5c0.7,0.9,1.1,2.2,1.1,3.9c0,0.4-0.2,0.9-0.7,1.3c-0.6,0.4-1.1,0.6-1.7,0.6c-0.4,0-0.8-0.3-1.2-0.9
		c-0.3-0.4-0.6-0.8-0.9-1.3c-4,3.4-6.1,5.4-6.5,6.1c-1.1,1.4-1.8,2.1-2.2,2.1c-0.7,0-1.3-0.5-1.8-1.6c-0.7-0.7-1.1-1.3-1.1-1.8
		s0.1-0.9,0.2-1.1c0.3-0.4,0.7-1.1,1.1-2c0.4-0.8,0.6-2,0.7-3.8c0.4-4.9,0.6-10,0.6-15.3c0-5.2-0.2-8.4-0.5-9.6
		c-0.3-0.9-0.6-1.6-1-2.2c-0.3-0.2-0.4-0.4-0.4-0.6c0-0.5,0.3-0.7,0.8-0.7c2,0,3.5,0.3,4.5,0.9c0.6,0,1.1-0.1,1.5-0.2
		c1-0.2,2.5-0.7,4.7-1.6C29,150,29.4,149.9,29.7,149.9z M23.9,154.5l-0.2,5.1c0.7-0.2,1.2-0.4,1.5-0.5c0.1,0,0.3-0.1,0.4-0.1
		c1.8,0,2.7,0.5,2.7,1.6c0,0.6-0.3,1.1-1,1.5c-0.9,0.3-2.2,0.5-3.7,0.8l-0.1,4.8c0.1,0,0.1-0.1,0.2-0.1c1.1-0.2,2-0.4,2.7-0.6
		c0.2-0.1,0.3-0.1,0.5-0.1c0.3,0,0.6,0,0.9,0.1c0.2-1.3,0.4-3,0.7-5.2c0.5-3.8,0.7-6.1,0.7-6.8c0-0.9-0.4-1.4-1.2-1.4
		C26,154.2,24.7,154.4,23.9,154.5z M39.8,155.7c-0.2,4-0.4,8.1-0.4,12.2c0.7-0.1,1.3-0.2,2.1-0.3c0.7-3.3,1.1-6.6,1.1-10
		c0-0.7-0.2-1.4-0.5-2.2C41.2,155.6,40.4,155.6,39.8,155.7z"/>
	<path class="st5" d="M38.8,214.7c0.4,0,1,0.2,1.9,0.5c1.1,0.8,1.7,1.5,1.7,2.1c0,0.5-0.1,0.9-0.2,1.4c-0.2,0.6-0.5,0.9-0.9,1
		c-1.9,0.3-3.7,0.6-5.5,0.9c1.5,0.6,2.3,1.1,2.3,1.8l-0.4,0.5c-0.3,0.4-0.5,1.1-0.5,1.8c-0.1,0.4-0.2,0.8-0.2,1.1
		c1.6-0.2,3.1-0.5,4.5-0.9c0.5-0.1,1-0.2,1.5-0.2c0.7,0,1.9,0.5,3.6,1.4c2.3,1.4,3.5,2.5,3.5,3.1c-0.1,0.7-0.4,1.2-0.9,1.6
		c-1.1,0.9-2.9,3.5-5.3,7.6c-1.1,1.1-2.2,1.7-3.5,1.7s-2-0.5-2.2-1.4c-4.3,0.1-8.6,0.4-12.7,1h0.1c1.3,0.5,2,1,2,1.6
		c0,0.3-0.1,0.5-0.2,0.7c-0.4,1-0.9,1.9-1.5,2.8c2.5-0.2,4.9-0.4,7.2-0.7c0-0.1,0-0.1,0-0.2c0-0.6-0.2-1.2-0.5-1.9
		c0-0.6,0.3-0.9,1-0.9c1,0,2.2,0.3,3.4,0.9c1.1,0.6,2,1.1,2.5,1.6c3.8-0.4,7.1-0.8,9.9-1.2c0.5,0,0.8-0.1,1.1-0.1
		c1.2,0,2.5,0.4,4.1,1.3c1.4,1.1,2.1,2.2,2.1,3.3c0,1.3-0.5,2-1.5,2s-2.6-0.1-5-0.4c-1.5-0.2-2.7-0.4-3.7-0.4c-2.9,0-5.7,0-8.2,0.1
		c-1.3,2.9-2.7,5.3-4.2,7.3c2.1,0.6,3.8,1.2,5,1.8c2.8,1.5,5.2,3.3,7.3,5.4c1.1,1.3,1.6,2.5,1.6,3.7c0,1.5-0.8,2.2-2.4,2.2
		c-1,0-3.5-1.5-7.5-4.5c-2-1.6-4.5-3.2-7.6-4.7c-3.1,2.8-6.5,4.7-10,5.9c-3,1-6.1,1.6-9.4,1.6c-1.5,0-2.2-0.2-2.2-0.7
		c2.5-0.6,4.8-1.3,6.7-1.9c3.4-1.4,6.8-3.4,10.1-6c0.2-0.2,0.5-0.5,0.7-0.7c-3-1.3-5.9-2.2-8.5-2.7c-0.8-0.2-1.2-0.6-1.2-1.3
		c0-0.5,0.2-1,0.7-1.3c0.5-0.4,1.1-1.4,1.6-2.9c-3,0.3-6,0.7-9,1.1c-1,0.3-2,0.4-3.1,0.4c-0.9,0-2-0.6-3.2-1.7
		c-1-1.1-1.5-1.9-1.5-2.2s0.2-0.5,0.5-0.5c3,0,8.8-0.3,17.4-1c0.6-1.7,1-3.1,1-4.2c0-0.2,0-0.5-0.1-0.8c-1.6,0.2-2.7,0.3-3.2,0.3
		c-0.4,0.6-0.9,0.9-1.5,0.9c-0.8,0-1.5-0.3-2.1-1c-0.5-0.7-0.8-1.2-0.8-1.6c-0.6-0.9-1.1-2.5-1.5-4.8c-0.3-1.4-0.8-2.5-1.3-3.3
		c-0.4-0.7-0.9-1.2-1.6-1.6c0-0.8,0.3-1.1,1-1.1c1.1,0,2.3,0.1,3.8,0.4c0,0,0.1,0,0.1,0.1c2.3-0.2,4.7-0.5,7.4-0.8
		c-0.2-1.6-0.3-2.7-0.4-3.2c-0.3-0.7-0.6-1.2-1-1.6c-0.2-0.3-0.4-0.5-0.5-0.7c-2.1-0.1-3.6-0.8-4.2-2.1c-0.6-0.9-0.9-1.5-0.9-1.9
		c0-0.3,0.2-0.4,0.5-0.4c6.4-0.3,11.5-0.8,15.1-1.4c2.9-0.5,5.4-1.1,7.6-1.7C37.7,214.8,38.2,214.7,38.8,214.7z M17.6,237.6
		c1.1-0.1,2.5-0.2,4.1-0.4c-0.2-2.5-0.3-4.6-0.4-6.3c-1.6,0.2-3.3,0.5-5,0.7L17.6,237.6z M32,248.6c-3,0.1-5.8,0.3-8.2,0.4
		c-0.2,0-0.4,0-0.5,0.1c-0.6,1-1.2,1.9-1.8,2.9c0,0.4,0.4,0.7,1.1,0.9c2.3,0.6,4.5,1.1,6.4,1.6c1-1.3,1.8-2.7,2.4-4.1
		C31.6,249.7,31.9,249.1,32,248.6z M31.2,226.7c0-0.9,0.1-1.6,0.1-2.1c0-1-0.2-2.1-0.5-3.3c-1.2,0.2-2.3,0.3-3.5,0.4
		c-1.2,0.2-2.3,0.3-3.3,0.4c1.4,0.5,2.1,1,2.1,1.4v0.9c-0.2,0.6-0.3,1.6-0.3,3c1.5-0.2,3-0.4,4.4-0.6
		C30.6,226.8,30.9,226.8,31.2,226.7z M26,236.7c1.7-0.2,3.2-0.4,4.6-0.6c0.2-2.5,0.3-4.5,0.4-6.2c-0.3,0-0.6,0-1,0.1
		c-1.3,0.1-2.7,0.3-4.2,0.5C25.9,232.1,25.9,234.2,26,236.7z M34.9,235.3c0.7-0.2,1.3-0.2,1.9-0.2c0.9,0,1.7,0.4,2.4,1.1
		c0.4-1.1,0.8-2.3,1.2-3.6c0.4-1,0.6-1.9,0.6-2.6c0-0.5-0.3-0.8-0.8-0.8c-0.8,0-2.2,0.1-4.1,0.2c-0.1,0.6-0.2,1.1-0.3,1.6
		C35.5,232.4,35.3,233.8,34.9,235.3z"/>
</g>
<g>
	<path d="M49.6,35.5c0,2.9-1.3,5.6-4,8.1c-2.6,2.6-5.3,3.8-8.2,3.7c-2.4,0-4.5-0.9-6.2-2.4s-2.7-3.5-3.2-6.1
		c2.1,1.7,4.7,2.6,7.7,2.6c1.8,0,3.3-0.7,4.6-2.1c1.6-1.6,2.4-3.3,2.6-5.2c-0.1-1.7-0.7-2.9-1.6-3.7c-1.1-0.6-2.4-0.9-4-0.9
		c-2.5,0-6.2,1.1-11.1,3.2c-0.4,0.2-1,0.5-1.8,0.9v6.7c0,3.3-0.6,5.7-1.7,7.1c-1,1.5-2,2.3-2.8,2.4c-0.9,0-1.7-0.5-2.5-1.5
		c-1.7-2.3-4-4-7-5.1c-2-0.8-3-1.8-3-2.9c0-1.1,0.8-2.3,2.3-3.7c2-1.7,4.9-3.5,8.6-5.4c0-0.2,0-0.8,0.1-1.6c0-0.8,0-1.4,0-1.8
		c0-0.9,0-2.2,0-3.8c0-1.7-0.1-2.9-0.1-3.4c-2,0.6-3.5,0.9-4.7,0.9c-1.5-0.1-2.8-0.6-3.9-1.5c-0.7-0.5-1.1-1-1.1-1.6
		c0-0.4,0.5-0.7,1.5-0.7c2.3-0.2,5-1.1,8.1-2.6c-0.4-6.3-0.8-9.8-1.4-10.5C16.3,3.9,16,3.3,16,3c0-0.7,0.8-1,2.3-1
		c1.1,0,2.6,0.5,4.4,1.4c2.1,1,3.2,2,3.3,3.1c-0.2,0.2-0.4,0.8-0.8,1.6s-0.7,1.8-0.7,3.1v1.3c2.2-1,3.7-1.5,4.6-1.5
		c0.4,0,1.1,0.3,2,0.8c0.5,0.4,0.8,0.9,0.8,1.6c-0.5,1.6-3,3.3-7.4,5.1v10l0.2-0.1c5-2.2,9.5-3.2,13.6-3.2c2.9,0,5.5,1.1,7.9,3.2
		C48.5,30.1,49.6,32.5,49.6,35.5z M18.2,36.8c-3.5,2.3-5.3,3.9-5.3,4.9c0,0,0.2,0.1,0.5,0.1s1.1,0.2,2.3,0.5c0.2,0.1,0.6,0.2,1,0.3
		C17.3,42.7,17.8,40.7,18.2,36.8z M48.3,11.9c0,1-0.6,1.5-1.9,1.5c-0.7,0-1.2-0.1-1.4-0.2c-0.4-0.4-0.8-0.5-1.3-0.5
		c-1.7,0-3.8,1-6.5,3.1c1.8-2.4,2.8-4.2,3.1-5.3c-0.3-0.8-1.6-2.3-4-4.5c3.4,0,6.1,0.6,8.3,1.8C47,9.2,48.3,10.5,48.3,11.9z"/>
	<path d="M6.8,73.7c1.1,0,2.4,0.4,4,1.1c0.5,0.2,0.8,0.3,1,0.4c0.8-0.1,1.4-0.2,1.8-0.3c1.1-0.2,2.9-0.8,5.3-1.8
		c0.7-0.3,1.2-0.4,1.5-0.4s1.4,0.4,3.4,1.3c1.8,1,2.7,1.9,2.7,2.7c0,0.3-0.2,0.8-0.7,1.3c-0.9,1.2-1.5,2.5-1.6,3.7
		c-0.9,6.1-1.6,9.5-2.1,10.4c-0.4,0.8-0.8,1.2-1.2,1.2c-0.8,0-1.4-0.2-2-0.7c0-0.2-0.1-0.3-0.1-0.4c-1.6,0.1-3.1,0.2-4.6,0.5
		C13.3,92.9,12.5,93,12,93c-0.2,10.1-0.5,18.2-0.9,24.3c-0.1,0.8-0.5,1.6-1.2,2.4c-0.8,0.7-1.4,1.1-2,1.1c-1,0-1.9-0.9-2.5-2.6
		c-0.6-1.3-0.9-2.4-0.9-3.1l0.2-1c0.9-4.2,1.4-7.6,1.6-10.1C6.8,98.4,7,91.6,7,83.4c-0.2-4.2-0.7-6.8-1.4-8.1
		c-0.1-0.4-0.1-0.6-0.1-0.7C5.5,74,5.9,73.7,6.8,73.7z M12,89.8c0.4-0.1,0.9-0.2,1.3-0.2c1.6-0.2,2.9-0.5,3.9-0.9
		c0.3-0.1,0.5-0.2,0.7-0.2s0.4,0,0.6,0.1c0.1-1.1,0.3-2.5,0.5-4.3c0.4-3.5,0.7-5.6,0.7-6.3c0-0.9-0.4-1.4-1.3-1.4
		c-3.3,0.8-5.3,1.2-6.2,1.3c0,0.9-0.1,2.1-0.1,3.5v1.2c0.6-0.2,1.1-0.5,1.5-0.7c0.9-0.4,1.5-0.5,1.8-0.5c1.8,0.1,2.7,0.8,2.7,2.1
		c0,0.7-0.3,1-1,1.1c-0.9,0.1-2,0.3-3.4,0.5c-0.7,0.2-1.2,0.2-1.7,0.2C12,87,12,88.4,12,89.8z M16.8,96.6c0.9,0,2,0.2,3.4,0.5
		c0.9,0.3,1.6,0.7,1.9,1c1.2-0.2,2.3-0.3,3.3-0.5c2-0.2,3.8-0.9,5.5-1.8c1-0.5,1.8-0.8,2.3-0.8c0.6,0,1.8,0.4,3.7,1.2
		c2.2,1.3,3.4,2.3,3.4,2.9c0,0.3-0.1,0.6-0.3,0.8c-1.4,1.6-2.3,2.9-2.6,3.7c-0.4,0.9-0.7,1.7-0.9,2.4l0.1,0.1c1,1.3,1.5,2.2,1.5,2.7
		c-0.1,0.2-0.2,0.4-0.5,0.4c-3.2,0-6.3,0.3-9.5,0.9c-2,0.4-3.5,0.7-4.3,0.7c-0.2,1.3-0.7,2-1.6,2c-0.7,0-1.3-0.3-1.8-1
		c-0.4-0.6-0.7-1-0.7-1.4c-0.5-1.3-1-3.4-1.3-6.4c-0.3-1.8-0.7-3.3-1.1-4.3c-0.3-1-0.8-1.7-1.3-2.1C16,96.9,16.3,96.6,16.8,96.6z
		 M23.4,106.9c1.1-0.1,2.3-0.3,3.8-0.7c1.7-0.2,3.1-0.5,4.2-0.9c0.5-2.1,0.7-3.7,0.7-4.6c0-0.4-0.3-0.7-1-0.7
		c-0.6,0-1.8,0.2-3.5,0.7c-1.9,0.6-3.5,0.9-4.8,0.9L23.4,106.9z M31.6,70.4c0.7,0,1.7,0.2,2.9,0.5c0.7,0.2,1.2,0.3,1.5,0.5
		c2.2-0.4,4.4-1,6.6-1.6c1-0.3,1.8-0.6,2.4-1c0.2-0.2,0.4-0.2,0.6-0.2c0.6,0,1.8,0.3,3.6,1c2.1,1.1,3.2,2,3.2,2.8
		c0,0.2,0,0.5-0.1,0.9c-0.5,2.6-0.8,7.6-0.8,15c0,1.5,0.1,6.9,0.2,16.1c0.1,7,0.2,11.8,0.2,14.3c0,0.9-0.6,2.3-1.8,4.1
		c-1.4,1.6-2.6,2.4-3.5,2.4c-5-5.1-7.6-7.8-7.6-8.1c0-0.3,0.1-0.5,0.2-0.5c2.5,1.2,4.2,1.8,4.9,1.8c0.8,0,1.2-1.2,1.4-3.7
		c0.4-3.5,0.6-10.9,0.6-22.1c0-1.3,0-2.7-0.1-4.2c-2,0.1-4,0.3-5.9,0.7c-2.2,0.4-3.5,0.7-3.9,0.7c-0.3,0.4-0.8,0.7-1.3,0.7
		c-0.4,0-1-0.6-1.9-1.8c-0.6-0.9-0.9-1.4-0.9-1.6l0.3-2.4c-0.1-6.5-0.6-10.4-1.5-11.7c-0.3-0.6-0.4-1-0.4-1.3
		C30.5,70.8,30.9,70.4,31.6,70.4z M45.9,85c-0.1-3.3-0.3-7-0.6-11.1c0-0.5-0.4-0.8-1.3-0.8c-0.6,0-1.5,0.1-2.7,0.3
		c-1.4,0.2-3,0.6-4.6,1.2l0.1,4.7c0.9-0.3,1.7-0.6,2.4-1c0.8-0.4,1.4-0.5,1.7-0.5c2.1,0.1,3.1,1,3.1,2.7c0,0.5-0.3,0.8-1,0.8
		c-0.8,0.1-1.8,0.3-3.1,0.5C39,82,38.3,82,37.6,82c-0.3,0-0.6,0-0.9-0.1l0.1,4.8c0.8-0.1,1.6-0.3,2.5-0.5c2-0.3,3.5-0.6,4.7-1
		c0.3-0.1,0.6-0.2,0.9-0.2C45.4,84.9,45.7,84.9,45.9,85z"/>
	<path d="M25.2,168.3c-0.9,4.2-1.4,7.4-1.4,9.3c0,0.7,0.1,1.5,0.4,2.3c0.4,0.7,0.5,1.3,0.5,1.8c0,1.8-1.1,2.7-3.3,2.7
		c-2.1,0.1-4.3-1-6.7-3.2c-2-1.8-3.5-4.2-4.6-7.1c-0.8-2.1-1.4-5.6-2-10.4c-0.4-3.6-0.8-5.8-1.3-6.5c-0.7-0.8-1-1.4-1-1.7
		c0-1.1,0.5-1.6,1.6-1.6c0.7,0,1.9,0.5,3.7,1.5c1.9,1.1,2.9,2,3,2.7c0,0.2-0.1,0.4-0.1,0.5l-0.3,0.6v2.7c0,5.7,0.9,9.8,2.6,12.4
		c0.9,1.3,1.6,2,2.1,2C18.7,176.2,21,173.6,25.2,168.3z M51.4,168.5c-0.1,3.3-1.6,4.9-4.6,4.9c-1.4-0.1-2.2-1.4-2.6-3.8
		c-0.4-3.2-1-5.7-1.9-7.4c-0.9-2.1-2.7-4.6-5.4-7.3c4.5,1.3,7.5,2.4,9,3.5C49.2,160.8,51,164.2,51.4,168.5z"/>
	<path d="M23.6,207c1.5,0,3.3,0.5,5.4,1.5c1.4,0.5,2.1,1.1,2.1,1.9c0,0.3-0.1,0.6-0.4,0.7c-0.3,0.5-0.7,1.2-1.2,2.1
		c-0.1,0.1-0.1,0.2-0.2,0.2c1,0.7,1.9,1.6,2.8,2.7c3.3,4.2,6.4,7.6,9.5,10.2c3.3,2.9,8.6,6.1,16.1,9.6v0.5c0,0.3-0.4,0.5-1.3,0.5
		c-4.1,0.6-7.7,0.9-10.9,0.9c-1.3,0-2.2-0.2-2.6-0.5c-3-3.3-6.7-8.7-11.3-16.2c-0.8-1.3-1.9-2.8-3.3-4.5c-0.2-0.2-0.4-0.5-0.6-0.7
		c-2.1,3.4-4.4,6.6-6.8,9.5c-3.1,3.9-6.4,7.1-9.9,9.7c-2.9,2.2-5.6,3.9-8.4,5c-1.1,0.4-1.8,0.7-2.1,0.7v-0.2
		C5,236.8,8.8,233,12,229.2c2.2-2.7,4.3-5.6,6.3-8.6c1.9-2.8,3.3-5.6,4.3-8.4c0.3-1.1,0.5-2,0.5-2.6c-0.3-0.7-0.4-1.4-0.4-2.2
		C22.7,207.2,23,207,23.6,207z M10.6,243c1.2,0,2.6,0.2,4.3,0.6c0.5,0.2,0.9,0.3,1.2,0.5c3.4-0.2,6.5-0.5,9.3-0.9
		c2.4-0.4,4.8-0.9,7.3-1.7c0.8-0.3,1.5-0.4,2.2-0.4c1.1,0,2.8,0.7,5.2,2c2.9,1.8,4.3,3.1,4.3,3.9c0,0.3-0.2,0.6-0.6,0.9
		c-1.1,0.7-1.9,1.6-2.4,2.6c-1.1,1.4-1.8,3.4-2.3,5.9c1.1,1.5,1.6,2.5,1.6,3.1c-0.1,0.2-0.3,0.2-0.7,0.2c-4.6,0-9.2,0.2-13.7,0.7
		c-2.4,0.2-4.2,0.4-5.4,0.5c-0.2,1.8-0.9,2.7-2.2,2.7c-0.8,0-1.6-0.4-2.3-1.2c-0.6-0.7-0.9-1.3-0.9-1.7c-0.7-1.6-1.4-4.3-1.9-8
		c-0.5-2.4-1.1-4.2-1.8-5.6c-0.6-1.2-1.3-2.1-2.1-2.6C9.7,243.4,10,243,10.6,243z M32.9,230.5c0.4,0,1.1,0.2,2.1,0.7
		c1.1,0.9,1.7,1.6,1.7,2.3c0,0.6-0.1,1.1-0.2,1.5c-0.2,0.5-0.6,0.9-0.9,1c-3.1,0.7-6.2,1.3-9.4,1.7c-2.2,0.3-3.9,0.5-5.1,0.5
		c-2.6,0-4.3-0.8-5.2-2.3c-0.6-0.9-0.9-1.6-0.9-2.1c0-0.2,0.1-0.2,0.4-0.2c4.6-0.2,8.3-0.6,10.9-1.1c2.1-0.4,3.9-1,5.4-1.5
		C32.2,230.6,32.5,230.5,32.9,230.5z M20.1,256.7c1.6-0.1,3.6-0.3,5.9-0.6c2.6-0.2,4.7-0.5,6.5-0.9c0.3-0.9,0.5-2.1,0.7-3.5
		c0.3-1.5,0.4-2.8,0.4-3.7c0-1.5-0.4-2.3-1.2-2.3c-1.3,0-3.9,0.3-7.9,0.9c-2.8,0.4-4.9,0.7-6.4,0.9L20.1,256.7z"/>
	<path d="M52.8,307.2c0,4.8-1.9,8.7-5.6,11.8c-4.1,3.3-10,5.5-17.8,6.5c6-3.4,10.2-6.5,12.5-9.3c2.7-3.1,4.1-6.1,4.1-9
		c0-4.5-2.1-6.7-6.5-6.7c-3.2,0-7.7,1.5-13.3,4.4c-1.3,0.6-2.7,1.4-4.2,2.4v7.1v3.8c0.2,1.1,0.2,2.1,0.2,3.1c0,1.5-0.7,2.9-2,4.4
		c-1.2,1.3-2.1,2-2.7,2.1c-0.8,0-1.5-0.9-2.2-2.6c-1-2.3-2.4-4.9-4.3-7.7c2.5,1.2,4,1.8,4.6,2c0.3-0.1,0.5-0.5,0.5-1.2v-6.5
		c-1.3,1.3-2.6,2.5-3.8,3.8c-1.9,1.8-3.2,2.8-3.8,3c-1.8,0-2.7-1.3-2.7-3.8c0-1.8,0.7-2.8,2.1-3.3c0.8-0.3,2.8-2.4,6-6.4
		c0.6-0.7,1.4-1.6,2.4-2.7V299c-0.5,0.4-0.9,0.7-1.2,0.9c-1.8,1.6-3,2.4-3.6,2.5c-1.1-0.1-2.2-0.4-3.2-0.9c-1-0.6-1.5-1.2-1.5-2
		c0-0.5,1.1-1,3.2-1.6c1.3-0.3,3.4-1.4,6.4-3.3V291c0-2.3-0.1-4-0.4-5.1c-0.2-1.1-0.4-1.9-0.4-2.4c0-1,0.6-1.5,1.9-1.5
		s2.8,0.5,4.5,1.6c1.1,1.1,1.8,2.2,2.1,3.2c0,0.1-0.2,0.3-0.5,0.8c-0.2,0.4-0.4,0.8-0.6,1.2c-0.1,0.3-0.3,1.4-0.5,3.3
		c0.8,0.1,1.6,0.4,2.4,1c1,0.8,1.5,1.6,1.6,2.3c0,0.7-1.4,2.6-4.3,5.8v1c3.1-1.8,6.1-3.1,9.1-4.2c4-1.3,7.2-2,9.7-2
		c3.9,0,6.9,1,8.9,3.1C51.7,301.3,52.8,304,52.8,307.2z"/>
	<path d="M51.2,372.3c0,1.3-1.1,1.9-3.3,1.9c-2.8-0.3-4.5-0.5-4.9-0.5c-0.9,0-2.2,0-4,0.1c-0.4,3.4-0.9,6-1.6,7.8
		c-1.2,3.1-2.4,4.6-3.4,4.6c-1-0.1-3.2-2.8-6.7-8.2c2,1,3.5,1.5,4.5,1.5c0.5-0.1,1-1.6,1.4-4.5c0-0.2,0-0.3,0.1-0.5
		c-4.8,0.9-9,1.9-12.5,3.1c0.2,2.7,0.4,4.4,0.5,5.1c0.3,2.3,0.8,3.8,1.3,4.7c1,1.3,2.5,2.1,4.6,2.1c1.6,0.1,3.8-0.1,6.8-0.7
		c3-0.5,5.2-0.7,6.7-0.7c2.6,0,3.9,1.2,3.8,3.5c0,2.2-3.8,3.2-11.4,3.1c-6.9,0-11.7-1.4-14.2-4.1c-2.1-2.2-3.5-5.8-4-10.7
		c-2.5,1-4.4,1.6-5.7,1.7c-1,0-2.2-0.5-3.8-1.4c-1.5-1-2.3-1.9-2.3-2.8c0-0.4,1.3-0.8,3.8-1.2c2.2-0.2,4.8-0.7,7.8-1.5v-1.6
		c0-2.6,0.1-4.4,0.2-5.4c0.5-2.3,1.5-3.5,3.2-3.5c1.3,0,3.2,1.4,5.8,4.3c-1.6-0.8-2.5-1.2-2.7-1.2s-0.4,0.3-0.4,0.9
		c-0.1,0.6-0.1,1.8-0.1,3.6v1.1c2.4-0.6,5.1-1.3,8.1-2l5.3-1.2c0.2-3.5,0.4-5.8,0.4-6.8c0-2.3-0.2-3.9-0.5-4.8
		c-0.5-0.7-0.7-1.2-0.7-1.5c0-1.1,0.4-1.6,1.2-1.6s2.2,0.5,4.1,1.4c1.4,0.7,2.1,1.4,2.2,2.3c0,0.2-0.3,0.6-0.7,1.3
		c-0.2,0.6-0.3,2-0.4,4.2c0,2.6-0.1,4.1-0.2,4.3c3.3-0.6,5.3-0.9,6-0.9c1.3,0,2.6,0.4,3.8,1.3C50.4,370,51.1,371,51.2,372.3z"/>
</g>
</svg>
