<?xml version="1.0" encoding="utf-8"?>
<!-- Generator: Adobe Illustrator 23.0.1, SVG Export Plug-In . SVG Version: 6.00 Build 0)  -->
<svg version="1.1" id="レイヤー_1" xmlns="http://www.w3.org/2000/svg" xmlns:xlink="http://www.w3.org/1999/xlink" x="0px"
	 y="0px" viewBox="0 0 59 269" style="enable-background:new 0 0 59 269;" xml:space="preserve">
<style type="text/css">
	.st0{display:none;fill:#1A1A1A;}
	.st1{font-family:'DFKaiSho-Bd-WING-RKSJ-H';}
	.st2{font-size:62px;glyph-orientation-vertical:0;writing-mode:tb;}
	.st3{letter-spacing:9;}
	.st4{display:none;}
	.st5{display:inline;fill:#1A1A1A;}
	.st6{fill:#1A1A1A;}
</style>
<text transform="matrix(1 0 0 1 31 0)" class="st0 st1 st2 st3">新着情報</text>
<g class="st4">
	<path class="st5" d="M25.25,6.36c0.32,0,0.87,0.14,1.63,0.42c1.01,0.65,1.51,1.23,1.51,1.76c0,0.44-0.08,0.87-0.24,1.27
		c-0.16,0.44-0.4,0.73-0.73,0.85c-1.61,0.48-3.21,0.87-4.78,1.15c0.85,0.12,1.7,0.32,2.54,0.61c1.33,0.4,2,0.89,2,1.45
		c0,0.16-0.16,0.44-0.48,0.85c-0.65,0.81-1.13,1.43-1.45,1.88c-0.77,1.13-1.7,2.3-2.79,3.51c0.89-0.2,1.78-0.38,2.66-0.54
		c0.65-0.08,1.23-0.12,1.76-0.12c1.98,0.12,2.97,1.23,2.97,3.33c0,0.44-0.85,0.71-2.54,0.79c-2.38,0.12-5.07,0.48-8.05,1.09
		c1.05,0.57,1.57,1.17,1.57,1.82c0,0.16-0.08,0.34-0.24,0.54c-0.16,0.4-0.26,0.93-0.3,1.57c0.89-0.24,1.78-0.48,2.66-0.73
		c0.65-0.12,1.25-0.18,1.82-0.18c0.85,0,1.78,0.32,2.79,0.97c0.85,0.61,1.27,1.39,1.27,2.36c0,1.01-0.22,1.51-0.67,1.51
		c-2.79,0-5.45,0.12-7.99,0.36c0.04,0.69,0.06,1.39,0.06,2.12c0.28,0,0.52,0.02,0.73,0.06c1.09,0.28,2.18,0.63,3.27,1.03
		c1.41,0.65,2.36,1.21,2.85,1.7c0.4,0.44,0.61,0.93,0.61,1.45c0,0.65-0.24,1.33-0.73,2.06c-0.4,0.61-0.97,0.91-1.7,0.91
		c-0.93,0-1.6-0.34-2-1.03c-0.28-0.32-0.75-0.97-1.39-1.94c-0.73-1.33-1.25-2.24-1.57-2.72c0.16,3.03,0.42,6.12,0.79,9.26
		c0,1.53-0.65,3.15-1.94,4.84c-1.13,1.49-2.1,2.24-2.91,2.24c-0.77,0-1.39-0.48-1.88-1.45c-0.69-1.21-2.38-3.01-5.09-5.39
		c0-0.44,0.24-0.67,0.73-0.67c1.65,0.61,2.85,0.91,3.57,0.91c0.52,0,0.85-0.67,0.97-2c0.2-2.14,0.3-5.45,0.3-9.93V33.6
		c-1.37,0.2-2.81,0.53-4.3,0.97c-0.69,0.24-1.11,0.36-1.27,0.36c-0.69,0-1.49-0.46-2.42-1.39c-0.85-0.69-1.27-1.27-1.27-1.76
		c0-0.2,0.08-0.3,0.24-0.3c3.39-0.52,6.34-1.05,8.84-1.57c-0.04-0.69-0.08-1.39-0.12-2.12c-0.08-0.89-0.16-1.59-0.24-2.12
		c-2.42,0.57-5.13,1.27-8.11,2.12l-1.03,0.3c-0.32,0-1.13-0.46-2.42-1.39c-1.33-1.21-2-2.36-2-3.45c0-0.16,0.16-0.24,0.48-0.24
		c2.22-0.04,4.5-0.2,6.84-0.48c2.74-0.32,6.5-0.95,11.26-1.88c0.56-1.49,0.99-2.93,1.27-4.3c0.16-0.97,0.24-1.71,0.24-2.24
		c0-0.28-0.28-0.89-0.85-1.82c-0.81,0.12-1.57,0.24-2.3,0.36c-2.38,0.44-4.14,0.67-5.27,0.67c-2.1,0-3.49-0.58-4.18-1.76
		c-0.44-0.77-0.67-1.31-0.67-1.63c0-0.16,0.06-0.24,0.18-0.24c4.64-0.24,8.27-0.67,10.9-1.27c2.1-0.56,3.91-1.15,5.45-1.76
		C24.5,6.46,24.88,6.36,25.25,6.36z M8.48,36.33c0.2,0,0.4,0.24,0.61,0.73c0.61,1.21,0.91,2.2,0.91,2.97c0,1.33-0.34,2.77-1.03,4.3
		c-0.36,1.05-0.85,1.86-1.45,2.42c-0.4,0.53-0.81,0.79-1.21,0.79c-1.17,0-2.12-0.42-2.85-1.27c-0.36-0.69-0.54-1.41-0.54-2.18
		c0-0.48,0.16-0.99,0.48-1.51c2.58-2.79,3.98-4.56,4.18-5.33C7.69,36.63,7.99,36.33,8.48,36.33z M9.99,14.59
		c0.44,0,1.01,0.06,1.7,0.18c1.53,0.4,2.72,0.89,3.57,1.45c0.65,0.53,0.97,1.25,0.97,2.18c0,0.61-0.28,1.17-0.85,1.7
		c-0.69,0.48-1.37,0.73-2.06,0.73c-0.28,0-0.59-0.2-0.91-0.61c-0.69-0.73-1.57-2.28-2.66-4.66c-0.16-0.24-0.24-0.42-0.24-0.54
		C9.55,14.73,9.71,14.59,9.99,14.59z M15.32,0c1.05,0,2.36,0.28,3.94,0.85c1.53,0.48,2.56,0.93,3.09,1.33
		c0.48,0.48,0.73,1.07,0.73,1.76c0,1.94-1.13,2.91-3.39,2.91c-0.77,0-1.72-0.89-2.85-2.66c-1.33-1.94-2-3.17-2-3.69
		C14.83,0.2,14.99,0.04,15.32,0z M44.32,3.69c0.77,0,2.52,0.57,5.27,1.7c2.14,1.13,3.21,2.08,3.21,2.85c0,0.44-0.26,0.75-0.79,0.91
		c-1.98,0.77-3.29,1.23-3.94,1.39c-0.93,0.2-2.16,0.61-3.69,1.21c-2.83,1.05-5.05,1.78-6.66,2.18l-0.06,0.24
		c-0.4,0.73-0.61,1.45-0.61,2.18c-0.04,1.94-0.1,3.73-0.18,5.39c3.63-0.81,7.41-1.74,11.32-2.79c1.05-0.36,2.04-0.54,2.97-0.54
		c0.89,0,1.96,0.38,3.21,1.15c1.25,0.77,1.88,1.62,1.88,2.54c0,0.85-0.51,1.31-1.51,1.39c-1.17,0.08-2.54,0.2-4.12,0.36
		c-1.09,0.12-2.28,0.26-3.57,0.42c1.73,0.57,2.6,1.11,2.6,1.63c0,0.44-0.06,0.91-0.18,1.39c-0.48,0.73-0.73,2.22-0.73,4.48
		c0,8.15-0.14,13.44-0.42,15.86c-0.16,2.5-0.61,4.52-1.33,6.05c-0.73,1.53-1.45,2.3-2.18,2.3c-0.69,0-1.13-0.85-1.33-2.54
		c-0.36-0.53-0.54-8.48-0.54-23.86c0-1.86-0.34-3.43-1.03-4.72c-1.33,0.16-2.69,0.3-4.06,0.42c-0.32,0.08-0.59,0.12-0.79,0.12
		c-0.12-0.04-0.24-0.08-0.36-0.12c-0.08,1.78-0.2,3.39-0.36,4.84c-0.4,3.75-1.09,6.72-2.06,8.9c-1.37,2.99-3.25,5.33-5.63,7.02
		c-1.53,1.13-2.58,1.7-3.15,1.7h-0.24c0.93-1.33,1.8-2.79,2.6-4.36c1.17-2.54,2.04-5.13,2.6-7.75c0.69-2.99,1.03-8.13,1.03-15.44
		c0-2.02-0.14-3.77-0.42-5.27c-0.08-1.09-0.59-2.08-1.51-2.97c-0.16-0.2-0.24-0.38-0.24-0.54c0-0.52,0.65-0.79,1.94-0.79
		c1.98,0,3.75,0.36,5.33,1.09c0.2,0.08,0.36,0.14,0.48,0.18c0.97-0.56,1.84-1.17,2.6-1.82c1.17-0.85,2.12-1.88,2.85-3.09
		c0.44-0.61,0.83-1.47,1.15-2.6C43.65,3.94,43.88,3.69,44.32,3.69z"/>
	<path class="st5" d="M38.99,77.66c0.36,0,0.95,0.14,1.76,0.42c0.93,0.65,1.39,1.23,1.39,1.76c0,0.44-0.06,0.87-0.18,1.27
		c-0.2,0.44-0.44,0.73-0.73,0.85c-3.27,0.77-6.62,1.41-10.05,1.94c-0.04,0.97-0.06,1.86-0.06,2.66c1.01-0.2,1.96-0.4,2.85-0.61
		c0.97-0.2,1.7-0.3,2.18-0.3c2.54,0,3.81,0.97,3.81,2.91c0,0.4-0.34,0.67-1.03,0.79c-2.75,0.48-5.37,0.89-7.87,1.21
		c-0.04,0.89-0.06,1.76-0.06,2.6c4.72-0.61,8.29-1.11,10.72-1.51c2.46-0.28,4.46-0.42,5.99-0.42c0.4,0,1.51,0.4,3.33,1.21
		c1.7,1.17,2.54,2.14,2.54,2.91c0,1.41-0.89,2.12-2.66,2.12c-0.4,0-1.13-0.08-2.18-0.24c-1.05-0.16-1.94-0.24-2.66-0.24
		c-5.25,0-10.41,0.12-15.5,0.36c-2.58,0.12-5.21,0.38-7.87,0.79c0.32,0.12,0.65,0.26,0.97,0.42c1.21,0.36,1.82,0.89,1.82,1.57
		c0,0.2-0.12,0.36-0.36,0.48c-0.24,0.28-0.54,0.71-0.91,1.27c-0.28,0.4-0.52,0.77-0.73,1.09c1.78-0.24,3.9-0.67,6.36-1.27
		c1.98-0.36,4.08-1.05,6.3-2.06c0.44-0.16,0.83-0.24,1.15-0.24c0.61,0,2,0.61,4.18,1.82c2.58,1.37,3.88,2.32,3.88,2.85
		c0,0.08-0.08,0.2-0.24,0.36c-1.29,2.3-1.94,3.96-1.94,4.96c0,2.34,0.22,5.01,0.67,7.99c0.16,2.71,0.24,4.42,0.24,5.15
		c0,1.09-0.59,2.2-1.76,3.33c-1.29,1.09-2.4,1.63-3.33,1.63c-0.12,0-0.28-0.42-0.48-1.27c-0.65-1.57-1.25-2.91-1.82-4
		c-2.34,0.04-4.7,0.18-7.08,0.42c-1.74,0.2-3.03,0.34-3.88,0.42v0.06c-0.12,0.73-0.48,1.47-1.09,2.24
		c-0.73,0.65-1.33,0.97-1.82,0.97c-1.01,0-1.78-0.77-2.3-2.3c-0.57-1.21-0.85-2.14-0.85-2.79l0.06-0.36
		c0.32-1.29,0.52-2.32,0.61-3.09c0.2-1.65,0.3-3.73,0.3-6.24c-0.12-1.78-0.28-3.23-0.48-4.36c-0.69,0.81-1.35,1.53-2,2.18
		c-2.18,2.38-4.52,4.34-7.02,5.87c-2.06,1.37-4.06,2.38-5.99,3.03c-0.77,0.36-1.27,0.54-1.51,0.54v-0.24
		c2.91-2.42,5.45-4.8,7.63-7.14c1.49-1.61,2.91-3.37,4.24-5.27c1.25-1.78,2.18-3.51,2.79-5.21c0.24-0.65,0.36-1.17,0.36-1.57
		c-0.12-0.24-0.22-0.46-0.3-0.67c-0.24,0.04-0.46,0.08-0.67,0.12c-2.14,0.36-4.74,0.97-7.81,1.82c-0.61,0.08-0.91,0.16-0.91,0.24
		c-0.52,0-1.43-0.65-2.72-1.94c-1.05-1.33-1.57-2.16-1.57-2.48c0-0.28,0.16-0.42,0.48-0.42c1.21-0.08,2.64-0.2,4.3-0.36
		c6.18-0.73,11.56-1.35,16.17-1.88c0.04-1.09,0.08-1.96,0.12-2.6c-2.62,0.28-4.32,0.42-5.09,0.42c-0.93,0-1.72-0.24-2.36-0.73
		c-0.52-0.48-0.79-0.97-0.79-1.45c0-0.4,0.16-0.65,0.48-0.73c2.66-0.32,5.23-0.69,7.69-1.09c-0.08-1.05-0.2-1.98-0.36-2.79
		c-2.58,0.36-4.54,0.54-5.87,0.54c-2.14,0-3.51-0.61-4.12-1.82c-0.48-0.77-0.73-1.31-0.73-1.63c0-0.16,0.08-0.24,0.24-0.24
		c6.38-0.32,11.42-0.85,15.14-1.57c2.87-0.65,5.39-1.35,7.57-2.12C38.02,77.78,38.51,77.66,38.99,77.66z M18.41,72.81
		c0.61,0,1.29,0.08,2.06,0.24c1.86,0.4,3.29,0.91,4.3,1.51c0.77,0.53,1.15,1.29,1.15,2.3c0,0.65-0.34,1.27-1.03,1.88
		c-0.81,0.53-1.57,0.79-2.3,0.79c-0.4,0-0.79-0.22-1.15-0.67c-0.77-0.77-1.84-2.44-3.21-5.03c-0.16-0.28-0.24-0.48-0.24-0.61
		C18.02,72.96,18.16,72.81,18.41,72.81z M25.61,119.86c1.05-0.12,2.22-0.26,3.51-0.42c2.54-0.24,4.58-0.54,6.12-0.91
		c0.4-0.16,0.77-0.24,1.09-0.24c0.4,0,0.79,0.1,1.15,0.3c0.08-1.37,0.12-3.45,0.12-6.24c0-2.46-0.1-4.5-0.3-6.12
		c-0.16-0.81-0.52-1.31-1.09-1.51c-0.32-0.16-0.93-0.24-1.82-0.24c-0.24,0-0.54,0.02-0.91,0.06c-3.23,0.36-5.87,0.83-7.93,1.39
		c-0.04,0.65-0.06,1.47-0.06,2.48c1.86-0.32,3.59-0.69,5.21-1.09c0.44-0.12,0.79-0.18,1.03-0.18c2.3,0,3.45,0.81,3.45,2.42
		c0,0.28-0.2,0.46-0.61,0.54c-2.34,0.48-4.54,0.85-6.6,1.09c-1.13,0.16-1.96,0.26-2.48,0.3v2.6c2.02-0.32,3.9-0.73,5.63-1.21
		c0.48-0.12,0.85-0.18,1.09-0.18c2.3,0,3.45,0.81,3.45,2.42c0,0.28-0.2,0.46-0.61,0.54c-2.34,0.48-4.54,0.85-6.6,1.09
		c-1.49,0.16-2.46,0.26-2.91,0.3C25.59,118.08,25.61,119.01,25.61,119.86z M34.15,70.15c0.85,0,2.26,0.32,4.24,0.97
		c2.02,1.13,3.03,2,3.03,2.6c0,0.24-0.3,0.46-0.91,0.67c-0.77,0.2-1.61,0.59-2.54,1.15c-3.71,2.06-6.6,3.39-8.66,4
		c-0.16,0-0.24-0.08-0.24-0.24c0.77-0.81,1.35-1.49,1.76-2.06c0.73-0.97,1.35-2.02,1.88-3.15c0.36-0.61,0.54-1.03,0.54-1.27
		c0-0.2-0.04-0.4-0.12-0.61C33.04,71.76,33,71.46,33,71.3C33,70.53,33.38,70.15,34.15,70.15z"/>
	<path class="st5" d="M5.81,161.79c0.24,0,0.46,0.26,0.67,0.79c0.73,1.49,1.09,2.66,1.09,3.51c0,1.98-0.34,4.04-1.03,6.18
		c-0.36,1.49-0.85,2.66-1.45,3.51c-0.4,0.69-0.79,1.03-1.15,1.03c-1.37,0-2.46-0.46-3.27-1.39C0.22,174.61,0,173.76,0,172.87
		c0-0.69,0.16-1.43,0.48-2.24c2.7-3.96,4.16-6.52,4.36-7.69C5,162.18,5.33,161.79,5.81,161.79z M8.96,144.54
		c1.86,0,3.77,0.5,5.75,1.51c1.86,0.77,2.79,1.66,2.79,2.66c0,0.4-0.12,0.85-0.36,1.33c-0.32,2.22-0.57,4.36-0.73,6.42
		c1.49,0.48,2.79,1.01,3.88,1.57c0.61,0.28,1.11,0.81,1.51,1.57c0.44,0.89,0.71,1.78,0.79,2.66c0,1.29-0.59,1.94-1.76,1.94
		c-1.74,0-2.77-0.34-3.09-1.03c-0.44-0.73-0.85-1.55-1.21-2.48c-0.12-0.32-0.24-0.65-0.36-0.97c-0.28,3.63-0.42,6.96-0.42,9.99
		v22.28c0,1.05-0.46,2.18-1.39,3.39c-0.57,1.29-1.29,1.94-2.18,1.94c-1.09,0-2-0.87-2.72-2.6c-0.65-1.05-0.97-2.34-0.97-3.88
		c0.65-2.79,1.17-5.69,1.57-8.72c0.56-2.66,0.85-6.8,0.85-12.41c0-11.67-0.2-18.33-0.61-19.98c-0.4-1.53-1.09-3.03-2.06-4.48
		C8.23,144.78,8.48,144.54,8.96,144.54z M45.35,146.05c0.36,0,0.97,0.16,1.82,0.48c1.05,0.73,1.57,1.37,1.57,1.94
		c0,0.44-0.08,0.87-0.24,1.27c-0.16,0.44-0.42,0.73-0.79,0.85c-2.87,0.77-5.83,1.39-8.9,1.88c-0.08,0.93-0.16,1.9-0.24,2.91
		c0.52-0.12,1.05-0.24,1.57-0.36c0.77-0.16,1.35-0.24,1.76-0.24c2.95,0,4.42,1.03,4.42,3.09c0,0.4-0.3,0.65-0.91,0.73
		c-2.5,0.53-4.86,0.93-7.08,1.21c-0.04,1.21-0.1,2.46-0.18,3.75c5.13-0.77,9.18-1.49,12.17-2.18c0.36-0.04,0.65-0.06,0.85-0.06
		c1.01,0,2.22,0.36,3.63,1.09c1.29,1.01,1.94,2,1.94,2.97c0,1.33-0.51,2-1.51,2c-0.85,0-2.36-0.12-4.54-0.36
		c-1.33-0.24-2.48-0.36-3.45-0.36c-5.45,0-9.89,0.24-13.32,0.73c-2.91,0.32-5.75,0.91-8.54,1.76c-0.65,0.28-1.27,0.42-1.88,0.42
		c-0.85,0-1.8-0.5-2.85-1.51c-0.81-0.97-1.21-1.61-1.21-1.94c0-0.32,0.16-0.48,0.48-0.48c2.1,0,6.4-0.42,12.9-1.27
		c0.04-1.45,0.1-2.74,0.18-3.88c-1.57,0.2-2.62,0.3-3.15,0.3c-0.97,0-1.82-0.28-2.54-0.85c-0.61-0.61-0.91-1.21-0.91-1.82
		c0-0.24,0.16-0.4,0.48-0.48c2.18-0.28,4.26-0.63,6.24-1.03c0.04-1.13,0.06-2.18,0.06-3.15c-1.49,0.24-2.7,0.36-3.63,0.36
		c-2.3,0-3.79-0.61-4.48-1.82c-0.57-0.77-0.85-1.31-0.85-1.63c0-0.32,0.18-0.48,0.54-0.48c3.23-0.16,6.05-0.4,8.48-0.73
		c0-1.17-0.04-1.98-0.12-2.42c-0.28-0.97-0.63-1.71-1.03-2.24c-0.4-0.56-0.61-1.03-0.61-1.39c0-0.81,0.34-1.21,1.03-1.21
		c1.49,0,2.95,0.36,4.36,1.09c2.06,0.73,3.09,1.41,3.09,2.06c-0.04,0.32-0.08,0.71-0.12,1.15c-0.16,0.4-0.32,0.99-0.48,1.76
		c1.78-0.48,3.33-0.99,4.66-1.51C44.42,146.17,44.87,146.05,45.35,146.05z M26.64,170.27c1.37,0,2.4,0.12,3.09,0.36
		c0.65,0.04,1.09,0.18,1.33,0.42c2.58-0.48,5.06-1.03,7.45-1.63c1.13-0.32,2.06-0.71,2.79-1.15c0.24-0.16,0.44-0.24,0.61-0.24
		c0.65,0,1.88,0.36,3.69,1.09c2.1,1.05,3.15,2,3.15,2.85c0,0.12-0.06,0.26-0.18,0.42c-0.57,1.29-0.85,3.83-0.85,7.63
		c0,0.61,0.14,2.77,0.42,6.48c0.24,2.87,0.36,4.8,0.36,5.81c0,0.93-0.63,2.28-1.88,4.06c-1.41,1.61-2.56,2.42-3.45,2.42
		c-4.56-4.48-6.84-6.82-6.84-7.02c0-0.32,0.08-0.48,0.24-0.48c2.14,0.48,3.53,0.73,4.18,0.73c0.61,0,0.99-0.44,1.15-1.33
		c0.32-1.37,0.48-4.2,0.48-8.48c0-2.14-0.24-5.09-0.73-8.84c0-0.44-0.38-0.67-1.15-0.67c-0.77,0-1.88,0.08-3.33,0.24
		c-1.82,0.32-3.81,0.83-5.99,1.51c-0.04,0.73-0.06,1.43-0.06,2.12v0.67c1.73-0.4,3.35-0.83,4.84-1.27c0.36-0.12,0.65-0.18,0.85-0.18
		c2.62,0,3.94,0.97,3.94,2.91c0,0.24-0.16,0.38-0.48,0.42c-1.94,0.44-3.75,0.77-5.45,0.97c-1.33,0.24-2.2,0.36-2.6,0.36
		c-0.4,0-0.79-0.06-1.15-0.18c0,1.21-0.04,2.3-0.12,3.27c1.73-0.24,3.33-0.5,4.78-0.79c0.36-0.08,0.65-0.12,0.85-0.12
		c2.62,0,3.94,0.97,3.94,2.91c0,0.16-0.18,0.24-0.54,0.24c-1.94,0.32-3.77,0.54-5.51,0.67c-1.37,0.16-2.28,0.24-2.72,0.24
		c-0.36,0-0.71-0.04-1.03-0.12c0,0.08,0,0.14,0,0.18c-0.36,3.31-0.83,5.71-1.39,7.21c-0.61,1.17-1.31,1.76-2.12,1.76
		c-0.93,0-1.61-0.54-2.06-1.63c-0.44-0.85-0.67-1.86-0.67-3.03c0-0.32,0.06-0.69,0.18-1.09c0.81-2.22,1.35-4.44,1.63-6.66
		c0.24-1.86,0.36-4.5,0.36-7.93c0-0.85-0.08-1.65-0.24-2.42c-0.32-1.05-0.48-1.71-0.48-2C25.91,170.49,26.16,170.27,26.64,170.27z"
		/>
	<path class="st5" d="M23.98,223.16c0.28,0,0.79,0.12,1.51,0.36c0.77,0.57,1.15,1.09,1.15,1.57c0,0.4-0.06,0.77-0.18,1.09
		c-0.12,0.44-0.3,0.71-0.54,0.79c-1.57,0.53-3.19,0.97-4.84,1.33c-0.12,1.41-0.22,2.93-0.3,4.54c1.17-0.28,2.38-0.56,3.63-0.85
		c0.69-0.12,1.27-0.18,1.76-0.18c1.78,0.12,2.66,1.17,2.66,3.15c0,0.48-0.81,0.77-2.42,0.85c-0.44,0.04-0.85,0.08-1.21,0.12
		c0.48,0.24,0.73,0.48,0.73,0.73c0,0.16-0.12,0.42-0.36,0.79c-0.52,0.77-0.95,1.33-1.27,1.7c-0.44,0.81-0.97,1.55-1.57,2.24
		c0.24-0.08,0.46-0.14,0.67-0.18c0.61-0.08,1.15-0.12,1.63-0.12c1.78,0.12,2.66,1.15,2.66,3.09c0,0.44-0.73,0.71-2.18,0.79
		c-1.7,0.12-3.51,0.38-5.45,0.79c0.85,0.61,1.27,0.97,1.27,1.09c0,0.48-0.12,1.01-0.36,1.57c-0.12,0.32-0.2,0.69-0.24,1.09
		c0.56-0.2,1.15-0.38,1.76-0.54c0.48-0.08,0.91-0.12,1.27-0.12c1.78,0.12,2.66,1.15,2.66,3.09c0,0.48-0.59,0.77-1.76,0.85
		c-1.25,0.08-2.58,0.3-4,0.67v9.87c0,2.06-0.34,3.31-1.03,3.75c-0.69,0.89-1.39,1.33-2.12,1.33c-0.61,0-1.25-0.53-1.94-1.57
		c-0.65-1.05-0.97-2.54-0.97-4.48c0-0.16,0.1-0.48,0.3-0.97c0.32-0.77,0.48-1.27,0.48-1.51c0.16-1.61,0.26-3.29,0.3-5.03
		c-1.78,0.57-3.84,1.35-6.18,2.36l-0.79,0.3c-0.28,0-1.01-0.42-2.18-1.27c-1.25-1.09-1.88-2.12-1.88-3.09
		c0-0.16,0.16-0.24,0.48-0.24c1.57-0.04,3.21-0.22,4.9-0.54c1.49-0.28,3.39-0.75,5.69-1.39v-0.48c0-1.53-0.24-2.66-0.73-3.39
		l-0.06-0.18c-2.26,0.57-4.82,1.35-7.69,2.36L6.3,249.5c-0.28,0-1.01-0.42-2.18-1.27c-1.25-1.09-1.88-2.12-1.88-3.09
		c0-0.16,0.14-0.24,0.42-0.24c1.9-0.04,3.88-0.2,5.93-0.48c2.58-0.4,6.24-1.17,10.96-2.3c0.32-1.09,0.58-2.14,0.79-3.15
		c0.2-0.89,0.3-1.57,0.3-2.06c0-0.08-0.04-0.22-0.12-0.42c-1.21,0.2-2.38,0.42-3.51,0.67c-1.13,0.2-2.38,0.48-3.75,0.85
		c0.69,0.32,1.23,0.65,1.63,0.97c0.56,0.53,0.85,1.31,0.85,2.36c0,0.48-0.26,0.97-0.79,1.45c-0.65,0.48-1.27,0.73-1.88,0.73
		c-0.24,0-0.51-0.24-0.79-0.73c-0.52-0.69-1.21-2.02-2.06-4c-1.29,0.36-2.66,0.77-4.12,1.21l-0.97,0.36c-0.32,0-1.09-0.44-2.3-1.33
		c-1.25-1.09-1.88-2.1-1.88-3.03c0-0.16,0.18-0.24,0.54-0.24c2.1-0.04,4.26-0.22,6.48-0.54c1.94-0.28,4.4-0.71,7.39-1.27
		c0.04-1.65,0.08-3.13,0.12-4.42c-1.33,0.24-2.36,0.36-3.09,0.36c-1.9,0-3.15-0.54-3.75-1.63c-0.44-0.73-0.67-1.23-0.67-1.51
		c0-0.16,0.08-0.24,0.24-0.24c2.95-0.2,5.41-0.46,7.39-0.79c0.04-1.25,0.06-2.32,0.06-3.21c0-2.14-0.06-3.53-0.18-4.18
		c-0.24-0.81-0.54-1.47-0.91-2c-0.36-0.48-0.54-0.87-0.54-1.15c0-0.85,0.34-1.27,1.03-1.27c1.49,0,2.95,0.36,4.36,1.09
		c2.1,0.73,3.15,1.43,3.15,2.12c-0.04,0.28-0.08,0.61-0.12,0.97c-0.4,0.85-0.77,2.85-1.09,5.99c0.61-0.2,1.15-0.4,1.63-0.61
		C23.33,223.27,23.65,223.16,23.98,223.16z M30.09,221.17c0.97,0,2.16,0.36,3.57,1.09c0.65,0.24,1.09,0.44,1.33,0.61
		c1.41-0.16,3.07-0.42,4.96-0.79c1.21-0.16,2.66-0.58,4.36-1.27c0.2-0.04,0.44-0.06,0.73-0.06c0.32,0,1.33,0.53,3.03,1.57
		c1.73,1.05,2.6,1.9,2.6,2.54c0,0.12-0.12,0.28-0.36,0.48c-0.77,0.65-1.19,1.17-1.27,1.57c-0.44,3.03-0.97,5.33-1.57,6.9
		c-0.52,1.49-1.11,2.48-1.76,2.97c-0.4,0.4-0.99,0.81-1.76,1.21c-0.65,0.28-1.07,0.42-1.27,0.42c-0.52,0-0.93-0.26-1.21-0.79
		c-1.29-2.14-2.54-3.71-3.75-4.72c-0.28-0.12-0.42-0.22-0.42-0.3c0-0.36,0.1-0.54,0.3-0.54c2.34,0.53,3.69,0.79,4.06,0.79
		c0.48,0,0.95-0.44,1.39-1.33c0.44-0.81,0.79-1.92,1.03-3.33c0.16-0.73,0.24-1.37,0.24-1.94c0-0.93-0.46-1.39-1.39-1.39
		c-1.09,0-2.16,0.04-3.21,0.12c-1.17,0.16-2.69,0.46-4.54,0.91v2.6c-0.04,4.92-0.06,9.49-0.06,13.68c1.49-0.04,3.01-0.18,4.54-0.42
		c1.9-0.24,3.85-0.67,5.87-1.27c0.4-0.08,0.73-0.12,0.97-0.12c0.69,0,1.8,0.34,3.33,1.03c1.82,1.13,2.72,2.14,2.72,3.03l-0.3,0.48
		c-1.05,1.05-1.94,2.48-2.66,4.3c-0.65,1.82-1.37,3.37-2.18,4.66c-0.48,0.73-1.17,1.55-2.06,2.48c2.74,1.98,6.68,3.92,11.81,5.81
		c0,0.53-0.36,0.85-1.09,0.97c-4.88,0.97-7.75,1.45-8.6,1.45c-1.01,0-1.68-0.26-2-0.79c-1.17-1.49-2.34-3.09-3.51-4.78
		c-0.36,0.24-0.73,0.46-1.09,0.67c-1.45,0.73-2.83,1.29-4.12,1.7c-0.65,0.2-1.23,0.34-1.76,0.42c-0.04,1.37-0.06,2.6-0.06,3.69
		c-0.16,0.73-0.54,1.47-1.15,2.24c-0.69,0.61-1.29,0.91-1.82,0.91c-0.93,0-1.68-0.75-2.24-2.24c-0.61-1.21-0.91-2.14-0.91-2.79
		c0.04,0,0.08-0.36,0.12-1.09c0.52-4.52,0.85-8.09,0.97-10.72c0.28-5.73,0.42-12.94,0.42-21.62c-0.24-3.83-0.71-6.28-1.39-7.33
		c-0.08-0.32-0.12-0.56-0.12-0.73C28.82,221.49,29.24,221.17,30.09,221.17z M35,260.4c0.16-0.08,0.3-0.16,0.42-0.24
		c1.17-0.65,2.3-1.39,3.39-2.24c0.52-0.48,1.03-0.97,1.51-1.45c-0.97-1.41-1.92-2.89-2.85-4.42c-0.77-1.21-1.55-2.18-2.36-2.91
		C35.08,253.34,35.04,257.09,35,260.4z M35.12,246.66h0.06c0.56,0,1.15,0.14,1.76,0.42c0.77,0.69,1.47,1.53,2.12,2.54
		c0.93,1.41,2.02,2.81,3.27,4.18c0.4-0.56,0.73-1.11,0.97-1.63c0.48-1.17,0.97-2.83,1.45-4.96c0.2-0.61,0.3-1.11,0.3-1.51
		c0-0.69-0.24-1.03-0.73-1.03c-2.18,0.16-4.14,0.36-5.87,0.61c-0.97,0.08-1.68,0.12-2.12,0.12c-0.4,0-0.81-0.12-1.21-0.36
		C35.12,245.59,35.12,246.13,35.12,246.66z"/>
</g>
<g class="st4">
	<path class="st5" d="M28.58,0c0.85,0,1.78,0.32,2.79,0.97c0.85,0.57,1.27,1.37,1.27,2.42c0,0.93-0.24,1.39-0.73,1.39
		c-2.06,0-4.04,0.06-5.93,0.18c0.4,0.32,0.61,0.53,0.61,0.61c0,0.44-0.12,0.93-0.36,1.45c-0.2,0.69-0.3,1.39-0.3,2.12V46.5
		c0,2.02-0.34,3.25-1.03,3.69c-0.69,0.93-1.39,1.39-2.12,1.39c-0.61,0-1.25-0.54-1.94-1.63c-0.65-1.05-0.97-2.54-0.97-4.48
		c0-0.56,0.1-1.61,0.3-3.15c0.32-2.22,0.48-3.73,0.48-4.54c0.04-1.78,0.1-3.59,0.18-5.45c-1.82,1.09-4.04,2.32-6.66,3.69
		c-2.26,1.17-4.88,2.71-7.87,4.6c-0.4,0.36-0.73,0.54-0.97,0.54c-0.65,0-1.7-0.89-3.15-2.66c-1.17-1.74-1.76-2.97-1.76-3.69
		c0-0.44,0.24-0.67,0.73-0.67c1.01-0.08,1.96-0.22,2.85-0.42c1.33-0.24,2.87-0.58,4.6-1.03L8.17,16.95c0-2.7-0.18-5.21-0.54-7.51
		C7.59,8.64,7.31,7.85,6.78,7.08H6.72c-0.97,0.28-1.6,0.42-1.88,0.42c-0.69,0-1.49-0.46-2.42-1.39C1.57,5.43,1.15,4.82,1.15,4.3
		c0-0.16,0.08-0.24,0.24-0.24c5.09-0.56,9.55-1.15,13.38-1.76c3.67-0.56,7.43-1.25,11.26-2.06C26.92,0.08,27.77,0,28.58,0z
		 M20.89,29.55c0.12-6.34,0.18-13.14,0.18-20.4c0-1.53-0.26-2.64-0.79-3.33c-0.12-0.2-0.2-0.38-0.24-0.54
		c-1.86,0.16-3.69,0.34-5.51,0.54c-0.85,0.08-1.7,0.18-2.54,0.3c1.49,0.65,2.24,1.27,2.24,1.88c0,0.2-0.04,0.44-0.12,0.73
		c-0.12,0.69-0.22,1.94-0.3,3.75c1.49-0.28,2.44-0.48,2.85-0.61c0.12-0.04,0.28-0.06,0.48-0.06c1.98,0,2.97,0.59,2.97,1.76
		c0,0.73-0.34,1.29-1.03,1.7c-1.29,0.2-3.01,0.42-5.15,0.67h-0.18l-0.06,5.33c1.53-0.32,2.52-0.54,2.97-0.67h0.48
		c1.98,0,2.97,0.54,2.97,1.63c0,0.77-0.34,1.35-1.03,1.76c-1.29,0.2-3.01,0.4-5.15,0.61c-0.08,0.04-0.18,0.06-0.3,0.06l-0.06,6.84
		c1.9-0.48,3.91-1.03,6.05-1.63C20.14,29.73,20.56,29.63,20.89,29.55z M44.32,7.75c0.81,0,2.14,0.4,4,1.21
		c2.18,1.37,3.27,2.56,3.27,3.57l-0.42,0.79c-1.37,1.62-2.5,3.79-3.39,6.54c-0.89,2.83-1.84,5.21-2.85,7.14
		c-0.52,1.01-1.25,2.06-2.18,3.15c3.59,2.54,8.46,4.99,14.59,7.33c0,0.61-0.4,1.01-1.21,1.21c-5.25,0.97-8.32,1.45-9.2,1.45
		c-1.45,0-2.42-0.32-2.91-0.97c-1.45-1.74-2.93-3.59-4.42-5.57c-0.97,0.93-2,1.76-3.09,2.48c-1.82,1.09-3.55,1.94-5.21,2.54
		c-1.53,0.57-2.87,0.85-4,0.85c-0.48,0-0.73-0.24-0.73-0.73c0-0.16,0.24-0.3,0.73-0.42c0.77-0.48,1.61-1.01,2.54-1.57
		c1.57-1.05,3.07-2.24,4.48-3.57c1.01-1.01,1.88-2.1,2.6-3.27c-1.41-1.98-2.85-4.04-4.3-6.18c-1.29-1.98-2.72-3.53-4.3-4.66
		c-0.69-0.12-1.03-0.69-1.03-1.7c0-0.32,0.65-0.48,1.94-0.48c0.77,0,1.53,0.22,2.3,0.67c0.97,0.85,1.88,1.98,2.72,3.39
		c1.21,1.94,2.74,3.9,4.6,5.87c0.52-0.97,0.97-1.88,1.33-2.72c0.69-1.82,1.35-4.42,2-7.81c0.24-1.05,0.36-1.88,0.36-2.48
		c0-0.85-0.24-1.27-0.73-1.27c-2.75,0.73-5.21,1.51-7.39,2.36c-1.09,0.4-1.94,0.61-2.54,0.61c-0.85,0-1.74-0.5-2.66-1.51
		c-0.77-0.81-1.15-1.45-1.15-1.94c0-0.16,0.16-0.24,0.48-0.24c2.5,0,4.98-0.32,7.45-0.97c2.3-0.61,4.62-1.55,6.96-2.85
		C43.51,7.83,43.96,7.75,44.32,7.75z"/>
	<path class="st5" d="M20.34,83.59c0.36,0,0.97,0.18,1.82,0.54c1.01,0.73,1.51,1.35,1.51,1.88c0,0.48-0.06,0.93-0.18,1.33
		c-0.16,0.44-0.4,0.73-0.73,0.85c-1.66,0.53-3.35,1.01-5.09,1.45v6.54c0.77-0.32,1.55-0.67,2.36-1.03c1.61-0.77,2.6-1.15,2.97-1.15
		c0.77,0,1.15,0.42,1.15,1.27c0,0.16-0.24,0.42-0.73,0.79c-1.41,1.09-3.33,2.44-5.75,4.06v15.26c0,1.7-0.52,3.37-1.57,5.03
		c-0.81,1.13-1.51,1.7-2.12,1.7c-0.97,0-1.66-0.4-2.06-1.21c-0.57-1.09-2.62-3.11-6.18-6.05c0-0.48,0.24-0.73,0.73-0.73
		c2.22,0.85,3.67,1.27,4.36,1.27c0.48,0,0.79-0.44,0.91-1.33c0.36-1.21,0.63-3.85,0.79-7.93c0.04-0.89,0.08-1.8,0.12-2.72
		c-2.02,1.37-4.36,3.05-7.02,5.03c-0.4,0.4-0.75,0.61-1.03,0.61c-0.61,0-1.55-0.81-2.85-2.42c-1.01-1.57-1.51-2.68-1.51-3.33
		c0-0.48,0.22-0.73,0.67-0.73c1.05-0.12,2.02-0.38,2.91-0.79c2.38-0.77,5.41-1.94,9.08-3.51c0.12-2.46,0.18-4.96,0.18-7.51
		c-1.82,0.4-3.21,0.61-4.18,0.61c-2.3,0-3.79-0.58-4.48-1.76c-0.57-0.77-0.85-1.31-0.85-1.63c0-0.28,0.16-0.42,0.48-0.42
		c3.71-0.28,6.72-0.71,9.02-1.27c-0.04-3.07-0.14-5.77-0.3-8.11c-0.12-2.5-0.54-4.66-1.27-6.48c-0.12-0.24-0.18-0.44-0.18-0.61
		c0-0.52,0.42-0.79,1.27-0.79c1.25,0,2.82,0.42,4.72,1.27c1.49,0.44,2.24,1.07,2.24,1.88c0,0.2-0.06,0.44-0.18,0.73
		c-0.81,2.42-1.27,4.66-1.39,6.72c-0.08,1.33-0.14,2.6-0.18,3.81c0.52-0.2,1.01-0.42,1.45-0.67C19.58,83.73,19.94,83.59,20.34,83.59
		z M44.08,76.08c0.65,0,1.84,0.36,3.57,1.09c2.3,1.41,3.45,2.5,3.45,3.27c0,0.44-0.36,0.87-1.09,1.27
		c-2.54,2.71-5.05,5.91-7.51,9.63c-0.44,0.57-0.67,0.99-0.67,1.27c0,0.44,0.08,0.67,0.24,0.67c2.91-0.77,4.52-1.15,4.84-1.15
		c0.52,0,1.39,0.32,2.6,0.97c1.7,1.17,2.54,2.04,2.54,2.6c0,0.36-0.16,0.69-0.48,0.97c-1.33,1.66-2.06,2.75-2.18,3.27
		c-0.77,2.91-1.6,5.25-2.48,7.02c-0.97,1.82-2.06,3.35-3.27,4.6c2.79,2.75,7.43,5.71,13.93,8.9v0.48c0,0.24-0.42,0.4-1.27,0.48
		c-4.08,0.61-7.69,0.91-10.84,0.91c-1.01,0-1.68-0.18-2-0.54c-1.25-1.57-2.66-3.65-4.24-6.24c-0.52,0.36-1.07,0.69-1.63,0.97
		c-2.14,1.17-4.62,2.12-7.45,2.85c-2.1,0.56-4.26,0.85-6.48,0.85c-0.77,0-1.15-0.18-1.15-0.54c0.12-0.12,0.58-0.28,1.39-0.48
		c4.72-1.53,8.6-3.33,11.63-5.39c0.65-0.52,1.23-1.07,1.76-1.63c-0.89-1.65-1.84-3.43-2.85-5.33c-0.65-1.21-1.53-2.58-2.66-4.12
		c-0.24-0.36-0.48-0.69-0.73-0.97c-0.24,0.69-0.46,1.27-0.67,1.76c-1.66,3.88-3.57,6.98-5.75,9.32c-1.33,1.29-2.58,2.36-3.75,3.21
		l-1.82,0.73c-0.16,0-0.24-0.08-0.24-0.24c1.98-2.42,3.39-4.38,4.24-5.87c1.33-2.46,2.58-5.59,3.75-9.38c1.13-3.27,2-6.88,2.6-10.84
		c0.36-1.94,0.54-3.71,0.54-5.33v-0.3c-0.32,0.04-0.65,0.06-0.97,0.06c-0.85,0-1.98-0.44-3.39-1.33c-0.81-0.56-1.21-1.25-1.21-2.06
		c0-0.52,0.26-0.79,0.79-0.79c1.94-0.08,5.87-0.71,11.81-1.88c1.94-0.4,3.83-1.21,5.69-2.42C43.01,76.18,43.47,76.08,44.08,76.08z
		 M32.03,99.09c0.12,0.08,0.24,0.14,0.36,0.18c1.01,0.61,2,1.59,2.97,2.97c1.73,2.34,3.41,4.4,5.03,6.18
		c0.44-0.61,0.83-1.25,1.15-1.94c0.89-2.42,1.41-5.27,1.57-8.54c-0.16-1.05-0.89-1.63-2.18-1.76c-2.1-0.32-3.33-1.29-3.69-2.91
		c0.12,0,0.2-0.2,0.24-0.61c1.61-2.74,2.93-6.32,3.94-10.72v-0.24c-1.78,0.36-4.02,0.93-6.72,1.7c1.25,0.61,1.88,1.17,1.88,1.7
		c0,0.28-0.14,0.59-0.42,0.91c-0.44,0.85-0.75,1.51-0.91,2C34.11,92.53,33.04,96.23,32.03,99.09z"/>
	<path class="st5" d="M9.14,144.23c1.13,0,2.52,0.42,4.18,1.27c1.9,0.69,2.85,1.41,2.85,2.18c0,0.36-0.1,0.69-0.3,0.97
		c-0.48,0.77-0.81,1.8-0.97,3.09c-0.77,3.83-1.45,7.27-2.06,10.29c0.97-0.24,1.94-0.52,2.91-0.85c0.32-0.16,0.63-0.28,0.91-0.36
		c-0.08-0.85-0.32-1.67-0.73-2.48c0-0.52,0.32-0.79,0.97-0.79c1.29,0,2.48,0.3,3.57,0.91c2.3,0.89,3.45,1.66,3.45,2.3
		c0,0.28-0.1,0.57-0.3,0.85c-0.65,0.93-1.03,1.78-1.15,2.54c-1.33,5.57-2.6,9.69-3.81,12.35c-0.28,0.65-0.59,1.27-0.91,1.88
		c0.85,0.73,1.57,1.39,2.18,2c1.53,1.62,2.3,2.91,2.3,3.88c0,1.94-0.71,2.91-2.12,2.91c-1.7,0-2.93-0.67-3.69-2
		c-0.61-0.81-1.19-1.57-1.76-2.3c-0.52,0.61-1.05,1.17-1.57,1.7c-2.3,2.1-4.62,3.61-6.96,4.54c-1.29,0.48-2.36,0.73-3.21,0.73
		c-0.32,0-0.48-0.08-0.48-0.24c1.41-1.09,2.72-2.14,3.94-3.15c2.5-2.38,4.34-4.6,5.51-6.66c-1.78-1.9-3.55-3.47-5.33-4.72
		c-0.36-0.32-0.54-0.65-0.54-0.97c0-0.28,0.06-0.63,0.18-1.03c0.28-1.33,0.56-2.89,0.85-4.66c-0.77,0.44-1.45,0.89-2.06,1.33
		c-0.24,0.12-0.44,0.18-0.61,0.18c-0.61,0-1.61-0.91-3.03-2.72C0.44,166.01,0,165.06,0,164.34c0-0.28,0.14-0.42,0.42-0.42
		c0.32,0,0.83,0.14,1.51,0.42c0.44,0,1.72-0.2,3.81-0.61c0.65-0.12,1.27-0.24,1.88-0.36c0.2-1.98,0.38-4.1,0.54-6.36
		c0.32-3.23,0.48-6.01,0.48-8.36c0-0.85-0.26-1.71-0.79-2.6c-0.24-0.65-0.36-1.09-0.36-1.33C7.51,144.4,8.05,144.23,9.14,144.23z
		 M16.59,163.67c-0.77,0.36-1.6,0.71-2.48,1.03c-0.73,0.32-1.39,0.65-2,0.97c-0.57,2.42-1.07,4.54-1.51,6.36
		c-0.12,0.4-0.18,0.67-0.18,0.79c0,0.57,0.16,0.93,0.48,1.09c1.13,0.65,2.12,1.23,2.97,1.76c0.61-1.49,1.13-3.13,1.57-4.9
		C16.04,168.41,16.43,166.05,16.59,163.67z M46.5,174.57c-2.1,0-3.98,0.04-5.63,0.12c2.58,3.39,4.86,6.01,6.84,7.87
		c1.86,1.78,5.19,3.65,9.99,5.63c0.61,0.12,0.91,0.34,0.91,0.67s-0.26,0.52-0.79,0.61c-0.93,0.28-1.86,0.44-2.79,0.48
		c-1.09,0.2-3.39,0.3-6.9,0.3c-0.85,0-1.61-0.46-2.3-1.39c-2.3-3.19-3.85-5.61-4.66-7.27c-0.32-0.65-0.65-1.21-0.97-1.7
		c0.04,0.53,0.06,1.09,0.06,1.7c0.08,3.51,0.12,6.72,0.12,9.63c0,1.33-0.3,2.44-0.91,3.33c-0.89,1.01-1.63,1.51-2.24,1.51
		c-0.69,0-1.27-0.38-1.76-1.15c-0.61-0.69-0.91-2.08-0.91-4.18c0.16-3.75,0.28-7.14,0.36-10.17c-1.05,1.49-2.16,2.81-3.33,3.94
		c-1.82,1.9-3.85,3.49-6.12,4.78c-1.86,1.05-4.16,1.96-6.9,2.72v-0.48c1.05-0.73,2-1.45,2.85-2.18c2.06-1.74,3.88-3.51,5.45-5.33
		c1.86-2.02,3.75-4.7,5.69-8.05c0.2-0.28,0.34-0.5,0.42-0.67c-2.3,0.32-4.52,0.77-6.66,1.33c-0.52,0.24-1.09,0.36-1.7,0.36
		c-0.85,0-1.8-0.5-2.85-1.51c-0.81-0.97-1.21-1.59-1.21-1.88c0-0.36,0.16-0.54,0.48-0.54c2.1,0,6.54-0.42,13.32-1.27
		c0.2-0.04,0.38-0.06,0.54-0.06c-0.12-1.7-0.46-2.95-1.03-3.75c0-0.65,0.38-0.97,1.15-0.97c1.17,0,2.42,0.26,3.75,0.79
		c1.41,0.44,2.12,0.99,2.12,1.63c0,0.16-0.1,0.4-0.3,0.73c-0.08,0.24-0.18,0.5-0.3,0.79c3.83-0.61,6.94-1.15,9.32-1.63
		c0.28-0.04,0.5-0.06,0.67-0.06c1.09,0,2.34,0.36,3.75,1.09c1.21,1.01,1.82,2.02,1.82,3.03c0,1.25-0.46,1.88-1.39,1.88
		c-0.93,0-2.46-0.12-4.6-0.36C48.56,174.67,47.43,174.57,46.5,174.57z M51.1,146.66c0.36,0,0.97,0.18,1.82,0.54
		c1.05,0.73,1.57,1.35,1.57,1.88c0,0.48-0.08,0.93-0.24,1.33c-0.16,0.48-0.4,0.79-0.73,0.91c-2.26,0.4-4.48,0.77-6.66,1.09
		c-0.28,2.95-0.57,6.62-0.85,11.02c0,1.17-0.42,2.1-1.27,2.79c-0.32,0.69-0.87,1.03-1.63,1.03c-0.57,0-1.03-0.44-1.39-1.33
		l-0.06-0.06c-1.78,0.32-3.45,0.59-5.03,0.79c-1.82,0.24-2.97,0.36-3.45,0.36c-0.16,0-0.3-0.02-0.42-0.06
		c-0.32,0.53-0.77,0.79-1.33,0.79c-0.65,0-1.21-0.32-1.7-0.97c-0.48-0.56-0.73-1.05-0.73-1.45c-0.4-1.94-0.75-5.25-1.03-9.93
		c0-0.28-0.02-0.52-0.06-0.73h-0.61c-2.3,0-3.79-0.58-4.48-1.76c-0.57-0.77-0.85-1.29-0.85-1.57c0-0.32,0.18-0.48,0.54-0.48
		c1.73-0.08,3.35-0.18,4.84-0.3c-0.16-0.77-0.3-1.43-0.42-2c-0.24-1.53-0.59-2.62-1.03-3.27c0-0.69,0.22-1.03,0.67-1.03
		c0.97,0,2.08,0.14,3.33,0.42c1.49,0.57,2.24,1.15,2.24,1.76l0.18,3.75c3.15-0.32,5.81-0.67,7.99-1.03
		c0.56-0.08,1.07-0.16,1.51-0.24c-0.08-3.27-0.46-5.33-1.15-6.18c-0.36-0.61-0.54-1.07-0.54-1.39c0-0.44,0.34-0.67,1.03-0.67
		c1.7,0,3.11,0.22,4.24,0.67c2.02,0.57,3.03,1.31,3.03,2.24c0,0.36-0.12,0.73-0.36,1.09c-0.2,0.53-0.42,1.51-0.67,2.97
		c0.69-0.2,1.31-0.4,1.88-0.61C49.85,146.78,50.46,146.66,51.1,146.66z M32.82,157.68c1.78-0.32,3.43-0.71,4.96-1.15
		c0.4-0.08,0.73-0.12,0.97-0.12c1.41,0,2.32,0.26,2.72,0.79l0.18-4c-1.74,0.24-3.45,0.46-5.15,0.67c-1.49,0.2-2.81,0.36-3.94,0.48
		L32.82,157.68z M33.12,164.03c2.34-0.36,4.54-0.83,6.6-1.39c0.52-0.16,0.93-0.24,1.21-0.24h0.3l0.12-3.03
		c-1.98,0.4-3.84,0.75-5.57,1.03c-1.49,0.24-2.44,0.36-2.85,0.36L33.12,164.03z"/>
	<path class="st5" d="M13.5,213.66c1.21,0,2.74,0.44,4.6,1.33c1.49,0.73,2.24,1.49,2.24,2.3c0,0.53-0.28,1.07-0.85,1.63
		c-0.57,0.4-0.91,0.87-1.03,1.39c-2.54,5.13-4.9,9.3-7.08,12.53c2.26,1.21,3.39,2.14,3.39,2.79c0,0.32-0.18,0.87-0.54,1.63
		c-0.32,1.05-0.48,1.63-0.48,1.76l0.48,13.08c2.18-2.14,3.79-3.96,4.84-5.45c2.62-3.03,4.84-6.01,6.66-8.96
		c1.41-2.42,2.4-4.34,2.97-5.75c-1.21,0.24-2.42,0.53-3.63,0.85c-0.97,0.28-1.57,0.42-1.82,0.42c-0.81,0-1.78-0.48-2.91-1.45
		c-1.01-0.89-1.51-1.59-1.51-2.12c0-0.32,0.16-0.48,0.48-0.48c4.6-0.77,8.62-1.47,12.05-2.12c-0.08-6.86-0.38-10.64-0.91-11.32
		c-0.28-0.77-0.57-1.49-0.85-2.18c-0.24-0.28-0.36-0.58-0.36-0.91c0-0.61,0.42-0.91,1.27-0.91c1.82,0,3.55,0.24,5.21,0.73
		c1.86,0.44,2.79,1.17,2.79,2.18c0,0.44-0.12,0.83-0.36,1.15c-0.48,0.85-0.79,1.88-0.91,3.09c-0.28,0.97-0.48,3.29-0.61,6.96
		c2.22-0.52,4.44-1.09,6.66-1.7c0.85-0.24,1.67-0.36,2.48-0.36c1.05,0,2.2,0.42,3.45,1.27c1.09,0.69,1.63,1.63,1.63,2.85
		c0,1.33-0.34,2-1.03,2c-4.68,0-9.1,0.24-13.26,0.73v0.48c0.12,0.12,0.22,0.24,0.3,0.36c2.62,3.35,5.17,6.08,7.63,8.17
		c2.58,2.34,6.86,4.9,12.84,7.69v0.73c0,0.2-0.38,0.32-1.15,0.36c-3.75,0.53-7.06,0.79-9.93,0.79c-0.97,0-1.6-0.14-1.88-0.42
		c-2.06-2.5-4.64-6.6-7.75-12.29c0.04,3.19,0.1,6.98,0.18,11.38h0.12c0.69-0.2,1.21-0.3,1.57-0.3c3.55,0,5.33,1.27,5.33,3.81
		c0,0.4-0.28,0.67-0.85,0.79c-2.14,0.48-4.14,0.87-5.99,1.15c0.08,2.22,0.16,4.58,0.24,7.08c0,2.14-0.46,3.65-1.39,4.54
		c-0.81,1.13-1.61,1.7-2.42,1.7c-0.81,0-1.76-1.11-2.85-3.33c-0.4-0.97-0.61-1.78-0.61-2.42c0-1.01,0.14-1.84,0.42-2.48
		c0.16-0.52,0.28-1.51,0.36-2.97c0.04-0.44,0.08-0.89,0.12-1.33c-0.89,0.12-1.51,0.18-1.88,0.18c-1.13,0-2.14-0.34-3.03-1.03
		c-0.73-0.73-1.09-1.43-1.09-2.12c0-0.36,0.26-0.58,0.79-0.67c1.9-0.28,3.73-0.65,5.51-1.09c0.12-3.15,0.2-7.02,0.24-11.63
		c-0.57,0.85-1.17,1.74-1.82,2.66c-1.98,2.66-4.06,4.96-6.24,6.9c-1.98,1.57-3.9,2.87-5.75,3.88c-1.74,0.81-2.79,1.21-3.15,1.21
		h-0.24l0.24,6.3c0,0.89-0.32,1.88-0.97,2.97c-0.73,1.41-1.37,2.12-1.94,2.12c-1.05,0-2.1-1.37-3.15-4.12
		c-0.28-0.69-0.42-1.25-0.42-1.7c0-1.17,0.28-4.48,0.85-9.93c0.2-1.82,0.3-5.13,0.3-9.93c0-0.81-0.06-1.57-0.18-2.3
		c-2.14,2.58-4.14,4.56-5.99,5.93c-1.29,1.09-2.14,1.63-2.54,1.63c-0.12,0-0.18-0.14-0.18-0.42c3.27-4.76,5.91-9.16,7.93-13.2
		c1.53-3.27,2.76-6.58,3.69-9.93c0.48-1.98,0.73-3.41,0.73-4.3l-0.24-1.39C12.35,213.82,12.73,213.66,13.5,213.66z"/>
</g>
<g class="st4">
	<path class="st5" d="M10.66,6.72c0.73,0,1.88,0.26,3.45,0.79c1.25,0.53,1.88,0.99,1.88,1.39c0,0.2-0.08,0.42-0.24,0.67
		c-1.01,1.41-1.78,2.68-2.3,3.81c1.98-0.16,3.73-0.36,5.27-0.61c-0.08-4.12-0.22-6.62-0.42-7.51c-0.36-1.53-0.99-3.07-1.88-4.6
		c0-0.44,0.24-0.67,0.73-0.67c1.73,0,3.53,0.44,5.39,1.33c1.73,0.77,2.6,1.59,2.6,2.48c0,0.48-0.12,0.97-0.36,1.45
		c-0.24,2.14-0.44,4.18-0.61,6.12c1.09-0.36,2.04-0.75,2.85-1.15c0.36-0.2,0.73-0.3,1.09-0.3c0.32,0,0.87,0.14,1.63,0.42
		c1.01,0.65,1.51,1.21,1.51,1.7s-0.08,0.93-0.24,1.33c-0.16,0.44-0.42,0.73-0.79,0.85c-2.1,0.65-4.22,1.19-6.36,1.63
		c-0.08,1.45-0.16,2.85-0.24,4.18c1.94-0.4,4-0.83,6.18-1.27c0.81-0.08,1.51-0.12,2.12-0.12c2.1,0.12,3.15,1.31,3.15,3.57
		c0,0.57-0.99,0.89-2.97,0.97c-2.54,0.12-5.41,0.48-8.6,1.09V29c1.41-0.2,3.07-0.71,4.96-1.51c0.36-0.12,0.63-0.18,0.79-0.18
		c0.36,0,1.47,0.38,3.33,1.15c2.5,1.41,3.75,2.48,3.75,3.21c0,0.32-0.12,0.63-0.36,0.91c-0.93,1.57-1.39,2.64-1.39,3.21
		c0,0.2,0.04,0.69,0.12,1.45c0.08,1.37,0.12,2.1,0.12,2.18c0,2.18-0.52,3.98-1.57,5.39c-1.29,1.29-2.2,1.94-2.72,1.94
		c-0.44,0-0.83-0.26-1.15-0.79c-1.61-2.22-3.13-3.83-4.54-4.84c-0.28-0.36-0.42-0.61-0.42-0.73c0-0.32,0.08-0.48,0.24-0.48
		c1.86,0.69,3.09,1.03,3.69,1.03l0.48-0.97c0.16-0.93,0.24-2.46,0.24-4.6c0-1.29-0.12-2.32-0.36-3.09
		c-0.24-0.52-0.63-0.79-1.15-0.79c-0.93,0-2.12,0.1-3.57,0.3c-0.16,0.04-0.32,0.06-0.48,0.06v17.32c0,0.93-0.46,1.94-1.39,3.03
		c-0.48,1.21-1.15,1.82-2,1.82c-0.97,0-1.82-0.81-2.54-2.42c-0.61-1.01-0.91-2.24-0.91-3.69c0.61-2.87,1.09-5.89,1.45-9.08
		c0.28-1.57,0.48-3.65,0.61-6.24c-2.18,0.4-4.06,0.81-5.63,1.21v10.54c0,0.77-0.22,1.43-0.67,2c-0.4,0.73-0.99,1.09-1.76,1.09
		c-0.4,0-1.09-0.63-2.06-1.88c-0.57-0.93-0.85-1.49-0.85-1.7l0.24-2.42c-0.08-4.84-0.52-7.77-1.33-8.78
		c-0.28-0.44-0.42-0.77-0.42-0.97c0-0.97,0.42-1.45,1.27-1.45c0.73,0,1.76,0.2,3.09,0.61c0.32,0.08,0.58,0.16,0.79,0.24
		c1.57-0.2,4.04-0.63,7.39-1.27c0.04-1.29,0.06-2.66,0.06-4.12v-0.48c-3.27,0.69-7.12,1.7-11.56,3.03l-1.27,0.36
		c-0.32,0-1.19-0.54-2.6-1.63c-1.49-1.33-2.24-2.56-2.24-3.69c0-0.16,0.16-0.24,0.48-0.24c2.62-0.08,5.29-0.3,7.99-0.67
		c2.46-0.32,5.53-0.81,9.2-1.45c-0.04-1.45-0.06-2.8-0.06-4.06c-1.09,0.2-1.96,0.3-2.6,0.3c-1.98,0-3.33-0.54-4.06-1.63
		c-0.65,1.01-1.29,1.94-1.94,2.79c-0.69,0.81-1.51,1.55-2.48,2.24c-0.28,0.2-0.52,0.3-0.73,0.3c-0.16,0-0.24-0.08-0.24-0.24
		c1.49-4.2,2.38-7.1,2.66-8.72c0.28-1.25,0.46-2.89,0.54-4.9C9.97,6.8,10.21,6.72,10.66,6.72z M38.27,13.74
		c0.69,0,1.63,0.14,2.85,0.42c1.49,0.36,2.24,0.89,2.24,1.57v17.44c0,0.73-0.22,1.33-0.67,1.82c-0.32,0.73-0.83,1.09-1.51,1.09
		c-0.4,0-1.03-0.61-1.88-1.82c-0.52-0.85-0.79-1.39-0.79-1.63l0.24-2.42c-0.08-7.63-0.52-12.19-1.33-13.68
		c-0.28-0.73-0.42-1.23-0.42-1.51C36.99,14.17,37.42,13.74,38.27,13.74z M46.98,0.48c1.49,0,3.33,0.44,5.51,1.33
		c1.78,0.57,2.66,1.31,2.66,2.24c0,0.16-0.08,0.4-0.24,0.73c-1.05,2.5-1.63,4.82-1.76,6.96c-0.28,3.11-0.42,6.18-0.42,9.2
		c0,9.89,0.34,18.41,1.03,25.55c0,1.94-0.63,3.83-1.88,5.69c-1.01,1.37-1.84,2.06-2.48,2.06c-1.33,0-2.2-0.53-2.6-1.57
		c-0.73-1.25-3.33-3.65-7.81-7.21c0-0.65,0.3-0.97,0.91-0.97c2.95,1.33,4.88,2,5.81,2c0.44,0,0.73-0.46,0.85-1.39
		c0.28-1.13,0.5-3.77,0.67-7.93c0.28-5.89,0.42-12.11,0.42-18.65c0-3.75-0.12-7.02-0.36-9.81c-0.12-2.54-0.65-4.74-1.57-6.6
		c-0.16-0.32-0.24-0.56-0.24-0.73C45.47,0.79,45.98,0.48,46.98,0.48z"/>
	<path class="st5" d="M15.74,73.24c1.17,0,2.68,0.44,4.54,1.33c1.45,0.73,2.18,1.49,2.18,2.3c0,0.48-0.28,0.99-0.85,1.51
		c-0.65,0.4-1.05,0.85-1.21,1.33c-2.06,3.47-3.98,6.44-5.75,8.9c2.18,1.17,3.27,2.1,3.27,2.79c0,0.32-0.18,0.85-0.54,1.57
		c-0.32,1.09-0.48,1.7-0.48,1.82l0.24,21.74c0,0.97-0.32,1.98-0.97,3.03c-0.73,1.37-1.37,2.06-1.94,2.06c-1.05,0-2.1-1.33-3.15-4
		c-0.28-0.73-0.42-1.33-0.42-1.82c0-1.25,0.4-4.9,1.21-10.96c0.32-2.02,0.48-5.71,0.48-11.08c0-0.69-0.06-1.31-0.18-1.88
		c-3.31,3.67-6.34,6.38-9.08,8.11c-1.45,1.01-2.4,1.51-2.85,1.51c-0.16,0-0.24-0.16-0.24-0.48c3.88-4.44,7.04-8.6,9.51-12.47
		c1.82-3.07,3.29-6.2,4.42-9.38c0.52-1.86,0.79-3.21,0.79-4.06l-0.24-1.39C14.47,73.4,14.89,73.24,15.74,73.24z M31.91,70.82
		c1.21,0,2.74,0.44,4.6,1.33c1.49,0.77,2.24,1.53,2.24,2.3c0,0.48-0.28,1.01-0.85,1.57c-0.57,0.36-0.93,0.81-1.09,1.33
		c-1.45,2.87-2.85,5.41-4.18,7.63c2.62-0.48,4.98-0.95,7.08-1.39c2.91-0.65,5.87-1.43,8.9-2.36c0.69-0.16,1.33-0.24,1.94-0.24
		c1.01,0,2.06,0.34,3.15,1.03c0.97,0.61,1.45,1.47,1.45,2.6c0,1.29-0.3,1.94-0.91,1.94c-4.96,0-9.59,0.34-13.87,1.03
		c-0.57,0.08-1.15,0.18-1.76,0.3c0.69,0.61,1.03,0.97,1.03,1.09c0,0.53-0.1,1.05-0.3,1.57c-0.24,0.73-0.36,1.47-0.36,2.24v4.54
		c1.98-0.56,3.75-1.17,5.33-1.82c1.41-0.48,2.36-0.73,2.85-0.73c2.79,0.12,4.18,1.31,4.18,3.57c0,0.69-0.57,1.09-1.7,1.21
		c-1.33,0.12-3.05,0.34-5.15,0.67c-1.41,0.2-2.7,0.3-3.88,0.3c-0.69,0-1.23-0.04-1.63-0.12c-0.04,2.38-0.08,4.76-0.12,7.14
		c2.46-0.52,4.66-1.09,6.6-1.7c1.65-0.44,2.81-0.67,3.45-0.67c3.03,0.16,4.54,1.43,4.54,3.81c0,0.65-0.65,1.01-1.94,1.09
		c-1.57,0.12-3.61,0.3-6.12,0.54c-1.66,0.2-3.15,0.3-4.48,0.3c-0.89,0-1.6-0.06-2.12-0.18c-0.08,3.47-0.18,6.86-0.3,10.17
		c0,2.18-0.38,3.53-1.15,4.06c-0.69,0.97-1.45,1.45-2.3,1.45c-0.61,0-1.27-0.57-2-1.7c-0.77-1.05-1.15-2.56-1.15-4.54
		c0-0.48,0.14-1.27,0.42-2.36c0.48-1.74,0.75-2.89,0.79-3.45c0.36-6.42,0.54-13.62,0.54-21.62c0-1.61-0.26-2.74-0.79-3.39
		c-0.12,0.04-0.2,0.06-0.24,0.06c-0.61,0-1.29-0.38-2.06-1.15c-0.36,0.53-0.71,1.01-1.03,1.45c-2.99,3.71-5.71,6.46-8.17,8.23
		c-1.29,1.09-2.14,1.63-2.54,1.63c-0.12,0-0.18-0.16-0.18-0.48c3.27-4.56,5.91-8.8,7.93-12.71c1.53-3.15,2.76-6.34,3.69-9.57
		c0.48-1.94,0.73-3.33,0.73-4.18l-0.24-1.39C30.76,70.98,31.14,70.82,31.91,70.82z"/>
	<path class="st5" d="M9.63,148.84c0.65,0,1.29,0.57,1.94,1.7c0.2,0.44,0.34,0.81,0.42,1.09c7.95-0.48,18.53-1.94,31.73-4.36
		c0.65-0.04,1.15-0.06,1.51-0.06c0.89,0,2.46,0.75,4.72,2.24c2.54,2.26,3.81,3.67,3.81,4.24c0,1.21-0.85,1.82-2.54,1.82
		c-2.7,0-6.14,0.87-10.29,2.6c-0.52,0-0.79-0.16-0.79-0.48c0-0.2,0.77-1.13,2.3-2.79c1.25-1.45,1.88-2.4,1.88-2.85
		c0-0.08-0.12-0.22-0.36-0.42c-0.4-0.2-0.87-0.3-1.39-0.3c-4.28,0-8.8,0.36-13.56,1.09c-3.79,0.48-8.74,1.35-14.83,2.6
		c-1.09,0.32-1.8,0.48-2.12,0.48h-0.06c-0.2,0.73-0.44,1.53-0.73,2.42c-0.77,2.1-1.51,3.55-2.24,4.36
		c-0.44,0.48-0.87,0.73-1.27,0.73c-0.89,0-1.76-0.44-2.6-1.33c-0.57-0.65-0.85-1.43-0.85-2.36c0-0.69,0.18-1.27,0.54-1.76
		c1.09-1.25,2.4-3.83,3.94-7.75C8.94,149.14,9.22,148.84,9.63,148.84z M36.33,158.1c0.73,0,1.53,0.26,2.42,0.79
		c0.77,0.53,1.15,1.23,1.15,2.12c0,0.93-0.22,1.39-0.67,1.39c-3.43,0-6.66,0.18-9.69,0.54c-0.08,1.25-0.18,2.56-0.3,3.94
		c1.57-0.32,3.13-0.69,4.66-1.09c0.69-0.12,1.33-0.18,1.94-0.18c0.73,0,1.53,0.26,2.42,0.79c0.77,0.53,1.15,1.23,1.15,2.12
		c0,0.93-0.22,1.39-0.67,1.39c-3.47,0-6.76,0.18-9.87,0.54c-0.08,0.89-0.18,1.78-0.3,2.66c-0.08,0.57-0.16,1.09-0.24,1.57
		c6.38-1.01,11.48-2,15.32-2.97c0.4-0.08,0.71-0.12,0.91-0.12c1.13,0,2.46,0.44,4,1.33c1.33,1.09,2,2.2,2,3.33
		c0,1.29-0.46,1.94-1.39,1.94c-1.01,0-2.69-0.14-5.03-0.42c-1.45-0.24-2.7-0.36-3.75-0.36c-4.84,0-9.1,0.18-12.78,0.54
		c-0.24,1.17-0.54,2.3-0.91,3.39c-0.69,1.82-1.66,3.65-2.91,5.51c-1.09,1.41-2.56,2.83-4.42,4.24c-2.18,1.41-5.23,2.72-9.14,3.94
		c-1.25,0.2-2.16,0.3-2.72,0.3c-0.36,0-0.54-0.08-0.54-0.24c3.35-1.74,5.73-3.15,7.14-4.24c1.7-1.09,3.17-2.42,4.42-4
		c1.57-2.06,2.74-4.3,3.51-6.72c0.16-0.48,0.3-0.95,0.42-1.39c-3.31,0.53-6.56,1.33-9.75,2.42c-0.81,0.44-1.57,0.67-2.3,0.67
		c-1.01,0-2.08-0.56-3.21-1.7c-0.93-1.09-1.39-1.84-1.39-2.24c0-0.32,0.14-0.48,0.42-0.48c2.79,0,8.46-0.63,17.01-1.88
		c0.08-0.52,0.14-1.03,0.18-1.51c0.12-0.93,0.22-1.88,0.3-2.85c-1.25,0.24-2.5,0.53-3.75,0.85c-0.73,0.2-1.17,0.3-1.33,0.3
		c-0.57,0-1.27-0.38-2.12-1.15c-0.69-0.73-1.03-1.31-1.03-1.76c0-0.16,0.08-0.24,0.24-0.24c3.03-0.44,5.73-0.85,8.11-1.21
		c0.04-1.05,0.06-2.12,0.06-3.21v-1.03c-1.66,0.24-3.39,0.65-5.21,1.21c-0.81,0.28-1.33,0.42-1.57,0.42c-0.57,0-1.25-0.42-2.06-1.27
		c-0.73-0.65-1.09-1.21-1.09-1.7c0-0.16,0.08-0.24,0.24-0.24c3.55-0.52,6.72-1.03,9.51-1.51c-0.04-0.65-0.1-1.29-0.18-1.94
		c-0.08-1.37-0.36-2.32-0.85-2.85c-0.32-0.48-0.48-0.89-0.48-1.21c0-0.48,0.34-0.73,1.03-0.73c2.02,0,3.65,0.24,4.9,0.73
		c1.9,0.36,2.85,0.93,2.85,1.7c0,0.4-0.2,0.83-0.61,1.27c-0.36,0.44-0.59,1.05-0.67,1.82c1.49-0.32,2.99-0.69,4.48-1.09
		C34.94,158.18,35.64,158.1,36.33,158.1z M24.16,140.84c1.09,0,2.48,0.3,4.18,0.91c1.57,0.61,2.6,1.17,3.09,1.7
		c0.48,0.57,0.73,1.25,0.73,2.06c0,1.9-1.11,2.85-3.33,2.85c-0.81,0-1.82-0.97-3.03-2.91c-1.37-2.18-2.06-3.55-2.06-4.12
		C23.73,141.05,23.88,140.88,24.16,140.84z M31,181.59c0.52,0,1.39,0.1,2.6,0.3c2.14,0.81,4.34,1.76,6.6,2.85
		c2.82,1.62,4.68,3.07,5.57,4.36c0.81,1.17,1.21,2.44,1.21,3.81c0,0.65-0.22,1.33-0.67,2.06c-0.44,0.56-1.03,0.85-1.76,0.85
		c-0.93,0-1.6-0.32-2-0.97c-0.97-0.65-2.4-2.04-4.3-4.18c-2.79-3.63-4.68-5.83-5.69-6.6c-1.21-1.05-1.82-1.8-1.82-2.24
		C30.76,181.67,30.84,181.59,31,181.59z"/>
	<path class="st5" d="M2.18,249.5c0.52,0,1.13,0.16,1.82,0.48c1.7,0.85,2.99,1.86,3.88,3.03c0.69,1.09,1.03,2.66,1.03,4.72
		c0,0.53-0.28,1.07-0.85,1.63c-0.69,0.53-1.37,0.79-2.06,0.79c-0.32,0-0.67-0.38-1.03-1.15c-0.77-1.25-1.8-3.96-3.09-8.11
		c-0.16-0.4-0.24-0.71-0.24-0.91C1.72,249.66,1.9,249.5,2.18,249.5z M11.56,214.57c1.13,0,2.34,0.38,3.63,1.15
		c1.29,0.69,1.94,1.43,1.94,2.24c0,0.28-0.16,0.57-0.48,0.85c-1.9,2.22-4.38,5.85-7.45,10.9c-0.12,0.2-0.22,0.38-0.3,0.54l5.09-0.61
		c0.69-1.21,1.29-2.42,1.82-3.63c0.12-0.28,0.18-1.01,0.18-2.18c0-0.52,0.3-0.79,0.91-0.79c1.09,0,2.18,0.44,3.27,1.33
		c1.37,0.77,2.06,1.63,2.06,2.6c0,0.16-0.14,0.36-0.42,0.61c-0.77,0.61-1.55,1.49-2.36,2.66c-2.58,3.31-5.19,6.8-7.81,10.47
		c1.7-0.4,3.39-0.83,5.09-1.27c-0.2-0.61-0.38-1.17-0.54-1.7c-0.12-0.28-0.18-0.48-0.18-0.61c0.04-0.32,0.18-0.48,0.42-0.48
		c0.44,0,0.99,0.1,1.63,0.3c1.45,0.53,2.54,1.17,3.27,1.94c0.61,0.73,0.91,1.76,0.91,3.09c0,0.57-0.3,1.11-0.91,1.63
		c-0.65,0.53-1.31,0.79-2,0.79c-0.28,0-0.54-0.28-0.79-0.85c-0.24-0.36-0.48-0.85-0.73-1.45c-1.05,0.36-2.26,0.87-3.63,1.51
		c-1.86,0.89-3.21,1.68-4.06,2.36c-0.36,0.28-0.69,0.57-0.97,0.85c-0.2,0.32-0.36,0.48-0.48,0.48c-0.85,0-1.76-0.61-2.72-1.82
		c-0.89-1.29-1.33-2.22-1.33-2.79c0-0.48,0.08-0.81,0.24-0.97c1.53-1.33,2.46-2.18,2.79-2.54c1.05-1.17,2.62-3.43,4.72-6.78
		c-2.7,0.89-4.66,1.96-5.87,3.21c-1.01,0-1.84-0.46-2.48-1.39c-0.57-0.61-0.85-1.41-0.85-2.42c0-0.28,0.14-0.54,0.42-0.79
		c1.25-0.81,2.6-2.62,4.06-5.45c0.69-1.33,1.59-3.63,2.72-6.9c0.36-1.21,0.54-1.92,0.54-2.12c-0.16-0.4-0.24-0.83-0.24-1.27
		C10.66,214.81,10.96,214.57,11.56,214.57z M9.93,248.05c0.44,0,0.95,0.08,1.51,0.24c1.45,0.53,2.56,1.13,3.33,1.82
		c0.65,0.61,0.97,1.53,0.97,2.79c0,0.48-0.28,0.97-0.85,1.45c-0.65,0.48-1.25,0.73-1.82,0.73c-0.32,0-0.65-0.26-0.97-0.79
		c-0.61-0.85-1.43-2.64-2.48-5.39c-0.16-0.28-0.24-0.5-0.24-0.67C9.47,248.11,9.65,248.05,9.93,248.05z M16.41,245.38
		c0.48,0,1.05,0.08,1.7,0.24c1.49,0.53,2.62,1.13,3.39,1.82c0.65,0.61,0.97,1.53,0.97,2.79c0,0.48-0.26,0.97-0.79,1.45
		c-0.61,0.48-1.23,0.73-1.88,0.73c-0.32,0-0.63-0.26-0.91-0.79c-0.65-0.85-1.55-2.64-2.72-5.39c-0.12-0.28-0.18-0.5-0.18-0.67
		C16.02,245.45,16.17,245.38,16.41,245.38z M45.23,216.81c0.28,0,0.79,0.12,1.51,0.36c0.77,0.57,1.15,1.09,1.15,1.57
		c0,0.4-0.06,0.77-0.18,1.09c-0.12,0.44-0.3,0.71-0.54,0.79c-2.42,0.73-4.86,1.31-7.33,1.76l-0.06,2.18
		c0.32-0.08,0.67-0.16,1.03-0.24c0.69-0.16,1.19-0.24,1.51-0.24c2.62,0,3.94,0.97,3.94,2.91c0,0.32-0.28,0.54-0.85,0.67
		c-2.02,0.4-3.96,0.77-5.81,1.09l-0.12,2.36c2.62-0.48,4.98-1.01,7.08-1.57c1.73-0.4,3.33-0.61,4.78-0.61c0.97,0,2.1,0.3,3.39,0.91
		c1.45,1.05,2.18,2.02,2.18,2.91c0,0.28-0.18,0.63-0.54,1.03c-0.36,0.48-0.77,0.73-1.21,0.73c-7.67,0-14.05,0.28-19.13,0.85
		c-3.15,0.36-7.02,1.15-11.63,2.36c-0.16,0.08-0.38,0.12-0.67,0.12c-0.52,0-1.27-0.54-2.24-1.63c-0.77-0.97-1.15-1.61-1.15-1.94
		c0-0.16,0.16-0.24,0.48-0.24c3.15-0.56,5.71-0.99,7.69-1.27c1.65-0.16,3.53-0.4,5.63-0.73l0.06-2.6c-1.25,0.16-2.1,0.24-2.54,0.24
		c-0.85,0-1.61-0.26-2.3-0.79c-0.52-0.48-0.79-0.97-0.79-1.45c0-0.36,0.16-0.58,0.48-0.67c1.78-0.24,3.49-0.54,5.15-0.91v-2.42
		c-1.37,0.28-2.44,0.42-3.21,0.42c-1.9,0-3.15-0.56-3.75-1.7c-0.44-0.69-0.67-1.19-0.67-1.51c0-0.16,0.08-0.24,0.24-0.24
		c2.87-0.16,5.31-0.38,7.33-0.67c-0.08-1.53-0.24-2.97-0.48-4.3c-0.04-0.89-0.42-1.76-1.15-2.6c-0.08-0.2-0.12-0.34-0.12-0.42
		c0-0.44,0.5-0.67,1.51-0.67c1.41,0,2.97,0.28,4.66,0.85c1.73,0.77,2.6,1.43,2.6,2c0,0.16-0.1,0.32-0.3,0.48
		c-0.4,0.69-0.69,1.86-0.85,3.51c1.53-0.48,2.91-0.97,4.12-1.45C44.5,216.91,44.87,216.81,45.23,216.81z M27.06,238.54
		c0.93,0,2,0.28,3.21,0.85c5.13-1.01,8.82-1.88,11.08-2.6c0.32-0.08,0.73-0.12,1.21-0.12c0.61,0,1.8,0.24,3.57,0.73
		c2.34,1.01,3.51,1.98,3.51,2.91c0,0.28-0.14,0.93-0.42,1.94c-0.2,0.57-0.3,1.62-0.3,3.15v9.2c0,0.65-0.44,1.63-1.33,2.97
		c-0.81,0.89-1.6,1.33-2.36,1.33c-0.44,0-1.07-0.56-1.88-1.7c-2.62,0.08-5.19,0.26-7.69,0.54c-2.38,0.28-3.88,0.44-4.48,0.48
		c-0.08,0.12-0.16,0.22-0.24,0.3c-0.2,0.16-0.38,0.3-0.54,0.42c0.69,0.08,1.72,0.28,3.09,0.61c1.9,0.53,2.85,1.11,2.85,1.76
		c0,0.2-0.14,0.36-0.42,0.48c-0.85,0.48-1.78,1.13-2.79,1.94c-2.02,1.57-3.9,2.83-5.63,3.75c-0.97,0.48-2.2,0.93-3.69,1.33
		c-0.4,0.16-0.75,0.24-1.03,0.24c-0.2,0-0.3-0.08-0.3-0.24c1.21-1.09,2.32-2.26,3.33-3.51c1.29-1.62,2.26-3.09,2.91-4.42
		c0.24-0.28,0.36-0.79,0.36-1.51c-0.81-0.16-1.45-0.87-1.94-2.12c-0.48-1.17-0.73-2.06-0.73-2.66l0.06-0.3
		c0.4-1.05,0.67-1.9,0.79-2.54c0.2-1.37,0.3-3.11,0.3-5.21c-0.2-3.43-0.63-5.63-1.27-6.6c-0.08-0.32-0.12-0.52-0.12-0.61
		C26.16,238.81,26.46,238.54,27.06,238.54z M31.91,254.89c0.93-0.08,1.96-0.22,3.09-0.42c2.42-0.28,4.36-0.61,5.81-0.97
		c0.36-0.12,0.73-0.18,1.09-0.18c0.24,0,0.42,0.02,0.54,0.06c0.08-1.57,0.12-4.82,0.12-9.75c0-1.01-0.28-1.94-0.85-2.79
		c-0.28-0.36-0.73-0.54-1.33-0.54c-0.73,0-1.6,0.1-2.6,0.3c-1.7,0.4-3.03,0.79-4,1.15c-0.61,0.24-1.21,0.38-1.82,0.42
		c-0.04,0.57-0.06,1.25-0.06,2.06c1.49-0.36,2.91-0.75,4.24-1.15c0.4-0.12,0.69-0.18,0.85-0.18c2.26,0,3.39,0.83,3.39,2.48
		c0,0.24-0.16,0.4-0.48,0.48c-1.9,0.44-3.67,0.81-5.33,1.09c-1.37,0.24-2.26,0.36-2.66,0.36v2.12c1.7-0.32,3.27-0.67,4.72-1.03
		c0.36-0.12,0.65-0.18,0.85-0.18c2.3,0,3.45,0.81,3.45,2.42c0,0.24-0.18,0.38-0.54,0.42c-2.02,0.44-3.92,0.77-5.69,0.97
		c-1.45,0.24-2.38,0.36-2.79,0.36V254.89z M41.17,258.4c0.32,0,0.83,0.06,1.51,0.18c1.33,0.48,2.68,1.05,4.06,1.7
		c1.73,0.89,2.87,1.72,3.39,2.48c0.44,0.69,0.67,1.43,0.67,2.24c0,0.69-0.24,1.41-0.73,2.18c-0.44,0.65-1.09,0.97-1.94,0.97
		c-0.89,0-1.51-0.42-1.88-1.27c-0.48-0.44-1.15-1.33-2-2.66c-1.25-2.22-2.1-3.59-2.54-4.12c-0.52-0.69-0.79-1.17-0.79-1.45
		C40.93,258.48,41.01,258.4,41.17,258.4z"/>
</g>
<g>
	<path class="st6" d="M24.4,0c1.49,0,3.29,0.5,5.39,1.51c1.41,0.44,2.12,1.09,2.12,1.94c0,0.28-0.16,0.5-0.48,0.67
		c-0.32,0.4-0.73,1.07-1.21,2c-0.04,0.04-0.06,0.08-0.06,0.12c0.97,0.57,1.92,1.43,2.85,2.6c3.15,3.71,6.22,6.72,9.2,9.02
		c3.19,2.62,8.4,5.49,15.62,8.6v0.48c0,0.24-0.42,0.4-1.27,0.48c-4.08,0.61-7.69,0.91-10.84,0.91c-1.17,0-1.96-0.16-2.36-0.48
		c-2.83-2.95-6.42-7.77-10.78-14.47c-0.81-1.17-1.88-2.52-3.21-4.06c-0.24-0.28-0.48-0.54-0.73-0.79c-2.22,3.27-4.62,6.28-7.21,9.02
		c-3.19,3.67-6.58,6.7-10.17,9.08c-2.95,2.1-5.81,3.63-8.6,4.6c-1.17,0.53-1.9,0.79-2.18,0.79v-0.24c4.52-3.63,8.5-7.27,11.93-10.9
		c2.3-2.46,4.48-5.13,6.54-7.99c1.98-2.62,3.45-5.25,4.42-7.87c0.36-0.93,0.54-1.71,0.54-2.36c-0.28-0.73-0.42-1.43-0.42-2.12
		C23.49,0.18,23.79,0,24.4,0z M41.41,30.27c0.93,0,1.96,0.36,3.09,1.09c1.01,0.65,1.51,1.51,1.51,2.6c0,1.25-0.34,1.88-1.03,1.88
		c-6.05,0-11.75,0.26-17.07,0.79c1.05,0.48,1.57,1.03,1.57,1.63c0,0.44-0.28,0.93-0.85,1.45c-0.73,0.48-1.33,1.01-1.82,1.57
		c-1.49,1.78-3.27,3.73-5.33,5.87c3.67-0.44,8.54-1.11,14.59-2c-0.81-1.61-1.37-2.64-1.7-3.09c-0.65-0.97-0.97-1.65-0.97-2.06
		c0-0.16,0.08-0.24,0.24-0.24c0.36,0,0.95,0.1,1.76,0.3c1.53,0.73,3.07,1.57,4.6,2.54c1.98,1.41,3.31,2.71,4,3.88
		c0.48,1.05,0.73,2.2,0.73,3.45c0,0.73-0.22,1.51-0.67,2.36c-0.48,0.65-1.15,0.97-2,0.97c-1.01,0-1.74-0.38-2.18-1.15
		c-0.52-0.69-1.33-2-2.42-3.94c-0.08-0.16-0.14-0.28-0.18-0.36c-0.16,0.08-0.32,0.14-0.48,0.18c-11.87,2.66-18.97,4.42-21.31,5.27
		c-1.61,0-2.42-0.73-2.42-2.18c0-1.25,0.1-2.24,0.3-2.97c0.16-1.25,0.71-1.88,1.63-1.88c0.44-0.2,0.83-0.38,1.15-0.54
		c0.4-0.2,0.99-0.79,1.76-1.76c0.73-0.81,1.37-1.74,1.94-2.79c0.52-0.85,0.91-1.76,1.15-2.72c0.16-0.56,0.26-0.97,0.3-1.21
		c-2.26,0.32-4.64,0.71-7.14,1.15c-1.21,0.24-2,0.36-2.36,0.36c-0.65,0-1.49-0.48-2.54-1.45c-0.85-0.89-1.27-1.59-1.27-2.12
		c0-0.16,0.14-0.24,0.42-0.24c6.22-0.73,11.63-1.41,16.23-2.06c4.48-0.61,9.04-1.37,13.68-2.3C39.42,30.38,40.45,30.27,41.41,30.27z
		 M32.39,21.13c0.4,0,1.07,0.18,2,0.54c1.13,0.77,1.7,1.47,1.7,2.12c0,0.53-0.1,0.99-0.3,1.39c-0.24,0.53-0.57,0.87-0.97,1.03
		c-2.38,0.65-4.88,1.17-7.51,1.57c-1.82,0.36-3.17,0.54-4.06,0.54c-2.54,0-4.2-0.67-4.96-2c-0.61-0.89-0.91-1.49-0.91-1.82
		c0-0.32,0.18-0.48,0.54-0.48c3.83-0.24,6.84-0.65,9.02-1.21c1.73-0.4,3.27-0.89,4.6-1.45C31.83,21.21,32.11,21.13,32.39,21.13z"/>
	<path class="st6" d="M18.65,85.83c0.65,0,1.88,0.44,3.69,1.33c2.22,1.29,3.33,2.4,3.33,3.33c0,0.32-0.28,0.59-0.85,0.79
		c-2.06,1.25-3.29,2.14-3.69,2.66c-1.78,2.42-3.47,4.52-5.09,6.3c2.02,1.09,3.03,1.96,3.03,2.6c0,0.32-0.14,0.85-0.42,1.57
		c-0.32,1.09-0.48,1.7-0.48,1.82l0.48,13.74c0,0.97-0.34,1.98-1.03,3.03c-0.77,1.37-1.39,2.06-1.88,2.06c-1.13,0-2.18-1.33-3.15-4
		c-0.36-0.73-0.54-1.31-0.54-1.76c0-0.85,0.36-3.21,1.09-7.08c0.28-1.29,0.42-3.61,0.42-6.96c0-0.81-0.06-1.57-0.18-2.3
		c-0.28,0.28-0.54,0.54-0.79,0.79c-2.75,2.95-5.87,5.31-9.38,7.08c-1.29,0.77-2.14,1.15-2.54,1.15c-0.08,0-0.14-0.08-0.18-0.24
		c0-0.08,0.22-0.36,0.67-0.85c3.23-2.99,5.65-5.53,7.27-7.63c2.7-3.27,5.15-6.88,7.33-10.84c0.16-0.32,0.24-0.58,0.24-0.79
		c0-0.32-0.16-0.48-0.48-0.48c-5.21,2.1-8.21,3.15-9.02,3.15c-0.93,0-1.94-0.54-3.03-1.63c-0.69-0.93-1.03-1.57-1.03-1.94
		c0-0.65,0.24-0.97,0.73-0.97c3.75-0.16,6.52-0.44,8.29-0.85c1.86-0.36,4.02-1.29,6.48-2.79C18.41,85.97,18.65,85.87,18.65,85.83z
		 M12.35,73c0.73,0,1.59,0.1,2.6,0.3c2.42,0.53,4.28,1.13,5.57,1.82c0.97,0.61,1.45,1.53,1.45,2.79c0,0.69-0.38,1.41-1.15,2.18
		c-0.93,0.61-1.82,0.91-2.66,0.91c-0.57,0-1.09-0.26-1.57-0.79c-1.05-0.97-2.5-2.99-4.36-6.05c-0.28-0.28-0.42-0.5-0.42-0.67
		C11.89,73.16,12.07,73,12.35,73z M18.83,98.24c0.52,0,1.13,0.1,1.82,0.3c1.65,0.48,2.89,1.07,3.69,1.76
		c0.73,0.65,1.09,1.57,1.09,2.79c0,0.48-0.28,0.97-0.85,1.45c-0.61,0.48-1.21,0.73-1.82,0.73c-0.4,0-0.77-0.26-1.09-0.79
		c-0.73-0.85-1.74-2.64-3.03-5.39c-0.16-0.28-0.24-0.48-0.24-0.61C18.45,98.32,18.59,98.24,18.83,98.24z M47.65,90.25
		c0.44,0,1.15,0.2,2.12,0.61c1.21,0.85,1.82,1.62,1.82,2.3c0,0.48-0.1,0.95-0.3,1.39c-0.24,0.57-0.57,0.91-0.97,1.03
		c-2.87,0.93-5.79,1.74-8.78,2.42l-0.3,11.69c3.51-0.69,6.4-1.35,8.66-2c0.28-0.04,0.5-0.06,0.67-0.06c1.33,0,2.89,0.53,4.66,1.57
		c1.57,1.33,2.36,2.68,2.36,4.06c0,1.41-0.57,2.12-1.7,2.12c-1.09,0-3.03-0.16-5.81-0.48c-1.7-0.32-3.15-0.48-4.36-0.48
		c-4.52,0-8.23,0.28-11.14,0.85c-2.42,0.44-4.8,1.13-7.14,2.06c-0.52,0.32-1.03,0.48-1.51,0.48c-1.13,0-2.36-0.65-3.69-1.94
		c-1.09-1.33-1.63-2.2-1.63-2.6c0-0.36,0.16-0.54,0.48-0.54c2.1,0,6.58-0.56,13.44-1.7c0.36-0.08,0.73-0.14,1.09-0.18l-0.12-11.56
		c-1.45,0.24-2.64,0.36-3.57,0.36c-2.58,0-4.3-0.77-5.15-2.3c-0.57-0.93-0.85-1.59-0.85-2c0-0.16,0.16-0.24,0.48-0.24
		c3.51-0.28,6.54-0.65,9.08-1.09v-4.24c0-3.35-0.18-6.46-0.54-9.32c-0.04-1.29-0.44-2.54-1.21-3.75c-0.04-0.2-0.06-0.38-0.06-0.54
		c0-0.61,0.54-0.91,1.63-0.91c1.53,0,3.21,0.3,5.03,0.91c1.82,0.81,2.72,1.53,2.72,2.18c0,0.28-0.1,0.61-0.3,0.97
		c-0.4,1.17-0.73,3.53-0.97,7.08l-0.12,6.24c1.73-0.61,3.31-1.25,4.72-1.94C46.82,90.39,47.25,90.25,47.65,90.25z"/>
	<path class="st6" d="M15.02,158.34c0.36,0,0.97,0.18,1.82,0.54c1.05,0.73,1.57,1.35,1.57,1.88c0,0.48-0.08,0.93-0.24,1.33
		c-0.16,0.44-0.42,0.73-0.79,0.85c-1.29,0.53-2.62,0.95-4,1.27c-0.04,1.66-0.06,3.19-0.06,4.6c0.85,0.28,1.72,0.61,2.6,0.97
		c1.21,0.57,2.02,1.11,2.42,1.63c0.32,0.48,0.48,0.97,0.48,1.45c0,0.61-0.18,1.25-0.54,1.94c-0.4,0.48-0.95,0.73-1.63,0.73
		c-0.77,0-1.31-0.3-1.63-0.91c-0.32-0.32-0.77-0.97-1.33-1.94c-0.12-0.24-0.22-0.46-0.3-0.67l0.18,20.77c0,0.89-0.46,1.84-1.39,2.85
		c-0.48,1.17-1.15,1.76-2,1.76c-0.93,0-1.72-0.77-2.36-2.3c-0.57-1.01-0.85-2.2-0.85-3.57c0.52-2.91,0.95-5.97,1.27-9.2
		c0.28-1.82,0.48-4.26,0.61-7.33c-0.24,0.48-0.46,0.93-0.67,1.33c-1.17,2.38-2.46,4.34-3.88,5.87c-1.17,1.29-2.6,2.4-4.3,3.33v-0.48
		c0.48-0.85,0.97-1.71,1.45-2.6c1.09-2.02,2.04-4.12,2.85-6.3c0.97-2.38,1.98-5.55,3.03-9.51c0.08-0.36,0.16-0.75,0.24-1.15
		c-0.57,0.08-1.01,0.12-1.33,0.12c-2.3,0-3.81-0.58-4.54-1.76c-0.52-0.77-0.79-1.29-0.79-1.57c0-0.32,0.16-0.48,0.48-0.48
		c3.03-0.24,5.51-0.63,7.45-1.15c-0.04-6.78-0.2-10.78-0.48-11.99c-0.28-1.53-0.83-3.05-1.63-4.54c0-0.32,0.26-0.48,0.79-0.48
		c1.57,0,3.19,0.4,4.84,1.21c1.57,0.73,2.36,1.51,2.36,2.36c0,0.44-0.1,0.93-0.3,1.45c-0.32,3.67-0.59,7.1-0.79,10.29
		c0.16-0.08,0.32-0.16,0.48-0.24C14.39,158.46,14.69,158.34,15.02,158.34z M29.73,149.87c0.36,0,1.51,0.42,3.45,1.27
		c0.44,0.24,0.83,0.48,1.15,0.73c4.04-0.24,7.23-0.61,9.57-1.09c1.82-0.4,3.41-0.87,4.78-1.39c0.32-0.12,0.65-0.18,0.97-0.18
		c0.32,0,0.93,0.16,1.82,0.48c1.01,0.73,1.51,1.37,1.51,1.94c0,0.44-0.06,0.87-0.18,1.27c-0.2,0.48-0.44,0.79-0.73,0.91
		c-2.06,0.44-4.16,0.81-6.3,1.09c0.16,0.04,0.28,0.08,0.36,0.12c2.18,0.89,3.27,1.59,3.27,2.12c0,0.4-0.14,0.79-0.42,1.15
		c-0.81,1.17-1.27,2.24-1.39,3.21c-0.4,1.9-0.81,3.63-1.21,5.21c0.93-0.2,1.8-0.42,2.6-0.67c1.09-0.28,2.12-0.42,3.09-0.42
		c0.89,0,1.9,0.3,3.03,0.91c1.37,0.97,2.06,1.9,2.06,2.79c0,0.24-0.18,0.53-0.54,0.85c-0.36,0.36-0.77,0.54-1.21,0.54
		c-3.96,0-7.35,0.12-10.17,0.36c-0.24,0.81-0.46,1.55-0.67,2.24c0.52,0.16,1.07,0.38,1.63,0.67c1.29,0.53,1.94,1.05,1.94,1.57
		c0,0.48-0.1,0.97-0.3,1.45c-0.52,1.74-0.85,3.23-0.97,4.48c-0.24,1.62-0.36,3.35-0.36,5.21c0,0.85,0.08,1.55,0.24,2.12
		c0.2,0.69,0.52,1.19,0.97,1.51c0.61,0.48,1.59,0.73,2.97,0.73c1.25,0,2.16-0.63,2.72-1.88c0.61-1.05,1.19-3.65,1.76-7.81
		c0.04-0.16,0.12-0.24,0.24-0.24s0.2,0.08,0.24,0.24c0.73,4.96,1.55,8.29,2.48,9.99c0.12,0.12,0.18,0.36,0.18,0.73
		c0,0.48-0.14,0.89-0.42,1.21c-0.65,0.93-1.6,1.59-2.85,2c-1.17,0.4-2.36,0.61-3.57,0.61c-2.22,0-4.18-0.4-5.87-1.21
		c-1.17-0.65-2.04-1.49-2.6-2.54c-0.44-0.85-0.67-2.4-0.67-4.66c0.24-3.96,0.38-7.1,0.42-9.45c-1.53,3.51-3.61,6.7-6.24,9.57
		c-2.75,2.66-5.47,4.58-8.17,5.75c-1.57,0.56-2.89,0.85-3.94,0.85c-0.32,0-0.48-0.08-0.48-0.24c1.86-1.33,3.61-2.64,5.27-3.94
		c3.59-3.39,6.22-6.62,7.87-9.69c1.33-2.38,2.46-5.29,3.39-8.72c-1.45,0.24-3.11,0.57-4.96,0.97c-0.08,0.04-0.22,0.06-0.42,0.06
		c-0.44,0-1.11-0.48-2-1.45c-0.77-0.81-1.15-1.35-1.15-1.63c0-0.32,0.16-0.48,0.48-0.48c1.05-0.16,1.98-0.34,2.79-0.54
		c0.08-1.37,0.12-2.42,0.12-3.15c0-3.83-0.1-7.18-0.3-10.05c-0.89,1.25-1.41,2.52-1.57,3.81c-1.01,6.46-1.76,10.13-2.24,11.02
		c-0.4,0.89-0.81,1.33-1.21,1.33c-0.77,0-1.43-0.26-2-0.79c-0.04-0.12-0.06-0.2-0.06-0.24c-1.09,0.08-2.12,0.2-3.09,0.36
		c-0.61,0.12-1.09,0.2-1.45,0.24l-0.3,11.2c1.45-0.81,2.82-1.53,4.12-2.18c-0.52-1.09-1.09-2.34-1.7-3.75
		c-0.24-0.36-0.36-0.63-0.36-0.79c0-0.16,0.1-0.24,0.3-0.24c0.56,0,1.21,0.14,1.94,0.42c1.82,0.73,3.21,1.55,4.18,2.48
		c0.73,0.93,1.09,2.24,1.09,3.94c0,0.44-0.24,0.87-0.73,1.27c-0.57,0.4-1.13,0.61-1.7,0.61c-0.4,0-0.81-0.3-1.21-0.91
		c-0.28-0.36-0.59-0.81-0.91-1.33c-3.96,3.43-6.14,5.45-6.54,6.05c-1.09,1.37-1.84,2.06-2.24,2.06c-0.69,0-1.29-0.54-1.82-1.63
		c-0.73-0.73-1.09-1.33-1.09-1.82c0-0.52,0.08-0.91,0.24-1.15c0.32-0.44,0.71-1.11,1.15-2c0.4-0.77,0.63-2.02,0.67-3.75
		c0.4-4.92,0.61-10.01,0.61-15.26c0-5.17-0.16-8.38-0.48-9.63c-0.28-0.89-0.63-1.61-1.03-2.18c-0.28-0.24-0.42-0.44-0.42-0.61
		c0-0.48,0.26-0.73,0.79-0.73c1.98,0,3.47,0.28,4.48,0.85c0.61-0.04,1.09-0.1,1.45-0.18c0.97-0.2,2.52-0.73,4.66-1.57
		C29,149.99,29.4,149.87,29.73,149.87z M23.92,154.53l-0.18,5.15c0.73-0.24,1.23-0.4,1.51-0.48c0.12-0.04,0.26-0.06,0.42-0.06
		c1.78,0,2.66,0.54,2.66,1.63c0,0.65-0.34,1.15-1.03,1.51c-0.93,0.28-2.16,0.54-3.69,0.79l-0.12,4.84c0.08-0.04,0.14-0.06,0.18-0.06
		c1.13-0.16,2.02-0.36,2.66-0.61c0.16-0.08,0.32-0.12,0.48-0.12c0.32,0,0.61,0.04,0.85,0.12c0.16-1.25,0.38-2.99,0.67-5.21
		c0.48-3.83,0.73-6.12,0.73-6.84c0-0.93-0.4-1.39-1.21-1.39C26.04,154.16,24.72,154.41,23.92,154.53z M39.78,155.68
		c-0.24,4.04-0.36,8.11-0.36,12.23c0.65-0.08,1.33-0.18,2.06-0.3c0.73-3.27,1.09-6.6,1.09-9.99c0-0.69-0.16-1.41-0.48-2.18
		C41.19,155.56,40.42,155.64,39.78,155.68z"/>
	<path class="st6" d="M38.75,214.69c0.36,0,0.99,0.18,1.88,0.54c1.13,0.77,1.7,1.47,1.7,2.12c0,0.48-0.08,0.95-0.24,1.39
		c-0.2,0.57-0.51,0.91-0.91,1.03c-1.86,0.32-3.69,0.63-5.51,0.91c1.53,0.57,2.3,1.15,2.3,1.76l-0.36,0.48
		c-0.28,0.44-0.46,1.05-0.54,1.82c-0.08,0.4-0.16,0.79-0.24,1.15c1.61-0.24,3.13-0.52,4.54-0.85c0.48-0.12,0.97-0.18,1.45-0.18
		c0.69,0,1.88,0.46,3.57,1.39c2.3,1.45,3.45,2.5,3.45,3.15c-0.08,0.69-0.38,1.23-0.91,1.63c-1.13,0.93-2.91,3.47-5.33,7.63
		c-1.09,1.13-2.24,1.7-3.45,1.7c-1.29,0-2.02-0.46-2.18-1.39c-4.32,0.08-8.56,0.4-12.71,0.97h0.06c1.33,0.48,2,1.01,2,1.57
		c0,0.28-0.06,0.53-0.18,0.73c-0.44,0.97-0.93,1.9-1.45,2.79c2.54-0.2,4.94-0.42,7.21-0.67c0-0.08,0-0.14,0-0.18
		c0-0.56-0.16-1.21-0.48-1.94c0-0.61,0.34-0.91,1.03-0.91c1.05,0,2.18,0.28,3.39,0.85c1.13,0.61,1.96,1.13,2.48,1.57
		c3.83-0.4,7.14-0.81,9.93-1.21c0.48-0.04,0.85-0.06,1.09-0.06c1.17,0,2.52,0.44,4.06,1.33c1.37,1.09,2.06,2.18,2.06,3.27
		c0,1.33-0.51,2-1.51,2c-0.97,0-2.62-0.12-4.96-0.36c-1.45-0.24-2.69-0.36-3.69-0.36c-2.91,0-5.65,0.02-8.23,0.06
		c-1.29,2.87-2.7,5.29-4.24,7.27c2.14,0.65,3.79,1.23,4.96,1.76c2.79,1.45,5.21,3.25,7.27,5.39c1.09,1.25,1.63,2.48,1.63,3.69
		c0,1.45-0.81,2.18-2.42,2.18c-1.05,0-3.55-1.49-7.51-4.48c-1.98-1.65-4.52-3.23-7.63-4.72c-3.15,2.75-6.48,4.72-9.99,5.93
		c-2.95,1.05-6.1,1.57-9.45,1.57c-1.49,0-2.24-0.24-2.24-0.73c2.54-0.61,4.78-1.25,6.72-1.94c3.43-1.37,6.8-3.37,10.11-5.99
		c0.24-0.24,0.46-0.46,0.67-0.67c-3.03-1.33-5.87-2.22-8.54-2.66c-0.81-0.16-1.21-0.61-1.21-1.33c0-0.52,0.24-0.97,0.73-1.33
		c0.52-0.44,1.07-1.41,1.63-2.91c-3.03,0.28-6.02,0.67-8.96,1.15c-1.01,0.28-2.04,0.42-3.09,0.42c-0.93,0-1.98-0.56-3.15-1.7
		c-0.97-1.13-1.45-1.88-1.45-2.24c0-0.32,0.18-0.48,0.54-0.48c2.99,0,8.8-0.34,17.44-1.03c0.65-1.7,0.97-3.11,0.97-4.24
		c0-0.24-0.04-0.5-0.12-0.79c-1.61,0.2-2.69,0.3-3.21,0.3c-0.36,0.61-0.87,0.91-1.51,0.91c-0.81,0-1.51-0.34-2.12-1.03
		c-0.52-0.69-0.79-1.23-0.79-1.63c-0.61-0.93-1.11-2.52-1.51-4.78c-0.32-1.41-0.77-2.52-1.33-3.33c-0.4-0.69-0.93-1.21-1.57-1.57
		c0-0.77,0.32-1.15,0.97-1.15c1.05,0,2.32,0.14,3.81,0.42c0.04,0,0.08,0.02,0.12,0.06c2.26-0.2,4.74-0.46,7.45-0.79
		c-0.16-1.65-0.3-2.72-0.42-3.21c-0.28-0.69-0.61-1.21-0.97-1.57c-0.24-0.28-0.4-0.52-0.48-0.73c-2.14-0.12-3.55-0.81-4.24-2.06
		c-0.61-0.89-0.91-1.51-0.91-1.88c0-0.28,0.16-0.42,0.48-0.42c6.42-0.28,11.46-0.75,15.14-1.39c2.91-0.52,5.43-1.09,7.57-1.7
		C37.7,214.79,38.23,214.69,38.75,214.69z M17.62,237.63c1.13-0.08,2.48-0.22,4.06-0.42c-0.16-2.5-0.3-4.6-0.42-6.3
		c-1.57,0.24-3.25,0.48-5.03,0.73L17.62,237.63z M32.03,248.59c-3.03,0.12-5.75,0.26-8.17,0.42c-0.2,0-0.38,0.02-0.54,0.06
		c-0.61,0.97-1.21,1.92-1.82,2.85c0,0.44,0.38,0.73,1.15,0.85c2.34,0.57,4.46,1.09,6.36,1.57c0.97-1.29,1.76-2.66,2.36-4.12
		C31.65,249.66,31.87,249.12,32.03,248.59z M31.18,226.74c0.04-0.93,0.06-1.63,0.06-2.12c0-0.97-0.16-2.08-0.48-3.33
		c-1.17,0.16-2.32,0.3-3.45,0.42c-1.21,0.2-2.3,0.34-3.27,0.42c1.41,0.53,2.12,1.01,2.12,1.45v0.85c-0.16,0.57-0.26,1.57-0.3,3.03
		c1.49-0.16,2.97-0.36,4.42-0.61C30.64,226.82,30.94,226.78,31.18,226.74z M26.04,236.67c1.7-0.2,3.23-0.4,4.6-0.61
		c0.2-2.46,0.34-4.54,0.42-6.24c-0.32,0-0.65,0.02-0.97,0.06c-1.29,0.12-2.7,0.28-4.24,0.48C25.85,232.11,25.91,234.2,26.04,236.67z
		 M34.94,235.27c0.69-0.16,1.31-0.24,1.88-0.24c0.93,0,1.72,0.38,2.36,1.15c0.4-1.05,0.79-2.26,1.15-3.63
		c0.4-1.01,0.61-1.88,0.61-2.6c0-0.52-0.26-0.79-0.79-0.79c-0.81,0-2.16,0.06-4.06,0.18c-0.12,0.57-0.22,1.11-0.3,1.63
		C35.54,232.39,35.26,233.82,34.94,235.27z"/>
</g>
</svg>
