<?xml version="1.0" encoding="utf-8"?>
<!-- Generator: Adobe Illustrator 23.0.1, SVG Export Plug-In . SVG Version: 6.00 Build 0)  -->
<svg version="1.1" id="レイヤー_1" xmlns="http://www.w3.org/2000/svg" xmlns:xlink="http://www.w3.org/1999/xlink" x="0px"
	 y="0px" viewBox="0 0 59 267" style="enable-background:new 0 0 59 267;" xml:space="preserve">
<style type="text/css">
	.st0{display:none;fill:#1A1A1A;}
	.st1{font-family:'DFKaiSho-Bd-WING-RKSJ-H';}
	.st2{font-size:62px;glyph-orientation-vertical:0;writing-mode:tb;}
	.st3{letter-spacing:9;}
	.st4{display:none;}
	.st5{display:inline;fill:#1A1A1A;}
	.st6{fill:#1A1A1A;}
</style>
<text transform="matrix(1 0 0 1 31 0)" class="st0 st1 st2 st3">新着情報</text>
<g class="st4">
	<path class="st5" d="M25.25,6.36c0.32,0,0.87,0.14,1.63,0.42c1.01,0.65,1.51,1.23,1.51,1.76c0,0.44-0.08,0.87-0.24,1.27
		c-0.16,0.44-0.4,0.73-0.73,0.85c-1.61,0.48-3.21,0.87-4.78,1.15c0.85,0.12,1.7,0.32,2.54,0.61c1.33,0.4,2,0.89,2,1.45
		c0,0.16-0.16,0.44-0.48,0.85c-0.65,0.81-1.13,1.43-1.45,1.88c-0.77,1.13-1.7,2.3-2.79,3.51c0.89-0.2,1.78-0.38,2.66-0.54
		c0.65-0.08,1.23-0.12,1.76-0.12c1.98,0.12,2.97,1.23,2.97,3.33c0,0.44-0.85,0.71-2.54,0.79c-2.38,0.12-5.07,0.48-8.05,1.09
		c1.05,0.57,1.57,1.17,1.57,1.82c0,0.16-0.08,0.34-0.24,0.54c-0.16,0.4-0.26,0.93-0.3,1.57c0.89-0.24,1.78-0.48,2.66-0.73
		c0.65-0.12,1.25-0.18,1.82-0.18c0.85,0,1.78,0.32,2.79,0.97c0.85,0.61,1.27,1.39,1.27,2.36c0,1.01-0.22,1.51-0.67,1.51
		c-2.79,0-5.45,0.12-7.99,0.36c0.04,0.69,0.06,1.39,0.06,2.12c0.28,0,0.52,0.02,0.73,0.06c1.09,0.28,2.18,0.63,3.27,1.03
		c1.41,0.65,2.36,1.21,2.85,1.7c0.4,0.44,0.61,0.93,0.61,1.45c0,0.65-0.24,1.33-0.73,2.06c-0.4,0.61-0.97,0.91-1.7,0.91
		c-0.93,0-1.6-0.34-2-1.03c-0.28-0.32-0.75-0.97-1.39-1.94c-0.73-1.33-1.25-2.24-1.57-2.72c0.16,3.03,0.42,6.12,0.79,9.26
		c0,1.53-0.65,3.15-1.94,4.84c-1.13,1.49-2.1,2.24-2.91,2.24c-0.77,0-1.39-0.48-1.88-1.45c-0.69-1.21-2.38-3.01-5.09-5.39
		c0-0.44,0.24-0.67,0.73-0.67c1.65,0.61,2.85,0.91,3.57,0.91c0.52,0,0.85-0.67,0.97-2c0.2-2.14,0.3-5.45,0.3-9.93V33.6
		c-1.37,0.2-2.81,0.53-4.3,0.97c-0.69,0.24-1.11,0.36-1.27,0.36c-0.69,0-1.49-0.46-2.42-1.39c-0.85-0.69-1.27-1.27-1.27-1.76
		c0-0.2,0.08-0.3,0.24-0.3c3.39-0.52,6.34-1.05,8.84-1.57c-0.04-0.69-0.08-1.39-0.12-2.12c-0.08-0.89-0.16-1.59-0.24-2.12
		c-2.42,0.57-5.13,1.27-8.11,2.12l-1.03,0.3c-0.32,0-1.13-0.46-2.42-1.39c-1.33-1.21-2-2.36-2-3.45c0-0.16,0.16-0.24,0.48-0.24
		c2.22-0.04,4.5-0.2,6.84-0.48c2.74-0.32,6.5-0.95,11.26-1.88c0.56-1.49,0.99-2.93,1.27-4.3c0.16-0.97,0.24-1.71,0.24-2.24
		c0-0.28-0.28-0.89-0.85-1.82c-0.81,0.12-1.57,0.24-2.3,0.36c-2.38,0.44-4.14,0.67-5.27,0.67c-2.1,0-3.49-0.58-4.18-1.76
		c-0.44-0.77-0.67-1.31-0.67-1.63c0-0.16,0.06-0.24,0.18-0.24c4.64-0.24,8.27-0.67,10.9-1.27c2.1-0.56,3.91-1.15,5.45-1.76
		C24.5,6.46,24.88,6.36,25.25,6.36z M8.48,36.33c0.2,0,0.4,0.24,0.61,0.73c0.61,1.21,0.91,2.2,0.91,2.97c0,1.33-0.34,2.77-1.03,4.3
		c-0.36,1.05-0.85,1.86-1.45,2.42c-0.4,0.53-0.81,0.79-1.21,0.79c-1.17,0-2.12-0.42-2.85-1.27c-0.36-0.69-0.54-1.41-0.54-2.18
		c0-0.48,0.16-0.99,0.48-1.51c2.58-2.79,3.98-4.56,4.18-5.33C7.69,36.63,7.99,36.33,8.48,36.33z M9.99,14.59
		c0.44,0,1.01,0.06,1.7,0.18c1.53,0.4,2.72,0.89,3.57,1.45c0.65,0.53,0.97,1.25,0.97,2.18c0,0.61-0.28,1.17-0.85,1.7
		c-0.69,0.48-1.37,0.73-2.06,0.73c-0.28,0-0.59-0.2-0.91-0.61c-0.69-0.73-1.57-2.28-2.66-4.66c-0.16-0.24-0.24-0.42-0.24-0.54
		C9.55,14.73,9.71,14.59,9.99,14.59z M15.32,0c1.05,0,2.36,0.28,3.94,0.85c1.53,0.48,2.56,0.93,3.09,1.33
		c0.48,0.48,0.73,1.07,0.73,1.76c0,1.94-1.13,2.91-3.39,2.91c-0.77,0-1.72-0.89-2.85-2.66c-1.33-1.94-2-3.17-2-3.69
		C14.83,0.2,14.99,0.04,15.32,0z M44.32,3.69c0.77,0,2.52,0.57,5.27,1.7c2.14,1.13,3.21,2.08,3.21,2.85c0,0.44-0.26,0.75-0.79,0.91
		c-1.98,0.77-3.29,1.23-3.94,1.39c-0.93,0.2-2.16,0.61-3.69,1.21c-2.83,1.05-5.05,1.78-6.66,2.18l-0.06,0.24
		c-0.4,0.73-0.61,1.45-0.61,2.18c-0.04,1.94-0.1,3.73-0.18,5.39c3.63-0.81,7.41-1.74,11.32-2.79c1.05-0.36,2.04-0.54,2.97-0.54
		c0.89,0,1.96,0.38,3.21,1.15c1.25,0.77,1.88,1.62,1.88,2.54c0,0.85-0.51,1.31-1.51,1.39c-1.17,0.08-2.54,0.2-4.12,0.36
		c-1.09,0.12-2.28,0.26-3.57,0.42c1.73,0.57,2.6,1.11,2.6,1.63c0,0.44-0.06,0.91-0.18,1.39c-0.48,0.73-0.73,2.22-0.73,4.48
		c0,8.15-0.14,13.44-0.42,15.86c-0.16,2.5-0.61,4.52-1.33,6.05c-0.73,1.53-1.45,2.3-2.18,2.3c-0.69,0-1.13-0.85-1.33-2.54
		c-0.36-0.53-0.54-8.48-0.54-23.86c0-1.86-0.34-3.43-1.03-4.72c-1.33,0.16-2.69,0.3-4.06,0.42c-0.32,0.08-0.59,0.12-0.79,0.12
		c-0.12-0.04-0.24-0.08-0.36-0.12c-0.08,1.78-0.2,3.39-0.36,4.84c-0.4,3.75-1.09,6.72-2.06,8.9c-1.37,2.99-3.25,5.33-5.63,7.02
		c-1.53,1.13-2.58,1.7-3.15,1.7h-0.24c0.93-1.33,1.8-2.79,2.6-4.36c1.17-2.54,2.04-5.13,2.6-7.75c0.69-2.99,1.03-8.13,1.03-15.44
		c0-2.02-0.14-3.77-0.42-5.27c-0.08-1.09-0.59-2.08-1.51-2.97c-0.16-0.2-0.24-0.38-0.24-0.54c0-0.52,0.65-0.79,1.94-0.79
		c1.98,0,3.75,0.36,5.33,1.09c0.2,0.08,0.36,0.14,0.48,0.18c0.97-0.56,1.84-1.17,2.6-1.82c1.17-0.85,2.12-1.88,2.85-3.09
		c0.44-0.61,0.83-1.47,1.15-2.6C43.65,3.94,43.88,3.69,44.32,3.69z"/>
	<path class="st5" d="M38.99,77.66c0.36,0,0.95,0.14,1.76,0.42c0.93,0.65,1.39,1.23,1.39,1.76c0,0.44-0.06,0.87-0.18,1.27
		c-0.2,0.44-0.44,0.73-0.73,0.85c-3.27,0.77-6.62,1.41-10.05,1.94c-0.04,0.97-0.06,1.86-0.06,2.66c1.01-0.2,1.96-0.4,2.85-0.61
		c0.97-0.2,1.7-0.3,2.18-0.3c2.54,0,3.81,0.97,3.81,2.91c0,0.4-0.34,0.67-1.03,0.79c-2.75,0.48-5.37,0.89-7.87,1.21
		c-0.04,0.89-0.06,1.76-0.06,2.6c4.72-0.61,8.29-1.11,10.72-1.51c2.46-0.28,4.46-0.42,5.99-0.42c0.4,0,1.51,0.4,3.33,1.21
		c1.7,1.17,2.54,2.14,2.54,2.91c0,1.41-0.89,2.12-2.66,2.12c-0.4,0-1.13-0.08-2.18-0.24c-1.05-0.16-1.94-0.24-2.66-0.24
		c-5.25,0-10.41,0.12-15.5,0.36c-2.58,0.12-5.21,0.38-7.87,0.79c0.32,0.12,0.65,0.26,0.97,0.42c1.21,0.36,1.82,0.89,1.82,1.57
		c0,0.2-0.12,0.36-0.36,0.48c-0.24,0.28-0.54,0.71-0.91,1.27c-0.28,0.4-0.52,0.77-0.73,1.09c1.78-0.24,3.9-0.67,6.36-1.27
		c1.98-0.36,4.08-1.05,6.3-2.06c0.44-0.16,0.83-0.24,1.15-0.24c0.61,0,2,0.61,4.18,1.82c2.58,1.37,3.88,2.32,3.88,2.85
		c0,0.08-0.08,0.2-0.24,0.36c-1.29,2.3-1.94,3.96-1.94,4.96c0,2.34,0.22,5.01,0.67,7.99c0.16,2.71,0.24,4.42,0.24,5.15
		c0,1.09-0.59,2.2-1.76,3.33c-1.29,1.09-2.4,1.63-3.33,1.63c-0.12,0-0.28-0.42-0.48-1.27c-0.65-1.57-1.25-2.91-1.82-4
		c-2.34,0.04-4.7,0.18-7.08,0.42c-1.74,0.2-3.03,0.34-3.88,0.42v0.06c-0.12,0.73-0.48,1.47-1.09,2.24
		c-0.73,0.65-1.33,0.97-1.82,0.97c-1.01,0-1.78-0.77-2.3-2.3c-0.57-1.21-0.85-2.14-0.85-2.79l0.06-0.36
		c0.32-1.29,0.52-2.32,0.61-3.09c0.2-1.65,0.3-3.73,0.3-6.24c-0.12-1.78-0.28-3.23-0.48-4.36c-0.69,0.81-1.35,1.53-2,2.18
		c-2.18,2.38-4.52,4.34-7.02,5.87c-2.06,1.37-4.06,2.38-5.99,3.03c-0.77,0.36-1.27,0.54-1.51,0.54v-0.24
		c2.91-2.42,5.45-4.8,7.63-7.14c1.49-1.61,2.91-3.37,4.24-5.27c1.25-1.78,2.18-3.51,2.79-5.21c0.24-0.65,0.36-1.17,0.36-1.57
		c-0.12-0.24-0.22-0.46-0.3-0.67c-0.24,0.04-0.46,0.08-0.67,0.12c-2.14,0.36-4.74,0.97-7.81,1.82c-0.61,0.08-0.91,0.16-0.91,0.24
		c-0.52,0-1.43-0.65-2.72-1.94c-1.05-1.33-1.57-2.16-1.57-2.48c0-0.28,0.16-0.42,0.48-0.42c1.21-0.08,2.64-0.2,4.3-0.36
		c6.18-0.73,11.56-1.35,16.17-1.88c0.04-1.09,0.08-1.96,0.12-2.6c-2.62,0.28-4.32,0.42-5.09,0.42c-0.93,0-1.72-0.24-2.36-0.73
		c-0.52-0.48-0.79-0.97-0.79-1.45c0-0.4,0.16-0.65,0.48-0.73c2.66-0.32,5.23-0.69,7.69-1.09c-0.08-1.05-0.2-1.98-0.36-2.79
		c-2.58,0.36-4.54,0.54-5.87,0.54c-2.14,0-3.51-0.61-4.12-1.82c-0.48-0.77-0.73-1.31-0.73-1.63c0-0.16,0.08-0.24,0.24-0.24
		c6.38-0.32,11.42-0.85,15.14-1.57c2.87-0.65,5.39-1.35,7.57-2.12C38.02,77.78,38.51,77.66,38.99,77.66z M18.41,72.81
		c0.61,0,1.29,0.08,2.06,0.24c1.86,0.4,3.29,0.91,4.3,1.51c0.77,0.53,1.15,1.29,1.15,2.3c0,0.65-0.34,1.27-1.03,1.88
		c-0.81,0.53-1.57,0.79-2.3,0.79c-0.4,0-0.79-0.22-1.15-0.67c-0.77-0.77-1.84-2.44-3.21-5.03c-0.16-0.28-0.24-0.48-0.24-0.61
		C18.02,72.96,18.16,72.81,18.41,72.81z M25.61,119.86c1.05-0.12,2.22-0.26,3.51-0.42c2.54-0.24,4.58-0.54,6.12-0.91
		c0.4-0.16,0.77-0.24,1.09-0.24c0.4,0,0.79,0.1,1.15,0.3c0.08-1.37,0.12-3.45,0.12-6.24c0-2.46-0.1-4.5-0.3-6.12
		c-0.16-0.81-0.52-1.31-1.09-1.51c-0.32-0.16-0.93-0.24-1.82-0.24c-0.24,0-0.54,0.02-0.91,0.06c-3.23,0.36-5.87,0.83-7.93,1.39
		c-0.04,0.65-0.06,1.47-0.06,2.48c1.86-0.32,3.59-0.69,5.21-1.09c0.44-0.12,0.79-0.18,1.03-0.18c2.3,0,3.45,0.81,3.45,2.42
		c0,0.28-0.2,0.46-0.61,0.54c-2.34,0.48-4.54,0.85-6.6,1.09c-1.13,0.16-1.96,0.26-2.48,0.3v2.6c2.02-0.32,3.9-0.73,5.63-1.21
		c0.48-0.12,0.85-0.18,1.09-0.18c2.3,0,3.45,0.81,3.45,2.42c0,0.28-0.2,0.46-0.61,0.54c-2.34,0.48-4.54,0.85-6.6,1.09
		c-1.49,0.16-2.46,0.26-2.91,0.3C25.59,118.08,25.61,119.01,25.61,119.86z M34.15,70.15c0.85,0,2.26,0.32,4.24,0.97
		c2.02,1.13,3.03,2,3.03,2.6c0,0.24-0.3,0.46-0.91,0.67c-0.77,0.2-1.61,0.59-2.54,1.15c-3.71,2.06-6.6,3.39-8.66,4
		c-0.16,0-0.24-0.08-0.24-0.24c0.77-0.81,1.35-1.49,1.76-2.06c0.73-0.97,1.35-2.02,1.88-3.15c0.36-0.61,0.54-1.03,0.54-1.27
		c0-0.2-0.04-0.4-0.12-0.61C33.04,71.76,33,71.46,33,71.3C33,70.53,33.38,70.15,34.15,70.15z"/>
	<path class="st5" d="M5.81,161.79c0.24,0,0.46,0.26,0.67,0.79c0.73,1.49,1.09,2.66,1.09,3.51c0,1.98-0.34,4.04-1.03,6.18
		c-0.36,1.49-0.85,2.66-1.45,3.51c-0.4,0.69-0.79,1.03-1.15,1.03c-1.37,0-2.46-0.46-3.27-1.39C0.22,174.61,0,173.76,0,172.87
		c0-0.69,0.16-1.43,0.48-2.24c2.7-3.96,4.16-6.52,4.36-7.69C5,162.18,5.33,161.79,5.81,161.79z M8.96,144.54
		c1.86,0,3.77,0.5,5.75,1.51c1.86,0.77,2.79,1.66,2.79,2.66c0,0.4-0.12,0.85-0.36,1.33c-0.32,2.22-0.57,4.36-0.73,6.42
		c1.49,0.48,2.79,1.01,3.88,1.57c0.61,0.28,1.11,0.81,1.51,1.57c0.44,0.89,0.71,1.78,0.79,2.66c0,1.29-0.59,1.94-1.76,1.94
		c-1.74,0-2.77-0.34-3.09-1.03c-0.44-0.73-0.85-1.55-1.21-2.48c-0.12-0.32-0.24-0.65-0.36-0.97c-0.28,3.63-0.42,6.96-0.42,9.99
		v22.28c0,1.05-0.46,2.18-1.39,3.39c-0.57,1.29-1.29,1.94-2.18,1.94c-1.09,0-2-0.87-2.72-2.6c-0.65-1.05-0.97-2.34-0.97-3.88
		c0.65-2.79,1.17-5.69,1.57-8.72c0.56-2.66,0.85-6.8,0.85-12.41c0-11.67-0.2-18.33-0.61-19.98c-0.4-1.53-1.09-3.03-2.06-4.48
		C8.23,144.78,8.48,144.54,8.96,144.54z M45.35,146.05c0.36,0,0.97,0.16,1.82,0.48c1.05,0.73,1.57,1.37,1.57,1.94
		c0,0.44-0.08,0.87-0.24,1.27c-0.16,0.44-0.42,0.73-0.79,0.85c-2.87,0.77-5.83,1.39-8.9,1.88c-0.08,0.93-0.16,1.9-0.24,2.91
		c0.52-0.12,1.05-0.24,1.57-0.36c0.77-0.16,1.35-0.24,1.76-0.24c2.95,0,4.42,1.03,4.42,3.09c0,0.4-0.3,0.65-0.91,0.73
		c-2.5,0.53-4.86,0.93-7.08,1.21c-0.04,1.21-0.1,2.46-0.18,3.75c5.13-0.77,9.18-1.49,12.17-2.18c0.36-0.04,0.65-0.06,0.85-0.06
		c1.01,0,2.22,0.36,3.63,1.09c1.29,1.01,1.94,2,1.94,2.97c0,1.33-0.51,2-1.51,2c-0.85,0-2.36-0.12-4.54-0.36
		c-1.33-0.24-2.48-0.36-3.45-0.36c-5.45,0-9.89,0.24-13.32,0.73c-2.91,0.32-5.75,0.91-8.54,1.76c-0.65,0.28-1.27,0.42-1.88,0.42
		c-0.85,0-1.8-0.5-2.85-1.51c-0.81-0.97-1.21-1.61-1.21-1.94c0-0.32,0.16-0.48,0.48-0.48c2.1,0,6.4-0.42,12.9-1.27
		c0.04-1.45,0.1-2.74,0.18-3.88c-1.57,0.2-2.62,0.3-3.15,0.3c-0.97,0-1.82-0.28-2.54-0.85c-0.61-0.61-0.91-1.21-0.91-1.82
		c0-0.24,0.16-0.4,0.48-0.48c2.18-0.28,4.26-0.63,6.24-1.03c0.04-1.13,0.06-2.18,0.06-3.15c-1.49,0.24-2.7,0.36-3.63,0.36
		c-2.3,0-3.79-0.61-4.48-1.82c-0.57-0.77-0.85-1.31-0.85-1.63c0-0.32,0.18-0.48,0.54-0.48c3.23-0.16,6.05-0.4,8.48-0.73
		c0-1.17-0.04-1.98-0.12-2.42c-0.28-0.97-0.63-1.71-1.03-2.24c-0.4-0.56-0.61-1.03-0.61-1.39c0-0.81,0.34-1.21,1.03-1.21
		c1.49,0,2.95,0.36,4.36,1.09c2.06,0.73,3.09,1.41,3.09,2.06c-0.04,0.32-0.08,0.71-0.12,1.15c-0.16,0.4-0.32,0.99-0.48,1.76
		c1.78-0.48,3.33-0.99,4.66-1.51C44.42,146.17,44.87,146.05,45.35,146.05z M26.64,170.27c1.37,0,2.4,0.12,3.09,0.36
		c0.65,0.04,1.09,0.18,1.33,0.42c2.58-0.48,5.06-1.03,7.45-1.63c1.13-0.32,2.06-0.71,2.79-1.15c0.24-0.16,0.44-0.24,0.61-0.24
		c0.65,0,1.88,0.36,3.69,1.09c2.1,1.05,3.15,2,3.15,2.85c0,0.12-0.06,0.26-0.18,0.42c-0.57,1.29-0.85,3.83-0.85,7.63
		c0,0.61,0.14,2.77,0.42,6.48c0.24,2.87,0.36,4.8,0.36,5.81c0,0.93-0.63,2.28-1.88,4.06c-1.41,1.61-2.56,2.42-3.45,2.42
		c-4.56-4.48-6.84-6.82-6.84-7.02c0-0.32,0.08-0.48,0.24-0.48c2.14,0.48,3.53,0.73,4.18,0.73c0.61,0,0.99-0.44,1.15-1.33
		c0.32-1.37,0.48-4.2,0.48-8.48c0-2.14-0.24-5.09-0.73-8.84c0-0.44-0.38-0.67-1.15-0.67c-0.77,0-1.88,0.08-3.33,0.24
		c-1.82,0.32-3.81,0.83-5.99,1.51c-0.04,0.73-0.06,1.43-0.06,2.12v0.67c1.73-0.4,3.35-0.83,4.84-1.27c0.36-0.12,0.65-0.18,0.85-0.18
		c2.62,0,3.94,0.97,3.94,2.91c0,0.24-0.16,0.38-0.48,0.42c-1.94,0.44-3.75,0.77-5.45,0.97c-1.33,0.24-2.2,0.36-2.6,0.36
		c-0.4,0-0.79-0.06-1.15-0.18c0,1.21-0.04,2.3-0.12,3.27c1.73-0.24,3.33-0.5,4.78-0.79c0.36-0.08,0.65-0.12,0.85-0.12
		c2.62,0,3.94,0.97,3.94,2.91c0,0.16-0.18,0.24-0.54,0.24c-1.94,0.32-3.77,0.54-5.51,0.67c-1.37,0.16-2.28,0.24-2.72,0.24
		c-0.36,0-0.71-0.04-1.03-0.12c0,0.08,0,0.14,0,0.18c-0.36,3.31-0.83,5.71-1.39,7.21c-0.61,1.17-1.31,1.76-2.12,1.76
		c-0.93,0-1.61-0.54-2.06-1.63c-0.44-0.85-0.67-1.86-0.67-3.03c0-0.32,0.06-0.69,0.18-1.09c0.81-2.22,1.35-4.44,1.63-6.66
		c0.24-1.86,0.36-4.5,0.36-7.93c0-0.85-0.08-1.65-0.24-2.42c-0.32-1.05-0.48-1.71-0.48-2C25.91,170.49,26.16,170.27,26.64,170.27z"
		/>
	<path class="st5" d="M23.98,223.16c0.28,0,0.79,0.12,1.51,0.36c0.77,0.57,1.15,1.09,1.15,1.57c0,0.4-0.06,0.77-0.18,1.09
		c-0.12,0.44-0.3,0.71-0.54,0.79c-1.57,0.53-3.19,0.97-4.84,1.33c-0.12,1.41-0.22,2.93-0.3,4.54c1.17-0.28,2.38-0.56,3.63-0.85
		c0.69-0.12,1.27-0.18,1.76-0.18c1.78,0.12,2.66,1.17,2.66,3.15c0,0.48-0.81,0.77-2.42,0.85c-0.44,0.04-0.85,0.08-1.21,0.12
		c0.48,0.24,0.73,0.48,0.73,0.73c0,0.16-0.12,0.42-0.36,0.79c-0.52,0.77-0.95,1.33-1.27,1.7c-0.44,0.81-0.97,1.55-1.57,2.24
		c0.24-0.08,0.46-0.14,0.67-0.18c0.61-0.08,1.15-0.12,1.63-0.12c1.78,0.12,2.66,1.15,2.66,3.09c0,0.44-0.73,0.71-2.18,0.79
		c-1.7,0.12-3.51,0.38-5.45,0.79c0.85,0.61,1.27,0.97,1.27,1.09c0,0.48-0.12,1.01-0.36,1.57c-0.12,0.32-0.2,0.69-0.24,1.09
		c0.56-0.2,1.15-0.38,1.76-0.54c0.48-0.08,0.91-0.12,1.27-0.12c1.78,0.12,2.66,1.15,2.66,3.09c0,0.48-0.59,0.77-1.76,0.85
		c-1.25,0.08-2.58,0.3-4,0.67v9.87c0,2.06-0.34,3.31-1.03,3.75c-0.69,0.89-1.39,1.33-2.12,1.33c-0.61,0-1.25-0.53-1.94-1.57
		c-0.65-1.05-0.97-2.54-0.97-4.48c0-0.16,0.1-0.48,0.3-0.97c0.32-0.77,0.48-1.27,0.48-1.51c0.16-1.61,0.26-3.29,0.3-5.03
		c-1.78,0.57-3.84,1.35-6.18,2.36l-0.79,0.3c-0.28,0-1.01-0.42-2.18-1.27c-1.25-1.09-1.88-2.12-1.88-3.09
		c0-0.16,0.16-0.24,0.48-0.24c1.57-0.04,3.21-0.22,4.9-0.54c1.49-0.28,3.39-0.75,5.69-1.39v-0.48c0-1.53-0.24-2.66-0.73-3.39
		l-0.06-0.18c-2.26,0.57-4.82,1.35-7.69,2.36L6.3,249.5c-0.28,0-1.01-0.42-2.18-1.27c-1.25-1.09-1.88-2.12-1.88-3.09
		c0-0.16,0.14-0.24,0.42-0.24c1.9-0.04,3.88-0.2,5.93-0.48c2.58-0.4,6.24-1.17,10.96-2.3c0.32-1.09,0.58-2.14,0.79-3.15
		c0.2-0.89,0.3-1.57,0.3-2.06c0-0.08-0.04-0.22-0.12-0.42c-1.21,0.2-2.38,0.42-3.51,0.67c-1.13,0.2-2.38,0.48-3.75,0.85
		c0.69,0.32,1.23,0.65,1.63,0.97c0.56,0.53,0.85,1.31,0.85,2.36c0,0.48-0.26,0.97-0.79,1.45c-0.65,0.48-1.27,0.73-1.88,0.73
		c-0.24,0-0.51-0.24-0.79-0.73c-0.52-0.69-1.21-2.02-2.06-4c-1.29,0.36-2.66,0.77-4.12,1.21l-0.97,0.36c-0.32,0-1.09-0.44-2.3-1.33
		c-1.25-1.09-1.88-2.1-1.88-3.03c0-0.16,0.18-0.24,0.54-0.24c2.1-0.04,4.26-0.22,6.48-0.54c1.94-0.28,4.4-0.71,7.39-1.27
		c0.04-1.65,0.08-3.13,0.12-4.42c-1.33,0.24-2.36,0.36-3.09,0.36c-1.9,0-3.15-0.54-3.75-1.63c-0.44-0.73-0.67-1.23-0.67-1.51
		c0-0.16,0.08-0.24,0.24-0.24c2.95-0.2,5.41-0.46,7.39-0.79c0.04-1.25,0.06-2.32,0.06-3.21c0-2.14-0.06-3.53-0.18-4.18
		c-0.24-0.81-0.54-1.47-0.91-2c-0.36-0.48-0.54-0.87-0.54-1.15c0-0.85,0.34-1.27,1.03-1.27c1.49,0,2.95,0.36,4.36,1.09
		c2.1,0.73,3.15,1.43,3.15,2.12c-0.04,0.28-0.08,0.61-0.12,0.97c-0.4,0.85-0.77,2.85-1.09,5.99c0.61-0.2,1.15-0.4,1.63-0.61
		C23.33,223.27,23.65,223.16,23.98,223.16z M30.09,221.17c0.97,0,2.16,0.36,3.57,1.09c0.65,0.24,1.09,0.44,1.33,0.61
		c1.41-0.16,3.07-0.42,4.96-0.79c1.21-0.16,2.66-0.58,4.36-1.27c0.2-0.04,0.44-0.06,0.73-0.06c0.32,0,1.33,0.53,3.03,1.57
		c1.73,1.05,2.6,1.9,2.6,2.54c0,0.12-0.12,0.28-0.36,0.48c-0.77,0.65-1.19,1.17-1.27,1.57c-0.44,3.03-0.97,5.33-1.57,6.9
		c-0.52,1.49-1.11,2.48-1.76,2.97c-0.4,0.4-0.99,0.81-1.76,1.21c-0.65,0.28-1.07,0.42-1.27,0.42c-0.52,0-0.93-0.26-1.21-0.79
		c-1.29-2.14-2.54-3.71-3.75-4.72c-0.28-0.12-0.42-0.22-0.42-0.3c0-0.36,0.1-0.54,0.3-0.54c2.34,0.53,3.69,0.79,4.06,0.79
		c0.48,0,0.95-0.44,1.39-1.33c0.44-0.81,0.79-1.92,1.03-3.33c0.16-0.73,0.24-1.37,0.24-1.94c0-0.93-0.46-1.39-1.39-1.39
		c-1.09,0-2.16,0.04-3.21,0.12c-1.17,0.16-2.69,0.46-4.54,0.91v2.6c-0.04,4.92-0.06,9.49-0.06,13.68c1.49-0.04,3.01-0.18,4.54-0.42
		c1.9-0.24,3.85-0.67,5.87-1.27c0.4-0.08,0.73-0.12,0.97-0.12c0.69,0,1.8,0.34,3.33,1.03c1.82,1.13,2.72,2.14,2.72,3.03l-0.3,0.48
		c-1.05,1.05-1.94,2.48-2.66,4.3c-0.65,1.82-1.37,3.37-2.18,4.66c-0.48,0.73-1.17,1.55-2.06,2.48c2.74,1.98,6.68,3.92,11.81,5.81
		c0,0.53-0.36,0.85-1.09,0.97c-4.88,0.97-7.75,1.45-8.6,1.45c-1.01,0-1.68-0.26-2-0.79c-1.17-1.49-2.34-3.09-3.51-4.78
		c-0.36,0.24-0.73,0.46-1.09,0.67c-1.45,0.73-2.83,1.29-4.12,1.7c-0.65,0.2-1.23,0.34-1.76,0.42c-0.04,1.37-0.06,2.6-0.06,3.69
		c-0.16,0.73-0.54,1.47-1.15,2.24c-0.69,0.61-1.29,0.91-1.82,0.91c-0.93,0-1.68-0.75-2.24-2.24c-0.61-1.21-0.91-2.14-0.91-2.79
		c0.04,0,0.08-0.36,0.12-1.09c0.52-4.52,0.85-8.09,0.97-10.72c0.28-5.73,0.42-12.94,0.42-21.62c-0.24-3.83-0.71-6.28-1.39-7.33
		c-0.08-0.32-0.12-0.56-0.12-0.73C28.82,221.49,29.24,221.17,30.09,221.17z M35,260.4c0.16-0.08,0.3-0.16,0.42-0.24
		c1.17-0.65,2.3-1.39,3.39-2.24c0.52-0.48,1.03-0.97,1.51-1.45c-0.97-1.41-1.92-2.89-2.85-4.42c-0.77-1.21-1.55-2.18-2.36-2.91
		C35.08,253.34,35.04,257.09,35,260.4z M35.12,246.66h0.06c0.56,0,1.15,0.14,1.76,0.42c0.77,0.69,1.47,1.53,2.12,2.54
		c0.93,1.41,2.02,2.81,3.27,4.18c0.4-0.56,0.73-1.11,0.97-1.63c0.48-1.17,0.97-2.83,1.45-4.96c0.2-0.61,0.3-1.11,0.3-1.51
		c0-0.69-0.24-1.03-0.73-1.03c-2.18,0.16-4.14,0.36-5.87,0.61c-0.97,0.08-1.68,0.12-2.12,0.12c-0.4,0-0.81-0.12-1.21-0.36
		C35.12,245.59,35.12,246.13,35.12,246.66z"/>
</g>
<g>
	<path class="st6" d="M28.58,0c0.85,0,1.78,0.32,2.79,0.97c0.85,0.57,1.27,1.37,1.27,2.42c0,0.93-0.24,1.39-0.73,1.39
		c-2.06,0-4.04,0.06-5.93,0.18c0.4,0.32,0.61,0.53,0.61,0.61c0,0.44-0.12,0.93-0.36,1.45c-0.2,0.69-0.3,1.39-0.3,2.12V46.5
		c0,2.02-0.34,3.25-1.03,3.69c-0.69,0.93-1.39,1.39-2.12,1.39c-0.61,0-1.25-0.54-1.94-1.63c-0.65-1.05-0.97-2.54-0.97-4.48
		c0-0.56,0.1-1.61,0.3-3.15c0.32-2.22,0.48-3.73,0.48-4.54c0.04-1.78,0.1-3.59,0.18-5.45c-1.82,1.09-4.04,2.32-6.66,3.69
		c-2.26,1.17-4.88,2.71-7.87,4.6c-0.4,0.36-0.73,0.54-0.97,0.54c-0.65,0-1.7-0.89-3.15-2.66c-1.17-1.74-1.76-2.97-1.76-3.69
		c0-0.44,0.24-0.67,0.73-0.67c1.01-0.08,1.96-0.22,2.85-0.42c1.33-0.24,2.87-0.58,4.6-1.03L8.17,16.95c0-2.7-0.18-5.21-0.54-7.51
		C7.59,8.64,7.31,7.85,6.78,7.08H6.72c-0.97,0.28-1.6,0.42-1.88,0.42c-0.69,0-1.49-0.46-2.42-1.39C1.57,5.43,1.15,4.82,1.15,4.3
		c0-0.16,0.08-0.24,0.24-0.24c5.09-0.56,9.55-1.15,13.38-1.76c3.67-0.56,7.43-1.25,11.26-2.06C26.92,0.08,27.77,0,28.58,0z
		 M20.89,29.55c0.12-6.34,0.18-13.14,0.18-20.4c0-1.53-0.26-2.64-0.79-3.33c-0.12-0.2-0.2-0.38-0.24-0.54
		c-1.86,0.16-3.69,0.34-5.51,0.54c-0.85,0.08-1.7,0.18-2.54,0.3c1.49,0.65,2.24,1.27,2.24,1.88c0,0.2-0.04,0.44-0.12,0.73
		c-0.12,0.69-0.22,1.94-0.3,3.75c1.49-0.28,2.44-0.48,2.85-0.61c0.12-0.04,0.28-0.06,0.48-0.06c1.98,0,2.97,0.59,2.97,1.76
		c0,0.73-0.34,1.29-1.03,1.7c-1.29,0.2-3.01,0.42-5.15,0.67h-0.18l-0.06,5.33c1.53-0.32,2.52-0.54,2.97-0.67h0.48
		c1.98,0,2.97,0.54,2.97,1.63c0,0.77-0.34,1.35-1.03,1.76c-1.29,0.2-3.01,0.4-5.15,0.61c-0.08,0.04-0.18,0.06-0.3,0.06l-0.06,6.84
		c1.9-0.48,3.91-1.03,6.05-1.63C20.14,29.73,20.56,29.63,20.89,29.55z M44.32,7.75c0.81,0,2.14,0.4,4,1.21
		c2.18,1.37,3.27,2.56,3.27,3.57l-0.42,0.79c-1.37,1.62-2.5,3.79-3.39,6.54c-0.89,2.83-1.84,5.21-2.85,7.14
		c-0.52,1.01-1.25,2.06-2.18,3.15c3.59,2.54,8.46,4.99,14.59,7.33c0,0.61-0.4,1.01-1.21,1.21c-5.25,0.97-8.32,1.45-9.2,1.45
		c-1.45,0-2.42-0.32-2.91-0.97c-1.45-1.74-2.93-3.59-4.42-5.57c-0.97,0.93-2,1.76-3.09,2.48c-1.82,1.09-3.55,1.94-5.21,2.54
		c-1.53,0.57-2.87,0.85-4,0.85c-0.48,0-0.73-0.24-0.73-0.73c0-0.16,0.24-0.3,0.73-0.42c0.77-0.48,1.61-1.01,2.54-1.57
		c1.57-1.05,3.07-2.24,4.48-3.57c1.01-1.01,1.88-2.1,2.6-3.27c-1.41-1.98-2.85-4.04-4.3-6.18c-1.29-1.98-2.72-3.53-4.3-4.66
		c-0.69-0.12-1.03-0.69-1.03-1.7c0-0.32,0.65-0.48,1.94-0.48c0.77,0,1.53,0.22,2.3,0.67c0.97,0.85,1.88,1.98,2.72,3.39
		c1.21,1.94,2.74,3.9,4.6,5.87c0.52-0.97,0.97-1.88,1.33-2.72c0.69-1.82,1.35-4.42,2-7.81c0.24-1.05,0.36-1.88,0.36-2.48
		c0-0.85-0.24-1.27-0.73-1.27c-2.75,0.73-5.21,1.51-7.39,2.36c-1.09,0.4-1.94,0.61-2.54,0.61c-0.85,0-1.74-0.5-2.66-1.51
		c-0.77-0.81-1.15-1.45-1.15-1.94c0-0.16,0.16-0.24,0.48-0.24c2.5,0,4.98-0.32,7.45-0.97c2.3-0.61,4.62-1.55,6.96-2.85
		C43.51,7.83,43.96,7.75,44.32,7.75z"/>
	<path class="st6" d="M20.34,83.59c0.36,0,0.97,0.18,1.82,0.54c1.01,0.73,1.51,1.35,1.51,1.88c0,0.48-0.06,0.93-0.18,1.33
		c-0.16,0.44-0.4,0.73-0.73,0.85c-1.66,0.53-3.35,1.01-5.09,1.45v6.54c0.77-0.32,1.55-0.67,2.36-1.03c1.61-0.77,2.6-1.15,2.97-1.15
		c0.77,0,1.15,0.42,1.15,1.27c0,0.16-0.24,0.42-0.73,0.79c-1.41,1.09-3.33,2.44-5.75,4.06v15.26c0,1.7-0.52,3.37-1.57,5.03
		c-0.81,1.13-1.51,1.7-2.12,1.7c-0.97,0-1.66-0.4-2.06-1.21c-0.57-1.09-2.62-3.11-6.18-6.05c0-0.48,0.24-0.73,0.73-0.73
		c2.22,0.85,3.67,1.27,4.36,1.27c0.48,0,0.79-0.44,0.91-1.33c0.36-1.21,0.63-3.85,0.79-7.93c0.04-0.89,0.08-1.8,0.12-2.72
		c-2.02,1.37-4.36,3.05-7.02,5.03c-0.4,0.4-0.75,0.61-1.03,0.61c-0.61,0-1.55-0.81-2.85-2.42c-1.01-1.57-1.51-2.68-1.51-3.33
		c0-0.48,0.22-0.73,0.67-0.73c1.05-0.12,2.02-0.38,2.91-0.79c2.38-0.77,5.41-1.94,9.08-3.51c0.12-2.46,0.18-4.96,0.18-7.51
		c-1.82,0.4-3.21,0.61-4.18,0.61c-2.3,0-3.79-0.58-4.48-1.76c-0.57-0.77-0.85-1.31-0.85-1.63c0-0.28,0.16-0.42,0.48-0.42
		c3.71-0.28,6.72-0.71,9.02-1.27c-0.04-3.07-0.14-5.77-0.3-8.11c-0.12-2.5-0.54-4.66-1.27-6.48c-0.12-0.24-0.18-0.44-0.18-0.61
		c0-0.52,0.42-0.79,1.27-0.79c1.25,0,2.82,0.42,4.72,1.27c1.49,0.44,2.24,1.07,2.24,1.88c0,0.2-0.06,0.44-0.18,0.73
		c-0.81,2.42-1.27,4.66-1.39,6.72c-0.08,1.33-0.14,2.6-0.18,3.81c0.52-0.2,1.01-0.42,1.45-0.67C19.58,83.73,19.94,83.59,20.34,83.59
		z M44.08,76.08c0.65,0,1.84,0.36,3.57,1.09c2.3,1.41,3.45,2.5,3.45,3.27c0,0.44-0.36,0.87-1.09,1.27
		c-2.54,2.71-5.05,5.91-7.51,9.63c-0.44,0.57-0.67,0.99-0.67,1.27c0,0.44,0.08,0.67,0.24,0.67c2.91-0.77,4.52-1.15,4.84-1.15
		c0.52,0,1.39,0.32,2.6,0.97c1.7,1.17,2.54,2.04,2.54,2.6c0,0.36-0.16,0.69-0.48,0.97c-1.33,1.66-2.06,2.75-2.18,3.27
		c-0.77,2.91-1.6,5.25-2.48,7.02c-0.97,1.82-2.06,3.35-3.27,4.6c2.79,2.75,7.43,5.71,13.93,8.9v0.48c0,0.24-0.42,0.4-1.27,0.48
		c-4.08,0.61-7.69,0.91-10.84,0.91c-1.01,0-1.68-0.18-2-0.54c-1.25-1.57-2.66-3.65-4.24-6.24c-0.52,0.36-1.07,0.69-1.63,0.97
		c-2.14,1.17-4.62,2.12-7.45,2.85c-2.1,0.56-4.26,0.85-6.48,0.85c-0.77,0-1.15-0.18-1.15-0.54c0.12-0.12,0.58-0.28,1.39-0.48
		c4.72-1.53,8.6-3.33,11.63-5.39c0.65-0.52,1.23-1.07,1.76-1.63c-0.89-1.65-1.84-3.43-2.85-5.33c-0.65-1.21-1.53-2.58-2.66-4.12
		c-0.24-0.36-0.48-0.69-0.73-0.97c-0.24,0.69-0.46,1.27-0.67,1.76c-1.66,3.88-3.57,6.98-5.75,9.32c-1.33,1.29-2.58,2.36-3.75,3.21
		l-1.82,0.73c-0.16,0-0.24-0.08-0.24-0.24c1.98-2.42,3.39-4.38,4.24-5.87c1.33-2.46,2.58-5.59,3.75-9.38c1.13-3.27,2-6.88,2.6-10.84
		c0.36-1.94,0.54-3.71,0.54-5.33v-0.3c-0.32,0.04-0.65,0.06-0.97,0.06c-0.85,0-1.98-0.44-3.39-1.33c-0.81-0.56-1.21-1.25-1.21-2.06
		c0-0.52,0.26-0.79,0.79-0.79c1.94-0.08,5.87-0.71,11.81-1.88c1.94-0.4,3.83-1.21,5.69-2.42C43.01,76.18,43.47,76.08,44.08,76.08z
		 M32.03,99.09c0.12,0.08,0.24,0.14,0.36,0.18c1.01,0.61,2,1.59,2.97,2.97c1.73,2.34,3.41,4.4,5.03,6.18
		c0.44-0.61,0.83-1.25,1.15-1.94c0.89-2.42,1.41-5.27,1.57-8.54c-0.16-1.05-0.89-1.63-2.18-1.76c-2.1-0.32-3.33-1.29-3.69-2.91
		c0.12,0,0.2-0.2,0.24-0.61c1.61-2.74,2.93-6.32,3.94-10.72v-0.24c-1.78,0.36-4.02,0.93-6.72,1.7c1.25,0.61,1.88,1.17,1.88,1.7
		c0,0.28-0.14,0.59-0.42,0.91c-0.44,0.85-0.75,1.51-0.91,2C34.11,92.53,33.04,96.23,32.03,99.09z"/>
	<path class="st6" d="M9.14,144.23c1.13,0,2.52,0.42,4.18,1.27c1.9,0.69,2.85,1.41,2.85,2.18c0,0.36-0.1,0.69-0.3,0.97
		c-0.48,0.77-0.81,1.8-0.97,3.09c-0.77,3.83-1.45,7.27-2.06,10.29c0.97-0.24,1.94-0.52,2.91-0.85c0.32-0.16,0.63-0.28,0.91-0.36
		c-0.08-0.85-0.32-1.67-0.73-2.48c0-0.52,0.32-0.79,0.97-0.79c1.29,0,2.48,0.3,3.57,0.91c2.3,0.89,3.45,1.66,3.45,2.3
		c0,0.28-0.1,0.57-0.3,0.85c-0.65,0.93-1.03,1.78-1.15,2.54c-1.33,5.57-2.6,9.69-3.81,12.35c-0.28,0.65-0.59,1.27-0.91,1.88
		c0.85,0.73,1.57,1.39,2.18,2c1.53,1.62,2.3,2.91,2.3,3.88c0,1.94-0.71,2.91-2.12,2.91c-1.7,0-2.93-0.67-3.69-2
		c-0.61-0.81-1.19-1.57-1.76-2.3c-0.52,0.61-1.05,1.17-1.57,1.7c-2.3,2.1-4.62,3.61-6.96,4.54c-1.29,0.48-2.36,0.73-3.21,0.73
		c-0.32,0-0.48-0.08-0.48-0.24c1.41-1.09,2.72-2.14,3.94-3.15c2.5-2.38,4.34-4.6,5.51-6.66c-1.78-1.9-3.55-3.47-5.33-4.72
		c-0.36-0.32-0.54-0.65-0.54-0.97c0-0.28,0.06-0.63,0.18-1.03c0.28-1.33,0.56-2.89,0.85-4.66c-0.77,0.44-1.45,0.89-2.06,1.33
		c-0.24,0.12-0.44,0.18-0.61,0.18c-0.61,0-1.61-0.91-3.03-2.72C0.44,166.01,0,165.06,0,164.34c0-0.28,0.14-0.42,0.42-0.42
		c0.32,0,0.83,0.14,1.51,0.42c0.44,0,1.72-0.2,3.81-0.61c0.65-0.12,1.27-0.24,1.88-0.36c0.2-1.98,0.38-4.1,0.54-6.36
		c0.32-3.23,0.48-6.01,0.48-8.36c0-0.85-0.26-1.71-0.79-2.6c-0.24-0.65-0.36-1.09-0.36-1.33C7.51,144.4,8.05,144.23,9.14,144.23z
		 M16.59,163.67c-0.77,0.36-1.6,0.71-2.48,1.03c-0.73,0.32-1.39,0.65-2,0.97c-0.57,2.42-1.07,4.54-1.51,6.36
		c-0.12,0.4-0.18,0.67-0.18,0.79c0,0.57,0.16,0.93,0.48,1.09c1.13,0.65,2.12,1.23,2.97,1.76c0.61-1.49,1.13-3.13,1.57-4.9
		C16.04,168.41,16.43,166.05,16.59,163.67z M46.5,174.57c-2.1,0-3.98,0.04-5.63,0.12c2.58,3.39,4.86,6.01,6.84,7.87
		c1.86,1.78,5.19,3.65,9.99,5.63c0.61,0.12,0.91,0.34,0.91,0.67s-0.26,0.52-0.79,0.61c-0.93,0.28-1.86,0.44-2.79,0.48
		c-1.09,0.2-3.39,0.3-6.9,0.3c-0.85,0-1.61-0.46-2.3-1.39c-2.3-3.19-3.85-5.61-4.66-7.27c-0.32-0.65-0.65-1.21-0.97-1.7
		c0.04,0.53,0.06,1.09,0.06,1.7c0.08,3.51,0.12,6.72,0.12,9.63c0,1.33-0.3,2.44-0.91,3.33c-0.89,1.01-1.63,1.51-2.24,1.51
		c-0.69,0-1.27-0.38-1.76-1.15c-0.61-0.69-0.91-2.08-0.91-4.18c0.16-3.75,0.28-7.14,0.36-10.17c-1.05,1.49-2.16,2.81-3.33,3.94
		c-1.82,1.9-3.85,3.49-6.12,4.78c-1.86,1.05-4.16,1.96-6.9,2.72v-0.48c1.05-0.73,2-1.45,2.85-2.18c2.06-1.74,3.88-3.51,5.45-5.33
		c1.86-2.02,3.75-4.7,5.69-8.05c0.2-0.28,0.34-0.5,0.42-0.67c-2.3,0.32-4.52,0.77-6.66,1.33c-0.52,0.24-1.09,0.36-1.7,0.36
		c-0.85,0-1.8-0.5-2.85-1.51c-0.81-0.97-1.21-1.59-1.21-1.88c0-0.36,0.16-0.54,0.48-0.54c2.1,0,6.54-0.42,13.32-1.27
		c0.2-0.04,0.38-0.06,0.54-0.06c-0.12-1.7-0.46-2.95-1.03-3.75c0-0.65,0.38-0.97,1.15-0.97c1.17,0,2.42,0.26,3.75,0.79
		c1.41,0.44,2.12,0.99,2.12,1.63c0,0.16-0.1,0.4-0.3,0.73c-0.08,0.24-0.18,0.5-0.3,0.79c3.83-0.61,6.94-1.15,9.32-1.63
		c0.28-0.04,0.5-0.06,0.67-0.06c1.09,0,2.34,0.36,3.75,1.09c1.21,1.01,1.82,2.02,1.82,3.03c0,1.25-0.46,1.88-1.39,1.88
		c-0.93,0-2.46-0.12-4.6-0.36C48.56,174.67,47.43,174.57,46.5,174.57z M51.1,146.66c0.36,0,0.97,0.18,1.82,0.54
		c1.05,0.73,1.57,1.35,1.57,1.88c0,0.48-0.08,0.93-0.24,1.33c-0.16,0.48-0.4,0.79-0.73,0.91c-2.26,0.4-4.48,0.77-6.66,1.09
		c-0.28,2.95-0.57,6.62-0.85,11.02c0,1.17-0.42,2.1-1.27,2.79c-0.32,0.69-0.87,1.03-1.63,1.03c-0.57,0-1.03-0.44-1.39-1.33
		l-0.06-0.06c-1.78,0.32-3.45,0.59-5.03,0.79c-1.82,0.24-2.97,0.36-3.45,0.36c-0.16,0-0.3-0.02-0.42-0.06
		c-0.32,0.53-0.77,0.79-1.33,0.79c-0.65,0-1.21-0.32-1.7-0.97c-0.48-0.56-0.73-1.05-0.73-1.45c-0.4-1.94-0.75-5.25-1.03-9.93
		c0-0.28-0.02-0.52-0.06-0.73h-0.61c-2.3,0-3.79-0.58-4.48-1.76c-0.57-0.77-0.85-1.29-0.85-1.57c0-0.32,0.18-0.48,0.54-0.48
		c1.73-0.08,3.35-0.18,4.84-0.3c-0.16-0.77-0.3-1.43-0.42-2c-0.24-1.53-0.59-2.62-1.03-3.27c0-0.69,0.22-1.03,0.67-1.03
		c0.97,0,2.08,0.14,3.33,0.42c1.49,0.57,2.24,1.15,2.24,1.76l0.18,3.75c3.15-0.32,5.81-0.67,7.99-1.03
		c0.56-0.08,1.07-0.16,1.51-0.24c-0.08-3.27-0.46-5.33-1.15-6.18c-0.36-0.61-0.54-1.07-0.54-1.39c0-0.44,0.34-0.67,1.03-0.67
		c1.7,0,3.11,0.22,4.24,0.67c2.02,0.57,3.03,1.31,3.03,2.24c0,0.36-0.12,0.73-0.36,1.09c-0.2,0.53-0.42,1.51-0.67,2.97
		c0.69-0.2,1.31-0.4,1.88-0.61C49.85,146.78,50.46,146.66,51.1,146.66z M32.82,157.68c1.78-0.32,3.43-0.71,4.96-1.15
		c0.4-0.08,0.73-0.12,0.97-0.12c1.41,0,2.32,0.26,2.72,0.79l0.18-4c-1.74,0.24-3.45,0.46-5.15,0.67c-1.49,0.2-2.81,0.36-3.94,0.48
		L32.82,157.68z M33.12,164.03c2.34-0.36,4.54-0.83,6.6-1.39c0.52-0.16,0.93-0.24,1.21-0.24h0.3l0.12-3.03
		c-1.98,0.4-3.84,0.75-5.57,1.03c-1.49,0.24-2.44,0.36-2.85,0.36L33.12,164.03z"/>
	<path class="st6" d="M13.5,213.66c1.21,0,2.74,0.44,4.6,1.33c1.49,0.73,2.24,1.49,2.24,2.3c0,0.53-0.28,1.07-0.85,1.63
		c-0.57,0.4-0.91,0.87-1.03,1.39c-2.54,5.13-4.9,9.3-7.08,12.53c2.26,1.21,3.39,2.14,3.39,2.79c0,0.32-0.18,0.87-0.54,1.63
		c-0.32,1.05-0.48,1.63-0.48,1.76l0.48,13.08c2.18-2.14,3.79-3.96,4.84-5.45c2.62-3.03,4.84-6.01,6.66-8.96
		c1.41-2.42,2.4-4.34,2.97-5.75c-1.21,0.24-2.42,0.53-3.63,0.85c-0.97,0.28-1.57,0.42-1.82,0.42c-0.81,0-1.78-0.48-2.91-1.45
		c-1.01-0.89-1.51-1.59-1.51-2.12c0-0.32,0.16-0.48,0.48-0.48c4.6-0.77,8.62-1.47,12.05-2.12c-0.08-6.86-0.38-10.64-0.91-11.32
		c-0.28-0.77-0.57-1.49-0.85-2.18c-0.24-0.28-0.36-0.58-0.36-0.91c0-0.61,0.42-0.91,1.27-0.91c1.82,0,3.55,0.24,5.21,0.73
		c1.86,0.44,2.79,1.17,2.79,2.18c0,0.44-0.12,0.83-0.36,1.15c-0.48,0.85-0.79,1.88-0.91,3.09c-0.28,0.97-0.48,3.29-0.61,6.96
		c2.22-0.52,4.44-1.09,6.66-1.7c0.85-0.24,1.67-0.36,2.48-0.36c1.05,0,2.2,0.42,3.45,1.27c1.09,0.69,1.63,1.63,1.63,2.85
		c0,1.33-0.34,2-1.03,2c-4.68,0-9.1,0.24-13.26,0.73v0.48c0.12,0.12,0.22,0.24,0.3,0.36c2.62,3.35,5.17,6.08,7.63,8.17
		c2.58,2.34,6.86,4.9,12.84,7.69v0.73c0,0.2-0.38,0.32-1.15,0.36c-3.75,0.53-7.06,0.79-9.93,0.79c-0.97,0-1.6-0.14-1.88-0.42
		c-2.06-2.5-4.64-6.6-7.75-12.29c0.04,3.19,0.1,6.98,0.18,11.38h0.12c0.69-0.2,1.21-0.3,1.57-0.3c3.55,0,5.33,1.27,5.33,3.81
		c0,0.4-0.28,0.67-0.85,0.79c-2.14,0.48-4.14,0.87-5.99,1.15c0.08,2.22,0.16,4.58,0.24,7.08c0,2.14-0.46,3.65-1.39,4.54
		c-0.81,1.13-1.61,1.7-2.42,1.7c-0.81,0-1.76-1.11-2.85-3.33c-0.4-0.97-0.61-1.78-0.61-2.42c0-1.01,0.14-1.84,0.42-2.48
		c0.16-0.52,0.28-1.51,0.36-2.97c0.04-0.44,0.08-0.89,0.12-1.33c-0.89,0.12-1.51,0.18-1.88,0.18c-1.13,0-2.14-0.34-3.03-1.03
		c-0.73-0.73-1.09-1.43-1.09-2.12c0-0.36,0.26-0.58,0.79-0.67c1.9-0.28,3.73-0.65,5.51-1.09c0.12-3.15,0.2-7.02,0.24-11.63
		c-0.57,0.85-1.17,1.74-1.82,2.66c-1.98,2.66-4.06,4.96-6.24,6.9c-1.98,1.57-3.9,2.87-5.75,3.88c-1.74,0.81-2.79,1.21-3.15,1.21
		h-0.24l0.24,6.3c0,0.89-0.32,1.88-0.97,2.97c-0.73,1.41-1.37,2.12-1.94,2.12c-1.05,0-2.1-1.37-3.15-4.12
		c-0.28-0.69-0.42-1.25-0.42-1.7c0-1.17,0.28-4.48,0.85-9.93c0.2-1.82,0.3-5.13,0.3-9.93c0-0.81-0.06-1.57-0.18-2.3
		c-2.14,2.58-4.14,4.56-5.99,5.93c-1.29,1.09-2.14,1.63-2.54,1.63c-0.12,0-0.18-0.14-0.18-0.42c3.27-4.76,5.91-9.16,7.93-13.2
		c1.53-3.27,2.76-6.58,3.69-9.93c0.48-1.98,0.73-3.41,0.73-4.3l-0.24-1.39C12.35,213.82,12.73,213.66,13.5,213.66z"/>
</g>
</svg>
