<?xml version="1.0" encoding="utf-8"?>
<!-- Generator: Adobe Illustrator 23.0.1, SVG Export Plug-In . SVG Version: 6.00 Build 0)  -->
<svg version="1.1" id="レイヤー_1" xmlns="http://www.w3.org/2000/svg" xmlns:xlink="http://www.w3.org/1999/xlink" x="0px"
	 y="0px" viewBox="0 0 57 269" style="enable-background:new 0 0 57 269;" xml:space="preserve">
<style type="text/css">
	.st0{display:none;fill:#1A1A1A;}
	.st1{font-family:'DFKaiSho-Bd-WING-RKSJ-H';}
	.st2{font-size:62px;glyph-orientation-vertical:0;writing-mode:tb;}
	.st3{letter-spacing:9;}
	.st4{fill:#1A1A1A;}
</style>
<text transform="matrix(1 0 0 1 31 0)" class="st0 st1 st2 st3">新着情報</text>
<g>
	<path class="st4" d="M25.25,6.36c0.32,0,0.87,0.14,1.63,0.42c1.01,0.65,1.51,1.23,1.51,1.76c0,0.44-0.08,0.87-0.24,1.27
		c-0.16,0.44-0.4,0.73-0.73,0.85c-1.61,0.48-3.21,0.87-4.78,1.15c0.85,0.12,1.7,0.32,2.54,0.61c1.33,0.4,2,0.89,2,1.45
		c0,0.16-0.16,0.44-0.48,0.85c-0.65,0.81-1.13,1.43-1.45,1.88c-0.77,1.13-1.7,2.3-2.79,3.51c0.89-0.2,1.78-0.38,2.66-0.54
		c0.65-0.08,1.23-0.12,1.76-0.12c1.98,0.12,2.97,1.23,2.97,3.33c0,0.44-0.85,0.71-2.54,0.79c-2.38,0.12-5.07,0.48-8.05,1.09
		c1.05,0.57,1.57,1.17,1.57,1.82c0,0.16-0.08,0.34-0.24,0.54c-0.16,0.4-0.26,0.93-0.3,1.57c0.89-0.24,1.78-0.48,2.66-0.73
		c0.65-0.12,1.25-0.18,1.82-0.18c0.85,0,1.78,0.32,2.79,0.97c0.85,0.61,1.27,1.39,1.27,2.36c0,1.01-0.22,1.51-0.67,1.51
		c-2.79,0-5.45,0.12-7.99,0.36c0.04,0.69,0.06,1.39,0.06,2.12c0.28,0,0.52,0.02,0.73,0.06c1.09,0.28,2.18,0.63,3.27,1.03
		c1.41,0.65,2.36,1.21,2.85,1.7c0.4,0.44,0.61,0.93,0.61,1.45c0,0.65-0.24,1.33-0.73,2.06c-0.4,0.61-0.97,0.91-1.7,0.91
		c-0.93,0-1.6-0.34-2-1.03c-0.28-0.32-0.75-0.97-1.39-1.94c-0.73-1.33-1.25-2.24-1.57-2.72c0.16,3.03,0.42,6.12,0.79,9.26
		c0,1.53-0.65,3.15-1.94,4.84c-1.13,1.49-2.1,2.24-2.91,2.24c-0.77,0-1.39-0.48-1.88-1.45c-0.69-1.21-2.38-3.01-5.09-5.39
		c0-0.44,0.24-0.67,0.73-0.67c1.65,0.61,2.85,0.91,3.57,0.91c0.52,0,0.85-0.67,0.97-2c0.2-2.14,0.3-5.45,0.3-9.93V33.6
		c-1.37,0.2-2.81,0.53-4.3,0.97c-0.69,0.24-1.11,0.36-1.27,0.36c-0.69,0-1.49-0.46-2.42-1.39c-0.85-0.69-1.27-1.27-1.27-1.76
		c0-0.2,0.08-0.3,0.24-0.3c3.39-0.52,6.34-1.05,8.84-1.57c-0.04-0.69-0.08-1.39-0.12-2.12c-0.08-0.89-0.16-1.59-0.24-2.12
		c-2.42,0.57-5.13,1.27-8.11,2.12l-1.03,0.3c-0.32,0-1.13-0.46-2.42-1.39c-1.33-1.21-2-2.36-2-3.45c0-0.16,0.16-0.24,0.48-0.24
		c2.22-0.04,4.5-0.2,6.84-0.48c2.74-0.32,6.5-0.95,11.26-1.88c0.56-1.49,0.99-2.93,1.27-4.3c0.16-0.97,0.24-1.71,0.24-2.24
		c0-0.28-0.28-0.89-0.85-1.82c-0.81,0.12-1.57,0.24-2.3,0.36c-2.38,0.44-4.14,0.67-5.27,0.67c-2.1,0-3.49-0.58-4.18-1.76
		c-0.44-0.77-0.67-1.31-0.67-1.63c0-0.16,0.06-0.24,0.18-0.24c4.64-0.24,8.27-0.67,10.9-1.27c2.1-0.56,3.91-1.15,5.45-1.76
		C24.5,6.46,24.88,6.36,25.25,6.36z M8.48,36.33c0.2,0,0.4,0.24,0.61,0.73c0.61,1.21,0.91,2.2,0.91,2.97c0,1.33-0.34,2.77-1.03,4.3
		c-0.36,1.05-0.85,1.86-1.45,2.42c-0.4,0.53-0.81,0.79-1.21,0.79c-1.17,0-2.12-0.42-2.85-1.27c-0.36-0.69-0.54-1.41-0.54-2.18
		c0-0.48,0.16-0.99,0.48-1.51c2.58-2.79,3.98-4.56,4.18-5.33C7.69,36.63,7.99,36.33,8.48,36.33z M9.99,14.59
		c0.44,0,1.01,0.06,1.7,0.18c1.53,0.4,2.72,0.89,3.57,1.45c0.65,0.53,0.97,1.25,0.97,2.18c0,0.61-0.28,1.17-0.85,1.7
		c-0.69,0.48-1.37,0.73-2.06,0.73c-0.28,0-0.59-0.2-0.91-0.61c-0.69-0.73-1.57-2.28-2.66-4.66c-0.16-0.24-0.24-0.42-0.24-0.54
		C9.55,14.73,9.71,14.59,9.99,14.59z M15.32,0c1.05,0,2.36,0.28,3.94,0.85c1.53,0.48,2.56,0.93,3.09,1.33
		c0.48,0.48,0.73,1.07,0.73,1.76c0,1.94-1.13,2.91-3.39,2.91c-0.77,0-1.72-0.89-2.85-2.66c-1.33-1.94-2-3.17-2-3.69
		C14.83,0.2,14.99,0.04,15.32,0z M44.32,3.69c0.77,0,2.52,0.57,5.27,1.7c2.14,1.13,3.21,2.08,3.21,2.85c0,0.44-0.26,0.75-0.79,0.91
		c-1.98,0.77-3.29,1.23-3.94,1.39c-0.93,0.2-2.16,0.61-3.69,1.21c-2.83,1.05-5.05,1.78-6.66,2.18l-0.06,0.24
		c-0.4,0.73-0.61,1.45-0.61,2.18c-0.04,1.94-0.1,3.73-0.18,5.39c3.63-0.81,7.41-1.74,11.32-2.79c1.05-0.36,2.04-0.54,2.97-0.54
		c0.89,0,1.96,0.38,3.21,1.15c1.25,0.77,1.88,1.62,1.88,2.54c0,0.85-0.51,1.31-1.51,1.39c-1.17,0.08-2.54,0.2-4.12,0.36
		c-1.09,0.12-2.28,0.26-3.57,0.42c1.73,0.57,2.6,1.11,2.6,1.63c0,0.44-0.06,0.91-0.18,1.39c-0.48,0.73-0.73,2.22-0.73,4.48
		c0,8.15-0.14,13.44-0.42,15.86c-0.16,2.5-0.61,4.52-1.33,6.05c-0.73,1.53-1.45,2.3-2.18,2.3c-0.69,0-1.13-0.85-1.33-2.54
		c-0.36-0.53-0.54-8.48-0.54-23.86c0-1.86-0.34-3.43-1.03-4.72c-1.33,0.16-2.69,0.3-4.06,0.42c-0.32,0.08-0.59,0.12-0.79,0.12
		c-0.12-0.04-0.24-0.08-0.36-0.12c-0.08,1.78-0.2,3.39-0.36,4.84c-0.4,3.75-1.09,6.72-2.06,8.9c-1.37,2.99-3.25,5.33-5.63,7.02
		c-1.53,1.13-2.58,1.7-3.15,1.7h-0.24c0.93-1.33,1.8-2.79,2.6-4.36c1.17-2.54,2.04-5.13,2.6-7.75c0.69-2.99,1.03-8.13,1.03-15.44
		c0-2.02-0.14-3.77-0.42-5.27c-0.08-1.09-0.59-2.08-1.51-2.97c-0.16-0.2-0.24-0.38-0.24-0.54c0-0.52,0.65-0.79,1.94-0.79
		c1.98,0,3.75,0.36,5.33,1.09c0.2,0.08,0.36,0.14,0.48,0.18c0.97-0.56,1.84-1.17,2.6-1.82c1.17-0.85,2.12-1.88,2.85-3.09
		c0.44-0.61,0.83-1.47,1.15-2.6C43.65,3.94,43.88,3.69,44.32,3.69z"/>
	<path class="st4" d="M38.99,77.66c0.36,0,0.95,0.14,1.76,0.42c0.93,0.65,1.39,1.23,1.39,1.76c0,0.44-0.06,0.87-0.18,1.27
		c-0.2,0.44-0.44,0.73-0.73,0.85c-3.27,0.77-6.62,1.41-10.05,1.94c-0.04,0.97-0.06,1.86-0.06,2.66c1.01-0.2,1.96-0.4,2.85-0.61
		c0.97-0.2,1.7-0.3,2.18-0.3c2.54,0,3.81,0.97,3.81,2.91c0,0.4-0.34,0.67-1.03,0.79c-2.75,0.48-5.37,0.89-7.87,1.21
		c-0.04,0.89-0.06,1.76-0.06,2.6c4.72-0.61,8.29-1.11,10.72-1.51c2.46-0.28,4.46-0.42,5.99-0.42c0.4,0,1.51,0.4,3.33,1.21
		c1.7,1.17,2.54,2.14,2.54,2.91c0,1.41-0.89,2.12-2.66,2.12c-0.4,0-1.13-0.08-2.18-0.24c-1.05-0.16-1.94-0.24-2.66-0.24
		c-5.25,0-10.41,0.12-15.5,0.36c-2.58,0.12-5.21,0.38-7.87,0.79c0.32,0.12,0.65,0.26,0.97,0.42c1.21,0.36,1.82,0.89,1.82,1.57
		c0,0.2-0.12,0.36-0.36,0.48c-0.24,0.28-0.54,0.71-0.91,1.27c-0.28,0.4-0.52,0.77-0.73,1.09c1.78-0.24,3.9-0.67,6.36-1.27
		c1.98-0.36,4.08-1.05,6.3-2.06c0.44-0.16,0.83-0.24,1.15-0.24c0.61,0,2,0.61,4.18,1.82c2.58,1.37,3.88,2.32,3.88,2.85
		c0,0.08-0.08,0.2-0.24,0.36c-1.29,2.3-1.94,3.96-1.94,4.96c0,2.34,0.22,5.01,0.67,7.99c0.16,2.71,0.24,4.42,0.24,5.15
		c0,1.09-0.59,2.2-1.76,3.33c-1.29,1.09-2.4,1.63-3.33,1.63c-0.12,0-0.28-0.42-0.48-1.27c-0.65-1.57-1.25-2.91-1.82-4
		c-2.34,0.04-4.7,0.18-7.08,0.42c-1.74,0.2-3.03,0.34-3.88,0.42v0.06c-0.12,0.73-0.48,1.47-1.09,2.24
		c-0.73,0.65-1.33,0.97-1.82,0.97c-1.01,0-1.78-0.77-2.3-2.3c-0.57-1.21-0.85-2.14-0.85-2.79l0.06-0.36
		c0.32-1.29,0.52-2.32,0.61-3.09c0.2-1.65,0.3-3.73,0.3-6.24c-0.12-1.78-0.28-3.23-0.48-4.36c-0.69,0.81-1.35,1.53-2,2.18
		c-2.18,2.38-4.52,4.34-7.02,5.87c-2.06,1.37-4.06,2.38-5.99,3.03c-0.77,0.36-1.27,0.54-1.51,0.54v-0.24
		c2.91-2.42,5.45-4.8,7.63-7.14c1.49-1.61,2.91-3.37,4.24-5.27c1.25-1.78,2.18-3.51,2.79-5.21c0.24-0.65,0.36-1.17,0.36-1.57
		c-0.12-0.24-0.22-0.46-0.3-0.67c-0.24,0.04-0.46,0.08-0.67,0.12c-2.14,0.36-4.74,0.97-7.81,1.82c-0.61,0.08-0.91,0.16-0.91,0.24
		c-0.52,0-1.43-0.65-2.72-1.94c-1.05-1.33-1.57-2.16-1.57-2.48c0-0.28,0.16-0.42,0.48-0.42c1.21-0.08,2.64-0.2,4.3-0.36
		c6.18-0.73,11.56-1.35,16.17-1.88c0.04-1.09,0.08-1.96,0.12-2.6c-2.62,0.28-4.32,0.42-5.09,0.42c-0.93,0-1.72-0.24-2.36-0.73
		c-0.52-0.48-0.79-0.97-0.79-1.45c0-0.4,0.16-0.65,0.48-0.73c2.66-0.32,5.23-0.69,7.69-1.09c-0.08-1.05-0.2-1.98-0.36-2.79
		c-2.58,0.36-4.54,0.54-5.87,0.54c-2.14,0-3.51-0.61-4.12-1.82c-0.48-0.77-0.73-1.31-0.73-1.63c0-0.16,0.08-0.24,0.24-0.24
		c6.38-0.32,11.42-0.85,15.14-1.57c2.87-0.65,5.39-1.35,7.57-2.12C38.02,77.78,38.51,77.66,38.99,77.66z M18.41,72.81
		c0.61,0,1.29,0.08,2.06,0.24c1.86,0.4,3.29,0.91,4.3,1.51c0.77,0.53,1.15,1.29,1.15,2.3c0,0.65-0.34,1.27-1.03,1.88
		c-0.81,0.53-1.57,0.79-2.3,0.79c-0.4,0-0.79-0.22-1.15-0.67c-0.77-0.77-1.84-2.44-3.21-5.03c-0.16-0.28-0.24-0.48-0.24-0.61
		C18.02,72.96,18.16,72.81,18.41,72.81z M25.61,119.86c1.05-0.12,2.22-0.26,3.51-0.42c2.54-0.24,4.58-0.54,6.12-0.91
		c0.4-0.16,0.77-0.24,1.09-0.24c0.4,0,0.79,0.1,1.15,0.3c0.08-1.37,0.12-3.45,0.12-6.24c0-2.46-0.1-4.5-0.3-6.12
		c-0.16-0.81-0.52-1.31-1.09-1.51c-0.32-0.16-0.93-0.24-1.82-0.24c-0.24,0-0.54,0.02-0.91,0.06c-3.23,0.36-5.87,0.83-7.93,1.39
		c-0.04,0.65-0.06,1.47-0.06,2.48c1.86-0.32,3.59-0.69,5.21-1.09c0.44-0.12,0.79-0.18,1.03-0.18c2.3,0,3.45,0.81,3.45,2.42
		c0,0.28-0.2,0.46-0.61,0.54c-2.34,0.48-4.54,0.85-6.6,1.09c-1.13,0.16-1.96,0.26-2.48,0.3v2.6c2.02-0.32,3.9-0.73,5.63-1.21
		c0.48-0.12,0.85-0.18,1.09-0.18c2.3,0,3.45,0.81,3.45,2.42c0,0.28-0.2,0.46-0.61,0.54c-2.34,0.48-4.54,0.85-6.6,1.09
		c-1.49,0.16-2.46,0.26-2.91,0.3C25.59,118.08,25.61,119.01,25.61,119.86z M34.15,70.15c0.85,0,2.26,0.32,4.24,0.97
		c2.02,1.13,3.03,2,3.03,2.6c0,0.24-0.3,0.46-0.91,0.67c-0.77,0.2-1.61,0.59-2.54,1.15c-3.71,2.06-6.6,3.39-8.66,4
		c-0.16,0-0.24-0.08-0.24-0.24c0.77-0.81,1.35-1.49,1.76-2.06c0.73-0.97,1.35-2.02,1.88-3.15c0.36-0.61,0.54-1.03,0.54-1.27
		c0-0.2-0.04-0.4-0.12-0.61C33.04,71.76,33,71.46,33,71.3C33,70.53,33.38,70.15,34.15,70.15z"/>
	<path class="st4" d="M5.81,161.79c0.24,0,0.46,0.26,0.67,0.79c0.73,1.49,1.09,2.66,1.09,3.51c0,1.98-0.34,4.04-1.03,6.18
		c-0.36,1.49-0.85,2.66-1.45,3.51c-0.4,0.69-0.79,1.03-1.15,1.03c-1.37,0-2.46-0.46-3.27-1.39C0.22,174.61,0,173.76,0,172.87
		c0-0.69,0.16-1.43,0.48-2.24c2.7-3.96,4.16-6.52,4.36-7.69C5,162.18,5.33,161.79,5.81,161.79z M8.96,144.54
		c1.86,0,3.77,0.5,5.75,1.51c1.86,0.77,2.79,1.66,2.79,2.66c0,0.4-0.12,0.85-0.36,1.33c-0.32,2.22-0.57,4.36-0.73,6.42
		c1.49,0.48,2.79,1.01,3.88,1.57c0.61,0.28,1.11,0.81,1.51,1.57c0.44,0.89,0.71,1.78,0.79,2.66c0,1.29-0.59,1.94-1.76,1.94
		c-1.74,0-2.77-0.34-3.09-1.03c-0.44-0.73-0.85-1.55-1.21-2.48c-0.12-0.32-0.24-0.65-0.36-0.97c-0.28,3.63-0.42,6.96-0.42,9.99
		v22.28c0,1.05-0.46,2.18-1.39,3.39c-0.57,1.29-1.29,1.94-2.18,1.94c-1.09,0-2-0.87-2.72-2.6c-0.65-1.05-0.97-2.34-0.97-3.88
		c0.65-2.79,1.17-5.69,1.57-8.72c0.56-2.66,0.85-6.8,0.85-12.41c0-11.67-0.2-18.33-0.61-19.98c-0.4-1.53-1.09-3.03-2.06-4.48
		C8.23,144.78,8.48,144.54,8.96,144.54z M45.35,146.05c0.36,0,0.97,0.16,1.82,0.48c1.05,0.73,1.57,1.37,1.57,1.94
		c0,0.44-0.08,0.87-0.24,1.27c-0.16,0.44-0.42,0.73-0.79,0.85c-2.87,0.77-5.83,1.39-8.9,1.88c-0.08,0.93-0.16,1.9-0.24,2.91
		c0.52-0.12,1.05-0.24,1.57-0.36c0.77-0.16,1.35-0.24,1.76-0.24c2.95,0,4.42,1.03,4.42,3.09c0,0.4-0.3,0.65-0.91,0.73
		c-2.5,0.53-4.86,0.93-7.08,1.21c-0.04,1.21-0.1,2.46-0.18,3.75c5.13-0.77,9.18-1.49,12.17-2.18c0.36-0.04,0.65-0.06,0.85-0.06
		c1.01,0,2.22,0.36,3.63,1.09c1.29,1.01,1.94,2,1.94,2.97c0,1.33-0.51,2-1.51,2c-0.85,0-2.36-0.12-4.54-0.36
		c-1.33-0.24-2.48-0.36-3.45-0.36c-5.45,0-9.89,0.24-13.32,0.73c-2.91,0.32-5.75,0.91-8.54,1.76c-0.65,0.28-1.27,0.42-1.88,0.42
		c-0.85,0-1.8-0.5-2.85-1.51c-0.81-0.97-1.21-1.61-1.21-1.94c0-0.32,0.16-0.48,0.48-0.48c2.1,0,6.4-0.42,12.9-1.27
		c0.04-1.45,0.1-2.74,0.18-3.88c-1.57,0.2-2.62,0.3-3.15,0.3c-0.97,0-1.82-0.28-2.54-0.85c-0.61-0.61-0.91-1.21-0.91-1.82
		c0-0.24,0.16-0.4,0.48-0.48c2.18-0.28,4.26-0.63,6.24-1.03c0.04-1.13,0.06-2.18,0.06-3.15c-1.49,0.24-2.7,0.36-3.63,0.36
		c-2.3,0-3.79-0.61-4.48-1.82c-0.57-0.77-0.85-1.31-0.85-1.63c0-0.32,0.18-0.48,0.54-0.48c3.23-0.16,6.05-0.4,8.48-0.73
		c0-1.17-0.04-1.98-0.12-2.42c-0.28-0.97-0.63-1.71-1.03-2.24c-0.4-0.56-0.61-1.03-0.61-1.39c0-0.81,0.34-1.21,1.03-1.21
		c1.49,0,2.95,0.36,4.36,1.09c2.06,0.73,3.09,1.41,3.09,2.06c-0.04,0.32-0.08,0.71-0.12,1.15c-0.16,0.4-0.32,0.99-0.48,1.76
		c1.78-0.48,3.33-0.99,4.66-1.51C44.42,146.17,44.87,146.05,45.35,146.05z M26.64,170.27c1.37,0,2.4,0.12,3.09,0.36
		c0.65,0.04,1.09,0.18,1.33,0.42c2.58-0.48,5.06-1.03,7.45-1.63c1.13-0.32,2.06-0.71,2.79-1.15c0.24-0.16,0.44-0.24,0.61-0.24
		c0.65,0,1.88,0.36,3.69,1.09c2.1,1.05,3.15,2,3.15,2.85c0,0.12-0.06,0.26-0.18,0.42c-0.57,1.29-0.85,3.83-0.85,7.63
		c0,0.61,0.14,2.77,0.42,6.48c0.24,2.87,0.36,4.8,0.36,5.81c0,0.93-0.63,2.28-1.88,4.06c-1.41,1.61-2.56,2.42-3.45,2.42
		c-4.56-4.48-6.84-6.82-6.84-7.02c0-0.32,0.08-0.48,0.24-0.48c2.14,0.48,3.53,0.73,4.18,0.73c0.61,0,0.99-0.44,1.15-1.33
		c0.32-1.37,0.48-4.2,0.48-8.48c0-2.14-0.24-5.09-0.73-8.84c0-0.44-0.38-0.67-1.15-0.67c-0.77,0-1.88,0.08-3.33,0.24
		c-1.82,0.32-3.81,0.83-5.99,1.51c-0.04,0.73-0.06,1.43-0.06,2.12v0.67c1.73-0.4,3.35-0.83,4.84-1.27c0.36-0.12,0.65-0.18,0.85-0.18
		c2.62,0,3.94,0.97,3.94,2.91c0,0.24-0.16,0.38-0.48,0.42c-1.94,0.44-3.75,0.77-5.45,0.97c-1.33,0.24-2.2,0.36-2.6,0.36
		c-0.4,0-0.79-0.06-1.15-0.18c0,1.21-0.04,2.3-0.12,3.27c1.73-0.24,3.33-0.5,4.78-0.79c0.36-0.08,0.65-0.12,0.85-0.12
		c2.62,0,3.94,0.97,3.94,2.91c0,0.16-0.18,0.24-0.54,0.24c-1.94,0.32-3.77,0.54-5.51,0.67c-1.37,0.16-2.28,0.24-2.72,0.24
		c-0.36,0-0.71-0.04-1.03-0.12c0,0.08,0,0.14,0,0.18c-0.36,3.31-0.83,5.71-1.39,7.21c-0.61,1.17-1.31,1.76-2.12,1.76
		c-0.93,0-1.61-0.54-2.06-1.63c-0.44-0.85-0.67-1.86-0.67-3.03c0-0.32,0.06-0.69,0.18-1.09c0.81-2.22,1.35-4.44,1.63-6.66
		c0.24-1.86,0.36-4.5,0.36-7.93c0-0.85-0.08-1.65-0.24-2.42c-0.32-1.05-0.48-1.71-0.48-2C25.91,170.49,26.16,170.27,26.64,170.27z"
		/>
	<path class="st4" d="M23.98,223.16c0.28,0,0.79,0.12,1.51,0.36c0.77,0.57,1.15,1.09,1.15,1.57c0,0.4-0.06,0.77-0.18,1.09
		c-0.12,0.44-0.3,0.71-0.54,0.79c-1.57,0.53-3.19,0.97-4.84,1.33c-0.12,1.41-0.22,2.93-0.3,4.54c1.17-0.28,2.38-0.56,3.63-0.85
		c0.69-0.12,1.27-0.18,1.76-0.18c1.78,0.12,2.66,1.17,2.66,3.15c0,0.48-0.81,0.77-2.42,0.85c-0.44,0.04-0.85,0.08-1.21,0.12
		c0.48,0.24,0.73,0.48,0.73,0.73c0,0.16-0.12,0.42-0.36,0.79c-0.52,0.77-0.95,1.33-1.27,1.7c-0.44,0.81-0.97,1.55-1.57,2.24
		c0.24-0.08,0.46-0.14,0.67-0.18c0.61-0.08,1.15-0.12,1.63-0.12c1.78,0.12,2.66,1.15,2.66,3.09c0,0.44-0.73,0.71-2.18,0.79
		c-1.7,0.12-3.51,0.38-5.45,0.79c0.85,0.61,1.27,0.97,1.27,1.09c0,0.48-0.12,1.01-0.36,1.57c-0.12,0.32-0.2,0.69-0.24,1.09
		c0.56-0.2,1.15-0.38,1.76-0.54c0.48-0.08,0.91-0.12,1.27-0.12c1.78,0.12,2.66,1.15,2.66,3.09c0,0.48-0.59,0.77-1.76,0.85
		c-1.25,0.08-2.58,0.3-4,0.67v9.87c0,2.06-0.34,3.31-1.03,3.75c-0.69,0.89-1.39,1.33-2.12,1.33c-0.61,0-1.25-0.53-1.94-1.57
		c-0.65-1.05-0.97-2.54-0.97-4.48c0-0.16,0.1-0.48,0.3-0.97c0.32-0.77,0.48-1.27,0.48-1.51c0.16-1.61,0.26-3.29,0.3-5.03
		c-1.78,0.57-3.84,1.35-6.18,2.36l-0.79,0.3c-0.28,0-1.01-0.42-2.18-1.27c-1.25-1.09-1.88-2.12-1.88-3.09
		c0-0.16,0.16-0.24,0.48-0.24c1.57-0.04,3.21-0.22,4.9-0.54c1.49-0.28,3.39-0.75,5.69-1.39v-0.48c0-1.53-0.24-2.66-0.73-3.39
		l-0.06-0.18c-2.26,0.57-4.82,1.35-7.69,2.36L6.3,249.5c-0.28,0-1.01-0.42-2.18-1.27c-1.25-1.09-1.88-2.12-1.88-3.09
		c0-0.16,0.14-0.24,0.42-0.24c1.9-0.04,3.88-0.2,5.93-0.48c2.58-0.4,6.24-1.17,10.96-2.3c0.32-1.09,0.58-2.14,0.79-3.15
		c0.2-0.89,0.3-1.57,0.3-2.06c0-0.08-0.04-0.22-0.12-0.42c-1.21,0.2-2.38,0.42-3.51,0.67c-1.13,0.2-2.38,0.48-3.75,0.85
		c0.69,0.32,1.23,0.65,1.63,0.97c0.56,0.53,0.85,1.31,0.85,2.36c0,0.48-0.26,0.97-0.79,1.45c-0.65,0.48-1.27,0.73-1.88,0.73
		c-0.24,0-0.51-0.24-0.79-0.73c-0.52-0.69-1.21-2.02-2.06-4c-1.29,0.36-2.66,0.77-4.12,1.21l-0.97,0.36c-0.32,0-1.09-0.44-2.3-1.33
		c-1.25-1.09-1.88-2.1-1.88-3.03c0-0.16,0.18-0.24,0.54-0.24c2.1-0.04,4.26-0.22,6.48-0.54c1.94-0.28,4.4-0.71,7.39-1.27
		c0.04-1.65,0.08-3.13,0.12-4.42c-1.33,0.24-2.36,0.36-3.09,0.36c-1.9,0-3.15-0.54-3.75-1.63c-0.44-0.73-0.67-1.23-0.67-1.51
		c0-0.16,0.08-0.24,0.24-0.24c2.95-0.2,5.41-0.46,7.39-0.79c0.04-1.25,0.06-2.32,0.06-3.21c0-2.14-0.06-3.53-0.18-4.18
		c-0.24-0.81-0.54-1.47-0.91-2c-0.36-0.48-0.54-0.87-0.54-1.15c0-0.85,0.34-1.27,1.03-1.27c1.49,0,2.95,0.36,4.36,1.09
		c2.1,0.73,3.15,1.43,3.15,2.12c-0.04,0.28-0.08,0.61-0.12,0.97c-0.4,0.85-0.77,2.85-1.09,5.99c0.61-0.2,1.15-0.4,1.63-0.61
		C23.33,223.27,23.65,223.16,23.98,223.16z M30.09,221.17c0.97,0,2.16,0.36,3.57,1.09c0.65,0.24,1.09,0.44,1.33,0.61
		c1.41-0.16,3.07-0.42,4.96-0.79c1.21-0.16,2.66-0.58,4.36-1.27c0.2-0.04,0.44-0.06,0.73-0.06c0.32,0,1.33,0.53,3.03,1.57
		c1.73,1.05,2.6,1.9,2.6,2.54c0,0.12-0.12,0.28-0.36,0.48c-0.77,0.65-1.19,1.17-1.27,1.57c-0.44,3.03-0.97,5.33-1.57,6.9
		c-0.52,1.49-1.11,2.48-1.76,2.97c-0.4,0.4-0.99,0.81-1.76,1.21c-0.65,0.28-1.07,0.42-1.27,0.42c-0.52,0-0.93-0.26-1.21-0.79
		c-1.29-2.14-2.54-3.71-3.75-4.72c-0.28-0.12-0.42-0.22-0.42-0.3c0-0.36,0.1-0.54,0.3-0.54c2.34,0.53,3.69,0.79,4.06,0.79
		c0.48,0,0.95-0.44,1.39-1.33c0.44-0.81,0.79-1.92,1.03-3.33c0.16-0.73,0.24-1.37,0.24-1.94c0-0.93-0.46-1.39-1.39-1.39
		c-1.09,0-2.16,0.04-3.21,0.12c-1.17,0.16-2.69,0.46-4.54,0.91v2.6c-0.04,4.92-0.06,9.49-0.06,13.68c1.49-0.04,3.01-0.18,4.54-0.42
		c1.9-0.24,3.85-0.67,5.87-1.27c0.4-0.08,0.73-0.12,0.97-0.12c0.69,0,1.8,0.34,3.33,1.03c1.82,1.13,2.72,2.14,2.72,3.03l-0.3,0.48
		c-1.05,1.05-1.94,2.48-2.66,4.3c-0.65,1.82-1.37,3.37-2.18,4.66c-0.48,0.73-1.17,1.55-2.06,2.48c2.74,1.98,6.68,3.92,11.81,5.81
		c0,0.53-0.36,0.85-1.09,0.97c-4.88,0.97-7.75,1.45-8.6,1.45c-1.01,0-1.68-0.26-2-0.79c-1.17-1.49-2.34-3.09-3.51-4.78
		c-0.36,0.24-0.73,0.46-1.09,0.67c-1.45,0.73-2.83,1.29-4.12,1.7c-0.65,0.2-1.23,0.34-1.76,0.42c-0.04,1.37-0.06,2.6-0.06,3.69
		c-0.16,0.73-0.54,1.47-1.15,2.24c-0.69,0.61-1.29,0.91-1.82,0.91c-0.93,0-1.68-0.75-2.24-2.24c-0.61-1.21-0.91-2.14-0.91-2.79
		c0.04,0,0.08-0.36,0.12-1.09c0.52-4.52,0.85-8.09,0.97-10.72c0.28-5.73,0.42-12.94,0.42-21.62c-0.24-3.83-0.71-6.28-1.39-7.33
		c-0.08-0.32-0.12-0.56-0.12-0.73C28.82,221.49,29.24,221.17,30.09,221.17z M35,260.4c0.16-0.08,0.3-0.16,0.42-0.24
		c1.17-0.65,2.3-1.39,3.39-2.24c0.52-0.48,1.03-0.97,1.51-1.45c-0.97-1.41-1.92-2.89-2.85-4.42c-0.77-1.21-1.55-2.18-2.36-2.91
		C35.08,253.34,35.04,257.09,35,260.4z M35.12,246.66h0.06c0.56,0,1.15,0.14,1.76,0.42c0.77,0.69,1.47,1.53,2.12,2.54
		c0.93,1.41,2.02,2.81,3.27,4.18c0.4-0.56,0.73-1.11,0.97-1.63c0.48-1.17,0.97-2.83,1.45-4.96c0.2-0.61,0.3-1.11,0.3-1.51
		c0-0.69-0.24-1.03-0.73-1.03c-2.18,0.16-4.14,0.36-5.87,0.61c-0.97,0.08-1.68,0.12-2.12,0.12c-0.4,0-0.81-0.12-1.21-0.36
		C35.12,245.59,35.12,246.13,35.12,246.66z"/>
</g>
</svg>
