<?xml version="1.0" encoding="utf-8"?>
<!-- Generator: Adobe Illustrator 23.0.1, SVG Export Plug-In . SVG Version: 6.00 Build 0)  -->
<svg version="1.1" id="レイヤー_1" xmlns="http://www.w3.org/2000/svg" xmlns:xlink="http://www.w3.org/1999/xlink" x="0px"
	 y="0px" viewBox="0 0 243 47.1" style="enable-background:new 0 0 243 47.1;" xml:space="preserve">
<style type="text/css">
	.st0{display:none;}
	.st1{display:inline;fill:#FFFDFD;}
	.st2{display:inline;fill:#FFFFFF;}
	.st3{display:none;fill:#FFFFFF;}
	.st4{font-family:'DFKaiSho-Bd-WING-RKSJ-H';}
	.st5{font-size:10.5546px;}
	.st6{font-size:20px;}
	.st7{letter-spacing:1;}
	.st8{letter-spacing:3;}
	.st9{font-size:32px;}
	.st10{letter-spacing:2;}
	.st11{fill:#FFFFFF;}
</style>
<rect class="st0" width="243" height="47.1"/>
<g class="st0">
	<path class="st1" d="M95,37.4c0,2-1.3,3.8-3.8,5.5c-2.2,1.4-4.7,2.1-7.5,2.2c2.8-1.3,4.8-2.6,6.1-4c1.1-1.3,1.7-2.5,1.8-3.7
		c0-1.3-0.3-2.3-1.1-2.9c-0.6-0.4-1.2-0.6-1.9-0.8c-0.7,2.3-2.2,4.3-4.4,6.2c0.3,0.4,0.6,0.8,1,1.2c0.3,0.4,0.5,0.6,0.4,0.9
		c-0.1,0.9-0.6,1.4-1.6,1.4c-0.6-0.1-1.1-0.5-1.6-1.2c-0.2-0.2-0.4-0.4-0.5-0.6c-1.6,1-3,1.5-4.2,1.4c-1.9,0-2.9-1.1-2.9-3.2
		c0-1.2,0.6-2.5,1.8-3.8c0.7-0.7,1.7-1.4,2.8-2.1c0-1.1,0.2-2.5,0.5-4.3c-0.6,0-1.2-0.1-1.9-0.4c-0.9-0.4-1.3-0.8-1.3-1.2
		c0-0.3,0.5-0.6,1.6-0.6c0.7,0,1.4-0.1,2.1-0.1l0.8-3.8c0-0.5-0.1-1-0.4-1.3s-0.4-0.5-0.4-0.7c0-0.3,0.4-0.4,1.1-0.4
		c0.4,0,1,0.4,1.9,1s1.3,1.3,1.4,1.8c-0.1,0.2-0.2,0.4-0.5,0.7c-0.2,0.2-0.5,0.9-0.9,2c0.2,0,0.4-0.1,0.8-0.2
		c2.3-0.6,3.5-0.9,3.8-0.9c0.4,0,0.9,0.1,1.4,0.3c0.5,0.3,0.8,0.7,0.8,1.1c-0.1,0.5-1.4,1.1-4,1.7c-1.4,0.3-2.6,0.6-3.5,0.7
		c-0.3,1.3-0.4,2.3-0.5,3.3c1.3-0.4,2.6-0.7,4-0.8c0-0.3-0.1-0.6-0.1-0.9C86,30.7,86,30.5,86,30.4c0-0.5,0.3-0.8,0.8-0.8
		c0.4,0,0.8,0.3,1.3,0.9c0.2,0.3,0.4,0.7,0.5,1.3c1.5,0.2,2.7,0.6,3.7,1.3C94.2,34.1,95,35.6,95,37.4z M81.1,39.8
		c-0.7-1.5-1.1-2.7-1.3-3.8c-1.8,1.3-2.7,2.5-2.7,3.7c0,0.9,0.4,1.3,1.2,1.4C78.9,41,79.9,40.6,81.1,39.8z M86.1,33.6
		c-1.3,0.2-2.5,0.5-3.7,0.9c0.1,1.3,0.4,2.5,0.8,3.5C84.6,36.8,85.5,35.3,86.1,33.6z"/>
	<path class="st1" d="M124,28.7c-0.1,0.5-0.6,0.7-1.5,0.7c-0.3,0-1-0.1-2.1-0.2c-0.6,0-1.4-0.1-2.5-0.1c-0.7,0-1.4,0-2.2,0.1
		c0,0.2,0,0.5,0,0.9s0,0.7,0,0.9c-0.1,4.4-0.3,7.1-0.8,8c-0.1,1.4-0.7,2.7-1.9,4c-1.1,1.3-2.9,2.3-5.3,2.9c1.5-1,2.7-2.3,3.6-3.9
		c0.6-1.1,0.9-2,0.9-2.4c0-0.6-0.8-1.2-2.5-1.9c-1.9-0.8-2.8-1.5-2.8-2.1c0-0.7,0.5-1.5,1.6-2.4c1.2-1,2.3-1.4,3.5-1.4
		c0.3,0,0.6,0.1,1,0.2v-2.5h-0.1c-1.6,0.2-3.3,0.6-4.9,1.1c-2.9,0.9-4.5,1.3-4.9,1.3c-0.6,0-1.3-0.3-2.1-0.8
		c-0.8-0.6-1.3-1.1-1.3-1.6c0-0.3,0.7-0.4,2.2-0.4c0.7,0,3.6-0.4,8.8-1.4c0.8-0.2,1.6-0.3,2.2-0.4c0-2.7-0.2-4.3-0.3-4.7
		c-0.2-0.2-0.3-0.4-0.3-0.6c0-0.5,0.3-0.8,0.8-0.8c0.7,0,1.5,0.2,2.3,0.6c0.6,0.4,1,0.8,1.1,1.2c-0.1,0.3-0.2,0.6-0.6,1.1
		c-0.1,0.1-0.2,1.1-0.2,2.8c2.5-0.4,4.1-0.6,4.7-0.6c0.8,0,1.6,0.3,2.3,0.9C123.5,27.7,123.9,28.2,124,28.7z M112.6,35.8
		c0-1-0.1-1.7-0.4-2.1c-0.2-0.2-0.5-0.3-0.8-0.3c-0.4,0-0.8,0.3-1.4,0.8s-0.9,0.9-0.9,1.3c0,0.3,0.3,0.5,1,0.9
		c0.9,0.4,1.5,0.6,2,0.6C112.4,36.9,112.6,36.5,112.6,35.8z"/>
	<path class="st1" d="M143.4,25.7c0,0.5-0.9,1.1-2.7,1.8c-0.6,0.3-1.6,0.7-2.8,1.1c-0.7,1.7-1.8,3.7-3.2,6.2
		c-1.2,2.1-2.1,3.2-2.7,3.2c-0.7-0.1-1.1-0.6-1.1-1.6c0-1.4,0.4-2.4,1.2-3c0.6-0.3,1.4-1.6,2.6-3.9c-0.1,0-0.3,0-0.5,0
		c-0.6,0-1.4-0.1-2.1-0.4c-1-0.3-1.4-0.8-1.4-1.3c0-0.1,0.7-0.2,2.1-0.5c1.6-0.2,2.7-0.4,3.1-0.6h0.1c0.8-2,1.1-3.7,1.1-5.1
		c0-0.5,0.1-0.8,0.4-0.8c0.5,0,1.1,0.3,1.9,0.9c0.7,0.5,1,1,1,1.4c0,0.3-0.2,0.7-0.6,1c-0.1,0.1-0.3,0.5-0.6,1.1
		c0.1-0.1,0.2-0.1,0.2-0.2c0.8-0.4,1.6-0.6,2.3-0.6C142.8,24.4,143.4,24.8,143.4,25.7z M148.7,42.2c-0.1,0.8-0.5,1.2-1.3,1.2
		c-0.4,0-0.9-0.2-1.3-0.7c-0.4-0.5-1.2-1-2.2-1.6c-0.2,1.1-0.6,2-1.1,2.5c-0.9,0.8-1.7,1.3-2.5,1.4c-1.2,0-2.5-0.5-3.8-1.5
		s-2-1.8-2-2.4c0-0.9,0.6-1.7,1.8-2.3c1.3-0.6,2.8-0.9,4.7-0.9l0,0v-0.1c-0.1-0.6-0.1-1.2-0.1-1.9c0-1.1,0.3-2,1-2.7
		c0.5-0.6,1.4-1.1,2.5-1.5c-0.8,1.2-1.1,2.1-1.1,2.8c0,1.1,0.1,2.1,0.4,3c0.1,0.2,0.2,0.5,0.2,0.8c0.8,0.3,1.5,0.6,2.3,0.9
		C147.7,40.1,148.6,41.1,148.7,42.2z M141,40.1c-0.3,0-0.4,0-0.3,0c-1.3,0-2.4,0.1-3.1,0.3c-0.6,0.2-0.9,0.4-0.9,0.7
		s0.4,0.5,1.1,0.8c0.7,0.4,1.3,0.6,2,0.6c0.3,0,0.5-0.3,0.9-0.8C140.8,41.5,140.9,40.9,141,40.1z M152,30.5
		c-0.1,0.9-0.5,1.4-1.4,1.4c-0.4-0.1-0.8-0.2-1.1-0.4c-0.5-0.1-0.8-0.1-1.1-0.1c-0.7,0-2,0.2-3.8,0.5c1.7-1.2,2.5-2,2.5-2.4
		c0-0.3-0.9-1-2.6-2c2.5,0,4.4,0.3,5.7,1C151.4,29.2,151.9,29.9,152,30.5z"/>
	<path class="st1" d="M175.2,36.3c0,1.3-0.5,2.5-1.4,3.5c-0.8,1-2,1.8-3.5,2.5c-1.6,0.7-4,1.2-7.2,1.6c2.5-1,4.2-1.9,5.3-2.6
		c2.1-1.6,3.2-3.5,3.4-5.6c-0.1-0.7-0.4-1.4-0.8-1.9c-0.5-0.6-1.1-0.8-1.8-0.8c-3.6,0-6.6,1.5-8.9,4.4c-1.1,1.5-1.9,2.2-2.2,2.3
		c-0.4,0-0.8-0.3-1.1-0.9c-0.3-0.5-0.4-1-0.4-1.5s0.3-1,0.9-1.3c0.7-0.4,1.6-1.4,2.9-3.1c1.1-1.4,2.7-3.5,4.9-6.2
		c0.4-0.4,0.9-1.1,1.6-2l0.1-0.2c0-0.2-0.1-0.3-0.3-0.3c-0.3,0-0.8,0.3-1.6,0.9c-0.7,0.6-1.2,0.9-1.7,0.9s-1.1-0.2-1.8-0.7
		s-1-0.8-1-1.1c0-0.3,0.3-0.4,1-0.4s1.8-0.3,3.4-0.8c1.1-0.4,1.9-0.8,2.4-1.1c0.5-0.3,0.9-0.5,1-0.5c0.4,0,0.9,0.3,1.6,1
		c0.7,0.6,1.1,1.1,1.1,1.5c0,0.3-0.4,0.7-1,1.1s-1.6,1.3-2.8,2.8c-0.7,0.9-1.8,2.3-3.3,4.2c2.1-0.8,3.9-1.2,5.2-1.2
		c1.6,0,3,0.5,4.2,1.5C174.6,33.4,175.2,34.7,175.2,36.3z"/>
	<path class="st1" d="M193.3,24.2c0.1,0,0.4,0.1,0.7,0.2c0.4,0.3,0.6,0.5,0.6,0.8c0,0.2,0,0.4-0.1,0.5c-0.1,0.2-0.1,0.3-0.3,0.4
		c-0.8,0.3-1.5,0.5-2.3,0.6c-0.1,0.7-0.1,1.4-0.1,2.2c0.6-0.1,1.1-0.3,1.8-0.4c0.3-0.1,0.6-0.1,0.9-0.1c0.9,0.1,1.3,0.6,1.3,1.5
		c0,0.2-0.4,0.4-1.2,0.4c-0.2,0-0.4,0-0.6,0.1c0.2,0.1,0.4,0.2,0.4,0.4c0,0.1-0.1,0.2-0.2,0.4c-0.3,0.4-0.5,0.6-0.6,0.8
		c-0.2,0.4-0.5,0.8-0.8,1.1c0.1,0,0.2-0.1,0.3-0.1c0.3,0,0.6-0.1,0.8-0.1c0.9,0.1,1.3,0.6,1.3,1.5c0,0.2-0.4,0.3-1.1,0.4
		c-0.8,0.1-1.7,0.2-2.6,0.4c0.4,0.3,0.6,0.5,0.6,0.5c0,0.2-0.1,0.5-0.2,0.8c-0.1,0.2-0.1,0.3-0.1,0.5c0.3-0.1,0.6-0.2,0.9-0.3
		c0.2,0,0.4-0.1,0.6-0.1c0.9,0.1,1.3,0.6,1.3,1.5c0,0.2-0.3,0.4-0.9,0.4c-0.6,0-1.3,0.1-1.9,0.3v4.8c0,1-0.2,1.6-0.5,1.8
		c-0.3,0.4-0.7,0.6-1,0.6s-0.6-0.3-0.9-0.8c-0.3-0.5-0.5-1.2-0.5-2.2c0-0.1,0.1-0.2,0.1-0.5c0.2-0.4,0.2-0.6,0.2-0.7
		c0.1-0.8,0.1-1.6,0.1-2.4c-0.9,0.3-1.9,0.6-3,1.1l-0.4,0.1c-0.1,0-0.5-0.2-1.1-0.6c-0.6-0.5-0.9-1-0.9-1.5c0-0.1,0.1-0.1,0.2-0.1
		c0.8,0,1.6-0.1,2.4-0.3c0.7-0.1,1.6-0.4,2.8-0.7v-0.2c0-0.7-0.1-1.3-0.4-1.6v-0.1c-1.1,0.3-2.3,0.6-3.7,1.1l-0.5,0.1
		c-0.1,0-0.5-0.2-1.1-0.6c-0.6-0.5-0.9-1-0.9-1.5c0-0.1,0.1-0.1,0.2-0.1c0.9,0,1.9-0.1,2.9-0.2c1.3-0.2,3-0.6,5.3-1.1
		c0.2-0.5,0.3-1,0.4-1.5c0.1-0.4,0.1-0.8,0.1-1c0,0,0-0.1-0.1-0.2c-0.6,0.1-1.1,0.2-1.7,0.3c-0.6,0.1-1.1,0.2-1.8,0.4
		c0.3,0.2,0.6,0.3,0.8,0.5c0.3,0.3,0.4,0.6,0.4,1.1c0,0.2-0.1,0.5-0.4,0.7c-0.3,0.2-0.6,0.4-0.9,0.4c-0.1,0-0.2-0.1-0.4-0.4
		c-0.3-0.3-0.6-1-1-1.9c-0.6,0.2-1.3,0.4-2,0.6l-0.5,0.2c-0.2,0-0.5-0.2-1.1-0.6c-0.6-0.5-0.9-1-0.9-1.5c0-0.1,0.1-0.1,0.3-0.1
		c1,0,2.1-0.1,3.1-0.3c0.9-0.1,2.1-0.3,3.6-0.6c0-0.8,0-1.5,0.1-2.1c-0.6,0.1-1.1,0.2-1.5,0.2c-0.9,0-1.5-0.3-1.8-0.8
		c-0.2-0.3-0.3-0.6-0.3-0.7c0-0.1,0-0.1,0.1-0.1c1.4-0.1,2.6-0.2,3.6-0.4c0-0.6,0-1.1,0-1.5c0-1,0-1.7-0.1-2c-0.1-0.4-0.3-0.7-0.4-1
		c-0.2-0.2-0.3-0.4-0.3-0.6c0-0.4,0.2-0.6,0.5-0.6c0.7,0,1.4,0.2,2.1,0.5c1,0.4,1.5,0.7,1.5,1c0,0.1,0,0.3-0.1,0.5
		c-0.1,0.4-0.2,1.4-0.4,2.9c0.3-0.1,0.6-0.2,0.8-0.3C193,24.2,193.1,24.2,193.3,24.2z M196.3,23.2c0.5,0,1,0.2,1.7,0.5
		c0.3,0.1,0.5,0.2,0.6,0.3c0.7-0.1,1.5-0.2,2.4-0.4c0.6-0.1,1.3-0.3,2.1-0.6c0.1,0,0.2,0,0.4,0s0.6,0.3,1.5,0.8
		c0.8,0.5,1.3,0.9,1.3,1.2c0,0.1-0.1,0.1-0.2,0.2c-0.4,0.3-0.6,0.6-0.6,0.8c-0.2,1.5-0.5,2.6-0.8,3.3c-0.3,0.7-0.5,1.2-0.9,1.4
		c-0.2,0.2-0.5,0.4-0.9,0.6c-0.3,0.1-0.5,0.2-0.6,0.2c-0.3,0-0.4-0.1-0.6-0.4c-0.6-1-1.2-1.8-1.8-2.3c-0.1-0.1-0.2-0.1-0.2-0.1
		c0-0.2,0.1-0.3,0.1-0.3c1.1,0.3,1.8,0.4,2,0.4s0.5-0.2,0.7-0.6c0.2-0.4,0.4-0.9,0.5-1.6c0.1-0.3,0.1-0.7,0.1-0.9
		c0-0.4-0.2-0.7-0.7-0.7s-1,0-1.6,0.1c-0.6,0.1-1.3,0.2-2.2,0.4v1.3c0,2.4,0,4.6,0,6.6c0.7,0,1.5-0.1,2.2-0.2
		c0.9-0.1,1.9-0.3,2.8-0.6c0.2,0,0.4-0.1,0.5-0.1c0.3,0,0.9,0.2,1.6,0.5c0.9,0.6,1.3,1,1.3,1.5l-0.1,0.2c-0.5,0.5-0.9,1.2-1.3,2.1
		c-0.3,0.9-0.7,1.6-1.1,2.3c-0.2,0.4-0.6,0.8-1,1.2c1.3,1,3.2,1.9,5.7,2.8c0,0.3-0.2,0.4-0.5,0.5c-2.4,0.5-3.8,0.7-4.2,0.7
		c-0.5,0-0.8-0.1-1-0.4c-0.6-0.7-1.1-1.5-1.7-2.3c-0.2,0.1-0.4,0.2-0.5,0.3c-0.7,0.4-1.4,0.6-2,0.8c-0.3,0.1-0.6,0.2-0.9,0.2
		c0,0.7,0,1.3,0,1.8c-0.1,0.4-0.3,0.7-0.6,1.1c-0.3,0.3-0.6,0.4-0.9,0.4c-0.4,0-0.8-0.4-1.1-1.1c-0.3-0.6-0.4-1-0.4-1.4
		c0,0,0-0.2,0.1-0.5c0.3-2.2,0.4-3.9,0.5-5.2c0.1-2.8,0.2-6.3,0.2-10.5c-0.1-1.9-0.3-3-0.7-3.5c0-0.2-0.1-0.3-0.1-0.3
		C195.6,23.4,195.9,23.2,196.3,23.2z M198.6,42.2c0.1,0,0.1-0.1,0.2-0.1c0.6-0.3,1.1-0.7,1.6-1.1c0.3-0.2,0.5-0.5,0.7-0.7
		c-0.5-0.7-0.9-1.4-1.4-2.1c-0.4-0.6-0.8-1-1.1-1.4C198.7,38.8,198.6,40.6,198.6,42.2z M198.7,35.6L198.7,35.6
		c0.3,0,0.6,0.1,0.9,0.2c0.4,0.3,0.7,0.7,1,1.2c0.4,0.7,1,1.4,1.6,2c0.2-0.3,0.4-0.5,0.5-0.8c0.2-0.6,0.5-1.4,0.7-2.4
		c0.1-0.3,0.1-0.5,0.1-0.7c0-0.3-0.1-0.5-0.4-0.5c-1.1,0.1-2,0.2-2.8,0.3c-0.5,0-0.8,0.1-1,0.1s-0.4-0.1-0.6-0.2
		C198.7,35,198.7,35.3,198.7,35.6z"/>
	<path class="st1" d="M223.6,20.1c0.7,0,1.5,0.2,2.4,0.6c0.7,0.2,1,0.5,1,0.9c0,0.1-0.1,0.2-0.2,0.3c-0.1,0.2-0.3,0.5-0.5,0.9v0.1
		c1.1,0.2,2.1,0.5,2.8,0.7c0.5,0.2,0.9,0.4,1.2,0.8s0.4,0.9,0.5,1.3c0,0.7-0.3,1.1-1,1.1c-0.9,0-1.5-0.2-1.6-0.5
		c-0.5-0.4-1-0.8-1.4-1.2c-0.4-0.4-0.8-0.7-1.1-1.1c-0.4,0.7-0.8,1.4-1.2,2.1c0.2,0,0.3,0.1,0.5,0.1c0.8,0.2,1.4,0.4,1.8,0.6
		c0.3,0.2,0.5,0.5,0.5,0.9c0,0.2-0.1,0.5-0.4,0.7c-0.3,0.2-0.6,0.3-0.9,0.3c-0.2,0-0.3-0.1-0.5-0.3c-0.4-0.3-0.8-0.9-1.3-1.8
		c-0.3,0.4-0.6,0.8-0.9,1.2c-0.6,0.8-1.1,1.4-1.6,2c0.3,0.1,0.6,0.1,1,0.2s0.6,0.1,0.8,0.3c0.8-0.1,1.6-0.3,2.7-0.6
		c0.9-0.2,1.7-0.4,2.3-0.7c0.1,0,0.2-0.1,0.3-0.1c0.3,0,0.7,0.2,1.3,0.5c0.8,0.6,1.3,1,1.3,1.2c0,0.4-0.1,0.8-0.3,1
		c-0.4,0.6-1,2.1-1.9,4.6c-0.4,0.4-0.9,0.6-1.3,0.6c-0.4,0-0.6-0.1-0.7-0.3c-0.9,0-1.8,0.1-2.6,0.3c-1,0.2-1.6,0.3-1.9,0.3
		c-0.1,0-0.2,0-0.2-0.1c-0.2,0.5-0.3,1-0.4,1.5c-0.1,0.2-0.1,0.3-0.2,0.5c0.2,0,0.4,0.1,0.6,0.1c0.3,0.1,0.5,0.2,0.6,0.3
		c0.1,0,0.1,0,0.2-0.1c1.4-0.4,2.6-0.6,3.5-0.7c0.4-0.1,0.9-0.2,1.3-0.4c0.1,0,0.2,0,0.3,0s0.7,0.3,1.7,0.8c1.1,0.6,1.6,1,1.6,1.2
		c0,0.1-0.1,0.2-0.2,0.3c-0.4,0.3-0.7,0.6-0.9,0.9c-0.3,0.4-0.5,0.8-0.7,1.4c0.4,0.5,0.6,0.9,0.6,1.1c0,0.1-0.1,0.1-0.2,0.1
		c-1.4,0-2.7,0.1-4.1,0.2c-0.8,0.1-1.4,0.2-1.7,0.2l0.1,0.4c-0.1,0.8-0.3,1.1-0.9,1.1c-0.3,0-0.6-0.2-0.8-0.5s-0.4-0.5-0.4-0.7
		c-0.2-0.5-0.4-1.5-0.6-2.8c-0.2-0.8-0.4-1.4-0.6-1.8c-0.4,0.9-1,1.7-1.5,2.4c-0.8,1-2,1.9-3.4,2.8c-0.1,0.1-0.3,0.1-0.5,0.1v-0.1
		c0.9-0.9,1.6-1.9,2.1-2.9c1.1-1.8,1.8-3.7,2.2-5.6c0.4-1.8,0.6-3.6,0.6-5.4c0-0.4,0-0.7-0.1-0.9c-0.3,0.3-0.6,0.6-0.9,0.8
		c-1,0.9-2,1.6-3,2.1c-0.4,0.2-0.7,0.3-0.8,0.3v-0.1c1.4-1.6,2.7-3.1,3.8-4.7c0.7-1.1,1.4-2.3,2.1-3.5c0.6-1.2,1.1-2.3,1.4-3.4
		c0.1-0.4,0.2-0.7,0.2-1c-0.2-0.3-0.2-0.6-0.2-0.9C223.2,20.2,223.3,20.1,223.6,20.1z M223.6,31.6c0,0.4-0.1,0.8-0.1,1.1
		c0.6-0.2,1.2-0.3,1.7-0.5c0.2-0.1,0.3-0.1,0.4-0.1c1.1,0,1.6,0.4,1.6,1.2c0,0.1-0.1,0.2-0.2,0.2c-0.8,0.2-1.5,0.4-2.2,0.5
		c-0.6,0.1-0.9,0.2-1.1,0.2c-0.2,0-0.3,0-0.5-0.1c-0.1,0.6-0.2,1.2-0.3,1.8c0.4,0,0.8-0.1,1.4-0.2c0.9-0.2,1.6-0.3,2.1-0.5
		c0.1-0.1,0.3-0.1,0.4-0.1c0.3,0,0.5,0.1,0.6,0.2c0.1-0.7,0.3-1.5,0.5-2.6c0.1-0.6,0.2-1.1,0.2-1.6c0-0.2-0.1-0.4-0.3-0.4
		c-0.3,0-0.9,0.1-1.9,0.3C225.4,31,224.6,31.2,223.6,31.6z M224.1,43.1c0.4,0,1-0.1,1.6-0.2c0.7-0.1,1.2-0.2,1.7-0.3
		c0.1-0.3,0.2-0.5,0.3-0.8c0.1-0.4,0.2-0.8,0.2-1.2c0-0.4-0.2-0.6-0.7-0.6c-0.3,0-0.8,0-1.4,0.1c-0.7,0.2-1.4,0.4-2.2,0.6
		L224.1,43.1z M233.4,27.3c0.3,0,0.8,0.1,1.4,0.2c0.7,0.2,1.1,0.4,1.1,0.7v8.7c0,0.4-0.1,0.7-0.3,0.9c-0.2,0.3-0.4,0.5-0.8,0.5
		c-0.2,0-0.4-0.3-0.9-0.9c-0.3-0.4-0.4-0.7-0.4-0.8l0.1-1.2c0-3.8-0.2-6.1-0.6-6.9c-0.2-0.4-0.2-0.6-0.2-0.7
		C232.8,27.5,233,27.3,233.4,27.3z M238.1,21.1c0.8,0,1.7,0.2,2.8,0.7c0.9,0.3,1.4,0.7,1.4,1.2c0,0.1,0,0.2-0.1,0.3
		c-0.5,1.2-0.8,2.3-0.9,3.3c-0.1,1.5-0.2,2.9-0.2,4.3c0,4.6,0.2,8.6,0.6,11.9c0,1-0.3,2-1,2.9c-0.5,0.7-0.9,1-1.3,1
		c-0.6,0-1-0.2-1.2-0.6c-0.4-0.6-1.6-1.6-3.7-3.2c0-0.3,0.1-0.5,0.4-0.5c1.3,0.2,2.2,0.4,2.6,0.4c0.2,0,0.3-0.2,0.4-0.6
		c0.1-0.5,0.2-1.8,0.3-3.8c0.1-2.8,0.2-5.7,0.2-8.8c0-1.8-0.1-3.3-0.2-4.6c-0.1-1.3-0.4-2.3-0.9-3.2c-0.1-0.1-0.1-0.2-0.1-0.3
		C237.2,21.3,237.5,21.1,238.1,21.1z"/>
</g>
<g class="st0">
	<path class="st2" d="M5.3,30.3c0.1,0,0.3,0,0.4,0.1c0.3,0.2,0.4,0.3,0.4,0.4c0,0.1,0,0.2-0.1,0.3s-0.1,0.2-0.2,0.2
		c-0.4,0.1-0.8,0.2-1.2,0.3c0,0.4,0,0.8,0,1.2v0.3c0.3,0.1,0.5,0.1,0.7,0.2c0.3,0.1,0.6,0.3,0.7,0.4c0.1,0.1,0.1,0.2,0.1,0.3
		c0,0.2-0.1,0.4-0.2,0.5c-0.1,0.2-0.3,0.2-0.4,0.2c-0.2,0-0.4-0.1-0.5-0.3c0,0-0.1-0.1-0.3-0.3c0-0.1-0.1-0.1-0.1-0.2v4.8
		c0,0.2-0.1,0.4-0.3,0.7c-0.1,0.3-0.3,0.4-0.5,0.4s-0.4-0.2-0.6-0.6C3.1,39,3,38.7,3,38.3c0.1-0.7,0.2-1.5,0.3-2.3
		c0.1-0.6,0.2-1.4,0.2-2.4c-0.1,0.1-0.1,0.3-0.2,0.4c-0.3,0.6-0.7,1.2-1.1,1.7c-0.3,0.4-0.7,0.7-1,1C1,37,0.8,37.1,0.7,37.1H0.6
		c0.4-0.5,0.6-1,0.8-1.4c0.4-0.7,0.8-1.5,1.1-2.2C2.8,32.9,3,32.4,3,32c-0.3,0.1-0.6,0.1-0.8,0.1c-0.6,0-0.9-0.1-1.1-0.4
		c-0.1-0.2-0.2-0.3-0.2-0.4c0-0.1,0-0.1,0.1-0.1c1.1-0.1,1.9-0.2,2.6-0.4c0-1.7,0-2.7-0.1-3c-0.2-0.3-0.3-0.7-0.5-1
		c0-0.1,0-0.1,0.2-0.1c0.4,0,0.8,0.1,1.2,0.3C4.8,27.1,5,27.3,5,27.5c0,0.1,0,0.2-0.1,0.4c-0.1,0.9-0.2,1.8-0.2,2.6
		c0.1,0,0.2-0.1,0.3-0.1C5.1,30.3,5.2,30.3,5.3,30.3z M6.9,28.2c0.3,0,0.6,0.1,0.9,0.2c0.4,0.1,0.6,0.3,0.6,0.4v0.1
		C8.3,29,8.3,29,8.2,29.1c-0.1,0.4-0.3,0.8-0.4,1c0.4,0,0.7-0.1,1.1-0.1c0-1.6-0.1-2.5-0.2-2.6c0-0.2-0.1-0.4-0.2-0.6
		c-0.1-0.1-0.1-0.1-0.1-0.2s0.1-0.2,0.3-0.2c0.4,0,0.8,0.1,1.1,0.2c0.4,0.1,0.6,0.3,0.6,0.5c0,0.1,0,0.2-0.1,0.3
		c-0.1,0.2-0.2,0.4-0.2,0.7C10,28.3,10,28.9,10,29.7c0.3-0.1,0.6-0.2,0.9-0.4c0.1-0.1,0.2-0.1,0.3-0.1s0.2,0,0.4,0.1
		c0.2,0.2,0.3,0.3,0.3,0.4s0,0.2,0,0.3s-0.1,0.2-0.2,0.2c-0.6,0.2-1.1,0.3-1.7,0.4v1.5c0.4-0.1,0.8-0.2,1.1-0.3
		c0.4-0.1,0.7-0.1,1-0.1s0.5,0.1,0.8,0.2c0.4,0.3,0.5,0.5,0.5,0.7c0,0.1-0.1,0.2-0.1,0.3c-0.1,0.1-0.2,0.2-0.3,0.2
		c-1.1,0-2,0-2.8,0.1c0.1,0.1,0.2,0.2,0.3,0.3c0.5,0.8,1,1.5,1.5,2c0.5,0.6,1.4,1.2,2.5,1.9v0.1c0,0.1-0.1,0.1-0.3,0.1
		c-0.8,0.1-1.6,0.2-2.3,0.2c-0.2,0-0.3,0-0.3-0.1c-0.4-0.6-0.9-1.7-1.5-3.2c-0.1-0.1-0.1-0.2-0.2-0.4c0,1.2,0.1,2.7,0.1,4.3
		c0,0.5-0.1,0.9-0.3,1c-0.2,0.3-0.4,0.4-0.5,0.4S9,39.6,8.7,39.1c-0.1-0.2-0.1-0.4-0.1-0.5c0-0.3,0-0.5,0.1-0.6
		c0-0.1,0.1-0.4,0.1-0.7C8.9,36.8,8.9,36,8.9,35c-0.2,0.3-0.5,0.7-0.7,0.9c-0.4,0.5-0.9,1-1.4,1.3c-0.4,0.3-1,0.5-1.6,0.7v-0.1
		c0.2-0.2,0.4-0.4,0.6-0.6c0.5-0.5,0.9-0.9,1.2-1.4c0.4-0.5,0.8-1.3,1.3-2.1c0.1-0.1,0.1-0.2,0.1-0.3c-0.6,0.1-1.2,0.2-1.8,0.4
		c0,0-0.1,0-0.2,0s-0.3-0.1-0.5-0.4c-0.2-0.2-0.3-0.4-0.3-0.5c0,0,0-0.1,0.1-0.1c0.7-0.1,1.2-0.2,1.6-0.3c0.4-0.1,0.9-0.1,1.5-0.2
		l0,0V31c-0.2,0-0.4,0.1-0.6,0.1c-0.4,0-0.7-0.1-0.8-0.3c0,0.3-0.2,0.6-0.4,0.8c-0.2,0.2-0.4,0.4-0.7,0.5c0.1-0.3,0.2-0.5,0.2-0.5
		c0.1-0.3,0.1-0.5,0.2-0.8c0.1-0.4,0.1-0.8,0.2-1.3c0-0.1,0-0.3,0-0.4c0-0.2,0-0.3-0.1-0.4c-0.1-0.2-0.1-0.3-0.1-0.4
		C6.7,28.3,6.7,28.2,6.9,28.2z"/>
	<path class="st2" d="M23.3,32.8c0.7,0,1.1,0.3,1.1,0.8c0,0.1-0.1,0.2-0.2,0.2c-0.4,0.1-0.8,0.2-1.2,0.3c0,0,0,0.1,0,0.1
		c0,0.1,0,0.1,0,0.1c-0.1,0.2-0.2,0.9-0.3,2c0.4-0.1,0.9-0.3,1.3-0.4c0.4-0.1,0.6-0.2,0.7-0.2c0.2,0,0.4,0.1,0.4,0.3
		c0,0-0.1,0.1-0.2,0.2c-0.5,0.3-1.3,0.8-2.4,1.4c-0.6,0.3-1.3,0.8-2.1,1.3C20.3,39,20.2,39,20.1,39c-0.1,0-0.4-0.2-0.8-0.6
		c-0.3-0.4-0.4-0.7-0.4-0.9c0-0.1,0.1-0.2,0.2-0.2c0.3,0,0.5-0.1,0.8-0.1c0.5-0.1,1-0.3,1.7-0.5c0-0.7,0-1.2,0-1.6
		c0-0.4,0-0.7,0-0.8v-0.1c-0.6,0.1-1,0.1-1.2,0.1s-0.4-0.1-0.6-0.2c-0.1-0.1-0.2-0.3-0.2-0.4c0-0.1,0-0.1,0.1-0.1
		c1.2-0.2,2.2-0.5,3.2-0.8C23,32.8,23.2,32.8,23.3,32.8z M27.7,29.3c0.1,0,0.3,0.1,0.5,0.1c0.3,0.2,0.4,0.4,0.4,0.5s0,0.2-0.1,0.4
		c-0.1,0.1-0.1,0.2-0.2,0.3c-0.8,0.2-1.6,0.4-2.5,0.6c0.1,0.9,0.3,1.6,0.6,2.4c0.3,0.9,0.7,1.8,1.2,2.5c0.4,0.5,0.8,1,1.2,1.4
		c0.5,0.4,0.8,0.6,1,0.6c0,0,0.1-0.1,0.1-0.2c0.2-0.5,0.4-1.1,0.6-1.8c0-0.1,0-0.1,0.1-0.1s0.1,0.1,0.1,0.3c0,0.3,0,0.5,0,0.7
		c0,1,0.1,1.7,0.2,2c0.1,0.1,0.1,0.3,0.1,0.4c0,0.4-0.1,0.6-0.4,0.6s-0.8-0.1-1.3-0.3c-0.5-0.2-0.9-0.5-1.4-0.9
		c-0.5-0.5-1-1-1.4-1.6c-0.5-0.8-0.9-1.6-1.2-2.6c-0.3-0.7-0.5-1.7-0.8-3c-0.4,0.1-0.8,0.2-1.3,0.2c-1.2,0.2-2.1,0.4-2.6,0.4
		c-0.6,0-1-0.2-1.3-0.6c-0.1-0.2-0.2-0.4-0.2-0.5c0,0,0-0.1,0.1-0.1c2.1-0.1,3.8-0.4,5-0.6c-0.1-0.5-0.2-1-0.2-1.6
		c-0.1-0.4-0.1-0.8-0.2-1c-0.1-0.4-0.2-0.7-0.4-0.9c0-0.1-0.1-0.2-0.1-0.3s0.1-0.2,0.3-0.2c0.4,0,0.9,0.1,1.3,0.3
		c0.4,0.1,0.6,0.3,0.6,0.4s0,0.2-0.1,0.3s-0.1,0.3-0.1,0.4c0,0.8,0,1.5,0.1,2.2c0.5-0.2,1-0.3,1.5-0.5
		C27.4,29.3,27.5,29.3,27.7,29.3z M26.8,27c0.2,0,0.4,0,0.6,0.1c0.6,0.1,1,0.3,1.4,0.5c0.2,0.2,0.4,0.4,0.4,0.7
		c0,0.2-0.1,0.3-0.3,0.4c-0.2,0.1-0.4,0.2-0.6,0.2c-0.1,0-0.3-0.1-0.4-0.2c-0.3-0.2-0.6-0.7-1.1-1.4c0-0.1-0.1-0.2-0.1-0.2
		C26.7,27,26.8,27,26.8,27z"/>
	<path class="st2" d="M39.9,26.5c0.4,0,0.8,0.1,1.3,0.4c0.3,0.1,0.5,0.3,0.5,0.5c0,0.1,0,0.1-0.1,0.2s-0.2,0.3-0.3,0.5l0,0
		c0.2,0,0.5,0.2,0.7,0.5c0.8,0.9,1.5,1.6,2.2,2.2c0.8,0.6,2,1.3,3.8,2.1V33c0,0.1-0.1,0.1-0.3,0.1c-1,0.1-1.9,0.2-2.6,0.2
		c-0.3,0-0.5,0-0.6-0.1c-0.7-0.7-1.5-1.9-2.6-3.5c-0.2-0.3-0.5-0.6-0.8-1c0,0-0.1-0.1-0.1-0.2c-0.5,0.8-1.1,1.5-1.7,2.2
		c-0.8,0.9-1.6,1.6-2.5,2.2c-0.7,0.5-1.4,0.9-2.1,1.1c-0.3,0.1-0.5,0.2-0.5,0.2v-0.1c1.1-0.9,2.1-1.8,2.9-2.6
		c0.6-0.6,1.1-1.2,1.6-1.9c0.5-0.6,0.8-1.3,1.1-1.9c0.1-0.2,0.1-0.4,0.1-0.6c-0.1-0.2-0.1-0.3-0.1-0.5
		C39.7,26.5,39.8,26.5,39.9,26.5z M44,33.8c0.2,0,0.5,0.1,0.8,0.3c0.2,0.2,0.4,0.4,0.4,0.6c0,0.3-0.1,0.5-0.3,0.5
		c-1.5,0-2.8,0.1-4.1,0.2c0.3,0.1,0.4,0.3,0.4,0.4c0,0.1-0.1,0.2-0.2,0.4c-0.2,0.1-0.3,0.2-0.4,0.4c-0.4,0.4-0.8,0.9-1.3,1.4
		c0.9-0.1,2.1-0.3,3.5-0.5c-0.2-0.4-0.3-0.6-0.4-0.8c-0.2-0.2-0.2-0.4-0.2-0.5c0,0,0-0.1,0.1-0.1s0.2,0,0.4,0.1
		c0.4,0.2,0.7,0.4,1.1,0.6c0.5,0.3,0.8,0.6,1,0.9c0.1,0.3,0.2,0.5,0.2,0.8c0,0.2,0,0.4-0.2,0.6c-0.1,0.2-0.3,0.2-0.5,0.2
		s-0.4-0.1-0.5-0.3s-0.3-0.5-0.6-1v-0.1h-0.1c-2.9,0.6-4.6,1.1-5.2,1.3c-0.4,0-0.6-0.2-0.6-0.5s0-0.5,0.1-0.7c0-0.3,0.2-0.5,0.4-0.5
		c0.1,0,0.2-0.1,0.3-0.1s0.2-0.2,0.4-0.4c0.2-0.2,0.3-0.4,0.5-0.7c0.1-0.2,0.2-0.4,0.3-0.7c0-0.1,0.1-0.2,0.1-0.3
		c-0.5,0.1-1.1,0.2-1.7,0.3c-0.3,0.1-0.5,0.1-0.6,0.1c-0.2,0-0.4-0.1-0.6-0.4c-0.2-0.2-0.3-0.4-0.3-0.5c0,0,0-0.1,0.1-0.1
		c1.5-0.2,2.8-0.3,3.9-0.5c1.1-0.1,2.2-0.3,3.3-0.6C43.5,33.8,43.8,33.8,44,33.8z M41.8,31.6c0.1,0,0.3,0,0.5,0.1
		c0.3,0.2,0.4,0.4,0.4,0.5c0,0.1,0,0.2-0.1,0.3c-0.1,0.1-0.1,0.2-0.2,0.3c-0.6,0.2-1.2,0.3-1.8,0.4c-0.4,0.1-0.8,0.1-1,0.1
		c-0.6,0-1-0.2-1.2-0.5c-0.2-0.2-0.2-0.4-0.2-0.4s0-0.1,0.1-0.1c0.9-0.1,1.7-0.2,2.2-0.3c0.4-0.1,0.8-0.2,1.1-0.4
		C41.7,31.6,41.8,31.6,41.8,31.6z"/>
	<path class="st2" d="M55.3,30c0.2,0,0.5,0.1,0.9,0.3c0.5,0.3,0.8,0.6,0.8,0.8c0,0.1-0.1,0.1-0.2,0.2c-0.5,0.3-0.8,0.5-0.9,0.6
		c-0.4,0.6-0.8,1.1-1.2,1.5c0.5,0.3,0.7,0.5,0.7,0.6c0,0.1,0,0.2-0.1,0.4c-0.1,0.3-0.1,0.4-0.1,0.4l0.1,3.3c0,0.2-0.1,0.5-0.3,0.7
		c-0.2,0.3-0.3,0.5-0.5,0.5c-0.3,0-0.5-0.3-0.8-1c-0.1-0.2-0.1-0.3-0.1-0.4c0-0.2,0.1-0.8,0.3-1.7c0.1-0.3,0.1-0.9,0.1-1.7
		c0-0.2,0-0.4,0-0.6c-0.1,0.1-0.1,0.1-0.2,0.2c-0.7,0.7-1.4,1.3-2.3,1.7c-0.3,0.2-0.5,0.3-0.6,0.3c0,0,0,0,0-0.1c0,0,0-0.1,0.2-0.2
		c0.8-0.7,1.4-1.3,1.8-1.9c0.7-0.8,1.3-1.7,1.8-2.6c0-0.1,0.1-0.1,0.1-0.2s0-0.1-0.1-0.1c-1.3,0.5-2,0.8-2.2,0.8s-0.5-0.1-0.7-0.4
		c-0.2-0.2-0.3-0.4-0.3-0.5c0-0.2,0.1-0.2,0.2-0.2c0.9,0,1.6-0.1,2-0.2c0.5-0.1,1-0.3,1.6-0.7C55.3,30,55.3,30,55.3,30z M53.8,26.9
		c0.2,0,0.4,0,0.6,0.1c0.6,0.1,1,0.3,1.3,0.4c0.2,0.1,0.3,0.4,0.3,0.7c0,0.2-0.1,0.3-0.3,0.5c-0.2,0.1-0.4,0.2-0.6,0.2
		c-0.1,0-0.3-0.1-0.4-0.2c-0.3-0.2-0.6-0.7-1-1.5c-0.1-0.1-0.1-0.1-0.1-0.2C53.7,26.9,53.7,26.9,53.8,26.9z M55.3,33
		c0.1,0,0.3,0,0.4,0.1c0.4,0.1,0.7,0.3,0.9,0.4c0.2,0.2,0.3,0.4,0.3,0.7c0,0.1-0.1,0.2-0.2,0.4c-0.2,0.1-0.3,0.2-0.4,0.2
		c-0.1,0-0.2-0.1-0.3-0.2c-0.2-0.2-0.4-0.6-0.7-1.3c0-0.1-0.1-0.1-0.1-0.1C55.3,33,55.3,33,55.3,33z M62.3,31c0.1,0,0.3,0.1,0.5,0.1
		c0.3,0.2,0.4,0.4,0.4,0.6c0,0.1,0,0.2-0.1,0.3c-0.1,0.1-0.1,0.2-0.2,0.3c-0.7,0.2-1.4,0.4-2.1,0.6l-0.1,2.8
		c0.8-0.2,1.5-0.3,2.1-0.5c0.1,0,0.1,0,0.2,0c0.3,0,0.7,0.1,1.1,0.4s0.6,0.6,0.6,1c0,0.3-0.1,0.5-0.4,0.5s-0.7,0-1.4-0.1
		c-0.4-0.1-0.8-0.1-1-0.1c-1.1,0-2,0.1-2.7,0.2c-0.6,0.1-1.2,0.3-1.7,0.5c-0.1,0.1-0.3,0.1-0.4,0.1c-0.3,0-0.6-0.2-0.9-0.5
		c-0.3-0.3-0.4-0.5-0.4-0.6c0-0.1,0-0.1,0.1-0.1c0.5,0,1.6-0.1,3.3-0.4c0.1,0,0.2,0,0.3,0v-2.8c-0.3,0.1-0.6,0.1-0.9,0.1
		c-0.6,0-1-0.2-1.3-0.6c-0.1-0.2-0.2-0.4-0.2-0.5c0,0,0-0.1,0.1-0.1c0.8-0.1,1.6-0.2,2.2-0.3v-1c0-0.8,0-1.6-0.1-2.3
		c0-0.3-0.1-0.6-0.3-0.9c0-0.1,0-0.1,0-0.1c0-0.1,0.1-0.2,0.4-0.2c0.4,0,0.8,0.1,1.2,0.2c0.4,0.2,0.7,0.4,0.7,0.5s0,0.1-0.1,0.2
		C61.1,28.6,61,29.2,61,30v1.5c0.4-0.1,0.8-0.3,1.1-0.5C62.1,31.1,62.2,31,62.3,31z"/>
</g>
<text transform="matrix(1 0 0 1 2.7061 11.229)" class="st3 st4 st5">総合広告代理店</text>
<text transform="matrix(1 0 0 1 -0.2935 37.5903)" class="st0"><tspan x="0" y="0" class="st2 st4 st6 st7">株式会</tspan><tspan x="64.2" y="0" class="st2 st4 st6 st8">社</tspan><tspan x="87.6" y="4" class="st2 st4 st9 st10">あすなろ報創</tspan></text>
<g>
	<path class="st11" d="M3.4,12.6c0.1,0,0.2,0,0.3,0.1C4,12.8,4.2,13,4.3,13.2c0.1,0.2,0.2,0.4,0.2,0.8c0,0.1-0.1,0.2-0.2,0.3
		c-0.1,0.1-0.3,0.1-0.4,0.1c-0.1,0-0.1-0.1-0.2-0.2c-0.1-0.2-0.3-0.7-0.5-1.4C3.3,12.7,3.3,12.7,3.4,12.6
		C3.3,12.6,3.3,12.6,3.4,12.6z M5.2,6.1c0.2,0,0.4,0.1,0.7,0.2c0.2,0.1,0.4,0.3,0.4,0.4c0,0,0,0.1-0.1,0.1c-0.4,0.4-0.8,1.1-1.4,2
		c0,0-0.1,0.1-0.1,0.1l1-0.1C5.7,8.7,5.9,8.4,6,8.2c0,0,0-0.2,0-0.4c0-0.1,0.1-0.1,0.2-0.1c0.2,0,0.4,0.1,0.5,0.2
		C7,8,7.1,8.2,7.1,8.3c0,0,0,0.1-0.1,0.1C6.8,8.6,6.7,8.7,6.5,8.9c-0.5,0.6-1,1.3-1.5,1.9c0.3-0.1,0.6-0.2,1-0.3
		c0-0.1-0.1-0.2-0.1-0.3c0-0.1,0-0.1,0-0.1c0-0.1,0-0.1,0.1-0.1c0.1,0,0.2,0,0.3,0.1c0.3,0.1,0.5,0.2,0.6,0.4
		c0.1,0.1,0.2,0.4,0.2,0.6c0,0.1-0.1,0.2-0.2,0.3c-0.1,0.1-0.2,0.1-0.3,0.1c-0.1,0-0.1-0.1-0.2-0.2c-0.1-0.1-0.1-0.2-0.2-0.4
		c-0.2,0.1-0.4,0.2-0.7,0.3c-0.3,0.2-0.6,0.3-0.7,0.5c-0.1,0-0.1,0.1-0.2,0.2C4.6,12,4.5,12,4.5,12c-0.1,0-0.3-0.1-0.5-0.3
		c-0.2-0.2-0.2-0.4-0.2-0.5c0-0.1,0-0.1,0-0.2c0.3-0.2,0.5-0.4,0.5-0.5c0.2-0.2,0.5-0.6,0.9-1.2C4.8,9.6,4.4,9.8,4.2,10
		C4,10,3.8,9.9,3.7,9.7C3.6,9.6,3.6,9.5,3.6,9.3c0-0.1,0-0.1,0.1-0.2c0.2-0.2,0.5-0.5,0.8-1c0.1-0.2,0.3-0.7,0.5-1.3
		C5,6.6,5,6.5,5,6.5c0-0.1,0-0.1,0-0.2C5,6.2,5.1,6.1,5.2,6.1z M4.6,12.2c0.1,0,0.2,0,0.3,0.1c0.3,0.1,0.4,0.2,0.6,0.4
		c0.1,0.1,0.2,0.3,0.2,0.5c0,0.1,0,0.2-0.1,0.3c-0.1,0.1-0.2,0.1-0.3,0.1c-0.1,0-0.1,0-0.2-0.1c-0.1-0.2-0.3-0.5-0.5-1
		C4.5,12.3,4.5,12.3,4.6,12.2C4.5,12.3,4.6,12.2,4.6,12.2z M5.7,11.7c0.1,0,0.2,0,0.3,0.1c0.3,0.1,0.5,0.2,0.6,0.3
		c0.1,0.1,0.2,0.3,0.2,0.5c0,0.1,0,0.2-0.1,0.2c-0.1,0.1-0.2,0.1-0.3,0.1c0,0-0.1,0-0.2-0.1c-0.1-0.1-0.3-0.5-0.5-0.9
		C5.6,11.8,5.6,11.7,5.7,11.7C5.6,11.7,5.7,11.7,5.7,11.7z M7.5,12.5c0,0,0.1,0,0.1,0.1c0.1,0.2,0.2,0.4,0.2,0.6
		c0,0.2-0.1,0.5-0.2,0.8c-0.1,0.2-0.1,0.3-0.2,0.4c-0.1,0.1-0.1,0.1-0.2,0.1c-0.2,0-0.4-0.1-0.5-0.2c-0.1-0.1-0.1-0.3-0.1-0.4
		c0-0.1,0-0.2,0.1-0.3c0.4-0.5,0.6-0.8,0.7-1C7.3,12.5,7.4,12.5,7.5,12.5z M8.3,6.5c0.1,0,0.3,0,0.5,0.1c0.3,0.1,0.4,0.2,0.4,0.3
		C9.3,7,9.3,7,9.2,7C9.1,7.2,9,7.3,8.8,7.5C8.5,8,8.2,8.3,7.9,8.5C7.7,8.6,7.5,8.8,7.3,8.9C7.3,8.9,7.2,9,7.1,9c0,0,0,0,0,0
		C7.3,8.6,7.5,8.4,7.6,8C7.9,7.6,8,7.3,8.1,7c0-0.1,0.1-0.2,0.1-0.4C8.2,6.5,8.2,6.5,8.3,6.5z M9,8C9.3,8,9.6,8,9.7,8.2
		c0.2,0.1,0.4,0.2,0.4,0.3c0,0.1,0,0.2-0.1,0.3C9.8,8.8,9.7,8.9,9.7,9c-0.2,0.4-0.6,0.8-0.9,1.2c0.4-0.1,1-0.2,1.8-0.3
		c-0.1-0.3-0.2-0.4-0.3-0.5c-0.1-0.1-0.1-0.2-0.1-0.3c0,0,0,0,0,0c0.1,0,0.1,0,0.3,0c0.2,0.1,0.4,0.2,0.7,0.3
		c0.3,0.2,0.5,0.3,0.6,0.5c0.1,0.1,0.1,0.3,0.1,0.4c0,0.1,0,0.2-0.1,0.4c-0.1,0.1-0.2,0.2-0.3,0.2c-0.2,0-0.3-0.1-0.3-0.2
		c-0.1-0.1-0.2-0.2-0.3-0.4c0,0,0,0-0.1,0C9.2,10.7,8.3,11,8,11.1c-0.3,0-0.4-0.1-0.4-0.3c0-0.2,0-0.3,0.1-0.4
		c0-0.2,0.1-0.3,0.2-0.3C8,10,8,10,8.1,10c0.1,0,0.2-0.2,0.3-0.3c0.1-0.2,0.2-0.3,0.3-0.5c0.1-0.2,0.1-0.3,0.2-0.5
		c0-0.1,0-0.2,0-0.3c0-0.1,0-0.1,0-0.2C8.8,8,8.9,8,9,8z M8,12.1c0.4,0,0.6,0.1,0.7,0.3c0.1,0.3,0.1,0.5,0.2,0.6
		c0.1,0.2,0.2,0.3,0.3,0.4c0.1,0.1,0.3,0.2,0.5,0.3c0.2,0.1,0.4,0.1,0.6,0.1c0.2,0,0.5,0,0.7-0.1c0,0,0.1-0.1,0.1-0.2L10.8,13v-0.1
		c0,0,0.1,0,0.1,0c0.3,0.3,0.7,0.5,1.1,0.8c0.1,0.1,0.2,0.1,0.3,0.1c0.2,0,0.3,0.1,0.3,0.3c0,0.1,0,0.2-0.1,0.2
		c-0.1,0.1-0.2,0.2-0.4,0.2c-0.4,0.1-0.9,0.2-1.2,0.2c-0.3,0-0.5,0-0.7-0.1c-0.2-0.1-0.4-0.1-0.6-0.2c-0.2-0.1-0.4-0.3-0.6-0.4
		c-0.1-0.1-0.2-0.3-0.4-0.5c-0.1-0.2-0.2-0.4-0.2-0.7C8.2,12.7,8.1,12.5,8,12.1C8,12.2,8,12.1,8,12.1z M8.9,11.3
		c0.1,0,0.2,0,0.4,0.1c0.4,0.1,0.6,0.2,0.8,0.3c0.1,0.1,0.2,0.3,0.2,0.5c0,0.1-0.1,0.2-0.2,0.3c-0.1,0.1-0.3,0.1-0.4,0.1
		c-0.1,0-0.2,0-0.2-0.1c-0.2-0.2-0.4-0.5-0.6-1C8.8,11.5,8.8,11.4,8.9,11.3C8.8,11.4,8.8,11.3,8.9,11.3z M10,6.4c0.1,0,0.2,0,0.3,0
		c0.3,0.1,0.6,0.2,0.8,0.4c0.4,0.2,0.6,0.4,0.7,0.6C12,7.5,12,7.7,12,7.9c0,0.1,0,0.3-0.1,0.4c-0.1,0.1-0.2,0.2-0.3,0.2
		c-0.2,0-0.3-0.1-0.4-0.2c-0.1-0.1-0.2-0.3-0.5-0.6c-0.3-0.5-0.5-0.8-0.6-0.9C10,6.6,10,6.5,10,6.4C10,6.4,10,6.4,10,6.4z
		 M11.3,11.5c0.1,0,0.3,0,0.4,0.1c0.4,0.1,0.7,0.3,0.9,0.4c0.2,0.1,0.2,0.4,0.2,0.6c0,0.1-0.1,0.2-0.2,0.3c-0.1,0.1-0.3,0.1-0.4,0.1
		c-0.1,0-0.2-0.1-0.3-0.2c-0.2-0.2-0.4-0.6-0.7-1.2C11.2,11.7,11.2,11.6,11.3,11.5C11.2,11.5,11.2,11.5,11.3,11.5z"/>
	<path class="st11" d="M17.7,5.6c0.3,0,0.6,0.1,0.9,0.3C18.9,6,19,6.1,19,6.2c0,0.1,0,0.1-0.1,0.1c-0.1,0.1-0.1,0.2-0.2,0.4
		c0,0,0,0,0,0C18.9,6.9,19,7,19.2,7.2c0.5,0.7,1.1,1.3,1.6,1.7c0.5,0.5,1.5,1,2.7,1.6v0.1c0,0-0.1,0.1-0.2,0.1
		c-0.7,0.1-1.3,0.2-1.8,0.2c-0.2,0-0.4,0-0.4-0.1c-0.5-0.5-1.1-1.5-1.9-2.7c-0.1-0.2-0.3-0.5-0.6-0.8c0,0-0.1-0.1-0.1-0.1
		c-0.4,0.6-0.7,1.1-1.2,1.6c-0.5,0.7-1.1,1.2-1.7,1.6c-0.5,0.4-1,0.7-1.4,0.8c-0.2,0.1-0.3,0.1-0.4,0.1v0c0.7-0.7,1.4-1.3,1.9-1.9
		c0.4-0.5,0.7-0.9,1.1-1.5c0.3-0.5,0.6-0.9,0.7-1.4c0.1-0.2,0.1-0.3,0.1-0.4c0-0.1-0.1-0.2-0.1-0.4C17.6,5.7,17.6,5.6,17.7,5.6z
		 M15.6,11.7c0.2,0,0.4,0,0.7,0.1c0.1,0,0.1,0.1,0.2,0.1c0.6,0,1.1-0.1,1.6-0.2c0.4-0.1,0.8-0.2,1.2-0.3c0.1,0,0.3-0.1,0.4-0.1
		c0.2,0,0.5,0.1,0.9,0.3c0.5,0.3,0.7,0.5,0.7,0.7c0,0,0,0.1-0.1,0.1c-0.2,0.1-0.3,0.3-0.4,0.4c-0.2,0.2-0.3,0.6-0.4,1
		c0.2,0.2,0.3,0.4,0.3,0.5c0,0-0.1,0-0.1,0c-0.8,0-1.5,0-2.3,0.1c-0.4,0-0.7,0.1-0.9,0.1c0,0.3-0.2,0.5-0.4,0.5
		c-0.1,0-0.3-0.1-0.4-0.2c-0.1-0.1-0.2-0.2-0.2-0.3c-0.1-0.3-0.2-0.7-0.3-1.4c-0.1-0.4-0.2-0.7-0.3-0.9c-0.1-0.2-0.2-0.3-0.4-0.4
		C15.4,11.8,15.5,11.7,15.6,11.7z M19.3,9.6c0.1,0,0.2,0,0.4,0.1C19.9,9.9,20,10,20,10.1c0,0.1,0,0.2,0,0.2c0,0.1-0.1,0.1-0.2,0.2
		c-0.5,0.1-1,0.2-1.6,0.3c-0.4,0.1-0.7,0.1-0.9,0.1c-0.4,0-0.7-0.1-0.9-0.4c-0.1-0.2-0.1-0.3-0.1-0.4c0,0,0,0,0.1,0
		c0.8,0,1.4-0.1,1.8-0.2c0.4-0.1,0.7-0.2,0.9-0.3C19.2,9.6,19.3,9.6,19.3,9.6z M17.2,14c0.3,0,0.6,0,1-0.1c0.4,0,0.8-0.1,1.1-0.1
		c0-0.2,0.1-0.3,0.1-0.6c0-0.3,0.1-0.5,0.1-0.6c0-0.3-0.1-0.4-0.2-0.4c-0.2,0-0.7,0-1.3,0.1c-0.5,0.1-0.8,0.1-1.1,0.1L17.2,14z"/>
	<path class="st11" d="M31.7,7.3c0.2,0,0.4,0.1,0.6,0.2c0.2,0.1,0.3,0.3,0.3,0.5c0,0.2-0.1,0.3-0.2,0.3c-1.1,0-2.2,0.1-3.2,0.2
		c-0.4,0.1-0.9,0.1-1.4,0.3c-0.2,0-0.3,0.1-0.3,0.1c-0.1,1.2-0.3,2.1-0.6,2.9c-0.3,0.7-0.6,1.3-0.9,1.8c-0.3,0.4-0.8,0.8-1.3,1.2
		c-0.1,0-0.1,0-0.2,0v0c0.3-0.4,0.6-0.8,0.8-1.3c0.4-0.8,0.7-1.6,0.8-2.4c0.2-0.8,0.2-1.6,0.2-2.3c0-0.2,0-0.4-0.1-0.5
		C26,8.2,26,8.2,26,8.1c0-0.1,0.1-0.2,0.2-0.2c0.2,0,0.5,0.1,0.9,0.2c0.1,0,0.1,0,0.2,0c0.7-0.1,1.4-0.2,1.9-0.3
		c0.7-0.1,1.4-0.3,2.1-0.5C31.4,7.3,31.5,7.3,31.7,7.3z M29.5,9.4c0.2,0,0.4,0.1,0.6,0.2c0.3,0.2,0.4,0.3,0.4,0.5c0,0,0,0.1-0.1,0.2
		c-0.2,0.1-0.3,0.3-0.5,0.6c-0.5,0.8-1,1.7-1.6,2.6c1-0.1,2-0.3,3-0.5c-0.2-0.4-0.3-0.7-0.4-0.8c-0.2-0.2-0.2-0.4-0.2-0.5
		c0,0,0,0,0,0c0.1,0,0.2,0,0.4,0.1c0.3,0.2,0.6,0.4,0.9,0.6c0.4,0.4,0.6,0.7,0.8,0.9c0.1,0.3,0.1,0.5,0.1,0.8c0,0.1,0,0.2-0.1,0.4
		c-0.1,0.1-0.2,0.2-0.3,0.2c-0.2,0-0.3-0.1-0.3-0.2c-0.1-0.1-0.3-0.4-0.5-0.9c0,0,0-0.1,0-0.1c-0.5,0.1-1,0.2-1.6,0.4
		c-0.7,0.2-1.2,0.4-1.6,0.5c-0.2,0.1-0.3,0.1-0.4,0.2c-0.1,0.1-0.1,0.1-0.2,0.1c-0.2,0-0.4-0.1-0.6-0.4c-0.2-0.3-0.3-0.4-0.3-0.6
		c0-0.1,0-0.2,0.1-0.2c0.3-0.3,0.5-0.5,0.5-0.6c0.2-0.3,0.5-0.8,1-1.7c0.2-0.4,0.4-0.8,0.5-1.3c0-0.1,0-0.2,0-0.5
		C29.3,9.5,29.4,9.4,29.5,9.4z M28.5,5.9c0.2,0,0.5,0.1,0.8,0.2c0.3,0.1,0.5,0.2,0.6,0.3c0.1,0.1,0.2,0.3,0.2,0.4
		c0,0.3-0.2,0.5-0.6,0.5c-0.2,0-0.4-0.2-0.7-0.6C28.6,6.3,28.4,6,28.5,5.9C28.4,5.9,28.5,5.9,28.5,5.9z"/>
	<path class="st11" d="M37.5,7c0.2,0,0.4,0.1,0.7,0.2c0.2,0.1,0.4,0.2,0.4,0.4c0,0,0,0.1-0.1,0.2c-0.1,0-0.1,0.1-0.1,0.1
		c-0.1,0.2-0.2,0.4-0.3,0.6c0.5,0,1-0.1,1.3-0.2c0-0.4,0-0.7,0-1c0-0.3,0-0.5,0-0.6c-0.1-0.2-0.1-0.3-0.2-0.5C39.1,6.2,39,6.1,39,6
		c0-0.2,0.1-0.3,0.2-0.3c0.3,0,0.5,0.1,0.8,0.2c0.4,0.1,0.6,0.3,0.6,0.4c0,0.1,0,0.1,0,0.2c-0.1,0.2-0.2,0.7-0.2,1.6
		c0.3-0.1,0.6-0.2,0.8-0.3c0.1,0,0.2-0.1,0.2-0.1c0.1,0,0.2,0,0.4,0.1C42,8,42.1,8.1,42.1,8.2c0,0.1,0,0.2-0.1,0.2
		c0,0.1-0.1,0.2-0.2,0.2c-0.5,0.1-1,0.3-1.6,0.4c0,0.4,0,0.7,0,1.1c0.9-0.1,1.7-0.3,2.6-0.4c0.3,0,0.6-0.1,0.8-0.1
		c0.2,0,0.4,0.1,0.6,0.2c0.2,0.1,0.3,0.3,0.3,0.5c0,0.2-0.1,0.4-0.2,0.4c-2,0-3.8,0.1-5.5,0.3c-0.8,0.1-1.6,0.2-2.5,0.4
		c-0.3,0.1-0.5,0.1-0.6,0.1c-0.1,0-0.3-0.1-0.5-0.3c-0.2-0.2-0.3-0.3-0.3-0.4c0,0,0,0,0.1,0c1.6-0.2,3-0.3,4.2-0.5h0
		c0-0.4,0-0.8,0.1-1.1c-0.3,0.1-0.5,0.1-0.7,0.1c-0.4,0-0.7-0.1-0.8-0.3c0,0.1-0.1,0.1-0.2,0.2C37.3,9.6,37,9.8,36.8,10
		c-0.1,0.1-0.2,0.2-0.3,0.2c0,0,0,0,0-0.1c0.2-0.5,0.4-0.9,0.6-1.3c0.1-0.3,0.2-0.7,0.3-1c0-0.2,0.1-0.3,0.1-0.4l0-0.2
		C37.3,7.1,37.4,7,37.5,7z M37.2,11.9c0.2,0,0.4,0,0.7,0.1c0,0,0.1,0,0.1,0.1c0.6,0,1.1-0.1,1.5-0.2c0.4-0.1,0.8-0.2,1.2-0.3
		c0.1,0,0.2-0.1,0.3-0.1c0.2,0,0.5,0.1,0.9,0.3c0.5,0.3,0.7,0.5,0.7,0.7c0,0,0,0.1-0.1,0.1c-0.2,0.1-0.3,0.3-0.4,0.5
		c-0.2,0.2-0.3,0.6-0.4,1c0.2,0.3,0.2,0.4,0.2,0.5c0,0-0.1,0.1-0.1,0.1c-0.7,0-1.5,0-2.2,0.1c-0.4,0-0.7,0.1-0.9,0.1
		c-0.1,0.2-0.2,0.3-0.3,0.3c-0.1,0-0.3-0.1-0.4-0.2c-0.1-0.1-0.2-0.2-0.2-0.3c-0.1-0.2-0.2-0.6-0.3-1.2c-0.1-0.4-0.2-0.6-0.3-0.8
		c-0.1-0.2-0.2-0.3-0.3-0.4C37,12,37.1,11.9,37.2,11.9z M38.7,14.1c0.2,0,0.5-0.1,0.8-0.1c0.4,0,0.8-0.1,1.1-0.2
		c0-0.1,0.1-0.3,0.1-0.5c0.1-0.3,0.1-0.5,0.1-0.7c0-0.2-0.1-0.4-0.2-0.4c-0.2,0-0.6,0.1-1.2,0.2c-0.4,0.1-0.8,0.1-1,0.2L38.7,14.1z"
		/>
	<path class="st11" d="M47.8,6.9c0.2,0,0.5,0.1,0.8,0.2C48.8,7.2,49,7.4,49,7.5c0,0.1,0,0.2-0.1,0.3c-0.1,0.1-0.2,0.1-0.2,0.2
		c-0.3,0.6-0.7,1.2-1,1.6c0.4,0.2,0.6,0.4,0.6,0.5c0,0.1,0,0.2-0.1,0.3c-0.1,0.2-0.1,0.3-0.1,0.3l0,3.1c0,0.2-0.1,0.4-0.2,0.5
		c-0.1,0.3-0.2,0.4-0.3,0.4c-0.2,0-0.4-0.3-0.6-0.8C47,13.9,47,13.8,47,13.7c0-0.2,0.1-0.7,0.2-1.5c0-0.3,0.1-0.8,0.1-1.6
		c0-0.2,0-0.3,0-0.4c-0.5,0.6-1,1-1.4,1.3c-0.2,0.2-0.4,0.3-0.5,0.3c0,0,0,0,0-0.1c0.6-0.8,1.1-1.5,1.5-2.2c0.3-0.5,0.5-1.1,0.7-1.6
		c0.1-0.3,0.1-0.6,0.1-0.7l0-0.3C47.6,6.9,47.7,6.9,47.8,6.9z M52.7,8.7c0.2,0,0.3,0.1,0.6,0.2c0.2,0.1,0.3,0.3,0.3,0.4
		c0,0.1-0.1,0.2-0.3,0.2c-0.3,0-0.6,0.1-0.9,0.2c-0.3,0.1-0.6,0.2-0.9,0.3c0.1,0.3,0.2,0.6,0.3,0.8c0.2,0.6,0.5,1.2,0.9,1.7
		c0.3,0.4,0.5,0.7,0.9,0.9c0.3,0.3,0.5,0.4,0.7,0.4c0,0,0,0,0.1-0.1c0.1-0.3,0.2-0.7,0.3-1.2c0,0,0-0.1,0-0.1c0.1,0,0.2,0.1,0.2,0.2
		c0,0.2,0,0.4,0,0.6c0,0.6,0.1,1,0.2,1.2c0.1,0.1,0.1,0.2,0.1,0.3c0,0.3-0.1,0.4-0.3,0.4c-0.2,0-0.5-0.1-0.9-0.2
		c-0.3-0.1-0.7-0.3-1-0.6c-0.4-0.4-0.7-0.7-0.9-1.1c-0.4-0.5-0.7-1.1-0.9-1.7c-0.1-0.3-0.3-0.7-0.4-1.2c-0.4,0.1-0.8,0.2-1.2,0.3
		c-0.1,0-0.1,0.1-0.2,0.1c-0.1,0-0.2-0.1-0.4-0.2c-0.1-0.1-0.2-0.1-0.2-0.2c0-0.1,0-0.2,0-0.2c0.6-0.2,1.1-0.3,1.7-0.5
		c-0.1-0.6-0.2-1.2-0.3-1.9c0-0.3-0.1-0.5-0.1-0.7c-0.1-0.3-0.1-0.5-0.2-0.7c0,0-0.1-0.1-0.1-0.2c0-0.1,0.1-0.1,0.2-0.1
		c0.3,0,0.6,0.1,0.9,0.2c0.3,0.1,0.4,0.2,0.4,0.3c0,0.1,0,0.2,0,0.2c0,0.1-0.1,0.2-0.1,0.3c0,0.7,0.1,1.4,0.2,1.9c0,0.1,0,0.2,0,0.3
		C51.5,9.1,51.8,9,52,8.9C52.3,8.8,52.5,8.7,52.7,8.7z M52.2,6.9c0.1,0,0.3,0,0.5,0c0.4,0.1,0.8,0.2,1,0.3C53.9,7.4,54,7.5,54,7.8
		c0,0.1-0.1,0.2-0.2,0.4c-0.2,0.1-0.3,0.2-0.5,0.2c-0.1,0-0.2,0-0.3-0.1c-0.2-0.2-0.5-0.5-0.8-1.1C52.2,7,52.1,7,52.2,6.9
		C52.1,6.9,52.2,6.9,52.2,6.9z"/>
	<path class="st11" d="M58.7,7.1c0.1,0,0.2,0,0.3,0.1c0.2,0.1,0.3,0.2,0.3,0.3c0,0.1,0,0.2,0,0.2c0,0.1-0.1,0.1-0.1,0.1
		C58.9,7.9,58.6,8,58.4,8c0.1,0.1,0.1,0.1,0.1,0.2c0,0,0,0.1,0,0.1c0,0.1-0.1,0.4-0.1,0.8v0.2c0.1,0,0.1,0,0.1,0
		c0.5,0,0.7,0.2,0.7,0.5c0,0.1,0,0.1-0.1,0.2c-0.3,0.1-0.5,0.2-0.8,0.2l0,1.7c0.3-0.1,0.6-0.2,0.9-0.3c0.3-0.1,0.4-0.1,0.5-0.1
		c0.1,0,0.2,0.1,0.2,0.2c0,0,0,0.1-0.1,0.1c-0.3,0.2-0.8,0.5-1.5,0.9c-0.4,0.2-0.8,0.5-1.3,0.8c-0.1,0.1-0.1,0.1-0.2,0.1
		c-0.1,0-0.2-0.1-0.5-0.4C56,12.8,56,12.6,56,12.5c0-0.1,0-0.1,0.1-0.1c0.2,0,0.3,0,0.5-0.1c0.3-0.1,0.6-0.1,1-0.3l-0.1-1.7
		c-0.2,0-0.4,0.1-0.5,0.1c-0.2,0-0.3-0.1-0.4-0.2c-0.1-0.1-0.2-0.2-0.2-0.3c0,0,0-0.1,0.1-0.1c0.3-0.1,0.6-0.2,0.9-0.3v0
		c0-0.4,0-0.8-0.1-1.2c0-0.1,0-0.1,0-0.2c-0.4,0-0.6-0.1-0.8-0.3c-0.1-0.1-0.1-0.2-0.1-0.3c0-0.1,0-0.1,0.1-0.1c0.6,0,1-0.1,1.4-0.2
		c0.3-0.1,0.5-0.1,0.7-0.2C58.6,7.1,58.6,7.1,58.7,7.1z M59.4,6.9c0.2,0,0.4,0,0.6,0.1c0.1,0,0.2,0.1,0.2,0.1c1-0.1,2.2-0.3,3.5-0.6
		c0.1,0,0.4,0.1,0.8,0.3c0.5,0.3,0.7,0.5,0.7,0.6c0,0.1,0,0.1-0.1,0.2c-0.2,0.3-0.3,0.6-0.5,1c-0.1,0.5-0.2,1-0.4,1.6
		c-0.1,0.2-0.2,0.3-0.4,0.4c-0.1,0.1-0.2,0.1-0.3,0.1c-0.1,0-0.1,0-0.2-0.1c0,0,0,0,0,0c-0.4,0-0.7,0-1.1,0.1l0,1
		c0.2-0.1,0.5-0.1,0.7-0.2c0.1,0,0.1,0,0.2,0c0.1,0,0.2,0,0.3,0.1c0.2,0.1,0.3,0.3,0.3,0.4c0,0.1,0,0.2-0.1,0.2
		c0,0.1-0.1,0.1-0.2,0.2c-0.4,0.1-0.8,0.2-1.3,0.2l0,1c0.9-0.1,1.7-0.2,2.2-0.3c0.1,0,0.1,0,0.2,0c0.2,0,0.4,0.1,0.7,0.2
		c0.2,0.2,0.4,0.4,0.4,0.6c0,0.2-0.1,0.3-0.2,0.3c-0.2,0-0.4,0-0.8-0.1c-0.2,0-0.5-0.1-0.6-0.1c-1.1,0-2,0-2.6,0.1
		c-0.6,0-1.1,0.1-1.7,0.2c-0.1,0-0.2,0.1-0.4,0.1c-0.2,0-0.3-0.1-0.5-0.3c-0.2-0.2-0.2-0.3-0.2-0.4c0-0.1,0-0.1,0.1-0.1
		c0.4,0,1.4-0.1,2.8-0.2c0,0,0.1,0,0.1,0l0-0.9c-0.1,0-0.2,0-0.3,0c-0.4,0-0.7-0.1-0.8-0.4C60.1,12.1,60,12,60,11.9
		c0-0.1,0-0.1,0.1-0.1c0.5,0,0.9-0.1,1.2-0.1l0-1.1c-0.3,0-0.6,0.1-0.6,0.1c-0.1,0.1-0.1,0.1-0.2,0.1c-0.1,0-0.2-0.1-0.3-0.2
		c-0.1-0.1-0.1-0.2-0.1-0.3c-0.1-0.3-0.2-0.9-0.2-1.6c-0.1-0.5-0.1-0.8-0.2-1.1c-0.1-0.2-0.2-0.4-0.3-0.5C59.3,7,59.4,6.9,59.4,6.9z
		 M60.8,10.3c0.2,0,0.4,0,0.6-0.1l0-0.7V9.2h-0.1c-0.2,0-0.3,0-0.4-0.1c-0.1-0.1-0.1-0.2-0.1-0.3c0,0,0-0.1,0.1-0.1
		c0.2,0,0.4-0.1,0.5-0.1c0-0.2,0-0.4,0-0.6c0-0.2,0-0.3-0.1-0.4c-0.3,0-0.5,0-0.7,0.1L60.8,10.3z M62.3,7.4c0.1,0.1,0.2,0.1,0.2,0.2
		c0,0,0,0.1,0,0.2c0,0.1-0.1,0.3-0.1,0.5c0,0,0.1,0,0.1,0c0.5,0,0.7,0.2,0.7,0.5c0,0.1,0,0.1-0.1,0.1C62.8,9,62.5,9,62.3,9.1l0,1
		c0.3,0,0.5-0.1,0.7-0.1c0.1,0,0.2,0,0.2,0c0,0,0.1,0,0.1,0c0.1-0.5,0.3-1,0.3-1.5c0.1-0.4,0.1-0.7,0.1-1c0-0.2-0.1-0.2-0.2-0.2
		C63,7.3,62.6,7.3,62.3,7.4z"/>
	<path class="st11" d="M73.7,6.9c0.2,0,0.4,0.1,0.6,0.2c0.2,0.1,0.3,0.3,0.3,0.5s-0.1,0.3-0.2,0.3c-1.1,0-2.1,0.1-3.1,0.2
		c-0.4,0.1-0.9,0.1-1.4,0.3c-0.1,0-0.2,0.1-0.3,0.1c-0.1,1.2-0.3,2.2-0.6,3c-0.3,0.7-0.6,1.4-1,1.9c-0.4,0.5-0.8,0.9-1.4,1.3
		c0,0-0.1,0.1-0.2,0.1v0c0.4-0.4,0.6-0.9,0.9-1.4c0.4-0.8,0.7-1.7,0.9-2.6c0.2-0.8,0.2-1.7,0.2-2.5c0-0.2,0-0.4-0.1-0.5
		c-0.1-0.1-0.1-0.2-0.1-0.2c0-0.1,0.1-0.2,0.2-0.2c0.2,0,0.5,0,0.9,0.1c0.2,0,0.3,0.1,0.3,0.1c0.6-0.1,1.1-0.2,1.6-0.3
		c0.6-0.1,1.3-0.3,2-0.5C73.4,6.9,73.6,6.9,73.7,6.9z M71.3,8.3c0.3,0,0.5,0.1,0.8,0.2c0.4,0.1,0.6,0.3,0.6,0.4c0,0.1,0,0.1,0,0.2
		c-0.1,0.1-0.1,0.5-0.2,0.9c0.3-0.1,0.6-0.2,0.9-0.4c0.3-0.1,0.5-0.2,0.6-0.2c0.5,0,0.7,0.2,0.7,0.6c0,0.2-0.1,0.3-0.3,0.3
		c-0.3,0-0.6,0.1-1,0.2c-0.3,0.1-0.5,0.1-0.8,0.1h-0.1c0,0.4-0.1,0.8-0.1,1.3c0.3-0.1,0.6-0.2,0.9-0.3c0.1-0.1,0.3-0.1,0.4-0.1
		c0.2,0,0.5,0.1,0.9,0.3c0.5,0.3,0.7,0.5,0.7,0.7c0,0,0,0.1-0.1,0.1c-0.2,0.1-0.3,0.3-0.4,0.4c-0.2,0.3-0.3,0.6-0.4,1l0,0
		c0.2,0.2,0.3,0.4,0.3,0.5c0,0-0.1,0.1-0.1,0.1c-0.8,0-1.6,0-2.4,0.1c-0.5,0.1-0.8,0.1-1,0.1c-0.1,0.2-0.2,0.3-0.3,0.3
		c-0.2,0-0.3-0.1-0.4-0.2c-0.1-0.1-0.2-0.2-0.2-0.3c-0.1-0.2-0.2-0.7-0.3-1.3c-0.1-0.4-0.2-0.7-0.3-0.9c-0.1-0.2-0.2-0.3-0.3-0.4
		c0-0.2,0.1-0.2,0.2-0.2c0.2,0,0.5,0,0.8,0.1c0.1,0.1,0.2,0.1,0.3,0.2c0.3,0,0.6,0,0.9-0.1c0-0.8,0-1.4,0-1.9c0-0.6,0-0.9-0.1-1.1
		c-0.1-0.2-0.1-0.3-0.2-0.4c-0.1-0.1-0.1-0.2-0.1-0.2C71.1,8.4,71.2,8.3,71.3,8.3z M70.9,5.7c0.2,0,0.5,0.1,0.8,0.2
		C72,5.9,72.2,6,72.3,6.1c0.1,0.1,0.2,0.2,0.2,0.4c0,0.4-0.2,0.6-0.7,0.6c-0.2,0-0.4-0.2-0.6-0.5c-0.3-0.4-0.4-0.6-0.4-0.7
		C70.8,5.7,70.8,5.7,70.9,5.7z M71.1,14.3c0.3,0,0.6-0.1,1-0.1c0.5-0.1,0.9-0.1,1.2-0.2c0.1-0.2,0.1-0.4,0.1-0.6
		c0.1-0.3,0.1-0.5,0.1-0.6c0-0.2-0.1-0.4-0.2-0.4c-0.2,0-0.7,0.1-1.4,0.2c-0.5,0.1-0.9,0.2-1.1,0.2L71.1,14.3z"/>
</g>
<g>
	<path class="st11" d="M6.6,27.6c0.1,0,0.3,0.1,0.6,0.2c0.3,0.2,0.5,0.4,0.5,0.6c0,0.2,0,0.3-0.1,0.4c-0.1,0.1-0.1,0.2-0.3,0.3
		c-0.5,0.2-1.1,0.3-1.6,0.4c0,0.5,0,1.1,0,1.5v0.4c0.3,0.1,0.7,0.2,1,0.3c0.4,0.2,0.7,0.3,0.9,0.5c0.1,0.1,0.2,0.3,0.2,0.4
		c0,0.2-0.1,0.5-0.3,0.7c-0.2,0.2-0.4,0.3-0.6,0.3c-0.3,0-0.5-0.1-0.6-0.4c-0.1-0.1-0.2-0.3-0.4-0.6c-0.1-0.1-0.1-0.2-0.1-0.3
		l0.1,6.4c0,0.3-0.1,0.6-0.4,0.9c-0.2,0.4-0.4,0.6-0.7,0.6c-0.3,0-0.5-0.2-0.7-0.7c-0.2-0.3-0.3-0.7-0.3-1.2c0.2-1,0.3-2,0.4-3
		c0.1-0.7,0.2-1.8,0.2-3.2c-0.1,0.2-0.2,0.4-0.3,0.6c-0.5,0.9-0.9,1.6-1.4,2.2c-0.5,0.5-0.9,0.9-1.3,1.3c-0.4,0.2-0.6,0.4-0.7,0.4
		H0.5C1,36,1.3,35.4,1.6,34.9c0.6-1,1-2,1.4-2.9c0.3-0.8,0.6-1.5,0.7-2c-0.5,0.1-0.9,0.1-1.2,0.1c-0.7,0-1.2-0.2-1.4-0.6
		c-0.2-0.2-0.3-0.4-0.3-0.5c0-0.1,0.1-0.1,0.2-0.1c1.4-0.1,2.6-0.3,3.4-0.5c0-2.3-0.1-3.6-0.2-4c-0.1-0.5-0.3-1-0.5-1.5
		c0-0.1,0.1-0.2,0.2-0.2c0.5,0,1,0.1,1.6,0.4C6,23.4,6.3,23.7,6.3,24c0,0.1,0,0.3-0.1,0.5c-0.1,1.3-0.2,2.4-0.3,3.5
		c0.2-0.1,0.3-0.1,0.4-0.2C6.4,27.7,6.5,27.6,6.6,27.6z M8.8,24.9c0.3,0,0.7,0.1,1.2,0.2c0.5,0.2,0.8,0.3,0.8,0.5c0,0,0,0.1-0.1,0.1
		c-0.1,0.1-0.1,0.1-0.1,0.2c-0.2,0.6-0.3,1-0.5,1.4c0.5-0.1,1-0.1,1.4-0.2c0-2.1-0.1-3.3-0.3-3.5c-0.1-0.3-0.2-0.5-0.3-0.7
		c-0.1-0.1-0.1-0.2-0.1-0.3c0-0.2,0.1-0.3,0.4-0.3c0.5,0,1,0.1,1.5,0.2c0.5,0.1,0.8,0.4,0.8,0.6c0,0.2,0,0.3-0.1,0.4
		c-0.1,0.3-0.2,0.6-0.3,1c-0.1,0.3-0.1,1-0.2,2.1c0.5-0.2,0.9-0.3,1.2-0.5c0.1-0.1,0.2-0.1,0.4-0.1c0.1,0,0.3,0,0.5,0.1
		c0.3,0.2,0.4,0.4,0.4,0.6c0,0.1,0,0.3-0.1,0.4c-0.1,0.1-0.1,0.2-0.2,0.3c-0.7,0.2-1.5,0.4-2.3,0.6v1.8c0.5-0.1,1-0.2,1.5-0.4
		c0.5-0.1,0.9-0.2,1.3-0.2c0.3,0,0.7,0.1,1.1,0.3c0.5,0.4,0.7,0.7,0.7,1c0,0.1-0.1,0.2-0.2,0.4c-0.1,0.1-0.2,0.2-0.4,0.2
		c-1.4,0-2.7,0-3.8,0.1c0.1,0.1,0.2,0.3,0.3,0.4c0.7,1.1,1.3,2,2,2.7c0.7,0.8,1.8,1.6,3.4,2.5v0.1c0,0.1-0.1,0.1-0.4,0.1
		c-1.1,0.2-2.1,0.3-3,0.3c-0.2,0-0.4-0.1-0.4-0.2c-0.5-0.9-1.2-2.3-2-4.3c-0.1-0.2-0.1-0.3-0.2-0.5c0,1.7,0.1,3.6,0.2,5.8
		c0,0.7-0.1,1.1-0.4,1.4c-0.2,0.4-0.5,0.5-0.7,0.5c-0.2,0-0.5-0.3-0.9-1c-0.1-0.3-0.2-0.5-0.2-0.7c0-0.3,0-0.6,0.1-0.8
		c0.1-0.2,0.1-0.5,0.1-1c0.1-0.7,0.1-1.8,0.2-3.1c-0.3,0.5-0.6,0.9-1,1.3c-0.6,0.7-1.2,1.3-1.9,1.7c-0.6,0.4-1.3,0.7-2.1,1v-0.2
		c0.3-0.2,0.6-0.5,0.9-0.8C8,36.2,8.6,35.6,9,35c0.6-0.7,1.1-1.7,1.7-2.9c0.1-0.1,0.1-0.3,0.2-0.4c-0.7,0.1-1.5,0.3-2.4,0.5
		c-0.1,0-0.1,0-0.2,0c-0.2,0-0.4-0.2-0.7-0.5c-0.2-0.3-0.4-0.5-0.4-0.6c0-0.1,0-0.1,0.1-0.1c0.9-0.2,1.6-0.3,2.2-0.4
		c0.6-0.1,1.2-0.2,2-0.3h0v-1.8c-0.3,0.1-0.6,0.1-0.8,0.1c-0.5,0-0.9-0.1-1.1-0.3c-0.2,0.4-0.4,0.7-0.7,1c-0.3,0.3-0.6,0.5-1,0.6
		c0.1-0.4,0.2-0.6,0.2-0.7c0.1-0.3,0.2-0.7,0.3-1.1c0.1-0.5,0.2-1,0.2-1.7c0-0.2,0-0.4,0-0.5c0-0.2,0-0.4-0.1-0.6
		c-0.1-0.1-0.1-0.2-0.1-0.3C8.5,25,8.6,24.9,8.8,24.9z"/>
	<path class="st11" d="M28,31c1,0,1.4,0.3,1.4,1c0,0.1-0.1,0.2-0.3,0.3c-0.6,0.1-1.1,0.2-1.6,0.4c0.1,0.1,0.2,0.1,0.2,0.2
		c0,0.1,0,0.1,0,0.2c-0.1,0.3-0.3,1.2-0.4,2.7c0.6-0.2,1.1-0.4,1.7-0.6c0.5-0.2,0.9-0.3,1-0.3c0.3,0,0.5,0.1,0.5,0.3
		c0,0.1-0.1,0.1-0.3,0.3c-0.7,0.5-1.7,1.1-3.2,1.9c-0.8,0.4-1.7,1-2.8,1.7c-0.1,0.1-0.2,0.2-0.4,0.2c-0.2,0-0.5-0.3-1-0.8
		c-0.4-0.6-0.6-1-0.6-1.2c0-0.1,0.1-0.2,0.2-0.2c0.4,0,0.7-0.1,1-0.2c0.6-0.2,1.4-0.4,2.2-0.6c0-0.9,0-1.6,0-2.1c0-0.5,0-0.9-0.1-1
		c0,0,0-0.1,0-0.1c-0.8,0.1-1.4,0.2-1.6,0.2c-0.3,0-0.6-0.1-0.8-0.3c-0.2-0.2-0.3-0.4-0.3-0.6c0-0.1,0.1-0.1,0.2-0.1
		c1.5-0.3,3-0.6,4.3-1.1C27.7,31.1,27.9,31,28,31z M33.9,26.3c0.1,0,0.4,0.1,0.7,0.2c0.4,0.3,0.6,0.5,0.6,0.7c0,0.2,0,0.3-0.1,0.5
		C35,27.9,34.9,28,34.8,28c-1.1,0.3-2.2,0.6-3.3,0.8C31.7,30,32,31,32.3,32c0.4,1.3,1,2.4,1.6,3.3c0.5,0.7,1,1.3,1.6,1.8
		c0.6,0.5,1,0.8,1.3,0.8c0.1,0,0.1-0.1,0.2-0.3c0.2-0.7,0.5-1.4,0.7-2.4c0-0.1,0.1-0.1,0.1-0.1c0.1,0,0.2,0.1,0.2,0.4
		c0,0.3,0,0.6,0,0.9c0,1.4,0.1,2.3,0.2,2.6c0.1,0.2,0.2,0.3,0.2,0.5c0,0.5-0.2,0.8-0.5,0.8c-0.5,0-1-0.1-1.8-0.4
		c-0.6-0.3-1.2-0.7-1.8-1.2c-0.7-0.7-1.3-1.4-1.8-2.1c-0.7-1-1.2-2.2-1.6-3.4c-0.4-1-0.7-2.3-1-4c-0.6,0.1-1.1,0.2-1.7,0.3
		c-1.6,0.3-2.8,0.5-3.5,0.5c-0.8,0-1.4-0.2-1.7-0.7c-0.2-0.3-0.3-0.5-0.3-0.6c0-0.1,0.1-0.1,0.2-0.1c2.8-0.2,5.1-0.5,6.7-0.8
		c-0.1-0.7-0.2-1.4-0.3-2.1c-0.1-0.6-0.1-1-0.2-1.4c-0.1-0.5-0.3-0.9-0.5-1.3c-0.1-0.1-0.1-0.2-0.1-0.4c0-0.2,0.1-0.2,0.4-0.2
		c0.6,0,1.1,0.1,1.7,0.4c0.5,0.2,0.7,0.4,0.7,0.6c0,0.2,0,0.3-0.1,0.4c-0.1,0.2-0.1,0.4-0.1,0.6c0,1.1,0.1,2.1,0.2,2.9
		c0.7-0.2,1.4-0.5,2-0.7C33.5,26.4,33.7,26.3,33.9,26.3z M32.8,23.3c0.2,0,0.5,0,0.8,0.1c0.8,0.2,1.4,0.4,1.8,0.6
		c0.3,0.2,0.5,0.6,0.5,1c0,0.2-0.1,0.4-0.3,0.6c-0.2,0.2-0.5,0.3-0.8,0.3c-0.2,0-0.3-0.1-0.5-0.3c-0.4-0.3-0.9-0.9-1.5-1.9
		c-0.1-0.1-0.1-0.2-0.1-0.2C32.6,23.3,32.7,23.3,32.8,23.3z"/>
	<path class="st11" d="M47.6,22.6c0.5,0,1.1,0.2,1.7,0.5c0.5,0.1,0.7,0.4,0.7,0.6c0,0.1-0.1,0.2-0.2,0.2c-0.1,0.1-0.2,0.3-0.4,0.6
		c0,0,0,0,0,0c0.3,0.2,0.6,0.5,0.9,0.8c1,1.2,2,2.2,3,2.9c1,0.8,2.7,1.8,5,2.8v0.2c0,0.1-0.1,0.1-0.4,0.2c-1.3,0.2-2.5,0.3-3.5,0.3
		c-0.4,0-0.6-0.1-0.8-0.2c-0.9-1-2.1-2.5-3.5-4.7c-0.3-0.4-0.6-0.8-1-1.3c-0.1-0.1-0.2-0.2-0.2-0.3c-0.7,1.1-1.5,2-2.3,2.9
		c-1,1.2-2.1,2.2-3.3,2.9c-1,0.7-1.9,1.2-2.8,1.5c-0.4,0.2-0.6,0.3-0.7,0.3v-0.1c1.5-1.2,2.7-2.3,3.8-3.5c0.7-0.8,1.4-1.7,2.1-2.6
		c0.6-0.8,1.1-1.7,1.4-2.5c0.1-0.3,0.2-0.6,0.2-0.8c-0.1-0.2-0.1-0.5-0.1-0.7C47.3,22.6,47.4,22.6,47.6,22.6z M53.1,32.3
		c0.3,0,0.6,0.1,1,0.4c0.3,0.2,0.5,0.5,0.5,0.8c0,0.4-0.1,0.6-0.3,0.6c-2,0-3.8,0.1-5.5,0.3c0.3,0.2,0.5,0.3,0.5,0.5
		c0,0.1-0.1,0.3-0.3,0.5c-0.2,0.2-0.4,0.3-0.6,0.5c-0.5,0.6-1.1,1.2-1.7,1.9c1.2-0.1,2.8-0.4,4.7-0.6c-0.3-0.5-0.4-0.9-0.5-1
		c-0.2-0.3-0.3-0.5-0.3-0.7c0-0.1,0-0.1,0.1-0.1c0.1,0,0.3,0,0.6,0.1c0.5,0.2,1,0.5,1.5,0.8c0.6,0.5,1.1,0.9,1.3,1.3
		c0.2,0.3,0.2,0.7,0.2,1.1c0,0.2-0.1,0.5-0.2,0.8c-0.2,0.2-0.4,0.3-0.6,0.3c-0.3,0-0.6-0.1-0.7-0.4c-0.2-0.2-0.4-0.6-0.8-1.3
		c0-0.1,0-0.1-0.1-0.1c-0.1,0-0.1,0-0.2,0.1c-3.8,0.9-6.1,1.4-6.9,1.7c-0.5,0-0.8-0.2-0.8-0.7c0-0.4,0-0.7,0.1-1
		c0.1-0.4,0.2-0.6,0.5-0.6c0.1-0.1,0.3-0.1,0.4-0.2c0.1-0.1,0.3-0.3,0.6-0.6c0.2-0.3,0.4-0.6,0.6-0.9c0.2-0.3,0.3-0.6,0.4-0.9
		c0.1-0.2,0.1-0.3,0.1-0.4c-0.7,0.1-1.5,0.2-2.3,0.4c-0.4,0.1-0.6,0.1-0.8,0.1c-0.2,0-0.5-0.2-0.8-0.5c-0.3-0.3-0.4-0.5-0.4-0.7
		c0-0.1,0-0.1,0.1-0.1c2-0.2,3.8-0.5,5.2-0.7c1.4-0.2,2.9-0.4,4.4-0.7C52.4,32.4,52.8,32.3,53.1,32.3z M50.2,29.4
		c0.1,0,0.3,0.1,0.6,0.2c0.4,0.2,0.5,0.5,0.5,0.7c0,0.2,0,0.3-0.1,0.4c-0.1,0.2-0.2,0.3-0.3,0.3c-0.8,0.2-1.6,0.4-2.4,0.5
		c-0.6,0.1-1,0.2-1.3,0.2c-0.8,0-1.4-0.2-1.6-0.6c-0.2-0.3-0.3-0.5-0.3-0.6c0-0.1,0.1-0.2,0.2-0.2c1.2-0.1,2.2-0.2,2.9-0.4
		c0.6-0.1,1.1-0.3,1.5-0.5C50,29.4,50.1,29.4,50.2,29.4z"/>
	<path class="st11" d="M65.5,27.2c0.2,0,0.6,0.1,1.2,0.4c0.7,0.4,1.1,0.8,1.1,1.1c0,0.1-0.1,0.2-0.3,0.3c-0.7,0.4-1.1,0.7-1.2,0.9
		c-0.6,0.8-1.1,1.5-1.6,2c0.7,0.4,1,0.6,1,0.8c0,0.1,0,0.3-0.1,0.5c-0.1,0.4-0.2,0.5-0.2,0.6l0.2,4.4c0,0.3-0.1,0.6-0.3,1
		c-0.2,0.4-0.4,0.7-0.6,0.7c-0.4,0-0.7-0.4-1-1.3c-0.1-0.2-0.2-0.4-0.2-0.6c0-0.3,0.1-1,0.4-2.3c0.1-0.4,0.1-1.2,0.1-2.2
		c0-0.3,0-0.5-0.1-0.7c-0.1,0.1-0.2,0.2-0.3,0.3c-0.9,1-1.9,1.7-3,2.3c-0.4,0.2-0.7,0.4-0.8,0.4c0,0,0,0-0.1-0.1
		c0,0,0.1-0.1,0.2-0.3c1-1,1.8-1.8,2.3-2.5c0.9-1.1,1.7-2.2,2.4-3.5c0.1-0.1,0.1-0.2,0.1-0.3c0-0.1-0.1-0.2-0.2-0.2
		c-1.7,0.7-2.6,1-2.9,1c-0.3,0-0.6-0.2-1-0.5c-0.2-0.3-0.3-0.5-0.3-0.6c0-0.2,0.1-0.3,0.2-0.3c1.2-0.1,2.1-0.1,2.7-0.3
		c0.6-0.1,1.3-0.4,2.1-0.9C65.4,27.3,65.5,27.3,65.5,27.2z M63.4,23.1c0.2,0,0.5,0,0.8,0.1c0.8,0.2,1.4,0.4,1.8,0.6
		c0.3,0.2,0.5,0.5,0.5,0.9c0,0.2-0.1,0.5-0.4,0.7c-0.3,0.2-0.6,0.3-0.9,0.3c-0.2,0-0.4-0.1-0.5-0.3c-0.3-0.3-0.8-1-1.4-2
		c-0.1-0.1-0.1-0.2-0.1-0.2C63.3,23.2,63.3,23.1,63.4,23.1z M65.5,31.2c0.2,0,0.4,0,0.6,0.1c0.5,0.2,0.9,0.3,1.2,0.6
		c0.2,0.2,0.4,0.5,0.4,0.9c0,0.2-0.1,0.3-0.3,0.5c-0.2,0.2-0.4,0.2-0.6,0.2c-0.1,0-0.2-0.1-0.4-0.3c-0.2-0.3-0.6-0.9-1-1.7
		c-0.1-0.1-0.1-0.2-0.1-0.2C65.4,31.3,65.4,31.2,65.5,31.2z M74.8,28.7c0.1,0,0.4,0.1,0.7,0.2c0.4,0.3,0.6,0.5,0.6,0.7
		c0,0.2,0,0.3-0.1,0.4c-0.1,0.2-0.2,0.3-0.3,0.3c-0.9,0.3-1.9,0.6-2.8,0.8l-0.1,3.8c1.1-0.2,2.1-0.4,2.8-0.6c0.1,0,0.2,0,0.2,0
		c0.4,0,0.9,0.2,1.5,0.5c0.5,0.4,0.8,0.9,0.8,1.3c0,0.5-0.2,0.7-0.5,0.7c-0.4,0-1-0.1-1.9-0.2c-0.5-0.1-1-0.2-1.4-0.2
		c-1.5,0-2.7,0.1-3.6,0.3c-0.8,0.1-1.5,0.4-2.3,0.7c-0.2,0.1-0.3,0.2-0.5,0.2c-0.4,0-0.8-0.2-1.2-0.6c-0.4-0.4-0.5-0.7-0.5-0.8
		c0-0.1,0.1-0.2,0.2-0.2c0.7,0,2.1-0.2,4.3-0.5c0.1,0,0.2,0,0.4-0.1l0-3.7c-0.5,0.1-0.9,0.1-1.2,0.1c-0.8,0-1.4-0.2-1.7-0.7
		c-0.2-0.3-0.3-0.5-0.3-0.6c0-0.1,0.1-0.1,0.2-0.1c1.1-0.1,2.1-0.2,2.9-0.4v-1.4c0-1.1-0.1-2.1-0.2-3c0-0.4-0.1-0.8-0.4-1.2
		c0-0.1,0-0.1,0-0.2c0-0.2,0.2-0.3,0.5-0.3c0.5,0,1,0.1,1.6,0.3c0.6,0.3,0.9,0.5,0.9,0.7c0,0.1,0,0.2-0.1,0.3
		c-0.1,0.4-0.2,1.1-0.3,2.3l0,2c0.6-0.2,1.1-0.4,1.5-0.6C74.6,28.7,74.7,28.7,74.8,28.7z"/>
	<path class="st11" d="M104.6,34.6c0,2.1-1.3,4.1-4,5.8c-2.3,1.5-5,2.3-8,2.4c3-1.3,5.2-2.7,6.5-4.2c1.2-1.4,1.8-2.7,1.9-4
		c0-1.4-0.4-2.4-1.2-3.1c-0.6-0.4-1.3-0.7-2-0.8c-0.8,2.4-2.3,4.6-4.7,6.7c0.3,0.5,0.6,0.9,1.1,1.3c0.3,0.4,0.5,0.7,0.5,0.9
		c-0.1,1-0.6,1.4-1.7,1.4c-0.6-0.1-1.1-0.5-1.7-1.3c-0.2-0.3-0.4-0.5-0.5-0.7c-1.7,1-3.2,1.6-4.4,1.5c-2.1,0-3.1-1.2-3.1-3.4
		c0-1.3,0.6-2.7,1.9-4.1c0.8-0.8,1.8-1.5,3-2.2c0-1.1,0.2-2.6,0.6-4.6c-0.6,0-1.3-0.2-2-0.4c-0.9-0.4-1.4-0.8-1.4-1.3
		c0-0.4,0.6-0.6,1.7-0.7c0.8,0,1.5-0.1,2.3-0.1l0.8-4.1c0-0.6-0.1-1-0.4-1.4c-0.3-0.3-0.4-0.5-0.4-0.7c0-0.3,0.4-0.4,1.2-0.4
		c0.4,0,1.1,0.4,2,1.1c0.9,0.8,1.4,1.4,1.5,1.9c-0.1,0.2-0.2,0.4-0.5,0.8c-0.3,0.2-0.6,0.9-0.9,2.1c0.2,0,0.4-0.1,0.8-0.2
		c2.4-0.6,3.8-1,4-1c0.5,0,1,0.1,1.5,0.3c0.5,0.4,0.8,0.8,0.8,1.2c-0.1,0.5-1.5,1.1-4.3,1.8c-1.5,0.4-2.7,0.6-3.7,0.8
		c-0.3,1.3-0.5,2.5-0.6,3.5c1.4-0.5,2.8-0.8,4.3-0.9c0-0.4-0.1-0.7-0.1-0.9c-0.1-0.2-0.1-0.4-0.1-0.5c0-0.5,0.3-0.8,0.8-0.8
		c0.4,0,0.9,0.3,1.4,0.9c0.3,0.3,0.4,0.8,0.5,1.4c1.6,0.2,2.9,0.7,4,1.4C103.7,31.2,104.6,32.8,104.6,34.6z M89.7,37.2
		c-0.8-1.5-1.2-2.9-1.4-4.1c-1.9,1.4-2.9,2.7-2.9,3.9c0,0.9,0.4,1.4,1.3,1.4C87.4,38.5,88.4,38.1,89.7,37.2z M95.1,30.6
		c-1.3,0.2-2.6,0.5-3.9,1c0.1,1.4,0.4,2.7,0.9,3.7C93.4,34,94.4,32.4,95.1,30.6z"/>
	<path class="st11" d="M131.3,25.3c-0.1,0.5-0.6,0.8-1.6,0.8c-0.3,0-1.1-0.1-2.2-0.2c-0.6,0-1.5-0.1-2.7-0.1c-0.7,0-1.5,0-2.4,0.1
		c0,0.2,0,0.5,0,0.9c0,0.5,0,0.8,0,0.9c-0.1,4.7-0.3,7.6-0.8,8.6c-0.1,1.4-0.8,2.9-2,4.3c-1.2,1.4-3.1,2.4-5.7,3.1
		c1.6-1.1,2.9-2.5,3.8-4.2c0.6-1.2,0.9-2.1,1-2.6c0-0.6-0.9-1.3-2.7-2c-2-0.9-3-1.6-3-2.2c0-0.8,0.6-1.6,1.7-2.5
		c1.3-1,2.5-1.5,3.7-1.5c0.3,0,0.6,0.1,1.1,0.2v-2.7h-0.1c-1.8,0.2-3.5,0.6-5.2,1.1c-3.1,0.9-4.8,1.4-5.3,1.4
		c-0.6,0-1.4-0.3-2.3-0.8c-0.9-0.6-1.3-1.1-1.3-1.7c0-0.3,0.8-0.4,2.3-0.5c0.7,0,3.9-0.5,9.4-1.4c0.9-0.2,1.7-0.3,2.4-0.4
		c0-2.9-0.2-4.6-0.3-5c-0.2-0.3-0.3-0.5-0.3-0.7c0-0.6,0.3-0.9,0.9-0.9c0.8,0,1.6,0.2,2.5,0.6c0.7,0.4,1.1,0.8,1.1,1.3
		c-0.1,0.3-0.3,0.7-0.6,1.2c-0.1,0.1-0.2,1.1-0.2,3c2.7-0.4,4.3-0.6,5-0.6c0.9,0,1.7,0.3,2.5,1C130.8,24.4,131.2,24.9,131.3,25.3z
		 M119.2,32.9c0-1.1-0.1-1.8-0.4-2.2c-0.2-0.2-0.5-0.3-0.9-0.3c-0.4,0-0.9,0.3-1.5,0.8c-0.6,0.5-0.9,0.9-0.9,1.3
		c0,0.3,0.4,0.6,1.1,0.9c0.9,0.4,1.6,0.6,2.1,0.6C119,34.1,119.1,33.7,119.2,32.9z"/>
	<path class="st11" d="M147.8,22.2c0,0.5-1,1.1-2.9,1.9c-0.7,0.3-1.7,0.7-2.9,1.2c-0.8,1.8-1.9,4-3.4,6.6c-1.3,2.2-2.2,3.4-2.8,3.4
		c-0.8-0.1-1.2-0.6-1.2-1.7c0-1.5,0.4-2.6,1.3-3.2c0.6-0.3,1.5-1.7,2.8-4.2c-0.1,0-0.3,0-0.5,0c-0.7,0-1.4-0.1-2.3-0.4
		c-1-0.4-1.5-0.8-1.5-1.3c0-0.1,0.7-0.3,2.2-0.5c1.7-0.3,2.8-0.5,3.3-0.7c0,0,0.1,0,0.1,0c0.8-2.1,1.2-3.9,1.2-5.4
		c0-0.6,0.1-0.8,0.4-0.8c0.5,0,1.2,0.3,2,1c0.7,0.6,1.1,1.1,1.1,1.5c0,0.4-0.2,0.7-0.6,1.1c-0.1,0.1-0.4,0.5-0.6,1.1
		c0.1-0.1,0.2-0.1,0.3-0.2c0.9-0.4,1.7-0.7,2.4-0.7C147.2,20.8,147.8,21.3,147.8,22.2z M153.5,39.8c-0.1,0.8-0.6,1.3-1.4,1.3
		c-0.4,0-0.9-0.2-1.4-0.7c-0.5-0.5-1.3-1-2.4-1.7c-0.2,1.2-0.6,2.1-1.1,2.7c-0.9,0.9-1.8,1.4-2.7,1.4c-1.3,0-2.7-0.5-4.1-1.6
		c-1.4-1-2.1-1.9-2.1-2.5c0-1,0.6-1.8,1.9-2.4c1.4-0.7,3-1,5-1h0v-0.1c-0.1-0.6-0.2-1.3-0.2-2c0-1.2,0.3-2.1,1-2.9
		c0.5-0.6,1.4-1.1,2.7-1.6c-0.8,1.3-1.2,2.3-1.2,3c0,1.2,0.1,2.3,0.4,3.2c0.1,0.2,0.2,0.5,0.3,0.8c0.8,0.3,1.6,0.6,2.5,1
		C152.4,37.6,153.4,38.6,153.5,39.8z M145.2,37.6c-0.3,0-0.4,0-0.3,0c-1.4,0-2.5,0.1-3.3,0.3c-0.6,0.2-0.9,0.4-0.9,0.8
		c0,0.3,0.4,0.6,1.1,0.9c0.7,0.4,1.4,0.6,2.1,0.6c0.3,0,0.6-0.3,0.9-0.8C145,39,145.2,38.4,145.2,37.6z M157,27.4
		c-0.1,1-0.6,1.5-1.4,1.5c-0.4-0.1-0.8-0.2-1.2-0.4c-0.5-0.1-0.9-0.2-1.2-0.2c-0.8,0-2.1,0.2-4,0.6c1.8-1.3,2.7-2.1,2.7-2.6
		c0-0.3-1-1-2.8-2.1c2.6,0,4.6,0.4,6.1,1.1C156.3,25.9,156.9,26.6,157,27.4z"/>
	<path class="st11" d="M177.5,33.5c0,1.4-0.5,2.6-1.5,3.8c-0.9,1.1-2.1,2-3.7,2.6c-1.7,0.7-4.3,1.3-7.7,1.7c2.6-1.1,4.5-2,5.6-2.8
		c2.3-1.7,3.4-3.7,3.6-6c-0.1-0.8-0.4-1.4-0.9-2c-0.5-0.6-1.2-0.9-1.9-0.9c-3.9,0-7,1.6-9.5,4.7c-1.2,1.6-2,2.4-2.3,2.4
		c-0.4,0-0.8-0.3-1.2-1c-0.3-0.6-0.5-1.1-0.5-1.6c0-0.6,0.3-1.1,0.9-1.4c0.7-0.4,1.8-1.5,3.1-3.2c1.2-1.5,2.9-3.7,5.2-6.6
		c0.4-0.5,1-1.2,1.8-2.1l0.1-0.2c0-0.2-0.1-0.3-0.3-0.3c-0.3,0-0.9,0.3-1.7,1c-0.7,0.6-1.3,1-1.8,1c-0.5,0-1.1-0.2-1.9-0.7
		c-0.7-0.5-1.1-0.9-1.1-1.2c0-0.3,0.4-0.4,1.1-0.4c0.8,0,2-0.3,3.6-0.9c1.1-0.4,2-0.8,2.6-1.2c0.6-0.3,0.9-0.5,1.1-0.5
		c0.4,0,1,0.3,1.7,1c0.8,0.6,1.1,1.2,1.2,1.7c0,0.4-0.4,0.7-1.1,1.2c-0.7,0.4-1.7,1.4-3,3c-0.8,1-1.9,2.5-3.5,4.5
		c2.3-0.9,4.1-1.3,5.5-1.3c1.7,0,3.2,0.5,4.5,1.6C176.9,30.4,177.5,31.8,177.5,33.5z"/>
	<path class="st11" d="M192.7,20.6c0.1,0,0.4,0.1,0.8,0.2c0.4,0.3,0.6,0.6,0.6,0.8c0,0.2,0,0.4-0.1,0.6c-0.1,0.2-0.2,0.4-0.3,0.4
		c-0.8,0.3-1.6,0.5-2.5,0.7c-0.1,0.7-0.1,1.5-0.2,2.3c0.6-0.1,1.2-0.3,1.9-0.4c0.4-0.1,0.7-0.1,0.9-0.1c0.9,0.1,1.4,0.6,1.4,1.6
		c0,0.3-0.4,0.4-1.3,0.4c-0.2,0-0.4,0-0.6,0.1c0.3,0.1,0.4,0.3,0.4,0.4c0,0.1-0.1,0.2-0.2,0.4c-0.3,0.4-0.5,0.7-0.7,0.9
		c-0.2,0.4-0.5,0.8-0.8,1.2c0.1,0,0.2-0.1,0.3-0.1c0.3,0,0.6-0.1,0.8-0.1c0.9,0.1,1.4,0.6,1.4,1.6c0,0.2-0.4,0.4-1.1,0.4
		c-0.9,0.1-1.8,0.2-2.8,0.4c0.4,0.3,0.7,0.5,0.7,0.6c0,0.3-0.1,0.5-0.2,0.8c-0.1,0.2-0.1,0.4-0.1,0.6c0.3-0.1,0.6-0.2,0.9-0.3
		c0.3,0,0.5-0.1,0.7-0.1c0.9,0.1,1.4,0.6,1.4,1.6c0,0.3-0.3,0.4-0.9,0.4c-0.6,0-1.3,0.2-2.1,0.3v5.1c0,1.1-0.2,1.7-0.5,1.9
		c-0.4,0.5-0.7,0.7-1.1,0.7c-0.3,0-0.6-0.3-1-0.8c-0.3-0.5-0.5-1.3-0.5-2.3c0-0.1,0.1-0.3,0.2-0.5c0.2-0.4,0.3-0.7,0.3-0.8
		c0.1-0.8,0.1-1.7,0.2-2.6c-0.9,0.3-2,0.7-3.2,1.2l-0.4,0.2c-0.1,0-0.5-0.2-1.1-0.7c-0.6-0.6-1-1.1-1-1.6c0-0.1,0.1-0.1,0.3-0.1
		c0.8,0,1.7-0.1,2.5-0.3c0.8-0.1,1.8-0.4,2.9-0.7v-0.3c0-0.8-0.1-1.4-0.4-1.8l0-0.1c-1.2,0.3-2.5,0.7-4,1.2l-0.5,0.1
		c-0.1,0-0.5-0.2-1.1-0.7c-0.6-0.6-1-1.1-1-1.6c0-0.1,0.1-0.1,0.2-0.1c1,0,2-0.1,3.1-0.3c1.3-0.2,3.2-0.6,5.7-1.2
		c0.2-0.6,0.3-1.1,0.4-1.6c0.1-0.5,0.2-0.8,0.2-1.1c0,0,0-0.1-0.1-0.2c-0.6,0.1-1.2,0.2-1.8,0.3c-0.6,0.1-1.2,0.3-1.9,0.4
		c0.4,0.2,0.6,0.3,0.8,0.5c0.3,0.3,0.4,0.7,0.4,1.2c0,0.3-0.1,0.5-0.4,0.8c-0.3,0.3-0.7,0.4-1,0.4c-0.1,0-0.3-0.1-0.4-0.4
		c-0.3-0.4-0.6-1-1.1-2.1c-0.7,0.2-1.4,0.4-2.1,0.6l-0.5,0.2c-0.2,0-0.6-0.2-1.2-0.7c-0.6-0.6-1-1.1-1-1.6c0-0.1,0.1-0.1,0.3-0.1
		c1.1,0,2.2-0.1,3.3-0.3c1-0.1,2.3-0.4,3.8-0.7c0-0.9,0-1.6,0.1-2.3c-0.7,0.1-1.2,0.2-1.6,0.2c-1,0-1.6-0.3-1.9-0.8
		c-0.2-0.4-0.3-0.6-0.3-0.8c0-0.1,0-0.1,0.1-0.1c1.5-0.1,2.8-0.2,3.8-0.4c0-0.6,0-1.2,0-1.7c0-1.1,0-1.8-0.1-2.2
		c-0.1-0.4-0.3-0.8-0.5-1c-0.2-0.3-0.3-0.4-0.3-0.6c0-0.4,0.2-0.7,0.5-0.7c0.8,0,1.5,0.2,2.3,0.6c1.1,0.4,1.6,0.7,1.6,1.1
		c0,0.1,0,0.3-0.1,0.5c-0.2,0.4-0.4,1.5-0.6,3.1c0.3-0.1,0.6-0.2,0.8-0.3C192.4,20.6,192.5,20.6,192.7,20.6z M195.8,19.6
		c0.5,0,1.1,0.2,1.8,0.6c0.3,0.1,0.6,0.2,0.7,0.3c0.7-0.1,1.6-0.2,2.6-0.4c0.6-0.1,1.4-0.3,2.3-0.7c0.1,0,0.2,0,0.4,0
		c0.2,0,0.7,0.3,1.6,0.8c0.9,0.5,1.3,1,1.3,1.3c0,0.1-0.1,0.1-0.2,0.3c-0.4,0.3-0.6,0.6-0.7,0.8c-0.2,1.6-0.5,2.8-0.8,3.6
		c-0.3,0.8-0.6,1.3-0.9,1.5c-0.2,0.2-0.5,0.4-0.9,0.6c-0.3,0.1-0.6,0.2-0.7,0.2c-0.3,0-0.5-0.1-0.6-0.4c-0.7-1.1-1.3-1.9-1.9-2.4
		c-0.1-0.1-0.2-0.1-0.2-0.2c0-0.2,0.1-0.3,0.2-0.3c1.2,0.3,1.9,0.4,2.1,0.4c0.3,0,0.5-0.2,0.7-0.7c0.2-0.4,0.4-1,0.5-1.7
		c0.1-0.4,0.1-0.7,0.1-1c0-0.5-0.2-0.7-0.7-0.7c-0.6,0-1.1,0-1.7,0.1c-0.6,0.1-1.4,0.2-2.3,0.5v1.3c0,2.5,0,4.9,0,7.1
		c0.8,0,1.6-0.1,2.3-0.2c1-0.1,2-0.3,3-0.7c0.2,0,0.4-0.1,0.5-0.1c0.4,0,0.9,0.2,1.7,0.5c0.9,0.6,1.4,1.1,1.4,1.6l-0.2,0.3
		c-0.5,0.5-1,1.3-1.4,2.2c-0.3,0.9-0.7,1.7-1.1,2.4c-0.3,0.4-0.6,0.8-1.1,1.3c1.4,1,3.4,2,6.1,3c0,0.3-0.2,0.4-0.6,0.5
		c-2.5,0.5-4,0.8-4.4,0.8c-0.5,0-0.9-0.1-1-0.4c-0.6-0.8-1.2-1.6-1.8-2.5c-0.2,0.1-0.4,0.2-0.6,0.3c-0.8,0.4-1.5,0.7-2.1,0.9
		c-0.3,0.1-0.6,0.2-0.9,0.2c0,0.7,0,1.3,0,1.9c-0.1,0.4-0.3,0.8-0.6,1.2c-0.4,0.3-0.7,0.5-0.9,0.5c-0.5,0-0.9-0.4-1.2-1.2
		c-0.3-0.6-0.5-1.1-0.5-1.4c0,0,0-0.2,0.1-0.6c0.3-2.3,0.4-4.2,0.5-5.5c0.1-3,0.2-6.7,0.2-11.2c-0.1-2-0.4-3.2-0.7-3.8
		c0-0.2-0.1-0.3-0.1-0.4C195.2,19.7,195.4,19.6,195.8,19.6z M198.4,39.8c0.1,0,0.2-0.1,0.2-0.1c0.6-0.3,1.2-0.7,1.8-1.2
		c0.3-0.3,0.5-0.5,0.8-0.8c-0.5-0.7-1-1.5-1.5-2.3c-0.4-0.6-0.8-1.1-1.2-1.5C198.4,36.2,198.4,38.1,198.4,39.8z M198.4,32.7
		L198.4,32.7c0.3,0,0.6,0.1,0.9,0.2c0.4,0.4,0.8,0.8,1.1,1.3c0.5,0.7,1,1.4,1.7,2.2c0.2-0.3,0.4-0.6,0.5-0.8
		c0.3-0.6,0.5-1.5,0.8-2.6c0.1-0.3,0.2-0.6,0.2-0.8c0-0.4-0.1-0.5-0.4-0.5c-1.1,0.1-2.1,0.2-3,0.3c-0.5,0-0.9,0.1-1.1,0.1
		c-0.2,0-0.4-0.1-0.6-0.2C198.4,32.2,198.4,32.4,198.4,32.7z"/>
	<path class="st11" d="M220.9,16.2c0.7,0,1.6,0.2,2.6,0.7c0.7,0.2,1.1,0.5,1.1,0.9c0,0.1-0.1,0.2-0.2,0.3c-0.1,0.2-0.3,0.5-0.5,0.9
		l0,0.1c1.2,0.2,2.2,0.5,3,0.8c0.5,0.2,1,0.4,1.3,0.8c0.3,0.5,0.5,0.9,0.5,1.4c0,0.8-0.3,1.1-1,1.1c-1,0-1.6-0.2-1.7-0.5
		c-0.5-0.4-1-0.8-1.5-1.3c-0.4-0.4-0.8-0.8-1.2-1.1c-0.4,0.8-0.9,1.5-1.3,2.2c0.2,0,0.3,0.1,0.5,0.1c0.8,0.2,1.5,0.4,1.9,0.7
		c0.3,0.2,0.5,0.5,0.5,1c0,0.3-0.1,0.5-0.4,0.8c-0.3,0.2-0.7,0.3-1,0.3c-0.2,0-0.3-0.1-0.5-0.3c-0.4-0.3-0.8-0.9-1.4-1.9
		c-0.3,0.5-0.6,0.9-0.9,1.3c-0.6,0.8-1.2,1.5-1.8,2.2c0.3,0.1,0.7,0.1,1.1,0.3c0.4,0.1,0.7,0.2,0.8,0.3c0.8-0.1,1.8-0.3,2.8-0.6
		c0.9-0.2,1.8-0.4,2.5-0.7c0.1,0,0.2-0.1,0.3-0.1c0.3,0,0.7,0.2,1.4,0.6c0.9,0.6,1.3,1,1.3,1.3c0,0.5-0.1,0.8-0.3,1.1
		c-0.4,0.6-1.1,2.3-2,4.9c-0.5,0.4-0.9,0.6-1.4,0.6c-0.4,0-0.7-0.1-0.8-0.3c-0.9,0-1.9,0.1-2.8,0.3c-1.1,0.2-1.7,0.3-2,0.3
		c-0.1,0-0.2,0-0.3-0.1c-0.2,0.6-0.3,1.1-0.5,1.6c-0.1,0.2-0.1,0.4-0.2,0.5c0.2,0,0.4,0.1,0.7,0.1c0.3,0.1,0.5,0.2,0.7,0.3
		c0.1,0,0.2,0,0.2-0.1c1.5-0.4,2.7-0.6,3.7-0.8c0.4-0.1,0.9-0.2,1.4-0.4c0.1,0,0.2,0,0.3,0c0.1,0,0.7,0.3,1.8,0.9
		c1.1,0.6,1.7,1,1.7,1.3c0,0.1-0.1,0.2-0.3,0.3c-0.4,0.3-0.8,0.6-1,1c-0.3,0.4-0.6,0.9-0.8,1.5c0.4,0.6,0.6,1,0.6,1.2
		c0,0.1-0.1,0.1-0.3,0.1c-1.5,0-2.9,0.1-4.4,0.3c-0.9,0.1-1.5,0.2-1.8,0.2l0.1,0.4c-0.1,0.8-0.4,1.2-0.9,1.2c-0.3,0-0.6-0.2-0.9-0.5
		c-0.3-0.3-0.4-0.5-0.4-0.7c-0.3-0.6-0.5-1.6-0.6-2.9c-0.2-0.9-0.4-1.5-0.6-1.9c-0.5,1-1,1.8-1.6,2.6c-0.9,1.1-2.1,2.1-3.6,3
		c-0.1,0.1-0.3,0.1-0.5,0.1v-0.1c0.9-1,1.7-2,2.3-3.1c1.1-1.9,1.9-3.9,2.3-5.9c0.4-1.9,0.7-3.9,0.7-5.8c0-0.5,0-0.8-0.1-1
		c-0.4,0.3-0.7,0.6-1,0.9c-1.1,1-2.1,1.7-3.2,2.2c-0.4,0.2-0.7,0.3-0.8,0.3V31c1.5-1.7,2.9-3.4,4-5c0.8-1.1,1.5-2.4,2.2-3.8
		c0.6-1.2,1.1-2.4,1.5-3.7c0.1-0.4,0.2-0.8,0.2-1.1c-0.2-0.4-0.3-0.7-0.3-1C220.4,16.3,220.5,16.2,220.9,16.2z M220.8,28.5
		c0,0.4-0.1,0.8-0.2,1.2c0.7-0.2,1.3-0.3,1.8-0.5c0.2-0.1,0.3-0.1,0.4-0.1c1.2,0,1.8,0.4,1.8,1.3c0,0.1-0.1,0.2-0.2,0.2
		c-0.8,0.2-1.6,0.4-2.3,0.5c-0.6,0.1-1,0.2-1.1,0.2c-0.2,0-0.4,0-0.5-0.1c-0.1,0.7-0.2,1.3-0.3,1.9c0.4,0,0.9-0.1,1.5-0.3
		c0.9-0.2,1.7-0.4,2.2-0.6c0.1-0.1,0.3-0.1,0.4-0.1c0.3,0,0.5,0.1,0.7,0.2c0.1-0.7,0.3-1.6,0.5-2.7c0.1-0.6,0.2-1.2,0.2-1.7
		c0-0.3-0.1-0.4-0.3-0.4c-0.3,0-0.9,0.1-2,0.3C222.7,27.9,221.9,28.1,220.8,28.5z M221.4,40.7c0.5,0,1.1-0.1,1.7-0.2
		c0.7-0.1,1.3-0.2,1.8-0.3c0.1-0.3,0.2-0.6,0.3-0.8c0.1-0.5,0.2-0.9,0.2-1.3c0-0.4-0.3-0.6-0.8-0.6c-0.4,0-0.8,0.1-1.4,0.2
		c-0.8,0.2-1.5,0.4-2.3,0.7L221.4,40.7z M231.3,23.9c0.3,0,0.8,0.1,1.4,0.3c0.8,0.2,1.2,0.4,1.2,0.8v9.2c0,0.4-0.1,0.7-0.3,1
		c-0.2,0.4-0.5,0.5-0.8,0.5c-0.2,0-0.5-0.3-0.9-0.9c-0.3-0.5-0.4-0.7-0.4-0.8l0.1-1.3c0-4.1-0.3-6.5-0.6-7.3
		c-0.2-0.4-0.3-0.6-0.3-0.8C230.6,24.2,230.8,23.9,231.3,23.9z M236.3,17.3c0.8,0,1.8,0.3,3,0.8c1,0.3,1.4,0.7,1.4,1.3
		c0,0.1,0,0.2-0.1,0.3c-0.5,1.3-0.8,2.5-0.9,3.6c-0.1,1.6-0.2,3.1-0.2,4.6c0,4.9,0.2,9.2,0.7,12.7c0,1-0.3,2.1-1,3.1
		c-0.5,0.7-1,1.1-1.3,1.1c-0.7,0-1.1-0.2-1.3-0.7c-0.4-0.6-1.7-1.7-3.9-3.4c0-0.3,0.2-0.5,0.5-0.5c1.4,0.3,2.3,0.4,2.8,0.4
		c0.2,0,0.3-0.2,0.4-0.7c0.1-0.6,0.2-1.9,0.3-4c0.1-3,0.2-6.1,0.2-9.4c0-1.9-0.1-3.5-0.2-4.9c-0.1-1.3-0.4-2.5-0.9-3.4
		c-0.1-0.1-0.1-0.2-0.1-0.3C235.4,17.5,235.7,17.3,236.3,17.3z"/>
</g>
</svg>
