<?xml version="1.0" encoding="utf-8"?>
<!-- Generator: Adobe Illustrator 22.1.0, SVG Export Plug-In . SVG Version: 6.00 Build 0)  -->
<svg version="1.1" id="レイヤー_1" xmlns="http://www.w3.org/2000/svg" xmlns:xlink="http://www.w3.org/1999/xlink" x="0px"
	 y="0px" viewBox="0 0 48.8 48.8" style="enable-background:new 0 0 48.8 48.8;" xml:space="preserve">
<style type="text/css">
	.st0{fill:#00A291;}
	.st1{fill:#E6E6E5;}
	.st2{fill:none;}
	.st3{fill:#8E909D;}
</style>
<g>
	<path class="st0" d="M29.8,8.7c0.2-0.7-0.4-2-0.2-2.8c0.2,0.9,0.4,2.1,0.7,3.2c0.4,1.4,1.6,3.4,2.4,4.6c0.1-1.1-0.7-3.3,0.4-3.8
		c-1,3.5,1.7,6.6,3,9.8c0.2-1.5,0-3.1,0.6-4.5c-0.6,3.2,0.2,7.2,2,10.1c0,0,0.1,0.1,0.2,0.1c0.1-1.2,0.2-2.4,0.8-3.4
		c-1.7,5.3,2.8,8.8,3.3,13.7c-1,2-3.8,1.2-5.6,2c-1.6,0.7-3,2-4.4,3c0.8-0.9,1.6-2.2,2.8-2.7c-3.3-1-8.7,3.6-8.7,3.6
		c1-1.3,2.4-2.4,3.8-3.2l-6.4,0.2c-1.9,0.7-3.7,1.1-5.2,2.7c0.3-1.5,3.2-2.8,3.2-2.8c-3.2,0-10.3,0.8-10.3,0.8
		c1.3-0.5,2.5-0.5,3.1-1c-3-0.1-7.1-1.2-9.9-1.5l-0.2-0.3c0.7-4.6,4.9-8.6,3.2-13.8c0,0,0.9,1.8,0.6,3.7c1.8-3.2,2.5-7.5,1.8-9.8
		c1,1.3,0.4,3.3,0.2,4.9h0.2c4.9-9.3,3.7-11.5,3.7-11.5c0.7,1.4,0.4,2.3,0.2,3.6l0.1,0.1c1.9-2.4,3.2-4.7,3.9-7.6l-0.3,2.2l5.3-5.7
		C26.5,2.5,29.6,8.6,29.8,8.7z"/>
	<path class="st0" d="M30,8.8c0.1-0.4,0-0.8-0.1-1.3c-0.1-0.5-0.2-1-0.1-1.4c0,0.1-0.1,0.1-0.2,0.1c-0.1,0-0.2-0.1-0.2-0.1
		c0.1,0.6,0.3,1.2,0.4,1.9C30,8.3,30,8.7,30.1,9.2c0.4,1.4,1.6,3.4,2.4,4.7c0,0.1,0.1,0.1,0.2,0.1c0.1,0,0.1-0.1,0.1-0.2
		c0-0.4,0-0.8-0.1-1.3c-0.1-1-0.2-2,0.4-2.3c-0.1,0-0.1,0-0.2,0C33,10,33,9.9,33,9.9c-0.8,2.7,0.5,5.1,1.8,7.5
		c0.4,0.8,0.9,1.6,1.2,2.4c0,0.1,0.1,0.1,0.2,0.1c0.1,0,0.1-0.1,0.2-0.2c0.1-0.5,0.1-1,0.1-1.5c0-1,0.1-2,0.4-2.9
		c0,0.1-0.1,0.1-0.2,0.1c-0.1,0-0.2-0.1-0.1-0.2c-0.6,3.2,0.2,7.2,2.1,10.2c0,0,0,0,0,0c0,0,0,0,0,0c0,0.1,0.2,0.2,0.4,0.1
		c0.1,0,0.1-0.1,0.1-0.2v-0.1c0.1-1.1,0.2-2.3,0.7-3.3c0,0.1-0.1,0.1-0.2,0.1c-0.1,0-0.1-0.1-0.1-0.2c-1,3.3,0.2,5.9,1.5,8.4
		c0.8,1.7,1.6,3.4,1.8,5.3c0,0,0-0.1,0-0.1c-0.6,1.2-1.8,1.3-3.2,1.5c-0.8,0.1-1.6,0.2-2.3,0.5c-1.1,0.5-2.1,1.3-3.1,2.1
		c-0.4,0.3-0.9,0.7-1.3,0.9c0.1-0.1,0.2,0,0.3,0c0.1,0.1,0.1,0.2,0,0.3c0.3-0.3,0.5-0.5,0.7-0.9c0.6-0.7,1.2-1.4,2-1.8
		c0.1,0,0.1-0.1,0.1-0.2c0-0.1,0-0.1-0.1-0.2c-3.3-1-8.6,3.4-8.9,3.6c0.1-0.1,0.2-0.1,0.3,0c0.1,0.1,0.1,0.2,0,0.2
		c1.1-1.4,2.6-2.5,3.7-3.1c0.1,0,0.1-0.1,0.1-0.2c0-0.1-0.1-0.1-0.2-0.1l-6.4,0.2c0,0,0,0-0.1,0c-0.3,0.1-0.7,0.3-1,0.4
		c-1.5,0.5-3,1-4.2,2.3c0.1-0.1,0.2-0.1,0.2,0c0.1,0,0.1,0.1,0.1,0.2c0.3-1.4,3.1-2.6,3.1-2.6c0.1,0,0.1-0.1,0.1-0.2
		c0-0.1-0.1-0.2-0.2-0.2c-3.2,0-10.3,0.8-10.3,0.8c0.1,0,0.2,0.1,0.2,0.1c0,0.1,0,0.2-0.1,0.2c0.6-0.2,1.1-0.3,1.6-0.5
		c0.6-0.2,1.2-0.3,1.6-0.6c0.1-0.1,0.1-0.1,0.1-0.2c0-0.1-0.1-0.1-0.2-0.1c-1.7-0.1-3.8-0.5-5.8-0.8c-1.5-0.3-2.8-0.5-4-0.6
		c0.1,0,0.1,0,0.1,0.1l-0.2-0.3c0,0,0,0.1,0,0.1c0.3-1.7,1-3.4,1.7-5c1.3-2.8,2.6-5.6,1.5-8.9c0,0.1,0,0.2-0.1,0.2
		c-0.1,0-0.2,0-0.2-0.1c0,0,0.9,1.8,0.5,3.6c0,0.1,0,0.2,0.1,0.2c0.1,0,0.2,0,0.2-0.1c1.8-3.2,2.6-7.5,1.9-10c0,0.1,0,0.2-0.1,0.2
		c-0.1,0-0.2,0-0.2,0c0.7,0.9,0.5,2.3,0.4,3.6c-0.1,0.4-0.1,0.8-0.2,1.1c0,0.1,0,0.1,0,0.1c0,0,0.1,0.1,0.1,0.1h0.2
		c0.1,0,0.1,0,0.2-0.1c3-5.6,4.3-9.8,3.7-11.6c0,0.1,0,0.2-0.1,0.2c-0.1,0-0.2,0-0.2-0.1c0.6,1.1,0.4,1.9,0.3,2.8
		c0,0.2-0.1,0.4-0.1,0.6c0,0,0,0.1,0,0.1l0.1,0.1c0,0.1,0.1,0.1,0.1,0.1c0.1,0,0.1,0,0.2-0.1c2.1-2.7,3.2-4.9,4-7.7
		c0,0.1-0.1,0.2-0.2,0.1c-0.1,0-0.2-0.1-0.1-0.2L19,8.2c0,0.1,0,0.2,0.1,0.2c0.1,0,0.2,0,0.2,0l5.3-5.7c0,0-0.1,0.1-0.1,0.1
		c1.4,0,3.5,3.4,4.5,5.1c0.6,0.9,0.7,1.1,0.8,1.1c0,0,0.1,0,0.1,0C30,8.9,30,8.8,30,8.8z M24.4,2.4L19,8.1c0.1-0.1,0.1-0.1,0.2,0
		c0.1,0,0.1,0.1,0.1,0.2l0.3-2.2c0-0.1-0.1-0.2-0.2-0.2c-0.1,0-0.2,0-0.2,0.1c-0.7,2.7-1.8,4.9-3.9,7.6c0-0.1,0.1-0.1,0.1-0.1
		c0.1,0,0.1,0,0.2,0.1l-0.1-0.1c0,0,0,0.1,0,0.1c0-0.2,0.1-0.4,0.1-0.6c0.1-1,0.3-1.9-0.3-3.1c0,0.1,0,0.2-0.1,0.3
		c-0.1,0.1-0.2,0-0.3-0.1c0,0,1.1,2.2-3.7,11.3c0-0.1,0.1-0.1,0.2-0.1h-0.2c0.1,0,0.1,0,0.1,0.1c0,0,0,0.1,0,0.1
		c0-0.4,0.1-0.7,0.1-1.1c0.2-1.4,0.4-2.8-0.4-3.9c-0.1-0.1-0.2-0.1-0.2-0.1c-0.1,0-0.1,0.1-0.1,0.2c0.7,2.4-0.1,6.6-1.8,9.7
		c0-0.1,0.1-0.1,0.2-0.1c0.1,0,0.1,0.1,0.1,0.2c0.4-2-0.5-3.8-0.6-3.8c0-0.1-0.2-0.1-0.2-0.1c-0.1,0-0.1,0.1-0.1,0.2
		c1,3.2-0.2,6-1.5,8.6c-0.7,1.6-1.5,3.3-1.8,5c0,0,0,0.1,0,0.1l0.2,0.3c0,0.1,0.1,0.1,0.1,0.1c1.2,0.1,2.5,0.4,4,0.6
		c2,0.4,4.1,0.8,5.9,0.8c-0.1,0-0.1-0.1-0.2-0.1c0-0.1,0-0.2,0.1-0.2c-0.3,0.2-0.8,0.4-1.4,0.5c-0.5,0.1-1,0.2-1.6,0.5
		c-0.1,0-0.1,0.1-0.1,0.2c0,0.1,0.1,0.2,0.2,0.1c0.1,0,7.1-0.8,10.3-0.8c-0.1,0-0.2-0.1-0.2-0.2c0-0.1,0-0.2,0.1-0.2
		c-0.1,0.1-3,1.4-3.3,2.9c0,0.1,0,0.2,0.1,0.2c0.1,0,0.2,0,0.2,0c1.2-1.2,2.6-1.7,4.1-2.2c0.3-0.1,0.7-0.2,1-0.4c0,0,0,0-0.1,0
		l6.4-0.2c-0.1,0-0.2-0.1-0.2-0.1c0-0.1,0-0.2,0.1-0.2c-1.1,0.7-2.7,1.8-3.8,3.2c-0.1,0.1,0,0.2,0,0.3c0.1,0.1,0.2,0.1,0.3,0
		c0.1,0,5.4-4.5,8.5-3.5c-0.1,0-0.1-0.1-0.1-0.2c0-0.1,0-0.2,0.1-0.2c-0.9,0.4-1.6,1.1-2.2,1.9c-0.2,0.3-0.5,0.6-0.7,0.8
		c-0.1,0.1-0.1,0.2,0,0.3c0.1,0.1,0.2,0.1,0.2,0c0.4-0.3,0.9-0.6,1.3-1c1-0.7,2-1.5,3.1-2c0.6-0.3,1.4-0.4,2.2-0.5
		c1.4-0.1,2.8-0.3,3.5-1.7c0,0,0-0.1,0-0.1c-0.2-2-1-3.7-1.9-5.4c-1.3-2.6-2.4-5-1.5-8.2c0-0.1,0-0.2-0.1-0.2c-0.1,0-0.2,0-0.2,0.1
		c-0.6,1-0.7,2.2-0.8,3.4l0,0.1c0-0.1,0.1-0.1,0.1-0.2c0,0,0,0,0,0l0,0c0,0,0,0,0,0c0,0,0,0,0,0c0,0,0,0,0,0c-1.8-2.9-2.6-6.8-2-9.9
		c0-0.1,0-0.2-0.1-0.2c-0.1,0-0.2,0-0.2,0.1c-0.4,0.9-0.4,2-0.5,3c0,0.5,0,1-0.1,1.5c0-0.1,0.1-0.2,0.2-0.2c0.1,0,0.2,0,0.2,0.1
		c-0.3-0.8-0.8-1.6-1.2-2.4c-1.2-2.3-2.5-4.7-1.8-7.2c0-0.1,0-0.2-0.1-0.2c-0.1,0-0.1-0.1-0.2,0c-0.9,0.4-0.7,1.6-0.6,2.7
		c0.1,0.5,0.1,0.9,0.1,1.3c0-0.1,0.1-0.1,0.1-0.2c0.1,0,0.2,0,0.2,0.1c-0.9-1.2-2-3.2-2.4-4.5c-0.1-0.4-0.2-0.9-0.3-1.3
		c-0.1-0.7-0.3-1.3-0.4-1.9c0-0.1-0.1-0.1-0.2-0.1c-0.1,0-0.2,0.1-0.2,0.1c-0.1,0.5,0,1,0.1,1.6c0.1,0.5,0.2,0.9,0.1,1.2
		c0,0,0-0.1,0.1-0.1c0,0,0.1,0,0.1,0c0,0,0,0,0,0c-0.1-0.1-0.4-0.5-0.6-1c-1.1-1.8-3.2-5.2-4.8-5.2C24.4,2.4,24.4,2.4,24.4,2.4z"/>
	<path class="st1" d="M25.7,3.2c1.6,2.1,4.1,6,4.9,8.4c-0.9-0.6-1.9-2-3.5-3.1c0,0,5.3,6.2,7.1,9.3c-1.7-1.1-3.4-3.3-5.4-3.8
		c0,0,7.5,5.5,8.6,9.8c-1.9-1.6-6.6-2.9-6.6-2.8c4.4,0.9,8.8,4.6,9.7,9.1c-1.5-1.1-3.3-2.4-5.2-3l-0.1,0.1c2.3,1.7,5.9,3.1,6.7,6.4
		c0.2,0.8,0.6,1.5,0.6,2.3c-2.7,2-6.3,0.2-8.9-0.7c1.3,1.1,1.4,1,3.5,1.9c-3.8,0.8-6.8-1.6-9.8-3.4c-0.3,0.3,4,3.2,6,3.8
		c-4.6,1.1-8.8-1-11.9-3.8c-0.7,0.3,3.6,3.5,5.4,4.1C22.3,39.3,15,34,15,34c1.5,1.8,4.3,2.9,6.2,4c-3.5,0-7.3-0.8-9.9-2.4
		c0.3,0.8,4.3,1.9,5,2.3c-1.9-0.3-7.5-1.3-9.6-1.9C6.1,35.4,6.8,34.6,7,34c0.6-1.6,3-4.3,5.4-6.1c-1.9,0.6-2.3,1.4-3.9,2.7
		c0.6-4,6.9-8,6.9-8C11.1,25,10.3,26,10.3,26c1.1-2.8,2.4-7,5.6-8.6c1-0.6,2.1-1,3.1-1.5c-1-0.5-4.5,1.8-5.2,2.4
		c1.6-2.8,4-8,8.6-9.5c-1.4-0.3-2.6,0.7-3.7,1.3c1.6-2.5,3.9-4.9,5.8-7.2L25.7,3.2z"/>
	<path class="st0" d="M25.6,3.3c1.5,2,4.1,5.9,4.9,8.3c0-0.1,0-0.2,0.1-0.2c0.1-0.1,0.2-0.1,0.2,0c-0.4-0.2-0.7-0.6-1.2-1.1
		c-0.6-0.6-1.4-1.4-2.4-2.1c-0.1-0.1-0.2,0-0.2,0c-0.1,0.1-0.1,0.2,0,0.2c0.1,0.1,5.3,6.2,7.1,9.2c0-0.1,0-0.2,0-0.2
		c0.1-0.1,0.2-0.1,0.2,0c-0.5-0.4-1.1-0.9-1.7-1.4c-1.2-1-2.4-2.1-3.8-2.4c-0.1,0-0.2,0-0.2,0.1c0,0.1,0,0.2,0.1,0.2
		c0.1,0,7.5,5.6,8.5,9.7c0-0.1,0-0.2,0.1-0.2c0.1,0,0.2,0,0.2,0c-1.8-1.5-6.5-3-6.8-2.8c-0.1,0-0.1,0.1-0.1,0.2
		c0,0.1,0.1,0.1,0.1,0.1c4.6,1,8.7,4.8,9.5,9c0-0.1,0-0.2,0.1-0.2c0.1,0,0.1,0,0.2,0c-1.5-1.1-3.4-2.4-5.3-3.1c-0.1,0-0.1,0-0.2,0
		l-0.1,0.1C35,27,35,27,35,27.1c0,0.1,0,0.1,0.1,0.2c0.5,0.4,1.2,0.8,1.8,1.2c2.1,1.3,4.3,2.7,4.9,5.1c0.1,0.3,0.2,0.5,0.2,0.8
		c0.2,0.5,0.3,1,0.3,1.5c0-0.1,0-0.1,0.1-0.2c-2.4,1.7-5.4,0.6-7.8-0.3c-0.3-0.1-0.6-0.2-0.9-0.3c-0.1,0-0.2,0-0.2,0.1
		c0,0.1,0,0.2,0,0.2c1.1,0.9,1.4,1.1,2.7,1.6l0.9,0.4c-0.1,0-0.1-0.1-0.1-0.2c0-0.1,0.1-0.1,0.1-0.2c-3.2,0.7-5.8-1-8.3-2.6
		c-0.4-0.3-0.8-0.5-1.3-0.8c-0.1,0-0.2,0-0.2,0c0,0-0.1,0.1,0,0.2c0.2,0.7,4.4,3.3,6.1,3.9c-0.1,0-0.1-0.1-0.1-0.2
		c0-0.1,0.1-0.2,0.1-0.2c-5.2,1.3-9.6-1.8-11.7-3.8c-0.1,0-0.1-0.1-0.2,0c-0.1,0.1-0.2,0.2-0.2,0.3c0.1,0.9,4,3.7,5.6,4.1
		c-0.1,0-0.1-0.1-0.1-0.2c0-0.1,0-0.2,0.1-0.2c-4.5,1.6-11.7-3.6-11.8-3.6c-0.1-0.1-0.2,0-0.3,0c-0.1,0.1-0.1,0.2,0,0.2
		c1,1.3,2.8,2.2,4.3,3c0.7,0.4,1.3,0.7,1.9,1.1c-0.1,0-0.1-0.1-0.1-0.2c0-0.1,0.1-0.1,0.2-0.1c-3.7,0-7.4-0.9-9.8-2.4
		c-0.1,0-0.2,0-0.2,0C11,35.6,11,35.6,11,35.7c0.2,0.6,1.6,1.1,3.4,1.8c0.7,0.3,1.4,0.5,1.6,0.6C16,38.1,16,38,16,37.9
		c0-0.1,0.1-0.1,0.2-0.1c-1.8-0.3-7.4-1.3-9.6-1.9c0,0,0.1,0,0.1,0.1c-0.3-0.4,0-0.9,0.2-1.4c0.1-0.2,0.2-0.3,0.2-0.5
		c0.6-1.6,3-4.3,5.4-6c0.1-0.1,0.1-0.2,0.1-0.2c0-0.1-0.1-0.1-0.2-0.1c-1.4,0.5-2,1-2.8,1.8c-0.3,0.3-0.6,0.6-1.1,1
		c0.1,0,0.1-0.1,0.2,0c0.1,0,0.1,0.1,0.1,0.2c0.6-3.9,6.7-7.8,6.8-7.9c0.1-0.1,0.1-0.2,0.1-0.3c0-0.1-0.2-0.1-0.3-0.1
		c-4.3,2.4-5.2,3.4-5.2,3.4c0.1-0.1,0.2-0.1,0.2,0c0.1,0,0.1,0.2,0.1,0.2l0.4-1.1c1.1-2.7,2.4-6.1,5.1-7.5c0.7-0.4,1.4-0.7,2.1-1
		c0.3-0.1,0.7-0.3,1-0.5c0.1,0,0.1-0.1,0.1-0.2c0-0.1,0-0.1-0.1-0.2c-1.2-0.6-5,2.1-5.4,2.4c0.1,0,0.2,0,0.2,0
		c0.1,0.1,0.1,0.2,0,0.2c0.2-0.3,0.4-0.7,0.6-1.1c1.5-2.8,3.9-7.1,7.9-8.3c0.1,0,0.1-0.1,0.1-0.2c0-0.1-0.1-0.2-0.2-0.2
		C21.1,8.3,20,9,19,9.6c-0.2,0.1-0.3,0.2-0.5,0.3c0.1,0,0.2,0,0.2,0c0.1,0.1,0.1,0.2,0,0.2c1.1-1.7,2.5-3.3,3.9-4.9
		C23.3,4.6,24,3.8,24.6,3c0,0.1-0.1,0.1-0.2,0.1l1.3,0.2C25.6,3.3,25.6,3.3,25.6,3.3z M24.3,2.8c-0.6,0.7-1.3,1.5-1.9,2.2
		c-1.4,1.6-2.8,3.3-3.9,5c-0.1,0.1,0,0.2,0,0.2c0.1,0.1,0.2,0.1,0.2,0c0.2-0.1,0.3-0.2,0.5-0.3c1-0.6,2-1.2,3.1-1
		c-0.1,0-0.1-0.1-0.2-0.2c0-0.1,0-0.2,0.1-0.2c-4.2,1.3-6.5,5.6-8.1,8.5c-0.2,0.4-0.4,0.8-0.6,1.1c0,0.1,0,0.2,0,0.2
		c0.1,0.1,0.2,0.1,0.2,0c0.9-0.7,4.2-2.7,5-2.3c-0.1,0-0.1-0.1-0.1-0.2c0-0.1,0-0.1,0.1-0.2c-0.3,0.2-0.7,0.3-1,0.4
		c-0.7,0.3-1.4,0.6-2.1,1c-2.8,1.4-4.2,4.9-5.3,7.6l-0.4,1c0,0.1,0,0.2,0.1,0.2c0.1,0.1,0.2,0,0.2,0c0,0,0.9-1,5.1-3.3
		c-0.1,0-0.2,0-0.3-0.1c-0.1-0.1,0-0.2,0.1-0.3c-0.3,0.2-6.3,4.1-6.9,8.1c0,0.1,0,0.2,0.1,0.2c0.1,0,0.1,0,0.2,0
		c0.4-0.4,0.8-0.7,1.1-1c0.8-0.7,1.3-1.3,2.7-1.7c-0.1,0-0.2,0-0.2-0.1c0-0.1,0-0.2,0.1-0.2c-2.4,1.7-4.9,4.5-5.5,6.2
		c-0.1,0.1-0.1,0.3-0.2,0.5c-0.3,0.5-0.6,1.2-0.2,1.8c0,0,0.1,0.1,0.1,0.1c2.2,0.6,7.8,1.6,9.7,1.9c0.1,0,0.2,0,0.2-0.1
		c0-0.1,0-0.2-0.1-0.2c-0.3-0.2-0.9-0.4-1.7-0.7c-1.2-0.4-3-1.1-3.2-1.5c0,0.1,0,0.2,0,0.2c-0.1,0.1-0.2,0.1-0.2,0
		c2.5,1.5,6.2,2.4,10,2.4c0.1,0,0.2-0.1,0.2-0.1c0-0.1,0-0.2-0.1-0.2c-0.6-0.4-1.2-0.7-1.9-1.1c-1.5-0.8-3.2-1.7-4.2-2.9
		c0.1,0.1,0.1,0.2,0,0.2c-0.1,0.1-0.2,0.1-0.2,0c0.3,0.2,7.5,5.3,12.1,3.7c0.1,0,0.1-0.1,0.1-0.2c0-0.1,0-0.2-0.1-0.2
		c-1.7-0.5-5.3-3.3-5.3-3.8c0,0,0,0,0,0c-0.1,0-0.1,0-0.2,0c2.2,2,6.6,5.2,12,3.9c0.1,0,0.1-0.1,0.1-0.2c0-0.1-0.1-0.2-0.1-0.2
		c-1.9-0.6-5.8-3.2-5.9-3.6c0,0,0,0.1,0,0.1c-0.1,0.1-0.2,0.1-0.2,0c0.4,0.3,0.9,0.5,1.3,0.8c2.6,1.6,5.3,3.4,8.6,2.6
		c0.1,0,0.1-0.1,0.1-0.2c0-0.1,0-0.2-0.1-0.2l-0.9-0.4c-1.3-0.5-1.5-0.6-2.6-1.6c0.1,0.1,0.1,0.2,0,0.2c0,0.1-0.1,0.1-0.2,0.1
		c0.3,0.1,0.6,0.2,0.9,0.3c2.5,0.9,5.6,2.1,8.1,0.3c0,0,0.1-0.1,0.1-0.2c0-0.6-0.2-1.1-0.3-1.6c-0.1-0.2-0.2-0.5-0.2-0.7
		c-0.6-2.5-3-4-5-5.3c-0.6-0.4-1.2-0.8-1.8-1.2c0,0,0.1,0.1,0.1,0.2c0,0.1,0,0.1-0.1,0.2l0.1-0.1c-0.1,0-0.1,0-0.2,0
		c1.9,0.6,3.7,1.9,5.2,3c0.1,0,0.1,0,0.2,0c0.1,0,0.1-0.1,0.1-0.2c-0.9-4.3-5.1-8.3-9.8-9.3c0.1,0,0.1,0.1,0.1,0.1
		c0,0.1,0,0.1,0,0.1c0,0.1-0.1,0.1-0.1,0.1c0.4,0,4.7,1.3,6.4,2.7c0.1,0.1,0.2,0.1,0.2,0c0.1,0,0.1-0.1,0.1-0.2
		c-1.1-4.2-8.4-9.6-8.7-9.9c0.1,0.1,0.1,0.1,0.1,0.2c0,0.1-0.1,0.1-0.2,0.1c1.2,0.3,2.4,1.3,3.6,2.3c0.6,0.5,1.2,1,1.7,1.4
		c0.1,0.1,0.2,0,0.2,0c0.1-0.1,0.1-0.2,0-0.2c-1.7-3-7.1-9.2-7.1-9.3c0.1,0.1,0.1,0.2,0,0.3c-0.1,0.1-0.2,0.1-0.2,0
		c1,0.6,1.7,1.4,2.3,2c0.4,0.5,0.8,0.9,1.2,1.1c0.1,0,0.2,0,0.2,0c0.1,0,0.1-0.1,0.1-0.2c-0.9-2.6-3.6-6.7-5-8.4
		c0,0-0.1-0.1-0.1-0.1l-1.3-0.2C24.4,2.7,24.3,2.7,24.3,2.8z"/>
	<path class="st2" d="M48.4,24.4c0,13.3-10.8,24-24,24c-13.3,0-24-10.8-24-24c0-13.3,10.8-24,24-24C37.7,0.4,48.4,11.1,48.4,24.4z"
		/>
	<path class="st0" d="M48.1,24.4c0,13-10.6,23.7-23.7,23.7c-13,0-23.7-10.6-23.7-23.7c0-13,10.6-23.6,23.7-23.6
		C37.4,0.8,48.1,11.4,48.1,24.4z M24.4,0C10.9,0,0,10.9,0,24.4c0,13.5,10.9,24.4,24.4,24.4c13.5,0,24.4-11,24.4-24.4
		C48.8,10.9,37.9,0,24.4,0z"/>
	<path class="st2" d="M46.8,24.4c0,12.4-10,22.4-22.4,22.4C12,46.8,2,36.8,2,24.4C2,12,12,2,24.4,2C36.8,2,46.8,12,46.8,24.4z"/>
	<path class="st0" d="M46.4,24.4c0,12.1-9.9,22-22,22c-12.1,0-22-9.9-22-22c0-12.1,9.9-22,22-22C36.5,2.4,46.4,12.3,46.4,24.4z
		 M24.4,1.7C11.9,1.7,1.6,11.9,1.6,24.4c0,12.6,10.2,22.8,22.8,22.8C37,47.2,47.2,37,47.2,24.4C47.2,11.9,37,1.7,24.4,1.7z"/>
	<line class="st2" x1="19.1" y1="23" x2="30.3" y2="23"/>
	<path class="st2" d="M6.1,36.2c0,0-1-26.7,18.9-33.8C26.9,5.7,18.7,33,6.1,36.2z"/>
	<path class="st0" d="M6.4,36.2L6.4,36.2c0-0.3-0.7-26.5,18.7-33.4c-0.2,0.1-0.4,0-0.5-0.2c0.7,1.3-0.3,7.9-3.6,15.7
		c-2,4.6-7.4,15.6-15.1,17.5c0.1,0,0.2,0,0.3,0.1C6.4,35.9,6.4,36,6.4,36.2z M24.9,2.1C16.6,5,10.7,11.9,7.7,21.9
		c-2.2,7.5-2,14.3-2,14.3c0,0.1,0.1,0.2,0.2,0.3c0.1,0.1,0.2,0.1,0.3,0.1c8-2,13.6-13.2,15.6-18c3-7,4.6-14.5,3.6-16.4
		C25.2,2.1,25,2,24.9,2.1z"/>
	<path class="st2" d="M43.2,36.5c0,0,2.1-24.5-18-34.2C24.9,8.6,29.2,30.6,43.2,36.5z"/>
	<path class="st0" d="M43.6,36.5c0-0.1,0.5-6.3-1.5-13.6C40.3,16.2,35.9,7,25.4,2c-0.1-0.1-0.2,0-0.4,0c-0.1,0.1-0.2,0.2-0.2,0.3
		c-0.2,2.9,0.7,9.9,3.6,17.4c2.4,6,6.9,13.9,14.6,17.2c0.1,0,0.2,0,0.3,0C43.5,36.8,43.6,36.7,43.6,36.5z M25,2.7
		c19.6,9.4,17.8,33.6,17.8,33.8c0,0,0,0,0-0.1c0-0.1,0.1-0.2,0.2-0.2c0.1-0.1,0.2-0.1,0.3,0C30,30.6,25.2,9.4,25.6,2.4
		c0,0.1-0.1,0.2-0.2,0.3C25.3,2.7,25.2,2.7,25,2.7z"/>
	<path class="st2" d="M43.1,36.5c-12.9-6.8-22.7-8.1-36.8,0C16.4,43.6,30.5,45.4,43.1,36.5z"/>
	<path class="st2" d="M24.8,2.7C26.6,6,18.6,33,6.1,36.2"/>
	<path class="st2" d="M25.2,2.6C24.8,8.8,29,30.7,42.6,36.5"/>
	<path class="st3" d="M12.2,21.9"/>
	<path class="st0" d="M24.1,3c0.7,1.2-0.4,7.8-3.7,15.4c-4,9.5-9.4,15.7-14.6,17l0.2,0.7l0,0l0,0L6.2,37C14,35,19.3,24.9,21.8,19
		c2.7-6.3,4.8-14.5,3.6-16.7l-0.7,0.4l0,0l0,0L24.1,3z"/>
	<path class="st0" d="M24.4,2.6C24.1,8.1,27.8,31,42.3,37.2l0.3-0.7l0,0l0,0l0.3-0.7C29.3,30,25.7,7.8,25.9,2.6l-0.8,0l0,0l0,0
		L24.4,2.6z"/>
	<rect x="19.1" y="22.3" class="st0" width="11.1" height="1.5"/>
	<path class="st0" d="M43.2,36.2C31,29.7,21,27.6,6.1,36.2c-0.1,0.1-0.2,0.2-0.2,0.3c0,0.1,0.1,0.2,0.2,0.3c9,6.3,23.5,9.7,37.3,0
		c0.1-0.1,0.2-0.2,0.2-0.3C43.4,36.4,43.4,36.3,43.2,36.2z M6.4,36.9c14.7-8.4,24.5-6.4,36.5,0c-0.1-0.1-0.2-0.2-0.2-0.3
		c0-0.1,0.1-0.3,0.2-0.3c-13.4,9.4-27.6,6.2-36.4,0c0.1,0.1,0.2,0.2,0.2,0.3C6.6,36.7,6.5,36.8,6.4,36.9z"/>
</g>
</svg>
