<?xml version="1.0" encoding="utf-8"?>
<!-- Generator: Adobe Illustrator 22.1.0, SVG Export Plug-In . SVG Version: 6.00 Build 0)  -->
<svg version="1.1" id="レイヤー_1" xmlns="http://www.w3.org/2000/svg" xmlns:xlink="http://www.w3.org/1999/xlink" x="0px"
	 y="0px" viewBox="0 0 44.6 285.6" style="enable-background:new 0 0 44.6 285.6;" xml:space="preserve">
<style type="text/css">
	.st0{display:none;fill:#040000;}
	.st1{font-family:'DFKaiSho-Bd-WING-RKSJ-H';}
	.st2{font-size:30px;glyph-orientation-vertical:0;writing-mode:tb;}
	.st3{letter-spacing:6;}
	.st4{font-size:15px;glyph-orientation-vertical:0;writing-mode:tb;}
	.st5{letter-spacing:3;}
	.st6{display:none;}
	.st7{writing-mode:tb;}
	.st8{display:inline;fill:#040000;}
	.st9{font-size:9px;glyph-orientation-vertical:0;}
	.st10{letter-spacing:1;}
	.st11{letter-spacing:4;}
	.st12{font-family:'KozGoPr6N-Regular-90ms-RKSJ-H';}
	.st13{fill:#040000;}
</style>
<text transform="matrix(1 0 0 1 29.625 89)" class="st0 st1 st2 st3">あすなろ報創</text>
<text transform="matrix(1 0 0 1 29.625 0)" class="st0 st1 st4 st5">株式会社</text>
<text transform="matrix(1 0 0 1 4.5532 0)" class="st6 st7"><tspan x="0" y="0" class="st8 st1 st9 st10">全国新</tspan><tspan x="0" y="32.4" class="st8 st1 st9 st11">聞・</tspan><tspan x="0" y="54" class="st8 st1 st9 st10">各種雑</tspan><tspan x="0" y="86.4" class="st8 st1 st9 st11">誌・</tspan><tspan x="0" y="108" class="st8 st1 st9 st10">印刷全</tspan><tspan x="0" y="140.4" class="st8 st1 st9 st11">般・</tspan><tspan x="0" y="162" class="st8 st1 st9 st10">ウェブ</tspan><tspan x="0.1" y="185.7" class="st8 st12 st9 st10">ー</tspan><tspan x="0" y="196.5" class="st8 st1 st9 st10">総合広告代理店</tspan><tspan x="0.1" y="272.1" class="st8 st12 st9 st10">ー</tspan></text>
<g>
	<path class="st13" d="M39.7,106c0,2-1.3,3.8-3.8,5.4c-2.2,1.4-4.7,2.1-7.5,2.2c2.8-1.2,4.9-2.6,6.1-4c1.1-1.3,1.7-2.5,1.8-3.7
		c0-1.3-0.3-2.2-1.1-2.9c-0.6-0.4-1.2-0.6-1.9-0.8c-0.7,2.3-2.2,4.3-4.4,6.2c0.3,0.4,0.6,0.8,1,1.2c0.3,0.4,0.5,0.6,0.4,0.8
		c-0.1,0.9-0.6,1.3-1.6,1.3c-0.5-0.1-1.1-0.4-1.6-1.2c-0.2-0.2-0.4-0.4-0.5-0.6c-1.6,1-3,1.5-4.2,1.4c-2,0-2.9-1.1-2.9-3.2
		c0-1.2,0.6-2.5,1.8-3.8c0.7-0.7,1.7-1.4,2.8-2.1c0-1.1,0.2-2.5,0.5-4.3c-0.6,0-1.2-0.1-1.9-0.4c-0.9-0.4-1.3-0.8-1.3-1.2
		c0-0.3,0.5-0.5,1.6-0.6c0.7,0,1.4-0.1,2.1-0.1l0.8-3.8c0-0.5-0.1-1-0.4-1.3c-0.3-0.3-0.4-0.5-0.4-0.7c0-0.3,0.4-0.4,1.1-0.4
		c0.4,0,1,0.4,1.9,1.1c0.8,0.7,1.3,1.3,1.4,1.8c-0.1,0.2-0.2,0.4-0.5,0.7c-0.2,0.2-0.5,0.9-0.9,2c0.2,0,0.4-0.1,0.8-0.2
		c2.3-0.6,3.5-0.9,3.8-0.9c0.4,0,0.9,0.1,1.4,0.3c0.5,0.4,0.8,0.7,0.8,1.1c-0.1,0.5-1.4,1.1-4,1.7c-1.4,0.3-2.6,0.6-3.5,0.7
		c-0.3,1.3-0.4,2.3-0.5,3.3c1.3-0.4,2.6-0.7,4-0.8c0-0.3-0.1-0.6-0.1-0.9c-0.1-0.2-0.1-0.4-0.1-0.5c0-0.5,0.3-0.8,0.8-0.8
		c0.4,0,0.8,0.3,1.3,0.8c0.2,0.3,0.4,0.7,0.5,1.3c1.5,0.2,2.7,0.6,3.7,1.3C38.8,102.8,39.7,104.3,39.7,106z M25.7,108.5
		c-0.7-1.4-1.1-2.7-1.3-3.8c-1.8,1.3-2.7,2.5-2.7,3.7c0,0.9,0.4,1.3,1.2,1.3C23.6,109.7,24.5,109.3,25.7,108.5z M30.7,102.3
		c-1.3,0.2-2.5,0.5-3.7,0.9c0.1,1.3,0.4,2.5,0.8,3.5C29.2,105.4,30.2,104,30.7,102.3z"/>
	<path class="st13" d="M41.8,128.4c-0.1,0.5-0.5,0.7-1.5,0.7c-0.3,0-1-0.1-2.1-0.2c-0.6,0-1.4-0.1-2.5-0.1c-0.7,0-1.4,0-2.2,0.1
		c0,0.2,0,0.5,0,0.8c0,0.4,0,0.7,0,0.8c-0.1,4.5-0.3,7.1-0.8,8c-0.1,1.3-0.7,2.7-1.9,4c-1.1,1.3-2.9,2.3-5.3,2.9
		c1.5-1,2.7-2.3,3.6-3.9c0.6-1.2,0.9-2,0.9-2.4c0-0.6-0.8-1.2-2.5-1.8c-1.9-0.8-2.8-1.5-2.8-2.1c0-0.7,0.5-1.5,1.6-2.4
		c1.2-1,2.4-1.4,3.5-1.4c0.3,0,0.6,0.1,1,0.2v-2.5h-0.1c-1.6,0.2-3.3,0.6-4.9,1.1c-2.9,0.9-4.5,1.3-5,1.3c-0.6,0-1.3-0.3-2.1-0.8
		c-0.8-0.5-1.3-1.1-1.3-1.6c0-0.3,0.7-0.4,2.2-0.4c0.7,0,3.6-0.4,8.8-1.3c0.8-0.2,1.6-0.3,2.2-0.4c0-2.7-0.1-4.3-0.3-4.7
		c-0.2-0.2-0.3-0.4-0.3-0.6c0-0.5,0.3-0.8,0.8-0.8c0.7,0,1.5,0.2,2.3,0.6c0.6,0.4,1,0.8,1.1,1.2c-0.1,0.3-0.2,0.6-0.6,1.1
		c-0.1,0.1-0.2,1.1-0.2,2.8c2.5-0.4,4.1-0.6,4.7-0.6c0.8,0,1.6,0.3,2.3,0.9C41.3,127.5,41.7,128,41.8,128.4z M30.4,135.5
		c0-1-0.1-1.7-0.4-2.1c-0.2-0.2-0.5-0.3-0.8-0.3c-0.4,0-0.8,0.3-1.4,0.8c-0.6,0.5-0.9,0.9-0.9,1.3c0,0.3,0.3,0.5,1,0.9
		c0.9,0.4,1.5,0.6,2,0.6C30.2,136.6,30.4,136.2,30.4,135.5z"/>
	<path class="st13" d="M32.2,157.6c0,0.5-0.9,1.1-2.7,1.8c-0.6,0.3-1.6,0.7-2.8,1.1c-0.7,1.7-1.8,3.7-3.2,6.2
		c-1.2,2.1-2.1,3.2-2.7,3.2c-0.7-0.1-1.1-0.6-1.1-1.6c0-1.4,0.4-2.5,1.2-3c0.5-0.3,1.4-1.6,2.6-3.9c-0.1,0-0.3,0-0.5,0
		c-0.6,0-1.3-0.1-2.1-0.4c-1-0.3-1.4-0.8-1.4-1.3c0-0.1,0.7-0.2,2.1-0.5c1.6-0.2,2.7-0.4,3.1-0.6c0,0,0.1,0,0.1,0
		c0.8-2,1.1-3.7,1.1-5.1c0-0.5,0.1-0.8,0.4-0.8c0.5,0,1.1,0.3,1.9,0.9c0.7,0.5,1,1,1,1.4c0,0.3-0.2,0.7-0.6,1
		c-0.1,0.1-0.3,0.5-0.6,1.1c0.1-0.1,0.2-0.1,0.2-0.2c0.8-0.4,1.6-0.6,2.3-0.6C31.7,156.4,32.2,156.8,32.2,157.6z M37.5,174.1
		c-0.1,0.8-0.5,1.2-1.3,1.2c-0.4,0-0.8-0.2-1.3-0.7c-0.4-0.4-1.2-1-2.2-1.6c-0.2,1.1-0.5,2-1.1,2.5c-0.9,0.8-1.7,1.3-2.5,1.3
		c-1.2,0-2.5-0.5-3.8-1.5c-1.3-1-2-1.7-2-2.4c0-0.9,0.6-1.7,1.8-2.3c1.3-0.6,2.8-0.9,4.7-0.9h0v-0.1c-0.1-0.6-0.1-1.2-0.1-1.9
		c0-1.1,0.3-2,1-2.7c0.5-0.6,1.3-1.1,2.5-1.5c-0.8,1.2-1.1,2.1-1.1,2.8c0,1.1,0.1,2.1,0.4,3c0.1,0.2,0.2,0.5,0.2,0.8
		c0.8,0.3,1.5,0.6,2.3,0.9C36.5,172.1,37.4,173,37.5,174.1z M29.8,172.1c-0.3,0-0.4,0-0.3,0c-1.3,0-2.4,0.1-3.1,0.3
		c-0.6,0.2-0.9,0.4-0.9,0.7c0,0.3,0.4,0.5,1.1,0.8c0.7,0.4,1.3,0.6,2,0.6c0.3,0,0.5-0.3,0.8-0.8C29.6,173.4,29.7,172.9,29.8,172.1z
		 M40.8,162.5c-0.1,0.9-0.5,1.4-1.3,1.4c-0.4-0.1-0.8-0.2-1.1-0.4c-0.5-0.1-0.8-0.1-1.1-0.1c-0.7,0-2,0.2-3.8,0.5
		c1.7-1.2,2.5-2,2.5-2.4c0-0.3-0.9-1-2.6-2c2.5,0,4.4,0.3,5.7,1C40.2,161.2,40.8,161.8,40.8,162.5z"/>
	<path class="st13" d="M38.7,199.1c0,1.3-0.5,2.5-1.4,3.5c-0.8,1-2,1.8-3.5,2.5c-1.6,0.7-4,1.2-7.2,1.6c2.5-1,4.2-1.9,5.3-2.6
		c2.1-1.6,3.2-3.4,3.4-5.7c-0.1-0.7-0.4-1.4-0.8-1.8c-0.5-0.5-1.1-0.8-1.8-0.8c-3.6,0-6.6,1.5-8.9,4.4c-1.1,1.5-1.8,2.2-2.2,2.3
		c-0.4,0-0.8-0.3-1.1-0.9c-0.3-0.5-0.4-1-0.4-1.5c0-0.5,0.3-1,0.8-1.3c0.7-0.4,1.6-1.4,2.9-3c1.1-1.4,2.7-3.5,4.9-6.2
		c0.4-0.4,0.9-1.1,1.6-2l0.1-0.2c0-0.2-0.1-0.3-0.3-0.3c-0.3,0-0.8,0.3-1.6,0.9c-0.7,0.6-1.2,0.9-1.7,0.9c-0.5,0-1.1-0.2-1.8-0.7
		c-0.7-0.5-1-0.8-1-1.1c0-0.3,0.3-0.4,1-0.4c0.7,0,1.8-0.3,3.4-0.8c1.1-0.4,1.9-0.8,2.4-1.1c0.5-0.3,0.9-0.5,1-0.5
		c0.4,0,0.9,0.3,1.6,1c0.7,0.6,1.1,1.1,1.1,1.6c0,0.3-0.4,0.7-1,1.1c-0.6,0.4-1.6,1.3-2.8,2.8c-0.7,0.9-1.8,2.3-3.3,4.2
		c2.1-0.8,3.9-1.2,5.2-1.2c1.6,0,3,0.5,4.2,1.5C38.1,196.2,38.7,197.5,38.7,199.1z"/>
	<path class="st13" d="M27.5,219.7c0.1,0,0.4,0.1,0.7,0.2c0.4,0.3,0.6,0.5,0.6,0.8c0,0.2,0,0.4-0.1,0.5c-0.1,0.2-0.1,0.3-0.3,0.4
		c-0.8,0.3-1.5,0.5-2.3,0.6c-0.1,0.7-0.1,1.4-0.1,2.2c0.6-0.1,1.2-0.3,1.8-0.4c0.3-0.1,0.6-0.1,0.8-0.1c0.9,0.1,1.3,0.6,1.3,1.5
		c0,0.2-0.4,0.4-1.2,0.4c-0.2,0-0.4,0-0.6,0.1c0.2,0.1,0.4,0.2,0.4,0.4c0,0.1-0.1,0.2-0.2,0.4c-0.3,0.4-0.5,0.6-0.6,0.8
		c-0.2,0.4-0.5,0.8-0.8,1.1c0.1,0,0.2-0.1,0.3-0.1c0.3,0,0.6-0.1,0.8-0.1c0.9,0.1,1.3,0.6,1.3,1.5c0,0.2-0.4,0.3-1.1,0.4
		c-0.8,0.1-1.7,0.2-2.6,0.4c0.4,0.3,0.6,0.5,0.6,0.5c0,0.2-0.1,0.5-0.2,0.8c-0.1,0.2-0.1,0.3-0.1,0.5c0.3-0.1,0.6-0.2,0.8-0.3
		c0.2,0,0.4-0.1,0.6-0.1c0.9,0.1,1.3,0.6,1.3,1.5c0,0.2-0.3,0.4-0.8,0.4c-0.6,0-1.3,0.1-1.9,0.3v4.8c0,1-0.2,1.6-0.5,1.8
		c-0.3,0.4-0.7,0.6-1,0.6c-0.3,0-0.6-0.3-0.9-0.8c-0.3-0.5-0.5-1.2-0.5-2.2c0-0.1,0-0.2,0.1-0.5c0.2-0.4,0.2-0.6,0.2-0.7
		c0.1-0.8,0.1-1.6,0.1-2.4c-0.9,0.3-1.9,0.7-3,1.1l-0.4,0.1c-0.1,0-0.5-0.2-1.1-0.6c-0.6-0.5-0.9-1-0.9-1.5c0-0.1,0.1-0.1,0.2-0.1
		c0.8,0,1.6-0.1,2.4-0.3c0.7-0.1,1.6-0.4,2.8-0.7v-0.2c0-0.7-0.1-1.3-0.4-1.6l0-0.1c-1.1,0.3-2.3,0.7-3.7,1.1l-0.5,0.1
		c-0.1,0-0.5-0.2-1.1-0.6c-0.6-0.5-0.9-1-0.9-1.5c0-0.1,0.1-0.1,0.2-0.1c0.9,0,1.9-0.1,2.9-0.2c1.2-0.2,3-0.6,5.3-1.1
		c0.2-0.5,0.3-1,0.4-1.5c0.1-0.4,0.1-0.8,0.1-1c0,0,0-0.1-0.1-0.2c-0.6,0.1-1.2,0.2-1.7,0.3c-0.5,0.1-1.2,0.2-1.8,0.4
		c0.3,0.2,0.6,0.3,0.8,0.5c0.3,0.3,0.4,0.6,0.4,1.1c0,0.2-0.1,0.5-0.4,0.7c-0.3,0.2-0.6,0.4-0.9,0.4c-0.1,0-0.2-0.1-0.4-0.4
		c-0.3-0.3-0.6-1-1-1.9c-0.6,0.2-1.3,0.4-2,0.6l-0.5,0.2c-0.2,0-0.5-0.2-1.1-0.6c-0.6-0.5-0.9-1-0.9-1.5c0-0.1,0.1-0.1,0.3-0.1
		c1,0,2.1-0.1,3.1-0.3c0.9-0.1,2.1-0.3,3.6-0.6c0-0.8,0-1.5,0.1-2.1c-0.6,0.1-1.1,0.2-1.5,0.2c-0.9,0-1.5-0.3-1.8-0.8
		c-0.2-0.4-0.3-0.6-0.3-0.7c0-0.1,0-0.1,0.1-0.1c1.4-0.1,2.6-0.2,3.6-0.4c0-0.6,0-1.1,0-1.6c0-1,0-1.7-0.1-2c-0.1-0.4-0.3-0.7-0.4-1
		c-0.2-0.2-0.3-0.4-0.3-0.6c0-0.4,0.2-0.6,0.5-0.6c0.7,0,1.4,0.2,2.1,0.5c1,0.4,1.5,0.7,1.5,1c0,0.1,0,0.3-0.1,0.5
		c-0.2,0.4-0.4,1.4-0.5,2.9c0.3-0.1,0.6-0.2,0.8-0.3C27.2,219.7,27.3,219.7,27.5,219.7z M30.4,218.7c0.5,0,1,0.2,1.7,0.5
		c0.3,0.1,0.5,0.2,0.6,0.3c0.7-0.1,1.5-0.2,2.4-0.4c0.6-0.1,1.3-0.3,2.1-0.6c0.1,0,0.2,0,0.4,0c0.2,0,0.6,0.3,1.5,0.8
		c0.8,0.5,1.3,0.9,1.3,1.2c0,0.1-0.1,0.1-0.2,0.2c-0.4,0.3-0.6,0.6-0.6,0.8c-0.2,1.5-0.5,2.6-0.8,3.3c-0.3,0.7-0.5,1.2-0.8,1.4
		c-0.2,0.2-0.5,0.4-0.8,0.6c-0.3,0.1-0.5,0.2-0.6,0.2c-0.3,0-0.4-0.1-0.6-0.4c-0.6-1-1.2-1.8-1.8-2.3c-0.1-0.1-0.2-0.1-0.2-0.1
		c0-0.2,0-0.3,0.1-0.3c1.1,0.3,1.8,0.4,2,0.4c0.2,0,0.5-0.2,0.7-0.6c0.2-0.4,0.4-0.9,0.5-1.6c0.1-0.4,0.1-0.7,0.1-0.9
		c0-0.4-0.2-0.7-0.7-0.7c-0.5,0-1,0-1.6,0.1c-0.6,0.1-1.3,0.2-2.2,0.4v1.3c0,2.4,0,4.6,0,6.6c0.7,0,1.5-0.1,2.2-0.2
		c0.9-0.1,1.9-0.3,2.8-0.6c0.2,0,0.4-0.1,0.5-0.1c0.3,0,0.9,0.2,1.6,0.5c0.9,0.5,1.3,1,1.3,1.5l-0.1,0.2c-0.5,0.5-0.9,1.2-1.3,2.1
		c-0.3,0.9-0.7,1.6-1.1,2.3c-0.2,0.4-0.6,0.8-1,1.2c1.3,1,3.2,1.9,5.7,2.8c0,0.3-0.2,0.4-0.5,0.5c-2.4,0.5-3.8,0.7-4.2,0.7
		c-0.5,0-0.8-0.1-1-0.4c-0.6-0.7-1.1-1.5-1.7-2.3c-0.2,0.1-0.4,0.2-0.5,0.3c-0.7,0.4-1.4,0.6-2,0.8c-0.3,0.1-0.6,0.2-0.8,0.2
		c0,0.7,0,1.3,0,1.8c-0.1,0.4-0.3,0.7-0.6,1.1c-0.3,0.3-0.6,0.4-0.9,0.4c-0.4,0-0.8-0.4-1.1-1.1c-0.3-0.6-0.4-1-0.4-1.3
		c0,0,0-0.2,0.1-0.5c0.3-2.2,0.4-3.9,0.5-5.2c0.1-2.8,0.2-6.3,0.2-10.5c-0.1-1.9-0.3-3-0.7-3.5c0-0.2-0.1-0.3-0.1-0.4
		C29.8,218.9,30,218.7,30.4,218.7z M32.8,237.7c0.1,0,0.1-0.1,0.2-0.1c0.6-0.3,1.1-0.7,1.6-1.1c0.3-0.2,0.5-0.5,0.7-0.7
		c-0.5-0.7-0.9-1.4-1.4-2.1c-0.4-0.6-0.8-1.1-1.1-1.4C32.9,234.3,32.8,236.1,32.8,237.7z M32.9,231.1L32.9,231.1
		c0.3,0,0.6,0.1,0.9,0.2c0.4,0.3,0.7,0.7,1,1.2c0.4,0.7,1,1.4,1.6,2c0.2-0.3,0.4-0.5,0.5-0.8c0.2-0.6,0.5-1.4,0.7-2.4
		c0.1-0.3,0.1-0.5,0.1-0.7c0-0.3-0.1-0.5-0.4-0.5c-1.1,0.1-2,0.2-2.8,0.3c-0.5,0-0.8,0.1-1,0.1c-0.2,0-0.4-0.1-0.6-0.2
		C32.9,230.5,32.9,230.8,32.9,231.1z"/>
	<path class="st13" d="M23.5,251.6c0.7,0,1.5,0.2,2.4,0.6c0.7,0.2,1,0.5,1,0.9c0,0.1-0.1,0.2-0.2,0.3c-0.1,0.2-0.3,0.5-0.5,0.9
		l0,0.1c1.1,0.2,2.1,0.4,2.8,0.7c0.5,0.2,0.9,0.4,1.2,0.8c0.3,0.4,0.4,0.9,0.5,1.3c0,0.7-0.3,1.1-1,1.1c-0.9,0-1.5-0.2-1.6-0.5
		c-0.5-0.4-1-0.8-1.4-1.2c-0.4-0.4-0.8-0.7-1.1-1.1c-0.4,0.7-0.8,1.4-1.2,2.1c0.2,0,0.3,0,0.5,0.1c0.8,0.2,1.4,0.4,1.8,0.6
		c0.3,0.2,0.5,0.5,0.5,0.9c0,0.2-0.1,0.5-0.4,0.7c-0.3,0.2-0.6,0.3-0.9,0.3c-0.2,0-0.3-0.1-0.5-0.3c-0.4-0.3-0.8-0.9-1.3-1.8
		c-0.3,0.4-0.6,0.8-0.9,1.2c-0.5,0.8-1.1,1.4-1.6,2c0.3,0.1,0.7,0.1,1,0.2c0.4,0.1,0.6,0.1,0.8,0.3c0.8-0.1,1.7-0.3,2.7-0.6
		c0.9-0.2,1.7-0.4,2.3-0.7c0.1,0,0.2-0.1,0.3-0.1c0.3,0,0.7,0.2,1.3,0.5c0.8,0.6,1.3,1,1.3,1.2c0,0.4-0.1,0.8-0.3,1
		c-0.4,0.6-1,2.1-1.9,4.6c-0.4,0.4-0.9,0.6-1.3,0.6c-0.4,0-0.6-0.1-0.7-0.3c-0.9,0-1.8,0.1-2.6,0.3c-1,0.2-1.6,0.3-1.8,0.3
		c-0.1,0-0.2,0-0.2-0.1c-0.2,0.5-0.3,1-0.4,1.5c-0.1,0.2-0.1,0.3-0.2,0.5c0.2,0,0.4,0.1,0.6,0.1c0.3,0.1,0.5,0.2,0.6,0.3
		c0.1,0,0.1,0,0.2-0.1c1.4-0.4,2.6-0.6,3.5-0.7c0.4-0.1,0.8-0.2,1.3-0.4c0.1,0,0.2,0,0.3,0c0.1,0,0.7,0.3,1.7,0.8
		c1.1,0.6,1.6,1,1.6,1.2c0,0.1-0.1,0.2-0.2,0.3c-0.4,0.3-0.7,0.6-0.9,0.9c-0.3,0.4-0.5,0.8-0.7,1.4c0.4,0.5,0.6,0.9,0.6,1.1
		c0,0.1-0.1,0.1-0.2,0.1c-1.4,0-2.7,0.1-4.1,0.2c-0.8,0.1-1.4,0.2-1.7,0.2l0.1,0.4c-0.1,0.8-0.3,1.1-0.8,1.1c-0.3,0-0.6-0.2-0.8-0.5
		c-0.2-0.3-0.4-0.5-0.4-0.7c-0.2-0.5-0.4-1.5-0.6-2.8c-0.2-0.8-0.4-1.4-0.6-1.8c-0.4,0.9-1,1.7-1.5,2.4c-0.8,1-2,1.9-3.4,2.8
		c-0.1,0.1-0.3,0.1-0.5,0.1v-0.1c0.9-0.9,1.6-1.9,2.1-2.9c1.1-1.8,1.8-3.7,2.2-5.6c0.4-1.8,0.6-3.6,0.6-5.4c0-0.4,0-0.7-0.1-0.9
		c-0.3,0.3-0.6,0.6-0.9,0.8c-1,0.9-2,1.6-3,2.1c-0.4,0.2-0.7,0.3-0.8,0.3v-0.1c1.4-1.6,2.7-3.2,3.8-4.7c0.7-1.1,1.4-2.2,2.1-3.5
		c0.6-1.2,1.1-2.3,1.4-3.4c0.1-0.4,0.2-0.7,0.2-1c-0.2-0.3-0.2-0.6-0.2-0.9C23.1,251.7,23.2,251.6,23.5,251.6z M23.5,263.1
		c0,0.4-0.1,0.8-0.1,1.1c0.6-0.2,1.2-0.3,1.7-0.5c0.2-0.1,0.3-0.1,0.4-0.1c1.1,0,1.6,0.4,1.6,1.2c0,0.1-0.1,0.2-0.2,0.2
		c-0.8,0.2-1.5,0.4-2.2,0.5c-0.5,0.1-0.9,0.2-1.1,0.2c-0.2,0-0.3,0-0.5-0.1c-0.1,0.6-0.2,1.2-0.3,1.8c0.4,0,0.8-0.1,1.4-0.2
		c0.9-0.2,1.6-0.3,2.1-0.5c0.1-0.1,0.3-0.1,0.4-0.1c0.3,0,0.5,0.1,0.6,0.2c0.1-0.7,0.3-1.5,0.5-2.6c0.1-0.6,0.2-1.1,0.2-1.6
		c0-0.2-0.1-0.4-0.3-0.4c-0.3,0-0.9,0.1-1.8,0.3C25.2,262.5,24.4,262.8,23.5,263.1z M24,274.6c0.4,0,1-0.1,1.6-0.2
		c0.7-0.1,1.2-0.2,1.7-0.3c0.1-0.3,0.2-0.5,0.3-0.8c0.1-0.4,0.2-0.8,0.2-1.2c0-0.4-0.2-0.6-0.7-0.6c-0.3,0-0.8,0-1.3,0.1
		c-0.7,0.2-1.4,0.4-2.2,0.6L24,274.6z M33.3,258.8c0.3,0,0.8,0.1,1.3,0.2c0.7,0.2,1.1,0.4,1.1,0.7v8.7c0,0.4-0.1,0.7-0.3,0.9
		c-0.2,0.3-0.4,0.5-0.8,0.5c-0.2,0-0.4-0.3-0.9-0.8c-0.3-0.4-0.4-0.7-0.4-0.8l0.1-1.2c0-3.8-0.2-6.1-0.6-6.9
		c-0.2-0.4-0.2-0.6-0.2-0.7C32.6,259,32.8,258.8,33.3,258.8z M37.9,252.6c0.8,0,1.7,0.2,2.8,0.7c0.9,0.3,1.3,0.7,1.3,1.2
		c0,0.1,0,0.2-0.1,0.3c-0.5,1.2-0.8,2.3-0.8,3.3c-0.1,1.5-0.2,2.9-0.2,4.3c0,4.6,0.2,8.6,0.6,11.9c0,1-0.3,2-1,2.9
		c-0.5,0.7-0.9,1-1.3,1c-0.6,0-1-0.2-1.2-0.6c-0.4-0.6-1.6-1.6-3.7-3.2c0-0.3,0.1-0.5,0.4-0.5c1.3,0.2,2.2,0.4,2.6,0.4
		c0.2,0,0.3-0.2,0.4-0.6c0.1-0.5,0.2-1.8,0.3-3.8c0.1-2.8,0.2-5.7,0.2-8.8c0-1.8-0.1-3.3-0.2-4.6c-0.1-1.2-0.4-2.3-0.9-3.2
		c-0.1-0.1-0.1-0.2-0.1-0.3C37.1,252.8,37.4,252.6,37.9,252.6z"/>
</g>
<g>
	<path class="st13" d="M27.3,4.7c0.1,0,0.2,0,0.5,0.1C28,5,28.2,5.1,28.2,5.3c0,0.1,0,0.2-0.1,0.3c0,0.1-0.1,0.2-0.2,0.2
		c-0.4,0.1-0.8,0.2-1.2,0.3c0,0.4,0,0.8,0,1.2v0.3c0.3,0.1,0.5,0.1,0.7,0.2C27.7,7.9,28,8,28.1,8.1c0.1,0.1,0.1,0.2,0.1,0.3
		c0,0.2-0.1,0.4-0.2,0.5c-0.1,0.2-0.3,0.2-0.5,0.2c-0.2,0-0.4-0.1-0.5-0.3c-0.1-0.1-0.2-0.2-0.3-0.4c0-0.1-0.1-0.1-0.1-0.2l0,4.8
		c0,0.2-0.1,0.4-0.3,0.7c-0.1,0.3-0.3,0.4-0.5,0.4s-0.4-0.2-0.6-0.6c-0.1-0.2-0.2-0.5-0.2-0.9c0.1-0.7,0.2-1.5,0.3-2.3
		c0.1-0.6,0.2-1.3,0.2-2.4c-0.1,0.1-0.1,0.3-0.2,0.4c-0.3,0.7-0.7,1.2-1.1,1.7c-0.3,0.4-0.7,0.7-1,1c-0.3,0.2-0.5,0.3-0.5,0.3h-0.1
		c0.4-0.5,0.6-1,0.8-1.4c0.4-0.7,0.8-1.5,1.1-2.2c0.2-0.6,0.4-1.1,0.5-1.5c-0.4,0.1-0.7,0.1-0.9,0.1c-0.6,0-0.9-0.1-1.1-0.4
		c-0.1-0.2-0.2-0.3-0.2-0.4c0-0.1,0-0.1,0.1-0.1c1.1-0.1,1.9-0.2,2.6-0.4c0-1.7-0.1-2.7-0.1-3c-0.1-0.4-0.2-0.8-0.4-1.1
		c0-0.1,0.1-0.1,0.2-0.1c0.4,0,0.8,0.1,1.2,0.3C26.9,1.5,27,1.7,27,1.9C27,2,27,2.1,27,2.3c-0.1,0.9-0.2,1.8-0.2,2.6
		c0.1,0,0.2-0.1,0.3-0.1C27.1,4.7,27.2,4.7,27.3,4.7z M28.9,2.6c0.3,0,0.6,0.1,0.9,0.2c0.4,0.1,0.6,0.3,0.6,0.4c0,0,0,0.1,0,0.1
		c0,0-0.1,0.1-0.1,0.2c-0.1,0.4-0.3,0.8-0.4,1c0.4,0,0.7-0.1,1.1-0.1c0-1.6-0.1-2.5-0.2-2.6c-0.1-0.2-0.1-0.4-0.2-0.5
		c-0.1-0.1-0.1-0.2-0.1-0.2c0-0.1,0.1-0.2,0.3-0.2c0.4,0,0.8,0.1,1.1,0.2c0.4,0.1,0.6,0.3,0.6,0.5c0,0.1,0,0.2-0.1,0.3
		c-0.1,0.2-0.2,0.4-0.2,0.7c-0.1,0.2-0.1,0.8-0.1,1.6c0.3-0.1,0.6-0.2,0.9-0.4c0.1-0.1,0.2-0.1,0.3-0.1c0.1,0,0.2,0,0.4,0.1
		C34,3.9,34.1,4,34.1,4.2c0,0.1,0,0.2,0,0.3c0,0.1-0.1,0.2-0.2,0.2c-0.6,0.2-1.1,0.3-1.7,0.5v1.4c0.4-0.1,0.8-0.2,1.1-0.3
		c0.4-0.1,0.7-0.1,1-0.1c0.3,0,0.5,0.1,0.8,0.2c0.4,0.3,0.5,0.5,0.5,0.7c0,0.1,0,0.2-0.1,0.3c-0.1,0.1-0.2,0.2-0.3,0.2
		c-1.1,0-2,0-2.8,0.1c0.1,0.1,0.2,0.2,0.2,0.3c0.5,0.8,1,1.5,1.5,2c0.5,0.6,1.4,1.2,2.5,1.9v0.1c0,0.1-0.1,0.1-0.3,0.1
		c-0.8,0.1-1.6,0.2-2.3,0.2c-0.2,0-0.3,0-0.3-0.1c-0.4-0.6-0.9-1.7-1.5-3.2c-0.1-0.1-0.1-0.2-0.2-0.4c0,1.2,0.1,2.7,0.1,4.4
		c0,0.5-0.1,0.8-0.3,1.1c-0.2,0.3-0.4,0.4-0.5,0.4c-0.2,0-0.4-0.3-0.6-0.8c-0.1-0.2-0.1-0.4-0.1-0.5c0-0.3,0-0.5,0.1-0.6
		c0-0.1,0.1-0.4,0.1-0.7c0.1-0.5,0.1-1.3,0.1-2.3c-0.2,0.4-0.5,0.7-0.7,0.9c-0.4,0.5-0.9,0.9-1.4,1.3c-0.4,0.3-1,0.5-1.6,0.7v-0.1
		c0.2-0.2,0.4-0.4,0.6-0.6c0.5-0.5,0.9-0.9,1.2-1.4C29.5,9.6,30,8.9,30.4,8c0.1-0.1,0.1-0.2,0.1-0.3c-0.5,0.1-1.2,0.2-1.8,0.4
		c0,0-0.1,0-0.2,0c-0.1,0-0.3-0.1-0.5-0.4c-0.2-0.2-0.3-0.4-0.3-0.5c0,0,0-0.1,0.1-0.1c0.7-0.1,1.2-0.2,1.6-0.3
		c0.4,0,0.9-0.1,1.5-0.2h0V5.4c-0.2,0-0.4,0.1-0.6,0.1c-0.4,0-0.7-0.1-0.8-0.2c-0.2,0.3-0.3,0.6-0.5,0.8c-0.2,0.2-0.4,0.4-0.7,0.5
		c0.1-0.3,0.1-0.5,0.2-0.5c0.1-0.3,0.1-0.5,0.2-0.8c0.1-0.4,0.1-0.8,0.2-1.3c0-0.1,0-0.3,0-0.4c0-0.2,0-0.3-0.1-0.4
		c0-0.1-0.1-0.2-0.1-0.2C28.7,2.7,28.8,2.6,28.9,2.6z"/>
	<path class="st13" d="M28.4,25.2c0.7,0,1.1,0.3,1.1,0.8c0,0.1-0.1,0.2-0.2,0.2c-0.4,0.1-0.8,0.2-1.2,0.3c0.1,0.1,0.1,0.1,0.1,0.2
		c0,0,0,0.1,0,0.1c-0.1,0.2-0.2,0.9-0.3,2c0.4-0.1,0.9-0.3,1.3-0.4c0.4-0.1,0.6-0.2,0.7-0.2c0.2,0,0.4,0.1,0.4,0.2
		c0,0-0.1,0.1-0.2,0.2c-0.5,0.3-1.3,0.8-2.4,1.4c-0.6,0.3-1.3,0.8-2.1,1.3c-0.1,0.1-0.2,0.1-0.3,0.1c-0.1,0-0.4-0.2-0.7-0.6
		c-0.3-0.4-0.4-0.7-0.4-0.9c0-0.1,0.1-0.2,0.2-0.2c0.3,0,0.5-0.1,0.7-0.1c0.5-0.1,1-0.3,1.7-0.5c0-0.7,0-1.2,0-1.6
		c0-0.4,0-0.7,0-0.8c0,0,0-0.1,0-0.1c-0.6,0.1-1,0.1-1.2,0.1c-0.2,0-0.4-0.1-0.6-0.2c-0.1-0.1-0.2-0.3-0.2-0.4c0-0.1,0-0.1,0.1-0.1
		c1.2-0.2,2.2-0.5,3.2-0.8C28.2,25.2,28.3,25.2,28.4,25.2z M32.8,21.7c0.1,0,0.3,0,0.5,0.1c0.3,0.2,0.4,0.4,0.4,0.5
		c0,0.1,0,0.2-0.1,0.4c-0.1,0.1-0.1,0.2-0.2,0.2c-0.8,0.2-1.6,0.4-2.4,0.6c0.1,0.8,0.3,1.6,0.6,2.4c0.3,0.9,0.7,1.8,1.2,2.5
		c0.4,0.5,0.8,1,1.2,1.3c0.4,0.4,0.8,0.6,1,0.6c0,0,0.1-0.1,0.1-0.2c0.2-0.5,0.4-1.1,0.6-1.8c0-0.1,0-0.1,0.1-0.1
		c0.1,0,0.1,0.1,0.1,0.3c0,0.3,0,0.5,0,0.7c0,1.1,0.1,1.7,0.2,2c0.1,0.1,0.1,0.3,0.1,0.4c0,0.4-0.1,0.6-0.4,0.6
		c-0.3,0-0.8-0.1-1.3-0.3c-0.5-0.2-0.9-0.5-1.4-0.9c-0.5-0.5-1-1.1-1.3-1.6c-0.5-0.8-0.9-1.6-1.2-2.6c-0.3-0.7-0.5-1.7-0.8-3
		c-0.4,0.1-0.8,0.2-1.2,0.2c-1.2,0.2-2.1,0.4-2.7,0.4c-0.6,0-1-0.2-1.2-0.6c-0.1-0.2-0.2-0.4-0.2-0.5c0,0,0-0.1,0.1-0.1
		c2.1-0.1,3.8-0.4,5-0.6c-0.1-0.5-0.2-1-0.2-1.6c-0.1-0.4-0.1-0.8-0.2-1c-0.1-0.4-0.2-0.7-0.4-0.9c0-0.1-0.1-0.2-0.1-0.3
		c0-0.1,0.1-0.2,0.3-0.2c0.4,0,0.8,0.1,1.3,0.3c0.4,0.1,0.6,0.3,0.6,0.4c0,0.1,0,0.2-0.1,0.3c-0.1,0.1-0.1,0.3-0.1,0.4
		c0,0.8,0,1.5,0.1,2.2c0.5-0.2,1-0.3,1.5-0.5C32.5,21.7,32.7,21.7,32.8,21.7z M32,19.4c0.2,0,0.4,0,0.6,0.1c0.6,0.1,1,0.3,1.3,0.5
		c0.2,0.2,0.4,0.4,0.4,0.7c0,0.2-0.1,0.3-0.2,0.5c-0.2,0.1-0.4,0.2-0.6,0.2c-0.1,0-0.3-0.1-0.4-0.2c-0.3-0.2-0.6-0.7-1.1-1.4
		c-0.1-0.1-0.1-0.1-0.1-0.2C31.9,19.4,31.9,19.4,32,19.4z"/>
	<path class="st13" d="M28.5,36.9c0.4,0,0.8,0.1,1.3,0.4c0.3,0.1,0.5,0.3,0.5,0.5c0,0.1,0,0.1-0.1,0.2c-0.1,0.1-0.2,0.3-0.3,0.5
		c0,0,0,0,0,0c0.2,0.1,0.5,0.3,0.7,0.6c0.8,0.9,1.5,1.6,2.2,2.2c0.8,0.6,2,1.3,3.8,2.1v0.1c0,0.1-0.1,0.1-0.3,0.1
		c-1,0.1-1.9,0.2-2.6,0.2c-0.3,0-0.5,0-0.6-0.1c-0.7-0.7-1.6-1.9-2.6-3.5c-0.2-0.3-0.5-0.6-0.8-1c-0.1-0.1-0.1-0.1-0.2-0.2
		c-0.5,0.8-1.1,1.5-1.7,2.2c-0.8,0.9-1.6,1.6-2.5,2.2c-0.7,0.5-1.4,0.9-2.1,1.1c-0.3,0.1-0.5,0.2-0.5,0.2v-0.1
		c1.1-0.9,2.1-1.8,2.9-2.6c0.6-0.6,1.1-1.2,1.6-1.9c0.5-0.6,0.8-1.3,1.1-1.9c0.1-0.2,0.1-0.4,0.1-0.6c-0.1-0.2-0.1-0.3-0.1-0.5
		C28.3,36.9,28.4,36.9,28.5,36.9z M32.6,44.2c0.2,0,0.5,0.1,0.7,0.3c0.2,0.2,0.4,0.4,0.4,0.6c0,0.3-0.1,0.5-0.2,0.5
		c-1.5,0-2.8,0.1-4.1,0.2c0.3,0.1,0.4,0.2,0.4,0.4c0,0.1-0.1,0.2-0.2,0.4c-0.2,0.1-0.3,0.2-0.4,0.4c-0.4,0.4-0.8,0.9-1.3,1.4
		c0.9-0.1,2.1-0.3,3.5-0.5c-0.2-0.4-0.3-0.6-0.4-0.7c-0.2-0.2-0.2-0.4-0.2-0.5c0,0,0-0.1,0.1-0.1c0.1,0,0.2,0,0.4,0.1
		c0.4,0.2,0.7,0.4,1.1,0.6c0.5,0.3,0.8,0.7,1,0.9c0.1,0.3,0.2,0.5,0.2,0.8c0,0.2-0.1,0.4-0.2,0.6c-0.1,0.2-0.3,0.2-0.5,0.2
		c-0.2,0-0.4-0.1-0.5-0.3c-0.1-0.2-0.3-0.5-0.6-1c0,0,0-0.1,0-0.1c0,0-0.1,0-0.1,0c-2.9,0.6-4.6,1.1-5.2,1.3c-0.4,0-0.6-0.2-0.6-0.5
		c0-0.3,0-0.5,0.1-0.7c0-0.3,0.2-0.5,0.4-0.5c0.1,0,0.2-0.1,0.3-0.1c0.1,0,0.2-0.2,0.4-0.4c0.2-0.2,0.3-0.4,0.5-0.7
		c0.1-0.2,0.2-0.4,0.3-0.7c0-0.1,0.1-0.2,0.1-0.3C27.2,46,26.6,46,26,46.2c-0.3,0.1-0.5,0.1-0.6,0.1c-0.2,0-0.4-0.1-0.6-0.4
		c-0.2-0.2-0.3-0.4-0.3-0.5c0,0,0-0.1,0.1-0.1c1.5-0.2,2.8-0.3,3.9-0.5c1.1-0.1,2.2-0.3,3.3-0.6C32.1,44.2,32.4,44.2,32.6,44.2z
		 M30.4,42c0.1,0,0.3,0,0.5,0.1c0.3,0.2,0.4,0.4,0.4,0.5c0,0.1,0,0.2-0.1,0.3c-0.1,0.1-0.1,0.2-0.2,0.2c-0.6,0.2-1.2,0.3-1.8,0.4
		c-0.4,0.1-0.8,0.1-1,0.1c-0.6,0-1-0.2-1.2-0.5c-0.1-0.2-0.2-0.4-0.2-0.4s0-0.1,0.1-0.1c0.9-0.1,1.7-0.2,2.2-0.3
		c0.4-0.1,0.8-0.2,1.1-0.4C30.3,42,30.4,42,30.4,42z"/>
	<path class="st13" d="M27.1,58.4c0.2,0,0.5,0.1,0.9,0.3c0.5,0.3,0.8,0.6,0.8,0.8c0,0.1-0.1,0.1-0.2,0.2c-0.5,0.3-0.8,0.5-0.9,0.6
		c-0.4,0.6-0.8,1.1-1.2,1.5c0.5,0.3,0.7,0.5,0.7,0.6c0,0.1,0,0.2-0.1,0.4C27,63.1,27,63.3,27,63.3l0.1,3.3c0,0.2-0.1,0.5-0.2,0.7
		c-0.2,0.3-0.3,0.5-0.5,0.5c-0.3,0-0.5-0.3-0.8-1c-0.1-0.2-0.1-0.3-0.1-0.4c0-0.2,0.1-0.8,0.3-1.7c0.1-0.3,0.1-0.9,0.1-1.7
		c0-0.2,0-0.4,0-0.6c-0.1,0.1-0.1,0.1-0.2,0.2c-0.7,0.7-1.4,1.3-2.3,1.7c-0.3,0.2-0.5,0.3-0.6,0.3c0,0,0,0,0-0.1
		c0,0,0.1-0.1,0.2-0.2c0.8-0.7,1.4-1.3,1.8-1.8c0.7-0.8,1.2-1.7,1.8-2.6c0-0.1,0.1-0.1,0.1-0.2c0-0.1,0-0.1-0.1-0.1
		c-1.3,0.5-2,0.8-2.2,0.8c-0.2,0-0.5-0.1-0.7-0.4c-0.2-0.2-0.2-0.4-0.2-0.5c0-0.2,0.1-0.2,0.2-0.2c0.9,0,1.6-0.1,2-0.2
		c0.4-0.1,1-0.3,1.6-0.7C27,58.4,27.1,58.4,27.1,58.4z M25.6,55.3c0.2,0,0.4,0,0.6,0.1c0.6,0.1,1,0.3,1.3,0.4
		c0.2,0.1,0.4,0.4,0.4,0.7c0,0.2-0.1,0.3-0.3,0.5c-0.2,0.1-0.4,0.2-0.6,0.2c-0.1,0-0.3-0.1-0.4-0.2c-0.3-0.2-0.6-0.7-1.1-1.5
		c-0.1-0.1-0.1-0.1-0.1-0.2C25.5,55.3,25.5,55.3,25.6,55.3z M27.1,61.4c0.1,0,0.3,0,0.4,0.1c0.4,0.1,0.7,0.3,0.9,0.4
		c0.2,0.2,0.3,0.4,0.3,0.7c0,0.1-0.1,0.2-0.2,0.4c-0.1,0.1-0.3,0.2-0.4,0.2c-0.1,0-0.2-0.1-0.3-0.2c-0.2-0.2-0.4-0.6-0.7-1.3
		c0-0.1-0.1-0.1-0.1-0.1C27.1,61.4,27.1,61.4,27.1,61.4z M34.1,59.4c0.1,0,0.3,0,0.5,0.1c0.3,0.2,0.4,0.4,0.4,0.6
		c0,0.1,0,0.2-0.1,0.3c-0.1,0.1-0.1,0.2-0.2,0.2c-0.7,0.2-1.4,0.4-2.1,0.6l-0.1,2.8c0.8-0.2,1.5-0.3,2.1-0.5c0.1,0,0.1,0,0.2,0
		c0.3,0,0.7,0.1,1.1,0.4c0.4,0.3,0.6,0.6,0.6,1c0,0.3-0.1,0.5-0.4,0.5c-0.3,0-0.7,0-1.4-0.1c-0.4-0.1-0.8-0.1-1.1-0.1
		c-1.1,0-2,0.1-2.7,0.2c-0.6,0.1-1.2,0.3-1.7,0.5c-0.1,0.1-0.2,0.1-0.4,0.1c-0.3,0-0.6-0.2-0.9-0.5c-0.3-0.3-0.4-0.5-0.4-0.6
		c0-0.1,0-0.1,0.1-0.1c0.5,0,1.6-0.1,3.3-0.4c0.1,0,0.2,0,0.3,0l0-2.8c-0.4,0.1-0.6,0.1-0.9,0.1c-0.6,0-1-0.2-1.2-0.6
		c-0.1-0.2-0.2-0.4-0.2-0.5c0,0,0-0.1,0.1-0.1c0.8-0.1,1.6-0.2,2.2-0.3v-1c0-0.8,0-1.6-0.1-2.3c0-0.3-0.1-0.6-0.3-0.9
		c0,0,0-0.1,0-0.1c0-0.1,0.1-0.2,0.4-0.2c0.4,0,0.8,0.1,1.2,0.2c0.4,0.2,0.7,0.4,0.7,0.5c0,0.1,0,0.1-0.1,0.2
		c-0.1,0.3-0.2,0.9-0.2,1.7l0,1.5c0.4-0.1,0.8-0.3,1.1-0.5C33.9,59.5,34,59.4,34.1,59.4z"/>
</g>
<g>
	<path class="st13" d="M3.8,0.7C4,0.7,4.3,0.8,4.6,1C4.9,1,5,1.1,5,1.3c0,0,0,0.1-0.1,0.1c0,0.1-0.1,0.2-0.2,0.3c0,0,0,0,0,0
		C4.8,1.8,4.9,1.9,5,2C5.5,2.5,6,2.9,6.4,3.2c0.5,0.4,1.2,0.7,2.3,1.2v0.1c0,0-0.1,0.1-0.2,0.1C7.9,4.6,7.3,4.6,6.8,4.6
		c-0.2,0-0.3,0-0.4-0.1c-0.4-0.4-0.9-1-1.5-1.9C4.8,2.5,4.7,2.3,4.5,2.1c0,0,0,0,0,0c-0.3,0.4-0.6,0.9-1,1.2C3,3.8,2.5,4.3,2,4.6
		C1.5,4.9,1.1,5.1,0.7,5.3C0.6,5.3,0.4,5.4,0.4,5.4v0c0.6-0.5,1.2-1,1.7-1.6C2.4,3.4,2.7,3,3,2.6c0.3-0.4,0.5-0.8,0.6-1.1
		c0.1-0.1,0.1-0.3,0.1-0.3C3.7,1,3.6,0.9,3.6,0.8C3.6,0.8,3.7,0.7,3.8,0.7z M5.4,4c0.1,0,0.2,0,0.3,0.1c0.2,0.1,0.2,0.2,0.2,0.3
		c0,0.1,0,0.1,0,0.2c0,0.1-0.1,0.1-0.1,0.1C5.4,4.8,5.1,4.8,4.8,4.9c0,0,0.1,0.1,0.1,0.1c0,0,0,0.1,0,0.2c0,0.1-0.1,0.3-0.1,0.5
		c0.1,0,0.2,0,0.2,0c0.6,0,0.8,0.2,0.8,0.6c0,0.1,0,0.1-0.1,0.1C5.3,6.4,5,6.4,4.7,6.5c0,0.3,0,0.6,0,0.9c0.7-0.1,1.3-0.2,1.7-0.2
		c0.1,0,0.1,0,0.1,0c0.2,0,0.4,0.1,0.6,0.2c0.2,0.2,0.3,0.4,0.3,0.5c0,0.2-0.1,0.3-0.3,0.3c-0.2,0-0.4,0-0.8-0.1
		C6.2,8.1,6,8.1,5.8,8.1c-0.8,0-1.5,0-2,0.1c-0.5,0-0.9,0.1-1.3,0.2c-0.1,0-0.2,0-0.3,0C2,8.4,1.8,8.3,1.7,8.2
		C1.5,8,1.5,7.9,1.5,7.8c0,0,0-0.1,0.1-0.1c0.4,0,1.1-0.1,2.3-0.2c0,0,0.1,0,0.1,0c0-0.4,0-0.7,0-0.9c-0.2,0-0.4,0-0.5,0
		c-0.2,0-0.4-0.1-0.5-0.2C2.8,6.3,2.8,6.2,2.8,6.1C2.8,6,2.8,6,2.9,6c0.4,0,0.7-0.1,1-0.2c0-0.4,0-0.6,0-0.7c0-0.1,0-0.1-0.1-0.2
		C3.7,5,3.6,5,3.6,5C3.2,5,3,4.9,2.8,4.7C2.8,4.6,2.7,4.5,2.7,4.4s0-0.1,0.1-0.1c0.7,0,1.2-0.1,1.6-0.2C4.7,4.1,5,4.1,5.2,4
		C5.2,4,5.3,4,5.4,4z"/>
	<path class="st13" d="M1.5,12C1.6,12,1.8,12,2,12.2c0.9,0,1.9-0.1,3.1-0.2c0.6-0.1,1.1-0.1,1.4-0.2c0,0,0.1,0,0.1,0
		c0.1,0,0.3,0.1,0.7,0.3c0.4,0.2,0.6,0.4,0.6,0.5c0,0.1,0,0.1-0.1,0.2c-0.1,0.2-0.2,0.7-0.2,1.4c0,0.3,0,0.9,0,1.7
		c0,1.4,0.1,2.2,0.1,2.5c0,0.3-0.1,0.5-0.3,0.7c-0.1,0.2-0.3,0.3-0.4,0.3c-0.1,0-0.2-0.1-0.3-0.2c-0.1-0.3-0.3-0.6-0.4-0.9
		c-0.9,0-1.8,0-2.6,0.1c-0.8,0.1-1.3,0.1-1.6,0.1c0,0.1-0.1,0.2-0.2,0.3C1.9,19,1.9,19,1.8,19c-0.2,0-0.3-0.1-0.4-0.4
		c-0.1-0.2-0.1-0.3-0.1-0.4c0,0,0-0.1,0-0.2c0.1-0.7,0.1-1.2,0.2-1.5c0-0.8,0.1-1.9,0.1-3.1c0-0.6-0.1-1-0.2-1.2c0-0.1,0-0.1,0-0.1
		C1.3,12,1.4,12,1.5,12z M2.2,18c0.4,0,1,0,1.7-0.1c0.9-0.1,1.5-0.1,2-0.2c0.1,0,0.3,0,0.4,0c0.1,0,0.2,0,0.3,0.1
		c0.1-0.6,0.1-1.4,0.1-2.3c0-0.8,0-1.7-0.1-2.5c0-0.2-0.1-0.4-0.2-0.5c-0.1-0.1-0.1-0.1-0.2-0.1c-0.3,0-0.6,0-1,0
		c-1,0.1-2,0.1-2.9,0.2c-0.1,0-0.1,0-0.2,0c0,0.1,0,0.3,0,0.5C2.3,15.1,2.2,16.8,2.2,18z M5.5,13c0.1,0,0.1,0,0.3,0.1
		C5.9,13.2,6,13.2,6,13.3c0,0.1,0,0.1,0,0.2c0,0.1-0.1,0.1-0.1,0.1c-0.4,0.1-0.7,0.2-1.1,0.2c0.2,0.1,0.2,0.1,0.2,0.2
		c0,0,0,0.1,0,0.1c0,0.1-0.1,0.2-0.1,0.4c0.1,0,0.1,0,0.2,0c0.4,0,0.6,0.2,0.6,0.5c0,0.1,0,0.1-0.1,0.1c-0.3,0.1-0.5,0.1-0.8,0.1
		c0,0.3,0,0.7,0,1.1c0.3-0.1,0.5-0.1,0.7-0.2c0.1,0,0.2,0,0.3,0c0.1,0,0.3,0,0.5,0.1c0.1,0.1,0.2,0.2,0.2,0.4c0,0.2,0,0.3-0.1,0.3
		c-0.7,0-1.4,0-2.1,0.1c-0.3,0-0.6,0.1-0.9,0.1c-0.1,0-0.2,0.1-0.2,0.1c-0.1,0-0.2-0.1-0.4-0.2c-0.1-0.1-0.2-0.2-0.2-0.3
		c0,0,0,0,0.1,0c0.5-0.1,1-0.1,1.5-0.2c0-0.5,0-0.8,0-1.2c-0.2,0-0.4,0.1-0.4,0.1c-0.1,0-0.3,0-0.4-0.1c-0.1-0.1-0.1-0.2-0.1-0.3
		c0,0,0-0.1,0.1-0.1c0.3,0,0.6-0.1,0.9-0.2c0-0.3,0-0.5,0-0.5c0-0.1-0.1-0.2-0.1-0.3c-0.1,0-0.2,0-0.3,0c-0.3,0-0.6-0.1-0.7-0.3
		c-0.1-0.1-0.1-0.2-0.1-0.2s0-0.1,0.1-0.1c0.7,0,1.2-0.1,1.6-0.2c0.3-0.1,0.6-0.2,0.8-0.3C5.4,13,5.4,13,5.5,13z M5.3,15.3
		c0.1,0,0.2,0,0.3,0c0.2,0,0.4,0.1,0.5,0.2c0.1,0.1,0.1,0.2,0.1,0.3c0,0.1,0,0.2-0.1,0.2c-0.1,0.1-0.2,0.1-0.3,0.1
		c0,0-0.1,0-0.1-0.1c-0.1-0.1-0.2-0.3-0.4-0.6C5.2,15.4,5.2,15.4,5.3,15.3C5.2,15.3,5.3,15.3,5.3,15.3z"/>
	<path class="st13" d="M4.1,23c0,0,0.1,0,0.2,0.1c0.1,0.1,0.2,0.2,0.2,0.3c0,0.1,0,0.1,0,0.2c0,0.1-0.1,0.1-0.1,0.1
		c-0.2,0.1-0.5,0.1-0.7,0.2c0.1,0,0.2,0,0.4,0.1c0.2,0.1,0.3,0.1,0.3,0.2c0,0,0,0.1-0.1,0.1c-0.1,0.1-0.2,0.2-0.2,0.3
		C4,24.7,3.9,24.8,3.7,25c0.1,0,0.3-0.1,0.4-0.1c0.1,0,0.2,0,0.3,0c0.3,0,0.4,0.2,0.4,0.5c0,0.1-0.1,0.1-0.4,0.1
		c-0.3,0-0.7,0.1-1.2,0.2c0.2,0.1,0.2,0.2,0.2,0.3c0,0,0,0,0,0.1c0,0.1,0,0.1,0,0.2c0.1,0,0.3-0.1,0.4-0.1c0.1,0,0.2,0,0.3,0
		c0.1,0,0.3,0,0.4,0.1c0.1,0.1,0.2,0.2,0.2,0.3c0,0.1,0,0.2-0.1,0.2c-0.4,0-0.8,0-1.2,0.1c0,0.1,0,0.2,0,0.3c0,0,0.1,0,0.1,0
		c0.2,0,0.3,0.1,0.5,0.1c0.2,0.1,0.3,0.2,0.4,0.2c0.1,0.1,0.1,0.1,0.1,0.2c0,0.1,0,0.2-0.1,0.3c-0.1,0.1-0.1,0.1-0.2,0.1
		c-0.1,0-0.2,0-0.3-0.1c0,0-0.1-0.1-0.2-0.3c-0.1-0.2-0.2-0.3-0.2-0.4c0,0.4,0.1,0.9,0.1,1.3c0,0.2-0.1,0.5-0.3,0.7
		c-0.2,0.2-0.3,0.3-0.4,0.3c-0.1,0-0.2-0.1-0.3-0.2c-0.1-0.2-0.3-0.4-0.7-0.8c0-0.1,0-0.1,0.1-0.1c0.2,0.1,0.4,0.1,0.5,0.1
		c0.1,0,0.1-0.1,0.1-0.3c0-0.3,0-0.8,0-1.4V27C2.4,27,2.2,27,2,27.1c-0.1,0-0.2,0.1-0.2,0.1c-0.1,0-0.2-0.1-0.4-0.2
		c-0.1-0.1-0.2-0.2-0.2-0.3c0,0,0,0,0,0c0.5-0.1,0.9-0.2,1.3-0.2c0-0.1,0-0.2,0-0.3c0-0.1,0-0.2,0-0.3c-0.4,0.1-0.7,0.2-1.2,0.3
		l-0.1,0c0,0-0.2-0.1-0.4-0.2c-0.2-0.2-0.3-0.3-0.3-0.5c0,0,0,0,0.1,0c0.3,0,0.7,0,1-0.1c0.4,0,0.9-0.1,1.6-0.3
		c0.1-0.2,0.1-0.4,0.2-0.6c0-0.1,0-0.2,0-0.3c0,0,0-0.1-0.1-0.3c-0.1,0-0.2,0-0.3,0.1C2.7,24,2.4,24,2.2,24c-0.3,0-0.5-0.1-0.6-0.3
		c-0.1-0.1-0.1-0.2-0.1-0.2c0,0,0,0,0,0c0.7,0,1.2-0.1,1.6-0.2c0.3-0.1,0.6-0.2,0.8-0.3C4,23,4,23,4.1,23z M1.7,27.4
		c0,0,0.1,0,0.1,0.1c0.1,0.2,0.1,0.3,0.1,0.4c0,0.2,0,0.4-0.1,0.6c-0.1,0.2-0.1,0.3-0.2,0.4C1.5,28.9,1.4,29,1.3,29
		c-0.2,0-0.3-0.1-0.4-0.2c-0.1-0.1-0.1-0.2-0.1-0.3c0-0.1,0-0.1,0.1-0.2c0.4-0.4,0.6-0.7,0.6-0.8C1.5,27.4,1.6,27.4,1.7,27.4z
		 M1.9,24.2c0.1,0,0.1,0,0.2,0c0.2,0.1,0.4,0.1,0.5,0.2c0.1,0.1,0.1,0.2,0.1,0.3c0,0.1,0,0.2-0.1,0.2c-0.1,0.1-0.2,0.1-0.3,0.1
		c0,0-0.1,0-0.1-0.1c-0.1-0.1-0.2-0.3-0.4-0.7C1.8,24.3,1.8,24.3,1.9,24.2C1.8,24.2,1.8,24.2,1.9,24.2z M2.7,22.1
		c0.2,0,0.3,0,0.6,0.1c0.2,0.1,0.4,0.1,0.4,0.2c0.1,0.1,0.1,0.2,0.1,0.3c0,0.3-0.2,0.4-0.5,0.4c-0.1,0-0.2-0.1-0.4-0.4
		C2.7,22.4,2.6,22.2,2.7,22.1C2.6,22.1,2.6,22.1,2.7,22.1z M6.9,22.6c0.1,0,0.4,0.1,0.8,0.2c0.3,0.2,0.5,0.3,0.5,0.4
		c0,0.1,0,0.1-0.1,0.1c-0.3,0.1-0.5,0.2-0.6,0.2c-0.1,0-0.3,0.1-0.5,0.2c-0.4,0.2-0.7,0.3-1,0.3l0,0c-0.1,0.1-0.1,0.2-0.1,0.3
		c0,0.3,0,0.5,0,0.8c0.5-0.1,1.1-0.3,1.6-0.4c0.2-0.1,0.3-0.1,0.4-0.1c0.1,0,0.3,0.1,0.5,0.2s0.3,0.2,0.3,0.4c0,0.1-0.1,0.2-0.2,0.2
		c-0.2,0-0.4,0-0.6,0.1c-0.2,0-0.3,0-0.5,0.1c0.3,0.1,0.4,0.2,0.4,0.2c0,0.1,0,0.1,0,0.2c-0.1,0.1-0.1,0.3-0.1,0.7
		c0,1.2,0,2-0.1,2.3c0,0.4-0.1,0.7-0.2,0.9S7,30.2,6.9,30.2c-0.1,0-0.2-0.1-0.2-0.4c-0.1-0.1-0.1-1.2-0.1-3.5c0-0.3,0-0.5-0.1-0.7
		c-0.2,0-0.4,0-0.6,0.1c0,0-0.1,0-0.1,0c0,0,0,0-0.1,0c0,0.3,0,0.5-0.1,0.7c-0.1,0.5-0.2,1-0.3,1.3c-0.2,0.4-0.5,0.8-0.8,1
		C4.4,28.9,4.2,29,4.1,29h0c0.1-0.2,0.3-0.4,0.4-0.6c0.2-0.4,0.3-0.7,0.4-1.1C5,26.8,5,26.1,5,25c0-0.3,0-0.5-0.1-0.8
		c0-0.2-0.1-0.3-0.2-0.4c0,0,0-0.1,0-0.1c0-0.1,0.1-0.1,0.3-0.1c0.3,0,0.5,0.1,0.8,0.2c0,0,0.1,0,0.1,0c0.1-0.1,0.3-0.2,0.4-0.3
		c0.2-0.1,0.3-0.3,0.4-0.4c0.1-0.1,0.1-0.2,0.2-0.4C6.8,22.7,6.8,22.6,6.9,22.6z"/>
	<path class="st13" d="M1.3,33.5c0.2,0,0.4,0.1,0.6,0.2c0,0,0,0,0,0c0.4,0,0.9-0.1,1.4-0.3c0.1,0,0.3,0.1,0.5,0.2
		c0.3,0.2,0.5,0.3,0.5,0.4c0,0,0,0.1,0,0.1c-0.1,0.2-0.2,0.4-0.3,0.6c0,0.3-0.1,0.6-0.2,1c0,0.1-0.1,0.2-0.3,0.3
		c-0.1,0-0.2,0.1-0.2,0.1c-0.1,0-0.1,0-0.1-0.1c-0.2,0-0.5,0-0.7,0.1c-0.1,0-0.3,0-0.3,0.1c0,1.6,0,2.9-0.1,3.9
		c0,0.1-0.1,0.2-0.2,0.3c-0.1,0.1-0.2,0.2-0.3,0.2c-0.1,0-0.3-0.1-0.4-0.4c-0.1-0.2-0.1-0.3-0.1-0.4l0-0.1c0.1-0.7,0.2-1.2,0.2-1.5
		c0.1-0.8,0.1-1.9,0.1-3.1c0-0.6-0.1-1-0.2-1.2c0-0.1,0-0.1,0-0.1C1.2,33.5,1.2,33.5,1.3,33.5z M2.1,35.7c0.1,0,0.1,0,0.2,0
		c0.2,0,0.4-0.1,0.5-0.1c0,0,0.1,0,0.1,0c0.1,0,0.1,0,0.1,0c0.1-0.3,0.1-0.6,0.2-0.9c0-0.2,0.1-0.4,0.1-0.6c0-0.1,0-0.2-0.1-0.2
		c-0.4,0.1-0.8,0.1-1,0.2c0,0.1,0,0.3,0,0.6v0.1c0.1,0,0.2-0.1,0.3-0.1c0.1,0,0.2-0.1,0.3-0.1c0.3,0,0.4,0.1,0.4,0.3
		c0,0.1-0.1,0.1-0.2,0.1c-0.1,0-0.3,0-0.5,0.1c-0.1,0-0.2,0-0.3,0V35.7z M5.8,35.8c0.1,0,0.1,0,0.2,0.1c0.1,0.1,0.2,0.2,0.2,0.2
		s0,0.1,0,0.2c0,0.1-0.1,0.1-0.1,0.1c-0.1,0-0.3,0.1-0.4,0.1c0.1,0,0.1,0.1,0.1,0.1c0,0.1,0,0.1,0,0.2c-0.1,0.1-0.1,0.3-0.1,0.6
		c0,0.4,0,0.7,0,1c0,0,0.1,0,0.1,0c0.1,0,0.2,0,0.3,0c0.1,0,0.3,0,0.5,0.1c0.1,0.1,0.2,0.2,0.2,0.4c0,0.2,0,0.3-0.1,0.3
		c-0.4,0-0.7,0-1,0c0,0.1,0,0.2,0,0.3c0,0.3-0.1,0.6-0.2,0.8c-0.1,0.2-0.2,0.3-0.3,0.3c-0.1,0-0.2-0.1-0.2-0.3c0,0,0-0.4-0.1-1
		c-0.2,0-0.4,0.1-0.6,0.1c-0.3,0.1-0.7,0.1-1.1,0.3c-0.1,0-0.2,0.1-0.3,0.1c-0.1,0-0.2-0.1-0.4-0.2c-0.1-0.1-0.2-0.2-0.2-0.3
		c0,0,0,0,0.1,0c0.3-0.1,0.6-0.1,0.9-0.2l-0.1-1.3c0-0.3,0-0.6-0.1-0.8v0c-0.2,0-0.4-0.1-0.5-0.3c-0.1-0.1-0.1-0.2-0.1-0.2
		c0,0,0,0,0,0c0.8,0,1.5-0.1,1.9-0.2c0.4-0.1,0.7-0.2,1-0.3C5.7,35.9,5.8,35.8,5.8,35.8z M4,38.8c0.1,0,0.2,0,0.3-0.1
		c0.2,0,0.4-0.1,0.6-0.1c0-0.4,0-0.9,0-1.5c0-0.2,0-0.3-0.1-0.5c-0.2,0-0.3,0.1-0.5,0.1c-0.1,0-0.2,0-0.3,0l0,0C4,36.9,4,37,4,37.2
		c0.2-0.1,0.3-0.1,0.3-0.1c0,0,0,0,0.1,0c0.2,0,0.3,0.1,0.3,0.2c0,0.1,0,0.1-0.1,0.2c-0.1,0-0.3,0.1-0.5,0.1c0,0,0,0,0,0h0L4,38
		c0.2-0.1,0.3-0.1,0.4-0.1c0,0,0,0,0.1,0c0.2,0,0.4,0.1,0.4,0.2c0,0.1,0,0.1-0.1,0.2c-0.1,0-0.3,0.1-0.6,0.1c0,0,0,0,0,0s0,0-0.1,0
		L4,38.8z M5.1,33.2c0.1,0,0.2,0,0.4,0.1c0.1,0,0.2,0,0.2,0.1c0.3-0.1,0.7-0.1,1-0.2C6.8,33.1,6.9,33,7,33c0,0,0.1,0,0.1,0
		c0.1,0,0.2,0,0.5,0.1C7.8,33.2,8,33.3,8,33.5c0,0,0,0.1,0,0.1c-0.1,0.4-0.1,1.1-0.1,2.2c0,0.2,0,1,0,2.4c0,1.1,0,1.8,0,2.1
		c0,0.1-0.1,0.3-0.3,0.6c-0.2,0.2-0.4,0.3-0.5,0.3C6.4,40.4,6,40,6,40c0,0,0-0.1,0-0.1c0.4,0.2,0.7,0.4,0.8,0.4
		c0.1,0,0.2-0.2,0.2-0.5c0.1-0.5,0.1-1.6,0.1-3.3c0-0.3,0-0.6,0-0.9c-0.3,0-0.6,0-0.8,0.1c-0.3,0.1-0.5,0.1-0.5,0.1l0,0
		c0,0.1-0.1,0.1-0.2,0.1c-0.1,0-0.1-0.1-0.2-0.2c-0.1-0.1-0.1-0.2-0.1-0.2v-0.3c0-0.9-0.1-1.4-0.2-1.6c0-0.1-0.1-0.1-0.1-0.2
		C4.9,33.2,5,33.2,5.1,33.2z M5.8,35.3c0.1,0,0.2,0,0.4-0.1c0.3-0.1,0.5-0.1,0.6-0.2c0,0,0.1,0,0.1,0c0.1,0,0.1,0,0.1,0
		c0-0.4,0-0.9-0.1-1.4c0-0.1-0.1-0.1-0.2-0.1c-0.1,0-0.2,0-0.4,0c-0.2,0-0.4,0.1-0.7,0.2l0,0.5c0.1,0,0.3-0.1,0.4-0.1
		C6.3,34.1,6.4,34,6.4,34c0.3,0,0.4,0.1,0.4,0.3c0,0.1-0.1,0.1-0.2,0.2c-0.1,0-0.3,0-0.5,0.1c-0.1,0-0.2,0-0.4,0L5.8,35.3z"/>
	<path class="st13" d="M5.7,47.7c0,0.3-0.1,0.6-0.4,0.8c-0.2,0.2-0.5,0.4-0.8,0.4c-0.3,0-0.6-0.1-0.8-0.3c-0.2-0.2-0.3-0.5-0.3-0.8
		c0-0.3,0.1-0.6,0.3-0.9c0.2-0.2,0.5-0.3,0.9-0.3c0.3,0,0.6,0.1,0.8,0.3C5.6,47.1,5.7,47.4,5.7,47.7z"/>
	<path class="st13" d="M3.5,54.6c0.2,0,0.4,0.1,0.7,0.2c0.2,0.1,0.3,0.2,0.3,0.3c0,0.1,0,0.1-0.1,0.2c-0.1,0-0.1,0.1-0.1,0.2
		c-0.1,0.2-0.2,0.3-0.3,0.4c0.4-0.1,0.8-0.2,1.2-0.5c0.1,0,0.1,0,0.2,0c0.1,0,0.3,0.1,0.7,0.2c0.4,0.2,0.5,0.4,0.5,0.5
		c0,0-0.1,0.1-0.2,0.2c-0.3,0.2-0.5,0.4-0.7,0.6c-0.3,0.4-0.5,0.7-0.8,0.9c0.3,0.2,0.6,0.4,0.9,0.6c0.6,0.3,1.5,0.7,2.8,1.1v0.1
		c0,0-0.1,0.1-0.2,0.1c-0.7,0.1-1.3,0.1-1.8,0.1c-0.2,0-0.4,0-0.5-0.1c-0.5-0.3-1-0.9-1.7-1.6C4.2,58.6,4,58.8,3.7,59
		c-0.5,0.3-0.9,0.6-1.3,0.9c0.2,0,0.3,0,0.5,0.1C3,60,3.1,60,3.1,60.1c0.4,0,0.8-0.1,1.1-0.1c0.3-0.1,0.6-0.1,0.9-0.2
		c0.1,0,0.2-0.1,0.3-0.1c0.2,0,0.4,0.1,0.7,0.2c0.4,0.2,0.6,0.4,0.6,0.5c0,0,0,0.1-0.1,0.1c-0.1,0.1-0.2,0.2-0.3,0.4
		c-0.1,0.2-0.2,0.4-0.3,0.7c0,0,0.1,0.1,0.1,0.1C6.3,61.8,6.3,62,6.3,62c0,0,0,0.1-0.1,0.1c-0.7,0-1.3,0-2,0.1
		c-0.4,0-0.6,0.1-0.8,0.1c0,0.2-0.1,0.3-0.3,0.3c-0.1,0-0.2-0.1-0.3-0.2c-0.1-0.1-0.1-0.2-0.1-0.2c-0.1-0.2-0.1-0.6-0.2-1.1
		c0-0.3-0.1-0.6-0.2-0.7c-0.1-0.2-0.1-0.3-0.2-0.4c0,0,0-0.1,0-0.1C2,60,1.9,60.1,1.7,60.2c-0.6,0.2-0.9,0.4-1.1,0.4
		c0,0-0.1,0-0.1-0.1c1.2-0.7,2.1-1.4,2.7-1.9C3.5,58.3,3.8,58,4,57.7c-0.1-0.1-0.3-0.3-0.5-0.4c-0.2-0.1-0.3-0.2-0.5-0.3
		c-0.3,0.3-0.5,0.5-0.8,0.6C2.1,57.8,2,57.8,2,57.8c0,0,0,0,0-0.1c0.4-0.5,0.7-1,0.9-1.4c0.2-0.3,0.3-0.7,0.4-1
		c0.1-0.2,0.1-0.4,0.1-0.5l0-0.2C3.3,54.6,3.4,54.6,3.5,54.6z M3.4,61.8c0.2,0,0.5,0,0.9-0.1c0.3,0,0.6-0.1,0.8-0.1
		c0-0.1,0.1-0.3,0.1-0.5c0-0.2,0.1-0.4,0.1-0.5c0-0.2-0.1-0.3-0.2-0.3c-0.2,0-0.5,0-1,0.1c-0.4,0.1-0.6,0.1-0.8,0.1L3.4,61.8z
		 M3.3,56.8c0.1,0,0.1,0,0.2,0.1C3.8,56.9,4,57,4.2,57.2c0.1,0.1,0.1,0.1,0.2,0.1c0.2-0.3,0.4-0.6,0.6-0.9L5,56.3
		c0-0.1,0-0.2-0.1-0.2c-0.5,0.1-0.8,0.2-0.9,0.2c-0.1,0-0.2,0-0.2-0.1C3.6,56.4,3.5,56.6,3.3,56.8z"/>
	<path class="st13" d="M2.9,65.7c0.1,0,0.3,0.1,0.7,0.2C3.9,66.1,4,66.2,4,66.3c0,0.1,0,0.1-0.1,0.1c-0.3,0.1-0.5,0.2-0.6,0.2
		c-0.1,0-0.3,0.1-0.5,0.2c-0.1,0-0.1,0.1-0.2,0.1c0.1,0,0.2,0.1,0.3,0.1c0.2,0.1,0.4,0.2,0.4,0.3c0,0,0,0.1-0.1,0.2
		c0,0.1,0,0.2,0,0.3c0,0,0.1,0,0.1,0c0.1,0,0.1,0,0.2,0c0.3,0,0.4,0.2,0.4,0.5c0,0.1-0.1,0.1-0.3,0.1c-0.2,0-0.3,0-0.5,0.1
		c0,0.2,0,0.3,0,0.5c0.1,0,0.2,0.1,0.3,0.1c0.2,0.1,0.3,0.2,0.4,0.3c0,0.1,0.1,0.2,0.1,0.2c0,0.1,0,0.2-0.1,0.2
		C3.7,70,3.6,70,3.5,70c-0.1,0-0.2,0-0.2-0.1c0,0-0.1-0.1-0.2-0.3c0-0.1-0.1-0.1-0.1-0.2c0,0.1,0,0.3,0,0.4l0,2.5
		c0,0.1-0.1,0.3-0.2,0.4C2.8,72.9,2.7,73,2.6,73c-0.1,0-0.2-0.1-0.3-0.3c-0.1-0.1-0.1-0.3-0.1-0.5c0.1-0.3,0.1-0.6,0.2-1
		c0.1-0.3,0.1-0.7,0.1-1.4v-0.1c-0.1,0.2-0.2,0.3-0.3,0.4c-0.2,0.3-0.5,0.6-0.8,0.8c-0.2,0.2-0.5,0.3-0.9,0.5v-0.1
		c0.1-0.1,0.2-0.2,0.3-0.4c0.2-0.3,0.5-0.6,0.7-0.9c0.2-0.3,0.5-0.8,0.7-1.3c0,0,0,0,0-0.1c-0.2,0.1-0.5,0.2-0.8,0.3l-0.1,0
		c0,0-0.2-0.1-0.3-0.2c-0.2-0.2-0.3-0.3-0.3-0.5c0,0,0,0,0.1,0c0.2,0,0.5,0,0.7-0.1c0.2,0,0.6-0.1,1-0.2c0-0.3,0-0.5-0.1-0.6
		c0-0.1-0.1-0.2-0.1-0.4c-0.4,0.1-0.6,0.2-0.7,0.2c-0.1,0-0.2,0-0.2,0c0.4-0.2,0.7-0.4,1-0.6c0.2-0.1,0.3-0.3,0.5-0.5
		c0.1-0.1,0.1-0.2,0.2-0.4C2.8,65.7,2.8,65.7,2.9,65.7z M6.2,65.4c0.1,0,0.3,0.1,0.6,0.3c0.3,0.2,0.4,0.4,0.4,0.5
		c0,0.1,0,0.1-0.1,0.1c-0.2,0-0.4,0-0.5,0.1c-0.1,0-0.3,0.1-0.4,0.1c0.2,0.1,0.3,0.2,0.3,0.2c0,0,0,0.1,0,0.2c0,0.1,0,0.2-0.1,0.4
		C6.7,67.2,7,67.1,7.4,67c0.1,0,0.3,0,0.4,0s0.3,0,0.4,0.1c0.1,0.1,0.2,0.2,0.2,0.3c0,0.1,0,0.2-0.1,0.2c-0.7,0-1.4,0-2,0.1
		c0,0.1,0,0.2,0,0.2v0.3c0.3-0.1,0.6-0.1,0.9-0.2c0.1,0,0.3,0.1,0.6,0.2c0.4,0.2,0.5,0.4,0.5,0.5c0,0,0,0-0.1,0.1
		C8.1,69,8,69.2,7.9,69.4c-0.1,0.2-0.1,0.5-0.3,0.8c-0.1,0.1-0.2,0.3-0.3,0.4c-0.1,0-0.2,0.1-0.3,0.1c-0.1,0-0.1,0-0.1-0.1
		c0,0,0,0,0-0.1c-0.2,0-0.5,0-0.7,0l0,0.5c0.1,0,0.1,0,0.2,0c0.1,0,0.2,0,0.2,0c0.4,0,0.6,0.2,0.6,0.5c0,0,0,0.1-0.1,0.1
		c-0.3,0-0.6,0.1-0.9,0.1l0,0.5c0.5-0.1,1-0.1,1.3-0.2c0,0,0.1,0,0.1,0c0.2,0,0.4,0.1,0.6,0.2c0.2,0.2,0.3,0.3,0.3,0.5
		c0,0.2-0.1,0.3-0.2,0.3c-0.1,0-0.4,0-0.7-0.1c-0.2,0-0.4-0.1-0.5-0.1c-0.6,0-1.2,0-1.6,0.1c-0.3,0-0.7,0.1-1,0.1
		c-0.1,0-0.1,0-0.2,0c-0.1,0-0.3-0.1-0.5-0.2c-0.1-0.2-0.2-0.3-0.2-0.3c0,0,0-0.1,0.1-0.1c0.3,0,0.9,0,1.8-0.1c0,0,0,0,0,0l0-0.5
		c-0.2,0-0.3,0-0.4,0c-0.1,0-0.3,0-0.4-0.1c-0.1-0.1-0.1-0.2-0.1-0.3c0,0,0-0.1,0.1-0.1c0.3,0,0.6-0.1,0.8-0.1l0-0.6
		c-0.2,0-0.4,0-0.5,0.1c0,0.1-0.1,0.2-0.2,0.2c-0.1,0-0.2-0.1-0.3-0.2c-0.1-0.1-0.1-0.2-0.1-0.2c-0.1-0.2-0.1-0.5-0.2-0.9
		c0-0.3-0.1-0.5-0.2-0.6c-0.1-0.1-0.1-0.2-0.2-0.3c0-0.1,0-0.2,0.1-0.2c0.2,0,0.3,0,0.5,0.1c0,0,0,0,0,0c0.3,0,0.7-0.1,1-0.1
		c0-0.2,0-0.4,0-0.6c-0.3,0-0.6,0.1-0.9,0.1c-0.2,0-0.2,0.1-0.3,0.1c-0.1,0-0.2-0.1-0.4-0.2c-0.1-0.1-0.2-0.2-0.2-0.3c0,0,0,0,0,0
		c0.6-0.1,1.2-0.1,1.7-0.2c0-0.1,0-0.2,0-0.3c0-0.1,0-0.3-0.1-0.4c-0.3,0-0.5,0.1-0.7,0.1c-0.3,0-0.4,0-0.4-0.1c0,0,0,0,0.1,0
		c0.2,0,0.4-0.1,0.6-0.2c0.4-0.1,0.7-0.3,0.9-0.5c0.2-0.1,0.3-0.2,0.3-0.4C6.1,65.5,6.1,65.4,6.2,65.4z M4.9,70.1
		c0.2,0,0.3,0,0.5-0.1v-0.4c-0.1,0-0.1,0-0.1,0c-0.1,0-0.2,0-0.3-0.1c-0.1-0.1-0.1-0.1-0.1-0.2c0,0,0-0.1,0.1-0.1
		c0.2,0,0.3,0,0.5-0.1v-0.3c-0.3,0-0.5,0-0.7,0.1L4.9,70.1z M6.2,68.8l0,0.3c0.1,0,0.1,0,0.2,0c0.3,0,0.5,0.1,0.5,0.4
		c0,0,0,0-0.1,0.1c-0.2,0-0.4,0.1-0.6,0.1v0.4c0.1,0,0.2,0,0.3-0.1c0.1,0,0.1,0,0.2,0c0.1,0,0.1,0,0.2,0.1C7,69.7,7,69.5,7.1,69.3
		c0-0.2,0.1-0.3,0.1-0.4c0-0.2-0.1-0.3-0.2-0.3C6.7,68.7,6.4,68.7,6.2,68.8z"/>
	<path class="st13" d="M4,80.2c0.3,0,0.4,0.2,0.4,0.5c0,0.1-0.1,0.1-0.3,0.1c-0.4,0-0.8,0.1-1.2,0.2l0,2.2c0,0.1,0,0.3-0.1,0.4
		c-0.1,0.2-0.2,0.3-0.3,0.3c-0.2,0-0.3-0.2-0.5-0.6C2,83.2,2,83.2,2,83.1c0-0.2,0.1-0.6,0.2-1.3c0-0.1,0-0.4,0.1-0.6
		c-0.3,0.1-0.6,0.2-0.9,0.3l-0.1,0c0,0-0.2-0.1-0.3-0.2c-0.2-0.2-0.3-0.3-0.3-0.5c0,0,0,0,0.1,0c0.3,0,0.6,0,0.9-0.1
		c0.2,0,0.5-0.1,0.7-0.1v-0.1c0-0.3-0.1-0.6-0.2-0.9c0,0,0,0,0.1,0c0.1,0,0.2,0,0.2,0.1C2.8,79.9,3,80,3,80.1c0,0,0,0.1-0.1,0.2l0,0
		c0.3,0,0.5-0.1,0.8-0.2C3.9,80.2,3.9,80.2,4,80.2z M1.5,81.6C1.5,81.6,1.5,81.6,1.5,81.6c0.1,0.2,0.2,0.4,0.2,0.4
		c0,0.2,0,0.4-0.1,0.6c-0.1,0.1-0.1,0.3-0.2,0.3c-0.1,0.1-0.1,0.1-0.2,0.1c-0.1,0-0.2-0.1-0.3-0.2c0-0.1-0.1-0.2-0.1-0.3
		c0-0.1,0-0.1,0.1-0.2c0.4-0.4,0.5-0.6,0.6-0.7C1.4,81.6,1.4,81.6,1.5,81.6z M1.9,76.5c0.2,0,0.3,0,0.5,0.1c0.2,0.1,0.4,0.1,0.4,0.2
		c0,0,0,0.1,0,0.1c0,0.1-0.1,0.1-0.1,0.2c-0.1,0.2-0.1,0.5-0.2,0.7c0.1,0,0.2-0.1,0.2-0.1c0.1,0,0.1-0.1,0.2-0.2c0,0,0,0,0.1,0
		c0.1,0,0.2,0,0.4,0.1c0.2,0.2,0.4,0.3,0.4,0.3c0,0,0,0,0,0c-0.1,0-0.1,0.1-0.2,0.1c-0.1,0.1-0.1,0.2-0.2,0.3c0,0.1-0.1,0.2-0.1,0.3
		c0,0.1,0,0.2,0,0.2c0,0.1,0.1,0.1,0.1,0.2c0.1,0.1,0.1,0.1,0.2,0.1c0.1,0,0.2-0.1,0.2-0.2c0-0.1,0.1-0.2,0.2-0.5c0,0,0,0,0,0
		c0,0,0,0,0,0c0,0.2,0.1,0.3,0.1,0.4c0.3-0.4,0.5-0.8,0.7-1.2c0.1-0.3,0.2-0.6,0.3-0.9c0-0.2,0.1-0.3,0.1-0.4l0-0.2
		c0,0,0-0.1,0.1-0.1c0.1,0,0.3,0.1,0.6,0.2c0.2,0.1,0.3,0.2,0.3,0.3c0,0,0,0.1-0.1,0.1c-0.1,0-0.1,0.1-0.1,0.1
		c-0.3,0.5-0.5,0.9-0.7,1.2c-0.1,0.1-0.2,0.3-0.4,0.4c0.4,0.2,0.6,0.4,0.6,0.5c0,0,0,0.1-0.1,0.2c0,0.1-0.1,0.2-0.1,0.2v2.7
		c0.2,0,0.4-0.1,0.6-0.1c0.1,0,0.2,0,0.4-0.1c0-0.3,0-0.5,0-0.7c-0.1,0-0.2,0-0.2,0c-0.1,0-0.3,0-0.4-0.1c-0.1-0.1-0.1-0.2-0.1-0.3
		c0,0,0-0.1,0.1-0.1c0.2,0,0.4-0.1,0.6-0.1v-0.4c-0.1,0-0.2,0-0.2,0c-0.1,0-0.3,0-0.4-0.1c-0.1-0.1-0.1-0.2-0.1-0.2
		c0,0,0-0.1,0.1-0.1c0.2,0,0.4-0.1,0.6-0.1c0-0.1,0-0.2,0-0.2c0-0.1-0.1-0.2-0.1-0.3c0,0,0-0.1-0.1-0.1c-0.3,0-0.5-0.1-0.6-0.3
		c-0.1-0.1-0.1-0.2-0.1-0.2c0,0,0,0,0,0c0.6,0,1-0.1,1.3-0.2c0.3-0.1,0.5-0.1,0.7-0.2c0,0,0.1,0,0.1,0s0.1,0,0.2,0.1
		c0.1,0.1,0.2,0.2,0.2,0.3c0,0.1,0,0.1,0,0.2c0,0.1-0.1,0.1-0.1,0.1C7.7,78.9,7.4,79,7,79c0.2,0.1,0.4,0.2,0.4,0.3c0,0,0,0.1,0,0.2
		c0,0,0,0.1,0,0.2h0c0.4,0,0.6,0.2,0.6,0.5c0,0,0,0.1-0.1,0.1c-0.2,0-0.4,0.1-0.6,0.1c0,0.1,0,0.2,0,0.4c0.1,0,0.1,0,0.1,0
		C7.8,80.6,8,80.7,8,81c0,0,0,0.1-0.1,0.1c-0.2,0-0.5,0.1-0.7,0.1c0,0.1,0,0.2,0,0.3c0,0.1,0,0.2,0,0.4c0.1,0,0.3-0.1,0.4-0.1
		c0.1,0,0.3-0.1,0.4-0.1c0.1,0,0.3,0,0.4,0.1c0.2,0.1,0.3,0.3,0.3,0.4c0,0,0,0.1-0.1,0.1c-0.1,0.1-0.1,0.1-0.2,0.1
		c-0.6,0-1.1,0-1.5,0.1c-0.3,0-0.6,0.1-0.9,0.1c0,0,0,0-0.1,0c-0.1,0-0.2-0.1-0.3-0.2c0,0,0,0-0.1-0.1v0.8c0,0.1,0,0.3-0.1,0.4
		C5.3,83.9,5.3,84,5.2,84c-0.2,0-0.3-0.2-0.4-0.5c0-0.1-0.1-0.2-0.1-0.2c0-0.2,0.1-0.9,0.2-2c0-0.4,0.1-1,0.1-1.9
		c0-0.2,0-0.4-0.1-0.6c-0.1,0.1-0.2,0.2-0.3,0.2c-0.1,0.1-0.2,0.1-0.2,0.1c0,0.1,0.1,0.1,0.1,0.2c0,0,0.1,0.1,0.1,0.1
		c0,0.1-0.1,0.2-0.2,0.3c-0.1,0.1-0.3,0.2-0.5,0.2c-0.3,0-0.5,0-0.7-0.1C3.1,79.7,3,79.6,3,79.5c0-0.1-0.1-0.2-0.1-0.3
		c0-0.1,0-0.3,0-0.5c0,0,0-0.1,0-0.2c0-0.1,0-0.3,0-0.4H2.8c-0.1,0-0.3,0.1-0.4,0.1c-0.1,0.2-0.1,0.4-0.2,0.5
		c-0.2,0.4-0.4,0.7-0.6,1c-0.2,0.2-0.4,0.4-0.6,0.5c0.1-0.3,0.2-0.5,0.3-0.6c0.1-0.3,0.2-0.6,0.3-0.9c0-0.1,0-0.2,0.1-0.3
		c-0.1,0-0.1,0.1-0.2,0.1c-0.1,0-0.1,0-0.1,0c-0.1,0-0.2-0.1-0.3-0.2c-0.1-0.1-0.2-0.2-0.2-0.3c0,0,0-0.1,0.1-0.1
		c0.2,0,0.4,0,0.6-0.1c0.1,0,0.1,0,0.2-0.1c0-0.2,0.1-0.4,0.1-0.6c0-0.1,0-0.3,0-0.4c0-0.1,0-0.2-0.1-0.3c0-0.1,0-0.1,0-0.1
		C1.8,76.5,1.8,76.5,1.9,76.5z M3.5,81.3c0,0,0.1,0,0.2,0c0.1,0.1,0.3,0.1,0.4,0.2c0.2,0.1,0.3,0.2,0.4,0.3c0.1,0.1,0.1,0.2,0.1,0.3
		c0,0.1,0,0.2-0.1,0.3c-0.1,0.1-0.1,0.1-0.3,0.1c-0.1,0-0.2,0-0.3-0.1c0-0.1-0.1-0.2-0.2-0.3c-0.1-0.3-0.2-0.5-0.2-0.5
		C3.4,81.4,3.4,81.4,3.5,81.3C3.4,81.3,3.4,81.3,3.5,81.3z M6.3,77.2c0.1,0,0.3,0,0.5,0.1c0.2,0.1,0.3,0.1,0.4,0.2
		c0.1,0.1,0.1,0.1,0.1,0.2c0,0.3-0.1,0.4-0.4,0.4c-0.1,0-0.2-0.1-0.4-0.4C6.3,77.5,6.2,77.3,6.3,77.2C6.2,77.2,6.3,77.2,6.3,77.2z"
		/>
	<path class="st13" d="M3.7,89c0.3,0,0.4,0.2,0.4,0.5c0,0.1-0.1,0.1-0.3,0.1c-0.4,0-0.8,0.1-1.2,0.2c-0.4,0.1-0.8,0.2-1.4,0.4
		l-0.1,0c-0.1,0-0.2-0.1-0.3-0.2c-0.2-0.2-0.3-0.3-0.3-0.5c0,0,0,0,0.1,0c0.3,0,0.6,0,0.9-0.1c0.5-0.1,1.2-0.2,2.1-0.4
		C3.6,89,3.6,89,3.7,89z M0.9,92.5c0.2,0,0.3,0,0.6,0.1c0.1,0,0.2,0.1,0.2,0.1c0.1,0,0.2,0,0.3-0.1c0.2,0,0.4-0.1,0.6-0.3
		c0.1-0.1,0.2-0.1,0.2-0.1c0.1,0,0.2,0,0.5,0.1c0.3,0.2,0.4,0.3,0.4,0.3c0,0,0,0.1,0,0.1c-0.2,0.2-0.3,0.4-0.3,0.6
		c0,0.1-0.1,0.2-0.1,0.3l0,0c0.1,0.2,0.2,0.3,0.2,0.4c0,0,0,0-0.1,0c-0.3,0-0.6,0-0.9,0.1c-0.1,0-0.3,0-0.3,0.1v0
		c0,0.3-0.1,0.4-0.3,0.4c-0.1,0-0.2,0-0.3-0.1s-0.1-0.2-0.1-0.2c-0.1-0.2-0.2-0.4-0.2-0.8C1.1,93.3,1.1,93.1,1,93
		c-0.1-0.1-0.1-0.2-0.2-0.3C0.8,92.6,0.8,92.5,0.9,92.5z M2.9,90.2c0.3,0,0.5,0.1,0.5,0.4c0,0.1,0,0.1-0.1,0.1
		c-0.3,0.1-0.6,0.2-0.9,0.3C2.2,91,2,91,1.9,91c-0.1,0-0.2,0-0.3-0.1c-0.1-0.1-0.1-0.1-0.1-0.2c0,0,0-0.1,0.1-0.1
		c0.4-0.1,0.8-0.2,1.1-0.4C2.8,90.2,2.9,90.2,2.9,90.2z M2.9,91.1c0.3,0,0.5,0.1,0.5,0.4c0,0.1,0,0.1-0.1,0.1
		c-0.3,0.1-0.6,0.2-0.9,0.3C2.2,91.9,2,92,1.9,92c-0.1,0-0.2,0-0.3-0.1c-0.1-0.1-0.1-0.1-0.1-0.2c0,0,0-0.1,0.1-0.1
		c0.4-0.1,0.8-0.2,1.1-0.4C2.8,91.2,2.9,91.1,2.9,91.1z M2,93.8c0.1,0,0.2,0,0.2-0.1c0.1,0,0.3-0.1,0.4-0.1c0-0.3,0-0.5,0-0.7
		c0-0.1,0-0.1-0.1-0.1c-0.1,0-0.2,0-0.3,0.1c-0.1,0.1-0.2,0.1-0.3,0.1L2,93.8z M2.4,87.3c0.1,0,0.2,0,0.4,0c0.3,0.1,0.6,0.2,0.8,0.3
		c0.1,0.1,0.2,0.2,0.2,0.4c0,0.1-0.1,0.2-0.2,0.3c-0.1,0.1-0.3,0.1-0.4,0.1c-0.1,0-0.1,0-0.2-0.1c-0.2-0.1-0.4-0.4-0.6-0.9
		C2.3,87.4,2.3,87.4,2.4,87.3C2.3,87.3,2.3,87.3,2.4,87.3z M4.1,92.4C4.2,92.4,4.2,92.4,4.1,92.4c0.1,0.3,0.2,0.4,0.2,0.5
		c0,0.3,0,0.6-0.1,0.9c0,0.2-0.1,0.4-0.1,0.5c0,0.1-0.1,0.1-0.1,0.1c-0.1,0-0.3-0.1-0.4-0.2c0-0.1-0.1-0.2-0.1-0.3
		c0-0.1,0-0.2,0.1-0.3C3.8,93.1,4,92.7,4,92.6C4,92.5,4.1,92.4,4.1,92.4z M7.3,89.1c0.1,0,0.3,0.1,0.5,0.2c0.1,0.1,0.2,0.2,0.2,0.4
		c0,0.2,0,0.3-0.1,0.3c-0.5,0-1,0-1.5,0.1c0,0.3,0,0.6,0,0.9c0.1,0,0.2-0.1,0.4-0.1c0.1,0,0.2,0,0.2,0c0.1,0,0.3,0,0.4,0.1
		c0.1,0.1,0.2,0.2,0.2,0.4c0,0.1,0,0.2-0.1,0.2c-0.6,0-1.1,0-1.7,0.1c-0.2,0-0.5,0.1-0.7,0.1c-0.1,0-0.2,0-0.2,0
		c-0.1,0-0.2-0.1-0.4-0.2c-0.1-0.1-0.2-0.2-0.2-0.3c0,0,0,0,0,0c0.4-0.1,0.8-0.1,1.1-0.2c0-0.4,0-0.7,0-0.9c-0.2,0-0.5,0.1-0.7,0.1
		c-0.1,0-0.2,0.1-0.2,0.1c-0.1,0-0.2-0.1-0.4-0.2C4.1,90,4,89.9,4,89.8c0,0,0,0,0.1,0c0.6-0.1,1-0.2,1.5-0.3c0-0.3,0-0.5,0-0.7
		c0-0.5,0-0.8-0.1-0.9c-0.1-0.2-0.1-0.3-0.2-0.4s-0.1-0.2-0.1-0.2c0-0.1,0.1-0.2,0.2-0.2c0.2,0,0.5,0.1,0.7,0.2
		c0.3,0.1,0.5,0.2,0.5,0.3c0,0.1,0,0.1,0,0.2c-0.1,0.2-0.1,0.7-0.2,1.6c0.2,0,0.4-0.1,0.6-0.2C7.1,89.1,7.2,89.1,7.3,89.1z
		 M4.6,92.4c0.3,0,0.4,0.1,0.5,0.2c0,0.3,0.1,0.5,0.2,0.6c0.1,0.2,0.1,0.3,0.2,0.4c0.1,0.1,0.3,0.2,0.4,0.3c0.2,0.1,0.4,0.1,0.6,0.1
		c0.3,0,0.6,0,0.8-0.1c0.1,0,0.1,0,0.1-0.1l-0.1-0.9v-0.1c0,0,0,0,0.1,0c0.2,0.3,0.5,0.6,0.8,0.9c0.1,0.1,0.1,0.1,0.2,0.1
		c0.1,0,0.2,0.2,0.2,0.4c0,0.1,0,0.1-0.1,0.2c-0.1,0.1-0.2,0.1-0.3,0.2c-0.4,0.1-0.8,0.1-1.1,0.1c-0.2,0-0.4,0-0.6-0.1
		c-0.2,0-0.4-0.1-0.5-0.2c-0.2-0.1-0.4-0.2-0.5-0.4c-0.1-0.1-0.2-0.3-0.3-0.4c-0.1-0.2-0.1-0.4-0.2-0.6C4.7,92.9,4.6,92.7,4.6,92.4
		C4.5,92.4,4.5,92.4,4.6,92.4z M5.5,92c0.1,0,0.2,0,0.3,0c0.3,0.1,0.4,0.2,0.6,0.3c0.1,0.1,0.2,0.3,0.2,0.5c0,0.1,0,0.1-0.1,0.2
		c-0.1,0.1-0.2,0.1-0.2,0.1c-0.1,0-0.1,0-0.2-0.1c-0.1-0.1-0.3-0.4-0.5-0.8C5.5,92.1,5.5,92.1,5.5,92C5.5,92,5.5,92,5.5,92z
		 M7.2,91.8c0.1,0,0.1,0,0.2,0c0.2,0.1,0.4,0.2,0.6,0.3c0.3,0.2,0.4,0.3,0.5,0.4c0.1,0.1,0.1,0.2,0.1,0.4c0,0.1,0,0.2-0.1,0.3
		c-0.1,0.1-0.2,0.1-0.3,0.1c-0.1,0-0.2,0-0.3-0.1C8,93.1,7.9,93,7.7,92.8c-0.2-0.4-0.3-0.6-0.4-0.7C7.2,92,7.2,91.9,7.2,91.8
		C7.2,91.8,7.2,91.8,7.2,91.8z"/>
	<path class="st13" d="M5.7,101.7c0,0.3-0.1,0.6-0.4,0.8c-0.2,0.2-0.5,0.4-0.8,0.4c-0.3,0-0.6-0.1-0.8-0.3c-0.2-0.2-0.3-0.5-0.3-0.8
		c0-0.3,0.1-0.6,0.3-0.9c0.2-0.2,0.5-0.3,0.9-0.3c0.3,0,0.6,0.1,0.8,0.3C5.6,101.1,5.7,101.4,5.7,101.7z"/>
	<path class="st13" d="M3.1,108.7c0.1,0,0.3,0.1,0.7,0.2c0.3,0.1,0.4,0.3,0.4,0.4c0,0.1,0,0.1-0.1,0.2c-0.3,0.1-0.5,0.2-0.6,0.2
		c-0.1,0-0.3,0.1-0.6,0.2c-0.4,0.2-0.7,0.3-0.9,0.3v0c0,0,0,0.1,0,0.1c0,0.1-0.1,0.2-0.1,0.4l0,0.7c0.1,0,0.2-0.1,0.4-0.1
		c0.3,0,0.5-0.1,0.8-0.2c0.1,0,0.1,0,0.2,0c0.1,0,0.3,0,0.4,0.1c0.1,0.1,0.2,0.2,0.2,0.3c0,0.1,0,0.2-0.1,0.2c-0.4,0-0.8,0-1.2,0.1
		c-0.2,0-0.3,0-0.5,0.1c0,0,0,0-0.1,0v1.3c0,0.1,0.1,0.1,0.2,0.1c0.1,0,0.3,0,0.8-0.1c0.4-0.1,0.6-0.1,0.7-0.1c0.1,0,0.2,0,0.3,0.1
		c0.1,0.1,0.2,0.2,0.2,0.4c0,0.2-0.1,0.3-0.2,0.3l-1-0.1c-0.5,0-0.7,0-0.9,0.1c-0.1,0-0.1,0.1-0.2,0.1c0,0,0,0-0.1,0
		c-0.1,0-0.3-0.1-0.4-0.2c-0.2-0.1-0.2-0.2-0.2-0.4c0,0,0,0,0-0.1c0,0,0-0.1,0.1-0.2c0-0.1,0-0.2,0-0.3c0-0.7,0-1.4-0.1-2.2
		c0-0.2,0-0.4-0.1-0.6c0-0.2-0.1-0.3-0.2-0.5c0-0.1,0-0.1,0.1-0.1c0.2,0,0.4,0.1,0.6,0.2c0.1,0,0.1,0,0.2,0.1
		c0.2-0.1,0.4-0.2,0.5-0.3c0.2-0.1,0.4-0.3,0.5-0.5C2.9,109.2,3,109,3.1,108.7C3,108.8,3,108.7,3.1,108.7z M7.4,109.9
		c0.1,0,0.2,0.1,0.6,0.3c0.3,0.2,0.5,0.4,0.5,0.5c0,0,0,0.1,0,0.1c-0.1,0.1-0.2,0.3-0.2,0.4c-0.1,0.7-0.2,1.2-0.3,1.6
		c-0.1,0.3-0.2,0.6-0.3,0.7c-0.1,0.1-0.2,0.2-0.3,0.3c-0.1,0.1-0.2,0.1-0.2,0.1c-0.1,0-0.2,0-0.2-0.1c-0.2-0.4-0.4-0.8-0.7-1
		c0,0-0.1-0.1-0.1-0.1c0,0,0-0.1,0-0.1c0.4,0.1,0.6,0.2,0.7,0.2c0.1,0,0.1-0.1,0.2-0.4c0.1-0.2,0.1-0.5,0.2-0.9c0-0.2,0-0.4,0-0.5
		c0-0.2-0.1-0.3-0.3-0.3c-0.1,0-0.3,0-0.4,0c-0.2,0-0.4,0.1-0.7,0.2c0,0,0,0-0.1,0c0,0.1-0.1,0.3-0.1,0.5c0,1.8,0,2.9-0.1,3.4
		c0,0.5-0.1,1-0.2,1.3c-0.1,0.3-0.2,0.5-0.3,0.5c-0.1,0-0.2-0.2-0.2-0.5c-0.1-0.1-0.1-1.8-0.1-5c0-0.4-0.1-0.7-0.2-0.9
		c0,0,0-0.1,0.1-0.1c0.2,0,0.4,0,0.6,0.1c0.1,0,0.2,0.1,0.3,0.1c0.2,0,0.6-0.1,0.9-0.1c0.2,0,0.4-0.1,0.7-0.3
		C7.3,109.9,7.3,109.9,7.4,109.9z"/>
	<path class="st13" d="M4.1,120c0.1,0,0.3,0.1,0.6,0.2c0.4,0.2,0.5,0.3,0.5,0.4c0,0,0,0.1-0.1,0.1c-0.3,0.2-0.5,0.4-0.6,0.6
		c-0.1,0.1-0.2,0.3-0.2,0.4c0.1,0.2,0.2,0.3,0.2,0.4c0,0,0,0.1-0.1,0.1c-0.5,0-0.9,0-1.4,0.1c-0.3,0.1-0.6,0.1-0.7,0.1
		c-0.1,0.4-0.1,0.8-0.2,1.1c0.1,0,0.1,0,0.2,0.1c0,0,0,0,0,0c0.1,0,0.4-0.1,0.6-0.1v-0.2c0-0.2,0-0.4-0.1-0.4
		c-0.1-0.1-0.1-0.2-0.1-0.3c0-0.1,0-0.1,0.1-0.1c0.2,0,0.4,0,0.6,0.1c0.2,0.1,0.3,0.2,0.3,0.2c0,0.1,0,0.1-0.1,0.2
		c0,0.1-0.1,0.2-0.1,0.3v0c0.1,0,0.3-0.1,0.5-0.2c0,0,0.1,0,0.1,0c0.1,0,0.2,0.1,0.5,0.2c0.3,0.2,0.5,0.3,0.5,0.4c0,0,0,0.1-0.1,0.1
		c-0.1,0.2-0.2,0.4-0.2,0.5c0,0,0,0.1,0,0.2c0,0.2,0,0.3,0,0.3c0,0.3-0.1,0.6-0.2,0.8c-0.2,0.2-0.3,0.3-0.4,0.3c0,0-0.1,0-0.1-0.1
		c-0.2-0.3-0.3-0.5-0.5-0.6c0,0,0-0.1,0-0.1c0,0,0-0.1,0-0.1c0.2,0,0.3,0.1,0.3,0.1l0.1-0.1c0-0.1,0-0.4,0-0.7c0-0.2,0-0.3,0-0.4
		c0-0.1-0.1-0.1-0.1-0.1c-0.1,0-0.2,0-0.4,0.1c0,0,0,0,0,0c0,0.9,0,1.9,0,2.7c0,0.3,0,0.5-0.1,0.5c-0.1,0.1-0.2,0.2-0.3,0.2
		c-0.1,0-0.2-0.1-0.3-0.2c-0.1-0.1-0.1-0.3-0.1-0.6c0-0.1,0-0.1,0-0.3c0-0.2,0.1-0.3,0.1-0.4c0-0.6,0-1.2,0-1.8
		c-0.2,0-0.3,0.1-0.4,0.1c0,0.1-0.1,0.2-0.1,0.3c0,0.4,0,0.7,0,1.1c0,0.3,0,0.4-0.1,0.5c-0.1,0.1-0.2,0.2-0.3,0.2
		c-0.1,0-0.2-0.1-0.2-0.2c-0.1-0.1-0.1-0.3-0.1-0.5c0,0,0,0,0-0.1c0-0.1,0.1-0.1,0.1-0.1c0-0.2,0.1-0.5,0.1-0.8
		c-0.1,0.3-0.3,0.6-0.5,0.9c-0.2,0.4-0.6,0.7-1,1c0,0-0.1,0.1-0.1,0.1v0c0.2-0.3,0.4-0.7,0.6-1.1c0.3-0.7,0.5-1.3,0.6-2
		c0.1-0.7,0.2-1.3,0.2-2c0-0.2,0-0.3-0.1-0.4c-0.1-0.1-0.1-0.1-0.1-0.2c0-0.1,0-0.1,0.1-0.1c0.2,0,0.4,0,0.7,0.1c0,0,0,0,0,0
		c0.2,0,0.4-0.1,0.6-0.1c0.3,0,0.6-0.1,0.8-0.3C3.9,120,4,120,4.1,120z M2.6,121c0,0.3-0.1,0.5-0.1,0.8c0.1,0,0.3-0.1,0.5-0.1
		c0.3-0.1,0.5-0.1,0.7-0.2c0.2-0.3,0.2-0.5,0.2-0.7c0,0,0-0.1-0.1-0.1c-0.1,0-0.3,0-0.5,0.1C3,121,2.8,121,2.6,121z M5.7,121.5
		c0.2,0,0.4,0.1,0.6,0.2c0.2,0.1,0.3,0.2,0.3,0.2c0,0.1,0,0.1-0.1,0.2c0,0.1-0.1,0.2-0.1,0.3v1.6c0,0.3,0,0.5-0.1,0.5
		c-0.1,0.1-0.2,0.2-0.3,0.2c-0.1,0-0.2-0.1-0.3-0.2c-0.1-0.1-0.1-0.4-0.1-0.6c0,0,0-0.1,0-0.1c0-0.1,0.1-0.1,0.1-0.2
		c0-0.3,0.1-0.7,0.1-1.1c0-0.2,0-0.4-0.1-0.5c-0.1-0.1-0.1-0.2-0.1-0.3C5.6,121.5,5.6,121.5,5.7,121.5z M7.1,119.7
		c0.2,0,0.5,0.1,0.9,0.2c0.3,0.1,0.4,0.2,0.4,0.3c0,0,0,0.1,0,0.1c-0.1,0.4-0.2,0.7-0.3,1c0,0.4-0.1,0.9-0.1,1.3
		c0,1.3,0.1,2.5,0.2,3.4c0,0.3-0.1,0.6-0.3,0.9c-0.2,0.2-0.3,0.3-0.4,0.3c-0.2,0-0.3-0.1-0.4-0.2c-0.1-0.2-0.5-0.5-1.1-1
		c0-0.1,0-0.1,0.1-0.1c0.4,0.1,0.6,0.2,0.7,0.2c0,0,0.1-0.1,0.1-0.2c0-0.2,0.1-0.5,0.1-1.1c0-0.8,0-1.7,0-2.5c0-0.5,0-1-0.1-1.3
		c0-0.4-0.1-0.7-0.3-0.9c0,0,0-0.1,0-0.1C6.9,119.8,6.9,119.7,7.1,119.7z"/>
	<path class="st13" d="M3.8,130.3c0.2,0,0.5,0.1,0.8,0.2c0.2,0.1,0.3,0.2,0.3,0.3c0,0,0,0.1-0.1,0.1c0,0.1-0.1,0.2-0.2,0.3
		c0,0,0,0,0,0c0.1,0.1,0.2,0.2,0.3,0.3c0.5,0.5,0.9,0.9,1.4,1.2c0.5,0.4,1.2,0.7,2.3,1.2v0.1c0,0-0.1,0.1-0.2,0.1
		c-0.6,0.1-1.2,0.1-1.7,0.1c-0.2,0-0.3,0-0.4-0.1c-0.4-0.4-0.9-1-1.5-1.9c-0.1-0.2-0.3-0.3-0.4-0.5c0,0,0,0,0,0
		c-0.3,0.4-0.6,0.9-1,1.2c-0.5,0.5-1,1-1.5,1.3c-0.4,0.3-0.8,0.5-1.2,0.7c-0.2,0.1-0.3,0.1-0.3,0.1v0c0.6-0.5,1.2-1,1.7-1.6
		c0.3-0.4,0.6-0.7,0.9-1.2c0.3-0.4,0.5-0.8,0.6-1.1c0.1-0.1,0.1-0.3,0.1-0.3c-0.1-0.1-0.1-0.2-0.1-0.3
		C3.6,130.4,3.7,130.3,3.8,130.3z M5.4,133.6c0.1,0,0.2,0,0.3,0.1c0.2,0.1,0.2,0.2,0.2,0.3c0,0.1,0,0.1,0,0.2c0,0.1-0.1,0.1-0.1,0.1
		c-0.3,0.1-0.6,0.1-0.9,0.1c0,0,0.1,0.1,0.1,0.1c0,0,0,0.1,0,0.2c0,0.1-0.1,0.3-0.1,0.5c0.1,0,0.2,0,0.2,0c0.6,0,0.8,0.2,0.8,0.6
		c0,0.1,0,0.1-0.1,0.1c-0.3,0.1-0.7,0.1-1,0.2c0,0.3,0,0.6,0,0.9c0.7-0.1,1.3-0.2,1.7-0.2c0.1,0,0.1,0,0.1,0c0.2,0,0.4,0.1,0.6,0.2
		c0.2,0.2,0.3,0.4,0.3,0.5c0,0.2-0.1,0.3-0.3,0.3c-0.2,0-0.4,0-0.8-0.1c-0.2,0-0.4-0.1-0.6-0.1c-0.8,0-1.5,0-2,0.1
		c-0.5,0-0.9,0.1-1.3,0.2c-0.1,0-0.2,0-0.3,0c-0.2,0-0.3-0.1-0.5-0.3c-0.1-0.2-0.2-0.3-0.2-0.4c0,0,0-0.1,0.1-0.1
		c0.4,0,1.1-0.1,2.3-0.2c0,0,0.1,0,0.1,0c0-0.4,0-0.7,0-0.9c-0.2,0-0.4,0-0.5,0c-0.2,0-0.4-0.1-0.5-0.2c-0.1-0.1-0.2-0.2-0.2-0.4
		c0-0.1,0-0.1,0.1-0.1c0.4,0,0.7-0.1,1-0.2c0-0.4,0-0.6,0-0.7c0-0.1,0-0.1-0.1-0.2c-0.1,0-0.1,0-0.2,0c-0.4,0-0.6-0.1-0.7-0.3
		c-0.1-0.1-0.1-0.2-0.1-0.3s0-0.1,0.1-0.1c0.7,0,1.2-0.1,1.6-0.2c0.3-0.1,0.6-0.1,0.8-0.2C5.2,133.6,5.3,133.6,5.4,133.6z"/>
	<path class="st13" d="M2.8,141c0.1,0,0.3,0,0.6,0.1c0.3,0.1,0.4,0.3,0.4,0.3c0,0.1,0,0.1-0.1,0.2c-0.1,0.1-0.2,0.2-0.3,0.3
		c-0.3,0.4-0.6,0.6-0.8,0.8c0.2-0.1,0.4-0.1,0.6-0.2c0.1-0.1,0.2-0.1,0.3-0.1c0.1,0,0.3,0,0.5,0.1c0.3,0.1,0.4,0.2,0.4,0.3
		c0,0,0,0.1-0.1,0.1c-0.1,0.3-0.2,0.8-0.2,1.6c0.2,0,0.2,0,0.2,0.1c0,0.1,0,0.1-0.1,0.1c0,0-0.1,0-0.1,0.1c0,0.3,0,0.6,0.1,1.2
		c0.1,0.5,0.1,0.9,0.1,1.1c0,0.4-0.1,0.7-0.3,1c0,0,0,0,0,0c0,0,0.1,0,0.1,0c0.2-0.1,0.5-0.2,0.8-0.4c0.3-0.2,0.5-0.4,0.7-0.6
		c-0.2-0.2-0.3-0.4-0.5-0.6c-0.2-0.3-0.4-0.4-0.6-0.6c-0.1,0-0.1-0.1-0.1-0.3c0,0,0.1-0.1,0.3-0.1c0.1,0,0.2,0,0.3,0.1
		c0.1,0.1,0.3,0.3,0.4,0.4c0.1,0.2,0.3,0.4,0.5,0.6c0.2-0.3,0.3-0.7,0.5-1.2c0-0.1,0-0.1-0.1-0.1c-0.6,0.1-0.9,0.2-1.1,0.2
		c-0.1,0-0.2,0-0.3-0.1c-0.1,0-0.2-0.1-0.2-0.2c0,0,0-0.1,0.1-0.1c0.5-0.1,1.1-0.2,1.7-0.5c0.1,0,0.3,0.1,0.6,0.2
		c0.3,0.2,0.5,0.4,0.5,0.5c0,0.1,0,0.1-0.1,0.1c-0.3,0.2-0.4,0.4-0.5,0.5c-0.2,0.4-0.5,0.8-0.7,1.1c0.5,0.4,1.3,0.7,2.3,1.1
		c0,0.1-0.1,0.2-0.2,0.2c-0.8,0.2-1.3,0.2-1.5,0.2c-0.2,0-0.3,0-0.4-0.1c-0.2-0.3-0.5-0.6-0.8-0.9c-0.3,0.2-0.5,0.4-0.8,0.5
		c-0.3,0.2-0.7,0.2-1,0.2c-0.1,0-0.1,0-0.1-0.1c-0.2,0.2-0.3,0.3-0.5,0.3c-0.1,0-0.1,0-0.1-0.1c-0.2-0.3-0.5-0.6-0.7-0.9
		c0,0,0,0,0,0c0,0,0,0,0,0c0.2,0,0.4,0.1,0.6,0.1c0.1,0,0.1-0.3,0.1-0.8c0-0.6,0-1.1,0-1.5c-0.1,0-0.3,0.1-0.4,0.1
		c-0.2,0.1-0.4,0.1-0.6,0.2c0,0.1,0,0.1,0,0.2c-0.1,0.6-0.2,1.1-0.3,1.4c-0.2,0.5-0.5,0.8-0.8,1.1c-0.2,0.2-0.4,0.3-0.4,0.3h0
		c0.1-0.2,0.3-0.4,0.4-0.7c0.2-0.4,0.3-0.8,0.4-1.2c0-0.2,0.1-0.5,0.1-0.8c-0.2,0.1-0.4,0.2-0.5,0.2c-0.1,0-0.1,0-0.1,0
		c-0.1,0-0.2-0.1-0.4-0.4c-0.1-0.2-0.2-0.3-0.2-0.4c0,0,0-0.1,0.1-0.1c0,0,0.1,0,0.2,0.1c0.1,0,0.4,0,0.8-0.1c0.1,0,0.2,0,0.3,0
		c0-0.3,0-0.6,0-1c0-0.3,0-0.6-0.1-0.9c0-0.2-0.1-0.3-0.2-0.5c0,0,0-0.1,0-0.1c0-0.1,0.1-0.1,0.2-0.1c0.2,0,0.4,0,0.5,0.1
		c0.1,0,0.1,0,0.1,0c0-0.1,0.1-0.3,0.1-0.4c0.1-0.3,0.2-0.5,0.2-0.8c0-0.2,0.1-0.3,0.1-0.3c0,0,0-0.1,0-0.1c0,0,0-0.1,0-0.1
		C2.7,141.1,2.7,141,2.8,141z M2.3,145.2c0.3-0.1,0.7-0.1,1-0.2v-1.7c0-0.1,0-0.1-0.1-0.1c-0.3,0-0.5,0.1-0.7,0.1l-0.1,0.1
		c-0.1,0.1-0.1,0.2-0.1,0.3C2.4,144.2,2.4,144.7,2.3,145.2z M2.5,143.8c0,0,0.1,0,0.2,0c0.2,0.1,0.3,0.1,0.3,0.2
		c0.1,0.1,0.1,0.2,0.1,0.3c0,0.1,0,0.1-0.1,0.2c-0.1,0.1-0.2,0.1-0.3,0.1c0,0,0,0-0.1-0.1c0-0.1-0.1-0.3-0.2-0.7
		C2.5,143.9,2.5,143.9,2.5,143.8C2.5,143.8,2.5,143.8,2.5,143.8z M2.5,145.7c0,0,0.1,0,0.2,0c0.2,0.1,0.3,0.1,0.4,0.2
		c0.1,0.1,0.1,0.2,0.1,0.4c0,0.1,0,0.1-0.1,0.2c-0.1,0.1-0.2,0.1-0.3,0.1c0,0-0.1,0-0.1-0.1c-0.1-0.1-0.1-0.4-0.2-0.7
		C2.5,145.8,2.5,145.8,2.5,145.7C2.5,145.7,2.5,145.7,2.5,145.7z M4.7,142.2c0.2,0,0.4,0,0.6,0.1c0.2,0,0.3-0.1,0.4-0.1
		c0.1-0.1,0.3-0.2,0.5-0.3c0,0,0.1,0,0.1,0c0.1,0,0.3,0.1,0.6,0.2c0.3,0.1,0.5,0.2,0.5,0.3c0,0,0,0.1,0,0.1
		c-0.1,0.2-0.2,0.3-0.2,0.4c0,0.2-0.1,0.3-0.1,0.5c0,0.1,0,0.2,0,0.3c0,0.1,0.1,0.1,0.3,0.1c0.1,0,0.2,0,0.3-0.1
		c0.1-0.1,0.1-0.1,0.2-0.1c0.1,0,0.2,0.1,0.4,0.2c0.2,0.1,0.2,0.2,0.2,0.4c0,0-0.1,0.1-0.2,0.2c-0.3,0.1-0.5,0.1-0.8,0.1
		c-0.5,0-0.8-0.1-0.9-0.2c-0.1-0.1-0.2-0.2-0.3-0.4c0-0.1-0.1-0.3-0.1-0.5c0-0.1,0-0.3,0-0.4c0-0.2,0-0.3,0-0.4c0-0.1,0-0.1-0.1-0.1
		c-0.2,0.1-0.4,0.2-0.6,0.2v0c0,0.4,0,0.7-0.1,0.9c0,0.3-0.1,0.5-0.2,0.6c-0.1,0.2-0.3,0.4-0.5,0.5c-0.1,0.1-0.2,0.1-0.3,0.1
		c0.1-0.1,0.1-0.2,0.1-0.3c0.1-0.2,0.1-0.4,0.2-0.6c0.1-0.2,0.1-0.6,0.1-1.1c0-0.1,0-0.3-0.1-0.4c0-0.1-0.1-0.2-0.2-0.2c0,0,0,0,0,0
		C4.5,142.2,4.6,142.2,4.7,142.2z"/>
	<path class="st13" d="M5.7,155.7c0,0.3-0.1,0.6-0.4,0.8c-0.2,0.2-0.5,0.4-0.8,0.4c-0.3,0-0.6-0.1-0.8-0.3c-0.2-0.2-0.3-0.5-0.3-0.8
		c0-0.3,0.1-0.6,0.3-0.9c0.2-0.2,0.5-0.3,0.9-0.3c0.3,0,0.6,0.1,0.8,0.3C5.6,155.1,5.7,155.4,5.7,155.7z"/>
	<path class="st13" d="M7.6,164.2c0,0.1-0.1,0.2-0.3,0.3c-0.1,0.1-0.2,0.2-0.3,0.5c-0.5,1.1-1.1,1.9-1.8,2.6
		c-0.6,0.5-1.2,0.9-1.9,1.2c0.4-0.3,0.7-0.7,1.1-1.1c0.6-0.7,1.1-1.6,1.6-2.5c0.2-0.5,0.4-0.9,0.4-1c0-0.1-0.1-0.1-0.2-0.1
		c-0.2,0-0.6,0-1.2,0.1c-0.5,0.1-0.9,0.2-1.1,0.3c-0.2,0.1-0.4,0.2-0.5,0.2c-0.2-0.1-0.4-0.1-0.4-0.1c-0.1,0-0.1,0-0.1,0.1
		c0,0.1,0,0.2,0.1,0.4c0.1,0.2,0.1,0.4,0.1,0.4c0,0.1,0,0.2,0.1,0.3c0,0.3-0.1,0.4-0.4,0.4c-0.1,0-0.2,0-0.3-0.1l-0.2-0.2
		c-0.1-0.1-0.1-0.2-0.1-0.5c0-0.1,0-0.3-0.1-0.6c0-0.2-0.1-0.4-0.2-0.5c-0.1-0.1-0.1-0.2-0.1-0.3c0-0.1,0.1-0.1,0.2-0.1
		c0,0,0.2,0,0.4,0.1c0.2,0.1,0.3,0.1,0.4,0.1s0.6-0.1,1.3-0.3c0-0.1,0-0.3,0-0.6c0-0.3-0.1-0.6-0.2-0.7c-0.1-0.1-0.1-0.2-0.1-0.2
		c0-0.1,0.1-0.2,0.3-0.2c0.1,0,0.4,0,0.7,0.1c0.2,0.1,0.4,0.2,0.4,0.4c0,0,0,0.1-0.1,0.2C5,163,5,163.2,5,163.4c0,0.2,0,0.3,0,0.4
		c0.1,0,0.3-0.1,0.5-0.1c0.2,0,0.4-0.1,0.7-0.3c0.2-0.1,0.3-0.1,0.4-0.1c0.1,0,0.2,0,0.4,0.1c0.2,0.2,0.3,0.3,0.4,0.4
		C7.5,164,7.6,164.1,7.6,164.2z"/>
	<path class="st13" d="M8.7,173.8c0,0.2-0.1,0.2-0.4,0.2H7.5c-0.8,0-1.4,0-1.9,0.1c0,0-0.5,0.1-1.5,0.2c-0.2,0-0.3-0.1-0.5-0.2
		c-0.2-0.1-0.3-0.2-0.3-0.3c0-0.1,0.1-0.2,0.3-0.2c0.5,0,1.1-0.1,2-0.2c0,0,0-0.1,0-0.2c0-0.4,0-0.7-0.1-0.9
		c-0.3,0.1-0.4,0.1-0.5,0.1c-0.2,0-0.3,0-0.5-0.1c-0.1-0.1-0.2-0.2-0.2-0.4c0-0.1,0.1-0.1,0.3-0.1c0.2,0,0.5-0.1,0.9-0.2
		c0,0,0.2-0.1,0.6-0.2c0.3-0.1,0.5-0.2,0.6-0.2c0.3,0,0.4,0.1,0.5,0.4c0,0.2-0.3,0.3-0.8,0.5c-0.1,0-0.2,0.1-0.3,0.1
		c0.1,0.1,0.1,0.2,0.2,0.2c0,0.1-0.1,0.1-0.1,0.1c0,0,0,0.1,0,0.1c0,0.2-0.1,0.4-0.1,0.8c0.9-0.1,1.4-0.2,1.6-0.2
		c0.2,0,0.3,0.1,0.5,0.2C8.6,173.5,8.7,173.6,8.7,173.8z"/>
	<path class="st13" d="M7.4,179.2c0,0.1-0.1,0.2-0.2,0.3c-0.2,0.1-0.3,0.4-0.5,0.8c-0.3,0.7-0.6,1.2-0.9,1.5
		c-0.2,0.3-0.5,0.6-0.9,0.9c-0.4,0.3-1,0.6-1.8,1c0.8-0.7,1.3-1.3,1.7-1.8c0.4-0.5,0.6-1,0.9-1.4c0.3-0.7,0.5-1.1,0.5-1.2
		c0-0.1-0.1-0.2-0.2-0.2c-0.3,0-0.8,0.1-1.6,0.3c-0.8,0.2-1.4,0.4-1.7,0.4c-0.3,0-0.5-0.1-0.7-0.3c-0.1-0.2-0.2-0.3-0.2-0.4
		c0-0.1,0-0.1,0.1-0.1c0,0,0,0,0.1,0.1c0.1,0,0.2,0,0.4,0c0.6,0,1.4-0.1,2.3-0.3c0.8-0.1,1.3-0.3,1.6-0.4c0.2-0.1,0.3-0.1,0.3-0.1
		c0.1,0,0.3,0.1,0.5,0.4C7.2,178.9,7.4,179.1,7.4,179.2z M8.2,178c0,0.2-0.1,0.4-0.4,0.4c-0.1,0-0.2,0-0.3-0.1s-0.3-0.4-0.7-0.8
		c0.5,0,0.8,0.1,1.1,0.2C8,177.7,8.1,177.8,8.2,178z M9,177.3c0,0.2-0.1,0.3-0.4,0.4c-0.1,0-0.2,0-0.3-0.1c-0.1-0.1-0.4-0.4-0.7-0.9
		c0.5,0,0.9,0.1,1.1,0.2C8.9,176.9,9,177.1,9,177.3z"/>
	<path class="st13" d="M4.3,186.4l0.9,0.1c0,0.1-0.1,0.2-0.2,0.2v7.4H4.3V186.4z"/>
	<path class="st13" d="M0.6,202.8c0.1,0,0.2,0,0.3,0.1c0.2,0.1,0.4,0.3,0.6,0.4c0.1,0.2,0.1,0.4,0.1,0.7c0,0.1,0,0.2-0.1,0.3
		c-0.1,0.1-0.2,0.1-0.3,0.1c0,0-0.1-0.1-0.1-0.2c-0.1-0.2-0.2-0.6-0.4-1.2C0.5,203,0.5,202.9,0.6,202.8
		C0.5,202.8,0.6,202.8,0.6,202.8z M2.2,197.3c0.2,0,0.4,0.1,0.6,0.2c0.2,0.1,0.3,0.2,0.3,0.4c0,0,0,0.1-0.1,0.1
		c-0.3,0.3-0.7,0.9-1.2,1.7c0,0-0.1,0.1-0.1,0.1l0.8-0.1c0.1-0.2,0.2-0.4,0.3-0.6c0,0,0-0.2,0-0.3c0-0.1,0-0.1,0.1-0.1
		c0.2,0,0.3,0.1,0.5,0.2c0.2,0.1,0.3,0.2,0.3,0.4c0,0,0,0.1-0.1,0.1c-0.1,0.1-0.3,0.2-0.4,0.4c-0.4,0.5-0.8,1.1-1.3,1.6
		c0.3-0.1,0.5-0.2,0.8-0.3c0-0.1-0.1-0.2-0.1-0.2c0-0.1,0-0.1,0-0.1c0,0,0-0.1,0.1-0.1c0.1,0,0.2,0,0.3,0.1c0.2,0.1,0.4,0.2,0.5,0.3
		c0.1,0.1,0.1,0.3,0.1,0.5c0,0.1,0,0.2-0.1,0.2c-0.1,0.1-0.2,0.1-0.3,0.1c-0.1,0-0.1,0-0.1-0.1c-0.1-0.1-0.1-0.2-0.2-0.3
		c-0.2,0.1-0.4,0.1-0.6,0.3c-0.3,0.1-0.5,0.3-0.6,0.4c-0.1,0-0.1,0.1-0.2,0.1c0,0.1-0.1,0.1-0.1,0.1c-0.1,0-0.3-0.1-0.4-0.3
		c-0.1-0.2-0.2-0.3-0.2-0.4c0-0.1,0-0.1,0-0.1c0.3-0.2,0.4-0.3,0.5-0.4c0.2-0.2,0.4-0.5,0.8-1c-0.4,0.1-0.7,0.3-0.9,0.5
		c-0.2,0-0.3-0.1-0.4-0.2c-0.1-0.1-0.1-0.2-0.1-0.4c0-0.1,0-0.1,0.1-0.1c0.2-0.1,0.4-0.4,0.7-0.8c0.1-0.2,0.3-0.6,0.4-1.1
		c0.1-0.2,0.1-0.3,0.1-0.3c0-0.1,0-0.1,0-0.2C2,197.3,2.1,197.3,2.2,197.3z M1.7,202.5c0.1,0,0.2,0,0.2,0.1c0.2,0.1,0.4,0.2,0.5,0.3
		c0.1,0.1,0.1,0.3,0.1,0.5c0,0.1,0,0.2-0.1,0.2c-0.1,0.1-0.2,0.1-0.3,0.1c-0.1,0-0.1,0-0.1-0.1c-0.1-0.1-0.2-0.4-0.4-0.9
		C1.6,202.6,1.6,202.6,1.7,202.5C1.6,202.5,1.6,202.5,1.7,202.5z M2.6,202c0.1,0,0.1,0,0.2,0c0.2,0.1,0.4,0.2,0.5,0.3
		c0.1,0.1,0.1,0.2,0.1,0.4c0,0.1,0,0.1-0.1,0.2c-0.1,0.1-0.2,0.1-0.3,0.1c0,0-0.1,0-0.1-0.1c-0.1-0.1-0.2-0.4-0.4-0.8
		C2.6,202.1,2.5,202.1,2.6,202C2.6,202.1,2.6,202,2.6,202z M4.1,202.7c0,0,0.1,0,0.1,0.1c0.1,0.2,0.2,0.4,0.2,0.5
		c0,0.2,0,0.4-0.1,0.7c0,0.2-0.1,0.3-0.2,0.4c-0.1,0.1-0.1,0.1-0.2,0.1c-0.2,0-0.3-0.1-0.4-0.2c-0.1-0.1-0.1-0.2-0.1-0.3
		c0-0.1,0-0.2,0.1-0.3c0.4-0.4,0.5-0.7,0.6-0.8C4,202.8,4.1,202.7,4.1,202.7z M4.8,197.6c0.1,0,0.2,0,0.5,0.1
		c0.3,0.1,0.4,0.2,0.4,0.3c0,0,0,0.1-0.1,0.1c-0.1,0.1-0.2,0.2-0.4,0.4c-0.3,0.4-0.5,0.6-0.8,0.8c-0.1,0.1-0.3,0.2-0.5,0.3
		c-0.1,0-0.1,0.1-0.1,0.1c0,0,0,0,0,0c0.2-0.2,0.3-0.5,0.5-0.7c0.2-0.3,0.3-0.6,0.4-0.9c0-0.1,0.1-0.2,0.1-0.4
		C4.7,197.7,4.8,197.6,4.8,197.6z M5.5,198.9c0.2,0,0.4,0,0.6,0.1c0.2,0.1,0.3,0.2,0.3,0.2c0,0.1,0,0.1-0.1,0.2
		c-0.1,0.1-0.2,0.2-0.2,0.3c-0.2,0.3-0.5,0.7-0.8,1c0.4-0.1,0.9-0.1,1.5-0.2c-0.1-0.2-0.2-0.4-0.2-0.4c-0.1-0.1-0.1-0.2-0.1-0.2
		c0,0,0,0,0,0c0,0,0.1,0,0.2,0c0.2,0.1,0.4,0.2,0.6,0.3c0.2,0.2,0.4,0.3,0.5,0.4c0.1,0.1,0.1,0.2,0.1,0.4c0,0.1,0,0.2-0.1,0.3
		c-0.1,0.1-0.2,0.1-0.3,0.1c-0.1,0-0.2-0.1-0.3-0.2c-0.1-0.1-0.1-0.2-0.2-0.4c0,0,0,0,0,0c-1.3,0.3-2,0.5-2.3,0.7
		c-0.2,0-0.3-0.1-0.3-0.3c0-0.2,0-0.3,0-0.4c0-0.2,0.1-0.2,0.2-0.2c0.1,0,0.1-0.1,0.1-0.1c0.1,0,0.1-0.1,0.2-0.3
		c0.1-0.1,0.2-0.3,0.2-0.5c0.1-0.1,0.1-0.3,0.1-0.4c0-0.1,0-0.2,0-0.2c0,0,0-0.1,0-0.2C5.3,198.9,5.3,198.9,5.5,198.9z M4.6,202.4
		c0.3,0,0.5,0.1,0.6,0.2c0,0.3,0.1,0.4,0.2,0.5c0.1,0.1,0.1,0.2,0.2,0.3c0.1,0.1,0.2,0.2,0.4,0.2c0.2,0.1,0.3,0.1,0.5,0.1
		c0.2,0,0.4,0,0.6-0.1c0,0,0.1,0,0.1-0.1l-0.1-0.4v-0.1c0,0,0.1,0,0.1,0c0.3,0.2,0.6,0.4,0.9,0.6c0.1,0.1,0.1,0.1,0.2,0.1
		c0.2,0,0.2,0.1,0.2,0.3c0,0.1,0,0.1-0.1,0.2c-0.1,0.1-0.2,0.1-0.3,0.2c-0.4,0.1-0.7,0.2-1.1,0.2c-0.2,0-0.4,0-0.6-0.1
		c-0.2,0-0.4-0.1-0.5-0.2c-0.2-0.1-0.4-0.2-0.5-0.4C5.1,204,5,203.8,5,203.7c-0.1-0.2-0.2-0.4-0.2-0.6
		C4.7,202.9,4.7,202.7,4.6,202.4C4.6,202.5,4.6,202.4,4.6,202.4z M5.3,201.8c0.1,0,0.2,0,0.3,0c0.3,0.1,0.5,0.2,0.7,0.3
		c0.1,0.1,0.2,0.2,0.2,0.4c0,0.1,0,0.2-0.1,0.3c-0.1,0.1-0.2,0.1-0.3,0.1c-0.1,0-0.1,0-0.2-0.1c-0.1-0.1-0.3-0.4-0.6-0.8
		C5.3,201.9,5.3,201.8,5.3,201.8C5.3,201.8,5.3,201.8,5.3,201.8z M6.3,197.5c0.1,0,0.1,0,0.3,0c0.2,0.1,0.5,0.2,0.7,0.3
		c0.3,0.2,0.5,0.3,0.6,0.5c0.1,0.1,0.1,0.3,0.1,0.4c0,0.1,0,0.2-0.1,0.4c-0.1,0.1-0.2,0.1-0.3,0.1c-0.1,0-0.3-0.1-0.3-0.2
		c-0.1-0.1-0.2-0.2-0.4-0.5c-0.2-0.4-0.4-0.7-0.5-0.8C6.3,197.7,6.2,197.6,6.3,197.5C6.2,197.5,6.2,197.5,6.3,197.5z M7.4,201.9
		c0.1,0,0.2,0,0.4,0.1c0.3,0.1,0.6,0.2,0.7,0.4c0.1,0.1,0.2,0.3,0.2,0.5c0,0.1-0.1,0.2-0.2,0.3c-0.1,0.1-0.2,0.1-0.3,0.1
		c-0.1,0-0.1,0-0.2-0.1c-0.2-0.2-0.4-0.5-0.6-1C7.3,202,7.3,202,7.4,201.9C7.3,201.9,7.3,201.9,7.4,201.9z"/>
	<path class="st13" d="M3.9,207.7c0.2,0,0.5,0.1,0.8,0.2c0.2,0.1,0.3,0.2,0.3,0.3c0,0,0,0.1-0.1,0.1c0,0.1-0.1,0.2-0.2,0.3
		c0,0,0,0,0,0c0.1,0.1,0.3,0.2,0.4,0.4c0.5,0.6,0.9,1.1,1.4,1.5c0.5,0.4,1.2,0.9,2.3,1.4v0.1c0,0-0.1,0.1-0.2,0.1
		c-0.6,0.1-1.1,0.1-1.6,0.1c-0.2,0-0.3,0-0.4-0.1c-0.4-0.5-1-1.2-1.6-2.3c-0.1-0.2-0.3-0.4-0.5-0.7c0,0-0.1-0.1-0.1-0.1
		c-0.3,0.5-0.6,0.9-1,1.4c-0.4,0.6-0.9,1-1.4,1.4c-0.4,0.3-0.8,0.6-1.2,0.7c-0.2,0.1-0.3,0.1-0.3,0.1v0c0.6-0.6,1.2-1.1,1.6-1.7
		c0.3-0.4,0.6-0.8,0.9-1.2c0.3-0.4,0.5-0.8,0.6-1.2c0-0.2,0.1-0.3,0.1-0.4c0-0.1-0.1-0.2-0.1-0.3C3.7,207.7,3.8,207.7,3.9,207.7z
		 M2,212.9c0.2,0,0.4,0,0.6,0.1c0.1,0,0.1,0,0.2,0.1c0.5,0,0.9-0.1,1.3-0.1c0.3-0.1,0.7-0.1,1-0.2c0.1,0,0.2-0.1,0.3-0.1
		c0.2,0,0.4,0.1,0.7,0.3c0.4,0.3,0.6,0.4,0.6,0.6c0,0,0,0.1-0.1,0.1c-0.2,0.1-0.3,0.2-0.3,0.4c-0.2,0.2-0.3,0.5-0.3,0.9
		c0.2,0.2,0.2,0.4,0.2,0.4c0,0,0,0-0.1,0c-0.7,0-1.3,0-2,0.1c-0.3,0-0.6,0.1-0.8,0.1c0,0.3-0.1,0.4-0.3,0.4c-0.1,0-0.2-0.1-0.3-0.2
		c-0.1-0.1-0.1-0.2-0.1-0.2c-0.1-0.2-0.2-0.6-0.3-1.2c-0.1-0.3-0.2-0.6-0.3-0.8c-0.1-0.2-0.2-0.3-0.3-0.4
		C1.9,212.9,1.9,212.9,2,212.9z M5.2,211.1c0.1,0,0.2,0,0.3,0.1c0.2,0.1,0.2,0.2,0.2,0.3c0,0.1,0,0.2,0,0.2c0,0.1-0.1,0.1-0.1,0.1
		c-0.4,0.1-0.9,0.2-1.4,0.2c-0.3,0-0.6,0.1-0.7,0.1c-0.4,0-0.6-0.1-0.7-0.3c-0.1-0.1-0.1-0.2-0.1-0.3c0,0,0,0,0.1,0
		c0.7,0,1.2-0.1,1.6-0.2c0.3-0.1,0.6-0.1,0.8-0.2C5.1,211.1,5.2,211.1,5.2,211.1z M3.4,214.9c0.2,0,0.5,0,0.8-0.1
		c0.4,0,0.7-0.1,0.9-0.1c0-0.1,0.1-0.3,0.1-0.5c0-0.2,0.1-0.4,0.1-0.5c0-0.2-0.1-0.3-0.2-0.3c-0.2,0-0.6,0-1.1,0.1
		c-0.4,0.1-0.7,0.1-0.9,0.1L3.4,214.9z"/>
	<path class="st13" d="M6.8,219.9c0.2,0,0.3,0.1,0.5,0.2c0.2,0.1,0.2,0.2,0.2,0.4c0,0.2,0,0.3-0.1,0.3c-1,0-1.9,0.1-2.8,0.2
		c-0.4,0-0.8,0.1-1.2,0.2c-0.1,0-0.2,0.1-0.3,0.1c-0.1,1-0.3,1.8-0.5,2.5c-0.2,0.6-0.5,1.1-0.8,1.5c-0.3,0.4-0.7,0.7-1.1,1
		c0,0-0.1,0-0.2,0v0c0.3-0.3,0.5-0.7,0.7-1.1c0.3-0.7,0.6-1.3,0.7-2c0.1-0.7,0.2-1.3,0.2-2c0-0.2,0-0.3-0.1-0.4
		c-0.1-0.1-0.1-0.1-0.1-0.2c0-0.1,0-0.2,0.1-0.2c0.2,0,0.4,0,0.8,0.1c0.1,0,0.1,0,0.1,0c0.6-0.1,1.2-0.2,1.7-0.3
		c0.6-0.1,1.2-0.2,1.8-0.4C6.5,219.9,6.6,219.9,6.8,219.9z M4.9,221.7c0.2,0,0.4,0.1,0.6,0.2c0.2,0.1,0.4,0.3,0.4,0.4
		c0,0,0,0.1-0.1,0.1c-0.1,0.1-0.3,0.3-0.4,0.5c-0.4,0.7-0.9,1.4-1.3,2.2c0.8-0.1,1.7-0.3,2.5-0.4c-0.2-0.4-0.3-0.6-0.4-0.7
		c-0.1-0.2-0.2-0.3-0.2-0.4c0,0,0,0,0,0c0.1,0,0.2,0,0.3,0.1c0.3,0.2,0.5,0.3,0.8,0.5c0.3,0.3,0.5,0.6,0.7,0.8
		c0.1,0.2,0.1,0.5,0.1,0.7c0,0.1,0,0.2-0.1,0.3c-0.1,0.1-0.2,0.1-0.3,0.1c-0.1,0-0.2-0.1-0.3-0.2c-0.1-0.1-0.2-0.4-0.4-0.8
		c0,0,0,0,0-0.1c-0.4,0.1-0.8,0.2-1.4,0.3c-0.6,0.2-1,0.3-1.3,0.5c-0.1,0-0.2,0.1-0.3,0.2c-0.1,0.1-0.1,0.1-0.2,0.1
		c-0.1,0-0.3-0.1-0.5-0.3c-0.2-0.2-0.2-0.4-0.2-0.5c0-0.1,0-0.2,0.1-0.2c0.2-0.3,0.4-0.4,0.4-0.5c0.2-0.2,0.5-0.7,0.8-1.5
		c0.2-0.3,0.3-0.7,0.5-1.1c0-0.1,0-0.2,0-0.4C4.8,221.8,4.8,221.7,4.9,221.7z M4.1,218.7c0.2,0,0.4,0.1,0.7,0.2
		c0.3,0.1,0.5,0.2,0.5,0.3c0.1,0.1,0.1,0.2,0.1,0.4c0,0.3-0.2,0.4-0.5,0.4c-0.1,0-0.3-0.2-0.6-0.5C4.1,219.1,4,218.8,4.1,218.7
		C4,218.7,4,218.7,4.1,218.7z"/>
	<path class="st13" d="M2.7,230.5c0.2,0,0.4,0.1,0.6,0.2c0.2,0.1,0.3,0.2,0.3,0.3c0,0,0,0.1-0.1,0.1c0,0-0.1,0.1-0.1,0.1
		c-0.1,0.2-0.2,0.4-0.3,0.5c0.4,0,0.8-0.1,1.1-0.1c0-0.3,0-0.6,0-0.8c0-0.3,0-0.4,0-0.5c0-0.2-0.1-0.3-0.2-0.4
		c-0.1-0.1-0.1-0.2-0.1-0.2c0-0.1,0.1-0.2,0.2-0.2c0.2,0,0.5,0.1,0.7,0.2c0.3,0.1,0.5,0.2,0.5,0.3c0,0.1,0,0.1,0,0.2
		c-0.1,0.2-0.1,0.6-0.2,1.3c0.3-0.1,0.5-0.2,0.7-0.3c0.1,0,0.1-0.1,0.2-0.1s0.2,0,0.3,0.1c0.2,0.1,0.3,0.2,0.3,0.3
		c0,0.1,0,0.1,0,0.2c0,0.1-0.1,0.1-0.1,0.1c-0.4,0.1-0.9,0.2-1.4,0.3c0,0.3,0,0.6,0,1c0.7-0.1,1.5-0.2,2.2-0.4
		c0.2,0,0.5-0.1,0.7-0.1c0.2,0,0.3,0.1,0.5,0.2c0.2,0.1,0.2,0.3,0.2,0.4c0,0.2-0.1,0.3-0.2,0.3c-1.7,0-3.3,0.1-4.7,0.3
		c-0.6,0.1-1.4,0.2-2.1,0.3c-0.3,0.1-0.4,0.1-0.5,0.1c-0.1,0-0.3-0.1-0.4-0.3c-0.2-0.1-0.2-0.3-0.2-0.4c0,0,0,0,0.1,0
		c1.4-0.1,2.6-0.3,3.6-0.4h0c0-0.4,0-0.7,0-0.9c-0.3,0-0.5,0.1-0.6,0.1c-0.4,0-0.6-0.1-0.7-0.3c0,0.1-0.1,0.1-0.1,0.2
		c-0.3,0.3-0.5,0.6-0.7,0.7c-0.1,0.1-0.2,0.1-0.2,0.1c0,0,0,0,0-0.1c0.2-0.4,0.4-0.8,0.5-1.1c0.1-0.3,0.2-0.6,0.2-0.8
		c0-0.2,0-0.3,0-0.4l0-0.2C2.6,230.5,2.6,230.5,2.7,230.5z M2.4,234.6c0.2,0,0.4,0,0.6,0.1c0,0,0.1,0,0.1,0.1c0.5,0,0.9-0.1,1.3-0.1
		c0.3-0.1,0.7-0.1,1-0.3c0.1,0,0.2-0.1,0.3-0.1c0.2,0,0.4,0.1,0.8,0.3c0.4,0.3,0.6,0.4,0.6,0.6c0,0,0,0.1-0.1,0.1
		c-0.2,0.1-0.3,0.2-0.4,0.4c-0.2,0.2-0.3,0.5-0.4,0.8c0.1,0.2,0.2,0.4,0.2,0.4c0,0,0,0-0.1,0c-0.6,0-1.3,0-1.9,0.1
		c-0.3,0-0.6,0.1-0.7,0.1c0,0.2-0.1,0.2-0.3,0.2c-0.1,0-0.2-0.1-0.3-0.2c-0.1-0.1-0.1-0.2-0.1-0.3c-0.1-0.2-0.2-0.5-0.3-1
		c-0.1-0.3-0.1-0.5-0.2-0.7c-0.1-0.2-0.2-0.3-0.3-0.3C2.3,234.7,2.3,234.6,2.4,234.6z M3.8,236.5c0.2,0,0.4,0,0.7-0.1
		c0.4,0,0.7-0.1,0.9-0.1c0-0.1,0.1-0.3,0.1-0.4c0.1-0.2,0.1-0.4,0.1-0.6c0-0.2-0.1-0.3-0.2-0.3c-0.2,0-0.5,0-1.1,0.1
		c-0.4,0.1-0.6,0.1-0.8,0.1L3.8,236.5z"/>
	<path class="st13" d="M2.5,241.2c0.2,0,0.4,0.1,0.7,0.2c0.2,0.1,0.3,0.2,0.3,0.3c0,0.1,0,0.2-0.1,0.2c-0.1,0.1-0.1,0.1-0.2,0.2
		c-0.3,0.6-0.6,1-0.8,1.4c0.4,0.2,0.6,0.4,0.6,0.5c0,0.1,0,0.1-0.1,0.3c0,0.2-0.1,0.3-0.1,0.3l0,2.6c0,0.1,0,0.3-0.1,0.5
		c-0.1,0.2-0.2,0.3-0.3,0.3c-0.2,0-0.3-0.2-0.5-0.6c-0.1-0.1-0.1-0.2-0.1-0.3c0-0.1,0.1-0.6,0.2-1.3c0-0.2,0.1-0.7,0.1-1.3
		c0-0.1,0-0.2,0-0.4c-0.4,0.5-0.8,0.9-1.2,1.1c-0.2,0.2-0.3,0.2-0.4,0.2c0,0,0,0,0-0.1c0.5-0.7,0.9-1.3,1.3-1.8
		c0.2-0.5,0.4-0.9,0.6-1.4c0.1-0.3,0.1-0.5,0.1-0.6l0-0.2C2.3,241.2,2.4,241.2,2.5,241.2z M6.7,242.7c0.1,0,0.3,0.1,0.5,0.2
		c0.2,0.1,0.3,0.2,0.3,0.4c0,0.1-0.1,0.2-0.2,0.2c-0.2,0-0.5,0.1-0.8,0.1c-0.2,0.1-0.5,0.1-0.8,0.2c0.1,0.3,0.1,0.5,0.2,0.7
		c0.2,0.5,0.4,1,0.8,1.4c0.2,0.3,0.5,0.6,0.7,0.8c0.3,0.2,0.5,0.3,0.6,0.3c0,0,0,0,0-0.1c0.1-0.3,0.2-0.6,0.2-1c0,0,0-0.1,0-0.1
		c0.1,0,0.1,0.1,0.1,0.2c0,0.2,0,0.4,0,0.5c0,0.6,0.1,0.9,0.2,1c0.1,0.1,0.1,0.1,0.1,0.2c0,0.2-0.1,0.4-0.3,0.4
		c-0.2,0-0.5-0.1-0.8-0.2c-0.3-0.1-0.6-0.3-0.8-0.5c-0.3-0.3-0.6-0.6-0.8-0.9c-0.3-0.4-0.6-0.9-0.7-1.5c-0.1-0.3-0.2-0.6-0.3-1.1
		c-0.3,0.1-0.7,0.2-1,0.2c-0.1,0-0.1,0.1-0.1,0.1c-0.1,0-0.2-0.1-0.3-0.1c-0.1-0.1-0.2-0.1-0.2-0.2c0-0.1,0-0.1,0-0.1
		c0.5-0.1,1-0.3,1.5-0.5c-0.1-0.5-0.2-1-0.3-1.6c0-0.3-0.1-0.5-0.1-0.6c-0.1-0.2-0.1-0.4-0.2-0.6c0,0,0-0.1,0-0.2s0.1-0.1,0.2-0.1
		c0.3,0,0.5,0,0.8,0.1c0.2,0.1,0.3,0.2,0.3,0.3c0,0.1,0,0.1,0,0.2c0,0.1-0.1,0.2-0.1,0.3c0,0.6,0,1.2,0.1,1.6c0,0.1,0,0.2,0,0.3
		c0.2-0.1,0.4-0.2,0.6-0.2C6.3,242.8,6.5,242.7,6.7,242.7z M6.3,241.2c0.1,0,0.2,0,0.4,0c0.4,0.1,0.7,0.2,0.9,0.3
		c0.2,0.1,0.2,0.2,0.2,0.4c0,0.1-0.1,0.2-0.2,0.3c-0.1,0.1-0.3,0.1-0.4,0.1c-0.1,0-0.2,0-0.2-0.1c-0.2-0.1-0.4-0.4-0.7-0.9
		C6.2,241.3,6.2,241.3,6.3,241.2C6.2,241.2,6.2,241.2,6.3,241.2z"/>
	<path class="st13" d="M2.8,252.1c0.1,0,0.1,0,0.3,0.1c0.2,0.1,0.2,0.2,0.2,0.3c0,0.1,0,0.1,0,0.2c0,0.1-0.1,0.1-0.1,0.1
		c-0.2,0.1-0.4,0.1-0.6,0.1c0.1,0,0.1,0.1,0.1,0.1c0,0,0,0.1,0,0.1c0,0.1-0.1,0.3-0.1,0.7v0.1c0.1,0,0.1,0,0.1,0
		c0.4,0,0.6,0.2,0.6,0.5c0,0.1,0,0.1-0.1,0.1c-0.2,0.1-0.4,0.1-0.7,0.2l0,1.4c0.2-0.1,0.5-0.1,0.7-0.2c0.2-0.1,0.4-0.1,0.4-0.1
		c0.1,0,0.1,0,0.1,0.1c0,0,0,0.1-0.1,0.1c-0.3,0.2-0.7,0.4-1.3,0.7c-0.3,0.2-0.7,0.4-1.1,0.7c-0.1,0.1-0.1,0.1-0.1,0.1
		c-0.1,0-0.2-0.1-0.4-0.3c-0.1-0.2-0.2-0.4-0.2-0.5c0,0,0-0.1,0.1-0.1c0.1,0,0.3,0,0.4-0.1c0.2-0.1,0.5-0.1,0.8-0.2l0-1.5
		c-0.2,0-0.3,0.1-0.4,0.1c-0.1,0-0.3,0-0.4-0.1c-0.1-0.1-0.1-0.2-0.1-0.3c0,0,0-0.1,0.1-0.1c0.3-0.1,0.5-0.1,0.8-0.2v0
		c0-0.4,0-0.7-0.1-1c0-0.1,0-0.1,0-0.2c-0.3,0-0.5-0.1-0.7-0.3c-0.1-0.1-0.1-0.2-0.1-0.2c0-0.1,0-0.1,0.1-0.1c0.5,0,0.9-0.1,1.2-0.1
		c0.2-0.1,0.4-0.1,0.6-0.2C2.7,252.1,2.7,252.1,2.8,252.1z M3.4,252c0.1,0,0.3,0,0.5,0.1c0.1,0,0.1,0.1,0.2,0.1
		c0.9-0.1,1.9-0.2,3-0.5c0.1,0,0.3,0.1,0.6,0.2c0.4,0.2,0.6,0.4,0.6,0.5c0,0,0,0.1-0.1,0.1c-0.2,0.2-0.3,0.5-0.4,0.9
		c-0.1,0.4-0.2,0.9-0.4,1.4c-0.1,0.2-0.2,0.3-0.3,0.4c-0.1,0.1-0.2,0.1-0.3,0.1c-0.1,0-0.1,0-0.1-0.1c0,0,0,0,0,0
		c-0.3,0-0.6,0-0.9,0.1l0,0.9c0.2-0.1,0.4-0.1,0.6-0.2c0,0,0.1,0,0.1,0c0.1,0,0.2,0,0.3,0.1C7,256,7,256.1,7,256.2
		c0,0.1,0,0.1,0,0.2c0,0.1-0.1,0.1-0.1,0.1c-0.3,0.1-0.7,0.1-1.1,0.2l0,0.8c0.8-0.1,1.4-0.2,1.9-0.3c0.1,0,0.1,0,0.1,0
		c0.2,0,0.4,0.1,0.6,0.2c0.2,0.2,0.3,0.3,0.3,0.5c0,0.2-0.1,0.3-0.2,0.3c-0.1,0-0.4,0-0.7-0.1c-0.2,0-0.4-0.1-0.5-0.1
		c-0.9,0-1.7,0-2.3,0.1c-0.5,0-1,0.1-1.4,0.2c-0.1,0-0.2,0-0.3,0c-0.1,0-0.3-0.1-0.5-0.2c-0.1-0.2-0.2-0.3-0.2-0.3s0-0.1,0.1-0.1
		c0.4,0,1.2-0.1,2.4-0.2c0,0,0.1,0,0.1,0l0-0.8c-0.1,0-0.2,0-0.3,0c-0.4,0-0.6-0.1-0.7-0.3c-0.1-0.1-0.1-0.2-0.1-0.3
		c0,0,0-0.1,0.1-0.1c0.4,0,0.7,0,1-0.1l0-0.9c-0.3,0-0.5,0.1-0.6,0.1c0,0-0.1,0.1-0.2,0.1c-0.1,0-0.2-0.1-0.3-0.2
		C4,255.1,3.9,255,3.9,255c-0.1-0.3-0.1-0.7-0.2-1.4c-0.1-0.4-0.1-0.7-0.2-0.9c-0.1-0.2-0.1-0.4-0.2-0.5C3.3,252,3.4,252,3.4,252z
		 M4.6,254.8c0.1,0,0.3,0,0.5-0.1l0-0.6v-0.3H5c-0.1,0-0.3,0-0.4-0.1c-0.1-0.1-0.1-0.2-0.1-0.3c0,0,0-0.1,0.1-0.1
		c0.2,0,0.3-0.1,0.5-0.1c0-0.2,0-0.4,0-0.5c0-0.1,0-0.3-0.1-0.4c-0.2,0-0.4,0-0.6,0L4.6,254.8z M5.8,252.4c0.1,0.1,0.2,0.1,0.2,0.2
		c0,0,0,0.1,0,0.1c0,0.1,0,0.2-0.1,0.4c0,0,0.1,0,0.1,0c0.4,0,0.6,0.2,0.6,0.5c0,0,0,0.1-0.1,0.1c-0.2,0.1-0.5,0.1-0.7,0.1l0,0.9
		c0.2,0,0.4-0.1,0.6-0.1c0.1,0,0.1,0,0.2,0c0,0,0.1,0,0.1,0c0.1-0.4,0.2-0.8,0.3-1.3C7,253,7,252.7,7,252.4c0-0.1-0.1-0.2-0.2-0.2
		C6.5,252.3,6.1,252.3,5.8,252.4z"/>
	<path class="st13" d="M6.6,262.8c0.2,0,0.3,0.1,0.5,0.2c0.2,0.1,0.2,0.2,0.2,0.4s0,0.3-0.1,0.3c-0.9,0-1.8,0.1-2.6,0.2
		c-0.4,0-0.8,0.1-1.2,0.2c-0.1,0-0.2,0.1-0.2,0.1c-0.1,1-0.3,1.9-0.5,2.6c-0.2,0.6-0.5,1.2-0.8,1.7c-0.3,0.4-0.7,0.8-1.2,1.1
		c0,0-0.1,0.1-0.2,0.1v0c0.3-0.4,0.6-0.8,0.7-1.2c0.4-0.7,0.6-1.4,0.8-2.2c0.1-0.7,0.2-1.4,0.2-2.1c0-0.2,0-0.3-0.1-0.4
		c-0.1-0.1-0.1-0.1-0.1-0.2c0-0.1,0-0.2,0.1-0.2c0.2,0,0.4,0,0.8,0.1c0.1,0,0.2,0.1,0.3,0.1c0.5-0.1,1-0.2,1.4-0.2
		c0.6-0.1,1.1-0.2,1.7-0.4C6.3,262.8,6.5,262.8,6.6,262.8z M4.6,264c0.2,0,0.5,0.1,0.7,0.2c0.3,0.1,0.5,0.2,0.5,0.3
		c0,0.1,0,0.1,0,0.2c0,0.1-0.1,0.4-0.1,0.8c0.3-0.1,0.5-0.2,0.8-0.3c0.2-0.1,0.4-0.1,0.5-0.1c0.4,0,0.6,0.2,0.6,0.5
		c0,0.1-0.1,0.2-0.3,0.2c-0.2,0-0.5,0.1-0.9,0.1c-0.2,0-0.4,0.1-0.6,0.1H5.5c0,0.3,0,0.7-0.1,1.1c0.3-0.1,0.5-0.1,0.8-0.2
		c0.1,0,0.2-0.1,0.3-0.1c0.2,0,0.4,0.1,0.8,0.3c0.4,0.3,0.6,0.4,0.6,0.6c0,0,0,0.1-0.1,0.1c-0.2,0.1-0.3,0.2-0.3,0.4
		c-0.2,0.2-0.3,0.5-0.3,0.9l0,0c0.2,0.2,0.2,0.4,0.2,0.4c0,0-0.1,0-0.1,0c-0.7,0-1.4,0-2.1,0.1c-0.4,0-0.7,0.1-0.9,0.1
		c-0.1,0.2-0.1,0.3-0.3,0.3c-0.1,0-0.3-0.1-0.4-0.2c-0.1-0.1-0.1-0.2-0.1-0.3c-0.1-0.2-0.2-0.6-0.2-1.1c-0.1-0.3-0.1-0.6-0.3-0.7
		c-0.1-0.2-0.2-0.3-0.3-0.4c0-0.1,0-0.2,0.1-0.2c0.2,0,0.4,0,0.7,0.1c0.1,0,0.2,0.1,0.3,0.1c0.3,0,0.5,0,0.8-0.1c0-0.7,0-1.2,0-1.6
		c0-0.5,0-0.8,0-0.9c0-0.1-0.1-0.2-0.1-0.3c-0.1-0.1-0.1-0.1-0.1-0.2C4.4,264,4.5,264,4.6,264z M4.2,261.7c0.2,0,0.4,0,0.7,0.1
		c0.3,0.1,0.4,0.2,0.5,0.2c0.1,0.1,0.1,0.2,0.1,0.3c0,0.3-0.2,0.5-0.6,0.5c-0.1,0-0.3-0.2-0.5-0.5C4.2,262.1,4.1,261.9,4.2,261.7
		C4.1,261.8,4.1,261.7,4.2,261.7z M4.3,269.1c0.2,0,0.5-0.1,0.9-0.1c0.4,0,0.7-0.1,1-0.1c0-0.1,0.1-0.3,0.1-0.5
		c0-0.2,0.1-0.4,0.1-0.6c0-0.2-0.1-0.3-0.2-0.3c-0.2,0-0.6,0.1-1.2,0.2c-0.4,0.1-0.7,0.1-1,0.2L4.3,269.1z"/>
	<path class="st13" d="M4.3,272.8l0.9,0.1c0,0.1-0.1,0.2-0.2,0.2v7.4H4.3V272.8z"/>
</g>
</svg>
