<?xml version="1.0" encoding="utf-8"?>
<!-- Generator: Adobe Illustrator 23.0.1, SVG Export Plug-In . SVG Version: 6.00 Build 0)  -->
<svg version="1.1" id="レイヤー_1" xmlns="http://www.w3.org/2000/svg" xmlns:xlink="http://www.w3.org/1999/xlink" x="0px"
	 y="0px" viewBox="0 0 243 28" style="enable-background:new 0 0 243 28;" xml:space="preserve">
<g>
	<path d="M95.04,18.25c0,1.99-1.25,3.81-3.75,5.45c-2.19,1.41-4.68,2.15-7.47,2.23c2.83-1.25,4.85-2.57,6.06-3.96
		c1.13-1.27,1.72-2.51,1.76-3.72c0.04-1.27-0.34-2.25-1.14-2.93c-0.61-0.37-1.24-0.63-1.9-0.79c-0.7,2.27-2.16,4.35-4.37,6.24
		c0.27,0.43,0.6,0.82,1,1.17c0.31,0.35,0.46,0.63,0.44,0.85c-0.08,0.9-0.61,1.35-1.58,1.35c-0.55-0.06-1.06-0.45-1.55-1.17
		c-0.2-0.23-0.36-0.44-0.5-0.62c-1.62,0.98-3.01,1.46-4.16,1.44c-1.95-0.02-2.93-1.09-2.93-3.22c0-1.21,0.6-2.49,1.82-3.84
		c0.74-0.74,1.69-1.44,2.84-2.08c0-1.05,0.18-2.48,0.53-4.28c-0.61-0.02-1.24-0.15-1.9-0.38c-0.86-0.35-1.29-0.75-1.29-1.2
		c0-0.33,0.53-0.55,1.58-0.64c0.7-0.02,1.42-0.06,2.14-0.12l0.79-3.81c0-0.53-0.14-0.97-0.41-1.32c-0.25-0.27-0.38-0.5-0.38-0.67
		c0-0.27,0.36-0.41,1.08-0.41c0.41,0,1.04,0.35,1.88,1.05c0.84,0.7,1.3,1.3,1.38,1.79c-0.06,0.16-0.22,0.4-0.47,0.73
		c-0.23,0.22-0.53,0.88-0.88,1.99c0.16-0.04,0.41-0.1,0.76-0.18c2.29-0.6,3.54-0.91,3.78-0.91c0.43,0,0.9,0.11,1.41,0.32
		c0.49,0.35,0.75,0.71,0.79,1.08c-0.08,0.51-1.41,1.06-3.98,1.67c-1.41,0.33-2.57,0.57-3.49,0.7c-0.25,1.25-0.43,2.33-0.53,3.25
		c1.29-0.43,2.63-0.7,4.01-0.82c-0.04-0.33-0.06-0.63-0.06-0.88c-0.06-0.21-0.09-0.37-0.09-0.47c0-0.51,0.25-0.76,0.76-0.76
		c0.39,0,0.83,0.28,1.32,0.85c0.23,0.31,0.39,0.74,0.47,1.29c1.46,0.18,2.71,0.62,3.72,1.32C94.2,15.04,95.04,16.51,95.04,18.25z
		 M81.09,20.68c-0.7-1.45-1.14-2.71-1.32-3.81c-1.82,1.31-2.72,2.54-2.72,3.69c0,0.88,0.41,1.33,1.23,1.35
		C78.92,21.93,79.86,21.52,81.09,20.68z M86.1,14.5c-1.25,0.16-2.48,0.47-3.69,0.94c0.14,1.35,0.42,2.52,0.85,3.52
		C84.57,17.66,85.52,16.18,86.1,14.5z"/>
	<path d="M124.01,9.55c-0.06,0.47-0.55,0.71-1.46,0.73c-0.29,0-0.99-0.07-2.08-0.21c-0.57-0.04-1.41-0.06-2.52-0.06
		c-0.68,0-1.43,0.02-2.23,0.06c0,0.2,0,0.48,0,0.85c-0.02,0.43-0.03,0.71-0.03,0.85c-0.06,4.45-0.31,7.13-0.76,8.03
		c-0.1,1.35-0.72,2.69-1.88,4.01c-1.11,1.29-2.89,2.26-5.33,2.9c1.54-1.02,2.74-2.31,3.6-3.9c0.59-1.15,0.89-1.96,0.91-2.43
		c0.02-0.57-0.81-1.18-2.49-1.85c-1.88-0.8-2.81-1.49-2.81-2.08c0-0.72,0.53-1.51,1.58-2.37c1.19-0.96,2.35-1.44,3.49-1.44
		c0.25,0,0.59,0.07,1,0.21v-2.52h-0.12c-1.64,0.22-3.27,0.57-4.89,1.05c-2.89,0.86-4.54,1.29-4.95,1.29c-0.57,0-1.27-0.26-2.11-0.79
		c-0.84-0.55-1.26-1.07-1.26-1.58c0-0.27,0.73-0.42,2.2-0.44c0.66,0,3.61-0.45,8.85-1.35c0.82-0.16,1.56-0.29,2.23-0.41
		c-0.04-2.71-0.15-4.27-0.32-4.66c-0.22-0.23-0.32-0.44-0.32-0.62c0-0.55,0.27-0.82,0.82-0.82c0.7,0,1.48,0.19,2.34,0.56
		c0.64,0.37,1,0.76,1.05,1.17c-0.06,0.25-0.24,0.62-0.56,1.08c-0.1,0.14-0.16,1.07-0.18,2.81c2.5-0.39,4.05-0.59,4.66-0.59
		c0.84,0,1.61,0.31,2.31,0.94C123.51,8.62,123.93,9.14,124.01,9.55z M112.62,16.67c0.02-1.02-0.11-1.72-0.38-2.11
		c-0.2-0.21-0.48-0.32-0.85-0.32c-0.37,0-0.83,0.26-1.38,0.79c-0.59,0.47-0.88,0.89-0.88,1.26c0,0.25,0.33,0.55,1,0.88
		c0.88,0.39,1.54,0.59,1.99,0.59C112.43,17.75,112.6,17.39,112.62,16.67z"/>
	<path d="M143.35,6.56c-0.02,0.49-0.92,1.07-2.7,1.76c-0.64,0.31-1.56,0.68-2.75,1.11c-0.7,1.68-1.76,3.73-3.16,6.15
		c-1.19,2.11-2.08,3.17-2.67,3.19c-0.72-0.08-1.08-0.6-1.08-1.58c0-1.45,0.4-2.45,1.2-3.02c0.55-0.31,1.41-1.62,2.58-3.93
		c-0.12,0.02-0.28,0.03-0.5,0.03c-0.64,0-1.35-0.13-2.11-0.38c-0.96-0.33-1.44-0.75-1.44-1.26c0-0.08,0.68-0.24,2.05-0.5
		c1.62-0.23,2.66-0.44,3.11-0.62c0.04,0,0.08,0,0.12,0c0.76-2.01,1.14-3.7,1.14-5.07c0-0.53,0.14-0.79,0.41-0.79
		c0.47,0,1.1,0.31,1.9,0.94c0.66,0.53,1,1.01,1,1.44c0,0.33-0.2,0.67-0.59,1.03c-0.14,0.14-0.33,0.49-0.59,1.05
		c0.08-0.06,0.16-0.12,0.23-0.18c0.8-0.41,1.55-0.62,2.26-0.62C142.84,5.33,143.37,5.74,143.35,6.56z M148.68,23.08
		c-0.08,0.78-0.52,1.19-1.32,1.23c-0.41,0.02-0.85-0.21-1.32-0.67c-0.43-0.45-1.17-0.98-2.23-1.58c-0.2,1.13-0.55,1.96-1.05,2.49
		c-0.86,0.84-1.69,1.29-2.49,1.35c-1.23,0.04-2.5-0.46-3.81-1.49c-1.31-0.96-1.96-1.75-1.96-2.37c0-0.94,0.59-1.69,1.76-2.26
		c1.29-0.63,2.84-0.94,4.66-0.94h0.03v-0.09c-0.1-0.6-0.15-1.23-0.15-1.88c0-1.11,0.32-2.01,0.97-2.7c0.51-0.57,1.35-1.05,2.52-1.46
		c-0.76,1.17-1.14,2.11-1.14,2.81c0,1.13,0.12,2.15,0.35,3.05c0.08,0.2,0.16,0.46,0.23,0.79c0.76,0.27,1.53,0.59,2.31,0.94
		C147.72,21.04,148.6,21.97,148.68,23.08z M140.97,21.03c-0.27-0.02-0.36-0.03-0.26-0.03c-1.31,0-2.35,0.11-3.13,0.32
		c-0.59,0.16-0.88,0.4-0.88,0.73c0,0.27,0.35,0.55,1.05,0.82c0.66,0.39,1.32,0.59,1.96,0.59c0.25-0.02,0.54-0.28,0.85-0.79
		C140.76,22.36,140.9,21.81,140.97,21.03z M151.99,11.45c-0.08,0.94-0.53,1.41-1.35,1.41c-0.37-0.06-0.75-0.18-1.14-0.35
		c-0.47-0.1-0.83-0.15-1.08-0.15c-0.7,0-1.96,0.18-3.78,0.53c1.66-1.19,2.49-2,2.49-2.43c-0.04-0.29-0.9-0.96-2.58-1.99
		c2.46,0,4.35,0.34,5.68,1.03C151.36,10.11,151.95,10.77,151.99,11.45z"/>
	<path d="M175.17,17.22c0,1.29-0.47,2.47-1.41,3.54c-0.82,1.02-1.97,1.84-3.46,2.46c-1.62,0.68-4.02,1.22-7.21,1.61
		c2.48-1.02,4.24-1.88,5.27-2.61c2.11-1.56,3.23-3.45,3.37-5.65c-0.1-0.74-0.37-1.36-0.82-1.85c-0.49-0.55-1.09-0.82-1.82-0.82
		c-3.63,0-6.59,1.46-8.88,4.37c-1.11,1.46-1.85,2.23-2.2,2.29c-0.41,0-0.77-0.3-1.08-0.91c-0.29-0.55-0.44-1.04-0.44-1.49
		c0-0.55,0.28-0.99,0.85-1.32c0.66-0.41,1.64-1.43,2.93-3.05c1.11-1.45,2.73-3.51,4.86-6.18c0.35-0.45,0.9-1.1,1.64-1.96l0.09-0.18
		c0-0.18-0.11-0.26-0.32-0.26c-0.29,0-0.81,0.31-1.55,0.94c-0.68,0.61-1.24,0.91-1.67,0.91c-0.47,0-1.06-0.22-1.79-0.67
		c-0.68-0.47-1.03-0.84-1.03-1.11c0-0.25,0.33-0.39,1-0.41c0.7-0.02,1.84-0.29,3.4-0.82c1.07-0.39,1.88-0.75,2.4-1.08
		c0.53-0.31,0.86-0.47,1-0.47c0.37,0,0.9,0.32,1.58,0.97c0.7,0.61,1.07,1.12,1.11,1.55c-0.04,0.33-0.38,0.69-1.03,1.08
		c-0.64,0.37-1.57,1.32-2.78,2.84c-0.72,0.94-1.81,2.34-3.25,4.22c2.15-0.82,3.87-1.23,5.16-1.23c1.58,0,2.99,0.5,4.22,1.49
		C174.55,14.33,175.17,15.6,175.17,17.22z"/>
	<path d="M193.3,5.09c0.14,0,0.38,0.06,0.73,0.18c0.37,0.27,0.56,0.53,0.56,0.76c0,0.2-0.03,0.37-0.09,0.53
		c-0.06,0.22-0.15,0.34-0.26,0.38c-0.76,0.25-1.54,0.47-2.34,0.64c-0.06,0.68-0.11,1.42-0.15,2.2c0.57-0.14,1.15-0.27,1.76-0.41
		c0.33-0.06,0.62-0.09,0.85-0.09c0.86,0.06,1.29,0.57,1.29,1.52c0,0.23-0.39,0.37-1.17,0.41c-0.21,0.02-0.41,0.04-0.59,0.06
		c0.23,0.12,0.35,0.23,0.35,0.35c0,0.08-0.06,0.21-0.18,0.38c-0.25,0.37-0.46,0.64-0.62,0.82c-0.21,0.39-0.47,0.75-0.76,1.08
		c0.12-0.04,0.22-0.07,0.32-0.09c0.29-0.04,0.56-0.06,0.79-0.06c0.86,0.06,1.29,0.56,1.29,1.49c0,0.22-0.35,0.34-1.05,0.38
		c-0.82,0.06-1.7,0.19-2.64,0.38c0.41,0.29,0.62,0.47,0.62,0.53c0,0.23-0.06,0.49-0.18,0.76c-0.06,0.16-0.1,0.33-0.12,0.53
		c0.27-0.1,0.56-0.19,0.85-0.26c0.23-0.04,0.44-0.06,0.62-0.06c0.86,0.06,1.29,0.56,1.29,1.49c0,0.23-0.28,0.37-0.85,0.41
		c-0.61,0.04-1.25,0.15-1.93,0.32v4.78c0,1-0.17,1.6-0.5,1.82c-0.33,0.43-0.67,0.64-1.03,0.64c-0.29,0-0.61-0.25-0.94-0.76
		c-0.31-0.51-0.47-1.23-0.47-2.17c0-0.08,0.05-0.23,0.15-0.47c0.16-0.37,0.23-0.62,0.23-0.73c0.08-0.78,0.13-1.59,0.15-2.43
		c-0.86,0.27-1.86,0.65-2.99,1.14l-0.38,0.15c-0.14,0-0.49-0.21-1.05-0.62c-0.61-0.53-0.91-1.03-0.91-1.49
		c0-0.08,0.08-0.12,0.23-0.12c0.76-0.02,1.55-0.11,2.37-0.26c0.72-0.14,1.64-0.36,2.75-0.67v-0.23c0-0.74-0.12-1.29-0.35-1.64
		l-0.03-0.09c-1.09,0.27-2.33,0.65-3.72,1.14l-0.47,0.12c-0.14,0-0.49-0.21-1.05-0.62c-0.61-0.53-0.91-1.03-0.91-1.49
		c0-0.08,0.07-0.12,0.21-0.12c0.92-0.02,1.88-0.1,2.87-0.23c1.25-0.19,3.02-0.57,5.3-1.11c0.16-0.53,0.28-1.04,0.38-1.52
		c0.1-0.43,0.15-0.76,0.15-1c0-0.04-0.02-0.11-0.06-0.21c-0.59,0.1-1.15,0.21-1.7,0.32c-0.55,0.1-1.15,0.23-1.82,0.41
		c0.33,0.16,0.6,0.31,0.79,0.47c0.27,0.25,0.41,0.63,0.41,1.14c0,0.23-0.13,0.47-0.38,0.7c-0.31,0.23-0.62,0.35-0.91,0.35
		c-0.12,0-0.24-0.12-0.38-0.35c-0.25-0.33-0.59-0.98-1-1.93c-0.63,0.18-1.29,0.37-1.99,0.59l-0.47,0.18c-0.16,0-0.53-0.21-1.11-0.64
		c-0.61-0.53-0.91-1.02-0.91-1.46c0-0.08,0.09-0.12,0.26-0.12c1.02-0.02,2.06-0.11,3.13-0.26c0.94-0.14,2.13-0.34,3.57-0.62
		c0.02-0.8,0.04-1.51,0.06-2.14c-0.64,0.12-1.14,0.18-1.49,0.18c-0.92,0-1.52-0.26-1.82-0.79c-0.22-0.35-0.32-0.6-0.32-0.73
		c0-0.08,0.04-0.12,0.12-0.12c1.43-0.1,2.62-0.22,3.57-0.38c0.02-0.6,0.03-1.12,0.03-1.55c0-1.04-0.03-1.71-0.09-2.02
		c-0.12-0.39-0.26-0.71-0.44-0.97c-0.18-0.23-0.26-0.42-0.26-0.56c0-0.41,0.17-0.62,0.5-0.62c0.72,0,1.43,0.18,2.11,0.53
		c1.02,0.35,1.52,0.69,1.52,1.03c-0.02,0.14-0.04,0.29-0.06,0.47c-0.2,0.41-0.37,1.38-0.53,2.9c0.29-0.1,0.56-0.19,0.79-0.29
		C192.99,5.14,193.14,5.09,193.3,5.09z M196.26,4.13c0.47,0,1.04,0.18,1.73,0.53c0.31,0.12,0.53,0.22,0.64,0.29
		c0.68-0.08,1.48-0.21,2.4-0.38c0.59-0.08,1.29-0.28,2.11-0.62c0.1-0.02,0.21-0.03,0.35-0.03c0.16,0,0.64,0.25,1.46,0.76
		c0.84,0.51,1.26,0.92,1.26,1.23c0,0.06-0.06,0.14-0.18,0.23c-0.37,0.31-0.58,0.57-0.62,0.76c-0.21,1.46-0.47,2.58-0.76,3.34
		c-0.25,0.72-0.54,1.2-0.85,1.44c-0.2,0.2-0.48,0.39-0.85,0.59c-0.31,0.14-0.52,0.21-0.62,0.21c-0.25,0-0.45-0.13-0.59-0.38
		c-0.63-1.04-1.23-1.8-1.82-2.29c-0.14-0.06-0.21-0.11-0.21-0.15c0-0.18,0.05-0.26,0.15-0.26c1.13,0.25,1.79,0.38,1.96,0.38
		c0.23,0,0.46-0.21,0.67-0.64c0.21-0.39,0.38-0.93,0.5-1.61c0.08-0.35,0.12-0.66,0.12-0.94c0-0.45-0.22-0.67-0.67-0.67
		c-0.53,0-1.04,0.02-1.55,0.06c-0.57,0.08-1.3,0.22-2.2,0.44v1.26c-0.02,2.38-0.03,4.59-0.03,6.62c0.72-0.02,1.46-0.09,2.2-0.21
		c0.92-0.12,1.87-0.32,2.84-0.62c0.2-0.04,0.35-0.06,0.47-0.06c0.33,0,0.87,0.17,1.61,0.5c0.88,0.55,1.32,1.04,1.32,1.46l-0.15,0.23
		c-0.51,0.51-0.94,1.2-1.29,2.08c-0.31,0.88-0.66,1.63-1.05,2.26c-0.23,0.35-0.57,0.75-1,1.2c1.33,0.96,3.23,1.89,5.71,2.81
		c0,0.25-0.18,0.41-0.53,0.47c-2.36,0.47-3.75,0.7-4.16,0.7c-0.49,0-0.81-0.13-0.97-0.38c-0.57-0.72-1.13-1.49-1.7-2.31
		c-0.18,0.12-0.35,0.22-0.53,0.32c-0.7,0.35-1.37,0.63-1.99,0.82c-0.31,0.1-0.6,0.17-0.85,0.21c-0.02,0.66-0.03,1.26-0.03,1.79
		c-0.08,0.35-0.26,0.71-0.56,1.08c-0.33,0.29-0.63,0.44-0.88,0.44c-0.45,0-0.81-0.36-1.08-1.08c-0.29-0.59-0.44-1.04-0.44-1.35
		c0.02,0,0.04-0.18,0.06-0.53c0.25-2.19,0.41-3.92,0.47-5.19c0.14-2.77,0.21-6.26,0.21-10.46c-0.12-1.86-0.34-3.04-0.67-3.54
		c-0.04-0.16-0.06-0.27-0.06-0.35C195.64,4.28,195.85,4.13,196.26,4.13z M198.63,23.11c0.08-0.04,0.15-0.08,0.21-0.12
		c0.57-0.31,1.11-0.67,1.64-1.08c0.25-0.23,0.5-0.47,0.73-0.7c-0.47-0.68-0.93-1.4-1.38-2.14c-0.37-0.59-0.75-1.05-1.14-1.41
		C198.67,19.69,198.65,21.51,198.63,23.11z M198.69,16.46h0.03c0.27,0,0.56,0.07,0.85,0.21c0.37,0.33,0.71,0.74,1.03,1.23
		c0.45,0.68,0.98,1.36,1.58,2.02c0.2-0.27,0.35-0.54,0.47-0.79c0.23-0.57,0.47-1.37,0.7-2.4c0.1-0.29,0.15-0.54,0.15-0.73
		c0-0.33-0.12-0.5-0.35-0.5c-1.05,0.08-2,0.18-2.84,0.29c-0.47,0.04-0.81,0.06-1.03,0.06c-0.2,0-0.39-0.06-0.59-0.18
		C198.69,15.94,198.69,16.21,198.69,16.46z"/>
	<path d="M223.62,0.99c0.68,0,1.49,0.22,2.43,0.64c0.66,0.22,1,0.51,1,0.88c0,0.12-0.06,0.21-0.18,0.26
		c-0.12,0.2-0.27,0.49-0.47,0.88l-0.03,0.09c1.11,0.22,2.06,0.45,2.84,0.7c0.49,0.16,0.9,0.41,1.23,0.76
		c0.27,0.43,0.43,0.86,0.47,1.29c0,0.7-0.32,1.05-0.97,1.05c-0.92,0-1.46-0.17-1.61-0.5c-0.51-0.37-0.98-0.77-1.41-1.2
		c-0.39-0.39-0.76-0.74-1.11-1.05c-0.41,0.74-0.81,1.43-1.2,2.05c0.16,0.02,0.31,0.05,0.47,0.09c0.78,0.18,1.39,0.38,1.82,0.62
		c0.31,0.2,0.47,0.51,0.47,0.94c0,0.23-0.13,0.47-0.38,0.7c-0.31,0.22-0.62,0.32-0.91,0.32c-0.16,0-0.32-0.1-0.5-0.29
		c-0.35-0.29-0.79-0.89-1.32-1.79c-0.31,0.43-0.61,0.84-0.88,1.23c-0.55,0.76-1.09,1.44-1.64,2.02c0.31,0.06,0.65,0.14,1.03,0.23
		c0.37,0.06,0.63,0.15,0.79,0.26c0.76-0.14,1.65-0.32,2.67-0.56c0.88-0.19,1.66-0.42,2.34-0.67c0.12-0.04,0.22-0.06,0.32-0.06
		c0.25,0,0.69,0.18,1.32,0.53c0.84,0.57,1.26,0.97,1.26,1.2c-0.02,0.43-0.13,0.77-0.32,1.03c-0.39,0.57-1.02,2.11-1.88,4.63
		c-0.43,0.37-0.86,0.56-1.29,0.56c-0.39,0-0.63-0.09-0.7-0.26c-0.88,0.04-1.76,0.14-2.64,0.29c-1,0.22-1.61,0.32-1.85,0.32
		c-0.1,0-0.18-0.03-0.23-0.09c-0.16,0.55-0.3,1.04-0.44,1.49c-0.06,0.18-0.13,0.33-0.21,0.47c0.2,0.04,0.4,0.08,0.62,0.12
		c0.29,0.1,0.5,0.19,0.62,0.26c0.08-0.02,0.15-0.04,0.21-0.06c1.41-0.35,2.57-0.59,3.49-0.7c0.41-0.06,0.85-0.19,1.32-0.41
		c0.12-0.02,0.21-0.03,0.29-0.03c0.1,0,0.66,0.27,1.7,0.82c1.05,0.57,1.58,0.97,1.58,1.2c0,0.1-0.08,0.21-0.23,0.32
		c-0.41,0.25-0.71,0.56-0.91,0.91c-0.27,0.37-0.52,0.83-0.73,1.38c0.39,0.53,0.59,0.91,0.59,1.14c-0.04,0.06-0.12,0.09-0.23,0.09
		c-1.37,0-2.73,0.08-4.1,0.23c-0.8,0.12-1.37,0.19-1.7,0.21l0.06,0.41c-0.06,0.76-0.34,1.14-0.85,1.14c-0.31,0-0.59-0.16-0.82-0.47
		c-0.23-0.27-0.35-0.5-0.35-0.67c-0.23-0.55-0.43-1.46-0.59-2.75c-0.18-0.8-0.37-1.4-0.59-1.79c-0.45,0.9-0.96,1.71-1.52,2.43
		c-0.84,1-1.96,1.92-3.37,2.78c-0.12,0.08-0.27,0.12-0.47,0.12v-0.12c0.86-0.94,1.56-1.91,2.11-2.93c1.05-1.82,1.79-3.67,2.2-5.57
		c0.41-1.82,0.62-3.62,0.62-5.42c0-0.43-0.04-0.74-0.12-0.94c-0.33,0.31-0.64,0.59-0.94,0.82c-1.02,0.9-2.01,1.58-2.99,2.05
		c-0.41,0.2-0.67,0.29-0.79,0.29v-0.12c1.43-1.58,2.68-3.15,3.75-4.72c0.74-1.07,1.44-2.25,2.08-3.52c0.61-1.15,1.07-2.29,1.41-3.43
		c0.12-0.41,0.18-0.74,0.18-1c-0.16-0.33-0.23-0.64-0.23-0.94C223.18,1.07,223.33,0.99,223.62,0.99z M223.59,12.48
		c-0.04,0.39-0.09,0.76-0.15,1.11c0.64-0.16,1.22-0.31,1.73-0.47c0.16-0.06,0.27-0.09,0.35-0.09c1.09,0,1.64,0.39,1.64,1.17
		c0,0.12-0.07,0.19-0.21,0.21c-0.76,0.22-1.48,0.37-2.17,0.47c-0.55,0.12-0.9,0.18-1.05,0.18c-0.18,0-0.34-0.03-0.5-0.09
		c-0.1,0.64-0.21,1.23-0.32,1.76c0.37-0.04,0.84-0.12,1.41-0.23c0.86-0.16,1.55-0.33,2.08-0.53c0.12-0.08,0.25-0.12,0.41-0.12
		c0.25,0,0.47,0.07,0.64,0.21c0.14-0.68,0.29-1.54,0.47-2.58c0.12-0.6,0.18-1.14,0.18-1.61c0-0.23-0.09-0.35-0.26-0.35
		c-0.27,0-0.89,0.09-1.85,0.26C225.37,11.91,224.57,12.14,223.59,12.48z M224.15,23.99c0.45-0.04,0.99-0.11,1.61-0.21
		c0.66-0.08,1.24-0.17,1.73-0.26c0.12-0.27,0.21-0.54,0.29-0.79c0.14-0.43,0.21-0.84,0.21-1.23c0-0.37-0.24-0.57-0.73-0.59
		c-0.33,0-0.78,0.05-1.35,0.15c-0.7,0.16-1.43,0.36-2.17,0.62L224.15,23.99z M233.37,8.23c0.31,0,0.76,0.08,1.35,0.23
		c0.74,0.18,1.11,0.41,1.11,0.7v8.67c0,0.37-0.1,0.67-0.29,0.91c-0.18,0.33-0.44,0.5-0.79,0.5c-0.16,0-0.45-0.28-0.88-0.85
		c-0.25-0.43-0.38-0.68-0.38-0.76l0.09-1.17c-0.04-3.83-0.23-6.12-0.59-6.88c-0.16-0.35-0.23-0.6-0.23-0.73
		C232.76,8.43,232.96,8.23,233.37,8.23z M238.06,2.02c0.76,0,1.71,0.24,2.84,0.73c0.9,0.27,1.35,0.66,1.35,1.17
		c0,0.06-0.04,0.17-0.12,0.32c-0.51,1.19-0.79,2.3-0.85,3.34c-0.14,1.48-0.21,2.93-0.21,4.34c0,4.63,0.21,8.6,0.62,11.92
		c0,0.98-0.32,1.95-0.97,2.93c-0.51,0.68-0.93,1.03-1.26,1.03c-0.63,0-1.04-0.22-1.23-0.64c-0.35-0.57-1.58-1.63-3.69-3.19
		c0-0.31,0.15-0.47,0.44-0.47c1.31,0.23,2.17,0.35,2.58,0.35c0.18,0,0.29-0.21,0.35-0.64c0.12-0.55,0.21-1.8,0.29-3.75
		c0.14-2.79,0.21-5.73,0.21-8.82c0-1.78-0.07-3.32-0.21-4.63c-0.08-1.25-0.37-2.31-0.88-3.19c-0.06-0.12-0.09-0.21-0.09-0.29
		C237.24,2.18,237.51,2.02,238.06,2.02z"/>
</g>
<g>
	<path d="M5.26,11.17c0.1,0,0.25,0.04,0.45,0.13c0.25,0.18,0.38,0.33,0.38,0.45c0,0.12-0.02,0.22-0.06,0.32
		c-0.05,0.11-0.11,0.18-0.19,0.21c-0.41,0.13-0.82,0.23-1.22,0.32c-0.01,0.41-0.01,0.8-0.01,1.16v0.26c0.25,0.07,0.5,0.14,0.73,0.22
		c0.33,0.14,0.56,0.26,0.67,0.37c0.09,0.1,0.13,0.2,0.13,0.31c0,0.18-0.06,0.36-0.19,0.54C5.85,15.62,5.7,15.7,5.51,15.7
		c-0.22,0-0.38-0.1-0.47-0.31c-0.07-0.07-0.18-0.21-0.32-0.42c-0.04-0.08-0.07-0.14-0.09-0.19l0.04,4.79c0,0.21-0.1,0.44-0.31,0.69
		c-0.13,0.28-0.3,0.42-0.51,0.42s-0.4-0.19-0.56-0.56c-0.13-0.24-0.19-0.53-0.19-0.86C3.22,18.55,3.32,17.79,3.4,17
		c0.1-0.56,0.15-1.35,0.16-2.37c-0.07,0.14-0.14,0.28-0.21,0.42c-0.34,0.65-0.7,1.22-1.07,1.68c-0.34,0.39-0.67,0.71-1,0.95
		c-0.3,0.19-0.48,0.28-0.54,0.28h-0.1c0.36-0.54,0.63-1,0.81-1.38c0.42-0.74,0.78-1.46,1.08-2.17c0.24-0.63,0.42-1.12,0.51-1.48
		c-0.38,0.07-0.68,0.1-0.89,0.1c-0.56,0-0.92-0.14-1.08-0.42c-0.14-0.19-0.21-0.32-0.21-0.4c0-0.07,0.04-0.1,0.12-0.1
		c1.08-0.08,1.94-0.2,2.58-0.35c-0.01-1.7-0.05-2.7-0.13-2.99C3.35,8.4,3.22,8.03,3.05,7.67c0-0.08,0.05-0.12,0.16-0.12
		C3.6,7.55,4,7.65,4.4,7.85c0.39,0.18,0.59,0.37,0.59,0.57c0,0.11-0.02,0.23-0.07,0.37c-0.09,0.94-0.16,1.81-0.22,2.62
		c0.12-0.04,0.22-0.08,0.31-0.13C5.08,11.21,5.17,11.17,5.26,11.17z M6.86,9.12c0.25,0,0.56,0.06,0.91,0.18
		c0.4,0.12,0.6,0.25,0.6,0.41c0,0.03-0.01,0.06-0.04,0.1c-0.05,0.05-0.08,0.1-0.09,0.16C8.1,10.4,7.98,10.74,7.88,11
		c0.39-0.04,0.74-0.08,1.05-0.13c-0.02-1.6-0.09-2.47-0.22-2.61C8.66,8.05,8.59,7.87,8.51,7.72C8.45,7.64,8.42,7.56,8.42,7.5
		c0-0.13,0.1-0.19,0.31-0.19c0.4,0,0.78,0.06,1.14,0.18c0.41,0.11,0.62,0.26,0.62,0.47c0,0.13-0.03,0.23-0.09,0.31
		C10.3,8.45,10.24,8.7,10.21,9c-0.07,0.24-0.11,0.78-0.13,1.6c0.34-0.12,0.64-0.24,0.91-0.38c0.09-0.06,0.18-0.09,0.26-0.09
		c0.08,0,0.21,0.03,0.41,0.1c0.22,0.16,0.34,0.3,0.34,0.42c0,0.11-0.01,0.21-0.04,0.31c-0.04,0.11-0.1,0.18-0.18,0.21
		c-0.56,0.19-1.13,0.34-1.71,0.45v1.36c0.41-0.08,0.78-0.17,1.11-0.26c0.37-0.09,0.7-0.13,1-0.13c0.25,0,0.53,0.07,0.83,0.21
		c0.35,0.26,0.53,0.5,0.53,0.72c0,0.07-0.05,0.16-0.15,0.26c-0.08,0.11-0.17,0.16-0.26,0.16c-1.07,0-2.02,0.02-2.83,0.07
		c0.1,0.11,0.18,0.22,0.25,0.34c0.51,0.83,1.01,1.5,1.49,2.02c0.51,0.58,1.35,1.21,2.53,1.9v0.1c0,0.06-0.09,0.09-0.26,0.1
		c-0.84,0.13-1.59,0.19-2.26,0.19c-0.16,0-0.26-0.04-0.32-0.12c-0.38-0.64-0.87-1.72-1.46-3.22c-0.06-0.12-0.11-0.23-0.16-0.35
		c0.03,1.24,0.07,2.69,0.13,4.35c0,0.5-0.11,0.85-0.32,1.05c-0.18,0.27-0.36,0.41-0.54,0.41c-0.18,0-0.39-0.25-0.64-0.76
		c-0.08-0.21-0.12-0.38-0.12-0.53c0-0.25,0.03-0.46,0.09-0.63c0.04-0.14,0.07-0.38,0.09-0.73c0.06-0.55,0.1-1.31,0.13-2.3
		c-0.23,0.35-0.47,0.66-0.72,0.94c-0.43,0.52-0.9,0.95-1.41,1.29c-0.44,0.28-0.97,0.53-1.6,0.73v-0.13
		c0.23-0.18,0.45-0.37,0.64-0.57c0.46-0.47,0.86-0.94,1.2-1.42c0.42-0.54,0.84-1.25,1.27-2.15c0.06-0.1,0.11-0.21,0.15-0.32
		c-0.55,0.1-1.15,0.23-1.82,0.4c-0.04,0.02-0.09,0.03-0.16,0.03c-0.12,0-0.29-0.13-0.53-0.4C5.78,14,5.69,13.84,5.69,13.77
		c0-0.04,0.03-0.06,0.1-0.06c0.67-0.13,1.22-0.22,1.63-0.28c0.42-0.05,0.93-0.12,1.52-0.21h0.01v-1.33
		c-0.23,0.04-0.43,0.06-0.59,0.06c-0.38,0-0.66-0.08-0.83-0.25c-0.16,0.3-0.34,0.56-0.54,0.76c-0.21,0.21-0.44,0.37-0.72,0.47
		c0.09-0.28,0.15-0.46,0.18-0.54c0.07-0.25,0.14-0.53,0.21-0.82c0.07-0.36,0.13-0.79,0.18-1.27c0.02-0.13,0.03-0.26,0.03-0.41
		c0-0.18-0.03-0.32-0.1-0.42C6.71,9.35,6.68,9.28,6.68,9.24C6.68,9.16,6.74,9.12,6.86,9.12z"/>
	<path d="M23.25,13.71c0.71,0,1.07,0.25,1.07,0.76c0,0.11-0.08,0.18-0.23,0.22c-0.42,0.1-0.82,0.19-1.19,0.26
		c0.09,0.06,0.13,0.11,0.13,0.16c-0.01,0.05-0.02,0.1-0.03,0.15c-0.11,0.22-0.21,0.89-0.32,1.99c0.42-0.13,0.85-0.27,1.3-0.42
		c0.4-0.14,0.64-0.21,0.73-0.21c0.24,0,0.37,0.08,0.37,0.25c0,0.04-0.07,0.1-0.21,0.19c-0.52,0.34-1.31,0.82-2.37,1.42
		c-0.6,0.33-1.29,0.76-2.09,1.27c-0.1,0.1-0.19,0.15-0.26,0.15c-0.15,0-0.4-0.21-0.75-0.63c-0.28-0.42-0.42-0.72-0.42-0.89
		c0-0.11,0.06-0.16,0.18-0.16c0.26-0.02,0.51-0.07,0.75-0.15c0.46-0.12,1.02-0.27,1.67-0.47c0.02-0.67,0.03-1.2,0.03-1.57
		c-0.01-0.4-0.02-0.66-0.04-0.78c-0.01-0.03-0.02-0.05-0.03-0.07c-0.62,0.1-1.02,0.15-1.2,0.15c-0.22,0-0.42-0.07-0.6-0.21
		c-0.15-0.15-0.22-0.29-0.22-0.44c0-0.06,0.04-0.09,0.12-0.1c1.16-0.21,2.23-0.48,3.21-0.79C23.02,13.74,23.16,13.71,23.25,13.71z
		 M27.7,10.19c0.11,0,0.28,0.05,0.53,0.15c0.28,0.21,0.42,0.39,0.42,0.54c0,0.13-0.02,0.24-0.07,0.35
		c-0.06,0.14-0.14,0.22-0.23,0.25c-0.81,0.21-1.63,0.42-2.45,0.6c0.13,0.85,0.33,1.65,0.6,2.39c0.31,0.94,0.72,1.76,1.23,2.48
		c0.36,0.53,0.76,0.98,1.2,1.35c0.45,0.38,0.77,0.57,0.95,0.57c0.04,0,0.08-0.06,0.12-0.19c0.18-0.49,0.36-1.08,0.56-1.77
		c0.02-0.07,0.05-0.1,0.09-0.1c0.1,0,0.15,0.11,0.15,0.32c0,0.25,0,0.48,0.01,0.69c0,1.05,0.06,1.71,0.18,1.96
		c0.09,0.13,0.13,0.25,0.13,0.38c0,0.39-0.14,0.59-0.41,0.59c-0.34,0-0.78-0.11-1.32-0.32c-0.47-0.2-0.93-0.5-1.38-0.91
		c-0.55-0.52-1-1.05-1.35-1.61c-0.52-0.78-0.92-1.64-1.2-2.56c-0.27-0.73-0.53-1.73-0.78-2.99c-0.42,0.09-0.83,0.17-1.25,0.23
		c-1.18,0.23-2.07,0.35-2.65,0.35c-0.63,0-1.04-0.19-1.25-0.56c-0.14-0.22-0.21-0.39-0.21-0.48c0-0.04,0.04-0.06,0.12-0.06
		c2.12-0.15,3.8-0.35,5.04-0.62c-0.08-0.51-0.16-1.04-0.23-1.61c-0.06-0.43-0.11-0.77-0.16-1.03c-0.09-0.37-0.21-0.68-0.35-0.94
		c-0.05-0.08-0.07-0.17-0.07-0.28c0-0.12,0.09-0.18,0.28-0.18c0.43,0,0.85,0.09,1.26,0.26c0.37,0.13,0.56,0.27,0.56,0.44
		c0,0.14-0.02,0.24-0.06,0.32c-0.07,0.12-0.1,0.26-0.1,0.44c0,0.8,0.04,1.54,0.12,2.21c0.54-0.17,1.03-0.34,1.46-0.53
		C27.36,10.24,27.53,10.19,27.7,10.19z M26.84,7.89c0.18,0,0.39,0.03,0.63,0.09c0.59,0.14,1.04,0.29,1.35,0.47
		c0.23,0.18,0.35,0.42,0.35,0.73c0,0.16-0.08,0.31-0.25,0.45c-0.19,0.13-0.38,0.19-0.57,0.19c-0.13,0-0.26-0.07-0.4-0.21
		c-0.27-0.22-0.65-0.7-1.13-1.44c-0.07-0.09-0.1-0.15-0.1-0.18C26.73,7.93,26.77,7.89,26.84,7.89z"/>
	<path d="M39.92,7.36c0.36,0,0.8,0.12,1.3,0.37c0.34,0.11,0.51,0.26,0.51,0.47c0,0.07-0.04,0.12-0.12,0.16
		c-0.08,0.1-0.18,0.26-0.29,0.48c-0.01,0.01-0.01,0.02-0.01,0.03C41.55,9.01,41.78,9.22,42,9.5c0.76,0.9,1.5,1.63,2.23,2.18
		c0.77,0.63,2.03,1.33,3.78,2.08v0.12c0,0.06-0.1,0.1-0.31,0.12c-0.99,0.15-1.86,0.22-2.62,0.22c-0.28,0-0.47-0.04-0.57-0.12
		c-0.68-0.71-1.55-1.88-2.61-3.5c-0.2-0.28-0.45-0.61-0.78-0.98C41.06,9.55,41,9.49,40.95,9.43c-0.54,0.79-1.12,1.52-1.74,2.18
		c-0.77,0.89-1.59,1.62-2.46,2.2c-0.71,0.51-1.41,0.88-2.08,1.11c-0.28,0.13-0.46,0.19-0.53,0.19v-0.06
		c1.09-0.88,2.06-1.76,2.89-2.64c0.56-0.6,1.08-1.24,1.58-1.93c0.48-0.63,0.83-1.27,1.07-1.9c0.09-0.22,0.13-0.42,0.13-0.57
		c-0.07-0.18-0.1-0.35-0.1-0.51C39.7,7.41,39.77,7.36,39.92,7.36z M44.04,14.69c0.22,0,0.47,0.09,0.75,0.26
		c0.24,0.16,0.37,0.37,0.37,0.63c0,0.3-0.08,0.45-0.25,0.45c-1.46,0-2.84,0.06-4.13,0.19c0.25,0.12,0.38,0.25,0.38,0.4
		c0,0.11-0.07,0.22-0.21,0.35c-0.18,0.12-0.32,0.24-0.44,0.38c-0.36,0.43-0.79,0.9-1.29,1.42c0.89-0.11,2.07-0.27,3.53-0.48
		c-0.2-0.39-0.33-0.64-0.41-0.75c-0.16-0.23-0.23-0.4-0.23-0.5c0-0.04,0.02-0.06,0.06-0.06c0.09,0,0.23,0.02,0.42,0.07
		c0.37,0.18,0.74,0.38,1.11,0.62c0.48,0.34,0.8,0.65,0.97,0.94c0.12,0.25,0.18,0.53,0.18,0.83c0,0.18-0.05,0.37-0.16,0.57
		c-0.12,0.16-0.28,0.23-0.48,0.23c-0.24,0-0.42-0.09-0.53-0.28c-0.13-0.17-0.32-0.48-0.59-0.95c-0.02-0.04-0.03-0.07-0.04-0.09
		c-0.04,0.02-0.08,0.03-0.12,0.04c-2.87,0.64-4.59,1.07-5.16,1.27c-0.39,0-0.59-0.18-0.59-0.53c0-0.3,0.02-0.54,0.07-0.72
		c0.04-0.3,0.17-0.45,0.4-0.45c0.11-0.05,0.2-0.09,0.28-0.13c0.1-0.05,0.24-0.19,0.42-0.42c0.18-0.2,0.33-0.42,0.47-0.67
		c0.13-0.21,0.22-0.42,0.28-0.66c0.04-0.14,0.06-0.23,0.07-0.29c-0.55,0.08-1.12,0.17-1.73,0.28c-0.29,0.06-0.48,0.09-0.57,0.09
		c-0.16,0-0.36-0.12-0.62-0.35c-0.21-0.21-0.31-0.39-0.31-0.51c0-0.04,0.03-0.06,0.1-0.06c1.5-0.18,2.81-0.34,3.93-0.5
		c1.08-0.15,2.19-0.33,3.31-0.56C43.55,14.71,43.8,14.69,44.04,14.69z M41.85,12.48c0.1,0,0.26,0.04,0.48,0.13
		c0.27,0.19,0.41,0.36,0.41,0.51c0,0.13-0.02,0.24-0.07,0.34c-0.06,0.13-0.14,0.21-0.23,0.25c-0.58,0.16-1.18,0.28-1.82,0.38
		c-0.44,0.09-0.77,0.13-0.98,0.13c-0.62,0-1.02-0.16-1.2-0.48c-0.15-0.21-0.22-0.36-0.22-0.44s0.04-0.12,0.13-0.12
		c0.93-0.06,1.66-0.16,2.18-0.29c0.42-0.1,0.79-0.21,1.11-0.35C41.72,12.5,41.79,12.48,41.85,12.48z"/>
	<path d="M55.31,10.88c0.16,0,0.45,0.11,0.89,0.32c0.54,0.31,0.81,0.58,0.81,0.81c0,0.08-0.07,0.14-0.21,0.19
		c-0.5,0.3-0.8,0.52-0.89,0.64c-0.43,0.59-0.84,1.09-1.23,1.52c0.49,0.26,0.73,0.47,0.73,0.63c0,0.08-0.03,0.21-0.1,0.38
		c-0.08,0.26-0.12,0.41-0.12,0.44l0.12,3.33c0,0.23-0.08,0.48-0.25,0.73c-0.19,0.33-0.34,0.5-0.45,0.5c-0.27,0-0.53-0.32-0.76-0.97
		c-0.09-0.18-0.13-0.32-0.13-0.42c0-0.21,0.09-0.78,0.26-1.71c0.07-0.31,0.1-0.87,0.1-1.68c0-0.2-0.01-0.38-0.04-0.56
		c-0.07,0.07-0.13,0.13-0.19,0.19c-0.66,0.71-1.42,1.28-2.27,1.71c-0.31,0.19-0.52,0.28-0.62,0.28c-0.02,0-0.03-0.02-0.04-0.06
		c0-0.02,0.05-0.09,0.16-0.21c0.78-0.72,1.37-1.34,1.76-1.85c0.65-0.79,1.25-1.67,1.77-2.62c0.04-0.08,0.06-0.14,0.06-0.19
		c0-0.08-0.04-0.12-0.12-0.12c-1.26,0.51-1.99,0.76-2.18,0.76c-0.22,0-0.47-0.13-0.73-0.4c-0.17-0.22-0.25-0.38-0.25-0.47
		c0-0.16,0.06-0.23,0.18-0.23c0.91-0.04,1.58-0.11,2.01-0.21c0.45-0.09,0.97-0.31,1.57-0.67C55.25,10.91,55.31,10.89,55.31,10.88z
		 M53.79,7.77c0.18,0,0.39,0.02,0.63,0.07c0.59,0.13,1.04,0.27,1.35,0.44c0.23,0.15,0.35,0.37,0.35,0.67c0,0.17-0.09,0.34-0.28,0.53
		c-0.22,0.15-0.44,0.22-0.64,0.22c-0.14,0-0.26-0.06-0.38-0.19c-0.25-0.23-0.61-0.72-1.05-1.46c-0.07-0.07-0.1-0.12-0.1-0.16
		C53.67,7.81,53.72,7.77,53.79,7.77z M55.35,13.88c0.13,0,0.27,0.02,0.44,0.07c0.4,0.12,0.7,0.26,0.89,0.42
		c0.18,0.16,0.26,0.38,0.26,0.67c0,0.12-0.07,0.23-0.21,0.35c-0.15,0.12-0.29,0.18-0.44,0.18c-0.1,0-0.19-0.06-0.26-0.19
		c-0.18-0.21-0.42-0.64-0.73-1.3c-0.04-0.07-0.06-0.12-0.06-0.15C55.26,13.9,55.29,13.88,55.35,13.88z M62.33,11.95
		c0.11,0,0.28,0.05,0.51,0.15c0.29,0.21,0.44,0.39,0.44,0.56c0,0.12-0.02,0.23-0.07,0.34c-0.06,0.14-0.14,0.22-0.23,0.25
		c-0.69,0.22-1.4,0.42-2.12,0.59l-0.07,2.83c0.85-0.17,1.55-0.33,2.09-0.48c0.07-0.01,0.12-0.01,0.16-0.01
		c0.32,0,0.7,0.13,1.13,0.38c0.38,0.32,0.57,0.65,0.57,0.98c0,0.34-0.14,0.51-0.41,0.51c-0.26,0-0.73-0.04-1.41-0.12
		c-0.41-0.08-0.76-0.12-1.05-0.12c-1.09,0-1.99,0.07-2.7,0.21c-0.59,0.11-1.16,0.27-1.73,0.5c-0.13,0.08-0.25,0.12-0.37,0.12
		c-0.27,0-0.57-0.16-0.89-0.47c-0.26-0.32-0.4-0.53-0.4-0.63c0-0.09,0.04-0.13,0.12-0.13c0.51,0,1.59-0.14,3.25-0.41
		c0.09-0.02,0.18-0.03,0.26-0.04l-0.03-2.8c-0.35,0.06-0.64,0.09-0.86,0.09c-0.63,0-1.04-0.19-1.25-0.56
		c-0.14-0.22-0.21-0.39-0.21-0.48c0-0.04,0.04-0.06,0.12-0.06c0.85-0.07,1.58-0.16,2.2-0.26v-1.03c0-0.81-0.04-1.56-0.13-2.26
		c-0.01-0.31-0.11-0.62-0.29-0.91c-0.01-0.05-0.01-0.09-0.01-0.13c0-0.15,0.13-0.22,0.4-0.22c0.37,0,0.78,0.07,1.22,0.22
		c0.44,0.2,0.66,0.37,0.66,0.53c0,0.07-0.02,0.15-0.07,0.23c-0.1,0.28-0.18,0.85-0.23,1.71l-0.03,1.51c0.42-0.15,0.8-0.3,1.14-0.47
		C62.13,11.98,62.23,11.95,62.33,11.95z"/>
</g>
</svg>
